<?xml version="1.0" encoding="UTF-8"?>
<svg xmlns="http://www.w3.org/2000/svg" viewBox="0 0 375 66.22">
  <defs>
    <style>
      .cls-1 {
        opacity: .85;
      }

      .cls-1, .cls-2, .cls-3 {
        fill: none;
      }

      .cls-2 {
        isolation: isolate;
      }

      .cls-4 {
        fill: #eef2d5;
      }

      .cls-5 {
        fill: #f0f0b1;
      }

      .cls-6 {
        fill: #e3edc0;
      }

      .cls-7 {
        fill: #edf4e5;
      }

      .cls-8 {
        fill: #f1f4cb;
      }

      .cls-9 {
        fill: #bae0df;
      }

      .cls-10 {
        fill: #b2dddf;
      }

      .cls-11 {
        fill: #bbdeca;
      }

      .cls-12 {
        fill: #d9e69c;
      }

      .cls-13 {
        fill: #d6e7b2;
      }

      .cls-14 {
        fill: #c4e2d2;
      }

      .cls-15 {
        fill: #c8e3c6;
      }

      .cls-16 {
        fill: #dee9a5;
      }

      .cls-17 {
        fill: #c3e3ef;
      }

      .cls-18 {
        fill: #c3dfac;
      }

      .cls-19 {
        fill: #c4e0ba;
      }

      .cls-20 {
        fill: #d9e7ab;
      }

      .cls-21 {
        fill: #d8ebf3;
      }

      .cls-22 {
        fill: #cae2b5;
      }

      .cls-23 {
        fill: #c7e5e2;
      }

      .cls-24 {
        fill: #d5ebe9;
      }

      .cls-3 {
        mix-blend-mode: multiply;
      }

      .cls-25 {
        fill: #cae4c6;
      }

      .cls-25, .cls-26, .cls-27, .cls-28, .cls-29, .cls-30, .cls-31, .cls-32, .cls-33, .cls-34, .cls-35, .cls-36, .cls-37, .cls-38, .cls-39 {
        fill-rule: evenodd;
      }

      .cls-26 {
        fill: #acd8be;
      }

      .cls-27 {
        fill: #c5e3cf;
      }

      .cls-28 {
        fill: #c7e3c5;
      }

      .cls-29 {
        fill: #c7e6e6;
      }

      .cls-30 {
        fill: #aad8cb;
      }

      .cls-31 {
        fill: #afd9c2;
      }

      .cls-32 {
        fill: #abd8cb;
      }

      .cls-33 {
        fill: #b4dedd;
      }

      .cls-34 {
        fill: #badecc;
      }

      .cls-35 {
        fill: #baddbf;
      }

      .cls-36 {
        fill: #c2e0bc;
      }

      .cls-37 {
        fill: #b6ddce;
      }

      .cls-38 {
        fill: #c1e0c3;
      }

      .cls-39 {
        fill: #b6dbbf;
      }
    </style>
  </defs>
  <g class="cls-2">
    <g id="_背景" data-name="背景">
      <g class="cls-1">
        <path class="cls-19" d="m333.22,42.22c.09-.42-.02-.87.19-1.25.75-.33,2.31.2,2.29-.99.17-1.67.07-3.95,1.41-5.11,1.2-.79.65,1.01,3.1.08,1.07-.47,2.13.03,3.19,0,.49.08.66.71,1,1.02.73,1.43,1.92-.15,2.77.91.37.48.8.85,1.34,1.13,1.37.55.06,2.19,1.14,2.95.97.8.72-1.47,2.15-.92.96.22,1.37-.98,2.36-.86.73-.06,1.49-.03,2.16-.45.35-.22.71-.07,1.01.15.79.58,1.79.35,2.63.73,1.01.05.84-1.8,2.59-1.25.4.09.86.08,1.22-.01,1.3-.31,2.42.58,3.69.48.83-.16,1.31,1.08,2.07,1.04.29-.11.19-.39.18-.61-.03-.6.04-1.18.31-1.73.19-.4.13-.79-.03-1.19-.91-1.57,3.04.06,1.93-1.9-.49-1.2-2.61-1.69-2.48-3.05.26-.66.65-1.42,1.6-1.48.69-.05.78-.59.64-1.07-.59-2.04,1.02-2.98,2.06-4.18.78-.79,1.95.27,2.88-.27,2.41-.49,1.38,2.35,2.27,2.42,2.86.78,2.9-1.35,3.79-.58.89,1.18,1.31,2.45,1.41,3.85-.43.84-.74,1-1.46.62-.73-.38-1.52-.19-2.27-.3-.16-.02-.32.07-.4.2-.41.66-1.2.76-1.75,1.21-.64.38-1.72-.56-2.41-.93.05,1.22-.84,1.84-.79,2.93.05.57-.03,1.06-.45,1.49-.69.42,1.83,2.18,1.85,4.81.08.49-.05.97-.43,1.26-2.51,1.83,1.07,4.61-.41,6.53-.44.28-.76-.04-1.11-.26-.8-.37-.87-1.2-1.26-1.86-.64-.52-.8-1.15-.5-1.93-.43.79-.72.85-1.33.26-.77-.42-1.59.04-2.11-1.04-.43-1.47-1.53-2.08-2.82-2.51-.6-.2-2.29-1.18-1.92.21.61.7-.2,1.41-.93.96-.18-.08-.38-.24-.55-.02-.14.17-.04.35.05.51.55.83-.09,1.45-.29,2.24-.03.43-.29.64-.7.68-4.46.69-.39,3.69-1.56,6.62-.18,1.6-.23,2.01-1.89,2.03-.51.04-.93-.08-1.11-.61-.17-.51-.51-.59-.97-.45-1.01.28-1.17-1.1-2.4-1.06-.82-.19-1.76.03-2.46-.7-.19-.2-.54-.06-.82.03-2,.32-.35-1.75.1-2.51-.7-.06-.95.67-1.61.75-1.98.4.45-1.85-1.38-1.76-.81-.18-1.73-.65-2.17-1.3-.16-2.73,3.74-1.32,3.13-3.59-.32-.87-.93-1.63-.76-2.62.09-.7-.47-1.49-1.14-1.73-.05-.02-.11-.06-.15-.03-.61.48-1.6.27-2.02,1.11-.23.47-.59.76-1.16.73-1.68-.04-.57-1.3-1.19-1.94-.28-.14-1.16.26-1.05.62.23.97.04,1.99.37,2.97.37.68-.59,3.8-1.51,2.88-.78-.45-1.53-1.76-2.49-1.29-1.59.7-4.14,1.23-4.63-1.07Z"/>
        <path class="cls-10" d="m352.53,12.98c.77-.09,1.39.46,2.16.49.47.03.92-.13,1.38-.08,1.73.21,3.66-.52,4.49,1.66,1.16.78.93,2.09,1.22,3.2.38,2.28-4.03-.27-3.72,1.73,1.02,1.63.19,3.17-.9,4.53-1.68,1.73-4.45.29-6.53,1.29-1.34.41-1.23,2.24-2.87,3.07-1.13.54-2.27-.93-3.48-.36-1.24.72-2.45-.78-3.63.02-1.29.91-2.44-1.2-3.63.06-.17.13-.53.36-.73.1-.05-.77.42-1.29.87-1.68,1.28-1.1,2.2-2.5,3.26-3.79.55-.67,1.15-1.29,1.48-2.14,1.49-1.48,3.45-2.68,4.99-4.2.96-.4.5-2.26,1.64-2.24,1.75.4,2.44-1.28,4-1.66Z"/>
        <path class="cls-16" d="m375.48,61.11c-.27.22-.53.36-.89.4-.63.39-1.14.9-1.9,1.04-.65-.07-1.21,0-1.63.44-2.01,1.87-5.45,2.38-7.9,1.33-.41-.49-.93-.53-1.48-.35-2.16.59-8.23,1.12-9.09-1.45-.16-.58-.57-.8-1.19-.48-3.86,2.48-4.04-3.55-6.57-.73-.54.69-1.18-.14-1.77-.15-.34-.02-.64-.05-.92-.26-1.61-1.56-3.59-2.55-4.59-4.66-.66-1.04-1.83-2.02-1.54-3.41,2.12-1.02,1.82,1.93,3.72,1.72,1.55-.08,1.11,1.83,2.67,2.59.49.19,1.76-.88,2.11-1.32.35-.87,1.74-.46,1.73.38-.05,1.69,1.27,1.85,2.4,2.33,1.88,1.02,2.98-.62,4.53-.49.5.47,1.44-.49,1.58.35.38.82.24,2.67,1.52,2.4,1.35-.14,1.85-1.31,2.74-2.07.35-.16.58-.4.69-.78.54-1.05,2.29-1.09,3.33-.71.85.38,1.11.28,1.43-.61.37-.79,2.23-2.22,3-1.2-.16,1.22-1.67.19-2.17,1.9-.61,1.19-.03,2.27-.07,3.38-.03.65.54,1.2,1.16,1.41,1.57.65,2.54-1.37,4-1.63.59-.3,1.33.19,2.01.29.96.27,2.57-.69,1.92-1.71-1.22-1.25-.17-2.77-.52-4.11-.38-.46-.32-.95-.08-1.5,1.19-.57,1.97.95,3.07.35.56-.27,1.17-.36,1.85-.4,3.16.79-.22,5.75-1.62,6.99-.48.25-1.01.38-1.51.7Z"/>
        <path class="cls-22" d="m333.23,42.46c.97.52,1.17,1.7,2.58,1.21,1.06.06,2.6-1.4,3.24-.39.18.24.32.46.65.46.38.07.48.59.81.78.49.71,1.49-2.37,1.19-2.67-.13-.63-.42-1.31-.36-1.95.15-.39.1-.73-.08-1.1-.21-.44-.15-.52.38-.63.48-.14.91-.85,1.24-.1.15.27.1.53.02.81-.43,1.13,1.09,1.21,1.56.7.4-.51.54-1.27,1.37-1.12.67.01.97-1.17,1.54-.22.31.44,1.23.52,1.01,1.2-.57,2.08,1.67,2.91.46,4.71-.64-.1-1.14.4-1.78.36-.57-.03-.62.03-.58.6-.14.6-1.16.92-.11,1.45.35.14.7.2.95.57.2.3.62.12.95.15,1.4.25.43,1.04.38,1.78.88.34,1.41-.58,2.13-.88.37-.28.76.27.42.54-.51.37-2.03,2.59-.47,2.11.37-.15,1.21-.36,1.38.12.04.55,2.33.44,2.93.66.74.18.65,1.39,1.59.9,1.38-.65.65,1.57,2.06,1.07,1.58-.11,1.33.05,1.61-1.44.58-.4,1.1.61,1.88.54.1.84-.32,2.05-1.32,1.85-1.1-.49-2.86.42-3.5-.78-.41-1.13-1.68.75-2.17-.4-1.31-2.73-3.36.16-3.98-1.05-1-1.41-3.21-1.57-3.88-3.44-.76-1.4-2.43-.01-3.29.71-.26.16-.24.4-.2.68.37,1.14-1.63,2.84-2.24,1.48-.31-2.01-2.73-2.06-4.3-1.53-3.61.52-1.65-5.17-4.18-6.42.06-.38-.19-1.08.11-1.32Z"/>
        <path class="cls-22" d="m369.24,43c.14-.03.27-.03.3.08.34.93,1.24.68,1.95.53.07.28-.14.74.39.74.25,0,.47-.02.48-.35.02-.24-.05-.57.26-.65.9.47-.62,1.65.6,2.09.52.43.29,1.45.9,1.78,3.82,2.75-.45-4.38,1.07-5.3,1.91-1.38.72-3.57-.23-5.2-.3-.48-1.3-.77-.72-1.42.95-.59.3-1.59.71-2.43.21-.61.74-1.11.55-1.85-.04-.3.46-.57.61-.18.28.53,1.01.31,1.36.78.54.63.69-.32,1.15-.38,1,.14,1.05-1.44,2.01-1.04.23.07.46.14.68.07,1.08-.38,1.82,1.18,2.61-.09,1.17,1.6,1.01,4.11,1.38,6.03.01.86-.17,1.19-1.04,1.24-1.03.05-2.04.1-2.95.69-.37.24-.83.27-1.27.1-.94-.59-.55,2.47-.62,3.02.35,1.57-1.83,1.25-2.23,2.46-.23.43-.23.89.21,1.25,2.16,1.8.53,5.64-2.29,5.07-1.48.33-2.19,1.89-4,.74-.13-.26-.03-.44.08-.62,1.37-1.91-.56-3.01-1.77-4.24-.7-.77.17-1.89-.18-2.91Z"/>
        <path class="cls-14" d="m381.73,22.99c.04.17.01.33.08.41.49.58.14,1.22.43,1.87-.69.36-1.22-1.18-1.74-1.56-.52-.74-1.64-.47-1.83-1.55-.11-.42-.55-.54-.91-.12-.82.64-2.18.09-3,.92-1.4.72-1.89,2.26-2.91,3.32-.64.37-.81,1.12-1.29,1.61-.74.55-1.25,1.16-1.41,2.16-.09.58-.64,1.14-1,1.7-2.54,2.83.12,6.73-2.67,6.28-.83-.1-1.66.06-2.51-.23-1.14-.27-2.11,1.47-3.35.88-1.25-.03-2.51-1.6-3.64-.8-.85.91-1.83-.06-2.84.02-3.07.2-2.54-5.21-6.19-3.2-.78-.8,1.2-1.19-.04-2.18-.24-.23-.44-.51-.46-.92.28-.5.61-.88,1.16-1.08,4.22,2.09,1.04,1.99,4.05,3.9.05.71.5.8,1.07.89,1.31.47,1.53,2.69,3.17,1.21,2.54-2.26,3.13,1.97,5.14-.38,1.01-.95,1.3-.97,2.48-.23.97.79,2.39.44,1.85-.97-.38-1.6,1.53-2.77.62-4.39-.39-.94,1.33-.81,1.08-2.31,1.31-1.83-1.8-4.46-.53-6.13.86-.62.8-2.08,2.22-1.65.34.09.54-.26.67-.54.39-.86,1.34-1.19,1.8-1.98.09-.16.32-.14.5-.12.88.07,1.53-.9,2.39-.18,3.54,1.94,5.22,1.16,7.58,5.37Z"/>
        <path class="cls-15" d="m346.83,34.65c1.19-.72,2.44-.99,3.26.38.32.54.94.8.98,1.5.04.57.55.76,1,.96.9.36,1.88.05,2.75.59.33.17.76-.03,1.03-.34,1.32-1.38,3.87,2.02,5.4.45.41-.44,1.09-.26,1.49-.73.11-.12.44.06.63.17.2.12.4.29.64.21.89-.32,3.06.63,2.76-1.02-.24-.78.05-1.6-.24-2.36-.07-.19.06-.35.2-.47.69-.57.48-1.61,1.15-2.22.23-.28.53-.5.48-.92-.02-.18.15-.26.27-.34.89-.48.07-1.6.98-2.08,1.05-.48,1.19-1.76,2.15-2.34.84-.85,1.24-2.07,2.28-2.84.5-.69,1.31-.73,2.02-1.02.29-.21.53-.31.88-.06.64.46.65-.9,1.24-.68,1.2.22.4,1.28,1.4,1.4,1.26.24,1.57,1.77,2.61,2.42.22.28.44.51.51.88-1.02-.19-1.15,1.36-2.69.95-.57-.24-1.79.21-1.78-.69.22-.94-.58-2.51-1.66-1.88-1.59.77-2.38-1.3-3.95,1.6-.28.74-1.45,1.18-.88,2.1.34.82.24,2.11-.91,1.84-.15-.02-.35-.04-.43.11-.15.54-1.04.9-.9,1.43.69,1.07,1.95,1.57,2.6,2.68,1.04,1.29-1.23,1.65-2.11,1.38-.09.15-.05.24,0,.33.4.55.46,1.1.09,1.71-.61.74.45,3.38-1.28,2.1-.88-1.36-2.31-.43-3.35-1.24-.63-.48-1.33.25-2.01-.11-.12-.05-.25-.03-.37.02-.28.11-.54.07-.83,0-1.52-.6-1.39,2.19-2.98,1.12-.3-.14-.56-.31-.94-.17-.72.29-1.25-.97-1.94-.65-.99,1.02-2.6-.01-3.51,1.08-.63.98-2.18-.52-2.33,1-.28,1.43-2.02-.36-1.66-1.29.2-.96.08-1.24-.83-1.59-.85-.25-.86-1.32-1.78-1.42.02-.67.37-1.26.52-1.97Z"/>
        <path class="cls-11" d="m346.87,34.55c.13,2.62-2.07,3.2-3.22.81-.31-.57-1.01.15-1.5-.33-1.27-.7-3.37,1.34-4.19-.01-.51-.68-1.48.62-1.53,1.24-.18,1.34-.61,2.63-.54,4.01.03.55-.08.65-.6.66-.58,0-1.15.36-1.79.04-.05-.14-.05-.26-.03-.43,1.82-1.68,1.14-4.24,2.49-6.05.44-.89.21-3.13,1.9-2.34,1.01.52,1.3.37,1.41-.81.21-1.53,1.76-2.07,2.69-.8,1.05.17,2,.79,3.1.68.5-.05.97-.06,1.46.24.15.97,1.8,1.43.77,2.33-.19.2-.44.37-.42.75Z"/>
        <path class="cls-17" d="m352.31,13.09c-.05.14-.06.28-.17.3-1.73.51-1.38,1.83-3.74,1.44-.33,0-.48.14-.45.46.04.39-.25.64-.37.96-.78,1.37-2.22,2.02-3.28,3.14-.86.78-2.3,1.14-2.54,2.43-1.37,1.82-2.71,3.78-4.46,5.31-.9.84-1,2.14-2.69,2.03-.51-1.97,2.75-4.24,3.41-6.15.43-.87,1.29-1.52,1.5-2.5.31-1.68,1.68-2.51,2.67-3.76,1.29-.34,1.59-1.87,2.75-2.3,2.39-.44,4.93-1.91,7.36-1.34Z"/>
        <path class="cls-5" d="m344.58,61.55c.37-1.19,2.08-1.86,2.73-.7.38,1.11,1.47,1.26,2.34,1.71.59.19.84-.75,1.49-.61.72-.2,1.05-.75,1.47.14.41.4.27,1.2.84,1.39,2.81,1.03,5.9.86,8.75.19.43,0,.83.02,1.04.48,1.47.89,3.67.5,5.33.09,1.65-.13,2.32-2.3,4.05-1.84.2.28-.11.48-.36.51-.63.61-1.49.84-2.19,1.34-.92.04-1.8.53-2.62.93-.86.17-1.73.29-2.6.36-3.7.39-7.63,1.14-11.13-.49-3.22-.73-6.42-1.33-9.14-3.49Z"/>
        <path class="cls-24" d="m378.89,19.81c-1.44-1.04-3.18-1.37-4.54-2.57-.96-1-2.49-.97-3.5-1.86-.93-.88-1.4.62-2.26.88-.79-.62.63-1.47-.38-1.96-1.61-.83-3.62-1.75-5.42-1.17-2.27,1.15-4.52-.77-6.75.33-.25-.05-.41.17-.65.02,4.1-2.89,9.31-1.51,13.72-.5.77-.03,1.27.8,2.04.77,2.5.82,4.35,2.88,6.59,4.2.41.23,3.31,2.59,1.72,2.28-.16-.17-.32-.33-.58-.43Z"/>
        <path class="cls-14" d="m339.41,31.33c.31.84-.63,1.92-1.41,1.18-.66-.87-1.55-.05-1.61.92.19.69-.16,1.13-.59,1.59-.9,1.67-.3,4.47-2.27,5.47-.14-2.32-.04-4.63-.09-7.03.88-1.31,1.1-2.86,2.72-3.57.62.16,1.14.53,1.79.28.19-.08.4.12.47.32.16.46.53.66.99.84Z"/>
        <path class="cls-6" d="m333.05,43.77c2.22.15.85,6.95,4.17,6.29.61.4.88.93.76,1.66-.67.44-1.49.13-1.89,1.07-.08,1.62,1.1,2.49,1.87,3.73.88,2,3.01,2.65,4.27,4.3-1.36.9-3.88-1.49-4.35-2.77-1.06-.91-1.23-2.15-1.62-3.4-1.49-3.47-3.55-7.02-3.21-10.88Z"/>
        <path class="cls-21" d="m342.18,16.69c-.21,1.35-2.22,1.98-2.38,3.51-1.3,3.2-3.99,5.98-5.55,8.88.04-2.33,5.74-11.73,7.93-12.39Z"/>
        <path class="cls-4" d="m344.49,61.49c1.82.88,3.46,1.84,5.38,2.51,1.44.52,2.98.26,4.34,1.07,3.05,1.28,6.43.57,9.61.54-2.78.96-5.93.6-8.8.21-1.18-.43-2.18-1.08-3.46-1.09-3.15-.21-5.7-2.3-8.52-3.53.52-.24.9.25,1.45.3Z"/>
        <path class="cls-24" d="m334.18,29.1c.67-.04,1.65-.61,2.18-.4.76,1.42-2.17,2.32-2.24,4.02-.08.27-.15.63-.61.66-.11-1.46.16-2.9.67-4.28Z"/>
        <path class="cls-17" d="m354.72,13.42c-.21.66-1.25-.17-1.66-.4.57-.03,1.19-.2,1.66.4Z"/>
        <path class="cls-8" d="m372.56,62.85c-.01-.12.03-.23.1-.38.29-.14.57-.24.9-.34-.19.37-.46.7-1,.72Z"/>
        <path class="cls-4" d="m367.47,65.2c.14-.55.67-.46,1.14-.59-.19.46-.72.37-1.14.59Z"/>
        <path class="cls-8" d="m373.8,62.11c0-.41.32-.49.69-.59-.04.36-.24.59-.69.59Z"/>
        <path class="cls-4" d="m364.83,65.58c.18-.33.5-.17.84-.2-.12.46-.48.28-.84.2Z"/>
        <path class="cls-4" d="m370.86,63.81c.07-.4.45-.36.8-.46-.1.35-.41.43-.8.46Z"/>
        <path class="cls-7" d="m333.75,48.87c.41.09.36.46.43.84-.3-.15-.42-.43-.43-.84Z"/>
        <path class="cls-4" d="m341.97,61.08c.01-.29.51-.24.6,0-.17.11-.36.13-.6,0Z"/>
        <path class="cls-4" d="m371.78,63.33c-.02-.23.09-.39.38-.43.02.22-.08.39-.38.43Z"/>
        <path class="cls-4" d="m370.09,64.27c.09-.13.05-.45.39-.34-.04.2-.15.31-.39.34Z"/>
        <path class="cls-7" d="m333.25,41.28c.18.1.2.23.05.41-.19-.1-.21-.23-.05-.41Z"/>
        <path class="cls-4" d="m366.52,65.39c.06-.18.2-.18.39-.18,0,.25-.12.35-.39.18Z"/>
        <path class="cls-7" d="m333.27,42.44c-.03.05-.05.05-.12.05-.2-.13-.16-.23.05-.31.05.06.06.13.07.26Z"/>
        <path class="cls-24" d="m352.32,13.13c-.15-.12.09-.38.24-.18-.03.12-.1.17-.24.18Z"/>
        <path class="cls-7" d="m333.29,47.47c.14-.02.26.03.27.24-.14.02-.25-.03-.27-.24Z"/>
        <path class="cls-18" d="m369.25,42.9c.84,1.48-.59,2.16.45,3.03,1.5,1.48,2.12,1.13,2.19,3.52.03.22-.15.37-.29.52-.59.52-.76,1.44-1.07,2.16-.9.6-2.05.25-2.92-.23-.63-.32-.56-1.94-1.41-1.49-1.19.78-2.72,1.03-3.67,2.3-.12.06-.19.06-.31,0-.81.33-1.13-.4-1.84-.65-.28-.68.52-1.22.11-1.83-.4-.8.2-1.74-.51-2.47-.21-.4-.65-.89-.28-1.33.26-.22.04-.68.33-.82.73-.14,1.31-.75,2.12-.68.33.03.57-.16.44-.53-.04-.8,1-1.14.33-2.06-.42-.4-.19-1.3.46-.98.27.14.48.39.83.33,1.17-.27-.71-1.12.16-1.65.94-.88,2.01.66,3.08.73,1.13.28,1.54,1.06,1.83,2.11Z"/>
        <path class="cls-9" d="m336.25,29.99c-.06-.4.18-.74.11-1.19,2.76-2.33,2.29.78,4.44-.58,1.18-.71,2.25.9,3.57.05,1.12-.57,2.33.97,3.33.44.17-.32.47-.45.76-.62.63-.34.68-1.17,1.11-1.71.45-.96,1.42-.77,2.24-1.07,1.83-.72,4.44.84,5.55-1.36.4-.86,1.39-1.78.95-2.79-.15-.64-.93-1.46-.36-2.04.21-.21.4-.31.66-.08.05.04.17.07.21.04.56-.5,1.12-.04,1.67.03.53.18,1.49-.3,1.09-.91-.33-.64-.15-1.41-.36-2.1-.46-.51-.97-1-1.25-1.68-1.04-1.6-3.4-.2-3.97-.91,1.78-1.64,4.06.46,6.14-.37,2.15-.95,4.76.03,6.61,1.28.3.21.21.5.04.75-1.05,1.34,2.05,2.44-.77,3.4-.38.12-.74.24-.98.57-1.26,1.99-4.61-.37-5.47,1.48-.29.83-.98,1.05-1.85,1.02.21.4.59.52.78.83.79.85-.26,1.94-1.11,1.16-.52-.48-.77-.25-1.06.22-1.48,2.2-4.54,2.87-7.02,3.05-2.33-.35-.67,3.1-2.92,3.25-.71.2-1.22.92-1.79,1.36-.98-.32-2.05.38-2.86-.24-.45-.35-1.15-.19-1.69-.37-.26,0-.45-.16-.53-.39-.47-1.24-1.94-.16-2.06.81-1.3.46-.91-1.5-1.85-.91-.59.43-.82-.21-1.35-.41Z"/>
        <path class="cls-20" d="m367.52,51.8c.43.11.8.25,1.23.41.25.32.04.53-.15.67-1.08.71.94,2.57-1.14,2.63-.73-.63-1.25.08-1.95.25-1.1.08-.6,1.32-1.33,1.77-1.09.78-.68-.87-3.69-.08-.86.1-.4,1.18-1.13,1.35-.6.1-.7.53-.88,1.01-.71.28-1.05,1.24-2,1.1-.55.35-1.27.28-1.4-.52-.07-.77-.55-1.41-.55-2.18-.48-.11-.77.62-1.26.1-.79-.54-1.71.56-2.53.72-.8.44-1.46-.35-2.28-.32-.63-.05-1.13-.49-1.65-.78-1.32-.33-.16-1.88-1.27-2.34-.48-.2-.67-.14-.84.38-.06.18-.11.36-.3.42-.64.18-1.08.68-1.58,1.06-.79.33-1.91-1.43-2.15-2.16-.32-1.12-1.7-.04-2.22-.86-.83-.99-.73-1.85-2.35-1.57-.01-1.13.83-1.1,1.72-1.08,1.54.04,1.35,2.73,3.16,1.85,2.59-.2,2.3,2.35,4.53-1.39.31-.46.69-.57,1.17-.19.58.45,1.43.55,1.8,1.26.3.57.74.95,1.27,1.29.94.74,2.13-.16,3.07.63,2.25,1.68,3.4-.07,5.42.39.67.24,1.38.18,2.06.09.6-.08,1.17-.11,1.72.19,1.02.27,2.61-1.09,3.68-1.47.15-.1.41-.11.4-.31-.02-1.04.88-1.52,1.39-2.29Z"/>
        <path class="cls-12" d="m367.41,55.53c.82.03,1.18-1.06.66-1.64-.63-.85.53-.9.73-1.61.53-.08,1.07.04,1.64-.2.48-.33.85-.12,1.26.15.5.77,2.02.14,2.08,1.18-.46,1.71.74,1.21.31,2.3-1.14,3.35,1.82,3.2.07,4.7-.51,1.12-2.48.55-3.37.21-.26-.18-.59-.01-.82.25-.26.3-.54.55-.99.49-.25-.03-.34.18-.45.35-1,1.6-3.78.4-3.58-1.28.3-.92-.74-1.72-.03-2.55.63-2.73.33-1.07,2.47-2.34Z"/>
        <path class="cls-13" d="m373.81,53.47c-.08-.32-.26-.47-.63-.47-.39-.41-.93-.35-1.4-.58-.43-.09-.72-.47-1.22-.35-.1-.53,0-1.01.51-1.37,1.22.64,2.79.13,3.36-1,1.68.69,3-1.06,4.18-.28,1.03.7-.59,1.64-.12,2.59.07.57-.35,1.04.18,1.55-1.17-.18-2.4,1.32-3.37.31-.39-.4-.96-.22-1.5-.41Z"/>
        <path class="cls-13" d="m367.55,51.72c.13.99-1.52,1.26-1.16,2.31.1.24.02.49-.2.47-.91.08-1.47.86-2.36,1.02-.67.07-1.03,1.15-1.74.6-1.33-.71-2.8.3-4.2-.42-.89-.52-1.63.77-2.44.49-1.9.23-2.71-1.42-4.24-1.1-1.02.31-1.91-.57-2.63-1.08-.14-1.17-1.22-1.2-1.96-1.76-1.3-1.32-1.6,3.2-3.73,2.12-2.84-1.74-.71.39-3.51-.67-.7-.46-.14-1.42-1.45-1.89.03-.67-.38-1.12-.63-1.69,1.72-1.36,2.27.48,2.91-.7.27.97,1.61.74,1.55,1.77-.31,1.67,1.61.49,1.92-.3.26-.54-.61-1.1.08-1.44,1.06-.63,2.06-2.03,3.5-1.18.78,2.02.94,1.27,2.37,2.62.43.77,1.64.23,1.71,1.12-.07,1.21,1.38-.36,2.62-.07,1.94.42.7,2.4,2.64,1.26,1.22-.81.5,1.52,2.11.91,1.94-.26,2.81,1.3,3.43-1.37.08-.06.14-.06.26-.06.93-.97,1.47-.47,2.26.33,1.36.73-.03-2.74,2.38-2.22.19.31.33.59.49.92Z"/>
        <path class="cls-13" d="m335.43,49.08c-.67-.11-.7-.73-.73-1.21.06-.92-.64-1.57-.65-2.46.04-.45-.18-.84-.3-1.31,1.17.59,1.15,3.77,1.69,4.98Z"/>
        <path class="cls-23" d="m347.68,30.62c-.2-1.16,2.24-.21,1.96-2.38-.11-.83.66-1.98,1.6-1.57,2.15.02,4.54-.85,6.32-2.12.56-.28.96-2.3,1.66-1.34,1.14,1.23,2.04-.23.69-1.07-.42-.1-.84-.77-.18-.81.61.17,1.4-.03,1.64-.69.74-2.36,4.08.31,5.42-1.55.35-.68,1.08-.65,1.71-.89,1.58-1.1-1.03-1.53,1.14-3.05.97-1,1.91.94,3.07.92,1.59.54,2.65,1.99,4.27,2.49.56.23,1.15.43,1.54,1-1.49-.58-3.2-.75-4.5-1.78-.47-.34-.86-.39-1.31,0-.48.66-1.32-.23-1.52.48-.33.78-1.37.91-1.63,1.83-.31.65-.45.7-1.15.56-.65-.13-.65-.13-.88.54-.33.92-1.65,1.26-.97,2.36.51,1.01.41,2.32,1.12,3.22.23.22.25.47,0,.67-.38.31-.48.7-.43,1.17.34,1.36-1.69.97-.97,2.06.66,1.23-.6,2.53-.85,3.63.49.6-.06,1.3.2,1.93.1.23-.11.39-.37.31-1.87.23-2.54-1.93-3.94-.41-.37.35-.68.78-1.2.94-1.25.49-1.9-1.75-3.21-.92-3.87,2.88-2.25-.87-4.94-.71-.36.1-.43,0-.39-.4.24-1.33-1.55-.46-1.59-2.15-.08-1.45-1.63-1.34-2.32-2.28Z"/>
        <path class="cls-22" d="m367.11,50.77c-1.59.37-1.2.24-1.54,1.69.13.78-.38,1.4-1.05.71-.58-.76-1.14-1.14-1.99-.49.46-1.46,2.41-1.48,3.44-2.44.45-.25,1.26-.11,1.14.53Z"/>
        <path class="cls-16" d="m371.75,52.44c.52-.09,1.04-.08,1.37.51-.46-.11-1.13.05-1.37-.51Z"/>
        <path class="cls-24" d="m354.95,28.32c.25-.81,1.04-1.21,1.67-1.68,1.36-.73.62,1.49.75,2.15.06,1.08.24,2.19.55,3.22.4.69.24,1.38-.05,2.07-.58.78-1.83.72-2.65,1.22-1.53.23-4.07-2.61-2.77-4,.59-.28.58-1.14,1.24-1.31.86-.17.84-1.03,1.26-1.67Z"/>
      </g>
      <g class="cls-3">
        <path class="cls-27" d="m327.31,2.56h.84c-.45,1.56,1.04,1.19.84,2.51-.91-.49-2.65-1.42-1.67-2.51Z"/>
        <path class="cls-34" d="m328.15,2.56c.13-.57,1.05-.35,1.67-.42-.03.66.2,1.6-.42,1.68-.17,1,1.91-.23,1.26,1.25-3.15-.63-1.6,3.42-3.35,4.19-.77-.06-.26-1.42-.84-1.67.01-1.69-.96-2.39-2.09-2.93.15-.71-.33-.79-.84-.84,1.63-.96,1.95-.92,3.77-1.26-.97,1.09.76,2.02,1.67,2.51.2-1.32-1.28-.95-.84-2.51Z"/>
        <path class="cls-27" d="m329.82,2.14c2.98-.33,3.38,1.92,4.6,3.35v.42c-.37.33-.95.45-1.67.42-.86-.83-.39-.83-1.25,0-.18-.62-.54.17-1.26,0h-1.26c-.04,1.14.7.84,0,1.67.08.36-.16.39-.42.42.63.63,1.25,1.26,1.67,2.09-2.59-.38-1.06,2.71-1.67,3.35-.49.07-1.19-.07-1.26.42-.42,0-.5.34-.84.42h-2.09c.56-2.1-2.42-.65-1.67-2.93v-.42c.37.32.94.45,1.67.42,1.31.46,1.18.27,1.67-.84,1.1.13,1.08-.87,1.26-1.67,1.74-.77.2-4.82,3.35-4.19.65-1.49-1.42-.25-1.26-1.25.62-.08.38-1.01.42-1.68Z"/>
        <path class="cls-25" d="m332.75,6.32c.73.03,1.3-.09,1.67-.42-.06.49-.74.95,0,1.26-.42,1.18-1.78-.12-2.51,0,0-.55.73-.38.84-.84Z"/>
        <path class="cls-38" d="m328.99,8c.65.47.87,1.36,2.09,1.26.04-1.3-1.32-1.19-.84-2.93.72.17,1.07-.62,1.26,0-.25,1.19.52,1.86,0,4.19.1.6.69.71.84,1.25.49-.07.45-.66.42-1.25-1.21-.47.64-.45.42.42.08.91-.34,1.33-1.26,1.26.02-.72-.32-1.07-.84-1.26-.01-.41-.51-.32-.84-.42-.42-.83-1.05-1.47-1.67-2.09.25-.02.49-.06.42-.42Z"/>
        <path class="cls-27" d="m322.71,4.65c.42.56.39,1.56,1.25,1.67.5,1.15.91,1.75.42,2.93h-.42c-.83-.7-.53.04-1.67,0-.02-.72.31-1.08.84-1.26-.06-.77-1.42-.26-1.67-.84.19-1.07.59-1.93,1.26-2.51Z"/>
        <path class="cls-32" d="m323.96,6.32c-.86-.12-.83-1.12-1.25-1.67.18-.37.37-.75.84-.84.51.05.99.12.84.84-.05,1.44,1.72,1.07,1.67,2.51h-1.26c.15-.71-.33-.79-.84-.84Z"/>
        <path class="cls-30" d="m324.38,4.65c1.14.54,2.1,1.24,2.09,2.93h-.84c-.51.47-.86.36-.84-.42h1.26c.05-1.44-1.72-1.07-1.67-2.51Z"/>
        <path class="cls-28" d="m334.43,5.91v-.42c1.72.23,2.2,1.71,2.09,3.77h-.42c-.35-.9-1.03-1.48-2.51-1.26,1.06.19,1.18,1.33,1.67,2.09.49.07.45.66.42,1.25-1.32-.47-1.11.12-2.09-.42h-.42c.22-.87-1.63-.89-.42-.42.04.59.07,1.18-.42,1.25-.15-.55-.74-.66-.84-1.25.52-2.33-.25-2.99,0-4.19.86-.83.39-.83,1.25,0-.1.45-.83.28-.84.84.73-.12,2.09,1.18,2.51,0-.74-.31-.06-.76,0-1.26Z"/>
        <path class="cls-34" d="m323.96,9.25h.42c.49-1.18.08-1.78-.42-2.93.51.05.99.13.84.84-.02.78.32.89.84.42.54.99-.06.78.42,2.09-.68.12-.72-.4-1.26-.42-.37,1.34,1.38.57,1.26,1.67-.49,1.11-.36,1.3-1.67.84v-1.25c-.95-.12-1.57.1-1.67.84v.42c-1.13.29-.81-.87-1.26-1.25.51-.05.99-.13.84-.84.63-.07,1.54.15,1.67-.42Z"/>
        <path class="cls-37" d="m320.62,10.51c.41-.98.73-2.06.84-3.35.26.58,1.61.06,1.67.84-.53.17-.86.54-.84,1.26,1.14.04.84-.7,1.67,0-.13.57-1.05.35-1.67.42.15.71-.33.79-.84.84h-.84Z"/>
        <path class="cls-38" d="m335.26,10.09c-.3-1.83.83.34.84-.84h.42c.7,1.57-.51,4.38-1.67,5.44v-1.26c-.62.48-1.05.48-1.67,0-.2-1.72,1.05.33,1.67-.84,0-.23-.34-.48-.42,0-.56-.28-.78-.89-.84-1.68.99.54.78-.05,2.09.42.04-.59.07-1.19-.42-1.25Z"/>
        <path class="cls-35" d="m333.17,13.44c.62.48,1.06.48,1.67,0v1.26c-.55.15-.66.74-1.25.84-.35-.49-.55-1.12-.42-2.09Z"/>
        <path class="cls-39" d="m331.08,10.93c.52.18.86.54.84,1.26.91.08,1.33-.34,1.26-1.26h.42c.06.78.27,1.4.84,1.68.08-.48.42-.23.42,0-.62,1.17-1.87-.89-1.67.84-.13.97.07,1.61.42,2.09-.34.08-.42.42-.84.42.78-.74-.34-1.06,0-2.51-1.58.61-.84,1.11-.84,2.93-.79.09-.92-.47-1.67-.42,0-.42.34-.5.42-.84-.73-.66-2.23-.56-3.35-.84.07-.49.76-.35,1.26-.42.8-.17,1.8-.15,1.67-1.25.74-.31.06-.76,0-1.26.49.07.74-.09.84-.42Z"/>
        <path class="cls-33" d="m322.71,11.76c-.75,2.29,2.24.83,1.67,2.93h2.09c.73,2.59,2.14-.59,2.93,1.67-1.45-.34-1.61.62-2.93.42-3.9-.15-5.42-2.67-5.86-6.28h.84c.45.39.13,1.54,1.26,1.25Z"/>
        <path class="cls-34" d="m327.31,14.28c1.12.28,2.61.18,3.35.84-.08.34-.42.42-.42.84.75-.05.88.51,1.67.42-.11.87-1.84.11-2.09.84,0-.42-.34-.5-.42-.84-.79-2.26-2.2.92-2.93-1.67.34-.08.42-.42.84-.42Z"/>
        <path class="cls-35" d="m326.06,10.93c.12-1.1-1.62-.33-1.26-1.67.54.02.58.54,1.26.42-.47-1.32.12-1.11-.42-2.09h.84c.58.26.06,1.61.84,1.67-.18.8-.15,1.8-1.26,1.67Z"/>
        <path class="cls-35" d="m322.71,11.35c.1-.73.72-.95,1.67-.84v1.25c-.73.03-1.3-.09-1.67-.42Z"/>
        <path class="cls-34" d="m331.08,10.93c-.09.33-.35.49-.84.42-.59-1.55-2.39,2.11,0,1.26.13,1.1-.87,1.08-1.67,1.25.61-.63-.92-3.73,1.67-3.35.32.09.83,0,.84.42Z"/>
        <path class="cls-31" d="m330.24,11.35c.06.5.74.95,0,1.26-2.39.86-.59-2.81,0-1.26Z"/>
        <path class="cls-26" d="m331.91,16.37c0-1.82-.74-2.32.84-2.93-.34,1.45.78,1.77,0,2.51-.34.08-.42.42-.84.42Z"/>
        <path class="cls-29" d="m329.4,16.37c.08.34.42.42.42.84h-3.35v-.42c1.32.21,1.48-.75,2.93-.42Z"/>
        <path class="cls-36" d="m335.26,10.09c-.49-.77-.61-1.9-1.67-2.09,1.48-.22,2.16.36,2.51,1.26,0,1.17-1.14-1-.84.84Z"/>
        <path class="cls-28" d="m328.99,8c.7-.83-.04-.53,0-1.67h1.26c-.48,1.74.88,1.63.84,2.93-1.22.1-1.44-.79-2.09-1.26Z"/>
      </g>
    </g>
  </g>
</svg>