<?xml version="1.0" encoding="UTF-8"?>
<svg id="_背景" data-name="背景" xmlns="http://www.w3.org/2000/svg" viewBox="0 0 375 95.27">
  <defs>
    <style>
      .cls-1 {
        opacity: .8;
      }

      .cls-1, .cls-2 {
        fill: none;
      }

      .cls-2 {
        opacity: .7;
      }

      .cls-3 {
        fill: #f9cfb1;
      }

      .cls-4 {
        fill: #f4afa5;
      }

      .cls-5 {
        fill: #f4afa3;
      }

      .cls-6 {
        fill: #f4afa2;
      }

      .cls-7 {
        fill: #f9d0b6;
      }

      .cls-8 {
        fill: #f4b0aa;
      }

      .cls-9 {
        fill: #f4b3a5;
      }

      .cls-10 {
        fill: #f4b39a;
      }

      .cls-11 {
        fill: #f4b0a2;
      }

      .cls-12 {
        fill: #f4b0a8;
      }

      .cls-13 {
        fill: #f7c3a8;
      }

      .cls-14 {
        fill: #f7c8b7;
      }

      .cls-15 {
        fill: #f6f1bc;
      }

      .cls-16 {
        fill: #f7c6b0;
      }

      .cls-17 {
        fill: #f7c8ac;
      }

      .cls-18 {
        fill: #f8cbaf;
      }

      .cls-19 {
        fill: #f8cdae;
      }

      .cls-20 {
        fill: #f8cdb3;
      }

      .cls-21 {
        fill: #f3aaa7;
      }

      .cls-22 {
        fill: #f3aaa3;
      }

      .cls-23 {
        fill: #f3aa9e;
      }

      .cls-24 {
        fill: #f3ad9f;
      }

      .cls-25 {
        fill: #f3aea2;
      }

      .cls-26 {
        fill: #fadab7;
      }

      .cls-27 {
        fill: #f9e697;
      }

      .cls-28 {
        fill: #f7c5ab;
      }

      .cls-29 {
        fill: #f7c5aa;
      }

      .cls-30 {
        fill: #f7c2ac;
      }

      .cls-31 {
        fill: #f7c2a7;
      }

      .cls-32 {
        fill: #f7c4b1;
      }

      .cls-33 {
        fill: #f7c1a8;
      }

      .cls-34 {
        fill: #f7c5ae;
      }

      .cls-35 {
        fill: #f2a69d;
      }

      .cls-36 {
        fill: #f2a69a;
      }

      .cls-37 {
        fill: #f2a5a0;
      }

      .cls-38 {
        fill: #f0999a;
      }

      .cls-39 {
        fill: #f0989a;
      }

      .cls-40 {
        fill: #ed7f8b;
      }

      .cls-41 {
        fill: #ed808e;
      }

      .cls-42 {
        fill: #f1a09e;
      }

      .cls-43 {
        fill: #f1a09f;
      }

      .cls-44 {
        fill: #f5b7a8;
      }

      .cls-45 {
        fill: #f5bbae;
      }

      .cls-46 {
        fill: #f5b8a7;
      }

      .cls-47 {
        fill: #f5b8a6;
      }

      .cls-48 {
        fill: #f5b8ac;
      }

      .cls-49 {
        fill: #f5b9a9;
      }

      .cls-50 {
        fill: #f5b99e;
      }

      .cls-51 {
        fill: #f5b6a1;
      }

      .cls-52 {
        fill: #f6c2b2;
      }

      .cls-53 {
        fill: #f6bfa7;
      }

      .cls-54 {
        fill: #f6c0aa;
      }

      .cls-55 {
        fill: #ef9299;
      }

      .cls-56 {
        fill: #ef919a;
      }

      .cls-57 {
        fill: #ef9393;
      }

      .cls-58 {
        fill: #ef9398;
      }

      .cls-59 {
        fill: #ef8d92;
      }

      .cls-60 {
        fill: #ef8e92;
      }

      .cls-61 {
        fill: #ef8f97;
      }

      .cls-62 {
        fill: #ef8f8a;
      }

      .cls-63 {
        fill: #ffee8c;
      }

      .cls-64 {
        fill: #ffe148;
      }

      .cls-65 {
        fill: #fff080;
      }

      .cls-66 {
        fill: #ffeb41;
      }

      .cls-67 {
        fill: #fff2a4;
      }

      .cls-68 {
        fill: #ffec56;
      }

      .cls-69 {
        fill: #ffeb61;
      }

      .cls-70 {
        fill: #ffeb74;
      }

      .cls-71 {
        fill: #f5baad;
      }

      .cls-72 {
        fill: #f5baab;
      }

      .cls-73 {
        fill: #f2a8a5;
      }

      .cls-74 {
        fill: #f2a8a1;
      }

      .cls-75 {
        fill: #f2a6a6;
      }

      .cls-76 {
        fill: #f2a69f;
      }

      .cls-77 {
        fill: #f2a6a3;
      }

      .cls-78 {
        fill: #f09a9d;
      }

      .cls-79 {
        fill: #f09899;
      }

      .cls-80 {
        fill: #fae7c0;
      }

      .cls-81 {
        fill: #faf4c3;
      }

      .cls-82 {
        fill: #fbefc1;
      }

      .cls-83 {
        fill: #fbe0bb;
      }

      .cls-84 {
        fill: #fbe7a9;
      }

      .cls-85 {
        fill: #fbe0b5;
      }

      .cls-86 {
        fill: #fbf0c2;
      }

      .cls-87 {
        fill: #fbf0c0;
      }

      .cls-88 {
        fill: #fae9bc;
      }

      .cls-89 {
        fill: #fbe7bc;
      }

      .cls-90 {
        fill: #fbdab5;
      }

      .cls-91 {
        fill: #fbecbe;
      }

      .cls-92 {
        fill: #fbecc0;
      }

      .cls-93 {
        fill: #fbeca6;
      }

      .cls-94 {
        fill: #fbe2a1;
      }

      .cls-95 {
        fill: #fae6be;
      }

      .cls-96 {
        fill: #faebc0;
      }

      .cls-97 {
        fill: #faecb5;
      }

      .cls-98 {
        fill: #fadcb8;
      }

      .cls-99 {
        fill: #fae1b1;
      }

      .cls-100 {
        fill: #faf0b2;
      }

      .cls-101 {
        fill: #ee8995;
      }

      .cls-102 {
        fill: #ee8a8f;
      }

      .cls-103 {
        fill: #f19ca1;
      }

      .cls-104 {
        fill: #f19c94;
      }

      .cls-105 {
        fill: #fcdf73;
      }

      .cls-106 {
        fill: #fde76b;
      }

      .cls-107 {
        fill: #fde25c;
      }

      .cls-108 {
        fill: #fdf4af;
      }

      .cls-109 {
        fill: #fddb62;
      }

      .cls-110 {
        fill: #fdf09c;
      }

      .cls-111 {
        fill: #fdeb84;
      }
    </style>
  </defs>
  <g class="cls-2">
    <path class="cls-83" d="m32.82,78.17c.01.11.02.21.03.32-.64.67-1.54,1.01-2.09,1.78-.09.07-.19.12-.3.16-.11.03-.22.04-.34.03-.11-.02-.21-.06-.31-.12-.28-.21-.32-.49-.24-1-.4.51-.79.74-1.33.68-.56-.06-1.06.15-1.32.67-.32.63-.76.59-1.19.19-.29-.27-.97-.56-.09-1.06.26-.15-.15-.7-.09-1.1.11-.76-.19-1.42-.56-2.05-.53-.9-1.24-1-1.9-.19-.53.64-1.04.84-1.75.35-.19-.13-.41-.27-.59-.01-.13.17-.09.38.07.51.42.35.64.74.38,1.29-.07.15.03.28.12.41.58.93.41,1.44-.67,1.52-.76.06-.96.2-.83,1,.11.66-.87,1.2-1.81,1.14-.38-.02-.7-.31-1.19-.24.24.89-.04,1.38-1.03,1.49-.54.06-1.02.44-.97,1.18.03.42-.13.83-.58,1.03-.81.12-1.2.38-.59,1.25.5.7.18,1.21-.7,1.21-.73,0-1.4-.24-1.84-.89,0-.12.01-.27.1-.31,1.51-.65,1.98-2.01,2.37-3.43.12-.44.31-.79.78-.86,1.04-.15.84-.75.53-1.4-.08-.17-.21-.32-.29-.49-.13-.27-.35-.55-.09-.83.26-.29.61-.3.94-.12.75.41,1.67.51,2.29,1.23-.18-.89-1.06-1.62-.47-2.61.11-.19.25-.35.4-.5.11-.11.23-.2.36-.27.19-.1.44-.14.41-.45-.04-.3-.19-.57-.25-.86-.11-.61.08-.95.76-.86,1.04-.09,1.31-.97,1.6-1.71.42-1.08.36-1.1,1.37-.65.46.21.83.47,1.16.88.47.59.76.5.98-.21.37-1.22,1.47-1.58,2.53-.83.36.26.67.6,1.21.73.09-.66.35-1.18,1.02-1.54-1.18-.27-2.53.07-2.93-1.41-.29-1.09-.04-1.69.89-2.31.67.22.82.6.33,1.15-.21.24-.4.5-.18.8.25.35.64.51,1.05.61.12.03.28-.03.29-.12.05-.73.36-1.45.34-2.14-.02-.47-.78-.61-1.29-.74-.22-.06-.45.03-.68,0-.52-.49-.41-1.33-.98-1.8-.35-.89-.17-1.55.53-1.77.86-.27,1.16.36,1.37.99.57,1.67,1.82,2.51,3.44,2.94.5.13.97.35.99.94.03.68-.57.7-1.03.83-.26.07-.53.06-.79.13-.34.09-.48.35-.25.59.67.68.59,1.7,1.2,2.42.56.68.36,1.01-.59,1.27-1.08-.12-2.09.89-1.84,1.83.1.37.23.74.68.78.44.04.54-.31.64-.64.04-.14.09-.28.21-.38.37-.09.49-.4.66-.68.3-.49.73-.72,1.31-.49-.13.74.12,1.8.63,2.71Z"/>
    <path class="cls-26" d="m32.1,75.47c-.58.15-1.09.29-1.16,1.08-.06.66-.44.19-.68.05-.02-.04-.03-.08-.05-.11-.02-.16,0-.32,0-.48,0-.08.01-.15.02-.23.02-.11.05-.21.08-.32,0-.07.02-.14.03-.21,0-.07.02-.14.03-.2,0,0,.05-.09.05-.09.13-.07.25-.17.39-.21.44-.1.39-.39.27-.69-.04-.1-.14-.19-.24-.24-.65-.31-.51-.93-.6-1.48-.08-.56-.82-.67-.88-1.27-.04-.41.06-.7.52-.68.46.02.9-.06,1.35-.13.26-.05.56-.03.58-.4.01-.3-.17-.5-.42-.62-.35-.17-.72-.25-1.1-.19-.42.07-.58-.08-.83-.47-.38-.57-.9-1.26-1.92-.88.36-.79-.17-1.37-.35-2.03-.1-.37-.28-.74-.79-.62-.42.09-.78.68-.7,1.12.03.15.08.29.12.43-.05.01-.11.02-.16.04-.5-.05-.99-.14-1.42-.42-.59-.39-.9-1.01-1.3-1.56-.24-.33-.42-.73-.88-.83-.49-.12-.87-.47-1.36-.6-.71-.13-1.16-.73-1.78-1-.11-.04-.21-.1-.32-.16-.73-.43-1.25-1.09-1.88-1.63-.59-.51-.42-.99.37-1.16.41-.09.81-.17,1.18-.38.3-.17.6-.15.81.13.42.55,1.04.89,1.43,1.46.33.49.75.81,1.36.94.74.15,1.23.71,1.71,1.25.52.7,1.22,1.21,1.88,2,.02-1.2-.87-1.41-1.49-1.85-1.16-.82-1.79-2.06-2.39-3.27-.26-.52-.42-1.27.34-1.71.88-.34,1.41-.04,1.79.81.42.94.95,1.74,2.16,1.93.8.12,1.78,1.67,1.64,2.49-.11.64.16,1.09.41,1.58.06.41-.05.84.12,1.23.13.31.28.64.68.69.12.02.22-.07.25-.18.13-.4-.09-.65-.38-.85-.24-.17-.55-.28-.64-.6.03-.58.52-.52.85-.52.79,0,1.36-.33,1.79-.97.31.3.38.72.57,1.09-.61,1.47-.5,1.79.94,2.69.17.1.28.24.32.44.46,1.02.4,2.13.6,3.2-.39.68-.25,1.32.17,1.93.14.31.17.63.09.97.01.09-.01.14-.06.18-.05.03-.09.04-.1.03-.43-.46-.92-.84-1.48-1.01.05.76.26,1.52,1.28,1.7,0,.18-.09.33-.2.46-.15.19-.32.35-.58.36Z"/>
    <path class="cls-81" d="m27.9,90.44c-.37.51-.82.93-1.35,1.25-.35-.07-.68,0-.96.23-1.04.86-2.19,1.42-3.58,1.38-.31,0-.61.15-.82.35-1.3,1.24-2.89,1.06-4.46.92-.46-.04-1.2.14-1.17-.7.03-.76.37-1.32,1.27-1.26.34.09.6.3.87.52.16.14.32.29.42.47.04.08-.01.2.03.24.1.11-.04.04.06-.08-.01-.05-.02-.09-.03-.14-.02-.1-.04-.19-.07-.29-.21-.19.27-.56-.24-.7-.64-.18-1.01-.64-.96-1.35.03-.39-.22-.5-.55-.59-.58-.15-1.02-.48-1.27-1.03.29-.71,1.28-.92,2.12-.39.42.26.78.6,1.16.92.41.34.73.96,1.25.08.18-.31.6.04.94.04-.61-.54-1.43-.94-1.28-1.9.12-.79,1.02-1.1,1.34-1.91-.69-.25-1.47-.3-1.93-.99-.28-.43-.88-.77-.51-1.36.33-.52.88-.28,1.35-.14.8.24,1.62.44,2.44.6.55.11.93.38.88.99-.07.91.34,1.82-.08,2.76-.22.5-.04,1.09.66,1.22.57.1,1.25.39,1.46-.54.05-.23.18-.42.44-.46.56-.1,2.39,1.24,2.56,1.88Z"/>
    <path class="cls-92" d="m32.94,79.46c.27,1.91.2,3.69-1.26,5.25-.64.68-1.14,1.6-1.35,2.59-.11.52-.52.83-.81,1.22-.11-.03-.25-.06-.29-.17-.61-1.57-2.18-1.95-3.39-2.82-1.02-.73-2.24-1.25-2.97-2.35-.04-.11-.04-.22-.01-.33.22-.23.46-.2.73-.08.24.11.49.54.76.15.2-.29-.15-.54-.25-.82-.24-.62-1.01-1.15-.33-1.94.43-.5.87-.66,1.31-.08.78,1.04,2.1,1.39,2.94,2.42.5.62,1.49.3,2.44.15-1.08-.38-1.92-.88-2.75-1.37-.33-.2-.67-.49-.43-.92.2-.36.51-.58,1.04-.46.61.13,1.22.23,1.79.47h0c.11,0,.21-.02.32-.03h0c.24-.04.47-.14.56-.35.43-1.05,1.16-.88,1.96-.52Z"/>
    <path class="cls-87" d="m18.14,93.89l-.53-.44c-.06-.73-.61-1.03-1.16-1.32.15.17.29.34.28.59-.77.17-.95.74-.99,1.5,1.01-.14,2,.61,3.02-.03.17-.11.36,0,.54.05.51.14.82-.02,1.23-.46.45-.48,1.05-1.26,1.98-.72.09.05.28.1.31.05.7-.77,1.98-.46,2.59-1.47.35-.58.51-.51,1.12.04-.2.23-.39.47-.59.7-.11,0-.21.03-.32.03-.1.12-.2.23-.3.35-.11,0-.21.03-.32.03-.05.06-.1.12-.15.17-.11,0-.21.02-.32.03h0c-.19,0-.28.2-.47.2-.05.06-.1.12-.15.17-.11,0-.21.03-.32.03-.05.06-.1.12-.15.17-.11,0-.21.03-.32.03-.05.06-.1.12-.15.17-.11,0-.21.03-.32.03-.05.06-.1.11-.15.17-.11,0-.21.03-.32.03-.05.06-.1.12-.15.17-.11,0-.21.03-.32.03-.16.07-.31.14-.47.2-.27.05-.52.17-.79.23h0c-.11,0-.21.02-.32.03h0c-.11,0-.21.02-.32.03-1.86.55-3.76.61-5.67.44-.64-.05-1.27.18-1.91.05-.17-.14-.33-.29-.45-.47-.26-.41-.7-.59-1.13-.7-.91-.24-1.06-.91-.96-1.66.14-1.08.87-1.39,1.79-.81.42.26.78.6,1.09.98.45.53.82.39,1.17-.11.08-.08.17-.14.27-.18.38-.07.69.23,1.16.16-.02-.32-.4-.61-.17-.95.45-.13-.07-.27,0-.41-.1-.41-.48-.68-.52-1.12.12-.32.34-.43.67-.33.53.37.89,1.01,1.74.8.39-.09.35.36.32.67-.1,1.06.21,1.36,1.45,1.33-.31.37-.52.72-.25,1.13-.08,0-.12.03-.14.08-.02.05-.02.08,0,.1,0,.07-.02.12-.06.15s-.07.04-.08.03Z"/>
    <path class="cls-18" d="m30.57,63.44c-.15.95-.21,1.01-1.07,1.15-.52.09-1.07.02-1.57.22h0c-.63-.45-1.09-.96-.65-1.81.13-.26-.03-.51-.2-.73-.32-.42-.63-.85-.94-1.27-.15-.2-.36-.31-.6-.24-.66.21-1.01-.21-1.3-.66-.34-.53-.81-.97-.95-1.65-.16-.79-.82-.44-1.31-.42-.55-.03-.95-.39-1.42-.61-.56-.38-.83-1.08-1.66-1.23-.49-.09-.95-.74-.72-1.36.32-.88-.04-1.09-.82-1.09-.27,0-.53-.06-.68-.33.09-.41.24-.82.07-1.25.46-.08.88.14,1.32.2,1.03.24,1.57,1.29,2.58,1.57.99,1.02,2.2,1.67,3.49,2.21.52.22,1.01.5,1.19,1.11-.24.43.05.78.17,1.15.26.82.44,1.66,1.08,2.33.53.55.96,1.18,1.83,1.18.28,0,.52.17.58.46.07.33-.19.45-.43.59-.3.17-.87.23-.55.76.25.41.75.3,1.15.19.51-.14.75-.77,1.35-.77.02.1.03.2.05.31Z"/>
    <path class="cls-92" d="m27.9,90.44c-.35-.49-.63-.98-1.38-1.02-.39-.02-.75-.45-1.12-.69-.09.06-.18.08-.21.13-.22.37.21,1.14-.39,1.15-.75,0-1.7.14-2.23-.55-.39-.51-.2-1.24,0-1.84.13-.37.59-.66-.09-.96-.24-.11-.07-.42-.02-.63.24-.99.23-.97-.79-1.19-.76-.16-1.54-.3-2.25-.63-.13-.29-.39-.54-.22-.9.47-.33,1.01-.05,1.55-.16-.36-.28-.97-.25-.87-.91.07-.42.33-.67.71-.81.49-.18,1-.23,1.32.28.28.44.92.59.96,1.21h0c-.08.31-.41.09-.58.29.61.56,1.13,1.21,1.95,1.49.11.04.25.07.29.16.8,1.79,2.77,2.33,3.96,3.71.17.2.42.34.44.63-.34.41-.69.82-1.03,1.22Z"/>
    <path class="cls-89" d="m13.97,92.47c-.03.11-.04.23-.09.33-.42.75-.88.83-1.35.13-.36-.52-.82-.9-1.31-1.24-.56-.38-.74-.24-1.12.37-.25.4-.04.73-.05,1.09-.02.59.46.46.77.61.48.23,1.16.25,1.24,1-.24.39-.51.12-.75.02-.68-.29-1.35-.31-2,.06-.39.2-.76,0-1.14-.07-.56-.43-1.15-.83-1.64-1.37-.4-.45-.48-.84.01-1.26.14-.1.29-.18.45-.24.44-.2.95-.32.56-1.03-.25-.45.05-.69.51-.74.73-.01,1.38.77,2.16.19.1-.05.2-.07.3-.08.82-.08,1.01.65,1.54,1.23-.09-.54-.37-.79-.59-1.07-.63-.82-.54-1.24.41-1.86.17.04.29.14.37.3,0,1.09.59,1.91,1.26,2.68.25.29.57.5.46.95Z"/>
    <path class="cls-46" d="m.78,91.83c-.06-.04-.13-.08-.18-.13-.27.03-.39-.31-.66-.28-.06-.04-.13-.08-.19-.13-.2-.01-.31-.12-.36-.3h0c-.04-.36-.8-.42-.44-.85.26-.31.7-.06,1.03.13.39.23.69.58,1.1.78.31.15.71.26.96.04.28-.24-.19-.5-.17-.79-.02-.37.22-.56.5-.73.6-.04,1.19-.16,1.78-.28.26.11.34.38.51.57.36.39.63.28.85-.15.94.15,1.19,1.06,1.74,1.63.22.23-.12.6-.46.6-1,0-1.66.49-2.15,1.31-.14.08-.29.12-.46.08-.19-.08-.31-.3-.55-.27h0c-.18,0-.3-.12-.43-.22-.59-.41-1.24-.69-1.94-.86h0c-.18.01-.31-.15-.49-.13Z"/>
    <path class="cls-81" d="m28.93,89.21c-.29-.22-.68-.27-.89-.66-.22-.39-.61-.68-1.04-.84-.34-.12-.6-.3-.77-.63-.07-.13-.18-.34-.28-.34-1.05-.02-1.27-.73-1.38-1.57,0-.07-.16-.16-.26-.17-1.16-.17-1.67-1.24-2.53-1.82-.12-.08-.23-.22-.13-.39.12-.2.32-.18.5-.12.24.09.42.34.73.25.51.4.82,1.08,1.6,1.08.03,0,.08.03.09.06.62,1.07,1.89,1.23,2.74,1.98.14.13.29.34.44.34,1.23.06,1.35,1.08,1.69,1.91.03.07.06.14.09.21-.2.23-.39.47-.59.7Z"/>
    <path class="cls-47" d="m5.95,52.63c.53-.55,1.29-.21,1.89-.49.74.17,1.5.91,2.17-.12,1,.33,1.62,1.12,2.23,1.9-1.22.54-2.22,1.72-3.76,1.32-.83-.22-1.28.16-1.51.92-.56.42-1.13,1.02-1.62-.07.12-.59.84-.93.64-1.71-.08-.32.45-.45.79-.49.42-.06.82-.13.94-.65-.71.12-1.32-.01-1.77-.61Z"/>
    <path class="cls-33" d="m30.52,63.13c-.17.15-.41.28-.49.47-.38.92-1.17.7-1.85.67-.39-.02-.71-.31-.73-.75-.02-.39.24-.6.59-.74.27-.1.83.12.74-.42-.06-.36-.49-.24-.79-.17-.16.03-.31.01-.43-.09-.92-.82-1.93-1.6-2.08-2.96-.03-.27-.29-.45-.23-.74.74.02.9.61,1.05,1.14.19.7.49.46.84.16.17.2.3.48.51.59,1.26.65,1.97,1.84,2.86,2.85Z"/>
    <path class="cls-30" d="m1.92,90.12c.33.35.47.85.96,1.08-.35.36-.71.12-1.03.26-.46.2-.85-.01-1.23-.33-.45-.38-.83-.89-1.51-.92-.1.33.4.44.28.78,0,0-.08-.06-.08-.06l-.08-.07c-1.18-.6-1.87-1.79-3.02-2.46-.44-.25-.22-.72.16-1.02.58-.13.85.25,1.1.66.05.09.09.19.13.29.14.34.37.56.77.53.66-.17,1.24-.13,1.73.46.46.55,1.29.36,1.82.81Z"/>
    <path class="cls-36" d="m5.95,52.63c.36.12.73.22,1.07.38.33.16.47.13.51-.26.02-.18.21-.2.36-.16.18.04.23.19.23.35.02.75-.38,1.18-1.14,1.18-.28,0-.54,0-.75.19-.26.23.08.39.11.59.05.3-.04.53-.31.67-.24.12-.45.29-.61.5-.04-.02-.09-.04-.13-.06-.16-.36.16-.76-.12-1.1-.14-.31-.57-.4-.59-.8.38-.46,1.11-.59,1.21-1.3.05-.06.1-.11.16-.17Z"/>
    <path class="cls-31" d="m16.76,52.16c.73.68.73.69-.06,1.15-.28.22-.59.19-.9.09-.34-.16-.69-.39-.89.18-.04.1-.09.19-.15.28-.38.49-.68,1.09-1.41,1.14-.12-.01-.22-.07-.3-.15-.2-.47-.39-.93-.18-1.45.93-.57,1.73-1.45,3.02-1,.24.08-.07-.23.03-.34.3-.12.57-.09.83.11Z"/>
    <path class="cls-86" d="m32.4,67.66c-.06-.04-.12-.13-.18-.13-1.14.03-1.33-1.03-1.88-1.66-.27-.3-.16-.65.2-.85.24-.13.44-.29.6-.5.56.99,1.15,1.96,1.26,3.13Z"/>
    <path class="cls-85" d="m4.13,93.17c.11,0,.22-.01.33-.02.64.08,1.2.14,1.32-.78.05-.39.51-.52.94-.38.03.05.05.09.08.14-.46.4-.45.69.02,1.17.46.47,1.2.7,1.34,1.46-.81.03-1.53-.2-2.23-.6-.61-.34-1.29-.56-1.95-.83-.02-.08-.01-.14.04-.16.05-.02.08-.02.1,0Z"/>
    <path class="cls-10" d="m12.99,53.47c-.15.44.45.82.11,1.29-.67.21-.62-.45-.88-.73-.38-.29-.73-.64-1.15-.87-.28-.16-.49-.29-.54-.63-.04-.33-.34-.34-.59-.41-.19-.09-.26-.19-.04-.32.21-.12.42-.14.65-.07.76.19,1.44.55,2.1.95.29.18.39.45.32.78Z"/>
    <path class="cls-50" d="m12.99,53.47c-.11-.21-.17-.46-.38-.62.4-.27.13-1.09.88-1.06h0c.38.07.76.03,1.14.06.44,0,.9-.05,1.3.2.09.06.18.14.28.18.25.09.59.16.43.5-.16.34-.45.11-.67,0-.65-.31-1.23-.46-1.78.26-.26.34-.9.06-1.22.47Z"/>
    <path class="cls-62" d="m-.54,56.45c.56-.44,1.26-.54,1.89-.81.31.06.64-.09.93.1.14.3-.01.52-.18.74-.49.68-1.16,1.06-1.99,1.15-.23-.01-.41-.12-.56-.28-.07-.08-.12-.18-.15-.28-.05-.21-.06-.42.07-.61Z"/>
    <path class="cls-51" d="m27.15,59.7c-.15.26.17.77-.36.81-.46.04-.65-.25-.68-.71-.04-.6-.35-1.07-.84-1.41-.1-.2-.22-.39-.31-.59-.18-.39.02-.54.39-.56.5.38.76.93,1.07,1.45.21.35.49.67.74,1Z"/>
    <path class="cls-91" d="m32.1,75.47c.15-.17.29-.35.44-.52.38-.01.36-.58.76-.55.07.3-.1.51-.29.69-.63.59-.77,1.24-.34,2,.19.34.24.7.14,1.08-.32-.27-.64-.54-.97-.79-.69-.52-.72-.84-.09-1.4.17-.15.42-.2.34-.5Z"/>
    <path class="cls-31" d="m13.49,51.79c-.13.1-.37.15-.27.39.25.65-.21.62-.61.67-.77-.22-1.45-.58-2.04-1.12.97.03,1.96-.27,2.93.06Z"/>
    <path class="cls-104" d="m1.89,56.38c.15-.2.36-.37.27-.67.4-.5,1.03-.55,1.56-.81.1-.11.21-.21.31-.32.18-.03.26-.18.37-.3.06-.07.13-.1.22-.09.31.11.74.07.7.59-.01.57-.45.85-.88.9-.88.09-1.56.52-2.21,1.04-.19-.04-.31-.14-.34-.34Z"/>
    <path class="cls-99" d="m9.31,94.83c-.22-.22-.18-.45.12-.46.75-.05,1.56-.38,2.21.3.11.12.27.1.42.08.14.12.25.26.2.46,0,0,0,0,0,0-.11,0-.21.02-.32.03h0c-.11,0-.21.02-.32.03-.77-.15-1.59-.01-2.31-.44Z"/>
    <path class="cls-31" d="m20.66,53.93c-.43.38-.84.4-1.07-.17-.2-.51-.51-.8-1.06-.86-.29-.04-.49-.2-.46-.53,1.09-.08,1.82.59,2.53,1.27.01.1.03.2.05.3h0Z"/>
    <path class="cls-90" d="m9.92,51.79c.01.11.02.21.04.32-.09.23.22.58-.16.69-.34.1-.71.34-1.08.05-.3-.23-.59-.48-.88-.72.7-.06,1.4-.14,2.08-.35Z"/>
    <path class="cls-95" d="m32.94,79.46c-.44.26-.84-.08-1.25-.07-.53,0-.31.84-.82.94-.14.03-.29,0-.44,0,.65-.83,1.31-1.63,2.43-1.83.14.31.17.63.08.97Z"/>
    <path class="cls-47" d="m4.61,54.2c-.05.06-.1.11-.15.17-.11.04-.17,0-.16-.12.45-.53.79-1.17,1.48-1.45.12.62-.03.96-.58,1.17-.2.07-.44.05-.6.23Z"/>
    <path class="cls-88" d="m33.16,72.78c-.93-.83-.93-.87-.17-1.93-.11.66.21,1.28.17,1.93Z"/>
    <path class="cls-35" d="m3.71,54.91c-.43.43-1.04.53-1.56.81-.28.14-.55.12-.8-.07.81-.18,1.5-.73,2.36-.74Z"/>
    <path class="cls-30" d="m1.27,91.97c.79-.03,1.44.28,2.02.79.03.08.01.14-.04.16-.05.02-.08.02-.1,0-.62-.33-1.3-.54-1.88-.95Z"/>
    <path class="cls-83" d="m33.31,74.39c-.23.22-.35.58-.76.55.1-.12.2-.23.29-.35-.12-.3-.14-.57.26-.67l.15-.17c.11.21.13.42.06.64Z"/>
    <path class="cls-31" d="m14.63,51.85c-.39.16-.78.23-1.14-.06.39-.15.78-.19,1.14.06Z"/>
    <path class="cls-81" d="m20.48,94.66c.21-.25.48-.33.79-.23-.21.25-.48.33-.79.23Z"/>
    <path class="cls-30" d="m-.06,91.42c.3-.09.47.12.66.28-.29.08-.47-.11-.66-.28Z"/>
    <path class="cls-36" d="m4.31,54.25c.05.04.11.08.16.12-.11.14-.25.25-.44.22.1-.11.19-.23.29-.34Z"/>
    <path class="cls-20" d="m4.13,93.17c-.05.06-.09.11-.14.16-.12-.09-.24-.19-.35-.28.19-.08.35,0,.5.12Z"/>
    <path class="cls-20" d="m3.14,92.92c.05-.05.09-.11.14-.16.12.1.23.19.35.29-.19.07-.35,0-.49-.13Z"/>
    <path class="cls-30" d="m.78,91.83c.19-.07.35.01.49.13-.19.07-.35,0-.49-.13Z"/>
    <path class="cls-81" d="m24.09,93.21c.12-.14.26-.25.47-.2-.12.14-.26.24-.47.2Z"/>
    <path class="cls-87" d="m11.62,95.27c.11,0,.21-.02.32-.03-.11,0-.21.02-.32.03Z"/>
    <path class="cls-87" d="m11.94,95.24c.11,0,.21-.02.32-.03-.11,0-.21.02-.32.03Z"/>
    <path class="cls-81" d="m23.15,93.61c.11-.01.21-.02.32-.03-.11.01-.21.02-.32.03Z"/>
    <path class="cls-81" d="m23.62,93.41c.11,0,.21-.02.32-.03-.11,0-.21.02-.32.03Z"/>
    <path class="cls-81" d="m22.21,94.02c.11-.01.21-.02.32-.03-.11.01-.21.02-.32.03Z"/>
    <path class="cls-81" d="m22.68,93.82l.32-.03c-.11.01-.21.02-.32.03Z"/>
    <path class="cls-81" d="m24.55,93c.11,0,.21-.02.32-.03-.11,0-.21.02-.32.03Z"/>
    <path class="cls-81" d="m25.02,92.8c.11-.01.21-.02.32-.03-.11.01-.21.02-.32.03Z"/>
    <path class="cls-81" d="m25.64,92.42c.11-.01.21-.02.32-.03-.11.01-.21.02-.32.03Z"/>
    <path class="cls-18" d="m20.66,53.93c-.02-.1-.03-.2-.05-.3.02.1.03.2.05.3Z"/>
    <path class="cls-81" d="m21.74,94.22c.11-.01.21-.02.32-.03-.11.01-.21.02-.32.03Z"/>
    <path class="cls-81" d="m19.84,94.71c.11,0,.21-.02.32-.03-.11,0-.21.02-.32.03Z"/>
    <path class="cls-81" d="m20.16,94.68c.11,0,.21-.02.32-.03-.11,0-.21.02-.32.03Z"/>
    <path class="cls-95" d="m22.86,82.93c-.36-.47-1.04-.56-1.27-1.23-.12-.34-.61-.15-.93-.04-.3.1-.55.25-.57.62-.01.22.03.38.28.37.2-.01.38,0,.53.14.24.19.54.41.38.74-.19.4-.43.02-.65-.05-.48-.14-.97-.05-1.46-.07-.39.15-.94-.52-1.18.15-.21.56-.07,1.12.48,1.5.12.09.23.2.35.29.28.22.35.49.18.8-.19.35-.52.3-.79.19-.59-.24-1.15-.57-1.62-1.01-.27-.25-.46-.61-.92-.52-.12,1.63-.23,1.74-1.39,1.46-.01-.05-.03-.1-.04-.15.18-.44.51-.82.26-1.38-.13-.28.83-1.12,1.31-1.16.29-.03.61.08.87-.15.16-.27-.12-.41-.18-.61-.08-.25-.27-.5,0-.73.28-.24.57-.15.82.06.59.5,1.21.33,1.82.05.41-.19.67-.4.36-.96-.36-.66-.03-1.01.75-.88.28.05.52-.07.78-.12.32-.06.6-.24.57-.6-.03-.35-.35-.33-.62-.36-.11-.01-.23-.02-.29-.14-.13-.27.09-.42.22-.58.29-.36.35-.6-.16-.88-.67-.36-.61-1.07.07-1.46.26-.15.4,0,.57.18.71.74.88.72,1.47-.14.63-.92,1.94-.87,2.4.16.35.77.86,1.51.63,2.47-.1.4-.01.89.34,1.27-.3.06-.5-.22-.75-.01-.05.05-.05.12.02.18.2.18.39.36.6.52.26.2.44.22.57-.18.19-.57,1.08-1.11,1.6-.95.62.19.93-.02,1.04-.62.04-.21.13-.38.36-.35.33.04.29.32.27.53-.06.4-.32.81.2,1.09-.59.31-1.04-.41-1.62-.23-.12.04-.28-.1-.43-.11-.3-.02-.51.14-.62.41-.13.34.11.51.36.61.98.38,1.76,1.18,2.86,1.3.15.02.38.07.44.39-.98.42-2,.45-3.05.27-.24-.04-.42-.21-.52-.41-.59-1.18-1.87-1.6-2.73-2.49-.21-.21-.44-.29-.63.07-.12.22-.32.4-.5.61.35.59.73,1.17,1.05,1.79.12.24.37.56-.02.8-.34.21-.74.33-.99-.11-.21-.37-.45-.49-.83-.31Z"/>
    <path class="cls-7" d="m17.49,79.02c-.39.63-.11,1.16.25,1.67.1.15.28.26.41.39.35.35.1.62-.15.86-.26.24-.62.1-.66-.12-.13-.76-.78-.72-1.26-.9-.33-.13-.59-.34-.89-.49-.18-.09-.38-.03-.52.11-.15.15,0,.27.07.39.17.25.36.48.52.74.37.62.34,1.11-.08,1.55-.13.14-.24.2-.47.19-.74-.03-.97.18-.86.88.07.47,0,.7-.37,1.04-.39.36-.71.92-.83,1.44-.13.61-.42.73-.94.67-.25-.03-.44.09-.6.26-.03.03-.06.06-.08.09,0,.09,0,.17,0,.26,0,.1-.03.19-.06.28-.34.55-.7,1.1-1.2,1.49-.39.3-.87.49-1.36.12-.04-.1-.05-.2-.03-.31.2-.53.39-1.07.96-1.34.08-.05.17-.09.26-.13.13-.07.25-.15.35-.24.1-.11.19-.22.28-.34.36-.72.15-1.73-.66-2.28-.64-.44-.55-.65.02-1.01.81-.51.9-1.54,1.52-2.2.7-.58,1.37-.58,1.98.14.2.24.4.34.63.02.18-.25.42-.47.05-.75-.15-.11-.25-.28-.38-.42-.36-.39-.78-.79-.48-1.39.33-.66.91-.34,1.41-.33.09-.02.18-.04.27-.06.12-.04.23-.1.32-.2.14-.19.16-.41.2-.64.04-.35.16-.65.45-.88.8-.66,1.38-.47,1.66.56.08.3.24.57.25.89Z"/>
    <path class="cls-26" d="m26.83,68.96c-.29.43-.71.73-.79,1.34-.22,1.81,1.48,2.32,2.98,1.74.13.52.41,1.03-.47,1.15-.34.04-.41.3-.41.59,0,.26.02.53.04.85-.82,0-1.3-.56-1.84-.99-.18-.14-.37-.41-.57-.32-.42.2-.87.18-1.3.31-.15.05-.14.24-.14.4,0,.22,0,.46-.05.67-.14.63-.53.8-1.07.47-.1-.06-.23-.13-.26-.22-.27-.95-1.25-.94-1.97-1.57-.06.93-.41,1.59-.84,2.24-.35.53-.69.76-1.28.68-.3-.81-.29-1.41.76-1.67.6-.15.45-.98.83-1.38.22-.31.42-.61.42-1.03,0-1.44.5-2.1,1.82-1.82,1.39.29,2.24.03,2.84-1.23.1-.22.4-.35.63-.48.1-.05.21-.08.33-.08.12.03.21.09.28.19.01.06.03.11.04.17Z"/>
    <path class="cls-96" d="m26.63,68.49c.2-.25.42-.46.77-.33.52.21,1.07.39,1.5.76.32.27.49.62.01.91-.4.25-.51.56-.24.94.26.37-.02.65-.12.95-.03.09-.15.17-.24.21-.39.14-1.85-.79-1.85-1.21,0-.29-.03-.69.29-.8.85-.29.27-.63.08-.97,0,0,0,0,0,0,0-.15-.1-.24-.19-.34,0-.04,0-.09-.01-.13Z"/>
    <path class="cls-7" d="m20.73,73.39c-.26.26-.32.58-.37.93-.05.39-.28.81-.71.74-.83-.14-.79.26-.67.83.03.13-.07.28-.11.42-.41-.24-.58-.1-.5.34.08.44.47.8.32,1.3-.06,0-.11,0-.17.01-.65-.14-.74-1.08-1.54-1.06-.22,0-.25-.33-.26-.57-.04-1.49,2.5-3.36,3.99-2.94Z"/>
    <path class="cls-95" d="m12.19,88.89l-.35-.29c-.49-.01-.78-.26-.87-.73h0c0-.07.02-.12.06-.15.04-.03.07-.04.08-.03,0,0,0,0,0,0,.6.2,1.09.67,1.77.66.3,0,.64.1.79-.27.13-.33-.2-.45-.36-.64-.48-.56-.44-.96.11-1.43.33-.28.55-.08.8.11h0c-.03.24-.4.33-.32.55.14.38.5.21.79.2.98-.03,1.57.62,1.07,1.34-.35.51-1.07.71-1.25,1.48-.07.28-.7.2-1.03-.01-.42-.28-1.08-.16-1.29-.78Z"/>
    <path class="cls-95" d="m30.26,76.61c0,.22.06.47,0,.67-.12.33-.16.76-.69.77-.53,0-.88-.25-1.06-.7-.14-.35-.19-.73-.27-1.1-.07-.33.15-.45.38-.62.32-.24.72-.36.93-.79.34-.67.39-.64.9.13h0c0,.11.02.22.03.32h0c.02.18-.15.32-.12.5h0c-.01.28-.09.54-.09.82h0Z"/>
    <path class="cls-13" d="m17.49,79.02c-.28-.19-.44-.46-.55-.76,0-.11.04-.22.1-.31.2-.32-.17-.98.44-1.01.52-.03.46.6.65.93.05.25-.24.39-.2.64-.15.17-.29.35-.44.52Z"/>
    <path class="cls-26" d="m25.81,66.62c.71.43.73,1.17.81,1.87,0,0,0,0,0,0,.02.09.01.14-.04.16-.05.02-.09.03-.11.01h0c-.97-.44-1.12-.91-.66-2.05h0Z"/>
    <path class="cls-7" d="m18.7,77.94c.03.5-.22.35-.47.2.01-.05.03-.09.04-.14.13-.09.28-.06.42-.06h0Z"/>
    <path class="cls-7" d="m17.93,78.5c-.08-.19,0-.35.12-.5.1,0,.16.04.18.15,0,0,0,0,0,0-.1.12-.2.23-.29.35Z"/>
    <path class="cls-95" d="m30.42,80.32c-.11,0-.21.02-.32.03.11,0,.21-.02.32-.03Z"/>
    <path class="cls-3" d="m13.27,54.9c.71-.25,1.01-.94,1.5-1.43.26-.03.53.12.51.33-.13,1.03.61,1.22,1.32,1.46.26.09.48.23.6.48.28.57.79.76,1.35.91.54.14,1.11.23,1.52.68.27.3.35-.1.53-.15.59.08.95.52,1.37.85-.57.44-.33,1.15-.15,1.5.52,1.02,1.25,1.93,1.92,2.86.07.1.28.1.42.15-.04.4-.28.46-.62.38-.44-.36-.84-.95-1.32-1.03-1.1-.19-1.67-.88-2.34-1.64-.36-.42-.86-.76-1.19-1.37-.48.61-1.04.83-1.72.67-.14-.03-.31.02-.37.19-.07.21.03.41.19.49.86.44,1.34,1.3,2.13,1.81-.68.78-1.07-.28-1.68-.27.34.66.65,1.33-.67,1.28.33.42.8.55,1.07.88.29.36.62.75.32,1.21-.28.43-.71.69-1.25.35-.08-.07-.15-.14-.22-.21-.17-.13-.34-.14-.49.02-.09.09-.07.26.03.25,1.09-.13,1.09,1.09,1.79,1.43.51.34,1.04.57,1.67.62.61.05,1.16.36,1.12,1.03-.04.63-.66.73-1.19.82-.8.13-1.45-.33-2.24-.57.26.39.33.82.53,1.19.11.19.29.29.47.41.09.07.17.15.23.24.22.54-.03.88-.51,1.06-.58.23-1.19.33-1.69-.14-.46-.44-.9-.9-1.41-1.29-.31-.23-.38-.58-.25-.91.17-.43.08-.89.2-1.33.2-.42-.05-.67-.33-.94-.31-.3-.74-.5-.88-.96.21-.65-.11-.89-.7-1.13-.66-.26-.78-.9-.51-1.52.27-.62.76-.65,1.32-.24.03-.65.13-1.25-.29-1.77-.05-.09-.07-.19-.08-.3.09-.29.42-.42.5-.72.04-.09.09-.18.15-.26.34-.31.68-.64,1.08-.88.1-.04.2-.05.31-.06.52.06.8-.24.86-.69.05-.4-.31-.63-.62-.72-.97-.28-1.29-.83-.88-1.78.07-.17.09-.38-.07-.53-.09-.08-.22-.07-.31-.01-.25.13-.26.35-.16.58.24.55.1.99-.41,1.24-.53.26-.84-.14-1.12-.51-.28-.36-.67-.61-.92-1-.06-.1-.1-.2-.13-.3,0-.05-.02-.11-.03-.16,0-.11,0-.22.02-.33.02-.05.04-.1.06-.15.53-.56,1.1-.03,1.65-.06Z"/>
    <path class="cls-16" d="m15.07,68.04c-.27.49.15,1.13-.34,1.6-.13.12-.01.35.19.46.6.34,1.08.8,1.48,1.37.29.4,1.6.21,1.85-.23.15-.27,0-.51-.21-.7.92-.71,1.99-.64,3.05-.53.44.05.88.21,1.28-.12.49-.5,1.09-.38,1.81-.24-.28-.63-.58-1.16,0-1.68.27-.24-.05-.55-.14-.82-.16-.47-.21-.9.42-1.06.39.32,1.01.07,1.34.53.05.74-.15,1.56.66,2.05-.51.58-1.23.98-1.41,1.84-.08.38-1.11.64-1.61.31-.72-.47-1.32-.04-1.95.06-.39.07-.66.5-.42.89.41.69.07,1.14-.35,1.62-2.07.55-4.02,1.66-3.68,3.38.53-.13,1-.11,1.12.61.03.21.35.38.53.57-.16.07-.31.13-.47.2-.06-.05-.12-.1-.18-.15-.17-.31-.22-.7-.58-.97-.32.4-.11.97-.54,1.24-.17-.26.27-.72-.26-.85-.36-.09-1.13.37-1.26.76-.06.17-.05.37-.07.56-.8-.05-1.11-.6-1.18-1.29-.06-.64.48-.78.96-.93,1.18-.08,1.41-.42.7-1.32-.58-.75-.75-1.73-1.53-2.37-.66-.55-1.29-1.03-2.19-1.02-.62-.34-1.3-.59-1.67-1.25-.3-.39-.71-.68-1.03-1.06-.83-1.03-.63-1.54.72-1.79,1.02.5,1.99,1.05,2.29,2.29.18.72.75.48.83.1.15-.74.95-1.01,1.02-1.78.04-.46.38-.63.79-.25Z"/>
    <path class="cls-3" d="m24.47,66.09c-.3.34-.47.68-.11,1.1.36.43.69.86-.17,1.19-.35.13-.27.53.08.69.35.16.5.38.32.7-.21.38-.56.37-.88.14-.49-.35-.85-.19-1.16.23-.53,0-.74-.34-.82-.78-.23-1.39-1.21-1.93-2.45-2.15-.38-.07-.76-.08-.98-.47-.12-.24-.07-.52-.15-.78-.27-.86.11-1.2.96-1.2.04-.42-.85-.66-.33-1.09.43-.36.93-.06,1.34.26.09.07.16.16.24.24.34.37.71.76,1.26.6.65-.18.41-.8.52-1.25.33-.08.44.15.62.36.6.71.9,1.66,1.72,2.2Z"/>
    <path class="cls-17" d="m22.14,63.53c.39.42.42.87.07,1.32-.46.61-1.32.46-1.98-.36q-.5-.62-1.47-.68c.28.53,1.18.7.82,1.49-.03.02-.07.04-.1.04-.36,0-.57-.59-1-.26-.46.35,0,.67.04,1,.03.2-.06.37-.17.52-.27,0-.37-.18-.47-.39-.14.3.13.74-.3.95-.2-.17-.51-.32-.56-.53-.16-.64-.4-1-1.14-.76-.2.06-.44-.14-.5-.37-.09-.3.22-.34.38-.47.2-.17.43-.34.7-.34.42,0,.23.25.14.45.44.5.86.2,1.15-.12.28-.31-.03-.63-.24-.88-.27-.32-.65-.49-1.04-.65-.29-.12-.53-.38-.41-.71.13-.35.45-.15.69-.11.11.02.21.09.31.12.12.03.24-.01.28-.12.03-.09.03-.25-.03-.31-.15-.16-.39-.24-.51-.42-.16-.24-.12-.52.13-.7.21-.15.39-.11.58.1.36.41.69.95,1.39.67h0c.62.34.9,1.31,1.87.97.29-.08.48.1.67.26.2.16.38.35.67.27Z"/>
    <path class="cls-28" d="m33.1,73.93c-.09.22-.18.45-.26.67-.16-.02-.29.04-.42.13-.3.21-.47.22-.67-.19-.31-.62-.33-1.28-.51-1.92-.04-.15,0-.39.32-.47.1.48.3.83.91.83.57,0,.45.61.62.95Z"/>
    <path class="cls-19" d="m23.54,62.92c.22-.11.46-.17.62-.38.21.15.41.38.65.44.57.14.75.62.95,1.04.16.32.31.84-.03,1.04-.4.23-.64-.24-.83-.55-.22-.37-.57-.6-.87-.88-.22-.2-.51-.35-.49-.71Z"/>
    <path class="cls-18" d="m27.93,64.81c.24.25.58.33.88.47.49.23.54.68.54,1.14,0,.29-.17.49-.44.59-.28.1-.49-.02-.68-.24-.72-.82-.78-1.11-.3-1.97h0Z"/>
    <path class="cls-3" d="m20.79,63c-1.09.33-1.26.26-1.66-.71-.04-.1-.14-.18-.21-.26.39-.09.6.21.84.41.31.26.62.5,1.03.56Z"/>
    <path class="cls-83" d="m30.26,76.61c-.15-.29-.12-.57.09-.82.15.29.12.57-.09.82Z"/>
    <path class="cls-83" d="m30.35,75.79c-.08-.19,0-.35.12-.5.08.19,0,.35-.12.5Z"/>
    <path class="cls-83" d="m30.47,75.29c0-.11-.02-.21-.03-.32,0,.11.02.21.03.32Z"/>
    <path class="cls-82" d="m12.19,88.89c.47.31,1.13.16,1.55.64.09.1.36.07.54.05.25-.03.45-.15.27-.45-.09-.16-.24-.3-.31-.47-.07-.18-.04-.38.12-.52.18-.16.37-.1.49.06.18.23.38.49.62.19.23-.3.23-.73.07-1.08-.12-.26-.39-.39-.66-.19-.33.24-.63.12-.97.03-.25-.07-.54.02-.53-.39.01-.34.07-.61.49-.61.11,0,.22-.02.34-.03.24.21.49.08.75.04.41-.06.48-.29.4-.64-.09-.39-.36-.76-.07-1.28.51.33,1.18.2,1.54.98.21.44.97.64,1.5.92.15.08.37.13.48-.11.08-.18.09-.38-.05-.53-.18-.19-.38-.38-.59-.53-.41-.28-.58-.63-.56-1.15.01-.34-.15-.66.28-.86.36-.17.65-.11.92.15.11.11.23.2.35.29.25.21.33.48.23.79-.38-.02-.86-.42-1.11.1-.21.42.27.63.52.9.45.5.86,1.04,1.68.79.27-.08.52.09.6.39.07.26-.04.45-.28.55-.56.21-.62.89-1.17,1.17-.43.22-.18.78.09,1.09.34.4.73.77,1.25.95.2.07.35.2.3.41-.09.32-.36.21-.56.15-.32-.09-.63-.23-.93-.34-.15.12-.1.28-.15.42-.21.64-.62.77-.9.22-.37-.73-1.17-.89-1.64-1.5-.33-.43-1.07-.16-1.61-.3-.22-.06-.25.23-.32.4-.22.11-.46.17-.62.38-.06.49-.46.52-.81.58-.06.63.96,1,.36,1.73-.05.06-.1.12-.15.17-.05-.1-.07-.27-.15-.3-1.02-.39-1.06-1.54-1.74-2.2-.39-.38-.18-.75.11-1.08Z"/>
    <path class="cls-82" d="m16.74,92.71c-.27-.29-.68-.45-.87-.86,1.36,0,1.98.58,1.74,1.6-.29-.24-.58-.49-.87-.73Z"/>
    <path class="cls-82" d="m18.14,93.89c.05-.06.1-.12.15-.17.07.16.02.22-.15.17Z"/>
    <path class="cls-82" d="m18.29,93.71c-.07-.16-.02-.22.15-.18-.05.06-.1.12-.15.18Z"/>
    <path class="cls-81" d="m14.11,92.29c.06-.23.08-.51-.11-.64-.59-.4-.45-1.13-.86-1.65.52.13.98.48,1.42-.02.24.33.94.43.58,1.08.01.11.1.21.03.32-.21.55.29.76.62,1.06-.69.55-1.2.29-1.67-.16Z"/>
    <path class="cls-82" d="m15.17,91.39l-.03-.32q.24.23.03.32Z"/>
    <path class="cls-26" d="m20.61,57.18c.01.11.01.22.04.33.05.21.19.48-.09.59-.27.11-.37-.16-.48-.35-.25-.41-.58-.64-1.08-.7-.44-.05-.87-.23-1.3-.37-.14-.05-.35-.11-.38-.21-.27-1-1.22-1.04-1.95-1.39-.32-.16-.6-.3-.31-.75.22-.35.03-.64-.28-.86,0,0,0,0,0,0,.22-.74.73-.21,1.11-.26.27.03.55.06.82.09.33.28.72.15,1.09.15.89.01,1.18.43.72,1.2-.27.46-.03.67.17.99.21.34.33.66.83.31.23-.16.52.09.58.38.08.35.21.64.51.85Z"/>
    <path class="cls-83" d="m10.97,87.87l.87.73q-.73,1,.08,1.86c.44.46.58,1,.49,1.75-.4-.4-.85-.66-.99-1.03-.2-.55-.64-.64-1.05-.83-.02-.15,0-.29.02-.43-.03.14-.04.29-.02.43-.2.59-.48.81-1.1.4-.35-.23-.86-.18-1.19-.53,0-.04,0-.09,0-.13.04-.08.09-.15.17-.2.04,0,.09-.01.13-.02.76.08,1.38-.04,1.73-.88.17-.41.69-.65.85-1.13Z"/>
    <path class="cls-85" d="m8.09,90.23c-.19.13-.57.16-.37.54.13.25.56.35.42.72-.13.33-.53.39-.8.58-.05.04-.14.02-.22.03,0-.06,0-.11,0-.17.27-.35.13-.67,0-1.04-.2-.59-.08-1.04.68-1.04.17.07.28.19.3.37h0Z"/>
    <path class="cls-85" d="m7.12,92.1c-.11,0-.21.02-.32.03,0,0,0,0,0,0,.09-.2.2-.22.32-.03h0Z"/>
    <path class="cls-43" d="m-7.26,68.7c.45-.09.65.31.96.5.12.08.24.22.39.09.15-.14.18-.35.07-.52-.14-.22-.37-.38-.51-.6-.24-.37-.53-.73-.1-1.21.29-.33.05-.89.39-1.26.05-.05.03-.27-.03-.31-.91-.59-.19-.86.22-1.2.36-.78.96-.49,1.37-.17.46.36,1.04.72,1.27,1.25.54,1.22,1.39,1.41,2.53,1.05.11.04.2.1.29.18.36.38.5.86.63,1.35.07.24.25.36.45.48.37.22.97.42.57.97-.32.44-.83.47-1.42.24-1.17-.46-1.95-1.45-3.02-2.04-.09-.05-.15-.16-.32-.06.32.56.68,1.1,1.27,1.38.77.36.91.92.67,1.67-.04.72-.35.96-1,.54-.09-.06-.16-.25-.2-.22-1.36.83-1.19-.43-1.47-1.07.12-.41.53-.38.92-.58-.66-.39-1.39-.5-2.17-1.01.55.56.72,1.02.45,1.57-.1.2-.2.4-.11.65.24.62.23,1.15-.6,1.26-.77.1-1.49-.44-1.56-1.16-.03-.26.11-.52.06-.75-.33-.21-.99.58-1-.38.23-.36.6-.51.99-.63Z"/>
    <path class="cls-79" d="m-.64,66.5c-.18.04-.37.06-.53.13-.92.42-1.61.26-1.96-.63-.21-.53-.51-.9-.98-1.16-.13-.07-.26-.13-.32-.29-.31-.8-.86-.61-1.43-.36-.06-.05-.12-.1-.17-.15.05-.06.1-.12.15-.18-.02-.11,0-.21-.03-.32.13-.64.73-.55,1.14-.74q.71-.34.88.35c.1.41,1.11,1.04,1.5.92.25-.07.26-.27.11-.43-.52-.59-.04-.71.38-.76.33-.04.68.06.93-.25.38.41.05.58-.25.77-.08.04-.17.07-.25.11-.1.11-.09.25-.07.39.06.62-.14,1.39.87,1.42.84.11,1.66.14,2.29-.6.09.07.15.15.2.25.02.05.04.1.06.15.04.1.07.21.09.32.06.34.08.66-.23.91-.24.15-.51.17-.78.18-.53,0-1.06-.39-1.6-.03Z"/>
    <path class="cls-52" d="m4.11,89.28c-.49.61-1.1.62-1.75.31-.04-.03-.08-.05-.13-.08-.47-.53-1.11-.55-1.75-.56-.1-.03-.19-.07-.27-.13-.31-.38-.53-.85-1.08-.95-.97-.41-1.36-1.33-1.91-2.11-.1-.35-.17-.69.18-.95.25,0,.37.23.57.34.49.28,1.04.14,1.32-.22.27-.35-.2-.66-.47-.91-.36-.33-.77-.61-1.1-.99-.45-.52-.49-1.1-.13-1.68.35-.58.83-.4,1.28-.14.4.23.52.09.57-.33.09-.77.61-.67.93-.28.44.54,1.51.85.91,1.91-.3.11-.48-.15-.72-.22.16.18.38.24.61.26.85.51,1.99.72,1.87,2.12-.05.56.41.19.65.22.33.08.57.26.6.63-.03.11-.08.19-.21.17.1.08.18-.05.27-.04.78-.39.86-.92.19-1.35-.24-.16-.63-.04-.77-.4.29-.57-.2-1.27.32-1.8.11-.02.22-.01.32.02.14.06.31.14.35.27.47,1.48,1.72,1.93,3.03,2.27.43.11.5.42.56.75.12.67-.1,1.34-.03,2.03.05.51-.46.52-.84.38-.57-.21-.75-.7-.81-1.26-.03-.28-.16-.51-.48-.54-.16-.02-.31.05-.38.19-.16.32.06.51.28.65.82.52.61,1.29.53,2.03-.42.4-.57.05-.72-.27-.11-.24-.11-.51-.24-.74-.15-.26-.39-.4-.65-.28-.32.14-.07.37,0,.56.1.34.41.65.14,1.04-.11.02-.21.02-.31-.02-.79-.49-1.14-1.47-2.16-1.96.09.47.43.54.56.76.2.27.16.69.55.84.09.04.17.1.24.17.03.04.05.08.08.12,0,.05.01.1.02.15Z"/>
    <path class="cls-20" d="m5.08,89.19c-.16-.41-.23-.92-.51-1.21-.47-.48-.08-.6.21-.7.73-.25,1.09.02,1.26.8.07.3-.2.84.47.81.68.25,1.57-.04,2.02.8-.05.06-.1.12-.15.18,0,0,0,0,0,0-.21.06-.42.09-.64.06-.59.17-.61.6-.42,1.05.18.44.12.79-.2,1.11-.11,0-.21.02-.32.03-1,.15-1.03.21-.91,1.6-.55-.04-.96-.39-1.43-.58.07-.09.18-.17.21-.27.26-.95.94-1.18,1.83-1.14.23.01.6.09.6-.32,0-.32-.24-.47-.54-.47-.48.01-.56-.21-.53-.64.03-.34-.16-.58-.57-.5-.05,0-.1,0-.15,0-.26-.14-.34-.34-.23-.61Z"/>
    <path class="cls-23" d="m1.92,90.12c-.88,0-1.73-.03-2.3-.89-.38-.56-.9-.03-1.36-.09-.4-.11-.69-.36-.87-.73h0c.35-1.12,1.16-.71,1.89-.57.54.11.56.8,1.06.96h0c.59.47,1.62-.17,2.02.8h0c-.04.27-.19.44-.44.53Z"/>
    <path class="cls-25" d="m3.21,88.22c-.24-.27-.61-.31-.89-.49-.21-.14-.28-.37-.16-.6.1-.19.3-.22.5-.18.33.06.64.13.88.45.43.57.91,1.1,1.37,1.65.12.3.06.73.55.76,0,0,0,0,0,0,.31.37.25.65-.25.65-.75,0-.97-.56-1.1-1.18,0,0,0,0,0,0,0-.11-.06-.16-.17-.15-.06-.05-.12-.1-.18-.15-.49-.03-.42-.47-.55-.76Z"/>
    <path class="cls-76" d="m1.65,64.84c-.33,0-.46.13-.43.48.07.65-.04.76-.54.45-.47-.3-.95-.11-1.41-.24.65-1.13.59-1.27-.84-2.2.28-.16.71-.2.58-.7-.08-.25.11-.41.19-.62.23-.64.02-.95-.69-1.13-.17-.04-.32-.18-.48-.27.07-.23.08-.48.26-.67.32-.23.64-.02.97.03-.34-.44-.73-.86-.46-1.48.27-.23.54-.48.87-.08.03.68.39,1.07,1.03,1.32.81.32,1.48.87,1.98,1.61.09.31.09.76-.28.69-.72-.14-1.65.13-1.93-.46.44.48.81,1.42,1.39,2.24.3.42.45.82-.22,1.04Z"/>
    <path class="cls-47" d="m5.43,56.07c.12.37.39.43.72.32.25-.08.49-.19.74-.29.16-.12.34-.15.53-.12.27.07.43.27.63.45.84.82,1.48.87,2.48.24,1.17-.74,1.28-.73,2.2.23.37.39.63.64,1.32.44.7-.2,1.53.24,2.11.76.5.45-.04,1.13-1.03,1.33h0c-.37.4-1.02.48-1.2,1.08h0c.08.47-.56.33-.59.7h0c-.01.12-.08.19-.2.21-.5-.74-.09-1.98.8-2.37.19-.08.47.02.57-.39-.79-.17-1.46-.6-2.15-1.03-.21-.13-.9-.62-.78.37.04.32-.29.48-.56.4-.87-.26-1.52.31-2.25.56-.24.16-.49.3-.77.36-.18.03-.35.02-.53-.02-1.51-.28-2.42-1.48-2.3-3.04,0-.11.15-.16.26-.19h0Z"/>
    <path class="cls-34" d="m7.21,56.08c-.11,0-.21.02-.32.03-.02-1.01.53-1.44,1.49-1.17.83.23,1.65.21,2.27-.48.33-.37.63-.62,1.14-.36.11.05.29-.04.43-.07.23.06.43.13.45.42.02.24.25.25.42.31.06.05.12.1.18.15-.52.26-1.1-.18-1.61.14-.25.1-.33.39-.46.51-.61.55-.83,1.55-1.66,1.76-.47.12-1.14-.13-1.42-.71-.2-.4-.51-.52-.91-.52Z"/>
    <path class="cls-35" d="m5.43,56.07c-.07.13-.19.31-.08.41.49.45.7.93.55,1.64-.1.49.25.86.84.72.38-.09.65.05.91.29-.03.7-.52.84-1.07.92-.6-.16-1.21-.32-1.76.16-.41-.15-.64-.43-.65-.87.05-.31.32-.51.43-.79.31-.78.06-1.1-.8-.96-.79.13-1.33-.1-1.56-.9.32-.77.84-1.23,1.73-1.17.59.04.98-.33,1.35-.72.31.23.49.48.19.85-.1.12-.11.28-.08.43Z"/>
    <path class="cls-3" d="m15.88,53.21c-.33.24-.81-.13-1.11.26.23-.82.33-.84,1.11-.26Z"/>
    <path class="cls-38" d="m2.24,56.68c.2.17.41.34.61.51.28.24.56.28.93.13,1.06-.44,1.37-.19,1.23.93-.06.48-.23.88-.76,1.01-.62.17-.99-.21-1.34-.61-.29-.34-.57-.7-1.1-.84-.26.47.3.98-.09,1.39-.57.39-.16.65.12.94.36.38.96.59.94,1.27-.04.03-.08.07-.12.1-.84-.62-1.5-1.47-2.62-1.72-.66-.15-.75-.69-.41-1.42-.05-.37.14-.63.41-.85.65-.32,1.4-.47,1.85-1.13.12.1.23.19.35.29Z"/>
    <path class="cls-78" d="m.04,57.51c.1.4-.23.59-.41.85-.3-.04-.53.13-.79.23-.33-.09-.68-.35-.97.08-.14-.12-.24-.26-.2-.47.77-.12,1.35-.55,1.85-1.12.17.14.35.28.52.43Z"/>
    <path class="cls-83" d="m24.61,77.34c.16.16.13.39.14.61.02.26-.27.48-.11.75.16.27.2.49-.16.62-.37.14-.75.5-1.14.11-.37-.37-.75-.76-.98-1.21-.21-.4.22-.67.49-.91.27-.24,1.49-.2,1.76.03Z"/>
    <path class="cls-98" d="m23.56,82.34c-.18.2-.46.19-.71.14-.34-.07-.62-.28-.72-.64-.03-.1,0-.23.02-.34.07-.34-.24-.81.26-.99.41-.16.57.21.76.5.45.65.6,1.05.4,1.33Z"/>
    <path class="cls-45" d="m8.53,89.7c-.17-.13-.35-.34-.57-.26-.66.25-1.02-.19-1.44-.54-.05-.22-.14-.45-.13-.66.04-.56-.03-.99-.66-1.23-.36-.13-.59-.49-.37-.94.2-.4.57-.5.96-.44.42.07.64.33.67.78.08,1.1.14,1.15,1.22,1.22-.35-.46-.39-.88-.16-1.37.12-.25.03-.59.02-.89-.01-.41-.13-.72-.61-.41-.31.2-.46.11-.63-.17-.22-.37-.55-.59-1.01-.63-.6-.05-.97-.41-1.02-1.02-.03-.37-.19-.65-.49-.86.27-.41.68-.15,1.02-.19.14.04-.03-.03.11.02q1.41.48,2.21-.65c.41.04.67.42,1.14.42,1,.01,1.16.4.62,1.24-.12.19-.33.32-.34.57,1.11-.9,1.08-1.34-.12-2.13-.47-.31-.9-.68-.94-1.32.81-.76,1.06.25,1.52.43-.05-.08.06.12.03.07-.62-.97-.71-1.6.77-1.65,1.69-.05,2.25,1.31,3.11,2.31.16.18.09.44-.09.62-.2.19-.43.19-.6,0-.56-.61-1-.19-1.46.13-.21.44-.43.88-.64,1.32-.28.59-.66,1.08-1.62,1.35.87.14,1.5.31,1.31,1.16,0,.03.03.07.04.1.13.3.7.17.63.68-.06.49-.4.8-.68,1.15-.47-.19-.93-.22-1.37.13.23.15.6-.1.75.25-.63.27-.82.9-1.17,1.4Z"/>
    <path class="cls-32" d="m11.28,82.16c.41-.6.87-.84,1.5-.26.15.14.36.14.49-.06.13-.2.03-.41-.14-.48-.56-.26-.81-.76-1.05-1.26-.17-.36-.44-.5-.79-.55-.37-.06-.75-.1-1.12-.16-.26-.04-.56-.16-.72.14-.15.28-.08.6.1.86.18.25.45.39.72.54.14.08.19.24.09.39-.1.17-.26.14-.39.05-.39-.3-.77-.62-1.15-.94-.25-.21-.5-.35-.8-.07-.15.01-.37,0-.39-.13-.22-1.02-1.01-1.82-1.09-2.88.41-.33.75-.63.93-1.22.2-.67.73-1.28,1.65-.9.14.06-.03-.02.11.04.48.2,1.13-.4,1.45.22.31.61-.4.89-.64,1.33-.2.38-.1.66.37.72.15.02.3.05.45.04,1.68-.16,2.76.9,3.89,1.88-.27.3-.58.32-.93.14-.26-.13-.54-.16-.69.15-.13.28-.2.62.12.82.43.27.57.79,1.02,1.05.21.12.39.42-.12.5-.22.04-.19.3-.26.47-.26.62-.41.65-.81.18q-.8-.95-1.83-.58Z"/>
    <path class="cls-72" d="m14.77,79.42c-.36-.32-.89-.11-1.27-.43-.27-.23-.72-.24-.5-.81.09-.23-.2-.45-.44-.3-.56.36-1.06.29-1.59-.06-.11-.07-.29-.05-.44-.04-.87.01-.92-.04-.94-.85,0-.29,0-.53.36-.58.19-.03.35-.14.47-.3.12-.16.22-.33.13-.52-.11-.24-.32-.13-.49-.08-.31.1-.61.36-.96.1-.29-.21-.59-.44-.88-.04-.27.37-.82.62-.62,1.24.06.18.11.36.17.54-.38.35-.8-.41-1.13.09-.45-.74.32-1.04.56-1.53.06-.09.17-.21.14-.3-.45-1.64.8-1.75,1.84-2.03,1.08-.29,1.7.6,2.52.99.06.09.1.19.12.3-.31.44-.27.82.18,1.14.34.24.72.57,1.09.19.72-.72,1.36-.3,2.02.05.13.11.22.25.22.43-1.25.67-1.27.94-.15,1.96.06.05.12.1.17.15-.07.23-.09.48-.26.67-.11,0-.22.01-.32.03h0Z"/>
    <path class="cls-5" d="m9.71,88.3c-.32-.11-.57.04-.84.2-.14.08-.29.04-.39-.1-.13-.17-.12-.44,0-.51.38-.21.8-.41,1.23-.5.35-.08.5.25.61.54-.1.12-.2.23-.29.35-.11,0-.21.01-.32.03h0Z"/>
    <path class="cls-32" d="m14.77,79.42c.11,0,.21-.02.32-.03-.11,0-.21.02-.32.03Z"/>
    <path class="cls-45" d="m9.71,88.3c.11-.01.21-.02.32-.03-.11.01-.21.02-.32.03Z"/>
    <path class="cls-83" d="m11.11,87.69c-.05.06-.1.12-.15.17-.05-.08-.04-.15.04-.18.03-.01.07,0,.11,0Z"/>
    <path class="cls-83" d="m26.48,68.67c.05-.06.1-.12.15-.17.14.12.24.26.2.47l-.35-.29Z"/>
    <path class="cls-49" d="m15.07,68.04q-.65.09-.45,1.02c-.28.23-1.19-.1-.72.83.09.18-.99,1.02-1.25,1-.26-.02-.51-.18-.48-.4.16-1.29-.92-1.7-1.63-2.38-.11-.1-.23-.2-.35-.29-.04-.38-.16-.73-.43-1.01-.11-.18-.17-.37-.19-.59.02-.37.12-.74.57-.65.56.11,1.07.37,1.35.92.19.36.16.77.28,1.22-.09-1.23,1.08-1.12,1.62-1.65.12,0,.19.04.22.16.64.18.93.84,1.52,1.11.24.11.1.48-.07.71Z"/>
    <path class="cls-54" d="m17.59,67.17c.15-.52-.11-1.02-.07-1.55.82-.07.47.75.84.99.18.14.36.37.59.31.93-.25,1.58.41,2.3.75.56.26.7.97.75,1.55.04.46.27.68.55.92-.33.35-.78.42-1.15.23-.93-.49-1.8.08-2.7.07-.22,0-.44.06-.66.1h0c-.18.02-.31-.15-.5-.12-.39-.66-.4-1.52-1.07-2.13.59.21,1.23.34,1.77.66.48.29.95.21,1.42.17.31-.02.78-.15.76-.54-.03-.44-.46-.8-.86-.73-.82.14-1.35-.35-1.96-.68Z"/>
    <path class="cls-29" d="m7.21,56.08c.52-.16.97-.09,1.17.49.17.5.63.52,1,.58.45.07.78-.43.59-.83-.08-.17-.25-.32-.09-.5.27-.31.34.14.53.16.18.01.37.01.65.02-.04-.4-.48-.79-.08-1.13.28-.24.48.04.68.18h0c0,.11.02.21.03.32h0c0,.11.02.21.03.32.44.41.96.72,1.26,1.28.15.28.43.47.75.19.27-.23.48-.51.13-.86-.21-.21-.53-.46-.17-.73.31-.24.62-.6,1.1-.48.15.04.27.14.3.3.01.11,0,.22,0,.34q-.04,1.36.99,2.12c.63.47.66.57.33,1.17q-.41.74-1.26.43c.1-.05.21-.08.31-.15.34-.24.75-.51.68-.96-.07-.44-.54-.47-.9-.55-.47-.11-.92-.61-1.44-.07-.11.11-.29.01-.41-.07-.12-.09-.23-.19-.36-.28-.46-.32-.8-.98-1.36-.93-.47.04-.94.45-1.34.78-.46.38-.83.34-1.4.18-.79-.23-1.12-.9-1.69-1.3Z"/>
    <path class="cls-53" d="m13.62,66.22c-.06-.05-.12-.1-.18-.15-.36-.66-1.21-.4-1.67-.87-.06-.08-.11-.17-.14-.27-.03-.2,0-.4,0-.6,0-.1,0-.2,0-.3,0-.15.03-.3.09-.45.07-.14.17-.26.29-.36.61-.47,1.38-.83,1.17-1.83.05-.06.1-.12.15-.17.48.32.76.74.62,1.34-.06.27-.06.52.1.76.11.16.19.34-.06.46-.19.09-.36.03-.53-.09-.21-.14-.23-.66-.66-.38-.25.17-.47.41-.34.76.11.33.02.81.59.81.08,0,.16,0,.23.02.76.26.83.54.32,1.31Z"/>
    <path class="cls-53" d="m13.93,60.52c-.09-.24-.2-.62.13-.63.45-.01.65-.49,1.08-.45-.31.46-.75.77-1.2,1.08Z"/>
    <path class="cls-53" d="m13.34,61.22c-.12-.5.45-.41.59-.7.34.68-.32.52-.59.7Z"/>
    <path class="cls-49" d="m15.92,66.88c-.06.03-.12.06-.18.09-.03-.06-.1-.14-.08-.18.02-.05.11-.07.17-.1.03.06.06.12.09.19Z"/>
    <path class="cls-16" d="m17.55,70.42c.19-.08.35,0,.5.12-.19.08-.35,0-.5-.12Z"/>
    <path class="cls-34" d="m11.69,55.36c0-.11-.02-.21-.03-.32,0,.11.02.21.03.32Z"/>
    <path class="cls-34" d="m11.72,55.68c0-.11-.02-.21-.03-.32,0,.11.02.21.03.32Z"/>
    <path class="cls-48" d="m15.33,76.62l-.35-.29c-.69-.65-1.32-1.43-2.46-1.09-.37.11-.68.03-.75-.42-.06-.05-.12-.1-.17-.15.22-.66,1.4-.74,1.06-1.74-.02-.15-.04-.29-.06-.44-.04-.24-.21-.43-.29-.66,0-.05,0-.1,0-.15.19-.02.41.02.55-.07.4-.26.56-.06.81.25.33.41.78.72,1.18,1.06.29.25.61.46.52.93-.1.57.58.66.75,1.14.12.33.42.58.32,1.02-.06.24.03.51.05.8-.45.27-.77-.21-1.16-.2Z"/>
    <path class="cls-9" d="m9.93,66.71c.38.3.78.6.26,1.11-.18.05-.37.08-.53.16-.58.27-.56.45-.26.99.33.61,1.07.77,1.34,1.4-.43,1.07-.64,1.17-1.46.43-.46-.42-1.18-.05-1.5-.65-.05-.1-.06-.21-.03-.31.18-.27.06-.46-.13-.68-.29-.32-.13-.62,0-1.01.36-1,.75-1.79,2.03-1.28.05.02.17-.13.28-.17Z"/>
    <path class="cls-48" d="m7.78,69.98c.17.14.38.39.57.3.71-.32,1.1-.16,1.29.61.05.19.37.24.57.05.19-.18.35-.38.52-.58.13.27.22.57.56.65.42.1.7.42,1.02.67,0,0,0,0,0,0-.22.38-.54.18-.79.1-.69-.22-1.24-.13-1.84.37-.79.66-1.35.04-1.81-.61.31-.65-.53-1.09-.32-1.72.12-.02.2.03.23.15Z"/>
    <path class="cls-54" d="m16.6,65.15c-.09.07-.16.16-.26.2-.09.04-.29.05-.3.02-.09-.22.1-.23.23-.25.11-.01.22.02.33.03h0Z"/>
    <path class="cls-89" d="m10.35,90.37c-.09-.17-.15-.23-.16-.3-.02-.22-.03-.46.24-.57.05-.02.18,0,.2.05.14.23.03.43-.12.62-.05.06-.1.12-.17.2Z"/>
    <path class="cls-7" d="m7.74,89.93c.21-.11.42-.13.64-.06-.1.12-.2.23-.29.35-.12-.1-.23-.19-.35-.29Z"/>
    <path class="cls-58" d="m1.62,66.3c.21-.25.24-.52.09-.82,0-.11-.02-.21-.03-.32h0c.12-.53.55-.71,1-.88.1-.03.21-.04.32-.04.11,0,.21.02.32.05.1.05.18.11.25.2.02.05.04.1.06.15-.01.05-.02.1-.03.15-.27.39-.75.67-.61,1.26.68.99.98.97,1.72.16.56-.61,1.06-1.47,2.14-1.22.5,1.17-.3,1.51-1.16,1.8.03.1.05.19.07.28.01.28.23.74-.14.79-1.58.21-.48.89-.28,1.41.02.11,0,.22-.05.32-.04.04-.07.08-.11.12-.1.06-.2.08-.31.05-.77-.72-1.4-.17-1.98.27-.89.68-2.96.98-3.69.45.13-.41.47-.57.82-.72.68-.04,1.17-.47,1.71-.8-.07-.14-.22-.13-.33-.19-.43-.38-1.18-.22-1.43-.88-.15-.42-.29-.84-.44-1.26.05-.02.1-.03.15-.05.98.25,1.62,1.23,2.7,1.28.14,0,.27.13.43.06-1.41-.34-1.55-.54-1.2-1.64Z"/>
    <path class="cls-39" d="m-.02,67.9c.48.44,1.16.48,1.69.82.18-.03.35,0,.5.12.04.16.02.34-.14.37-.56.11-1.03.37-1.48.71-.13.1-.28-.02-.41-.09-.71-.15-1.21.27-1.75.61-.1.03-.2.05-.3.05-.03-.15-.02-.3.07-.43.33-.45.1-.75-.32-.86-.87-.23-1.15-1.06-1.72-1.59-.21-.2-.24-.5-.03-.72.26-.26.51-.06.68.13.3.34.54.72,1.08.64.47.7.98,1.34,1.92,1.37.44.86.91.24,1.4.08-.13-.52-.55-.53-.9-.62-.35-.09-.39-.31-.31-.6Z"/>
    <path class="cls-58" d="m-.64,66.5c.08-.28.12-.62.56-.49.35.11.7.23,1.05.34-.3.95-.97.09-1.43.29,0,0,0,0,0,0-.06-.05-.12-.1-.17-.15Z"/>
    <path class="cls-38" d="m2.91,64.4c-.43.21-.94.31-1.23.76,0-.11-.02-.22-.03-.32.19-.24.44-.53.1-.78-.46-.35-.65-.82-.8-1.33-.09-.3-.29-.54-.54-.72-.47-.33-.34-.68-.02-1.11.28.41.43,1.07,1.13.6.29-.19.35.16.5.29.38.32.52.06.62-.28,0,0,0,0,0,0,1.05.16.99,1.28,1.58,1.84.13.44.38.73.88.75.39.01.68.18.6.63-.09.48-.41.72-.9.68-.52-.05-.92-.32-1.24-.73-.06-.05-.12-.1-.17-.15-.01-.26-.08-.5-.23-.72-.29.15-.16.43-.27.61Z"/>
    <path class="cls-11" d="m-1.56,63.33c.42.37.64-.21.98-.21.4.22.08.64.28.92.21.29.63.55.4.94-.15.26-.54.37-.82.55-.72.02-.95-.13-1.08-.73-.08-.34.06-.65.12-.98-.01-.18-.16-.39.12-.5h0Z"/>
    <path class="cls-102" d="m-.46,66.64c.18-.19.37-.23.61-.1.32.16.59.06.82-.19.21-.11.42-.13.65-.06.03,1.2.13,1.3,1.28,1.22.19-.01.38-.1.48.13.1.23,0,.44-.16.62-.14.15-.32.22-.5.1-.84-.59-2.1-.39-2.68-1.47-.07-.13-.32-.17-.49-.25Z"/>
    <path class="cls-38" d="m1.68,65.16c0,.11.02.21.03.32,0-.11-.02-.21-.03-.32Z"/>
    <path class="cls-8" d="m-.85,78.84c.05-.06.1-.12.15-.18.04-.48.42-.5.74-.45.6.1,1.09-.1,1.55-.45.27-.15.57-.17.87-.2.09-.02.18-.03.27-.05.23-.06.34-.26.48-.43.08-.06.17-.1.26-.12.68-.07.92.55,1.47,1.11.1-1.42-.7-3.01,1.15-3.57.49.48.91,1.03,1.55,1.32-.31.53-.99.82-1,1.55.15.36.11.81.66.93.34.08.37.42.31.74-.11.51-.04.97.43,1.28.52.42.9.99,1.53,1.32.46.24.83,1.55.52,1.69-.55.24-.73,1.06-1.55.95.13-.57.23-1.07.73-1.39.25-.16.32-.44.17-.7-.16-.26-.38-.14-.59-.02-.76.43-.85-.35-1.2-.67-.59.06-1.27.44-1.51-.54-.06-.25-.41-.33-.52-.1-.11.22-.96.13-.33.71.15.14.11.42-.02.63-.29.42-.65-.04-.97.08-.06-.05-.12-.1-.18-.14-.88-.12-1.09-.82-1.25-1.52-.11-.44-.23-.88-.75-.78-1.21.24-2.08-.4-2.99-1Z"/>
    <path class="cls-71" d="m-.85,78.84c1.11-.13.91-.35,1.44.85.62-.5,1.32-.06,2.01-.18.29-.05.57.23.53.6-.1.9.39,1.5,1.01,2.03-.08.13-.19.29-.1.42.42.56.18.98-.23,1.39-.07.34-.03.7-.24,1-.08.29-.12.64-.54.57-.35-.06-.34-.36-.34-.62,0-.26.06-.52.06-.78,0-.22-.02-.56-.28-.54-.77.05-.87-.76-1.38-1.01h0c.2-.27.26-.57.02-.83-.4-.43-.83-.84-1.25-1.25-.1.08-.2.12-.2.17,0,.36.3.79-.08,1.06-.4.28-.68-.14-.99-.33-.53-.34-.7-.27-.92.3-.21.53-.09.96.35,1.31.47.38.94.77,1.4,1.18.39.35.41.89.1,1.29-.11.14-.23.2-.37.06-.22-.21-.37-.08-.59.04-.62.34-.62.32-.92-.34-.06-.13-.16-.25-.25-.38-.11-.04-.27-.03-.32-.1-.81-1.14-1.89-2.07-2.54-3.33.31-.22.58.01.85.09.49.14.85.05.89-.52.05-.7.47-.78,1.03-.68.65-.01.93.59,1.4.87.2.11.41.27.6.05.15-.17.02-.36-.1-.51-.26-.35-.17-.9-.9-.98-.59-.06-.02-.69-.25-1.01.47-.21.74.14,1.06.13Z"/>
    <path class="cls-7" d="m3.57,84.94c-.13-.38-.2-.75.24-1,.19,0,.38.03.56-.02.38-.11.63.03.67.38.04.41.44.62.5,1.07-.47.1-.72.99-1.41.32h0c.03-.41-.33-.54-.55-.76Z"/>
    <path class="cls-46" d="m2.36,89.59c-.28-.16-.42-.55-.92-.24-.45.27-.74-.33-1.1-.55.83-.14,1.69-.35,2.02.8Z"/>
    <path class="cls-71" d="m1.1,82.57c-.33.13-.66.21-.98.02-.22-.13-.3-.36-.2-.59.1-.21.31-.14.5-.12.41.05.54.37.68.68h0Z"/>
    <path class="cls-46" d="m-.71,87.92c.05-.06.1-.12.15-.18.65.05.68.64.9,1.06-.68.11-.69-.6-1.05-.88Z"/>
    <path class="cls-46" d="m3.21,88.22c.18.25.37.51.55.76q-.61.07-.55-.76Z"/>
    <path class="cls-46" d="m5.46,89.81c-.61.05-.62-.33-.55-.76.06.05.12.1.17.15.11.22.17.46.38.62Z"/>
    <path class="cls-71" d="m4.13,85.71c-.07.11-.03.33-.22.3-.16-.03-.2-.22-.13-.34.11-.18.24-.02.35.04h0Z"/>
    <path class="cls-46" d="m3.94,89.13c.14-.05.2,0,.17.15-.06-.05-.11-.1-.17-.15Z"/>
    <path class="cls-74" d="m13.19,61.4c.1.28.22.56.31.85.04.14.03.4-.1.4-.6.02-.79.71-1.33.79-.21.05-.44.15-.52-.18.17-.61.98-.8,1-1.5-.13-.46-.34-.89-.1-1.41.21-.45-.08-.89-.41-1.21-.34-.32-.61,0-.9.18-.39.24-.8.2-1.19-.01-.37-.21-.79-.23-1.19-.34-.1-.05-.16-.13-.18-.24.51-.44,1.34-.28,1.76-.92.07-.1.22-.01.29.08.19.27.41.54.71.21.26-.28-.27-.41-.22-.7.72-.46,1.33-.24,1.93.3.35.32.67.68,1.29.42.35-.14.65.24.6.63-.05.34-.15.8-.69.64-.14-.04-.31-.21-.39-.08-.28.4-.52.83-.74,1.26-.13.27-.19.59.09.84Z"/>
    <path class="cls-21" d="m8.58,58.72c.06.05.12.1.18.15.28.12.56.23.84.35.91.4.94.68.18,1.44-.86.16-1.24-.46-1.65-1.03-.1-.17-.15-.34-.16-.54.21-.13.41-.25.62-.38Z"/>
    <path class="cls-57" d="m7.96,59.09c.12.1.24.2.35.29-.29.51-.9.68-1.23,1.15-.34.27-.68.54-1.14.55-.36-.08-.67-.27-.62-.66.09-.63.71-.37,1.08-.55.49-.12.96-.27,1.23-.75.11-.01.21-.02.32-.03Z"/>
    <path class="cls-22" d="m1.65,59.16c.16-.42-.2-.69-.31-1.03-.07-.21-.12-.46.05-.64.19-.2.43-.08.63,0,.39.15.77.41.95.76.29.56.78.77,1.28,1.01.13.39.4.67.73.91.31.36.68.67.89,1.11.03.11.04.22.03.33-.02.11-.06.22-.12.32-.2.25-.47.32-.78.27-.91-.19-1.48-.8-1.93-1.55-.05-.09-.09-.19-.12-.3.06-.77-.42-.88-1.03-.84-.15-.07-.25-.18-.27-.35Z"/>
    <path class="cls-38" d="m5.73,61.4c-.07-.52-.73-.68-.76-1.23.03-.11.04-.23.09-.33.35-.64.35-.64.94-.16.11.09.27.14.4.2-.09.07-.17.16-.27.21q-.75.34-.12.96s0,.09,0,.13c-.06.13-.15.21-.3.22Z"/>
    <path class="cls-57" d="m1.65,59.16c.12.1.23.2.35.29.46.16,1.29-.12,1.05.88h0c.37.87,1.04,1.44,1.91,1.78-.02.58.04,1.22-.84,1.21-.33-.25-1.07-.25-.61-.98-.37-.19-.62-.5-.84-.84-.23-.78-1.02-1.02-1.5-1.56-.38-.42-.34-.69.18-.89.08-.03.2.07.31.11Z"/>
    <path class="cls-52" d="m5.28,82.2c-.11-.5-.31-.95-.74-1.27.25-.22.61.49.69-.16.05-.41.29-.49.63-.42.33.07.67.12.66.6-.01.74.27.61.71.25.32-.26.43,0,.42.31-.04.26-.03.53-.12.77-.18.47-.73.72-1.18.5-.36-.18-.79-.25-1.08-.57Z"/>
    <path class="cls-4" d="m6.23,83.04c.18.25.07.44-.1.6-.29.27-.61.29-.87-.03-.15-.18-.18-.46.04-.59.29-.18.63-.2.93.03Z"/>
    <path class="cls-12" d="m7.64,75.83c-.07-.02-.14-.05-.21-.05-.32-.03-.68.02-.95-.11-.36-.17-.02-.62-.2-.9-.06-.09-.14-.17-.2-.26-.04-.03-.09-.06-.13-.09-.35-.33-.29-.64.02-.97.33-.35.7-.68.85-1.17.09-.31.02-.67.29-.93.35-.17.67-.24.84.24.29.08.56.14.76.42.25.36.71.29.85,0,.51-1.01,1.27-.67,2.03-.5.25.06.46.28.75.18.22.23.58.35.55.76-.57.13-1.03-.41-1.61-.28q.4.6,1.64.61c.16.28.07.56,0,.85-.08.42-.18.79-.73.76-.23-.01-.42.11-.57.28-.48-.48-1.24-.41-1.73-.97-.22-.25-.76.15-1.16.24-.27.06-.19.52-.54.48-.28-.03-.19-.51-.54-.48-.17.63.32,1.26.02,1.89Z"/>
    <path class="cls-16" d="m11.77,74.82c.24.19.49.41.79.12.48-.48.87-.23,1.27.12.31.27.61.51,1.07.57.69.09.24.44.09.7-.25-.09-.49-.18-.74-.26-.37-.13-.7-.21-.89.32-.13.39-.5.44-.84.23-.37-.23-.77-.37-1.05-.78-.51-.74-.56-.7.3-1.01Z"/>
    <path class="cls-37" d="m11.58,63.32c.16.04.33.08.49.12-.1.12-.19.23-.29.35,0,.11.01.21.02.32h0c-.06.68-.6.65-1.07.77-.68.18-1.34.41-1,1.36.07.16.13.31.2.47-.02.15-.04.3-.05.45-.04.37-.21.46-.52.25-.03-.02-.06-.05-.09-.07-.31-.16-.52-.7-.94-.39-.35.25.1.53.13.8.02.28-.12.37-.35.49-.66.36-.65.56-.03.95.03.02.07.02.11.04.18.06.4.15.34.37-.08.3-.4.08-.59.2-.83-.16-1.56-.78-2.48-.58-.45-.51-.12-.93.25-1.22.58-.46.75.48,1.2.41-.6-.31-1.11-.76-1.33-1.48h0c.79-.42,1.54-.93,2.46-1.04.06-.08.12-.15.18-.23.28-.25.43-.56.43-.95.27-1.02,1.37-.54,1.92-1.05.38.02.7-.17,1.03-.33Z"/>
    <path class="cls-6" d="m9.73,66.24c-.18-.21-.68-.47-.46-.63.4-.3.42-.99,1.04-1,.56,0,1.13.07,1.5-.49.15.29.12.57-.09.82h0c.36.44.91.29,1.37.43.39.12.63.28.36.72-.08.32.3.65-.02.95-.25.04-.35-.12-.48-.26-.31-.34-.54-.2-.64.17-.09.33-.09.68-.19,1-.06.21-.24.42-.51.37-.26-.06-.34-.28-.33-.53,0-.07.04-.15.05-.22.11-.99-.33-1.64-1.24-1.8-.32-.05-.28.29-.37.48Z"/>
    <path class="cls-6" d="m11.81,64.11c0-.11-.02-.21-.02-.32,0,.11.02.21.02.32Z"/>
    <path class="cls-35" d="m12.89,72.78c-1.05.53-1.68.4-2.06-.41-.08-.17-.18-.37-.01-.51.1-.08.29-.12.41-.09.58.14,1.16.29,1.63.68,0,.11.02.21.03.32Z"/>
    <path class="cls-44" d="m5.44,69.21c.43-.43.84-.43,1.39-.13.39.22.76.44,1.1.72-.05.06-.1.12-.15.17-.06-.05-.12-.1-.18-.15-.43.15-.91-.14-1.42.2.29.5.86.84.91,1.47-.04.27.17.57-.09.82-.04.03-.07.07-.11.1-.23.17-.46.18-.71.04-.13-.09-.23-.2-.3-.34-.21-.54-.43-1.08-.95-1.4-.08-.06-.15-.14-.2-.24-.11-.57.72-.58.66-1.12.01-.05.02-.1.03-.15Z"/>
    <path class="cls-16" d="m8.53,68.95c-.06-.03-.11-.06-.17-.1.05-.04.09-.09.15-.11.02-.01.08.01.1.04.05.08.02.14-.08.17Z"/>
    <path class="cls-14" d="m7.1,71.5c-.55-.27-.67-.97-1.3-1.23-.29-.12.04-.54.32-.65.52-.21,1.02-.08,1.49.21-.02.26.13.43.32.56.6.41.39.8,0,1.19-.25-.21-.53-.24-.82-.09Z"/>
    <path class="cls-39" d="m-1.23,70.77c.05-.06.1-.12.15-.18.1-.08.21-.09.32-.03,1.09.3,2.06-.42,3.12-.39.35,0,.43-.35.45-.68,0-.24.21-.39.37-.26.33.25.49.33.69-.14.11-.26.47-.2.68.01.18.18.31.42.46.63-.1.27-.79.47-.09.82h0c.36.05.49.31.28.55-.97,1.14-1.44,2.66-2.7,3.57-.78-.24-.54-.77-.38-1.29.5-.32,1.02-.62,1.31-1.34-.61.22-1.03-.69-1.66-.12-.16.59.17,1.11.18,1.68.02,1.06-.3,1.27-1.27.84-.31-.14-.6-.34-.96-.33-.6-.11-1.18.22-1.78.11,0-.11-.02-.21-.03-.32-.02-.11-.01-.21-.03-.32h0c-.03-.28.19-.38.37-.51.82-.63,1.24-1.35.52-2.32Z"/>
    <path class="cls-103" d="m1.81,77.8c-.48.57-.98,1.04-1.82.64-.27-.13-.51.02-.7.22-.21-.17-.41-.34-.45-.63-.06-.46-.34-.58-.77-.67-.72-.14-1.12-.78-1.06-1.49.02-.18-.02-.41.21-.47.25-.06.44.07.56.29.07.13.13.27.19.41.09.21.18.43.47.41.37-.02.38-.31.44-.56.02-.11,0-.22-.01-.33,0-.21.08-.39.25-.52.3-.13.66-.07.94-.27.1,0,.2.02.29.07.35.58,1.12.76,1.3,1.58.11.48.92.28,1.38.48.1.04.16.12.18.23h0c-.03.28-.18.45-.44.53h0c-.33-.09-.65-.05-.96.09Z"/>
    <path class="cls-43" d="m-.69,75.1c-.15.17-.29.35-.44.52-.1-.21-.25-.36-.48-.46-.39-.17-.58-.48-.45-.92.54-.37,1.12-.48,1.76-.31.1-.02.18.01.25.08.1.16.21.32.29.5.03.15.04.29-.13.36h0c-.26.07-.56.04-.79.23Z"/>
    <path class="cls-101" d="m4.11,63.32c.52-.16.51-.77.89-1.05.05,0,.1-.02.15-.02.29-.08.6-.13.62-.53h0c0-.19.1-.3.25-.39.82.47.11,1.11.15,1.65.33.26.69-.05.99.13.19.27.03.62.19.89.1.4.09.76-.32,1-.05,0-.11.02-.16.02-.04,0-.08-.03-.11-.02-.63.16-1.87,1.11-1.98,1.68-.08.36-.22.41-.5.44-.81.07-1.27-.25-1.53-1.08.48-.15.95.66,1.34.15.34-.43-.36-.75-.44-1.19-.02-.11-.04-.22-.05-.34,0,0,0,0,0,0,.44-.11.64.33.99.44.62.2.81.06.93-.74-1.27.11-1.44-.02-1.39-1.05Z"/>
    <path class="cls-39" d="m8.23,65.88c.13.34.16.62-.35.52-.27-.05-.59-.48-.79-.14-.37.64-1.06.37-1.53.66-.17-.18-.46-.3-.3-.63.11-.2.29-.15.48-.11.83.16.83.15.94-.76.02-.14.11-.27.17-.4,0,0,0,0,0,0,.67-.08.57-.51.43-.96-.06-.08-.1-.17-.14-.27-.03-.17,0-.31.13-.43.42-.24.72-.08.98.26.25.38.05.95.53,1.23.35.63-.29.73-.56,1.02h0Z"/>
    <path class="cls-40" d="m3.59,64.67c.29.35.57.7.87,1.03.22.24.24.45.04.7-.23.29-.51.52-.87.32-.33-.18-.6-.45-.9-.69-.26-.8.28-1.09.86-1.37Z"/>
    <path class="cls-39" d="m5.57,66.93c.38.69,1.15,1.02,1.66,1.63-.31.27-.51.03-.65-.05-.83-.46-.82-.48-1.12.37-.04.1-.01.22-.01.33,0,0,0,0,0,0,.02.08,0,.14-.05.16-.05.02-.08.03-.1.01-.14-.12-.28-.26-.44-.37-.4-.27-.56-.62-.35-1.07.24-.54.65-.37,1.06-.23,0-.27,0-.53.01-.78Z"/>
    <path class="cls-60" d="m-.77,70.56c-.11,0-.21.02-.32.03-.23-.07-.48-.09-.67-.27.18-.24.48-.36.68-.56.47-.47.83-.34,1.22.07-.21.36-.64.44-.91.73Z"/>
    <path class="cls-75" d="m2.91,64.4c-.13-.13-.25-.28-.25-.47,0-.32.13-.62.47-.65.4-.03.42.32.46.62.03.23-.04.44-.18.62-.06-.05-.12-.09-.18-.14-.11.01-.21,0-.32.03h0Z"/>
    <path class="cls-77" d="m5.29,69.38c.05-.06.1-.12.15-.17.18.4.11.72-.31.91-.19.09-.28.22-.22.43-.6.08-.59-.4-.72-.75.26-.36.55.1.81-.07,0,0,0,0,0,0,.08,0,.13-.03.15-.08.02-.05.02-.08,0-.1.05-.06.1-.12.14-.18Z"/>
    <path class="cls-43" d="m2.17,68.85c-.19.08-.35,0-.5-.12.22-.19.44-.38.5.12Z"/>
    <path class="cls-39" d="m5.15,69.56c.07.16.02.22-.15.17.05-.06.1-.12.15-.17Z"/>
    <path class="cls-38" d="m2.91,64.4c.11,0,.21-.02.32-.03-.11,0-.21.02-.32.03Z"/>
    <path class="cls-77" d="m3.22,77.19c-.06-.05-.12-.1-.18-.15.18-.7.52-1.43-.56-1.76-.19-.06-.45-.33-.14-.61.52-1.06,1.62-1.74,1.92-2.94.07-.28.35-.47.63-.62.28-.16.17-.36.01-.55.78.28.97.55,1.11,1.53-1.28.24-1.06.22-.92,1.69.09.95.84.29.96.73h0c0,.52-.5.62-.77.91-.2.21-.45.28-.24.72.37.77.43,1.6-.22,2.35-.58-.37-.55-1.53-1.62-1.3Z"/>
    <path class="cls-77" d="m1.81,77.8c.29-.42.61-.45.96-.09-.31.14-.63.17-.96.09Z"/>
    <path class="cls-77" d="m2.78,77.71c.15-.17.29-.35.44-.52.08.36-.07.54-.44.52Z"/>
    <path class="cls-24" d="m2.46,82.71c-.23.23-.43.33-.62.11-.23-.26-.22-.55.06-.77.23-.18.5-.18.69.05.23.28-.04.46-.13.61Z"/>
    <path class="cls-55" d="m8.21,63.78c-.29-.27-.59-.45-.99-.24,0,.11,0,.21.03.32h0c.03.09.01.15-.04.17-.05.02-.09.02-.11,0-.34-.31-.13-.57.09-.82,0-.11.05-.2.14-.26.15-.07.3-.1.46-.1.21-.03.48.1.61-.17.08-.16-.06-.29-.21-.33-1.02-.31-1.1-1.19-1.25-2.03.33-.5.76-.85,1.38-.93.36.52.67,1.1,1.4,1.17.34-.1.51-.39.74-.63.58-.61,1.06-.53,1.47.19.04.15.06.31.08.46-.04.65.7.7.9,1.16-.05.85-.79,1.13-1.32,1.58-.27.81-.28.81-.94.4-.8.32-1.61.66-2.43.05Z"/>
    <path class="cls-42" d="m11.79,60.22c-.61-.58-.59-.56-1.2-.1-.26.19-.5.47-.88.44.54-.79.55-.82-.29-1.03-.4-.1-.53-.36-.67-.67.45-.19.86-.17,1.27.15.43.34.85.44,1.2-.19.24-.42.61-.31.97-.06.35.24.34.66.53.96.22.36.16.62-.08.91-.4.47.35.69.25,1.1-.27-.13-.55-.23-.8-.39-.29-.18-.56-.41-.29-.81.04,0,.08,0,.12,0,.09.02.16-.01.18-.1.04-.16-.1-.17-.21-.19-.04-.01-.08-.02-.13-.03Z"/>
    <path class="cls-41" d="m7.34,63.04c-.05.06-.1.11-.15.17-.53.17-1.05.35-1.65.03.26-.63.95-1.12.52-1.87-.1-.1,0-.22-.03-.32h0c.21-.36.64-.44.91-.73.22.59.91.96.68,1.74.4-.02.69-.11.91-.03.38.16.36.56.29.89-.1.44-.4.36-.71.21-.14-.06-.29-.08-.44-.12-.11,0-.21.02-.32.03Z"/>
    <path class="cls-38" d="m3.04,60.34c-.14-.28-.07-.81-.69-.45-.21.12-.37-.17-.36-.43.27-.29.58-.36.91-.11.37.28.41.62.14.99Z"/>
    <path class="cls-38" d="m5,62.27c-.85-.45-1.81-.78-1.95-1.94.64.65,1.18,1.43,2.1,1.76.01.08,0,.13-.05.16-.05.03-.08.03-.09.02h0Z"/>
    <path class="cls-57" d="m5,62.27c.05-.06.1-.12.15-.18.22-.1.46-.17.62-.37-.02.51-.16.84-.76.55Z"/>
    <path class="cls-57" d="m6.03,61.05c0,.11.02.22.03.32-.1.12-.2.23-.29.35-.01-.11-.02-.21-.03-.32.1-.12.2-.23.3-.35Z"/>
    <path class="cls-8" d="m6.07,74.51c-.6-.23-.81.44-1.24.58-.32-.22-.09-.43-.01-.61.19-.42.2-.7-.24-1.01-.27-.19-.48-.61.04-.91.36-.21.06-.65.25-.96.47-.05.64.65,1.15.49.12.1.23.2.35.29.04.07.03.13-.01.19.05.19.14.03.22.03.16-.08.25-.25.44-.27,0,0,0,0,0,0,.05.57-.38.91-.73,1.17-.44.33-.33.65-.22,1.02Z"/>
    <path class="cls-58" d="m8.21,63.78c.81.02,1.62.14,2.43-.05-.3.38-.67.63-1.18.55-.46-.07-.6.21-.67.58-.23.21-.46.31-.55-.1-.08-.32-.12-.65-.03-.98Z"/>
    <path class="cls-53" d="m11.72,64.93s-.09.04-.1.04c-.05-.06-.01-.08.1-.04h0Z"/>
    <path class="cls-77" d="m6.22,72.55c.05-.06.1-.12.14-.17.21-.02.43-.04.64-.06-.15.17-.29.35-.44.52-.2,0-.33-.08-.35-.29Z"/>
    <path class="cls-56" d="m2.35,74.67c-.03.41.29.45.57.57,1.16.5,1.16.53.34,1.54-.07.09-.14.17-.22.26-.56.34-1.1-.21-1.68-.05-.17.05-.22-.33-.14-.56.07-.2.24-.53-.09-.53-.74,0-.64-.75-1.03-1.03,0-.11-.02-.21-.03-.32,0-.19-.2-.28-.2-.47-.06-.05-.12-.1-.17-.15.11-.11.3-.26.37-.15.36.49,1.06.31,1.43.81.08-.59.41-1.1-.05-1.68-.17-.22,0-.71,0-1.07.88.2.65.97.78,1.55-.08.44-.05.87.11,1.29Z"/>
    <path class="cls-59" d="m2.24,73.38c-.27-.21-.5-.44-.43-.82.07-.35-.12-.55-.36-.73-.05-.2,0-.38.18-.49.26-.16.55-.12.73.08.44.49.89.44,1.38.02,0,1.15-.65,1.94-1.51,1.94Z"/>
    <path class="cls-61" d="m-.59,75.62c.57.09.67.66.99.99.17.18.29.38,0,.55-.23.14-.5.27-.71,0-.34-.45-.64-.93-.29-1.54Z"/>
    <path class="cls-73" d="m-.69,75.1c.11-.61.2-.63.79-.23-.21.62-.23.62-.79.23Z"/>
    <path class="cls-39" d="m-.13,74.08c.14.12.25.26.2.47-.14-.12-.25-.26-.2-.47Z"/>
    <path class="cls-58" d="m7.1,64.04c.05-.06.1-.12.15-.17.2.18.35.41.36.66.01.5-.2.77-.74.51.27-.29.44-.59.24-.99Z"/>
    <path class="cls-58" d="m8.23,65.88c-.14.11-.28.28-.45.08-.08-.09-.02-.23.07-.29.25-.17.28.1.38.21h0Z"/>
    <path class="cls-58" d="m7.25,63.86c0-.11-.02-.21-.03-.32,0,.11.02.21.03.32Z"/>
    <path class="cls-42" d="m11.82,60.54c0-.11-.02-.21-.03-.32,0,0,0,0,0,0,.19.09.2.2.03.32h0Z"/>
    <path class="cls-101" d="m7.34,63.04c.11,0,.21-.02.32-.03-.11,0-.21.02-.32.03Z"/>
    <path class="cls-74" d="m11.82,60.54c0-.11-.02-.21-.03-.32.18-.17.31-.46.63-.29.08.04.17.2.14.27-.09.27-.19.57-.54.58-.07,0-.14-.16-.21-.24Z"/>
    <path class="cls-44" d="m6.22,72.55c.12.1.23.2.35.29-.16.08-.33.12-.51.07-.14-.04-.33-.12-.28-.26.06-.21.28-.14.45-.11Z"/>
  </g>
  <g class="cls-1">
    <path class="cls-70" d="m379.7,51.79c-1.22,1.3-2.06,2.84-3.58,3.85-1.13.38-1.49,1.63-2.73,1.65-.79.07-1.49.26-1.41,1.31-.07,1.01-1.61.24-2.15,1.05-1.08.81-2.77.03-1.77-1.34,1.12-1.22,2.31-2.34,3.21-3.75.65-.76.65-1-.23-1.37-.6-.25-.67-.68-.48-1.18.41-1.31.36-2.85-.17-4.07-2.16-1.89,1.08-5.92-.11-7.71-.72-.82-.92-1.85-1.11-2.85-.22-1.55-3.85-1.61-1.87-3.67q1.1-1.1.46-2.6c1.1-4.09,4.59-3.75,4.18-5.8-.44-1.25-2.35-.89-3.37-1.54-.19-.05-.43-.13-.49-.29-.39-1.04-1.46-1.18-2.23-1.71-2.18-1.12-1.56,1.26-2.27,2.32-.94,1.07-2.19-.08-3.28.54-1.53.97-3.91-1.13-2.37-2.36,2.32-1.22-.51-3.78,1.54-4.9.39-.28,2.03-1.83.97-2.08-1.76-.28-3.29-1.32-5.11-.76-1.11.16-2.28-1.59-3.06-.04-.93,1.52-2.66-.99-3.12,1.19-.92,3.1-3.06,1.49-3.21,3.5-.26,1.38-.25,1.4-1.67,1.59-.46.06-.75.31-1.01.67-1.34,1.82-3.39,3-4.38,5.11-.78,1.5.2,3.57-1.57,4.57-.97.63.55,1.62-.31,2.43-.51.77-.47,1.75-1.05,2.56-.44.23-.53.6-.65.96-.2.59-.33,1.23-1.02,1.59-.67-.24-.43-.68-.25-1.02.35-.67.25-1.27-.28-1.73-.62-.54-.58-1.41-1.18-2.01-.53-.64-.4-1.12.25-1.46.35-.18.47-.41.32-.78-.15-1.4,1.53-2.55,2.5-3.41.27-.17.3-.39.28-.66-.1-2.21,1.54-3.48,2.8-5,1.02-.47,1.79-1.06,1.98-2.26.61-.33.8-1.08,1.56-1.22.73-.06,1.1-.47,1.56-.92,1.76-1.55,3.02-3.38,4.38-5.32.1-.33.41-.5.78-.47,4.57-.11,9.18-.32,13.46,1.57,1.54.89,4.31,1.7,4.61,3.68.05.8.43,1.23,1.28,1.27,1.45.2,3.37.92,3.71,2.5.19,1.91,2.09,2.52,3.06,3.97.65.76-.44,2.78-1.4,2.05-.82-.44-2.19.89-1.73,1.67.94,1.49.26,2.98.1,4.5-.13,1.24-.53,2.51.5,3.7,1.08,1.11-.32,2.99.57,4.14.56.84.21,2.04,1.3,2.58.41.26.45.77.68,1.15.38,1.19,1.87,1.78,1.83,3.07-.32,3.22,4.62.71,2.75,3.51Z"/>
    <path class="cls-69" d="m372.01,28.18c.77-2.38,2.31,0,2.55-1.02.1-.45.55-.73.56-1.21.01-.53-.57-.56-.77-.93-.28-.52-.74-.88-1.27-1.15-1.56-.87-.76-3.2-2.53-3.89-1.06-.94-3.83-.36-3.73-1.92.11-1.46-.91-1.88-1.91-2.3-1.61-.76-1.7-1.68-3.7-1.79-1.82-.93-3.96-.86-5.79-1.56-.97.16-1.97.04-2.9.35-1.06-.41-2.09.16-3.15-.01-1.62-.58-.72,1.58-2.04,1.75-1.23.79-.96,2.78-2.84,3.25-.96.69-.4,1.57-2.09,1.63-.14-.07-.22-.2-.17-.25.94-.97.25-1.87-.12-2.78-.32-.73.58-1.37.37-2.18.27-1.21,1.14-1.87,2.05-2.41.55-.33.99-.66,1.28-1.23.56-1.73,2.49.34,4.72-.3,4.1-1.88,8.01,1.08,11.83,1.83,1.93-.53,1.35,2.32,3.25,2.35.72.12,1.4.63,2.1.95,1.22.77.7,3.12,2.74,2.37.81-.23,1.48.51,2.27.21.66-.25,1.19-.03,1.67.45,3.12,2.17,1.68,4.91,3.92,4.58.56-.04,1.66.77,1.92,1.42.15.38.4,1.65.89.81.61-1.07.63-1.08,1.79-.65.85.35,1.33-.48,2.18-.43,1.7,2.31.36,6.37.77,9.14-.33,5.91-4.17.87-2.15,5.7.2.53-.04.86-.58.81-1.17-.11-2.24.28-3.31.63-1.85.59-1.84-2.11-3.44-2.55-.92-.47-.95-1.65-1.56-2.4-.32-.62-.97-1.21-1.19-1.85.1-1.18-.7-2.2-.6-3.39.07-.8-.6-1.32-1-2Z"/>
    <path class="cls-66" d="m374.67,6.54c1,1.36,3.08,1.81,3.53,3.51-3.49,4.04-.31,2.75-5.99,5.53-1.24.77-1.02-.85-1.83-1.32-1.96-.68-1.01-5-3.36-3.78-.84.6-1.57,0-2.39-.08-1.64.25-3.6.2-5.06-.6-1.18-.41-2.5.22-3.68-.71-1.19-.87-2.61-.71-3.95-.1-4.9-.38-6.6-1.17-7.35-6.33,3.53-1.99,7.7-1.36,11.63-1.34.59.46,1.37,0,2.02.31.37.26.65.05,1.08.11.52.31,1.06.04,1.59.32.69.29,1.41.84,2.18.69.59-.07.95.58,1.55.4.46.04,1,.3,1.34.6.23.49.66.35,1.07.44.36.04.63.25.96.37.33-.05.36.27.59.38.31,0,.53.22.81.31,1.01-.06,2.02-.15,2.98.25.23.38.6.27.94.4.41.1.56.54,1.02.48.14.03.21.06.3.17Z"/>
    <path class="cls-68" d="m344.6,2.64c.06.25.04.49.23.66.65.48.21,1.27.64,1.85.82,1.99,1.43,2.74,3.48,3.32,1.46-.37,2.92.78,4.3-.2.68-.44,1.24.31,1.94.24.38-.02.75.09.97.37.7.87,1.65.67,2.5.53.59-.1,1-.11,1.33.42.17.27.44.23.69.24,1.27-.17,2.45.66,3.68.06.92-.28,1.65,1.04,2.51.15.9-.67,2.17-.41,2.07.96-.03,2.56,2.39,2.38,2.38,4.46,7.7-3.15,2.79-3.18,7.09-5.7,3.01,2.87,6.78,8.73,5.69,12.97-.16.71,1.72.24,1.16,1.22-.45-.01-.7.3-1.01.44-1.45,1.12-2.19-1.3-2.89.52.02,1.14-1.03,1-1.18,0-.25-.43-.07-1.16-.68-1.28-.64-.12-.73-1.18-1.48-.52-.32.25-.67.16-.92-.2-1.56-2.94.34-1.62-3.1-4.78-.7-.9-1.43.36-2.2-.14-.55-.27-1.06-.49-1.71-.06-.67.4-1.77-.59-1.78-1.42-.09-1.32-1.27-1.23-2.14-1.77-.57-.77-1.79-.03-2.1-1.06-.39-.55-.43-2-1.35-1.66-1.95.45-3.43-1.44-5.38-1.63-1.04-.27-2.19-.13-3.14-.79-1.48-.47-3.15,1.06-4.65.75-.25-.11-.53-.19-.76-.1-1.06.71-2.02-1.43-2.64-.09-.58,1.8-2.87,1.71-3.44,3.7-1.2-.19-.47-1.77.43-2.07,1.68-.88.35-2.32.96-3.6.34-.57.16-1.02-.38-1.28-1.16-.55-1.93-1.57-2.96-2.39-.08-.84,3.04-1.93,3.82-2.09Z"/>
    <path class="cls-109" d="m329.58,52.01c-3.93-6.52-6.39-14.3-5.36-21.95.82-.24,1.38.25,1.93.66.78.63-.76,1.55.04,2.19.39.31.85.4,1.36.19,2.39-1.25,2.6,2.45,4.69,1.57.27.65-.16,1.01-.51,1.37-.61.51-.16.8.06,1.32-.38,1.26.53,2.49.08,3.75-.32.88.33,1.69.22,2.56-.02.18.26.26.44.33,1.02.33.94,1.71,2.1,1.97.35.13.39.59.37.94-.41,1.7,2.16,1.92,1.59,3.53.09,2.01,2.24,3.55,1.87,5.85.68,1.6,1.88,3.16.16,4.77-4.08-1.68-6.59-5.59-9.05-9.04Z"/>
    <path class="cls-111" d="m367.9,30.96c1.04,1.95.97,1.57-.6,3.1-.96.93.37,1.85,1.27,2.07.65.11.61.39.8,1.14.23.91.25,1.96,1,2.66,1.39,1.51-.81,4.34-.48,6.44-.27,1.04.83,1.06.97,1.83.91,4.04-1.46,4.34.98,4.97.32.15.41.39.22.71-.39.94-1.4,1.3-1.57,2.35-.13.39-.38.67-.78.81-.95.3-2.83,2.71-.9,2.73,1.08.04,1.44-1.41,2.58-.81.9.13-.1-1.03.44-1.37.94-.92,2.52-.16,3.12-1.59.2-.36.67-.34,1.09-.5.47.77-1.65,2.03-2.21,2.51-2.48,2.17-5.59,5.54-9.05,5.78-.61-.56-.74-1.52-1.75-1.39-1.06.19-.34,1.62-2.22,2.41-3.25.72-2.11-1.37-4.56-2.7-1.29-.84-.53-2.18-1.29-3.42.47-1.54,1.81-2.34,2.97-1.03,1.94,2.04,4.45-1.45,6,.52.46,1.23-2.71,1.31,1.48,2.31,1.29.04.74-1.85,1.52-2.53.53-.72-.53-.65-.99-.68-3-.59.37-3.17-1.03-4-1.47-.59-.08-2.28.88-1.11.6.85,2.6.28,2.02-.79-.7-1.27-.88-2.58-.25-3.96.24-.53.32-1.16.28-1.71-.41-2.65,2.71-3.94,1.12-6.37.09-2.01-1.86-1.94-2.53-3.26-.77-3.54-5.21-4.71.84-6.13.63.11.38.65.63,1.01Z"/>
    <path class="cls-107" d="m332.31,34.71c-.7.07-1.39,1.15-1.81.07-.37-.99-1.68-2.15-2.72-1.57-.47.37-1.4.31-1.85-.06-1.24-1.54,2.22-2.18-1.86-3.07-.53-2.13.85-4.02,1.39-6,1.73-.82,1.77.92,2.71,1.42,1.23-.24,1.84-1.59,2.92-2.14,2.02-.62,2.69.79,4.19-1.92.88-1.61,3.12-1.29,3.88-3.08.9-1.35,1.3-.02,2.18-2.76.26-.13.46-.13.72.01.26,1.12,1.62,2.29.52,3.2-.11.11-.17.27-.26.47-.84-.02-.6,1.11-1.49,1.04-2.24.48-1.91,3.44-3.78,4.47-.78.31-.41,1.11-.67,1.69-.76.56.39,1.87-.51,1.98-.41,0-.63.2-.83.54-.44.91-2.18,1.57-1.63,2.75.31.49.22.61-.33.81-1.38.22.24,1.58-.79,2.13Z"/>
    <path class="cls-106" d="m371.96,28.11c2.16,1.35.69,2.39,1.7,3.72.22.31.13.69.1,1.04.1,1.46,1.67,2.34,1.99,3.8.19.53.49.98,1.08,1.15.69.17,1.04.7,1.3,1.32.67,2.1,2.49.46,4,.3.49-.17.96.33,1.4.02.19-.18.03-.38-.07-.52-.31-.43-.26-1-.56-1.42-.3-.49-.02-1.66.75-1.32.87.32,1.26-.32,1.73-.91.65,1.89-.5,4.21-1.29,5.92-1.38,2.47-1.91,5.19-2.73,7.86-.37.49-.47,1.16-1.1,1.53-1.85,0-3.99-.33-3.56-2.71,0-.23-.01-.45-.25-.59-1.29-.67-1.32-2.21-2.23-3.12-1.42-.43-.54-2.07-1.5-2.78-.44-.27-.32-.72-.17-1.13.32-.88-.04-1.77.03-2.65,0-.1-.12-.27-.21-.3-1.02-.28-.73-1.07-.65-1.74.23-.69-.47-1.27-.02-1.92.51-1.02.48-2.32.52-3.47-.07-.75-1.52-1.6-.25-2.1Z"/>
    <path class="cls-64" d="m341.31,15.62c-.09.84.02,2.03-1.04,2.18-.22.03-.53-.05-.61.2-1.37,2.99-3.11,1.7-4.16,3.58-2.22,4.03-3.52-.08-5.83,3.44-.44.58-1.09.09-1.26,1.13-1.17-.63-1.1-2.39-2.84-2.12-.31-.66.61-.94.65-1.51.21-1.06.77-1.87,1.18-2.86,1.2-2.35,1.83-5.1,3.59-7.07.44-.57.85-1.43,1.59-1.68,1.77,1.15,4.01,1.37,5.56,2.99.82.85,2.14,1,3.16,1.74Z"/>
    <path class="cls-105" d="m332.23,34.78c.27-.29.25-.63.39-.97.94-.03.41,1.42,1.2,1.81,1.57,1.52,0,1.78.31,2.94.51,1.65,1.89,2.85,1.97,4.62.02.47.35.81.76,1.07,1.06.7,1.53,2.06,2.42,2.91,2.02,2.02.88,4.57,1.59,6.92.25.61-.18,1.38-.33,2.06-.13.63-.08,1.12.27,1.63,1.04,1.08,1.38,5.48-.95,4.38-.47-.37-1.39-.48-1.44-1.16.72-.32,1.34-2.75.64-3.17-1.45-.93-.31-2.8-1.38-3.98-.34-.72-.48-1.52-1.1-2.11-.37-.44-.59-.89-.2-1.47.59-1.41-2.21-1.19-1.63-3.58,0-.42-.17-.7-.62-.69-1.29.03-.56-1.84-1.9-1.78-.52-.05-.68-.29-.52-.8.35-.89-.72-1.6-.06-2.47.76-1.01-.81-1.72-.18-2.68.33-.56.24-.77-.25-1.23-.98-.78,1.03-1.23,1-2.24Z"/>
    <path class="cls-111" d="m340.95,62.36c.82-2.76.34-3.21-.91-5.46.47-.71.14-1.61.57-2.31.33-1.09-1.24-1.89-.23-3.21.39-.64.08-1.32-.28-1.88-.73-.75-.16-2.18-1.35-2.48-1.09-.58-.89-2.28-2.27-2.71-.58-.29-.72-.9-.71-1.4.03-1.7-1.67-2.48-1.59-4.23,1.02-.68.49-2.1,1.48-2.59.32,1.38.77,2.8,1.7,3.86-.12,1.02.91,1.54,1.06,2.47.11.68.68.77,1.35.69.92.26-.38,1.55,1.08,1,2.16.32.08,3.1,2.27,3.29.51.05.65.57.3.96-.8.9-.73,2.11-1.2,3.12-.24.51.08.85.5,1.2.24.32.43.65.37.95-.23,1.13.29,2.22.16,3.33.08,2.34,3.56,2.36,3.95,4.62.41,1.84.35,2.03-.92,2.84-1.03.01-4.89-1.23-5.33-2.04Z"/>
    <path class="cls-66" d="m341.43,15.68c-2.56-.38-4.26-2.8-6.71-3.65-1.17.52-1.35-.79-2.25-1-.15-.96,1.14-1.45,1.64-2.13.98-1.04,2-1.9,3.31-2.52.6-.58,1.45-.82,2.15-1.27.34-.24.63-.73,1.11-.54,1.16.44,1.58,1.57,2.61,2.03.84.39,1.87.96,1.02,1.92-.86,1.42,1.53,2.06-1.32,3.89-1.82.52,1.32,3.65-1.56,3.28Z"/>
    <path class="cls-105" d="m355.07,58.54c1.3,1.77-.02,2.18.95,3.02.91.78,1.86,1.23,2.27,2.48.38.82,1.58.69,2.41.56-.35,1.92-5.18,1.14-6.84,1.51-.91-.27-1.72-.39-2.68-.43-1.06-1.47-.09-3.64-.31-5.34-.04-1.23.66-1.95,1.85-1.77.79.12,1.52-.36,2.35-.04Z"/>
    <path class="cls-27" d="m355.14,58.53c-1.42.72-4.37-.59-3.99,1.96.14,1.65-.39,3.31-.08,4.99-1.58.03-3.29-.51-4.81-1.02.62-.84,1.48-1.43.73-2.69.63-1.21,1.81-.77,2.62.08.35-1.4.25-2.84,1.16-4.03,1.4-.34,1.18-2.44,2.53-2.47,1.34.61,2.1-1.18,3.56-.51.75.17,1.69.32,2.1,1.08-.15.85-1.07.56-1.66.62-1.64-.18-1.61.65-2.15,1.99Z"/>
    <path class="cls-97" d="m353.84,66.18c.59-.75,2.15-.34,3.07-.48,1.45.2,2.8-.32,4.01-1.1,1.5-1.43,3.41-.76,5.23-1.15.16-.06.23-.04.27.1-.82.79-1.95.58-2.95.78-1.56.14-2.71,1.26-4.15,1.71-.59.22-1.2.29-1.88.17-1.18-.15-2.4.42-3.59-.03Z"/>
    <path class="cls-110" d="m344.73,2.65c-.57.16-.94.64-1.57.5,1.9-1.77,4.97-2.07,7.47-2.24.96.32,2.04-.34,2.96-.06.46.31.99.26,1.52.47-.04.38-.27.38-.54.27-3.27-.79-6.6.1-9.83,1.07Z"/>
    <path class="cls-84" d="m325.4,42.63c.98,2.28,1.99,4.37,2.74,6.78-1.18-1.84-2.64-4.62-2.74-6.78Z"/>
    <path class="cls-15" d="m366.47,63.62c-.09-.06-.12-.1-.21-.16,1.21-.79,2.46-1.56,3.78-2.33-.09.83-2.74,2.42-3.57,2.49Z"/>
    <path class="cls-94" d="m338.38,60.9c.13.17.2.31.27.5-.16.07-.3,0-.43-.09-.94-.8-2.19-1.21-2.9-2.23,1.2.27,1.99,1.23,3.06,1.82Z"/>
    <path class="cls-97" d="m340.9,62.28c.77.88,1.99.48,2.8,1.39-1.11-.17-2.53-.45-3.36-1.36.2-.04.34-.04.56-.03Z"/>
    <path class="cls-84" d="m331.29,54.56c.94.41,1.5,1.21,1.91,2.21-.9-.35-1.28-1.44-1.91-2.21Z"/>
    <path class="cls-67" d="m340.8,4.54c-.19.06-.33.06-.55.06.64-.62,1.41-1.11,2.41-1.32-.11.84-1.33.61-1.86,1.27Z"/>
    <path class="cls-100" d="m332.7,10.22c.05.68-1.01,1.71-1.56,2.15.29-.83.82-1.53,1.56-2.15Z"/>
    <path class="cls-80" d="m348.59,65.25c.85-.55,1.66.14,2.49.32.02.04.05.07.03.15-.85-.07-1.69-.12-2.52-.47Z"/>
    <path class="cls-97" d="m324.71,25.95c.04.87-.42,1.67-.68,2.56-.1-.89.14-1.74.68-2.56Z"/>
    <path class="cls-97" d="m328.19,49.71c.82.14.86,1.37,1.3,2.05-.71-.44-.97-1.23-1.3-2.05Z"/>
    <path class="cls-93" d="m324.53,39.8c.47.46.77,1.06.67,1.88-.7-.28-.5-1.21-.67-1.88Z"/>
    <path class="cls-93" d="m326.53,21.32c.12.58-.03,1.86-.79,1.96.09-.69.53-1.27.79-1.96Z"/>
    <path class="cls-100" d="m328.44,17.22c.05.65-.35,1.52-.82,1.98.05-.75.44-1.34.82-1.98Z"/>
    <path class="cls-97" d="m324.05,36.7c.25.48.39,1.02.35,1.67-.42-.43-.5-1.01-.35-1.67Z"/>
    <path class="cls-15" d="m370.33,61.08c.24-.5.68-.84,1.25-1.12-.13.62-.59.95-1.25,1.12Z"/>
    <path class="cls-110" d="m360.93,2.02c-.48,0-1.03.27-1.52-.2.49-.09,1.02-.18,1.52.2Z"/>
    <path class="cls-70" d="m363.14,2.82c-.37.3-.69.35-1.01-.07,0-.35,1.12-.33,1.01.07Z"/>
    <path class="cls-67" d="m367.03,4.29c-.44,0-.87.02-1.2-.39.07-.14.17-.17.35-.13.31.23,1.06-.08.85.51Z"/>
    <path class="cls-70" d="m364.68,3.18c-.32.45-.8.24-.85-.26.23.01.79-.07.85.26Z"/>
    <path class="cls-108" d="m369.85,5.17c-.1.51-.97.08-1.17-.17.4-.29.75.03,1.17.17Z"/>
    <path class="cls-97" d="m373.06,58.77c.13-.27.26-.6.66-.75.05.42-.1.74-.66.75Z"/>
    <path class="cls-110" d="m357.03,1.44c-.19.48-.22.47-.73-.06.23-.14.46-.09.73.06Z"/>
    <path class="cls-108" d="m334.87,8.1c.03.4-.23.62-.65.76,0-.37.27-.59.65-.76Z"/>
    <path class="cls-93" d="m327.11,20.34c.06.31-.09.55-.37.79-.16-.34-.06-.62.37-.79Z"/>
    <path class="cls-63" d="m373.41,5.86c-.38.29-.57.25-.97-.25.26-.11.83-.03.97.25Z"/>
    <path class="cls-108" d="m329.06,15.82c-.01.4-.08.75-.41,1.03-.06-.27.11-.9.41-1.03Z"/>
    <path class="cls-108" d="m367.06,4.36c-.08-.13-.08-.23-.09-.39.3-.13.53-.09.62.33-.15.07-.3.08-.53.06Z"/>
    <path class="cls-108" d="m336.08,7.17c-.04.43-.5.34-.83.56-.05-.54.47-.38.83-.56Z"/>
    <path class="cls-97" d="m323.98,33.59c.35.12.29.37.15.68-.28-.14-.24-.39-.15-.68Z"/>
    <path class="cls-108" d="m337.26,6.41c-.07.33-.34.44-.72.49.05-.35.35-.42.72-.49Z"/>
    <path class="cls-67" d="m363.83,2.82c.04.08.04.11.04.19-.21-.01-.43-.07-.71-.14-.07-.07-.07-.14-.09-.25.28-.16.49.04.76.19Z"/>
    <path class="cls-70" d="m339.57,5.07c-.04.35-.34.43-.72.49.07-.32.37-.4.72-.49Z"/>
    <path class="cls-108" d="m330.02,13.93c.05.31-.08.58-.42.78-.04-.31.07-.58.42-.78Z"/>
    <path class="cls-97" d="m323.99,30.1c.07-.04.11-.04.19-.04.06.23.11.47-.08.72-.24-.16-.21-.4-.11-.68Z"/>
    <path class="cls-108" d="m338.05,5.85c-.06.24-.2.43-.52.5-.01-.3.13-.5.52-.5Z"/>
    <path class="cls-97" d="m374.01,57.96c-.01-.28.13-.47.48-.54.03.29-.11.49-.48.54Z"/>
    <path class="cls-97" d="m329.54,52.03c.29,0,.49.14.49.53-.27-.03-.45-.19-.49-.53Z"/>
    <path class="cls-108" d="m362.28,2.47c.01.11-.03.15-.12.2-.18-.06-.65-.05-.65-.33.28-.03.52-.08.77.14Z"/>
    <path class="cls-108" d="m371.68,5.26c-.13.11-.25.1-.4-.06.18-.5.29-.25.4.06Z"/>
    <path class="cls-94" d="m333.87,57.64c.19,0,.47-.07.41.31-.21.01-.33-.09-.41-.31Z"/>
    <path class="cls-80" d="m340.33,62.25c.06.02.06.11.06.16-.22.06-.45.08-.58-.24.14-.02.3.02.52.09Z"/>
    <path class="cls-108" d="m373.36,5.73c-.15.05-.33.08-.52-.09.19-.33.34-.1.52.09Z"/>
    <path class="cls-63" d="m374.39,6.49c-.25.04-.5.09-.59-.28.18-.14.59.02.59.28Z"/>
    <path class="cls-100" d="m329.13,15.81c-.03.06-.11.06-.15.06-.03-.22-.04-.45.28-.57.08.17-.02.31-.13.52Z"/>
    <path class="cls-100" d="m374.42,6.55c-.11-.1-.16-.19-.24-.32.21-.06.45-.08.52.3-.08.06-.15.05-.28.02Z"/>
    <path class="cls-93" d="m330.96,12.54c.12.26-.03.39-.35.45-.07-.23.13-.32.35-.45Z"/>
    <path class="cls-108" d="m368.48,4.78c-.15.05-.27,0-.38-.17.17-.17.32-.15.38.17Z"/>
    <path class="cls-108" d="m366.23,3.75c-.07.07-.17.08-.34.09-.09-.06-.11-.13-.13-.24.18-.12.34-.11.47.15Z"/>
    <path class="cls-67" d="m364.72,3.25c-.07-.06-.07-.11-.1-.2.17-.16.3-.11.42.13-.07.07-.16.07-.32.07Z"/>
    <path class="cls-110" d="m361.5,2.24c.04.08.04.11.04.2-.16.04-.31,0-.41-.21.1-.11.22-.1.37.01Z"/>
    <path class="cls-110" d="m358.77,1.69c.13.31-.29.43-.32.06.08-.06.17-.07.32-.06Z"/>
    <path class="cls-93" d="m327.53,19.21s.13-.04.17-.04c.05.17,0,.3-.21.4-.09-.1-.07-.22.04-.36Z"/>
    <path class="cls-97" d="m325.12,25.17c.12.16.07.3-.15.42-.09-.15-.05-.29.15-.42Z"/>
    <path class="cls-93" d="m330.4,13.34c.1.16.03.3-.19.41-.1-.16-.03-.3.19-.41Z"/>
    <path class="cls-108" d="m333.39,9.53c.01.17-.09.28-.32.32-.04-.19.05-.32.32-.32Z"/>
    <path class="cls-108" d="m333.91,9.07c.06.18-.02.32-.28.36-.04-.17.06-.29.28-.36Z"/>
    <path class="cls-97" d="m323.96,32c.18.03.33.11.14.35-.14-.06-.18-.17-.14-.35Z"/>
    <path class="cls-84" d="m330.53,53.58c.18-.03.3.06.33.31-.18.03-.3-.06-.33-.31Z"/>
    <path class="cls-84" d="m330.14,53c.18-.03.31.06.33.32-.18.02-.3-.07-.33-.32Z"/>
    <path class="cls-93" d="m325.44,42.61c-.13.18-.42-.12-.23-.3.15.03.2.12.23.3Z"/>
    <path class="cls-108" d="m358.27,1.59c-.1.1-.22.11-.37,0,.09-.28.22-.21.37,0Z"/>
    <path class="cls-65" d="m340.04,43.18c-1.11.34-1.86.24-1.97-1.09.12-.82-1.21-.41-.85-1.29.4-.85-.55-1.08-.86-1.62-.1-1.43-1.1-1.42-.63-3.04.62-.91.46-1.98,1.12-2.82.29-.41.28-.73-.02-1.13-.5-.66-.44-.78.29-1.21,1.61-.86.86-2.71,1.32-4.12.76-1.84,2.24-3.09,3.67-4.4.67-.57,1.02-1.89,1.99-1.93.68.02,1.56.13,1.52-.81.26-3.03.85-1.23,2.18-2.35,1.16-.72,1.01-3.72,2.71-2.85,2.01,1.39,1.24-1.84,3.34-.79,1.51,1.39,2.59-.16,3.8.4.66.64,1.52.59,2.32.78,2.38.44.96,1.05.12,2.2-.07,1.04-1.22.37-1.24,1.18,0,.13-.04.29.02.38.46.61.48,3.59-.44,3.64-2.08.7.59,3.31,1.87,2.08.85-.79,1.61.3,2.54-.09,1.01-.26.87-1.01.87-1.87.03-.98,1.6-1.73,2.23-.92.47.81,1.83.27,1.98,1.29.11.48.41.74.85.82.94.54,3.43.36,3.47,1.6.7,2.3-3.03,2.21-3.27,4.09.19.99-.94.85-.99,1.66-.6.02-.26-.54-.53-.85-1.2-1.12.29-2.44,1.05-3.29.79-.78.3-1.13-.49-1.53-.81-.76-1.61-.93-2.52-.1-.96.82-3.63-.25-3.55,1.73.08,1.04-.33,1.34-1.35,1.1-1.01-.52-3.1.02-3.32-1.36-.32-1.64-1.55-2.97-.79-4.71,1.12-1.97-.53-5.25-2.92-4.18-1.21,1.09-2.1-1.52-3.07,0-1.65,3.31-2.76,1.03-4.01,4.03-1.37.07-2.33,1.06-3.56,1.31-.34.07-.71.35-.82.64-.99,2.09-3.69,3.15-2.61,5.89-.74,2.79-1.82,5.4-1.84,8.29.97,1.22.78,2.86,1.56,4.16.25.42.89.47.86,1.13Z"/>
    <path class="cls-69" d="m338.91,22.67c-.23-1.25.27-2.47,1.79-2.33.03.43.27.99-.15,1.24-.55.33-.78,1.11-1.64,1.08Z"/>
    <path class="cls-67" d="m369.08,5.28c.11-.07.24-.07.4.08-.14.22-.27.16-.4-.08Z"/>
    <path class="cls-63" d="m346.35,21.74c.44-.93.31-1.95,1.73-1.98.35.02.78-.07,1.01-.3,2.68-5.26,2.42-.81,4.17-1.82,1.09-.77,1.67-.35,2.63.32.77-.02.82.59.98,1.1.81,2.1-1.44,4.18.2,6.14.69.5-.02,1.93.86,2.09,1.15-.38,4.08,1.77,3.75-.44-.55-2.33,3.29-.85,4.23-2.26,1-1.14,1.86.61,2.89.8,1.86.93-2.64,2.82-1.44,4.58-.74.72-1.73.68-2.58,1.09-.25.15-.5.34-.61.61-.16.39.25.47.44.65.76.77,1.21,1.77,1.87,2.62,0,2.41,1.58,1.37,2.43,3.06.36.77.14,1.66.82,2.32.53.64-.27,1.41-.6,1.97-1.1,1.35-.98,3.01-1.17,4.58.05.83-.88,1.36-.51,2.17.25.75-.13,1.56.57,2.17.55.57.43.94-.3,1.28-1.78,1.12-1.37-.11-2.73-.51-1.27.23-.04,1.38.75,1.23-.19,1.5-2.12,3.89.65,3.82.37.04.86-.17,1.05.27.18.4-.21.7-.46.99-.64.62-.16,1.58-.81,2.2-.29.41-.54.44-.97.24-.67-.29-3.41-.72-2.03-1.78,1.23-.23.39-1.39-.49-1.22-1.01.19-3.32,1.47-4.08.72-.46-.47-2.54-2.09-2.67-.85-.09.25-.18.4-.52.4-.15-1.6.03-1.78,1.64-1.76,1.72.48,1.71-.93,2.99-1.09,1.35-.01,1.69-.96,1.79-1.98.1-1,.37-1.89.88-2.73.52-1.76-1.85-4.05,2.22-4.81.53-.05.78-.3.81-.77-.02-1.87,1.84-2.81,2.19-4.55.74-2.58-2.75-1.08-3.15-3.07-1.41-3.5-3.34-1.99-3.95-4.15-.85-3.18-.45-1.77-2.88-2.61-2.85-.64-3.76-2.16-3.31-5.01.04-.23.03-.49-.11-.66-.8-.96-.51-2-.26-3.04.47-1.55-1.08-.34-1.77-.83-1.15-1.17-2.95-.33-3.98.61-2.75,2.61-3.75,5.81-7.8,6.91-.21.07-.52.16-.49.41.13,1.04-.68,1.89-.56,2.92.06.5-.06.96-.48,1.31-1.1.87.54,1.87-.19,2.92-1.07,1.5.05,2.18.58,3.78-.56,1.19.96,1.98,1.58,2.9.32.5.57.95,1.07,1.28.63,1.06.3,2.56,1.79,2.99.67.3.47,1.15.04,1.58-.54,1.19-.68,2.45-1.22,3.63.02.16.02.25-.06.45-1.08-.34-1.17-.54-.73-1.45.47-.96.26-2.12,1.14-2.91.43-.38.3-.67-.25-.76-2.3.25-.19-2.84-2.09-3.3-.59-.1-.57-.62-.85-.98-.35-.97-1.02-.07-1.31-1.82-1.08-.97.03-1.86-.84-2.56-1.56-1.42.97-7.24,1.37-9.14.21-.26.1-.48.07-.7-.41-1.56.85-1.61,1.72-2.44.43-.79,1.16-1.28,1.78-1.87.65-1.6,2.21-2.1,3.56-2.98Z"/>
    <path class="cls-105" d="m364.65,63.57c-.25.34-.59.27-.89.25-1.11-.25-1.7.65-2.73.78.53-.62,1.16-1.18,1.27-2.15.56-.94,2.41-.06,2.35,1.11Z"/>
    <path class="cls-107" d="m326.07,23.23c-.05-.21.04-.39.27-.56.06.2.12.46-.27.56Z"/>
    <path class="cls-63" d="m348.01,61.05c-.38.18-.52.57-.95.64-.37-2.34-4.59-2.41-3.99-5.02.32-.67-.6-1.29-.3-1.95.29-.64.06-1.27-.04-1.96,2.37.31.61,4.2,2.53,5.07,1.36.59,3.51,1.37,2.76,3.22Z"/>
    <path class="cls-65" d="m340,43.32c.53-.04.36.59.75.84-.28.27-.67.58-.99.33-.41-.4.38-.68.24-1.17Z"/>
    <path class="cls-108" d="m353.46,55.44c-.44-.02-.74.24-1.13.37-.59-.1-.74.19-.74.71-.61,1.71-2.96,2.24-4.16.68-4.13-3.07-1.59-3.03-2.9-5.87-1.17-1.48.88-3.36-.46-4.82-1.62-1.97-2.33-4.53-4.12-6.36-.76-.73.08-1.61-.23-2.41-.33-.87-.06-1.58.89-1.94,1.11-1.4-1.35-6.1,3.09-4.81,2.26,1,3.62-.52,3.64-2.73.67-1.52,1.22-3.17,1.95-4.7.84-1.34,1.76-1.4,2.57-.08.9.97,1.86,1.97,1.64,3.44-.3,2.36.81,4.18,2.3,5.84,1.29.64,2.8.8,3.07,2.56.18,2.12,2.4.28,3.93,1.65,1.04.58.59,1.87.95,2.82.27.64-.49,1.16-1.03.76-1.03-1.07-2.37-1.2-3.69-1.52-.74-.31-1.15,1.13-.55,1.48.79.51,1.14,1.1.74,2.03-.12.59.64,1.11.43,1.75-.5,2.41,1.25,5.01-.47,7.12-.73.6.44,1.41-.44,1.97-2,1.85-3.6-1.04-5.28,2.07Z"/>
    <path class="cls-67" d="m353.45,55.33c.58-1.47,1.4-2.18,2.94-1.6.75.47,3.03-.54,2.42-1.3-.4-.58-.28-.52.12-1.13,1.14-1.23.76-2.38.67-3.91-.85-1.38.43-3.03-.55-4.26-.27-.25-.23-.56-.07-.89.85-1.35-.84-1.1-1.07-2.01.12-.54,0-1.82.87-1.63,1.86,1.14,2.04-.33,2.62.52.32.68,1.1.77,1.54,1.28.28.32.93-.12.64-.5-.61-.96.24-2.53-1.18-2.93-1.67-1.13-3.24.78-3.57-.87-.25-1.42-.8-2.66-2.42-2.76-2.28-1.18-3.46-4.22-3.12-6.8.27-1.36-1.04-2.07-1.7-3.04-.11-.34-.11-.84-.66-.83-1.38.06-1.9,1.77-2.2,2.93.11.98-1,1.53-1.11,2.41-.15,1.34-.27,3.15-1.86,3.41-.78.22-1.44.12-2.13-.26-2.9-1.24-2.71,2.31-2.37,4.17.26,1.18-2.09.46-1.3,2.27.61.84-.59,1.6.16,2.33,1.26,1,1.62,2.52,2.6,3.71-.09.64.38.98.74,1.39.55.63.84,1.43,1.37,2.08.31.37.2.89-.03,1.28-.29.48-.61,2.99.15,2.97,1.1.05-.49,2.37.5,3.51.6,1.58,2.31,1.69,3.15,2.97.19.34.51.5.78.16.37-.47.9-.43,1.45-.59.26.1.07.35.08.53-.76.59-1.74,2.04-2.6.88-.81-1.56-3.31-.94-3.67-2.59-.09-.82-.64-1.53-.49-2.43.08-.55-.92-.74-1.34-1.03-.06-.09-.05-.4-.07-.5,1.59-1.15.51-3.03,1.55-4.32.67-.46-1.63-1.99-1.87-2.92-.01-.83-.58-1.41-1.17-1.95-.32-1.17-1.37-1.92-1.79-3.08.04-1.44-1.28-2.56-.58-4.1.16-.21.37-.4.34-.62-.2-2.01,1.18-3.69,1.17-5.66,0-.68.51-.91,1.09-.73,1.06,0,4.25,1.51,3.65-.58-.48-1.52,1.58-1.4,1.73-2.77.68-1.69,2.39-6.05,4.68-4,.4.45.81.79,1.42.93,1.71.77,1.08,3.65,1.29,5.24-.12,1.09.74,1.59,1.32,2.35.62,1.37,1.39,1.85,2.83,1.79,2.21-.41.58,2.66,3.41,3.13,3.35.69,1.99,4.14,3.85,4.31.47.02,1.09-.07,1.24.51.29,1.55-1.59,2.11-2.22,3.3-.37.56-1.43.48-2.11-.01-.17-.13-.3-.39-.57-.19-.21.16-.21.4-.15.62.87,1.67-1.44,2.89-.52,4.36.8,1.05.06,2.18.37,3.26.74,1.31-.17,2.2-.79,3.16-.16.25-.47.39-.76.36-1.05-.15-2.04.47-3.12.42-1.51-1.23-2.15.79-3.51.24Z"/>
    <path class="cls-110" d="m357.5,55.15c1.25-1.42,3.13.19,3.75-1.94.53-.62.63-1.24.14-1.93-.67-.93.73-1.97-.23-2.91-.23-.6-.91-1.59-.22-2.09,1.72-1.36-.36-2.91,1.05-3.91.23-.1.41.03.47.21.28.97,2.02.95,2.22-.02.07-.45.42-.76.82-.88.66-.07,1.72-2.05.84-2.09-3.77.26-.48-2.56-4.27-4.3-3.73-.35-1.8-3.79-3.51-3.19-1.11.16-2.09-.2-2.94-.91-.15-.12-.3-.29-.27-.49.2-1.12-1.48-1.11-1.33-2.25-.41-1.37.06-2.82-.2-4.15-.49-.7-.28-1.83-1.47-1.66-.39.03-.6-.34-.82-.62-1.96-2.78-4.25,2.6-4.6,4.27-.15.89-2.17.71-1.67,1.94.03.41.68.53.4.98-.24.33-1.16.65-1.45.5-.87-.44-1.85-.11-2.72-.56-1.74-.55-.77,3.72-1.9,4.49-.88.62.41,1.69-.7,2.22.39-1.09-1.29-2.07.08-2.91.88-.77.06-2.05.84-2.95.5-.54-.51-1.57.52-1.69.71-.1,1.26-.63,2.01-.66.3-.01.72-.29.86-.57.57-1.17,2.34-1.28,2.55-2.61.33-1.41,1.86-1.96,2.57-3.17.53-.7,1.63-.77,2.37-1.22,1.23-.65,1.86,1.52,3.01.52.24-.19.55-.06.79.16.24.23.31.49.13.78-.36.57-.22,1.26-.43,1.87-.05.85.97,1.37.7,2.38-.25,2.45-.22,2.61,1.63,4.11.05.11.24.16.35.09.96-.51,1.4.91,2.38.53,1.48-.62,1.48,1.75,1.87,2.67.61,1.96,1.99-.11,3.9,3.93.26,1.03.91,1.09,1.78,1.08,2.68.19,1.18,3.51-.08,4.64-.81.63-.56,1.74-.84,2.6-.48,1.09-1.57-.22-2.29.89-.26.37-.86.41-.86.97.02.61-.18,1.27.23,1.79.85,1.4-1.26,2.59-.85,4.21-.42,2.68-1.36,1.47-3.2,2.53-.36-.49-1.04-.21-1.4-.71Z"/>
    <path class="cls-110" d="m343.13,53.02c.46-.2,1.41.22,1.27.75-.28.74.27,1.28.31,1.91.1,2.14,2.88,1.2,3.7,3,.84,1.3,1.35-.68,2.38-.66-.06.86-.85,1.56-.7,2.52-.01.35.04.71-.13,1.04-.11.21.03.57-.3.65-.34.08-.37-.28-.52-.46-.27-.33-.7-.42-1.11-.64-.17-1.58.19-1.37-1.26-2.13-.39-.98-1.43-.53-2.02-1.05-.27-.57-.79-1.03-.68-1.75.21-.54-.3-.97-.34-1.45.4-.76-.12-1.2-.6-1.72Z"/>
    <path class="cls-110" d="m353.39,55.34c1.38,0,2.08-1.63,3.48-.31-1.25-.74-3.16,1.81-3.48.31Z"/>
    <path class="cls-110" d="m350.94,57.81c-.29-.48.34-.88.5-1.3.11-.56.52-.93,1.11-.84-.11.88-.56,2.05-1.61,2.14Z"/>
    <path class="cls-111" d="m346.32,21.7c-.82.63-1.45,1.63-2.59,1.97-.47.14-.57.57-.62,1-.03.23-.03.45-.32.53-.85.25-1.22,1-1.62,1.68-.22.75-1.12.18-1.43.71-.19.47-.39.96-.29,1.49.04.2.25.43-.15.58-.61-1.54-.12-3.09,1.01-4.2.8-.19.96-.8,1.24-1.48.28-.66.91-1.26,1.76-1.29,1.12-.21,1.71-1.27,3.02-.98Z"/>
    <path class="cls-111" d="m348.86,19.56c-.08.29-.27.49-.67.24.12-.29.37-.23.67-.24Z"/>
    <path class="cls-110" d="m343.82,48.53c.17,1.02.35,2.03-.09,2.98-.13.51-.72.39-.98.8-.27-.11-.24-.33-.12-.53.77-.98.52-2.32,1.19-3.25Z"/>
    <path class="cls-110" d="m339.36,39.98c.68.88,1.8,1.62,1.81,2.81-.85-.12-1.19-1.37-1.87-1.88-.28-.31-.37-.59.06-.92Z"/>
    <path class="cls-110" d="m338.76,36.08c-.16,1.23.77,1.99.65,3.21-1.17-.7-1.45-1.95-.65-3.21Z"/>
    <path class="cls-110" d="m342.33,45.07c.8.16,1.13,1.37,1.74,1.99-.61.12-1.02-.09-1.21-.74-.12-.4-.64-.65-.53-1.25Z"/>
    <path class="cls-110" d="m341.17,43.12c.49,0,.77.33.96.84-.49-.01-.77-.33-.96-.84Z"/>
    <path class="cls-110" d="m344.27,47.4c.46.11.47.16.07.5-.07-.14-.07-.28-.07-.5Z"/>
    <path class="cls-67" d="m352.19,55.63c-.18.29-.4.53-.68.8-.19-.65-.05-.83.68-.8Z"/>
  </g>
</svg>