<?xml version="1.0" encoding="UTF-8"?>
<svg id="_背景" data-name="背景" xmlns="http://www.w3.org/2000/svg" viewBox="0 0 375 718.73">
  <defs>
    <style>
      .cls-1, .cls-2, .cls-3 {
        fill: none;
      }

      .cls-2 {
        opacity: .4;
      }

      .cls-3 {
        opacity: .8;
      }

      .cls-4 {
        fill: #f3b0cd;
      }

      .cls-5 {
        fill: #efa1c4;
      }

      .cls-6 {
        fill: #f2a6bd;
      }

      .cls-7 {
        fill: #f2a5ad;
      }

      .cls-8 {
        fill: #f2a6b4;
      }

      .cls-9 {
        fill: #f0989a;
      }

      .cls-10 {
        fill: #f09bac;
      }

      .cls-11 {
        fill: #eca8c8;
      }

      .cls-12 {
        fill: #f19da4;
      }

      .cls-13 {
        fill: #ef96bd;
      }

      .cls-14 {
        fill: #ef9193;
      }

      .cls-15 {
        fill: #ef93a0;
      }

      .cls-16 {
        fill: #ef93b0;
      }

      .cls-17 {
        fill: #f2a7c4;
      }

      .cls-18 {
        fill: #ee8a9d;
      }

      .cls-19 {
        fill: #ee8bab;
      }

      .cls-20 {
        fill: #f0a6c7;
      }

      .cls-21 {
        fill: #f09eb5;
      }

      .cls-22 {
        fill: #f09ebb;
      }

      .cls-23 {
        fill: #f09ec2;
      }

      .cls-24 {
        fill: #f8ca99;
      }

      .cls-24, .cls-25, .cls-26, .cls-27, .cls-28, .cls-29, .cls-30, .cls-31, .cls-32, .cls-33, .cls-34 {
        fill-rule: evenodd;
      }

      .cls-25 {
        fill: #f8ca8f;
      }

      .cls-26 {
        fill: #f8d994;
      }

      .cls-27 {
        fill: #f7d184;
      }

      .cls-28 {
        fill: #f7c5a4;
      }

      .cls-29 {
        fill: #f9da99;
      }

      .cls-30 {
        fill: #f8dd9d;
      }

      .cls-31 {
        fill: #f8d08a;
      }

      .cls-32 {
        fill: #f8d192;
      }

      .cls-33 {
        fill: #f9d68c;
      }

      .cls-34 {
        fill: #f9d690;
      }
    </style>
  </defs>
  <g class="cls-3">
    <path class="cls-27" d="m313.9,3.13c-1.04,1.81-3.26,3.82-3.1,5.41,2.5-1.52,2.91-.64,5.5-.97.29-1.81-3.9-.84-1.8-3.33.15-.43-.01-.81-.6-1.11Z"/>
    <path class="cls-34" d="m316.53,4.29c-.33.46-.01.81-.18,1.25.29.36.9.65.6,1.11,1.14,1.09,1.64-1.42,2.68-.88l.97-1.39c-1.56-1.22-2.61.5-4.07-.09Z"/>
    <path class="cls-33" d="m325.14,11.69c-2.6.88-3.55,2.25-4.35,5.23.92.64,1.47-.85,2.5.37l.32-.46c2.1-1.81-.52-3.03,1.94-2.77l.97-1.39-.93-.65-.46-.32Z"/>
    <path class="cls-31" d="m327.26,7.67c.9,1.19-.5,2.79-1.67,4.34l.93.65c.97-1.38,1.94-2.77,2.91-4.16-.73-.29-1.34.04-2.17-.83Z"/>
    <path class="cls-34" d="m309.37,9.61c-.29,1.67,1.44,2.99.83,4.72.89.46,1.61-.06,2.22-1.2,1.32-1.18.15-1.92,1.48-3.1,1.4,1.83.35,3.19-1.2,4.67l.46.32c.32-.46.76-.28,1.11-.6-.53-.67.33-.37.65-.92.29.9,1.41,1.64.88,2.68,1.39.24,2.66-.23,3.79-1.48-1.07-.62-1.21-1.41-.41-2.36,1.34-1.08,1.29,1.32,2.31,1.62-2.57.07-1.73,2.55-.1,4.07.81-1.2.74-.32,1.25.19l.65-.93c-1.03-1.22-1.58.27-2.5-.37.8-2.98,1.75-4.34,4.35-5.23l-.46-.32c-.51.2-1.01.41-1.43,1.06-.81-.53-.96-1.18-.74-1.9-.89-.41-.52,2.03-2.36.42,1.73,0,.86-.54,2.22-1.21-.98-1.36,1.53-.76.83-2.17-.89-.46-1.61.06-2.22,1.2-3.29,1.91-2.21,3.19-4.07,6.8-.57-2.84-2.84-4.29,1.11-7.49-2.01.06-4.27,3.16-5.64.18l-1.3,1.85c1.81.5,1.51.61,1.2,2.22-.32.47-.76.29-1.11.6.36-2.18-.9-1.74-1.8-3.33Z"/>
    <path class="cls-33" d="m313.9,3.13c-1.72,1.16-5.46,4.1-4.53,6.47.9,1.59,2.16,1.15,1.8,3.33.35-.31.79-.14,1.11-.6.31-1.6.6-1.71-1.2-2.22l1.3-1.85c1.37,2.98,3.63-.13,5.64-.18-3.95,3.2-1.68,4.65-1.11,7.49,1.86-3.6.78-4.88,4.07-6.8l-.46-.32c-.98.61-1.96,1.15-2.87,2.13-.81-.45,1.18-3.68,2.08-1.99.24-.85.13-1.64.37-2.5l-.46-.32c-1.04-.54-1.54,1.97-2.68.88.3-.46-.31-.76-.6-1.11-.62-.43-1.23-.86-1.85-1.29-2.1,2.49,2.09,1.52,1.8,3.33-2.59.33-3-.55-5.5.97-.16-1.59,2.06-3.6,3.1-5.41Z"/>
    <path class="cls-32" d="m316.44,1.47c.48,1.03,1.92,2.53.09,2.82,1.46.59,2.5-1.13,4.07.09l.65-.93c1.51.92.79,4.31,2.91,2.73l.97-1.38c-1.83-1.47-2.23-.65-3.24-2.27-1.98.58-2.7-1.95-5.13-1.53l-.33.46Z"/>
    <path class="cls-31" d="m320.6,4.38l-.97,1.39.46.32,1.3-1.85c.91.65-.3,1.67,1.2,2.22-.59,1.25-1.55.41-2.08,1.99l.46.32c.61-1.14,1.33-1.66,2.22-1.2.39-.84.99-.49,1.43-1.07l-.46-.32c-2.13,1.58-1.4-1.81-2.91-2.73l-.65.93Z"/>
    <path class="cls-26" d="m322.64,18.21c-.51-.51-.44-1.38-1.25-.19-1.64-1.52-2.48-4,.1-4.07-1.02-.3-.97-2.7-2.31-1.62-.79.95-.66,1.74.41,2.36-1.13,1.25-2.4,1.72-3.79,1.48.53-1.04-.59-1.79-.88-2.68-.31.55-1.17.25-.65.92,1.15.88,1.03,1.98,1.34,3.01,1.29.4,2.36-.43,3.47-1.02.94,1.08,1.69,4.27,3.56,1.81Z"/>
    <path class="cls-33" d="m322.36,9.75c-1.36.67-.49,1.2-2.22,1.21,1.83,1.61,1.46-.83,2.36-.42-.22.71-.06,1.36.74,1.9.43-.65.93-.86,1.43-1.06-.49-.45.2-1.12.51-1.71-.46-.32-.93-.65-1.39-.97-.42.68-.84,1.36-1.43,1.06Z"/>
    <path class="cls-25" d="m321.16.64c-1.61-.68-3.18-1.14-4.39.37,2.43-.42,3.15,2.11,5.13,1.53.2-.71.07-1.37-.74-1.9Z"/>
    <path class="cls-26" d="m312.42,13.12c.84.66-.75,1.75.41,2.36.26.18.79,0,.33-.46l-.46-.32c1.55-1.48,2.6-2.84,1.2-4.67-1.33,1.18-.16,1.92-1.48,3.1Z"/>
    <path class="cls-29" d="m312.42,13.12c-.61,1.14-1.33,1.66-2.22,1.2-.07.96-.33,1.95.88,2.68l.46.32c.52-.87,1.25-.58,1.76-1.53.93,1.05,1.88,2.54,3.7,2.59,1.33.71-2.25,2.29.09,2.82,2.73,1.7,4.75-.64,7.07-1.25-2.34-1.5,1.49-2.19-.55-3.14l-.32.46-.65.93c-1.87,2.46-2.62-.73-3.56-1.81-1.11.59-2.18,1.42-3.47,1.02-.31-1.03-.19-2.13-1.34-3.01-.35.32-.79.14-1.11.6.46.46-.07.64-.33.46-1.17-.61.42-1.7-.41-2.36Z"/>
    <path class="cls-27" d="m320.09,6.1c-.24.85-.13,1.64-.37,2.5-.89-1.69-2.89,1.54-2.08,1.99.91-.97,1.89-1.52,2.87-2.13.53-1.57,1.49-.74,2.08-1.99-1.5-.55-.29-1.57-1.2-2.22l-1.3,1.85Z"/>
    <path class="cls-30" d="m311.08,17.01c1.2,2.16,3.59,4.08,6.01,4.21-2.34-.53,1.24-2.11-.09-2.82-1.82-.05-2.77-1.54-3.7-2.59-.51.95-1.23.65-1.76,1.53l-.46-.32Z"/>
    <path class="cls-34" d="m326.98,12.98l-.46-.32-.97,1.39c2.58-.49-1.64,4.37,1.48,3.79l.32-.46c-1.85-.89-.45-2.35.56-3.75l-.92-.65Z"/>
    <path class="cls-24" d="m321.16.64c.81.53.94,1.18.74,1.9,1.01,1.61,1.41.8,3.24,2.27,1.33.66,2.7,1.54,3.88,1.34.48-3.58-5.25-4.64-7.86-5.5Z"/>
    <path class="cls-32" d="m324.63,6.51c-.44.58-1.04.23-1.43,1.07.7,1.41-1.81.81-.83,2.17.59.3,1.01-.38,1.43-1.06.46.32.92.65,1.39.97-.31.59-1,1.25-.51,1.71l.46.32.46.32c1.16-1.55,2.56-3.15,1.67-4.34l-2.31-1.62-.32.46Z"/>
    <path class="cls-25" d="m329.43,8.5c.65-.66.12-1.1.51-1.71l-.92-.65c-1.18.2-2.55-.68-3.88-1.34l-.97,1.38.46.32.32-.46,2.31,1.62c.83.87,1.45.54,2.17.83Z"/>
    <path class="cls-25" d="m327.91,13.63c.43.18.78-.14,1.25.18.87-.83.54-1.45.83-2.17-1.11-.15-2.21-.26-3.01,1.34l.92.65Z"/>
    <path class="cls-33" d="m329.16,13.82c-.46-.32-.81,0-1.25-.18-1,1.4-2.4,2.86-.56,3.75.4-1.15,2.7-2.64,1.8-3.56Z"/>
    <path class="cls-26" d="m327.03,17.84c-3.12.58,1.11-4.28-1.48-3.79-2.47-.25.16.97-1.94,2.77,2.05.96-1.79,1.65.55,3.14.83-1.44,2.04-.69,2.87-2.13Z"/>
    <path class="cls-31" d="m316.44,1.47c-.96-.09-1.81.47-2.54,1.66.59.3.75.68.6,1.11.62.43,1.23.86,1.85,1.29.17-.43-.14-.78.18-1.25,1.83-.29.39-1.79-.09-2.82Z"/>
    <path class="cls-28" d="m329.43,8.5c-.97,1.39-1.94,2.77-2.91,4.16l.46.32c.8-1.6,1.9-1.48,3.01-1.34.96-1.79.62-3.35-.05-4.86-.39.61.15,1.06-.51,1.71Z"/>
  </g>
  <g class="cls-2">
    <path class="cls-1" d="m360.96,669.07s-.04.03-.07.04c.02-.01.04-.03.07-.04Z"/>
    <path class="cls-1" d="m360.87,669.13s-.04.02-.06.03c.02-.01.04-.02.06-.03Z"/>
    <path class="cls-1" d="m360.07,669.32s-.02,0-.04,0c.01,0,.02,0,.04,0Z"/>
    <path class="cls-1" d="m361.26,668.84c-.08.07-.17.15-.28.22.11-.07.21-.14.28-.22Z"/>
    <path class="cls-1" d="m360.39,669.31s-.02,0-.03,0c.01,0,.02,0,.03,0Z"/>
    <path class="cls-1" d="m360.18,669.33s-.03,0-.04,0c.01,0,.03,0,.04,0Z"/>
    <path class="cls-1" d="m360.65,669.23s-.03.01-.05.02c.02,0,.03-.01.05-.02Z"/>
    <path class="cls-1" d="m359.96,669.3s-.02,0-.03,0c.01,0,.02,0,.03,0Z"/>
    <path class="cls-1" d="m360.24,669.33s.03,0,.04,0c-.01,0-.03,0-.04,0Z"/>
    <path class="cls-1" d="m361.26,668.84s.05-.05.07-.07c-.02.02-.04.05-.07.07Z"/>
    <path class="cls-1" d="m361.18,668.63s0,.01,0,.02c0,0,0-.01,0-.02Z"/>
    <path class="cls-1" d="m361.34,668.76s.04-.05.06-.07c-.02.02-.03.05-.06.07Z"/>
    <path class="cls-1" d="m360.76,669.18s-.04.02-.06.03c.02,0,.04-.02.06-.03Z"/>
    <path class="cls-1" d="m361.16,668.53s0,.01,0,.02c0,0,0-.01,0-.02Z"/>
    <path class="cls-1" d="m361.16,668.43s0,.01,0,.02c0,0,0-.01,0-.02Z"/>
    <path class="cls-1" d="m360.53,669.27s-.02,0-.03.01c.01,0,.02,0,.03-.01Z"/>
    <path class="cls-4" d="m338.83,686.47c-.18-.42-.32-.85-.4-1.28.26-.03.53-.1.76-.43-.09-.17-.26-.58-.52-.7.07-.2.13-.39.21-.59h0c.47.55.38,1.46.6,2.07-.33.32-.45.62-.65.93Z"/>
    <path class="cls-4" d="m338.35,685.09s.02-.08.04-.12c.01.02.02.05.03.07-.02.01-.05.03-.07.05Z"/>
    <path class="cls-11" d="m343.55,678.77c-.38,0-.7-.62-.59-.9.29.29.87.56.59.9Z"/>
    <path class="cls-4" d="m340.21,683.07c-.35-.26-.15-.5-.64-.67.25-.25.47-.69.74-.72.43.3.39.65.52.97-.2.25-.41.3-.62.42Z"/>
    <path class="cls-23" d="m342.52,680.31c.49.05.94-.36,1.46.02-.11.69-1.28.23-1.46-.02Z"/>
    <path class="cls-23" d="m339.89,684.41l-.31-.26.26-.31c.32.17.34.36.05.58Z"/>
    <path class="cls-23" d="m344.64,679.55c-.24-.25-.43-.5-.43-.76.19.26.33-.09.53.17-.13.21.15.38-.09.59Z"/>
    <path class="cls-17" d="m345.97,679.72c-.3.44-1.04.3-1.17-.04.16-.21.76-.12,1.17.04Z"/>
    <path class="cls-20" d="m343.52,681.68c.14.13.22.27.18.42-.2-.13-.28-.27-.18-.42Z"/>
    <path class="cls-20" d="m338.64,688.45s.07.07.08.07c.74-.02-.46.26-.08-.07Z"/>
    <path class="cls-20" d="m353,675.17c-.66-.02-1.23.91-1.91.68.97-.89-.08-1.6.3-2.43.35.46.69.7,1.17.84-.23.34.39.6.44.91Z"/>
    <path class="cls-23" d="m356.46,669.77c-.18-.29-.63-.55-.73-.84.07-.02.13-.03.18-.04.03,0,.07-.02.1-.03.33.21.53.64.45.91Z"/>
    <path class="cls-20" d="m354.5,671.47c-.18.19-.37.21-.58.05.08-.21.01-.52.32-.54.29.14-.03.34.26.49Z"/>
    <path class="cls-17" d="m345.08,687.01c-.03-.22.03-.44.16-.67-.24-.2-.44-.02-.67-.16-1.09,1.7-2.81.57-3.7,1.85,1.01.26,1.93,1.24,1.79,2.17.99-.41,1.38-1.13,2.07-2.15-.57-.35-.08-1.02.35-1.05Zm-1.36,1.94c-.38.29-.18.78-.58.85-.52-.42-.53-.88-.05-1.38l.63.53Z"/>
    <path class="cls-17" d="m357.25,668.83c.15-.23.33-.17.51.03-.15.23-.33.07-.51-.03Z"/>
    <path class="cls-6" d="m340.18,690.14c-.15.29-.07.2-.33.39-.4-.26-.3-.56-.08-.87.2.15.39.31.41.47Z"/>
    <path class="cls-22" d="m350.35,678.17c.13.08.24-.02.37.04l-.2.24c-.08-.09-.23-.17-.17-.28Z"/>
    <path class="cls-22" d="m350.31,679.34c-.33.38-.69.39-1.08.17.36-.38.71-.76,1.12-.54-.04.12-.07.25-.04.37Z"/>
    <path class="cls-17" d="m340.05,692.84c-.52.47-.54-.12-.89-.21l-.16-.13c.42-.59.88-.1,1.05.35Z"/>
    <path class="cls-23" d="m339.5,693.18c.36-.3.77-.05,1.13-.39l.47.4c-.06.25.27.46.21.71-.47.23-1.02-.5-1.45.13l-.08-.07c-.04-.58-.89-.35-.5.12l-.07.08c-.32-.36-.55.4-.87.08,0-.17.17-.35.17-.52.05.07.1.03.14-.01.36-.18-.23-.27-.04-.43.12,0,.24-.04.36-.1.08.04.14-.01.22.05-.15.19.24.15.29-.03Z"/>
    <path class="cls-23" d="m348.03,683.33c-.25.17-.06.3-.25.46-.28-.17-.16-.37-.48-.54.19-.29.42-.22.63-.27-.13.13-.08.25.1.36Z"/>
    <path class="cls-6" d="m343.13,689.8c-.52-.42-.53-.88-.05-1.38l.63.53c-.38.29-.18.78-.58.85Z"/>
    <path class="cls-23" d="m339.5,694.93c-.31,0-.6.04-.62-.38.15-.02.68.06.62.38Z"/>
    <path class="cls-17" d="m361.75,668.58c.16-.14.19-.26.04-.37l-.4.47-.13.15s0,0,0,0c-.04-.06-.07-.13-.08-.19,0,0,0-.01,0-.02,0-.03-.01-.05-.01-.08,0,0,0-.01,0-.02,0-.03,0-.05,0-.08,0,0,0-.01,0-.02,0-.13.04-.26.1-.39.38-.18.73,0,.96.13-.16.1-.29.54-.47.41Z"/>
    <path class="cls-23" d="m360.17,669.66l.16.13c-.21.13-.37.73-.62.42l.46-.55Z"/>
    <path class="cls-5" d="m354.89,675.95c.18-.21.35-.47.54-.48.11.09.14.18.17.28-.23.12-.44.48-.71.21Z"/>
    <path class="cls-23" d="m340.03,694.3l.08.07c.1.39-.29.52-.64.13.17-.28.39-.03.57-.2Z"/>
    <path class="cls-5" d="m358.02,674.3c-.65.24-.53-.55-.67-.96.22-.22.43-.68.69-.5-.73.61-.14,1.11-.02,1.46Z"/>
    <path class="cls-23" d="m348.76,684.21c-.13-.14-.25-.06-.38-.19.17-.32.56-.05.38.19Z"/>
    <path class="cls-20" d="m361.5,669.04c-.51.29-.96,1.2-1.49,1.3.49-.53.95-1.35,1.49-1.3Z"/>
    <path class="cls-8" d="m347.08,685.74c.47.09.83.73.82,1.09-.46-.09-1.06-.71-.82-1.09Z"/>
    <path class="cls-23" d="m351.73,682.28c-.68-.18-.9-.97-.2-1.51.8.44.52.97.2,1.51Z"/>
    <path class="cls-5" d="m357.06,674.96c.33-.58.39.03,0,0h0Z"/>
    <path class="cls-8" d="m342.2,693.31c-.09.03-.19.06-.28.17-.03-.02-.05-.04-.08-.07.11-.18.22-.23.36-.1Z"/>
    <path class="cls-22" d="m354.91,678.65c-.27.13-.24.59-.4.47l-.24-.2c.2-.17.41-.27.63-.27Z"/>
    <path class="cls-5" d="m362.66,669.88c.09-.18.12-.73.45-.7.05.17-.13.73-.45.7Z"/>
    <path class="cls-13" d="m362.29,671.45c-.22.54-1.18.48-1,.23l.07-.08c.29-.24.61-.27.93-.15Z"/>
    <path class="cls-16" d="m356.44,678.73l-.55-.46c.58-.61,1.12-1.64,1.77-1.47.29.74-1.03,1.17-1.22,1.93Z"/>
    <path class="cls-22" d="m355.17,679.94l-.08-.07c.07-.25-.06-.48.23-.75.37-.23.77-.07,1.16-.1l-.26.31c-.37-.04-.72.15-1.04.6Z"/>
    <path class="cls-16" d="m355.74,680.69c-.18.16-.36.27-.57.2.14-.11.06-.2-.03-.29-.13.14-.27.22-.42.18-.02-.19.21-.41.38-.62.15.33.32.32.63.53Z"/>
    <path class="cls-6" d="m347.47,690.23c-.34.3-.64.97-1,1.03-.08-.58.36-1.25,1-1.03Z"/>
    <path class="cls-21" d="m345.11,693.2c.01.19-.14.38-.34.25-.01-.19.14-.38.34-.25Z"/>
    <path class="cls-13" d="m339.85,701.38l-.26.31c-.1-.23-.22-.49-.35-.79-.07-.15-.14-.31-.2-.47,0-.02-.02-.04-.02-.06,0,0,0-.02-.01-.03.06-.04.11-.07.17-.08.23.37.55.73.68,1.11Z"/>
    <path class="cls-13" d="m358.52,678.33c-.27-.32,0-.68.06-1.02.2.09.39,0,.6.24l-.66.79Z"/>
    <path class="cls-10" d="m349.97,688.84c-.23-.34-.12-.72.12-1.1.33.21.24.46.35.7-.15.19-.33.12-.47.41Z"/>
    <path class="cls-21" d="m342.25,697.24c.04-.57.66-.42.97-.52-.05.46-.63.83-.97.52Z"/>
    <path class="cls-10" d="m355.41,681.88c.21-.15.41-.35.64-.13-.21.31-.34.61-.5.92-.45-.39.69-.82-.14-.79Z"/>
    <path class="cls-22" d="m346.47,693.01l.47.4.39.33c.05.07.01.14.09.21l-.26.31c-.34-.05-.65.37-1.01.09-.17-.3-.19-.61-.44-.91l.07-.08c.24-.06.47-.19.7-.35Z"/>
    <path class="cls-10" d="m351.63,687.02c.28-.24-.12-.43.16-.67.26.15.11.71-.16.67Z"/>
    <path class="cls-21" d="m348.36,691.24c.35.29.34.6.3.92-.21-.3-.5-.59-.3-.92Z"/>
    <path class="cls-8" d="m351.38,689.08c-.38-.23-.11-.53-.43-.76.28-.35.53-.1.46-.55.2.42.2.86-.03,1.31Z"/>
    <path class="cls-16" d="m366.92,670.24c.1-.23-.08-.43.02-.66l.31.26c0,.09-.13.53-.33.39Z"/>
    <path class="cls-6" d="m347.37,693.22c.23.15.17.33-.03.51l-.39-.33.07-.08c.13.05.25.03.36-.1Z"/>
    <path class="cls-8" d="m347.17,694.26c-.25.42-.55.42-.83.51-.14-.13-.22-.27-.18-.42.36.28.67-.14,1.01-.09Z"/>
    <path class="cls-23" d="m343.54,697.78c.07-.39.56-.09.45.11-.17-.24-.29.02-.45-.11Z"/>
    <path class="cls-19" d="m360.38,677.88c.18-.12.34-.6.54-.48.03.15.15,1.07-.54.48Z"/>
    <path class="cls-10" d="m351.78,689.56c-.07.05-.14.01-.21.09l-.08-.07-.08-.07c.01-.1.02-.2.12-.3.22,0,.44-.01.66.02-.19.21,0,.27-.26.31-.05-.07-.1-.03-.14.01Z"/>
    <path class="cls-7" d="m351.54,690.96c-.07.07-.15-.02-.22-.05.11-.2-.37-.41-.47-.4.01-.29.18-.6.5-.92.05.07.1.03.14-.01l.08.07c-.15.45-.14.89-.03,1.31Z"/>
    <path class="cls-13" d="m342.43,702.62c-.33-.46-.99-.06-1.29-.54.4-.47.79-.97,1.26-.55-.41.4.33.7.02,1.09Z"/>
    <path class="cls-21" d="m345.21,698.51c-.2-.13-.28-.27-.18-.42.2.13.28.27.18.42Z"/>
    <path class="cls-21" d="m352.46,689.86l.71.59c-.41.68-1.31-.07-.71-.59Z"/>
    <path class="cls-13" d="m343.62,701.2c-.16.16-.15.3.04.43.05.04.1.07.14-.01.08-.16.19-.1.29-.03.02.12,0,.24-.04.37-.36.28-.77.06-1.19-.33.21-.26.03-.49.37-.76.26-.17.21.26.39.33Z"/>
    <path class="cls-19" d="m362.69,678.48l-.2.24.16.13c-.04.12-.07.25-.04.37l-.07.08c-.23-.11-.39.54-.63.27.1-.13.29-.27.18-.38.41-.5.62-1.36,1.1-1.63-.02.1-.05.2.03.29-.35.03-.23.39-.53.63Z"/>
    <path class="cls-21" d="m345.74,698.83c.22-.03.37.21.33.41-.08-.14-.48-.25-.33-.41Z"/>
    <path class="cls-15" d="m362.82,679.12c-.08-.06-.14.05-.21.09-.02-.12,0-.24.04-.37.12.09.23.17.17.28Z"/>
    <path class="cls-18" d="m363.42,679.36c.02.22,0,.87-.45.69.21-.19.1-.73.45-.69Z"/>
    <path class="cls-10" d="m357.24,687.84c.12,0,.24-.04.36-.1.47.33-.77.49-.36.1Z"/>
    <path class="cls-21" d="m346.46,701.17c-.3-.04,0-.46.12-.3-.04.05-.07.1.01.14l-.13.16Z"/>
    <path class="cls-21" d="m353.7,693.18c-.44.23-.14.43-.46.55-.41-.19.21-.84.44-.84-.07.1-.13.21.03.29Z"/>
    <path class="cls-12" d="m355.13,691.16c.09-.12.17-.23.28-.17.02.19-.26.41-.24.6-.26-.12-.02-.29-.04-.43Z"/>
    <path class="cls-14" d="m367.14,679.4c-.12-.42-.2-.55-.22-.85.28.45.46-.31.74.08-.1.25-.25.51-.52.77Z"/>
    <path class="cls-22" d="m350.78,698.1c.29.14.22.32.41.47.05.07.01.14.09.21l-.07.08c-.25.36-.36.71-.35,1.05.18.02.75.37.7.45l-.07.08c-.47-.13-.91.19-1.37.19-.13-.69.53-1.45.61-2.17-.12,0-.23.18-.36.1.06-.13-.03-.24.04-.37.13.05.25.03.35-.1Z"/>
    <path class="cls-21" d="m348.02,701.54c-.06.32-.03.63-.13.96-.52-.24-.38-1.08.13-.96Z"/>
    <path class="cls-15" d="m365.24,681.82c.14-.12.11-.58.4-.47-.14.12-.11.58-.4.47Z"/>
    <path class="cls-10" d="m358.46,693.42c-.61.05-1.1-.18-1.89-.78.01-.1.03-.2.12-.3.57.44,1.14.84,1.69,1.02l.08.07Z"/>
    <path class="cls-21" d="m349.33,702.38c-.18-.36-.27.23-.43.04.17-.36.61-.4.43-.04Z"/>
    <path class="cls-18" d="m368.48,679.72c-.16.18-.06.35-.32.54l-.24-.2c.19-.08.36-.37.55-.34Z"/>
    <path class="cls-21" d="m352.26,700.01c.16-.18.06-.35.32-.54.21.2.21.42.42.62-.22.24-.47.2-.74-.08Z"/>
    <path class="cls-22" d="m350.95,702.53c.18.25.35.5.29.78-.29-.24-.29-.51-.29-.78Z"/>
    <path class="cls-6" d="m353.65,700.91c-.23-.24-.07-.76.29-.83l.24.2c.03.34-.34.38-.53.63Z"/>
    <path class="cls-8" d="m352.55,702.53l.63.53c-.21.38-.46.24-.68.5-.69-.42-.4-.61.06-1.02Z"/>
    <path class="cls-22" d="m346.54,709.54c.27-.01.57.38.85.58l-.66.79c-.49-.42-.38-.89-.19-1.37Z"/>
    <path class="cls-9" d="m365.65,689l-.24-.2.2-.24c.18.13.2.27.04.43Z"/>
    <path class="cls-8" d="m356.11,703.24c.04.36-.4.76-.41,1.13-1.11-.6-.69-2.03.41-1.13Z"/>
    <path class="cls-9" d="m368.71,692.38c-1-.31-.95-1.86-2.45-2.19.08-.1,0-.19.12-.3,1.21.63,2.27,1.38,2.33,2.49Z"/>
    <path class="cls-7" d="m358.04,701.1c.18.11.32-.23.5-.12-.11.18.08.33-.03.51-.13-.3-.58-.12-.47-.4Z"/>
    <path class="cls-21" d="m356.46,706.34c-.27.03-.03.63-.07.88-.43.03-.84.42-1.3.11.3-.69.29-1.51.38-2.36.34.46.69.91.99,1.37Z"/>
    <path class="cls-12" d="m363.47,695.75c.74-.41,1.57.21,2.35.23-.3.42-.66.18-.96.67-.39-.35-1.46-.35-1.39-.9Z"/>
    <path class="cls-9" d="m368.18,690.45l.13-.16.16.13-.13.16-.16-.13Z"/>
    <path class="cls-16" d="m350.11,712.94c.29.26.07.57-.2.88-.12-.07-.23-.15-.34-.22.13-.21.38-.44.54-.65Z"/>
    <path class="cls-16" d="m351.39,711.74c.13.08.23-.13.34-.25.47.32.49.69.02,1.09-.18-.28-.46-.54-.37-.84Z"/>
    <path class="cls-21" d="m357.37,705.1c.16.3.56.58.3.92-.38.08-.37-.23-.63-.53.26-.21.06-.37.33-.39Z"/>
    <path class="cls-10" d="m362.41,699.41c.13-.2.27-.29.41-.33.28.32-.02.98-.27,1.12-.52-.37.35-.53-.14-.79Z"/>
    <path class="cls-7" d="m359.55,705.05c-.1-.06-.13-.13-.09-.21.27-.22.51-.82.8-.8-.29.34-.62.69-.71,1.01Z"/>
    <path class="cls-10" d="m362.3,702.41l-.46.55-.39-.33c.2-.45.46-.26.7-.35.11.01.22.02.16.13Z"/>
    <path class="cls-10" d="m362.79,701.34c-.04.05-.07.1.01.14l-.13.16c-.3-.04,0-.46.12-.3Z"/>
    <path class="cls-21" d="m363.98,701.53c.13-.14.27-.22.42-.18l-.26.31-.08-.07-.08-.07Z"/>
    <path class="cls-15" d="m354.87,712.38c.37-.44.77-.67,1.17-.76-.37.44-.78.53-1.17.76Z"/>
    <path class="cls-12" d="m366.56,699.41c.08.03.16.13.22.05-.1-.12.1-.14.21-.09.08.27-.66.46-.43.04Z"/>
    <path class="cls-7" d="m364.26,703.11l-.31-.26c.05-.17.48.18.31.26Z"/>
    <path class="cls-21" d="m366.7,701c-.19-.17-.37-.33-.54-.32.2-.17.41-.27.63-.27-.09.2-.05.39-.09.59Z"/>
    <path class="cls-21" d="m363.32,704.07l.55.46c-.4.2-.78.57-1.2.47-.07-.29.47-.62.65-.93Z"/>
    <path class="cls-15" d="m369.04,699.49c.31.16.61.3.92.5-.09.23-.09.45-.3.68-.53.07-1.18-.72-.61-1.18Z"/>
    <path class="cls-12" d="m372.98,696.23l.39.33c-.08.34-.72-.19-.39-.33Z"/>
    <path class="cls-16" d="m366.46,704.16c.2.42.27.85.26,1.29-.45-.4-.33-.85-.26-1.29Z"/>
    <path class="cls-14" d="m358.81,713.28c.47-.47,1.31-1.15,1.62-.65-.11-.05-.32-.03-.21.09l-.07.08c-.46-.03-.86.68-1.34.48Z"/>
    <path class="cls-9" d="m372.7,697.2c.15.01.3.07.46.25-.08.34-.58-.13-.46-.25Z"/>
    <path class="cls-18" d="m361.62,711.21c-.15.22-.31.31-.5.12.16-.12.31-.31.5-.12Z"/>
    <path class="cls-9" d="m372.44,698.31c.04-.08-.01-.14.05-.22.15.08.07.19.17.28-.07.05-.14.04-.22-.05Z"/>
    <path class="cls-12" d="m374.08,697.15c-.17,0-.35-.17-.53-.17.09-.43.62-.01.53.17Z"/>
    <path class="cls-15" d="m372.44,698.31c.08.09.15.1.22.05l.08.07c-.19.13.01.44-.28.17.05-.1-.11-.18-.03-.29Z"/>
    <path class="cls-18" d="m358.13,715.52c-.16.1-.29.54-.47.41.16-.1.29-.54.47-.41Z"/>
    <path class="cls-15" d="m374.69,695.79c.12.13.32.04.24.2-.1.09-.32-.09-.24-.2Z"/>
    <path class="cls-16" d="m366.42,706.93l.08.07c-.06.15-.05.3-.11.45l-.08-.07c-.12-.13-.07-.29.11-.45Z"/>
    <path class="cls-15" d="m365.27,710.53c-.42.22-.85.26-1.3.11.13-.52.87-.4,1.3-.11Z"/>
    <path class="cls-21" d="m369.79,704.67c-.02-.38.4-.37.59-.71l.39.33-.07.08c-.31.02-.59.42-.92.3Z"/>
    <path class="cls-19" d="m369.5,707.24c.22-.25.46-.34.71-.21-.21.32-.45.41-.71.21Z"/>
    <path class="cls-14" d="m362.89,715.76c-.2.23-.42.14-.64.13.22-.27.46-.33.7-.35-.03.08-.13.16-.05.22Z"/>
    <path class="cls-18" d="m370.78,709.39l.39.33c-.08.34-.72-.19-.39-.33Z"/>
    <path class="cls-15" d="m371.55,712.31c-.32-.12-.09-.28-.18-.42l.07-.08c.22.18.43.48.12.5Z"/>
    <path class="cls-18" d="m370.36,713.72c-.1.13.15.23-.04.37l-.24-.2c.09-.08.17-.23.28-.17Z"/>
    <path class="cls-15" d="m372.06,713.14c.12-.26.29-.02.43-.04l-.2.24-.24-.2Z"/>
    <path class="cls-16" d="m373.46,715.78c.13,0,.15.02.17.06-.06.02-.11.03-.17.05-.02-.04-.03-.07,0-.11Z"/>
    <path class="cls-17" d="m358.7,668.7c.66-.5,1.35-.63,2.05-.69-.28.19.16.33.12.5-.32.55-.69.45-1.03.75-.04.04-.09.08-.14.01-.18-.1-.32.25-.51-.03.32-.26,1.01-.58,1.08-.97-.53.05-.99.93-1.51,1.01-.33-.27-.53-.62-.73-.94.12-.03.23-.05.33-.08.02.03.05.06.09.1.09.11.06.24.25.34Z"/>
    <path class="cls-17" d="m359.25,668.09s.08-.01.12-.02c-.02.02-.04.04-.06.06-.02-.01-.04-.03-.06-.04Z"/>
    <path class="cls-20" d="m337.61,690s0,0,0,0c0-.04.01-.08.02-.12.01.02,0,.06-.02.12Z"/>
    <path class="cls-20" d="m353.53,671.19c-.63.58-1.3.7-2.05-.11-.46.55-.95.86-1.4,1.51-.34-.28-.65-.24-1-.57-.65.21-1.6,1.01-1.95,1.85-.18-.02-.38-.16-.56-.19,1.38-1.36,2.74-2.17,4.29-2.84.16-.07.32-.14.49-.2.42-.17.87-.33,1.32-.49.17.42.33.9.85,1.05Z"/>
    <path class="cls-20" d="m337.89,689.02c-.06.05-.12.03-.18,0,.04-.45.1-.89.17-1.36.01-.1.03-.19.04-.28.05-.14.12-.27.23-.41.56.63-.33,1.39-.26,2.06Z"/>
    <path class="cls-20" d="m358.75,669.28c-.33-.27-.53-.62-.73-.94-.06.01-.11.03-.17.04-.15.04-.3.08-.45.12-.15.03-.29.07-.43.1-.29.07-.57.14-.84.22.51.42.66,1.06.32,1.6-.13-.64-.66-.95-.8-1.48-.09.02-.2.05-.3.08-.16.05-.33.1-.5.16-.03,0-.06.02-.09.03-.25.09-.48.18-.64.26,0,.04,0,.08.01.12.04-.01.09-.02.13-.04.13-.04.27-.08.38-.11-.17.06-.34.12-.51.18.11.59.82,1.13.71,1.74.32.09.62-.08.93-.15.31.65.38,1.21,1.02,1.66.52-.74,1.07-1.08,1.6-1.74-.54.04-.43-.39-.86-.73.11-.15.24-.08.34-.25.14.75.84.18,1.39.9.24-.05.44-.52.68-.5-.08-.11-.4-.39-.64-.67-.15-.18.29-.41.38-.62-.18-.1-.32.25-.51-.03.32-.26,1.01-.58,1.08-.97-.53.05-.99.93-1.51,1.01Zm-.98-.42c-.15.23-.33.07-.51-.03.15-.23.33-.17.51.03Z"/>
    <path class="cls-20" d="m343.6,677.6c.11-.55.57-1.12.82-1.68-.17.17-.35.35-.54.54-.13.13-.26.26-.39.4-.1.1-.2.21-.3.32-.11.12-.22.24-.33.36-.53.58-1.03,1.19-1.41,1.77-.19.29-.35.56-.46.82-.02.06-.05.11-.07.17-.11.26-.8,1.25-1.35,2.07-.34.51-.63.95-.68,1.11.47.55.38,1.46.6,2.07-.33.32-.45.62-.65.93-.18-.42-.32-.85-.4-1.28.26-.03.53-.1.76-.43-.09-.17-.26-.58-.52-.7-.1.3-.2.61-.29.92.01.02.02.05.03.07-.02.01-.05.03-.07.05-.02.05-.03.1-.05.16-.09.39-.17.77-.23,1.16.13-.21.21-.46.27-.62.3.34.35,1.33.24,1.95.23-.07.46-.22.71-.06-.32-.28-.2-.73-.43-.91.29-.31.61-.24.9-.59-.02-.74-.93-2.13.22-2.5.24-.17-.42-.25-.18-.42.46.07.78-.19,1.38-.05-.02.2-.37.63-.74.72.28.39.51.24.74.08.2.28.5.6.89.21-.88-.85-.62-1.79-.82-2.7.45-.45.94-.41,1.41-.56-.08.37-.54.78-.12,1.1.3-.42.62-.7.95-.81.75-.05,1.05.43,1.56,1.18.29-1.09-.55-.83-.94-1.59.27-.23.58.01.87-.08-.17-.67-.46-1.32-1.04-1.95l.46-.55-.79-.66Zm-2.76,5.05c-.2.25-.41.3-.62.42-.35-.26-.15-.5-.64-.67.25-.25.47-.69.74-.72.43.3.39.65.52.97Zm3.19-2.68c-.13.3.18.57-.07.88-.46-.07-2.2-.11-2.07-1.2.75.56,1.4-.11,2.14.32Zm-.47-1.2c-.38,0-.7-.62-.59-.9.29.29.87.56.59.9Z"/>
    <path class="cls-5" d="m358.45,668.36s-.07-.06-.09-.1c.03,0,.06-.01.08-.02.03.04.04.07,0,.11Z"/>
    <path class="cls-5" d="m359.1,668.12c.05,0,.1-.02.15-.02.02.01.03.03.06.04-.06.05-.14.03-.21-.02Z"/>
    <path class="cls-17" d="m338.34,685.78c-.06.17-.14.41-.27.62-.06.32-.1.64-.15.97.05-.14.12-.27.23-.41.56.63-.33,1.39-.26,2.06-.06.05-.12.03-.18,0-.02.25-.05.51-.06.77,0,.03-.01.06-.02.09.01.02,0,.06-.02.12,0,0,0,0,0,0-.02.11-.03.23-.05.38-.02.17-.04.35-.06.53-.02.29-.05.3-.06.44,0,.05,0,.12,0,.23,0,.18.02.48.08.98.02.17.04.33.07.55l.02.23s0,.06,0,.09c0,.1.02.21.03.31.14-.1.29-.22.43-.28l.07-.08c.07-.05.14-.01.21-.09.2.13.29.27.33.41.36-.18-.23-.27-.04-.43.12,0,.24-.04.36-.1.51-.04-.25-.29-.12-.5l-.39-.33.13-.16c.12,0,.23-.18.36-.1.11-.18-.33-.31-.12-.5.32.04.3.35.66.02-.07.32.13.33.39.33.04-.34-.18-.66-.23-1,.35-.37.93,0,1.04-.6.4-.08.4.49.79.66.1-.63.8-1.66.05-1.97-.28.29.13.52-.15.81-.07.05-.14.01-.21.09-.44-.64.03-1.36-.76-1.97.13-.56,1.3-1.91,1.99-1.41.24-.36.39-.71.49-1.06.75-.33,1.51-.47,2.28-.64.21-.31.03-.59-.08-.87.13-.16.3.08.42-.18-.26.03-.15-.23-.47-.4,0-.32.23-.65.42-.98-.12-.5-.12-1.01-.35-1.5l-.16-.13c-.28.09-.6-.15-.87.08.39.76,1.23.51.94,1.59-.51-.74-.81-1.22-1.56-1.18-.33.12-.65.39-.95.81-.42-.33.04-.73.12-1.1-.47.15-.96.11-1.41.56.2.91-.06,1.85.82,2.7-.4.39-.69.07-.89-.21-.23.16-.46.31-.74-.08.37-.09.72-.52.74-.72-.6-.14-.92.12-1.38.05-.24.17.42.25.18.42-1.14.37-.24,1.75-.22,2.5-.29.35-.61.28-.9.59.23.17.11.62.43.91-.25-.16-.48,0-.71.06.11-.62.05-1.61-.24-1.95Zm5.18-4.1c.14.13.22.27.18.42-.2-.13-.28-.27-.18-.42Zm-3.94,2.46l.26-.31c.32.17.34.36.05.58l-.31-.26Zm.19,5.52c.2.15.39.31.41.47-.15.29-.07.2-.33.39-.4-.26-.3-.56-.08-.87Zm-1.28-1.34c-.16.92-.14-.24,0,0h0Zm.16.13s.07.07.08.07c.74-.02-.46.26-.08-.07Z"/>
    <path class="cls-5" d="m354.14,669.63c-.3.1-.6.21-.89.31-.2.07-.39.14-.58.21.17.42.33.9.85,1.05-.63.58-1.3.7-2.05-.11-.46.55-.95.86-1.4,1.51-.34-.28-.65-.24-1-.57-.65.21-1.6,1.01-1.95,1.85-.18-.02-.38-.16-.56-.19-.07.07-.14.14-.21.21-.12.13-.25.26-.37.4-.14.16-.28.32-.43.49-.03.04-.08.09-.14.15-.05.05-.1.1-.16.16-.13.13-.29.29-.48.47-.11.11-.23.23-.36.36-.26.56-.71,1.14-.82,1.68l.79.66-.46.55c.59.63.88,1.28,1.04,1.95l.16.13c.08-.2-.03-.39-.19-.57.29,0,.58-.04.88.07-.06-.35.16-.44.45-.69l-.08-.07c-.08-.06-.14.05-.21.09-.3.44-1.04.3-1.17-.04.02-.29-.01-.58.21-.89.24-.13.21.36.55.46.37-.02.39-.4.83-.51.18.34-.13.44-.16.67l.08.07c.32.11.31-.53.86-.22.12-.57.88-1.19.65-1.73-.34-.04-.66.26-1.01.09-.35-.37-.34-1.08-.97-1.08-.31.4.55.49.23,1-.51-.08-.38-.84-.76-1.17.64-.25,1.13-.98.89-1.53.47.27-.03.63.44.91.26-.22.25-.41.38-.62.13-.18.31.2.46.25.22.27-.37.61-.21.89.3-.22.62-.13.97.28.47-.05.48-.47.87-.88.33.24-.04.54.29.78.61.35,1.16-.05,1.77.28.33.58-.18,1.23-.49,1.86-.54.13-1.08-.9-1.48-1.11-1.2.98-.63,2.46.66,2.57.18-.45-.38-.1-.62-.38-.2-.53.65-.77.94-.96.43.16.16.76.35.7.59-.02.51-.57.85-1.17.67-.23,1.94-.26,2.08-1.2.18-.2.4.12.59.09.21-.36.45-.39.67-.64-.18-.25.11-.54-.29-.78,1.02-.59,1.19-1.65,2.15-2.08.1.38.09.77-.04,1.17.64-.28.29-1.48.07-1.68.31.03.91-1.18,1.56-1.37.34.19-.46.47,0,.8.09-.18.29-.24.21-.09.19.14.06-.28.33-.39l-.55-.46c.25-.25.47-.69.74-.72.6.38.67.82,1.13,1.21.21-.34.46-.27.67-.64-.37-.15-.45-.19-.68-.3.89-.74,2.12-1.81,2.74-2.79-.16-.19-.29,0-.46-.25l-.07.08c-.16.1-.29.54-.47.41.16-.14.19-.26.04-.37l-.4.47s-.03.05-.06.07c0,0,0,0,0,0-.02.02-.04.05-.07.07h0s0,0,0,0c0,0,0,0,0,0-.08.07-.17.15-.28.22,0,0,0,0-.01,0-.02.01-.04.03-.07.04-.01,0-.02.01-.03.02-.02.01-.04.02-.06.03-.01,0-.03.01-.04.02-.02,0-.04.02-.06.03-.02,0-.03.01-.05.02-.02,0-.03.01-.05.02-.03,0-.05.02-.07.02-.01,0-.02,0-.03.01-.04.01-.07.02-.11.03-.01,0-.02,0-.03,0-.02,0-.05,0-.07.01-.01,0-.03,0-.04,0-.02,0-.05,0-.07,0-.01,0-.03,0-.04,0-.02,0-.04,0-.07,0-.01,0-.02,0-.04,0-.02,0-.05,0-.07-.02-.01,0-.02,0-.03,0-.03-.01-.06-.02-.09-.04-.04.04-.09.08-.14.01-.09.2-.53.43-.38.62.24.28.57.56.64.67-.24-.02-.45.45-.68.5-.55-.72-1.25-.15-1.39-.9-.11.16-.23.1-.34.25.43.34.33.76.86.73-.52.66-1.08,1-1.6,1.74-.64-.45-.71-1.01-1.02-1.66-.31.07-.61.24-.93.15.11-.61-.6-1.15-.71-1.74Zm5.87.71c.49-.53.95-1.35,1.49-1.3-.51.29-.96,1.2-1.49,1.3Zm-.3-.12l.46-.55.16.13c-.21.13-.37.73-.62.42Zm-14.97,8.74c-.13.21.15.38-.09.59-.24-.25-.43-.5-.43-.76.19.26.33-.09.53.17Zm7.82-4.69c-.23.34.39.6.44.91-.66-.02-1.23.91-1.91.68.97-.89-.08-1.6.3-2.43.35.46.69.7,1.17.84Zm1.94-2.79c-.18.19-.37.21-.58.05.08-.21.01-.52.32-.54.29.14-.03.34.26.49Z"/>
    <path class="cls-5" d="m353.98,669.57s.08-.06.14-.09c0,.04,0,.08.01.12-.18.05-.28.07-.16-.03Z"/>
    <polygon class="cls-5" points="361.26 668.84 361.26 668.84 361.26 668.84 361.26 668.84 361.26 668.84"/>
    <path class="cls-23" d="m367.11,667.87s.07.01.11.02c.08.02.16.04.24.05.08.02.15.04.23.06-.1.08-.19.16-.29.23-.16-.12-.21-.24-.29-.36Z"/>
    <path class="cls-23" d="m361.39,668.68s-.03.05-.06.07c0,0,0,0,0,0-.02.02-.04.05-.07.07h0l.13-.15Z"/>
    <path class="cls-23" d="m366.7,667.79s-.04,0-.07-.01c-.17-.03-.34-.06-.53-.08-.1-.01-.2-.03-.3-.04-.07,0-.14-.02-.21-.03-.12-.01-.25-.03-.38-.04,0,0,0,0,0,0-.05,0-.11-.01-.17-.02,0,.05,0,.09-.04.14-.14.29-.33.12-.47.41-.14-.2-.25-.4-.38-.61-.05,0-.09,0-.14,0-.32,0-.64.02-.96.03-.25-.02-.6-.04-.89-.03-.1,0-.19,0-.27.02-.05,0-.1.01-.15.02.06.01.1.02.12.03.06.02.04.03-.03.04-.07.01-.21.02-.36.02-.36.01-.83.04-.98.09-.03,0-.06.02-.08.03,0,0,0,0,0,0-.02,0-.04.01-.07.02-.12.04-.24.08-.35.12-.03.01-.05.02-.08.03-.03.01-.06.02-.08.04-.01.02-.19.05-.5.1-.02.02-.04.04-.06.06-.06.05-.14.03-.21-.02,0,0,0,0-.01,0-.19.03-.41.07-.64.12.03.04.04.07,0,.11.09.11.06.24.25.34.66-.5,1.35-.63,2.05-.69-.28.19.16.33.12.5-.32.55-.69.45-1.03.75.03.02.06.03.09.04.01,0,.02,0,.03,0,.02,0,.05.01.07.02.01,0,.02,0,.04,0,.02,0,.04,0,.07,0,.01,0,.03,0,.04,0,.02,0,.05,0,.07,0,.01,0,.03,0,.04,0,.02,0,.05,0,.07-.01.01,0,.02,0,.03,0,.03,0,.07-.02.11-.03.01,0,.02,0,.03-.01.02,0,.05-.02.07-.02.02,0,.03-.01.05-.02.02,0,.03-.01.05-.02.02,0,.04-.02.06-.03.01,0,.03-.01.04-.02.02-.01.04-.02.06-.03.01,0,.02-.01.03-.02.02-.01.04-.03.07-.04,0,0,0,0,.01,0,.11-.07.21-.14.28-.22,0,0,0,0,0,0h0c-.04-.06-.07-.13-.08-.19,0,0,0-.01,0-.02,0-.03-.01-.05-.01-.08,0,0,0-.01,0-.02,0-.03,0-.05,0-.08,0,0,0-.01,0-.02,0-.13.04-.26.1-.39.38-.18.73,0,.96.13l.07-.08c.17.25.3.06.46.25-.62.98-1.86,2.05-2.74,2.79.24.12.32.16.68.3-.21.38-.46.3-.67.64-.46-.4-.52-.83-1.13-1.21-.26.03-.49.47-.74.72l.55.46c-.27.11-.14.53-.33.39.08-.15-.12-.09-.21.09-.46-.33.35-.62,0-.8-.64.19-1.24,1.41-1.56,1.37.22.2.57,1.4-.07,1.68.14-.4.15-.79.04-1.17-.96.44-1.13,1.49-2.15,2.08.4.23.11.52.29.78-.22.26-.46.28-.67.64-.19.03-.41-.29-.59-.09-.14.94-1.41.97-2.08,1.2-.34.6-.25,1.15-.85,1.17-.19.06.08-.54-.35-.7-.29.19-1.14.42-.94.96.24.29.79-.07.62.38-1.29-.11-1.86-1.58-.66-2.57.41.21.94,1.24,1.48,1.11.31-.63.82-1.29.49-1.86-.61-.33-1.16.07-1.77-.28-.33-.24.04-.54-.29-.78-.39.41-.4.83-.87.88-.35-.41-.68-.5-.97-.28-.15-.28.43-.62.21-.89-.15-.05-.33-.43-.46-.25-.13.21-.12.4-.38.62-.47-.27.03-.63-.44-.91.24.56-.25,1.28-.89,1.53.37.33.25,1.09.76,1.17.32-.51-.55-.6-.23-1,.63,0,.62.71.97,1.08.35.17.67-.13,1.01-.09.23.54-.53,1.16-.65,1.73-.55-.31-.53.33-.86.22l-.13.16.08.07c-.29.25-.51.35-.45.69-.3-.1-.59-.07-.88-.07.16.18.27.36.19.57.23.49.23,1,.35,1.5.29.03.58-.05.87-.08.13-.57,0-.98-.19-1.37,1,.02,1.38.97,2.1,1.49.19-.26.34-.52.08-.74.27.04.77.03.76-.43.59-.23,1.23.15,1.8-.23.29-.29.12-.55.15-.81.07-.05.14-.01.21-.09.37.04.78.6,1.14.56-.14-.23.61-.54.23-.75.6-.05,1.19-.23,1.76-.66l.13-.16-.24-.2c-.1-.06-.13-.13-.09-.21l-.08-.07c.69-.71,1.34-1.88,2.07-2.15.26-.09.54.02.8,0,1.05-.22,1.23-1.34,1.94-1.99-.2-1.07,1.9-1.9,2.38-2.83l.07-.08c-.76-.61.79-.51,1.18-.61.31.14.14.33.12.5.7-.08,1.32-1.05,1.96-1.7-.31-.23-.58.02-.89-.21-.07-.36.48-.55.66-.79.31-.05-.04.58.29.78.58.04,1.21,1.02,1.88-.16,0,0-.11-.13-.01-.14-.16-.18-.19-.37-.48-.54-.1-.06-.13-.13-.09-.21.23-.38.49-.46.73-.71Zm-16.18,10.66c-.08-.09-.23-.17-.17-.28.13.08.24-.02.37.04l-.2.24Zm.11,2.1c-.63.86-1.39.26-2.05.69-.33-.81-1.08-.62-1.72-.51.32-.38,1.02.06.87-.88.97.26,1.9.11,2.9.69Zm-.32-1.21c-.33.38-.69.39-1.08.17.36-.38.71-.76,1.12-.54-.04.12-.07.25-.04.37Zm5.13-3.87c.11.09.14.18.17.28-.23.12-.44.48-.71.21.18-.21.35-.47.54-.48Zm1.63-.51c.33-.58.39.03,0,0h0Zm.98-2.13c-.73.61-.14,1.11-.02,1.46-.65.24-.53-.55-.67-.96.22-.22.43-.68.69-.5Zm5.07-3.65c.05.17-.13.73-.45.7.09-.18.12-.73.45-.7Z"/>
    <polygon class="cls-23" points="361.26 668.84 361.26 668.84 361.26 668.84 361.26 668.84"/>
    <path class="cls-5" d="m338.14,697.18s0-.03,0-.04c.01,0,.02.02.04.02,0,0-.02.01-.03.02Z"/>
    <path class="cls-5" d="m344.02,679.96c-.74-.43-1.39.24-2.14-.32-.13,1.09,1.62,1.14,2.07,1.2.24-.31-.06-.58.07-.88Zm-.04.37c-.11.69-1.28.23-1.46-.02.49.05.94-.36,1.46.02Z"/>
    <path class="cls-22" d="m356.18,676.5c-.68.55-1.33,1.46-1.99,2.21l-.08-.07c.69-.71,1.34-1.88,2.07-2.15Z"/>
    <path class="cls-22" d="m358.92,674.51c-.2-1.07,1.9-1.9,2.38-2.83-.18.25.78.31,1-.23-.33-.11-.64-.09-.93.15-.76-.61.79-.51,1.18-.61.31.14.14.33.12.5.7-.08,1.32-1.05,1.96-1.7-.31-.23-.58.02-.89-.21-.07-.36.48-.55.66-.79.31-.05-.04.58.29.78.58.04,1.21,1.02,1.88-.16,0,0-.11-.13-.01-.14.44.86-1.15,1.41-1.65,1.97-.16.1-.37-.32-.53-.17-.05,1.23-1.91,1.96-2.43,3.05-.27-.34-.27-.4-.6-.24.25-.31-.55-1.07-.88-.87-.15.5-.98,1.06-.31,1.48.22-.23.43-.62.67-.64.6.29.14.67.67.96-.45.64-.97.56-1.47.64-.53.58-1.04,1.45-1.62,1.45.09-.47.98-1.01.39-1.42-.56.82-1.16,1.17-1.8,1.03,1.05-.22,1.23-1.34,1.94-1.99Z"/>
    <path class="cls-5" d="m365.02,667.71c-.14.29-.33.12-.47.41-.14-.2-.25-.4-.38-.61.06,0,.12,0,.18,0,.17.01.34.03.5.04.07,0,.14.01.21.02,0,.05,0,.09-.04.14Z"/>
    <path class="cls-23" d="m337.73,694.73c-.02-.13-.03-.26-.04-.38l.25.21c-.09.06-.16.12-.21.17Z"/>
    <path class="cls-23" d="m337.95,696.21c.04.24.09.48.14.72.01.07.03.14.04.2.01,0,.02.02.04.02,0,0-.02.01-.03.02.02.08.03.16.05.24l-.17.12c.16.64.27.97.36,1.29,0,0,0,0,0,0l.55.46c.26-.07.5-.42.78-.29-.05.27-.19.14-.11.45l-.07.08.08.07c-.12.26-.29.02-.43.04-.13-.22-.57,0-.46-.25-.04-.06-.12-.12-.21-.17.02.05.04.09.05.14.01.03.03.06.04.1,0,0,0,0,0,.01.01,0,.03,0,.04,0,0,0-.02.02-.03.03.05.12.1.23.14.35.04.1.08.2.13.3.03.08.06.16.09.23.06-.04.11-.07.17-.08.23.37.55.73.68,1.11l-.26.31c.15.35.28.64.39.9.06.14.11.28.16.4.2.51.36.93.68,1.52.03.04.06.09.09.15.2.31.52.82.97,1.46.12.16.24.34.37.52.06.08.12.16.18.25.44.59.96,1.24,1.57,1.92.01.01.02.02.03.04.29-.31.31-.38.64-.46,1.09-2.03,1.73-3.59,1.85-5.55-.12-.02-.23.11-.37-.04-.09.4-.06.78-.33,1.19-.16-.11-.39-.9.12-1.1-.32.19-.68-.06-.99.38-.15-1.18-.82-2.31-2.1-3.24-.8-.58-1.8-.58-2.16-1.41.28-.1.45-.15.54-.48-.71-.36-1.4-.47-2.1-.69-.18-.26.28.04.34-.25-.02-.34-.31-.05-.52-.17.22-.58.03-1.12.51-1.72-.59-.46-.68.34-1.31-.03.51.82.29,1.12-.2.95Zm4.46,5.31c-.41.4.33.7.02,1.09-.33-.46-.99-.06-1.29-.54.4-.47.79-.97,1.26-.55Zm.82-.65c-.1-.36.57.09.39.33-.16.16-.15.3.04.43.05.04.1.07.14-.01l-.08-.07c.38-.53.69.48.33.41-.36.28-.77.06-1.19-.33.21-.26.03-.49.37-.76Z"/>
    <path class="cls-23" d="m338.3,693.65c-.5.12-.19.37-.62.61,0-.07-.02-.14-.02-.22-.01-.1-.02-.21-.03-.32.14-.1.29-.22.43-.28l.24.2Z"/>
    <path class="cls-6" d="m338.52,693.71c-.02-.19-.21-.34-.39-.33.07-.05.14-.01.21-.09.2.13.29.27.33.41-.04.04-.09.08-.14.01Z"/>
    <path class="cls-6" d="m339.21,693.21c-.08-.07-.15-.01-.22-.05.51-.04-.25-.29-.12-.5.21.18.5.34.34.55Z"/>
    <path class="cls-6" d="m345.52,683.77c-.12.26-.29.03-.42.18.11.28.29.56.08.87-.76.17-1.53.3-2.28.64-.1.35-.25.7-.49,1.06-.69-.49-1.86.85-1.99,1.41.79.61.31,1.33.76,1.97.07-.08.14-.04.21-.09.28-.29-.13-.52.15-.81.76.31.05,1.35-.05,1.97-.39-.17-.39-.74-.79-.66-.11.59-.69.24-1.04.6.05.34.28.66.23,1-.27,0-.46-.01-.39-.33-.35.33-.34.03-.66-.02-.22.19.23.32.12.5-.13-.07-.23.1-.36.1.27,0,.46.01.39.33.42-.59.88-.1,1.05.35-.52.47-.54-.12-.89-.21.28.17-.02.39.34.55.36-.3.77-.05,1.13-.39l.47.4c.21.13.4.12.62.38.07-.05.14-.01.21-.09-.03-.02-.05-.04-.08-.07.11-.18.22-.23.36-.1l.31.26c.2-.2.43-.05.66.02-.24-.19.09-.2.41-.33.25-.08.63-.22.46-.55.11-.15.24-.08.34-.25.25-.21.56.34.8,0,.26.29.23.61.59.9.24-.06.47-.19.7-.35.13-.22.29-.05.41-.33-.25-.34-1.2-.62-.6-1.04-.67-.21-1.3.14-1.97-.05.28-.75.44-1.5.97-2.27.34-.15.67.38.79.66.19,0,.38-.15.55-.34-.01-.19-.28-.36-.48-.54.7-.83,1.01-1.05,1.7-1.39.19.17.12.35.39.33.17-.8.69-.58,1.2-1.27-.13-.18-.06-.38-.34-.55-.26.24-.34.47-.45.69-.14-.3.11-.64.13-.96-.08-.21-.29-.41-.42-.62-.15-.27-.26-.36-.55-.46-.07.07-.15-.02-.22-.05-.3.5-.65.39-.99.38-.03-.12,0-.24.04-.37-1.05.17-.4-.7-1.11-1.07Zm-.28,2.57c-.13.23-.19.45-.16.67-.43.03-.92.7-.35,1.05-.69,1.01-1.08,1.74-2.07,2.15.14-.93-.78-1.92-1.79-2.17.89-1.29,2.61-.15,3.7-1.85.23.14.43-.04.67.16Zm2.67.5c-.46-.09-1.06-.71-.82-1.09.47.09.83.73.82,1.09Z"/>
    <path class="cls-20" d="m345.97,679.72c-.41-.16-1.01-.25-1.17-.04.02-.29-.01-.58.21-.89.24-.13.21.36.55.46.37-.02.39-.4.83-.51.18.34-.13.44-.16.67l.08.07-.13.16c-.08-.06-.14.05-.21.09Z"/>
    <path class="cls-20" d="m338.49,688.32c-.16.92-.14-.24,0,0h0Z"/>
    <path class="cls-5" d="m356.45,670.43c-.13-.64-.66-.95-.8-1.48.03,0,.05-.01.08-.02.1.29.55.56.73.84.08-.28-.12-.71-.45-.91.04-.01.08-.02.12-.03.51.42.66,1.06.32,1.6Z"/>
    <path class="cls-22" d="m353.9,680.48c-.26-.37.47-.82.48-1.21-.57.43-1.16.62-1.76.66.38.21-.37.52-.23.75-.36.04-.77-.52-1.14-.56-.07.08-.14.04-.21.09-.02.27.14.52-.15.81-.57.38-1.21,0-1.8.23,0,.46-.5.47-.76.43.26.22.11.48-.08.74-.72-.52-1.1-1.47-2.1-1.49.2.39.32.79.19,1.37-.29.03-.57.11-.87.08-.19.33-.42.67-.42.98.33.16.21.43.47.4.71.37.06,1.24,1.11,1.07-.04.12-.07.25-.04.37.34.02.69.12.99-.38-.16-.19-.26.39-.43.04.09-.18.55-.22.43-.04.08.03.16.13.22.05.15-.21.33-.14.5-.12.16-.06.33-.15.51.03.13-.11.04-.2.12-.3.44,0,.89.24,1.31.03.47-.7.22-1.33.48-2.01.39-.19.95.63.81.95.38.12.73.03,1.08-.17.12-.23.27-.46.02-.66.27-.28.58-.08.84-.37-.66-.51.09-1.42.43-1.79Zm-5.52,3.54c.17-.32.56-.05.38.19-.13-.14-.25-.06-.38-.19Zm-.46-1.05c-.13.13-.08.25.1.36-.25.17-.06.3-.25.46-.28-.17-.16-.37-.48-.54.19-.29.42-.22.63-.27Zm3.8-.7c-.68-.18-.9-.97-.2-1.51.8.44.52.97.2,1.51Z"/>
    <path class="cls-8" d="m347.15,684.86c.09-.18.55-.22.43-.04-.16-.19-.26.39-.43.04Z"/>
    <path class="cls-22" d="m348.58,681.24c-.33-.81-1.08-.62-1.72-.51.32-.38,1.02.06.87-.88.97.26,1.9.11,2.9.69-.63.86-1.39.26-2.05.69Z"/>
    <path class="cls-22" d="m344.09,701.6c-.1-.07-.21-.13-.29.03l-.08-.07c.38-.53.69.48.33.41.04-.12.07-.25.04-.37Z"/>
    <path class="cls-22" d="m343.23,700.87c-.1-.36.57.09.39.33-.18-.07-.13-.5-.39-.33Z"/>
    <path class="cls-22" d="m337.68,694.26s0,.06,0,.09l.25.21c-.09.06-.16.12-.21.17.02.13.03.26.05.4.05.36.11.72.17,1.09.49.18.71-.12.2-.95.63.37.73-.43,1.31.03-.48.6-.28,1.14-.51,1.72.21.12.5-.17.52.17-.06.28-.52-.01-.34.25.7.22,1.39.33,2.1.69-.09.34-.26.38-.54.48.37.83,1.36.83,2.16,1.41,1.28.93,1.95,2.06,2.1,3.24.3-.43.66-.19.99-.38-.51.21-.28,1-.12,1.1.27-.41.24-.8.33-1.19.14.15.25.02.37.04-.11,1.96-.76,3.53-1.85,5.55-.33.08-.36.15-.64.46.22.24.44.49.68.73.05.06.11.11.16.17.05.05.11.11.16.16.05.05.1.1.15.15.75-.67,1.2-2.31,2.38-2.73.09.19.18.37.34.55-.14-.83,1.14-.7,1.24-.84.17-.24-.17-.89.03-1.31.3-.65.74-.78,1.33-1.43.26-.44-.23-.81.4-1.27-.12-.16-.06-.34-.26-.49-.14-.18-.24-.01-.36.1-.23-.34-.39-.69-.46-1.05-.45.1-.93-.04-1.37.19.05-.42.73-.89.83-1.31-.11-.33-.46-.64-.67-.96-.23.38.19.71.02,1.09-.59-.31-.75-1.29-1.4-1.84-.15-.22.32-.09.41-.33-.12-.21-.17-.42-.42-.62-.06.13.03.24-.04.37-.7-.6-1.84-1.05-2.77-1.65-.1-.2.41-.21.55-.34.25.36.54.62.91.36-.32-.38-.61-.3-.93-.65-.17.25-.38.09-.55.34-.7-.53-.59-.87-1.35-1.27.23-.39.52-.16.76-.43-.56-.03-1.17-.66-1.73-.65-.03-.15.23-.18-.18-.42-.07.08-.14.04-.21.09-.22-.26-.41-.25-.62-.38-.06.25.27.46.21.71-.47.23-1.02-.5-1.45.13.15.08.07.19.17.28l.08.07c.1.39-.29.52-.64.13-.31-.15-.22-.07-.25-.34-.32-.36-.55.4-.87.08,0-.17.17-.35.17-.52-.02-.19-.21-.34-.39-.33l-.07.08.24.2c-.5.12-.19.37-.62.61Zm1.82.67c-.31,0-.6.04-.62-.38.15-.02.68.06.62.38Zm2.2,1.05c-.22-.01-.41.29-.64.13.06-.15.05-.3.11-.45.13.05.64.2.54.32Zm1.52.74c-.05.46-.63.83-.97.52.04-.57.66-.42.97-.52Zm1.98,1.79c-.2-.13-.28-.27-.18-.42.2.13.28.27.18.42Zm.54.32c.22-.03.37.21.33.41-.08-.14-.48-.25-.33-.41Zm-2.2-1.05c.07-.39.56-.09.45.11-.17-.24-.29.02-.45-.11Zm5.36,4.63c.17-.36.61-.4.43-.04-.18-.36-.27.23-.43.04Zm-.88-.87c-.06.32-.03.63-.13.96-.52-.24-.38-1.08.13-.96Zm-1.43-.53l-.13.16c-.3-.04,0-.46.12-.3-.04.05-.07.1.01.14Zm-2.65-1.95c.73-.66,1.8,1.06,1.43,1.33-.3-.45-.86-1.13-1.43-1.33Z"/>
    <path class="cls-22" d="m346.1,710.38c-.03.13-.08.27-.13.42-.16-.15-.33-.3-.49-.45-.04-.04-.08-.08-.12-.12.12-.04.23-.12.35-.17l.39.33Z"/>
    <path class="cls-22" d="m339,692.5l.16.13c.28.17-.02.39.34.55-.05.18-.44.21-.29.03.16-.21-.13-.38-.34-.55l-.39-.33.13-.16c.27,0,.46.01.39.33Z"/>
    <path class="cls-21" d="m345.2,710.07c.05.05.1.1.16.16.12-.04.23-.12.35-.17l.39.33c-.03.13-.08.27-.13.42.07.06.13.12.2.18.28.25.56.5.86.74.06.05.12.1.18.15.09.07.17.14.26.21.04.03.07.06.11.08.09.07.18.14.27.21.07.05.14.11.21.16.05.04.1.07.15.11.1-.91.04-1.77,1.37-1.62.44-.55.36-1.05.95-1.61.29.27.02.58.37.84.55.42,1-.24,1.5-.35-.14-.45-.9-.87-1.21-.48-.08-.11,0-.24-.1-.36,1.17-.44,2.03-1.73,3.36-1.61.21-.26.03-.49.37-.76-.5-.25-.21-.56-.65-.82-.34.3-.17.93-.71,1.01-.34-.24.18-.55.15-.81-.33-.4-.58.06-.88-.07-.24.31.06.58-.07.88-.12.26-.29.03-.42.18-.16-.45,0-.92.1-1.39.52-.13,1.09.22,1.6,0,.24-.22-.04-.39.09-.59-.32-.01-.63-.02-.96-.13-.22-.26.04-.82-.37-.84.22-.21.46-.29.7-.35.04.17.23.32.12.5,1.54.51,2.97-.03,4.15,0-.03-.02-.05-.04-.08-.07-.8-.05,0-.87.11-1.25-.16.33-.27-.09-.24-.2-.43,0-.47-.5-.86-.73.07.82-.89.53-1.39-.1-.26.35-.54.5-.82.65l-.39-.33c.4-.17.8-.32,1.16-.9-.13-.23-.19-.47-.5-.69-.65.55-1.94.57-1.9,1.62-.24-.53-.38-1.22-1.11-1.07-.18-.25.2-.55-.14-.79-.47-.13-.91.19-1.37.19-.13-.69.53-1.45.61-2.17-.12,0-.23.18-.36.1-.26.04-.51.33-.76.43-.21-.44.1-.93.1-1.39.2-.17.41-.27.63-.27.06-.1-.09-.19-.17-.28.32-.12.71-.37.8-.8-.57-.19-1.32-.94-1.36-1.41-.31-.08-.23.4-.32.54-.36.06-.53-.23-.77-.52.32-.28.67-.11.97-.52.03-.42-.37-.35-.72-.74-.37.17-.38.63-.42.98-.21.04-.47-.54-.86-.73l-.07.08-.26.31c-.25.42-.55.42-.83.51-.14-.13-.22-.27-.18-.42-.17-.3-.19-.61-.44-.91l-.08-.07c-.39.09-.93.65-1.16.1-.14.29-.33.12-.47.41-.18-.21.02-.65-.42-.62.18.35-.31.31-.16.67-.3-.13-.58,0-.91-.36l-.31-.26c-.09.03-.19.06-.28.17.42.24.15.28.18.42.56,0,1.17.62,1.73.65-.24.27-.53.04-.76.43.76.39.65.74,1.35,1.27.17-.25.38-.09.55-.34.32.35.61.27.93.65-.36.27-.66,0-.91-.36-.14.13-.66.14-.55.34.92.6,2.07,1.06,2.77,1.65.08-.13-.02-.24.04-.37.25.2.29.41.42.62-.09.24-.56.11-.41.33.65.55.81,1.53,1.4,1.84.17-.38-.25-.71-.02-1.09.21.32.56.63.67.96-.1.42-.78.89-.83,1.31.44-.23.91-.09,1.37-.19.07.36.22.71.46,1.05.11-.12.22-.28.36-.1.21.15.14.33.26.49-.63.47-.14.84-.4,1.27-.59.64-1.03.78-1.33,1.43-.2.43.14,1.07-.03,1.31-.1.14-1.38,0-1.24.84-.16-.18-.25-.37-.34-.55-1.18.42-1.63,2.06-2.38,2.73Zm10.91-6.83c.04.36-.4.76-.41,1.13-1.11-.6-.69-2.03.41-1.13Zm-3.56-.71l.63.53c-.21.38-.46.24-.68.5-.69-.42-.4-.61.06-1.02Zm-1.32.77c-.29-.24-.29-.51-.29-.78.18.25.35.5.29.78Zm-4.51,7.61c-.49-.42-.38-.89-.19-1.37.27-.01.57.38.85.58l-.66.79Z"/>
    <path class="cls-6" d="m339.78,693.96l.08.07c.15.08.07.19.17.28-.18.17-.4-.08-.57.2-.31-.15-.22-.07-.25-.34l.07-.08c.17.01.33-.08.5-.12Z"/>
    <path class="cls-17" d="m339.28,694.08c-.39-.47.46-.7.5-.12-.17.04-.33.13-.5.12Z"/>
    <path class="cls-8" d="m347.8,684.88c.15-.21.33-.14.5-.12-.01.2.06.38.05.58-.15-.27-.26-.36-.55-.46Z"/>
    <path class="cls-21" d="m354.92,683.75c-.15-.25-.34-.5-.43-.76-.26-1.2,1.53-1.42,2.25-1.73.25-.77,1.16-1.61,1.03-2.35-.57.42-1.14.84-1.75.81-.09-.11.1-.25.19-.38-.37-.04-.72.15-1.04.6-.09.08-.1.15-.05.22.15.33.32.32.63.53-.18.16-.36.27-.57.2.14-.11.06-.2-.03-.29-.13.14-.27.22-.42.18-.16.14-.33.08-.5.12-.08-.09.05-.2.12-.3-.17-.24-.29.02-.45-.11-.34.37-1.09,1.28-.43,1.79-.27.28-.58.08-.84.37.26.2.1.43-.02.66-.35.2-.7.29-1.08.17.14-.32-.43-1.14-.81-.95-.26.68-.01,1.31-.48,2.01-.42.21-.88-.03-1.31-.03-.08.1,0,.19-.12.3-.19-.18-.35-.09-.51-.03-.01.2.06.38.05.58.13.21.34.41.42.62l.08.07c.51-.18.52-.48.79-.94.34.95-.14,2.23-.89,3.14-.23.28-.93.25-.51.77.36-.3.74-.42,1.08-.97.51.44,0,.97-.31,1.48.4-.17.79-.39,1.17-.76.31.17.18.37.05.58.16.16.27-.25.41-.33.39.26.33.51.71.59.05.07.1.03.14-.01l-.08-.07c.01-.1.02-.2.12-.3.22,0,.44-.01.66.02-.19.21,0,.27-.26.31.44.05.86-.11,1.29-.26.02.22.21.42.13.64.33.09.78-.51.52-.77-1.05.43-1.83-.77-1.18-1.79.27-.26.58.01.85-.22.11-.79.35-1.58.38-2.36-.72.12-.46,1.2-1.08,1.77-1.23-.92.33-1.71.21-2.64.59-.48,1.3.46,1.88-.16Zm-4.47,4.69c-.15.19-.33.12-.47.41-.23-.34-.12-.72.12-1.1.33.21.24.46.35.7Zm.96-.67c.2.42.2.86-.03,1.31-.38-.23-.11-.53-.43-.76.28-.35.53-.1.46-.55Zm.23-.75c.28-.24-.12-.43.16-.67.26.15.11.71-.16.67Z"/>
    <path class="cls-16" d="m370.83,669.1c.2-.04.4-.12.59-.21-.1-.03-.2-.05-.3-.08-.03,0-.07-.02-.1-.03-.17-.04-.33-.08-.5-.11-.08-.02-.16-.03-.24-.05-.08-.02-.17-.03-.26-.05-.32.17-.63.34-.95.53,0-.2-.19-.37-.2-.57-.3.12-.59.43-.88.73-.19.03-.4-.08-.6-.24l-.33.39c.15.31.32.33.62.38-.57.96-1.85,1.06-2.67,1.91-.13.09-.07-.12-.24-.2-.23.6-.8.29-.82.65.17.25.3.06.46.25-.39.51-1.27.59-1.2,1.27-.37.14-.16-.37-.41-.47-.59.56-.76.82-1.33,1.43,1.12.31-.06,1.23-.59.71-1.35,1.66-3.18,1.73-4.28,3.51.42.16.76-.43.95-.81.25.27.27.56.22.85.12.74-.78,1.57-1.03,2.35-.73.31-2.51.53-2.25,1.73.33.12.65.26.98.42.13-.34.46-.4.11-.45.85-.52.99-.08,1.82-.89.07.65.78-.16,1.22-.18.1.57-.58.77-.32,1.34-.51-.1-1.23.25-1.46.78.22.05.55-.35.59.09.36-.82,1.74-.85,1.85-2.2.09-.08.12.02.08.07.37-.3.66-.88,1.32-.77.65-.75.9-1.37,1.43-2.02.41-.5.62-1.36,1.1-1.63-.02.1-.05.2.03.29l.08.07c.73-.5.71-.86,1.39-1.65l-.24-.2.33-.39c-.37.16-.37.1-.03-.29-.17-.28-.29.06-.42.18.32-1.31,1.77-.61,2.1-1.86-.63.02-.11-.71-.55-.46-.13-.21.34-.47.45-.69.91-.08,1.51-.32,2.15-1.28.86.16,1.62-.87,2.45-1.16-.65-.44-1.15.21-1.55.57-.01-.08,0-.32-.08-.33-.07.04-.12.09-.16.13.07-.09.12-.13.16-.13.42-.28,1.36-.62,1.54-1.26Zm-14.77,12.66c-.21.31-.34.61-.5.92-.45-.39.69-.82-.14-.79.21-.15.41-.35.64-.13Zm3.13-4.21l-.66.79c-.27-.32,0-.68.06-1.02.2.09.39,0,.6.24Zm1.74-.15c.03.15.15,1.07-.54.48.18-.12.34-.6.54-.48Z"/>
    <path class="cls-13" d="m369.08,669.1c.32-.19.63-.36.95-.53-.09-.02-.19-.04-.28-.06-.09-.02-.18-.03-.27-.05-.06-.01-.12-.02-.18-.03-.16-.04-.31-.07-.47-.1-.24-.09-.48-.16-.71-.23h0c-.14-.04-.27-.07-.41-.11-.1.08-.19.16-.29.23-.16-.12-.21-.24-.29-.36-.1-.02-.19-.04-.29-.06-.22.31-.55.93-.76.9.29.17.32.36.48.54.44.86-1.15,1.41-1.65,1.97-.16.1-.37-.32-.53-.17-.05,1.23-1.91,1.96-2.43,3.05-.27-.34-.27-.4-.6-.24.25-.31-.55-1.07-.88-.87-.15.5-.98,1.06-.31,1.48.22-.23.43-.62.67-.64.6.29.14.67.67.96-.45.64-.97.56-1.47.64-.53.58-1.04,1.45-1.62,1.45.09-.47.98-1.01.39-1.42-.56.82-1.16,1.17-1.8,1.03-.27.02-.54-.09-.8,0-.68.55-1.33,1.46-1.99,2.21-.03.08-.01.15.09.21.2-.17.41-.27.63-.27-.27.13-.24.59-.4.47l-.13.16c-.01.39-.74.84-.48,1.21.16.13.28-.13.45.11-.07.1-.2.21-.12.3.17-.04.34.02.5-.12-.02-.19.21-.41.38-.62-.05-.07-.04-.14.05-.22l-.08-.07c.07-.25-.06-.48.23-.75.37-.23.77-.07,1.16-.1l-.26.31c-.09.13-.27.27-.19.38.61.03,1.18-.39,1.75-.81.05-.3.03-.59-.22-.85-.19.38-.52.97-.95.81,1.1-1.78,2.94-1.85,4.28-3.51.54.53,1.72-.39.59-.71.57-.61.74-.87,1.33-1.43.24.11.03.62.41.47-.07-.68.81-.76,1.2-1.27-.16-.19-.29,0-.46-.25.02-.36.59-.05.82-.65.16.08.1.29.24.2.83-.84,2.1-.95,2.67-1.91-.29-.05-.47-.07-.62-.38l.33-.39c.21.16.41.27.6.24.29-.31.58-.61.88-.73,0,.19.2.37.2.57Zm-11.42,7.7c.29.74-1.03,1.17-1.22,1.93l-.55-.46c.58-.61,1.12-1.64,1.77-1.47Zm9.59-6.96c0,.09-.13.53-.33.39.1-.23-.08-.43.02-.66l.31.26Z"/>
    <path class="cls-13" d="m366.7,667.79s.06.01.09.02c0,0,.01,0,.02,0-.28.24-.55.59-.84.7.23-.38.49-.46.73-.71Z"/>
    <path class="cls-7" d="m359.68,702.35l.08.07c.24-.33.48-.58.75-.58.12.21-.03.44-.02.66.16.16.3.15.43-.04.04.48-.47,1.01-.6,1.51.94-.47,1.52-.73,2.34-1.52-.12-.02-.23.11-.37-.04l-.46.55-.39-.33c.2-.45.46-.26.7-.35.32-.51.97-.7,1.13-.39,0-.37.52-.27.78-.29l-.08-.07c.13-.14.27-.22.42-.18l-.26.31-.59.71c.08.04.05.09.01.14l.08.07c.11-.09.25.1.38.19.32-.33.76-.57.86-1.02.16-.18.32-.74.41-1.13.26-.37.58-.06.88.07.2-.17.41-.27.63-.27-.09.2-.05.39-.09.59.08.04.14-.01.22.05.42-.47-.13-.86-.4-1.28-.19.02-.34.21-.33.39l-.31-.26c.18-.19.38-.15.57-.2.09-.24-.59-.19-.2-.57-.42-.45-.68-.91-1.28-1.34.63-.58,1.32-.43,1.97-.76-.06-.27-.57-.33-.85-.58.27-.2.61.31.88.07-.72-.52-1.44-.93-2.15-1.27.09-.04.19-.08.29-.03.04-.32-.49-.15-.7-.45-.14.11-.06.2.03.29-.96-.12-2.01-1.36-2.89-.55.35.78,1.2.54,1.78,1.23-.12.3-.29,0-.45-.11.29.44.96,1.36,1.43,1.33-.71.3-1.74-.39-2.14-1.12-.67,0-.93.79-1.27,1.35-.74-.2-.91-1.09-.94-1.59.19-.37.46.29.67.16.1-.33.1-.69.44-.84-.46-.28.02-.63.28-.97-.7-.52-1.43-.69-1.59-1.46-.36.31-.75.3-1.14.25-.25.22-.15.4-.24.6l.08.07c-.61.05-1.1-.18-1.89-.78.01-.1.03-.2.12-.3l.07-.08-.55-.46c0,.17-.17.35-.17.53l-.86-.73c-.26-.12-.02-.29-.04-.43-.06-.74.74-.69,1.16-.9-.28-.12-.11-.28-.33-.41-.23.15-.47.17-.72.06.02-.29-.17-.57-.22-.85-.4-.15-.79-.11-1.16.1.27.27-.18.86-.52.77.08-.23-.11-.43-.13-.64-.42.15-.85.31-1.29.26-.05-.07-.1-.03-.14.01l.08.07c.54.28.42,1.21.09,1.81,0,.22.1.43.27.63-.56.52-.4-.6-.77-.52-.22.5-.19.58-.27,1.12-.13.18-.31-.2-.46-.25-.01.24-.12.5.21.71.17-.04.32-.23.5-.12.25-.22-.09-.38.24-.6.56.02.99.74,1.34,1.12.06.16-.1.35-.17.53-.24.26-.58-.5-.81-.15.5.4.62.51,1.01.71.06-.1.13-.13.21-.09.28-.29.17-.55.29-.83.07.72.55.9.93,1.45.22.33.15.59.35.7.85.46,1.55-.74,2.54-.15.32.31-.07.69.52.97.27,0,.48-.58.75-.58-.08.57-.38,1.15-.79,1.75-.59-.48-.14-1.06-.72-1.54-.05.65-1.41.99-1.14.25-.44.01-.88-.04-1.3.11.27.32.37.65.52.97.25.04.49.02.72-.06.12.21.17.42.42.62.3-.2-.14-.33-.26-.49.45-.12.91-.16,1.42.39-.31.1-.15.46.22.86-.12.28-.28.11-.41.33.6.51,1.21,1.07,1.78,1.23.19-.28.06-.54.15-.81.62.72,1.15.43,1.72.51.08.19.1.38.05.58-.17.28-.37.24-.57.2-.06.19.13.13.24.2-.17.07-1.23.52-.99,1.18Zm-6-9.46c-.07.1-.13.21.03.29-.44.23-.14.43-.46.55-.41-.19.21-.84.44-.84Zm9.79,2.86c.74-.41,1.57.21,2.35.23-.3.42-.66.18-.96.67-.39-.35-1.46-.35-1.39-.9Zm-11.01-5.89l.71.59c-.41.68-1.31-.07-.71-.59Zm9.94,9.55c.13-.2.27-.29.41-.33.28.32-.02.98-.27,1.12-.52-.37.35-.53-.14-.79Zm.39,1.93c-.04.05-.07.1.01.14l-.13.16c-.3-.04,0-.46.12-.3Z"/>
    <path class="cls-8" d="m343.58,693.26c.44-.03.24.41.42.62.15-.29.33-.12.47-.41.23.55.76-.01,1.16-.1l.08.07.07-.08c-.36-.28-.32-.6-.59-.9-.24.34-.55-.22-.8,0-.11.16-.23.1-.34.25.17.33-.21.47-.46.55Zm1.18.19c-.01-.19.14-.38.34-.25.01.19-.14.38-.34.25Z"/>
    <path class="cls-22" d="m338.63,699.48s0-.02-.01-.03c.01,0,.03,0,.04,0,0,0-.02.02-.03.03Z"/>
    <path class="cls-22" d="m338.94,699.28c.26-.07.5-.42.78-.29-.05.27-.19.14-.11.45-.08-.06-.14.05-.21.09-.32.05-.27-.49-.59-.09l-.08-.07c-.04-.06-.12-.12-.21-.17-.01-.03-.02-.06-.04-.09,0-.01-.01-.03-.02-.04-.02-.07-.05-.13-.07-.2,0-.01,0-.03-.01-.04,0,0,0,0,0,0l.55.46Z"/>
    <path class="cls-22" d="m339.62,699.58c-.12.26-.29.02-.43.04.11-.08.24,0,.36-.1l.08.07Z"/>
    <path class="cls-13" d="m339.4,699.53c.07-.05.13-.15.21-.09l-.07.08c-.11.1-.24.02-.36.1-.13-.22-.57,0-.46-.25l.08.07c.32-.4.27.14.59.09Z"/>
    <path class="cls-23" d="m341.71,695.98c-.22-.01-.41.29-.64.13.06-.15.05-.3.11-.45.13.05.64.2.54.32Z"/>
    <path class="cls-22" d="m366.06,668.71c-.1-.06-.13-.13-.09-.21.29-.1.56-.46.84-.7,0,0,0,0,.01,0-.22.31-.55.93-.76.9Z"/>
    <path class="cls-15" d="m364.47,681.31c.17-.19.33-.37.32-.54-.3.08-.17,0-.46-.25-.25.22-.15.4-.24.6-.1-1.41.8-2.93,1.24-4.19-.1-.05-.18.11-.29.03,0-.52.24-1.05.95-1.61.08.09-.05.2-.12.3.46-.07.42-.71.86-1.02-.06-.14,0-.29.11-.45-.25-.07-.44.47-.67.64.1.06.19-.09.28-.17.08.22-.42.68-.59.71-.09-.11.1-.25.19-.38-.43.11-.84.41-1.25.69l-.33.39.24.2c-.67.79-.66,1.15-1.39,1.65l-.08-.07c-.35.03-.23.39-.53.63.15.01.3.07.46.25-.19.48-.09.99-.7,1.15-.26-.17.05-.39.09-.59-.23-.11-.39.54-.63.27.1-.13.29-.27.18-.38-.53.65-.78,1.27-1.43,2.02-.65-.11-.94.47-1.32.77.04-.04.01-.14-.08-.07-.11,1.35-1.49,1.38-1.85,2.2-.09.2,0,.39-.24.6.49.61.88-.44,1.12-.54.21.3.62.58.59.9-.13-.1-.44-.22-.74-.08,0,.58.22,1.15,0,1.75-.29.03-.52.18-.67-.16-.09.3-.2.6-.36.91.04.12-.07.25.1.36.12,0,.24-.04.36-.1.39-.19.33-.25.7-.35-.13-.22.35-.29.47-.41.18.34.42.83.85.58.34.24.18.52.29.78.27.11.1-.34.4-.47.13-.14.27.31.18.42.42-.24.81-.74,1.21-1.13.16.18-.27.41.05.58l.33-.39c.01.1.22.52.38.19-.06.44.75.81.55,1.26.83-.8-.37-1.42-.04-2.18.28-.12.47.14.62.38,0-.12.06-.25.19-.38l.13-.16c-.34-.43-.18-.91-.34-1.35.26-.33,1.27-.75.85-1.17-.21.39-.67.38-.66.79-.24-.32-.07-1.3-.02-1.89.24-.33.54.09.79-.14.2-.31.16-.6.21-.89-.28.1-.55.35-.82.65-.15-.46.14-.95.56-1.14Zm-1.49-1.25c.21-.19.1-.73.45-.69.02.22,0,.87-.45.69Z"/>
    <path class="cls-19" d="m369.28,670.36c-.07.04-.12.09-.16.13.07-.09.12-.13.16-.13Z"/>
    <path class="cls-19" d="m375.34,670.74c.12.47-.61.7-1.11.68.04-.2.3-.42.24-.6-.34-.05-.68.02-1,.23-.8-.86-1.47-.16-2.18.05l.39.33c-.2.26-.43.09-.62.42-.71-.39-1.37-.13-2.01.32.08.14.48.25.33.41-.6-.49-.82.31-1.03.75-.19-.18-.36-.23-.53-.17-.72.51-.42,1.04-1.11,1.48-.06-.14,0-.29.11-.45-.25-.07-.44.47-.67.64.1.06.19-.09.28-.17.08.22-.42.68-.59.71-.09-.11.1-.25.19-.38-.43.11-.84.41-1.25.69-.37.16-.37.1-.03-.29-.17-.28-.29.06-.42.18.32-1.31,1.77-.61,2.1-1.86-.63.02-.11-.71-.55-.46-.13-.21.34-.47.45-.69.91-.08,1.51-.32,2.15-1.28.86.16,1.62-.87,2.45-1.16-.65-.44-1.15.21-1.55.57-.01-.08,0-.32-.08-.33.42-.28,1.36-.62,1.54-1.26.2-.04.4-.12.59-.21.02,0,.04.01.06.02.19.05.38.1.57.16v-.1s0-.02,0-.03c.27.06.51.11.73.17.12.03.23.07.35.1.34.11.69.26,1.14.51.29.17.47.31.75.48.06.04.12.07.19.11.05.03.09.05.14.08.14.08.29.16.43.24.13.07.26.15.39.23-.27.03-.54,0-.82-.1Z"/>
    <path class="cls-10" d="m357.19,684.71c.49.61.88-.44,1.12-.54.21.3.62.58.59.9-.13-.1-.44-.22-.74-.08,0,.58.22,1.15,0,1.75-.29.03-.52.18-.67-.16-.09.3-.2.6-.36.91-.14.29-.32.22-.47.41-.18.6.34,1.14.44,1.71-.28-.67-.42.12-.79.14.24-.22.23-.41-.05-.58l-.33.39c.32.6.6,1.21,1.18,1.79-.26.2-.18.11-.33.39-.15-.05-.33-.43-.46-.25-.08.1,0,.19-.12.3,0,.17-.17.35-.17.53l-.86-.73c-.02-.19.26-.41.24-.6-.1-.06-.19.05-.28.17-.06-.74.74-.69,1.16-.9-.28-.12-.11-.28-.33-.41-.23.15-.47.17-.72.06.02-.29-.17-.57-.22-.85-.4-.15-.79-.11-1.16.1-1.05.43-1.83-.77-1.18-1.79.27-.26.58.01.85-.22.11-.79.35-1.58.38-2.36-.72.12-.46,1.2-1.08,1.77-1.23-.92.33-1.71.21-2.64.59-.48,1.3.46,1.88-.16-.15-.25-.34-.5-.43-.76.33.12.65.26.98.42.13-.34.46-.4.11-.45.85-.52.99-.08,1.82-.89.07.65.78-.16,1.22-.18.1.57-.58.77-.32,1.34-.51-.1-1.23.25-1.46.78.22.05.55-.35.59.09-.09.2,0,.39-.24.6Z"/>
    <path class="cls-21" d="m351.32,690.91c-.16.17-.11-.27-.39-.33-.37.52-1.42.77-1.12,1.34.31-.01.62-.17.95,0-.14.28.09.53.43.76-.13.18-.31-.2-.46-.25-.4-.41-.74-.17-1.12-.27.28-.19-.16-.33-.12-.5.46-.67.74-1.01,1.36-1.14.11-.02.59.19.47.4Z"/>
    <path class="cls-21" d="m351.54,690.96c-.11-.43-.12-.86.03-1.31.07-.08.14-.04.21-.09l.08.07c-.56.66-.27,1.24.09,1.81,0,.22.1.43.27.63-.56.52-.4-.6-.77-.52.2-.21.37-.42.09-.59Z"/>
    <path class="cls-10" d="m350.75,691.91c-.33-.16-.63,0-.95,0-.3-.57.76-.82,1.12-1.34.28.06.23.5.39.33.08.03.16.13.22.05.28.17.11.38-.09.59-.22.5-.19.58-.27,1.12-.34-.24-.57-.48-.43-.76Z"/>
    <path class="cls-21" d="m343.94,699.06c.73-.66,1.8,1.06,1.43,1.33-.3-.45-.86-1.13-1.43-1.33Z"/>
    <path class="cls-21" d="m362.3,702.41c.06-.11-.05-.12-.16-.13.32-.51.97-.7,1.13-.39.12.16-.05.34.26.49.08.04.05.09.01.14-.81.69-1.62,1.44-2.51,1.24.01.17-.14.35-.32.54.04-.19-.05-.46-.31-.26-.04.04-.09.08-.14.01l.07-.08c.94-.47,1.52-.73,2.34-1.52-.12-.02-.23.11-.37-.04Z"/>
    <path class="cls-21" d="m364.01,702.77c.32-.33.76-.57.86-1.02.23.31.54.21.55.46-.37.46-.76.72-1.16.9.16-.08-.26-.44-.31-.26l-.31-.26c.11-.09.25.1.38.19Z"/>
    <path class="cls-10" d="m370.75,698.28s.03-.07.07-.11c-.02.05-.04.08-.07.11Z"/>
    <path class="cls-10" d="m368.94,698.33c.26-.34.53-.64.86-.22-.18.23-.48.48-.45.69-.02-.17-.2-.32-.41-.47Z"/>
    <path class="cls-10" d="m348.21,712.65s.06.04.09.07c.2.15.41.3.62.45.21.15.43.29.65.44.13-.21.38-.44.54-.65.29.26.07.57-.2.88.45.28.91.56,1.37.82.43.24.87.46,1.31.67.24.04.45.13.58.21,1.17-1.24,1.28-2.25,2.42-3.2.14.33.07.67.23,1,.91-.32,1.19-.8,1.84-1.4-.21-.39-.23-.81-.18-1.22-.48-.34-.73-.59-1.3-.69.4-.2.79-.36,1.18-.61.1.31-.1.64.15.93.58-.11,1.48.17,1.78-.52-.24-.32-.49-.64-.81-.95.41-.25.85-.25,1.26-.55.18.5-.22,1.04.35,1.5.34-.3.72-.13,1.05-.46,0-.12-.18-.23-.1-.36,1.45-1.42,3.46-1.55,5.19-2.35.15.08.07.19.17.28l.08.07c-.06.15-.05.3-.11.45l-.08-.07-.07.08c-.16.44.83-.03.54-.48.94.03,2.02-1.4,2.36-2.17.33.21.62-.12.97.28l.59-.71c-.31.02-.59.42-.92.3-.02-.38.4-.37.59-.71l.39.33c.16-.16-.25-.27-.33-.41.14-.29.32-.22.47-.41-.62-.07-.84-1.23-1.18-1.79.2-.21.42-.21.62-.42.93.34,1.76-.45,2.69-.02.25.17.09.38.34.55.74-.41,1.48-.84,2.25-.93.06-.3-.45-.28-.62-.38-.07-.07.45-.33.62-.42-.16-.25-.25-.15.19-.38.04.59.64.26,1.05.35,0-.23-.58-.03-.83-.29.54-.23,1.08-.46,1.63-.51-.35-.37-1.27-.13-1.83-.06-.19-.48-.88-.4-.72-.74-.61,0-1.19.23-1.79.37-.04-.17.02-.34-.12-.5-.17.04-.33.13-.5.12-.19.13.01.44-.28.17-.4-.16-.75.25-1.19-.33-.09.24-.6.26-.51,0-.16.22-.34.12-.75.54.28.19.54.06.81.15-.3.16-.61.19-.92.3-.27-.18-.22-.5-.55-.46-.19.08-.38.07-.57.2-.04-.12.07-.25-.1-.36-.14.29-.34-.03-.49.26.28.12.11.28.33.41-.35.4-.77.14-1.12.53-.07-.24-.05-.48.08-.74-.21-.15-.25.25-.26.31-.41-.13-.33-.92-.71-.59.01-.22-.08-.43-.27-.63-.18.17-.4-.08-.57.2.29.2.77.75.58.75-.4.38.28.32.2.57-.19.04-.39,0-.57.2l.31.26c-.01-.19.14-.37.33-.39.28.41.82.8.4,1.28-.08-.07-.15-.01-.22-.05-.19-.17-.37-.33-.54-.32-.3-.13-.62-.44-.88-.07-.09.39-.25.95-.41,1.13.23.31.54.21.55.46-.37.46-.76.72-1.16.9l-.31-.26-.31-.26-.08-.07c-.81.69-1.62,1.44-2.51,1.24.01.17-.14.35-.32.54l-.07.08c0,.12.18.23.1.36.21.27.37.55.51.83-.68-.03-1.37-.12-2.09-.55,0-.19.08-.26.28-.17.27-.22.51-.82.8-.8l.07-.08c.13-.5.63-1.03.6-1.51-.13.18-.27.2-.43.04-.02-.22.14-.45.02-.66-.27,0-.51.24-.75.58l-.13.16c-.46.01-.6-.1-.84-.44-.43.32-.88.46-1.33.63-.04.11.07.53.24.2.16-.12.34-.06.49-.26l.07-.08c.19.1.16.23.25.34l.16.13c.04.14.12.28.33.41-.17.04-.33.13-.5.12-.12.28-.28.11-.41.33-.13.22-.29.05-.41.33-1.19-.04-2.61.51-4.15,0,.11-.18-.08-.33-.12-.5-.24.06-.47.14-.7.35.4.02.15.58.37.84.33.12.64.12.96.13-.13.21.15.38-.09.59-.52.21-1.08-.14-1.6,0-.1.47-.26.95-.1,1.39.13-.16.3.08.42-.18.13-.3-.18-.57.07-.88.3.13.55-.34.88.07.03.26-.48.58-.15.81.55-.08.37-.71.71-1.01.44.25.15.57.65.82-.34.27-.16.5-.37.76-1.32-.12-2.19,1.17-3.36,1.61.1.11.02.24.1.36.31-.39,1.07.03,1.21.48-.5.11-.95.77-1.5.35-.34-.26-.08-.58-.37-.84-.59.56-.51,1.06-.95,1.61-1.34-.15-1.27.72-1.37,1.62Zm20.84-13.16c.31.16.61.3.92.5-.09.23-.09.45-.3.68-.53.07-1.18-.72-.61-1.18Zm-2.48-.07c.08.03.16.13.22.05-.1-.12.1-.14.21-.09.08.27-.66.46-.43.04Zm.12,4.65c.7-.57,1.4-1.23,2.1-1.86.17.4.64.77.47,1.2-.62.34-1.07.66-1.33,1.43-.38.1-.82-.46-1.23-.77Zm.05,1.38c-.45-.4-.33-.85-.26-1.29.2.42.27.85.26,1.29Zm-4.05-.45c-.07-.29.47-.62.65-.93l.55.46c-.4.2-.78.57-1.2.47Zm-5.64.49c.26-.21.06-.37.33-.39.16.3.56.58.3.92-.38.08-.37-.23-.63-.53Zm-1.95,1.85c.3-.69.29-1.51.38-2.36.34.46.69.91.99,1.37-.27.03-.03.63-.07.88-.43.03-.84.42-1.3.11Zm-1.11,3.08c.04-.2.08-.4-.2-.57.13-.2.27-.28.42-.18-.24.22.1.76-.23.75Zm.9,1.96c.37-.44.77-.67,1.17-.76-.37.44-.78.53-1.17.76Zm-3.11.2c-.18-.28-.46-.54-.37-.84.13.08.23-.13.34-.25.47.32.49.69.02,1.09Z"/>
    <path class="cls-12" d="m366.24,699.15c.2,0-.29-.55-.58-.75.17-.28.39-.03.57-.2.19.2.29.41.27.63.37-.33.29.46.71.59.02-.07.06-.47.26-.31-.13.25-.15.5-.08.74.35-.4.77-.13,1.12-.53-.22-.13-.05-.29-.33-.41.14-.29.34.03.49-.26.17.11.07.24.1.36.18-.12.38-.12.57-.2-.02-.17-.2-.32-.41-.47.26-.34.53-.64.86-.22-.18.23-.48.48-.45.69.33-.04.28.28.55.46.31-.11.62-.14.92-.3-.27-.09-.53.04-.81-.15.41-.42.59-.33.75-.54.01-.03.03-.07.07-.11-.02.05-.04.08-.07.11-.09.25.43.23.51,0,.44.59.79.17,1.19.33.05-.1-.11-.18-.03-.29.04-.08-.01-.14.05-.22.15.08.07.19.17.28l.08.07c.17.01.33-.08.5-.12l.07-.08c.13-.14.27-.22.42-.18.13-.29-.29-.17-.39-.33-.17-.16.25-.36.32-.54-.55-.64-1.21,0-1.94-.56-.01.15-.07.3-.25.46-.17-.73-.74-1.15-1.52-1.54-.14.23.04.43-.16.67-.34.01-.71-.29-1.05-.35l-.33.39c-.9.03-.66-1.13-1.48-1.11-.18-.16.21-.19.29-.03-.17-.48-.9-.35-1.31-.83-.03-.31.01-.63.28-.97-.22-.04-.46-.21-.68-.3-.76.75-1.67-.18-2.46.21-.12-.21.58-.16.46-.55-.8-.32-1.1-1.17-2.06-1.86-.18-.13.2-.31.25-.46-.34-.21-.27-.46-.64-.67-.26.02-.16.26-.25.46-.54-.1-1.02-.83-.55-1.26-.29-.28-.55-.17-.83-.29-.05-.27-.52-1.04-1.13-1.21-.36.1-.31.16-.7.35.47.33-.77.49-.36.1-.17-.11-.07-.24-.1-.36-.14.29-.32.22-.47.41-.18.6.34,1.14.44,1.71-.28-.67-.42.12-.79.14.24-.22.23-.41-.05-.58l-.33.39c.32.6.6,1.21,1.18,1.79-.26.2-.18.11-.33.39-.15-.05-.33-.43-.46-.25-.08.1,0,.19-.12.3l.55.46-.07.08c.57.44,1.14.84,1.69,1.02.09-.2,0-.39.24-.6.39.06.78.06,1.14-.25.16.78.89.95,1.59,1.46-.26.34-.74.7-.28.97-.34.15-.34.51-.44.84-.21.13-.48-.53-.67-.16.04.51.2,1.39.94,1.59.33-.56.6-1.34,1.27-1.35.4.73,1.43,1.43,2.14,1.12-.47.03-1.13-.89-1.43-1.33.15.1.33.41.45.11-.58-.68-1.43-.44-1.78-1.23.88-.81,1.93.43,2.89.55-.09-.09-.17-.18-.03-.29.2.29.73.13.7.45-.1-.06-.2-.02-.29.03.71.34,1.43.75,2.15,1.27-.27.24-.61-.26-.88-.07.28.25.79.31.85.58-.65.33-1.34.17-1.97.76.6.43.86.9,1.28,1.34Zm6.46-1.95c.15.01.3.07.46.25-.08.34-.58-.13-.46-.25Z"/>
    <path class="cls-18" d="m378.86,672.62s.08-.04.12-.06c-.07-.05-.14-.09-.21-.14-.14-.09-.27-.17-.4-.25-.21-.13-.42-.25-.63-.38-.13-.07-.25-.15-.39-.22-.1-.07-.2-.13-.3-.2-.07-.05-.14-.09-.22-.14-.04-.02-.07-.05-.11-.07-.03-.02-.07-.04-.1-.06-.14-.09-.28-.17-.42-.26,0,0-.01,0-.02-.01,0,0,0,0,0,0-.27.03-.54,0-.82-.1.12.47-.61.7-1.11.68.04-.2.3-.42.24-.6-.34-.05-.68.02-1,.23-.8-.86-1.47-.16-2.18.05l.39.33c-.2.26-.43.09-.62.42-.71-.39-1.37-.13-2.01.32.08.14.48.25.33.41-.6-.49-.82.31-1.03.75-.19-.18-.36-.23-.53-.17-.72.51-.42,1.04-1.11,1.48-.44.31-.4.95-.86,1.02.07-.1.2-.21.12-.3-.71.56-.96,1.09-.95,1.61.1.09.19-.08.29-.03-.44,1.26-1.34,2.78-1.24,4.19.09-.2,0-.39.24-.6.29.25.16.33.46.25.01.17-.14.35-.32.54.07.07-.02.15-.05.22.45-.14.9-.94,1.2-.47.03-.3.54-.56.8-.8-.28.55,2.32-.97,1.91-1.48.2-.24.82,0,.8,0,.41.08.38-.5.69-.5-.42-.39.29-.44-.44-.91.09-.03.19-.06.28-.17.28.24.35.5.58.75l.33-.39c.15.21.26.41.56.61.31-.25.41-.6,1.37-.99.02.12.11.23.25.34.45-.31.96-.92,1.19-1.42.49,0,.96-.11,1.41-.56.25-.16-.02.39.31.26.2-.08-.01-.46.26-.31-.12-.11-.3-.4-.21-.71.57.26,1.36-.11,2.05-.69.38-.16.22-.56.21-.89.28-.09.54-.45.85-.22-.06.28-.5.13-.33.39.04.18.12.25.3.12.31-.32-.15-.57.07-.88Zm-11.2,6.01c-.1.25-.25.51-.52.77-.12-.42-.2-.55-.22-.85.28.45.46-.31.74.08Zm1.35-.34c-.08.13.02.24-.04.37-.24-.05-.24-.06-.01-.14-.07-.09-.08-.29.05-.22Zm6.12-3.3c-.16.22-.59.57-.17.52-.15.21-.33.14-.5.12.11-.28.26-.92.67-.64Zm2.17-.99c-.07.08-.01.15-.05.22-.31.11-.17-.34.05-.22Z"/>
    <path class="cls-14" d="m381.99,694.27l.2-.24c-.31-.22-.55.4-.88-.07-.08-.46.38-1.12.88-.73.39.21-.29.51.06.72.25-.43.55-.4.8-.8-.19-.28-.33.07-.51-.03.01-.32.26-.65.57-1-.09-.4-.59.07-.91-.36.01-.32.31-.66.42-.98.05-.17.48.18.31.26.33.04.35-.51.45-.69-.85-.97.33-2.12-.2-3.12.16-.16.34,0,.53.17-.29.83-.35,1.63.28,2.38.25-.17.06-.3.25-.46.25.44-.19.94.05,1.38.27-.46.45-.91.61-1.36-.19-.28-.35-.08-.53-.17-.09-.41.13-.84.11-1.25.24-.13.21.36.55.46.1-.8.92.15,1.28-.4-.59-.87-1.38-1.48-1.1-2.53.43.21.26,1.09.57,1.55.15-1.28.15-2.54-.04-3.78-.42.16-.87.07-1.33-.18-.32.59.04,1.11.51,1.63-.17.21-.41.42-.38.62-.19-.36-.59-1.3-1.54-1.83-.24.22.04.39-.09.59-.32-.06-.65-.26-.97-.28-.38-.51-.07-.61.37-.76-.3-.07-.61-.36-.92-.5l-.59.71c-.34-.21-.27-.46-.64-.67.42-.26.48-.59.57-1-.31-.46-.55-.14-.83-.29,0-.22.36-.14.46-.55-.36-.19-.12-.43-.27-.63.13-.12.29-.07.45.11.3.02-.5-.49-.35-.7.46.32.54.21,1.05.34.09-.2.05-.39.09-.59.18-.19.37-.21.58-.05.04-.08-.01-.14.05-.22-.08-.26-.21-.52-.58-.75-.02-.63.35-1.29.12-1.91-.33.33-.69.47-1.04.6.08-.52.29-1.04.23-1.55-.08.42-.33.37-.61.56.08.19.07.38.19.57l-.46.55c-.19-.18-.36-.23-.52-.17-.3-.42.04-.96-.67-.96.06-.47.42-.96.1-1.39-.36.17-.28.5-.68.5-.15-.3-.17-.62-.3-.92-.69.58-1.49.95-2.05.69-.09.31.08.6.21.71-.28-.15-.07.23-.26.31-.34.12-.06-.42-.31-.26-.45.45-.92.56-1.41.56-.23.5-.74,1.1-1.19,1.42-.14-.11-.23-.22-.25-.34-.96.4-1.06.75-1.37.99-.3-.19-.41-.4-.56-.61l-.33.39c-.22-.25-.3-.51-.58-.75-.09.11-.18.14-.28.17.73.46.02.52.44.91-.31,0-.28.58-.69.5.02,0-.6-.24-.8,0,.41.51-2.19,2.03-1.91,1.48-.26.24-.78.5-.8.8-.3-.47-.75.33-1.2.47.03-.08.13-.16.05-.22-.41.2-.7.68-.56,1.14.26-.3.53-.56.82-.65-.05.3-.02.58-.21.89-.25.23-.55-.19-.79.14-.05.59-.22,1.57.02,1.89-.01-.4.45-.39.66-.79.43.42-.59.83-.85,1.17.15.45,0,.92.34,1.35l-.13.16c.45.25-.04.59.37.84.14.13.22.27.18.42.28.12.11.28.33.41-.25.24-.52.16-.75.58-.32-.6.11-1.27-.31-1.87-.14-.24-.34-.5-.62-.38-.32.76.87,1.38.04,2.18l-.07.08c.48.3.5.64.96.94.28-.41.59-.43.92-.3.03-.17-.16-.33-.26-.49l.33-.39c.25-.02.2.19.54.32,0,.36-.47.77-.27,1.12-.19.08-.4-.09-.59-.09.73,1.35,2.46,3.26,3.87,3.38.18-.33-.16-.62-.44-.91,1.35.42,2.56,1.33,4.21,2.33,0-.29.32-.61.07-.88,1.16.28,2.15.73,2.42,1.9.12.13.32.04.24.2.2-.04.41.35.1.35,1.42.18,3.46.18,4.99-1.31.13-.18.31.2.46.25.3.85-.71,1.78-1.53.86-.04.36-.58.8-.88.73.08.65,1.42.38,1.17.04.53,0,.86-.22,1.97-.76-.08-.14-.1-.28-.18-.42.51-.23,1.07,0,1.54-.72-.22-.04-.46-.21-.68-.3-.12-.13-.07-.29.11-.45Zm-13.28-1.9c-1-.31-.95-1.86-2.45-2.19.08-.1,0-.19.12-.3,1.21.63,2.27,1.38,2.33,2.49Zm-3.1-3.81c.18.13.2.27.04.43l-.24-.2.2-.24Zm2.86,1.86l-.13.16-.16-.13.13-.16.16.13Zm-2.83-9.08c-.14.12-.11.58-.4.47.14-.12.11-.58.4-.47Zm12.95-4.41c-.27-.2.04-.44.02-.66.21.2.22.42-.02.66Zm.45,1.85c.14.13.22.27.18.42-.22.03-.42-.21-.18-.42Zm-1.12-.27c.18-.19.37-.21.58-.05-.18.19-.37.21-.58.05Zm-3-1.85c.1-.25-.07-.48-.06-.72.13.11.23-.18.36-.1-.15.26.22-.03.29-.03.16.45.36,0,.67.16,0,.43-.65.13-.72.06-.09.14-.18.57-.53.63Zm8.36,9.83c-.16-.2-.48-.4-.27-.63.23.04.66.11.7.45-.12.34-.3-.15-.42.18Zm-14.05-7.37c-.02.71-.44.13,0,0h0Zm-1.3.92c.19-.08.36-.37.55-.34-.16.18-.06.35-.32.54l-.24-.2Z"/>
    <path class="cls-9" d="m373.3,698.24c.41.25.72-.61,1.13-.39.06-.29-.47-.42-.63-.53.91-.31.62.07,1.34-.48-.31-.14-.14-.33-.26-.49.04-.08.09-.05.14-.01.31,0,.1-.4-.1-.35-.1.09-.32-.09-.24-.2-.27-1.17-1.26-1.62-2.42-1.9.25.27-.06.59-.07.88-1.65-1-2.86-1.91-4.21-2.33.28.29.63.58.44.91-1.4-.12-3.14-2.03-3.87-3.38.2,0,.4.17.59.09-.21-.35.27-.75.27-1.12-.34-.13-.29-.34-.54-.32l-.33.39c.1.16.29.31.26.49-.33-.13-.64-.11-.92.3-.45-.3-.48-.64-.96-.94l.07-.08c.2-.45-.6-.82-.55-1.26-.16.33-.37-.08-.38-.19l-.33.39c-.32-.17.11-.4-.05-.58-.4.38-.8.89-1.21,1.13.08-.11-.05-.56-.18-.42-.3.13-.12.58-.4.47-.1-.26.06-.54-.29-.78-.43.25-.67-.24-.85-.58-.12.12-.6.18-.47.41.6.18,1.07.94,1.13,1.21.28.12.54.02.83.29-.47.43.01,1.16.55,1.26.09-.2-.01-.44.25-.46.38.21.3.46.64.67-.05.15-.43.33-.25.46.96.69,1.25,1.54,2.06,1.86.12.39-.58.34-.46.55.79-.4,1.7.54,2.46-.21.23.09.46.27.68.3-.27.34-.31.66-.28.97.41.49,1.15.35,1.31.83-.08-.17-.47-.13-.29.03.82-.02.58,1.14,1.48,1.11l.33-.39c.34.05.71.36,1.05.35.2-.24.02-.44.16-.67.78.39,1.35.81,1.52,1.54.18-.16.24-.31.25-.46.73.56,1.4-.08,1.94.56-.07.18-.48.38-.32.54.1.16.52.04.39.33-.15-.04-.29.05-.42.18Zm.25-1.26c.09-.43.62-.01.53.17-.17,0-.35-.17-.53-.17Zm-.58-.75l.39.33c-.08.34-.72-.19-.39-.33Z"/>
    <path class="cls-15" d="m383.86,697.32l.07-.08c-.27-.2-.22-.42-.56-.61-.17-.16.25-.36.32-.54-.08-.04-.05-.09-.01-.14-.2-.05-.37.18-.58.05.3-.14.29-.45.66-.79-.11-.01-.44-.06-.17-.28-.21.05-.44-.02-.63.27-.15-.56-.47-.56-.96-.94-.17.16-.23.31-.11.45.23.09.46.27.68.3-.47.71-1.03.49-1.54.72.08.14.1.28.18.42-1.11.54-1.44.76-1.97.76.25.34-1.09.61-1.17-.04.31.07.84-.37.88-.73.82.91,1.83,0,1.53-.86-.15-.05-.33-.43-.46-.25-1.52,1.49-3.56,1.49-4.99,1.31-.05-.04-.1-.07-.14.01.12.16-.05.34.26.49-.72.55-.43.17-1.34.48.16.11.69.23.63.53-.41-.22-.72.64-1.13.39l-.07.08c.14.16.08.33.12.5.59-.15,1.18-.37,1.79-.37-.16.34.53.26.72.74.55-.07,1.48-.31,1.83.06.11.21.03.43.27.63.81-.41,1.32-.31,2.17-.99l.13-.16c-.02-.21.15-.3.36-.1l.08.07c1.09-.03,2.17-.2,3.16-1.37Zm-8.4-.21c-.08.1,0,.19-.12.3-.08-.09-.23-.17-.17-.28.1.09.19-.08.29-.03Zm7.43-1.67l.13-.16.16.13-.13.16-.16-.13Zm-3.1,2.09c-.02-.19.21-.41.38-.62-.14-.13.31-.27.42-.18.46.01-.57.79-.8.8Z"/>
    <path class="cls-9" d="m364.13,687.46c-.04.15.05.29.18.42.28.12.11.28.33.41-.25.24-.52.16-.75.58-.32-.6.11-1.27-.31-1.87,0-.12.06-.25.19-.38.45.25-.04.59.37.84Z"/>
    <path class="cls-15" d="m364.13,687.46c.14.13.22.27.18.42-.14-.13-.22-.27-.18-.42Z"/>
    <path class="cls-18" d="m374.85,675.96c.13.11.23-.18.36-.1-.15.26.22-.03.29-.03.16.45.36,0,.67.16,0,.43-.65.13-.72.06-.09.14-.18.57-.53.63.1-.25-.07-.48-.06-.72Z"/>
    <path class="cls-14" d="m368.96,678.51c-.07-.09-.08-.29.05-.22-.08.13.02.24-.04.37-.24-.05-.24-.06-.01-.14Z"/>
    <path class="cls-18" d="m369.23,679.14c-.02.71-.44.13,0,0h0Z"/>
    <path class="cls-14" d="m374.96,675.51c-.15.21-.33.14-.5.12.11-.28.26-.92.67-.64-.16.22-.59.57-.17.52Z"/>
    <path class="cls-15" d="m353.18,715.52c-.13-.08-.34-.17-.58-.21.77.37,1.55.71,2.33,1,0,0,.01,0,.02,0,.2.07.4.15.6.21.08.03.17.06.25.08.14.05.28.09.42.14.04.01.07.02.11.03.56-.96,1.33-1.85,2.23-2.4.13-.2.27-.29.41-.33.08-.16.19-.1.29-.03.19-.37.32-.51.67-.64.05-.2-.05-.38.24-.6-.46-.03-.86.68-1.34.48.47-.47,1.31-1.15,1.62-.65-.11-.05-.32-.03-.21.09.18-.19.39.06.6.24.35-.21.82-.57,1.01-.09.14.18.24.01.36-.1l-.31-.26c.18-.12.38-.12.57-.19.12-.53.17-1.32.73-1.67-.28-.17-.03-.39-.2-.57.77-.32,1.57-.4,2.34-.71.24.3.48.64.86.73.13.27-.34.41-.46.55.59.61,1.58-.58,2.33-.86,0-.24.19-.5.23-.75.27-.23.48.2.62.38.4.08-.21-.36-.12-.5-.56.04-.37-.39-.58-.75-.12.59-.68.32-1.07.31-.07-.1-.17-.55.11-.45.24-.17-.42-.26-.18-.42-.31-.05-.59.45-1.09.02-.18-.11.21-.21.28-.17l.07-.08c-.12-.13-.07-.29.11-.45-.1-.09-.02-.19-.17-.28-1.73.8-3.73.93-5.19,2.35-.07.13.1.23.1.36-.34.32-.71.16-1.05.46-.57-.46-.17-1-.35-1.5-.41.3-.85.3-1.26.55.32.31.57.63.81.95-.3.69-1.2.41-1.78.52-.25-.29-.06-.63-.15-.93-.39.25-.79.42-1.18.61.57.1.82.35,1.3.69-.05.42-.03.83.18,1.22-.66.6-.94,1.08-1.84,1.4-.17-.33-.09-.67-.23-1-1.13.95-1.25,1.95-2.42,3.2Zm7.94-4.19c.16-.12.31-.31.5-.12-.15.22-.31.31-.5.12Z"/>
    <path class="cls-7" d="m360.41,704.03c.26-.2.35.07.31.26l-.07.08c0,.12.18.23.1.36l-.13.16c-.14-.27.19-.84-.22-.86Z"/>
    <path class="cls-21" d="m359.55,705.05c.22.25.4.15.6.24.09.04.51-.07.34-.25l.13-.16.13-.16c.21.27.37.55.51.83-.68-.03-1.37-.12-2.09-.55,0-.19.08-.26.28-.17-.03.08-.01.15.09.21Z"/>
    <path class="cls-21" d="m358.18,702.7l.07-.08c.19.1.16.23.25.34-.19.19-.04-.22-.31-.26Z"/>
    <path class="cls-21" d="m358.65,703.09c.04.14.12.28.33.41-.17.04-.33.13-.5.12.28-.19.08-.35.17-.52Z"/>
    <path class="cls-7" d="m358.07,703.94c-.13.22-.29.05-.41.33-.03-.02-.05-.04-.08-.07-.03-.27.29-.21.49-.26Z"/>
    <path class="cls-16" d="m353.97,710.42c.04-.2.08-.4-.2-.57.13-.2.27-.28.42-.18-.24.22.1.76-.23.75Z"/>
    <path class="cls-7" d="m360.15,705.29c.11-.16.23-.1.34-.25.17.18-.25.29-.34.25Z"/>
    <path class="cls-14" d="m359.61,717.43c.26-.6,1.08-1.42,1.65-1.16-.26.24-.35-.07-.26.31-.13-.13-.25-.08-.36.1.08.08.22-.01.16.13-.38.15-.82.45-1.13.78-.23-.04-.47-.09-.71-.13,0-.02,0-.03,0-.05.22.05.45.15.66.02Z"/>
    <path class="cls-14" d="m356.32,716.79s.03,0,.04.01c.04.01.08.03.13.04.44.13.88.25,1.31.36.08-.14.32-.3.38-.44-.18-.11-.33.08-.51-.03.57-.67,1.15-1.28,1.75-1.61-.08-.3-.7.27-1.01.09.38-.35.77-.62,1.16-.9-.1-.05-.18.11-.29.03-.05-.33.89-.45.65-.93-.35.13-.49.27-.67.64-.1-.07-.21-.13-.29.03.14.05-.3.36-.41.33-.89.54-1.67,1.43-2.23,2.4Zm1.34-.86c.16-.1.29-.54.47-.41-.16.1-.29.54-.47.41Z"/>
    <path class="cls-14" d="m361.9,716.94c-.08.04.75-.84,1.11-.68-.05.13-.03.25.1.36.25-.1.55-.16.4-.47.17.03.35.09.5-.12.2.15.39.31.41.47.2-.45.5.21.74.08.03-.79-1.69-.64-2.03-.77.54-.2.94-.5,1.33-.63-.19,0-.26-.08-.17-.28.26-.07.53-.04.8,0-.03.38-.18.61-.41,1.13.33-.02,1.12-.24,1.05.35.54-.26,1.08-.45,1.63-.51-.06.1-.02.2.03.29.26-.36.46.02.57-.19.06.39.7.31.97.28-.22-.37-.69-.72-.68-1.11.2.04.42.36.59.09.39.51,1.13.21,1.09.78-.16-.11-.31-.17-.45-.11.42.24-.02.19.1.36.37.37.68.05,1-.23.16.21.26.42.34.61-.14.03-.27.05-.41.07-.38.1-.7.17-1.08.25-.19.06-.37.12-.56.18-.15.04-.3.09-.46.13-.04,0-.07.02-.11.03-.04,0-.07.02-.11.03-.08.04-.17.08-.25.11-.2.09-.42.18-.67.27-.61.09-1.22.16-1.84.21-.21.02-.53.04-.95.04-.29,0-.62,0-1,0-.12,0-.25,0-.38-.01-.14,0-.29-.01-.44-.02-.68-.04-1.45-.11-2.28-.23.19-.19.38-.42.66-.55.31-.15.63-.09.85-.22Z"/>
    <path class="cls-18" d="m358.54,714.39c.13-.2.27-.29.41-.33.14.05-.3.36-.41.33Z"/>
    <path class="cls-19" d="m368.77,708.91c-.09.14.52.57.12.5l-.33.39c.04.14.12.28.33.41-.13.21-.32-.34-.43.04.59.32,1.19.86,1.8,1.37-.04-.48-.83-.9-1.28-1.34.64.21,1.35,1.05,1.66,1.53.24-.07.51.24.74.08l.07-.08c.22.18.43.48.12.5-.11.15-.24.09-.34.25.22.32.38.65.52.97.16-.38-.33-.7-.17-1.08.18-.19.39.06.6.24.16.25-.37.16-.25.46.45.38.85.28,1.29.54.16-.1.29-.54.47-.41.14-.5-.35-.87-.81-.95-.13.2.31.33.39.33-.51.24-.85.06-1.26-.25.25-.5.56-.21.82-.65-.69-.7-.47-.54-.97-1.08.25-.19.1.22.31.26-.01-.39-.38-.74-.39-1.13.68.38-.03-1.27.66-1.59-.39-.05-.82-.44-1.16.1-.48-.88-1.1-.29-1.75-.79-.12.29-.13.3-.4.47.1.23.15.47.5.69.35-.46.75-.32,1.12-.54.05.31.25.61-.13.96-.23.14-.53-.48-.76-.37-.06.42.02.82.32,1.21-.34-.03-.73-.53-1.06-.49-.08-.09.05-.2.12-.3-.17-.25-.3-.06-.46-.25Zm2.01.48l.39.33c-.08.34-.72-.19-.39-.33Zm1.71,3.71l-.2.24-.24-.2c.12-.26.29-.02.43-.04Z"/>
    <path class="cls-18" d="m357.79,717.2c.08.02.16.04.23.06.22.05.45.1.66.15.09.02.18.04.27.05,0-.02,0-.03,0-.05.22.05.45.15.66.02.26-.6,1.08-1.42,1.65-1.16-.26.24-.35-.07-.26.31-.13-.13-.25-.08-.36.1.08.08.22-.01.16.13-.38.15-.82.45-1.13.78.14.02.28.05.41.07.1.02.2.03.3.04.19-.19.38-.42.66-.55.31-.15.63-.09.85-.22-.08.04.75-.84,1.11-.68-.05.13-.03.25.1.36.25-.1.55-.16.4-.47.17.03.35.09.5-.12.2.15.39.31.41.47.2-.45.5.21.74.08.03-.79-1.69-.64-2.03-.77.54-.2.94-.5,1.33-.63-.19,0-.26-.08-.17-.28.26-.07.53-.04.8,0-.03.38-.18.61-.41,1.13.33-.02,1.12-.24,1.05.35.54-.26,1.08-.45,1.63-.51-.06.1-.02.2.03.29.26-.36.46.02.57-.19.06.39.7.31.97.28-.22-.37-.69-.72-.68-1.11.2.04.42.36.59.09-.35-.26-.25-.56-.65-.82.34-.24.77.47,1.1.12-.28-.17-.21-.37-.34-.55.37-.35.24-.65.42-.98.26-.09.57.43.85.58-.13-.4.09-.14.36-.1.23-.13-.01-.7.33-.39-.11-.12.04-.62.32-.54.11-.16.23-.1.34-.25-.32-.12-.09-.28-.18-.42-.23.16-.5-.15-.74-.08-.63.01-1.33-.73-2.01-1.28,0,.19.15.38.34.55-.6.14-.9-.85-.4-1.28l.33-.39c-.14-.19-.35-.62-.62-.38-.04.25-.22.51-.23.75-.75.28-1.74,1.47-2.33.86.12-.14.6-.28.46-.55-.38-.09-.62-.43-.86-.73-.77.31-1.57.4-2.34.71.16.18-.08.4.2.57-.56.34-.6,1.13-.73,1.67-.19.08-.38.07-.57.19l.31.26c.8.53.72.75,1.43,1.33.15.17-.32.15-.42.18-.09.22.38.02.53.17.04.2-.55.3-.78.29-.04.27.49.08.67.16-.61.41-2.16.29-2.78.75.29-.4.36-1.04.58-.85.12-.12-.51-.52-.04-.43.06-.18-.14-.2-.22-.05-.46-.7.55-.55.86-.22.1-.38,0-.48-.15-.93-.22.21-.46.29-.7.35.09-.33.32-.89.67-.64-.19-.48-.67-.12-1.01.09-.21-.17-.43-.43-.6-.24l-.07.08c-.29.22-.19.41-.24.6.25.48-.7.6-.65.93.1.09.19-.08.29-.03-.39.28-.78.55-1.16.9.31.18.93-.39,1.01-.09-.6.33-1.18.94-1.75,1.61.18.11.33-.08.51.03-.06.14-.29.3-.38.44Zm6.18-6.56c.13-.52.87-.4,1.3-.11-.42.22-.85.26-1.3.11Zm2.7,5.08c-.42-.1-1.23-.21-1.43-.53.43.16,1.23.17,1.43.53Zm-4.43.17c.22-.27.46-.33.7-.35-.03.08-.13.16-.05.22-.2.23-.42.14-.64.13Z"/>
    <path class="cls-14" d="m362.19,712.76c-.11.12-.22.28-.36.1-.35-.25-.59.32-.67.64.24-.06.47-.14.7-.35.16.45.25.55.15.93-.3-.33-1.31-.48-.86.22.08-.15.28-.12.22.05-.47-.09.16.32.04.43-.22-.19-.29.45-.58.85.62-.46,2.17-.34,2.78-.75-.18-.08-.71.11-.67-.16.22.02.81-.09.78-.29-.14-.15-.62.05-.53-.17.1-.03.57-.02.42-.18-.7-.59-.63-.8-1.43-1.33Zm.28,1.58c-.1.16.17.06.09.21-.35-.07-.64.46-1,.23.38-.3.66-.19.91-.44Z"/>
    <path class="cls-16" d="m373.84,715.17c.03.14.14.36.21.56.12-.04.25-.08.39-.12.44-.18.91-.42,1.37-.64.29-.14.58-.27.85-.37.02-.01.04-.03.06-.04-.46-.42-.81-.86-.56-1.34-.86-.1-1.23-.97-.94-1.59-.77-.25-1.18-.78-1.52-1.54l.2-.24c.22-.24.47-.2.74.08.19-.73-.92-.78-1.16-1.65,1.12-.25,2.08-2.04.71-2.76-.26.12-.5.37-.75.58.11-.96,1.41-1.2,2.03-1.78.16-.15.36.27.52.17.52-.47,1.06-.61,1.59-.94.68.65,1.01-.18,1.2-.47.5-.78,1.56-.6,2.45-1.16.15.36.53.54.86.73.25-.19.46-.88.76-.43.07-.5-.39-.22-.68-.3.42-.46.91-.11,1.35-.34.14.16-.17.36-.03.51.49.02,1.01.42,1.45-.13-.2-.28-.53-.46-.88-.87.28-.11.25-.72.75-.58.44-.16.74-.6,1.34-.48-.05.22.24.42-.02.66.02.12.11.23.25.34.13-.11.04-.2.12-.3.27.02.56.32.81.15l.13-.16c-.1-.6-.98-.49-.84-1.24-.26-.15.02.22-.12.3-.25-.1-.49-.04-.75-.23.29-.31.61-.19.91-.44-.41-.01-.8.24-1.2.47-.09-.11.1-.25.19-.38-.19,0-.4-.17-.59-.09-.25.22-.09.4-.38.62-.14-.25-.34-.5-.14-.79-.49-.05-1.01-.48-1.48-.31-.04-.71.88-.58.99-1.18l-.16-.13c-.99,1.17-2.07,1.34-3.16,1.37.1.01.2.03.3.12-.26.21-.77.62-.87.08-.85.68-1.36.58-2.17.99-.24-.2-.17-.42-.27-.63-.55.04-1.09.27-1.63.51.25.26.83.06.83.29-.41-.09-1.01.24-1.05-.35-.44.23-.34.14-.19.38-.17.09-.69.35-.62.42.16.1.68.09.62.38-.77.08-1.51.52-2.25.93-.25-.17-.09-.38-.34-.55-.94-.43-1.77.36-2.69.02-.2.21-.42.21-.62.42.33.56.56,1.72,1.18,1.79-.15.19-.33.12-.47.41.08.14.48.25.33.41l-.07.08-.59.71c-.35-.4-.64-.07-.97-.28-.33.77-1.42,2.21-2.36,2.17.29.45-.7.92-.54.48-.07-.04-.46.06-.28.17.5.43.78-.07,1.09-.02-.24.17.42.25.18.42-.27-.11-.18.34-.11.45.38,0,.95.28,1.07-.31.21.36.02.79.58.75.16.19.29,0,.46.25-.07.1-.2.21-.12.3.34-.04.72.46,1.06.49-.3-.39-.38-.79-.32-1.21.23-.11.53.51.76.37.38-.35.19-.65.13-.96-.37.22-.77.08-1.12.54-.35-.21-.4-.45-.5-.69.26-.17.27-.18.4-.47.64.5,1.27-.09,1.75.79.34-.54.76-.15,1.16-.1-.69.32.02,1.97-.66,1.59.01.39.38.74.39,1.13-.21-.05-.07-.46-.31-.26.5.55.28.38.97,1.08-.25.44-.57.15-.82.65.41.31.75.49,1.26.25-.09,0-.53-.13-.39-.33.47.08.96.45.81.95-.18-.14-.31.31-.47.41-.44-.26-.84-.16-1.29-.54-.12-.3.41-.21.25-.46-.21-.17-.43-.43-.6-.24-.16.38.33.7.17,1.08.14.58,1.11.53,1.47.96.18.21.1.78.64.67Zm-3.63-8.13c-.21.32-.45.41-.71.21.22-.25.46-.34.71-.21Zm11.27-6.89c.12-.13.11-.25.04-.37.09-.11.18-.14.28-.17-.32-.14.35-.95.54-.48.1.11-.09.25-.19.38.5.16-.25.2-.4.47.1.07.3,0,.24.2-.18-.1-.32.25-.51-.03Zm-.03,1.31c.18-.21.34-.5.55-.34-.19.08-.36.37-.55.34Z"/>
    <path class="cls-18" d="m362.57,714.55c-.35-.07-.64.46-1,.23.38-.3.66-.19.91-.44-.1.16.17.06.09.21Z"/>
    <path class="cls-15" d="m368.89,710.21c-.13.21-.32-.34-.43.04.59.32,1.19.86,1.8,1.37-.04-.48-.83-.9-1.28-1.34.64.21,1.35,1.05,1.66,1.53-.63.01-1.33-.73-2.01-1.28,0,.19.15.38.34.55-.6.14-.9-.85-.4-1.28.04.14.12.28.33.41Z"/>
    <path class="cls-14" d="m366.67,715.72c-.42-.1-1.23-.21-1.43-.53.43.16,1.23.17,1.43.53Z"/>
    <path class="cls-13" d="m385.78,705.75c.12-.16.22-.3.32-.41.32-.67.65-1.3.98-1.9.17-.32.34-.63.51-.94-.13-.06-.26-.13-.39-.23-.19.31-.41.35-.63.27.04-.27.19-.55.29-.83-.22-.23-.53-.13-.55-.46.43.16.82-.03,1.2-.47l-.08-.07-.13.16c-.25.18-.55-.12-.81-.15-.08.1,0,.19-.12.3-.14-.11-.23-.22-.25-.34-.03-.09-.06-.19-.17-.28-.21.42.15.97-.33,1.19-.23-.06-1.36-.66-.75-1.03l-.08-.07c-.5-.14-.47.47-.75.58.35.41.68.59.88.87-.44.54-.96.15-1.45.13-.14-.16.17-.36.03-.51-.44.23-.93-.12-1.35.34.29.09.76-.19.68.3-.31-.45-.51.24-.76.43-.33-.19-.71-.37-.86-.73-.89.56-1.95.38-2.45,1.16-.19.29-.51,1.12-1.2.47-.53.34-1.08.47-1.59.94-.16.1-.37-.32-.52-.17-.62.58-1.92.82-2.03,1.78.25-.21.49-.46.75-.58,1.37.72.41,2.51-.71,2.76.25.87,1.35.92,1.16,1.65-.27-.28-.51-.32-.74-.08l-.2.24c.33.76.75,1.3,1.52,1.54-.29.62.08,1.49.94,1.59-.25.48.1.92.56,1.34.25-.17.2-.21.2-.27,0-.06.07-.13.47-.37.03-.02.07-.04.11-.06.04-.02.08-.04.12-.07,0,0,0,0,.01,0h0c.08-.06.13-.09.17-.11.05-.03.07-.03.08-.03.03,0,.03.02.22-.09.14-.09.27-.18.41-.27.04-.02.07-.05.11-.07.06-.04.13-.09.19-.13.26-.18.52-.37.77-.57-.46-.43-.37-1.3-1.3-1.8-.06-.39.22-1.18-.26-1.29-.09.2.33.08-.05.22-.24-.08.01-.82.04-1.17.39.05.78.06,1.18.19.01.4-1.03.45-.88-.07-.12.37-.08.52-.23.75.53-.03,1.03-.41,1.6,0-.13.16.13.28-.11.45-.09.23-.57-.05-.41.33.39.23.94-.55.58-.85.32-.39.67-.79.41-1.13-.48.59-1.2-.03-1.43-.32-.08-.02-.13-.06-.08-.12,0-.01,0-.02.01-.01,0,0,0,0-.01.01,0,.02.03.06.08.12.09.02.21.02.24-.01,1.05-1.17,1.86-2.22,3.35-2.55-.24.43-.5.87-.54,1.29.09-.09.18-.17.29-.03-.07.18-.23.36-.17.53.17.25.3.06.46.25.14-.08.28-.09.43-.04l.13-.16c-.56-.48-.39-1.03-.14-1.59.41.22.78,0,1.14-.25.08-.05.49.56.59.09.27.43.25.1.62.38.08-.1,0-.19.12-.3.19.12.36.13.56.32Zm-8.53-1.52c-.02-.47.49,0,0,0h0Zm8,.68c.11-.16.17-.31.11-.45-.15.02-.68-.06-.62-.38l.2-.24c.21-.15.41-.26.61-.56l.71.59c.09-.2.05-.39.09-.59.45.61-.41,1.7-1.1,1.63Z"/>
    <path class="cls-22" d="m343.17,693.59c-.24-.19.09-.2.41-.33.18.35-.31.31-.16.67-.3-.13-.58,0-.91-.36.2-.2.43-.05.66.02Z"/>
    <path class="cls-8" d="m351.86,689.62c.54.28.42,1.21.09,1.81-.35-.58-.64-1.16-.09-1.81Z"/>
    <path class="cls-18" d="m362.82,679.12c.06-.1-.05-.19-.17-.28l-.16-.13.2-.24c.15.01.3.07.46.25-.19.48-.09.99-.7,1.15-.26-.17.05-.39.09-.59l.07-.08c.07-.05.13-.15.21-.09Z"/>
    <path class="cls-6" d="m350.87,699.91c-.02-.34.1-.69.35-1.05.24.15.23.7.56.61,0-.5.47-.58.49-1.06.49.49-.16,1.08-.29,1.63.1.19.05.51-.17.52l-.24-.2c.06-.08-.52-.43-.7-.45Z"/>
    <path class="cls-8" d="m347.34,693.74c.05.07.01.14.09.21l.07-.08c.39.19.65.76.86.73.04-.35.05-.81.42-.98.35.39.75.32.72.74-.3.41-.66.25-.97.52.24.29.42.57.77.52.08-.14,0-.62.32-.54.04.47.79,1.22,1.36,1.41-.09.43-.48.68-.8.8.08.09.23.17.17.28-.22,0-.43.1-.63.27,0,.46-.31.95-.1,1.39.26-.11.5-.39.76-.43.06-.13-.03-.24.04-.37-.09-.39.39-.45.23-.75.26.08,1.04.73.53,1.12.05.07.01.14.09.21l-.07.08c.24.15.23.7.56.61,0-.5.47-.58.49-1.06.49.49-.16,1.08-.29,1.63.1.19.05.51-.17.52l-.24-.2-.07.08c.35.24-.04.54.14.79.74-.15.87.54,1.11,1.07-.04-1.06,1.25-1.07,1.9-1.62.31.22.36.45.5.69-.36.58-.76.74-1.16.9l.39.33c.28-.16.56-.31.82-.65.5.63,1.46.92,1.39.1.39.23.43.73.86.73.45-.16.9-.31,1.33-.63.24.33.38.45.84.44l.13-.16-.08-.07c-.24-.66.82-1.11.99-1.18-.1-.07-.3,0-.24-.2.2.04.4.08.57-.2.05-.2.03-.39-.05-.58-.57-.08-1.1.22-1.72-.51-.09.27.04.53-.15.81-.57-.16-1.18-.72-1.78-1.23.13-.22.29-.05.41-.33-.37-.4-.53-.76-.22-.86-.51-.55-.97-.51-1.42-.39.12.16.56.29.26.49-.25-.2-.3-.41-.42-.62-.24.08-.48.1-.72.06-.15-.33-.25-.66-.52-.97.42-.15.87-.1,1.3-.11-.26.75,1.1.41,1.14-.25.58.48.12,1.06.72,1.54.41-.59.71-1.18.79-1.75-.27,0-.48.58-.75.58-.59-.29-.21-.66-.52-.97-.99-.59-1.69.61-2.54.15-.21-.11-.13-.37-.35-.7-.38-.55-.86-.72-.93-1.45-.12.28-.02.54-.29.83-.08-.03-.15-.01-.21.09-.39-.21-.51-.31-1.01-.71.24-.35.57.41.81.15.07-.18.23-.36.17-.53-.35-.38-.77-1.1-1.34-1.12-.33.22,0,.39-.24.6-.18-.11-.33.08-.5.12-.32-.21-.22-.47-.21-.71-.4-.41-.74-.17-1.12-.27.28-.19-.16-.33-.12-.5.46-.67.74-1.01,1.36-1.14.01-.29.18-.6.5-.92-.38-.08-.32-.33-.71-.59-.14.08-.25.48-.41.33.13-.21.26-.41-.05-.58-.38.37-.77.58-1.17.76.3-.51.82-1.04.31-1.48-.34.55-.72.66-1.08.97-.41-.52.29-.5.51-.77.75-.91,1.23-2.19.89-3.14-.27.46-.29.76-.79.94l-.08-.07c-.02.32-.27.66-.13.96.11-.23.19-.45.45-.69.28.17.21.37.34.55-.51.69-1.03.47-1.2,1.27-.27.02-.2-.16-.39-.33-.69.33-1,.55-1.7,1.39.21.18.47.35.48.54-.18.19-.36.34-.55.34-.11-.28-.44-.81-.79-.66-.53.77-.69,1.52-.97,2.27.67.19,1.3-.16,1.97.05-.6.42.35.7.6,1.04-.12.28-.28.11-.41.33l.47.4.07-.08c.13.05.25.03.36-.1.23.15.17.33-.03.51Zm1.32-1.57c-.21-.3-.5-.59-.3-.92.35.29.34.6.3.92Zm-2.19-.9c-.08-.58.36-1.25,1-1.03-.34.3-.64.97-1,1.03Zm11.57,9.84c.18.11.32-.23.5-.12-.11.18.08.33-.03.51-.13-.3-.58-.12-.47-.4Zm-5.46-1.64c.21.2.21.42.42.62-.22.24-.47.2-.74-.08.16-.18.06-.35.32-.54Zm1.6.81c.03.34-.34.38-.53.63-.23-.24-.07-.76.29-.83l.24.2Z"/>
    <path class="cls-8" d="m360.41,704.03c.41.02.08.59.22.86l-.13.16c-.11.15-.24.09-.34.25-.2-.09-.39,0-.6-.24.09-.32.42-.67.71-1.01.05.07.1.03.14-.01Z"/>
    <path class="cls-8" d="m363.28,701.88c0-.37.52-.27.78-.29l.08.07-.59.71c-.31-.14-.14-.33-.26-.49Z"/>
    <path class="cls-6" d="m350.78,698.1c-.11.14-.23.15-.35.1-.09-.39.39-.45.23-.75.26.08,1.04.73.53,1.12-.19-.15-.12-.33-.41-.47Z"/>
    <path class="cls-8" d="m358.49,702.96l.16.13c-.09.18.11.33-.17.52-.12.28-.28.11-.41.33-.2.05-.52-.01-.49.26-.8-.05,0-.87.11-1.25.16-.12.34-.06.49-.26.27.04.13.45.31.26Z"/>
    <path class="cls-15" d="m370.56,716.04c.16.21.26.42.34.61.54-.11,1.14-.26,1.82-.51.12-.04.24-.09.37-.14.12-.03.24-.06.36-.1-.02-.04-.03-.07,0-.11.13,0,.15.02.17.06.08-.02.17-.05.26-.07.05-.02.11-.03.17-.05-.08-.2-.18-.42-.21-.56-.54.1-.46-.46-.64-.67-.36-.44-1.33-.39-1.47-.96-.15-.33-.3-.65-.52-.97-.27-.09-.42.42-.32.54-.34-.31-.1.26-.33.39-.27-.04-.48-.29-.36.1-.28-.15-.59-.67-.85-.58-.18.33-.05.64-.42.98.13.18.06.38.34.55-.33.35-.76-.36-1.1-.12.4.26.3.56.65.82.39.51,1.13.21,1.09.78-.16-.11-.31-.17-.45-.11.42.24-.02.19.1.36.37.37.68.05,1-.23Zm-.48-2.14c.09-.08.17-.23.28-.17-.1.13.15.23-.04.37l-.24-.2Z"/>
    <path class="cls-16" d="m366.67,704.06c.7-.57,1.4-1.23,2.1-1.86.17.4.64.77.47,1.2-.62.34-1.07.66-1.33,1.43-.38.1-.82-.46-1.23-.77Z"/>
  </g>
  <g class="cls-3">
    <path class="cls-27" d="m317.13,635.73c-1.35,2.34-4.23,4.96-4.02,7.02,3.25-1.97,3.78-.84,7.14-1.26.38-2.34-5.07-1.09-2.34-4.32.19-.56-.02-1.05-.78-1.44Z"/>
    <path class="cls-34" d="m320.55,637.24c-.42.6-.01,1.05-.24,1.62.37.46,1.17.85.78,1.44,1.48,1.42,2.13-1.84,3.48-1.14.42-.6.84-1.2,1.26-1.8-2.03-1.58-3.39.64-5.28-.12Z"/>
    <path class="cls-33" d="m331.72,646.84c-3.37,1.15-4.61,2.91-5.65,6.78,1.2.83,1.91-1.1,3.24.48l.42-.6c2.73-2.35-.68-3.93,2.52-3.6l1.26-1.8-1.2-.84-.6-.42Z"/>
    <path class="cls-31" d="m334.48,641.62c1.17,1.55-.65,3.62-2.16,5.64l1.2.84c1.26-1.8,2.52-3.6,3.78-5.4-.94-.38-1.74.05-2.82-1.08Z"/>
    <path class="cls-34" d="m311.25,644.14c-.37,2.17,1.86,3.88,1.08,6.12,1.16.59,2.09-.08,2.88-1.56,1.72-1.53.2-2.49,1.92-4.02,1.82,2.38.45,4.14-1.56,6.06l.6.42c.42-.6.98-.37,1.44-.78-.68-.88.43-.49.84-1.2.38,1.16,1.84,2.13,1.14,3.48,1.81.31,3.45-.29,4.92-1.92-1.39-.8-1.57-1.83-.54-3.06,1.74-1.4,1.68,1.71,3,2.1-3.34.09-2.25,3.31-.12,5.28,1.05-1.55.96-.42,1.62.24l.84-1.2c-1.33-1.58-2.04.35-3.24-.48,1.03-3.87,2.27-5.64,5.65-6.78l-.6-.42c-.66.26-1.31.54-1.86,1.38-1.05-.69-1.25-1.53-.96-2.46-1.16-.54-.68,2.63-3.06.54,2.25,0,1.12-.7,2.88-1.57-1.27-1.76,1.99-.99,1.08-2.82-1.16-.59-2.09.08-2.88,1.56-4.27,2.48-2.87,4.15-5.28,8.82-.74-3.69-3.69-5.56,1.44-9.72-2.62.08-5.54,4.1-7.32.24l-1.68,2.4c2.35.65,1.96.8,1.56,2.88-.42.61-.99.38-1.44.78.46-2.83-1.17-2.25-2.34-4.32Z"/>
    <path class="cls-33" d="m317.13,635.73c-2.24,1.5-7.08,5.33-5.88,8.4,1.17,2.07,2.8,1.49,2.34,4.32.46-.41,1.02-.18,1.44-.78.4-2.08.79-2.22-1.56-2.88l1.68-2.4c1.78,3.87,4.71-.16,7.32-.24-5.13,4.16-2.18,6.03-1.44,9.72,2.41-4.68,1.01-6.34,5.28-8.82l-.6-.42c-1.27.79-2.54,1.5-3.72,2.76-1.05-.58,1.54-4.77,2.7-2.58.31-1.11.17-2.14.48-3.24l-.6-.42c-1.35-.7-2,2.55-3.48,1.14.39-.6-.41-.98-.78-1.44-.8-.56-1.6-1.12-2.4-1.68-2.73,3.23,2.72,1.98,2.34,4.32-3.36.42-3.89-.71-7.14,1.26-.21-2.07,2.67-4.68,4.02-7.02Z"/>
    <path class="cls-32" d="m320.43,633.58c.63,1.34,2.49,3.29.12,3.66,1.89.76,3.25-1.46,5.28.12l.84-1.2c1.96,1.2,1.02,5.59,3.78,3.54l1.26-1.8c-2.38-1.91-2.89-.85-4.2-2.94-2.57.75-3.5-2.53-6.66-1.98l-.42.6Z"/>
    <path class="cls-31" d="m325.83,637.36c-.42.6-.84,1.2-1.26,1.8l.6.42c.56-.8,1.12-1.6,1.68-2.4,1.19.84-.38,2.17,1.56,2.88-.77,1.62-2.01.54-2.7,2.58l.6.42c.79-1.48,1.72-2.15,2.88-1.56.51-1.09,1.29-.64,1.86-1.38l-.6-.42c-2.76,2.05-1.82-2.34-3.78-3.54l-.84,1.2Z"/>
    <path class="cls-26" d="m328.47,655.3c-.66-.66-.57-1.8-1.62-.24-2.12-1.98-3.21-5.2.12-5.28-1.32-.39-1.26-3.5-3-2.1-1.03,1.24-.85,2.26.54,3.06-1.47,1.63-3.11,2.23-4.92,1.92.69-1.35-.77-2.32-1.14-3.48-.41.71-1.53.32-.84,1.2,1.49,1.14,1.33,2.57,1.74,3.9,1.67.52,3.06-.55,4.5-1.32,1.22,1.4,2.2,5.54,4.62,2.34Z"/>
    <path class="cls-33" d="m328.11,644.32c-1.76.87-.63,1.56-2.88,1.57,2.38,2.09,1.9-1.08,3.06-.54-.28.93-.08,1.77.96,2.46.55-.85,1.21-1.12,1.86-1.38-.64-.59.26-1.45.66-2.22-.6-.42-1.2-.84-1.8-1.26-.54.89-1.09,1.76-1.86,1.38Z"/>
    <path class="cls-25" d="m326.55,632.49c-2.08-.88-4.12-1.49-5.7.48,3.16-.55,4.09,2.73,6.66,1.98.26-.93.1-1.77-.96-2.46Z"/>
    <path class="cls-26" d="m315.21,648.7c1.09.86-.97,2.27.54,3.06.33.23,1.02-.01.42-.6l-.6-.42c2.01-1.92,3.38-3.69,1.56-6.06-1.72,1.53-.2,2.49-1.92,4.02Z"/>
    <path class="cls-29" d="m315.21,648.7c-.79,1.49-1.72,2.15-2.88,1.56-.09,1.24-.43,2.53,1.14,3.48l.6.42c.68-1.13,1.62-.75,2.28-1.98,1.21,1.36,2.44,3.3,4.8,3.36,1.73.92-2.92,2.97.12,3.66,3.55,2.21,6.16-.83,9.18-1.62-3.04-1.94,1.93-2.84-.72-4.08l-.42.6-.84,1.2c-2.42,3.2-3.4-.94-4.62-2.34-1.44.77-2.83,1.84-4.5,1.32-.41-1.33-.25-2.76-1.74-3.9-.45.41-1.02.18-1.44.78.6.59-.09.84-.42.6-1.51-.79.55-2.2-.54-3.06Z"/>
    <path class="cls-27" d="m325.17,639.58c-.31,1.1-.17,2.13-.48,3.24-1.16-2.19-3.75,2-2.7,2.58,1.18-1.26,2.46-1.97,3.72-2.76.69-2.04,1.93-.96,2.7-2.58-1.95-.71-.37-2.04-1.56-2.88-.56.8-1.12,1.6-1.68,2.4Z"/>
    <path class="cls-30" d="m313.47,653.74c1.55,2.81,4.65,5.29,7.8,5.46-3.04-.69,1.61-2.74-.12-3.66-2.36-.06-3.6-2-4.8-3.36-.66,1.23-1.6.85-2.28,1.98l-.6-.42Z"/>
    <path class="cls-34" d="m334.12,648.52l-.6-.42-1.26,1.8c3.36-.63-2.13,5.68,1.92,4.92l.42-.6c-2.4-1.15-.58-3.05.72-4.86l-1.2-.84Z"/>
    <path class="cls-24" d="m326.55,632.49c1.05.69,1.22,1.54.96,2.46,1.31,2.09,1.83,1.04,4.2,2.94,1.73.86,3.51,1.99,5.04,1.74.63-4.65-6.82-6.02-10.2-7.14Z"/>
    <path class="cls-32" d="m331.06,640.11c-.57.75-1.35.29-1.86,1.38.91,1.83-2.35,1.05-1.08,2.82.77.39,1.32-.49,1.86-1.38.6.42,1.2.84,1.8,1.26-.4.77-1.29,1.63-.66,2.22l.6.42.6.42c1.51-2.02,3.33-4.09,2.16-5.64-1-.7-2-1.4-3-2.1l-.42.6Z"/>
    <path class="cls-25" d="m337.3,642.7c.85-.85.16-1.43.66-2.22l-1.2-.84c-1.53.26-3.31-.88-5.04-1.74l-1.26,1.8.6.42.42-.6c1,.7,2,1.4,3,2.1,1.07,1.13,1.88.7,2.82,1.08Z"/>
    <path class="cls-25" d="m335.32,649.36c.56.23,1.02-.18,1.62.24,1.13-1.07.7-1.88,1.08-2.82-1.44-.19-2.87-.34-3.9,1.74l1.2.84Z"/>
    <path class="cls-33" d="m336.93,649.6c-.6-.42-1.05-.01-1.62-.24-1.3,1.81-3.12,3.71-.72,4.86.51-1.49,3.5-3.42,2.34-4.62Z"/>
    <path class="cls-26" d="m334.17,654.82c-4.05.76,1.44-5.55-1.92-4.92-3.2-.33.21,1.26-2.52,3.6,2.65,1.24-2.32,2.14.72,4.08,1.07-1.87,2.65-.89,3.72-2.76Z"/>
    <path class="cls-31" d="m320.43,633.58c-1.25-.11-2.35.61-3.3,2.16.76.39.98.88.78,1.44.8.56,1.6,1.12,2.4,1.68.22-.56-.19-1.02.24-1.62,2.37-.37.51-2.32-.12-3.66Z"/>
    <path class="cls-28" d="m337.3,642.7c-1.26,1.8-2.52,3.6-3.78,5.4l.6.42c1.03-2.08,2.46-1.93,3.9-1.74,1.24-2.33.8-4.35-.06-6.3-.5.79.19,1.37-.66,2.22Z"/>
  </g>
</svg>