<?xml version="1.0" encoding="UTF-8"?>
<svg xmlns="http://www.w3.org/2000/svg" viewBox="0 0 375 217.45">
  <defs>
    <style>
      .cls-1 {
        opacity: .8;
      }

      .cls-1, .cls-2, .cls-3 {
        fill: none;
      }

      .cls-2 {
        isolation: isolate;
      }

      .cls-4 {
        fill: #eef2d5;
      }

      .cls-5 {
        fill: #ebf5fa;
      }

      .cls-6 {
        fill: #f0f0b1;
      }

      .cls-7 {
        fill: #e3edc0;
      }

      .cls-8 {
        fill: #edf4e5;
      }

      .cls-9 {
        fill: #f1f4cb;
      }

      .cls-10 {
        fill: #97d2ed;
      }

      .cls-11 {
        fill: #bae0df;
      }

      .cls-12 {
        fill: #a0d6ed;
      }

      .cls-13 {
        fill: #cde6f0;
      }

      .cls-14 {
        fill: #b2dddf;
      }

      .cls-15 {
        fill: #b2dded;
      }

      .cls-16 {
        fill: #a7d6f3;
      }

      .cls-17 {
        fill: #a9d9ec;
      }

      .cls-18 {
        fill: #bbe0ee;
      }

      .cls-19 {
        fill: #bbdeca;
      }

      .cls-20 {
        fill: #d9e69c;
      }

      .cls-21 {
        fill: #d6e7b2;
      }

      .cls-22 {
        fill: #c4e2d2;
      }

      .cls-23 {
        fill: #c8e3c6;
      }

      .cls-24 {
        fill: #dee9a5;
      }

      .cls-25 {
        fill: #c3e3ef;
      }

      .cls-26 {
        fill: #c3dfac;
      }

      .cls-27 {
        fill: #c4e0ba;
      }

      .cls-28 {
        fill: #d9e7ab;
      }

      .cls-29 {
        fill: #d8ebf3;
      }

      .cls-30 {
        fill: #cae2b5;
      }

      .cls-31 {
        fill: #e0eff6;
      }

      .cls-32 {
        fill: #c7e5e2;
      }

      .cls-33 {
        fill: #d5ebe9;
      }

      .cls-3 {
        mix-blend-mode: multiply;
        opacity: .85;
      }

      .cls-34 {
        fill: #82cbd1;
      }

      .cls-34, .cls-35, .cls-36, .cls-37, .cls-38, .cls-39, .cls-40, .cls-41, .cls-42, .cls-43, .cls-44, .cls-45, .cls-46, .cls-47, .cls-48, .cls-49, .cls-50, .cls-51, .cls-52 {
        fill-rule: evenodd;
      }

      .cls-35 {
        fill: #95d2d8;
      }

      .cls-36 {
        fill: #a1d6db;
      }

      .cls-37 {
        fill: #c7e6e6;
      }

      .cls-38 {
        fill: #c6e6f2;
      }

      .cls-39 {
        fill: #c4e4df;
      }

      .cls-40 {
        fill: #a9dadb;
      }

      .cls-41 {
        fill: #a9dae4;
      }

      .cls-42 {
        fill: #acdad7;
      }

      .cls-43 {
        fill: #acdbdf;
      }

      .cls-44 {
        fill: #b9e0e2;
      }

      .cls-45 {
        fill: #b9dfdd;
      }

      .cls-46 {
        fill: #91d0d5;
      }

      .cls-47 {
        fill: #9bd4d6;
      }

      .cls-48 {
        fill: #9bd3ca;
      }

      .cls-49 {
        fill: #9ed6dd;
      }

      .cls-50 {
        fill: #92d1d4;
      }

      .cls-51 {
        fill: #b4dedd;
      }

      .cls-52 {
        fill: #a0d6d6;
      }
    </style>
  </defs>
  <g class="cls-2">
    <g id="_背景" data-name="背景">
      <g>
        <path class="cls-17" d="m345.44,214.58c-.51.21-1.09.02-1.59.3-1.02.16-2.07-.14-3.02.33-.52.13-1.13-.06-1.67.05-.77-.06-1.65.1-2.31-.36.2-.58,1.42.17,1.97-.45.04-.03.11-.05.15-.03.59.27,1.02-.29,1.56-.29.23,0,.42-.23.6-.39.44-.39.73-.35,1.07.1.29.25,1.15,1.09,1.22.27.16-1.49-.77-1.09-.64-1.78.08-.4,1.38.14.98-.41-.34-.49-1.19.05-1.23-.7-.04-.27-.27-.47-.3-.77.18-.35.4-.85.86-.72.68.22-.22-1.17.18-1.75.31-.91-1.21-.44-1.26.18-.33.78.22,1.39.23,2.22-.79.5-1.53-.61-2.22.1-.12.12-.3.18-.49.18-.62.05-.3-.76-.81-.94-.93-.49-1.47-1.31-1.97-2.18-.39-.15-.5-.5-.62-.85-.06-.33-.49-.76.06-.9.36-.28-.27-1.09-.67-1.11-.47-.08-.74-.41-.94-.76-.17-.63-1.31-.93-.86-1.63.09-.13.22-.27.09-.44-.25-.3-.61,0-.92-.1-.95-.11.43,1.74-1.85.46-.34-.29-.83-.15-1.11.18-.72.21-.4.82-.48,1.27.33.94.22,1.83-.06,2.75-.03.14-.12.24-.23.32-.27.33-.83.91-.49,1.32.69.96,1.2,2.05,1.88,3.01-.77.13-1.39-.56-1.89-1.04.06-.57-.34-.91-.57-1.31-.43-.74-.48-1.65-.92-2.4-.13-.3-.12-.54.16-.75.48-.53.25-1.4.46-2.05.07-.35,0-.62-.32-.84-1-.77-.08-3.27,1.14-3.48.11-.08.24-.08.33.03.5.45,1.3-.54,1.53.63.05.26.16.24.33.17,2.19-.22.59-1.24,1.66-1.41.93-.1-.15-1.64,1.32-1.52,1.13-.08,2.25.27,3.38.11.54-.03,1.27.36,1.42-.45.15-1.29.66-.57,1.45-.73.68-.18,1.35.32,2.07.14.58-.04.9.29.96.86.01.16-.02.26-.18.31-1.33.54.06,1.77.2.92.56-2.57,2.99-1.09,4.65-1.18.29-.06.56.07.72.34.06.09.12.19.22.23.73.24,1.16.82,1.54,1.43.6,1,1.16,2.25.83,3.44-.09.2-.06.39.08.57.79,1.01.65,2.31.74,3.5.06.61-.04.73-.61.93-.3.1-.58.21-.9.21-.56.02-.27.89-.87.97-.31.16.22.53.33.72.41.43.47,1,0,1.34-.93.83-1.51,1.99-2.7,2.51-.58.33-.96,1.27-1.69,1.33Z"/>
        <path class="cls-10" d="m330.74,211.26c-.25-.25-.02-.64-.42-.77-.31-.13-.34-.44-.28-.73.16-.57.78-.2,1.19-.35-.06-.16-.21-.29-.13-.49.04-.33-.66-.25-.6-.95-.05-.72-1.46-2.1-.07-2.25.48-.17.53-.38.18-.74-.66-.6.47-1.07-.17-1.66-.82-1.12,1.12-1.2,1.17-.1,0,.07.01.14.11.2.29-.55.85-.39,1.32-.45,1.3-.21.4,2.13,1.32,1.54.7-.39,1.68,3.08,2.11,3.65.25.63.99.82,1.41,1.29.12.15.28.19.45.25.4.13.51.29.39.69-.13.49.46.99.87.68,1.61-1.05.87-.6,2.39-.13.78.05.41,1.14.36,1.65-.34.94-1.47,1.16-2.35,1.36-.91.2-1.82.7-2.8.56-1.12.34-.64-.97-1.86-1.53-.5-.59-1.58-.79-1.7-1.61,0-.19-.1-.3-.3-.31-1.77-.69-.45.74-1.71.42-.33.18-.65.09-.88-.21Z"/>
        <path class="cls-15" d="m345.81,214.46c.07-.48.77-.58.94-1.07.78-.52,1.58-.98,2.14-1.77.25-.69,1.21-.83,1.16-1.64.13-.38-1.32-1.23-.68-1.39.41-.09.47-.16.52-.58.05-.72.9-.22,1.29-.61.16-.12.41.05.52-.14.16-1.26.15-2.79-.5-3.93-.26-.31-.45-.49-.24-.88.3-.64-.08-1.21-.13-1.83.01-.31-.03-.6-.36-.75-.23-.1-.13-.4-.22-.58-.37-.56-.8-1.15-1.37-1.47-.53.08-.45-.68-.97-.64-.7.13-1.32.03-1.95-.27-.79-.22-1.81-.08-2.41.49-.03.02-.08.06-.08.08,0,.3-.24.5-.26.79-.01.22-.1.6-.39.41-.48-.28-.57-.12-.62-.74-.03-.06-.04-.16.01-.19.28-.16.38-.58.8-.53,0-.19-.14-.34-.1-.52.03-.13-.07-.23-.2-.27-.4-.22-.84-.18-1.29-.09-.11.05-.23-.05-.34-.09-1.07-.51-.94.28-1.92-.24-.3-.05-.45.44-.45.69.05.5-.71,1.01-1.1.63-.13-.12-.28-.08-.41,0-.31.22-.63-.21-.9.11-.06.07-.15.03-.22-.02-.34-.24-.7-.23-1.07-.11-.18.06-.3.05-.48-.06-.42-.19-.95-.08-1.35.15-.68.42.46,1.47-.99,1.35-.05.05-.05.08-.04.13.19.55-.11,1.17-.69,1.18-.32-.26-1.18.58-1.07-.14.07-.52-.58-.75-.97-.46-.27.15-.29.14-.46-.1-.22-.39-.42.21-.73.13-.52,0-.36.62-.73.81-.27.3-.13.82-.31,1.18-.34.96,1.01,1.13.75,1.91-.24.79.09,1.87-.67,2.38-.09.06-.12.16-.06.25.28.74.7,1.43.76,2.24.02.15.11.24.22.32.15.12.29.24.27.46.1.39.57.33.29.91-.7-.17-1.07-.93-1.61-1.35-.17-.42.48-.79-.01-1.13-.52-.47-.69-1.07-.7-1.73-.17-.74-.47-1.45-.61-2.2-.1-.4.31-.76.35-1.18.21-.72.09-1.52.23-2.22.05-.45.43-.56.68-.84.21-.6,2-1.49,2.57-1.12,1.82.78.89,1.47,2.25-.19.21-.13.13-.28-.04-.37-.86-.45-1.09-1.23-.24-1.85.38-.46,1.27-.11,1.11.52-.06.21.07.28.26.21.36-.1.69-.35,1.07-.36.36.02.68,0,.97-.27.61-.3.7.27,1.52-.32.44.07.83-.23,1.27-.18.73-.16,1.33-.82,2.14-.39.42.16.87.22,1.3.3.48-.17.95-.21,1.43.05.29.05.71-.46.92.03.53,1.01.86-.15,1.49.36.48.53,1.4-.34,1.75.37.28.92,1.34.13,1.84.82.12.19.43.05.54.22.38.66,1.27.32,1.43,1.31.26.43.2,1.01.53,1.37.24.22.5.42.49.8,0,.07.05.12.12.15.84.5-.11,2.27.37,3.29.18.41.79.3.79.9.1.32-.19.46-.2.78,0,.3-.15.49-.22.77-.62.58-.35,2.28-1.54,2.19.84,1.41-1.77,3.97-2.8,4.81-.27.29-.71.26-.92.61-.1.13-.24.07-.37.15-.14.15-.36.03-.49.16-.14.1-.43.11-.58.02Z"/>
        <path class="cls-25" d="m326.19,200.38c-.63-.78.23-1.66.22-2.51.1-.78.92-1.1,1.14-1.82.69-2.18,1.78-1.09,2.83-2.12.05-.08.21-.03.3.03.61.35.22-.85.98-.46.41.04.69.52,1.09.43.57-.28,1.22-.3,1.81-.54.44-.17.96-.06,1.42-.23.95-.51,1.84-1.03,2.93-1.18.46-.11.85.48,1.31.14.42-.34.78.34,1.21.05.37-.2.73-.17,1.08.04,1.84,1.09,2.36-1.53,3.2-.35.26,1.31,1.75,1.24,1.53,2.27-.1.39.57,1.01.98,1,1.11.07,1.84-1.27,2.95-.92.38.23.88.19,1.06.65.23.56.63,1.03.83,1.64.15,1,.03,2,.39,2.96.14.16,0,.34.1.5-.21,1.4.4,3.6-.48,4.71-1.31-.99-.67-2.42-.9-3.74-.12-.39-.21-.78-.06-1.19.21-.45-.88-.41-1.12-.78-.44-.56-.34-1.34-1.12-1.73-.35-.19-.21-.64-.49-.89-.4-.64-.71.42-1.2.05-1.42-.09-.78-1.02-1.85-.94-1.04.21-2.06-.73-2.36-1.64-.04-.33-.42-.48-.74-.26-.33.22-.58.19-.87-.03-.76-.34-1.72-.23-2.56-.41-.59-.04-1.23-.23-1.8-.01-.39.32-.95.3-1.32.67-.09.09-.22.12-.34.11-.45-.02-.84.28-1.3.23-.18-.02-.32.18-.5.25-2.23.97-3.69.66-5.1,3.04-1.16.91-2.98.49-3.04,2.55-.03.16-.01.33-.23.4Z"/>
        <path class="cls-18" d="m326.14,200.39c.46-.78.19-2.16,1.55-2.26.4-.08.68-.47,1.12-.42.24.01.39-.12.54-.29.55-.5.72-1.4,1.48-1.63.28-.07.53-.48.84-.58.42-.32.98-.03,1.37-.35.52-.17,1.04-.4,1.57-.59.21-.13.35-.35.63-.27.11,0,.22.08.32.01.46-.33,1.04-.07,1.42-.54.08-.04.12-.16.23-.14.25.05.42-.09.61-.22,1.06-.59,2.94.29,4.03.1.28-.22.94.76,1.17.39.31-.37,1.16-.27,1.12.3.09.53.64.88,1.06,1.18.38.76,1.32-.06,1.88.52.14.1.26.15.24.36.09.5.85.12,1.15.47.16.1.24-.14.32-.23.31-.37.63-.08.8.23.15.11.2.24.16.42-.08.41.57.32.66.71.14.33.57.52.48.94-.01.52.69.74,1.13.84.35.03.39.1.26.42-.33.85.43,1.66.04,2.53-.1.31.11.62.06.95-.19.64,1.18,1.42.57,1.76-.41-.84-1-.36-.93-.9.07-.27.02-.51-.14-.73-.33-.67.83-2.41-.41-2.51.22-.43-.05-.67-.35-.9-.3-.19-.34-.51-.31-.81-.31-.28-.21-.73-.47-1.04-.34-.66-.97-.16-1.14-.72-.04-.44-.42.02-.59-.32-.39-.67-1.13-.12-1.69-.49-.33-.21-.06-.77-.62-.62-.23.02-.45-.02-.66.13-.51.14-.81-.77-1.29-.19-.3.32-.79-.21-.89-.51-.02-.14-.13-.16-.25-.12-.34.21-.64.37-.98.05-.2-.17-.42-.1-.6.02-.61.26-1.29-.14-1.9-.28-.59-.25-1.11.08-1.59.4-.48-.01-.92.23-1.4.21-.13,0-.26-.04-.34.07-.42.64-1.23-.23-1.6.48-.06.11-.2.11-.29.09-.7-.28-1.26.5-1.87.35-.31-.21.21-.51-.09-.71-.22-.29-.63-.39-.9-.06-.21.29-.78.65-.47,1.04.1.44,1.48.81.78,1.18-.57.16-.43,1.29-1.09,1.04-1.32-.97-1.46-1.21-2.95-.43-.67.1-.59.76-1.11.96-.73.46-.14,1.59-.56,2.17-.17-.12-.07-.28-.1-.45.02-.22,0-.44-.03-.66-.01-.1-.09-.24.02-.3Z"/>
        <path class="cls-5" d="m325.81,198.73c-1.28-5.82,5.11-9.41,9.87-10.82,3.28-.95,6.68-.28,9.86.7,2.58.39,4.44,2.39,5.58,4.63-.39.19-.76-.76-1.44-.62-.49.05-.31-.61-.69-.74-.27-.12-.56-.22-.67-.54-1.15-.52-2.51-.81-3.58-1.55-.87-.26-1.43.18-2.35-.61-.95-.82-1.24.36-1.98-.09-.73-.55-1.39.19-2.13.05-2.43-.57-4.78.77-6.85,1.87-3.08,1.4-4.78,4.79-5.64,7.71Z"/>
        <path class="cls-31" d="m326.23,197.36c-.18-.33.63-1.77.86-2.11.6-.89,1.12-1.78,1.84-2.58,2.22-1.84,5.24-3.61,8.12-3.79.53.04,1.08.09,1.59.22.22-.28.58-.1.83-.27.57-.41,1.06.58,1.6.18.61-.59,1.29.02,1.85.33.32.51.98.14,1.47.24.25,0,.45.08.61.26.32.36.83.3,1.22.57.38.24.98.14,1.28.53.13.17.29.2.5.17.31-.05.36-.01.46.3.17.41.94.26.9.84.02.61.75-.28,1.9,1.27-2.22.82-1.76.1-3.46-.46-.28-.04-.37-.36-.41-.64-.06-.53-.19-.65-.7-.67-.68-.14-.85-1.1-1.7-.67-1.37.59-1.85.4-3.15-.09-.89-.38-1.89-.33-2.81-.65-.23-.1-.5-.14-.75,0-.45.29-.7-1.14-1.94-.65-.45.36-.99.11-1.48.28-.89.32-1.61,1-2.48,1.31-1.5.53-3.07,1.38-4.03,2.69-1,.98-1.33,2.33-2.17,3.39Z"/>
        <path class="cls-29" d="m326.2,197.36c.88-1.56,1.64-3.33,3.07-4.48.45-.12.56-.63.94-.77.78-.04,1.26-.82,2.07-.9.33-.09.69-.1.89-.47.4-.28.96-.39,1.35-.71.28-.15.61-.25.92-.25.36.18.64,0,.91-.21,2.25-.34,1.32,1.11,1.97.65.89-.26,1.71.57,2.66.34.17-.03.3.09.44.19.21.22.5.15.76.15.2.39.73.14.96.49.04.07.15.04.23.04,1.11-.01,2.39-1.19,3.11.15.2.29.54-.16.73.12.13.2.44.32.35.64-.09.4.27.8.68.72.23-.03.37.05.49.26.65.94,1.84.22,2.73.24.42.4.82.78,1.14,1.28-.25.47-.65-.73-1.41-.53-1.38-.52-1.65.66-2.71.17-1.93-.5-.42-.73-1.53-1.44-.96-.2-.89-2.42-2.09-1.56-1.84,2.13-1.94.07-3.31.4-.7.41-.39-.67-.93-.36-1.46.91-.96-1.15-1.86-.46-.2.13-.37.13-.57.02-.43-.3-.73.19-1.16.22-.62,0-1.16.66-1.77.31-1.01-.58-1.35.62-2.19.7-.32.01-.59.21-.82.41-.59.6-1.43,0-2.06.49-.3.27-.79.17-1.05.49-1.26,1.21-2.32,2.72-2.75,4.42-.06.32-.03.69-.41.88-.07-.08-.12-.15-.17-.26.04-.06.09-.09.17-.14.06-.43.12-.84.24-1.26Z"/>
        <path class="cls-13" d="m325.94,199.04c.56-.7.29-1.73.97-2.41.36-1.24,1.3-2.09,2.15-3,.22-.36.68-.17.96-.43.65-.61,1.51.07,2.15-.53.29-.26.63-.52,1.08-.46.2.03.33-.11.42-.27.22-.42,1.17-.83,1.52-.48.54.51,1.07-.27,1.7-.23.48,0,.79-.62,1.28-.26.31.18.31.17.58-.06,1.13-.72.27,1.6,1.99.43.55-.29.11.94.71.45.33-.19.95-.04,1.13.29.06.11.14.19.24.18.9.22,1.38-.1,1.92-.8.62-.76,1.39.14,1.53.83.06.65,1.26.63,1.25,1.28-.05.22-.08.63.26.58.46-.02.79.38,1.26.39.62-.13,1-.69,1.77-.34-.55.14-.98.51-1.48.76-.18,0-.28.14-.4.25-.29-.02-.58.1-.87.07-.32-.02-.45-.37-.68-.54-.27-.17-.3-.41-.22-.7.23-.61-.67-.69-.95-1.08-.4-.34-.36-.95-.78-1.24-.34-.23-.71.28-.9.53-.19.3-.68.28-.99.36-.66.16-1.14-.57-1.79-.4-.92.59-.84-.27-1.39.02-.89.56-.8-.52-2.24.13-.97.07-1.54.95-2.48,1.05-.38.21-.78-.08-1.16.15-.47.32-1.11.21-1.55.46-.36.46-.71-.31-1.06-.31-.24.1-.59-.44-.64,0-.15,1.16-.58,0-.95.43-.43.75-.38.34-1.02.38-1.09.3-1.4,1.06-1.77,2.03-1.22,1.01-.85,1.69-1.42,2.98-.19-.02-.14-.32-.12-.46Z"/>
        <path class="cls-18" d="m326.25,201.83c.32.74-.82,1.61-.18,2.25.35.35-.14.86.33,1.16.2.21.06.55.1.82.1.43.22.99.58,1.25.3.17.49.68.15.91-.06.05-.07.17-.1.29-.28.07-.27-.2-.41-.35-.55-.68-.66-1.59-.72-2.38-.16-.51-.16-1.11-.59-1.55-.04-.14.02-.27-.07-.42.02-.2.08-.39.13-.58.01-.06.04-.15.06-.22.22-.22.2-.61.43-.81.06-.15.12-.32.29-.36Z"/>
        <path class="cls-13" d="m347.26,214.13c-.11-.19-.01-.3.17-.34.74-.23,1.2-.92,1.8-1.37.27-.43.66-.77.99-1.15.15-.76,1.31-1.76.61-2.44-.29-.56.54-.05.77-.37-.84,3.16-1.37,4.1-4.34,5.67Z"/>
        <path class="cls-25" d="m325.38,204.23c.57-.34.33,1.07.74,1.31.13.15.05.42,0,.62-.06.24-.05.44.1.64.1.06.07.37-.11.28-.11-.18-.2-.35-.31-.55,0-.11-.03-.2-.02-.3-.2-.33-.03-.63-.25-.96-.17-.34-.17-.69-.14-1.05Z"/>
        <path class="cls-13" d="m351.15,194.32c.84-.48.76.47,1.41.55.37.14.72,1.28.54,1.65-.24-.07-.31-.29-.36-.49-.06-.33-.4-.46-.46-.79-.09-.67-.67-.65-1.13-.92Z"/>
        <path class="cls-31" d="m353.13,204.85s-.04-.08-.04-.14c.57-1.21.3-2.64.39-3.94-.05-.26-.16-.5.08-.74.19,1,.33,4.18-.43,4.83Z"/>
        <path class="cls-13" d="m336.74,214.92c-1.28.04-2.9-1.17-3.95-1.93.19-.28.34-.02.54.05,1.03.85,2.34,1.21,3.42,1.88Z"/>
        <path class="cls-13" d="m339.91,215.23c.31-.21.73.04,1.07-.17.67-.26,1.63-.4,2.25.05-.23.14-.44.02-.66-.05-.94-.37-1.72.63-2.66.16Z"/>
        <path class="cls-15" d="m333.33,213.08c-.24.09-.31-.28-.56-.12-.64-.28-1.1-.89-1.57-1.4.06-.05.13-.06.25-.07.68.49,1.49.92,1.88,1.6Z"/>
        <path class="cls-13" d="m336.86,214.89c.76.38,1.57.12,2.29.35-.17.32-2.73-.03-2.29-.35Z"/>
        <path class="cls-13" d="m331.17,211.52c.47.36.85.8,1.28,1.22-.56,0-1.23-1.11-1.73-1.48.17.04.35.07.45.26Z"/>
        <path class="cls-31" d="m353.49,199.47c-.29-.02-.53-1.7-.34-1.94.16.63.23,1.27.34,1.94Z"/>
        <path class="cls-29" d="m326.69,208.16c.23,0,.21.27.41.37.35.13.44.48.71.72-.13.09-.23-.03-.29-.12-.24-.38-.75-.49-.83-.97Z"/>
        <path class="cls-13" d="m344.6,214.79c-.12.41-1,.43-1.37.37.12-.25.35-.22.59-.25.28-.05.5-.22.78-.12Z"/>
        <path class="cls-15" d="m344.64,214.81c-.27-.06-.71.37-.85.06.27-.19.68-.42.98-.16-.04.05-.07.07-.13.1Z"/>
        <path class="cls-29" d="m328.01,209.55c.27-.09.6.33.76.54-.33-.03-.53-.29-.76-.54Z"/>
        <path class="cls-13" d="m326.24,201.8c-.06.13-.14.23-.23.35-.11-.27.06-.52.13-.81.14.11.05.28.1.45Z"/>
        <path class="cls-29" d="m351.9,207.9c-.03-.23.06-.45.21-.67.07.24.04.48-.21.67Z"/>
        <path class="cls-13" d="m345.77,214.44c.12.05.23-.07.34.04-.2.13-.42.21-.69.11.09-.06.21-.1.35-.15Z"/>
        <path class="cls-29" d="m326.08,207.1s.06-.03.1-.01c.08.15.19.26.2.44-.21-.05-.25-.23-.3-.43Z"/>
        <path class="cls-13" d="m325.44,203.24c.1.18.04.35-.1.52-.11-.18-.04-.34.1-.52Z"/>
        <path class="cls-13" d="m339.18,215.28c.13-.11.29-.2.5-.08-.13.14-.29.19-.5.08Z"/>
        <path class="cls-13" d="m325.76,202.5c.11.22-.04.34-.21.49-.03-.18.09-.32.21-.49Z"/>
        <path class="cls-31" d="m352.66,206.15c-.08-.11-.05-.23.02-.36.09.1.14.23-.02.36Z"/>
        <path class="cls-29" d="m352.51,206.52c-.08-.1-.08-.2.05-.3.08.1.07.2-.05.3Z"/>
        <path class="cls-29" d="m325.76,206.23c.07.06.14.14.04.26-.07-.06-.14-.14-.04-.26Z"/>
        <path class="cls-31" d="m326.07,200.44c.07.04.14.23.04.28-.07-.09-.14-.17-.04-.28Z"/>
        <path class="cls-31" d="m325.43,205.02c.06.04.11.1.09.21-.14,0-.18-.07-.09-.21Z"/>
        <path class="cls-29" d="m328.88,210.28c.1-.08.17-.04.23.09-.09.07-.16.02-.23-.09Z"/>
        <path class="cls-13" d="m346.87,214.3c0-.14.07-.18.21-.09-.04.07-.1.11-.21.09Z"/>
        <path class="cls-5" d="m351.44,193.53s-.08.04-.14.04c-.04-.04-.06-.07-.09-.13.09-.08.17-.04.23.09Z"/>
        <path class="cls-13" d="m344.78,214.74s-.04-.03-.05-.05c.07-.05.15-.12.27-.03-.04.07-.11.08-.21.08Z"/>
        <path class="cls-13" d="m326.08,200.74s.03-.05.05-.06c.05.07.12.15.03.26-.07-.04-.08-.11-.08-.2Z"/>
        <path class="cls-31" d="m325.34,204.52c.06.06.12.14.03.25-.08-.06-.08-.14-.03-.25Z"/>
        <path class="cls-13" d="m332.57,212.91c.06-.05.12-.05.18.03-.05.05-.12.06-.18-.03Z"/>
        <path class="cls-31" d="m325.93,199.39s.06.05.09.1c-.02.04-.05.06-.1.09-.06-.05-.08-.12,0-.19Z"/>
        <path class="cls-13" d="m325.5,203.02c.05.05.06.12-.02.19-.05-.05-.07-.12.02-.19Z"/>
        <path class="cls-13" d="m346.4,214.44c-.05-.1-.06-.18.11-.09-.02.04-.05.06-.11.09Z"/>
        <path class="cls-31" d="m351.67,193.77c-.06.04-.14.09-.15-.06.06-.02.1,0,.15.06Z"/>
        <path class="cls-31" d="m353.53,199.85c-.06-.05-.08-.11,0-.19.06.04.08.11,0,.19Z"/>
        <path class="cls-13" d="m330.59,211.01s.04.03.05.07c-.02.03-.08,0-.09-.02,0-.02.01-.04.04-.05Z"/>
        <path class="cls-12" d="m330.64,211s-.06.04-.07.05c-.36-.35-.66-.69-.87-1.15-.08-.23-.39-.35-.42-.59.04-.79-1.27-1.21-.66-1.98.25-.22.19-.63.57-.74.04-.02.11-.08.11-.11-.02-.36.26-.65.2-1.02-.03-.16-.01-.31.11-.45.19-.61-.51-1.25-.21-1.94.08-.29-.2-.74.29-.71.46.05.16-.55.67-.46.25.04.56.03.79.15.19.4.62.31.94.45.29.13.43-.02.37-.34-.1-.39.05-.55.36-.61.37.28.78-.19,1.13.16.14.1.18.22.07.38-.84.82.6.95.67,1.75.06.24.37.27.45.5.53.45,1.03.05,1.27,1.06.42.65-.44.27-.35.67.22.27.19.63.38.92.16.53.55.25.63.62.24.93,1.07,1.6,1.88,2.05.51.12.05.96.63.88.53.04.77-.75,1.29-.44.23.08.47.28.71.27.23-.12.44,0,.69.02.19.32.47.61.46,1.02.14.41.8-.17,1.01.3.04.07.15.11.23.15.39.21-.1.47-.34.43-.22.04-.58-.19-.72.03-.06.73.7-.03.71,1.72.06.2-.25.56-.46.59-.39.05-.27-.62-.74-.45-.1.03-.15-.13-.21-.22-.6-1.16-1.15.48-1.98.32-.19-.02-.35.07-.47.21-.3.47-.73-.36-1.04.16-.55.46-1.37-.2-1.91.28-.5-.48-1.34-.52-1.68-1.09-.17-.49-.56-.67-1.03-.71-.22-.02-.4-.08-.51-.27-.52-.72-1.4-.9-2.1-1.41.03-.23.25-.13.38-.06.75.31.08-.69.55-.71,2.62.4.24.6,2.29,1.59.28.08.35.2.43.46.35.04.5.44.86.46.48.12.26,1.49,1.04,1.22.58-.13,1.18.12,1.73-.23.12-.07.23-.15.38-.11.41.17.58-.4.94-.33.35.05.76-.03,1.03-.22.1-.13.23-.17.38-.21.61-.16.87-.72.86-1.35-.08-.34.26-.88-.25-.96-.4.01-.69-.09-.96-.39-.71-.6-1.38,1.06-2.12.55-.95-.62.19-1.17-.64-1.39-.55,0-.6-.66-1.11-.68-.33-.1-.45-.57-.78-.73-.04-.03-.11-.08-.11-.11,0-.35-.33-.58-.32-.92-.25-.6-.71-1.13-.81-1.81-.09-.32-.39-.5-.48-.83-.09-.37-.36-.15-.5.07-.44.3-.54-.71-.51-.99.12-.49-.44-.84-.87-.72-.34.18-.85-.15-.97.35-.06.09-.1.22-.22.21-.15-.02-.18-.17-.16-.29.08-.53-.74-1.13-1.1-.68-.29.31.22.63.33.94.3.52-.7.87,0,1.33.12.16.43.36.24.56-.42.67-1.67.09-.77,1.27.08.04.08.14.05.22-.12.5.48.22.38,1.17-.02.59.94.32.56.88-.12.24.14.13.25.22-.01.17-.2.49-.4.34-.27-.12-.9-.13-.91.24-.04.3.07.55.28.61q.38.12.25.56Z"/>
        <path class="cls-12" d="m339.58,204.63c-.15-.13-.42-.2-.36-.42.1-.2.11-.38-.01-.57-.08-.15.11-.36.08-.51-.16-.45.09-.83.17-1.24.08-.3-.2-1.01.34-.92.24.06.6.16.67-.19.14-.38.74.1.85-.61.12-.67.92-.07,1.35-.41.33-.09.82-.24,1.03.14.03.07.07.14.18.17-.02-.61-.04-1.23.6-1.54.44-.31,1.16-.82,1.65-.4.17.4.79.64.57,1.14-.04.26.23.48.23.76.34,1.37-1.46,1.79-1.82,2.88-.12.76-.53,1.4-.86,2.07-.17.28-.63.11-.91.19-.6.11.29.52.04.93-.03.11.01.21.04.31.09.33-.13.42-.42.35-.74.19-.69-.8-1.31-.94-.2-.07-.32-.16-.35-.38-.08-.47-.73-.37-1.1-.4-.29.08-.42-.24-.64-.41Z"/>
        <path class="cls-12" d="m350.3,206.92c-.46-.1-1.1.27-1.28.69-.03.21-.14.29-.37.27-.27,0-.49.28-.78.19-.21-.67.33-1.24-.26-1.85-.3-.53.3-.34-.02-1.2-.04-.47-1.36-.67-.69-1.26.36-.28,1.12-.26,1.12-.83.04-.36-.07-2.34.46-2.08.59.25.34-.7.9-.57.94.1.34,1.19.66,1.78.04.3-.55.87,0,1.04.71.25,1.12.89,1.03,1.63-.03.66-.78,1.08-.47,1.8.07.27.03.31-.32.38Z"/>
        <path class="cls-12" d="m342.28,210.37c-.38-.46-.1-1.17-.63-1.56-.12-.1-.16-.24.02-.32.45-.28.21-.95.88-1.05.34-.12.96-.24.91.32-.59,1.02.62,2.35-.27,2.08-.54-.23-.46.35-.91.53Z"/>
        <path class="cls-12" d="m345.82,212.47c-.12.71.34.53-.45.95-.51.41-.61-.34-.85-.64-.13-.16,0-.38-.03-.58-.02-.15.16-.2.28-.26.66-.22,1.18-.96,1.95-.74.17.07.21.14.08.26-.23.22-.38.53-.7.65-.15.06-.24.17-.27.36Z"/>
        <path class="cls-12" d="m347.91,209.59c-.46.35.17.48.1.89-.06.4-.39.13-.63.11-.33-.02-.46-.19-.32-.47.22-.47-.43-.6-.16-1.21.08-.25.43-.19.61-.34.19-.1.25-.06.23.15-.13.39.52.52.17.86Z"/>
        <path class="cls-16" d="m343.76,214.82s.06.08.09.13c-.17.11-.4.04-.6.19-.11-.12-.27-.12-.42-.19.28-.12.58-.19.93-.13Z"/>
        <path class="cls-15" d="m341.35,197.45c-.04.36-.37.21-.47-.02,0-.25.32-.26.47.02Z"/>
        <path class="cls-12" d="m343.87,212.77c.12.03.23.09.17.18-.12.19-.5-.13-.17-.18Z"/>
        <path class="cls-12" d="m328.58,205.79c.09-.07.13-.02.14.05-.02.11-.15.06-.14-.05Z"/>
        <path class="cls-12" d="m332.38,205.6c-.44.47-.3-.63-.49-.83-.09-.14,0-.22.13-.28.42-.13.19.81.36,1.11Z"/>
        <path class="cls-18" d="m345.37,194.06c-.3.18-.52-.25-.86-.14-.3.05-.22-.41.04-.37.59.37.47-.27.88-.14.24.15.14.49-.06.65Z"/>
        <path class="cls-15" d="m333.2,195.85c-.14.04-.27.25-.36.08-.08-.14.12-.21.22-.28.3-.25.54.02.14.2Z"/>
        <path class="cls-31" d="m326.18,197.38c.05.4-.05.79-.18,1.21-.12-.41-.04-.81.18-1.21Z"/>
        <path class="cls-17" d="m331.46,211.5c.35-.03.58.41.96.39.31.08.47.43.81.49.38.1.36.77.86.66.41-.04.98.34,1.08.74.23.56,1.03.42,1.36.99-2.02-.48-3.55-1.98-5.08-3.28Z"/>
        <path class="cls-10" d="m342.09,200.3c.56.32.76-.59,1.11.06.07.28.23.46.44.64.16.5.29,1.1.58,1.52.59.42.1.95-.04,1.46-.03.22-.24.27-.39.38-.46.54-1.42.12-1.91-.18-.08-.09-.23-.04-.26.09-.15.55-.71.3-1.11.3-.6-.02-.71-.48-.72-.98-.22-.62.12-1.09.44-1.55,1.6-.6,1.04-1.21,1.85-1.71Z"/>
      </g>
      <g class="cls-3">
        <path class="cls-27" d="m38.96,54.64c.1-.05.18-.16.29-.18.2.1.36.52.61.3.38-.26.84-.68,1.31-.6.38.11-.1.31.53.66.29.14.37.45.56.67.07.12-.03.26-.04.39-.17.4.37.38.3.74-.04.16-.04.32,0,.48.13.38-.45.4-.42.76,0,.34.43-.11.57.29.12.24.45.12.59.34.14.14.27.31.47.37.11.03.14.14.14.24.02.27.24.43.31.68.17.22.52-.14.72.32.05.1.13.19.22.25.29.22.3.61.55.86.18.14,0,.46.15.61.07.04.12-.03.16-.07.12-.11.25-.2.42-.24.12-.03.19-.11.24-.22.17-.47.52.65.74.07.16-.31-.11-.84.2-1.05.18-.06.41-.11.59.07.13.14.26.06.34-.05.32-.48.8-.31,1.24-.3.3.02.29.46.56.56.53.42-.25.7-.11.9.34.73.79.37.79.69-.09.39-.28.7-.56.97-.25.06-.34.02-.39-.2-.05-.22-.23-.35-.33-.53-.02-.04-.07-.05-.11-.05-.21.03-.37-.12-.56-.15-.19-.07-.19-.46-.23-.67-.25.22-.53.15-.75.35-.11.11-.23.18-.39.17-.21-.07-.14.76-.68,1.23-.09.1-.21.16-.34.13-.82-.2-.78,1.03-1.44,1.06-.14-.04-.12-.17-.14-.28-.06-.23.1-.39.17-.59,0-.22.1-.37.32-.44-.24.05-.3,0-.29-.23-.05-.24-.29-.33-.15-.62.23-.35.17-.68.03-1.03-.06-.16-.16-.69-.38-.36-.04.25-.33.21-.36-.03-.02-.05-.02-.12-.09-.12-.06,0-.08.05-.1.1-.08.26-.32.24-.52.33-.1.07-.19.05-.27-.03-.93-.81-.84.57-1.66.84-.37.24-.46.3-.76-.04-.1-.1-.15-.21-.07-.34.08-.13.03-.21-.08-.28-.23-.16.03-.44-.2-.69-.1-.21-.31-.36-.29-.64,0-.07-.08-.12-.15-.17-.42-.36.31-.38.54-.42-.11-.16-.31-.08-.44-.2-.43-.34.47-.23.13-.6-.1-.2-.17-.48-.11-.68.54-.51.93.55,1.3.02.13-.22.18-.48.41-.62.16-.11.23-.36.16-.54,0-.01,0-.03-.02-.04-.21-.04-.34-.29-.59-.23-.14.03-.26,0-.36-.11-.29-.36.17-.35.2-.59-.02-.08-.26-.2-.31-.11-.16.22-.41.36-.56.6-.08.2-.9.54-.87.19-.04-.24.1-.63-.17-.75-.42-.21-.98-.65-.59-1.15Z"/>
        <path class="cls-14" d="m48.46,53.55c.15.14.15.37.28.54.07.1.19.17.26.27.26.4.75.67.44,1.23.04.38-.27.56-.45.82-.41.48-.65-.89-1.01-.47-.16.5-.63.6-1.1.61-.65-.05-.84-.88-1.42-1.14-.32-.21-.69.14-1.15-.06-.31-.14-.2-.64-.53-.79-.37-.13-.27-.65-.64-.76-.42-.11-.18-.72-.65-.75-.06-.01-.17-.05-.15-.14.15-.15.34-.14.5-.11.46.07.91.02,1.36.02.24,0,.47.01.71-.07.57.05,1.17.25,1.75.31.25.13.56-.29.76-.05.22.44.7.29,1.05.55Z"/>
        <path class="cls-24" d="m42.43,66.79c-.09-.02-.17-.05-.24-.12-.19-.06-.39-.08-.55-.21-.1-.15-.21-.25-.38-.26-.74-.09-1.45-.72-1.66-1.42.03-.17-.05-.29-.19-.37-.5-.35-1.68-1.52-1.29-2.16.09-.13.07-.26-.11-.33-1.2-.37.03-1.47-1-1.5-.24,0-.18-.27-.28-.4-.06-.07-.1-.14-.11-.24.04-.61-.1-1.2.17-1.78.1-.32.1-.74.44-.92.58.26-.08.72.29,1.08.29.31-.19.55-.07,1.01.05.14.49.21.64.21.24-.08.4.28.22.43-.36.29-.16.59-.07.91.12.57.65.51.9.86-.01.19.36.22.2.39-.1.22-.52.52-.23.74.27.26.6.16.91.21.09.05.19.05.28,0,.31-.07.63.29.73.57.07.24.14.28.38.19.23-.06.85.08.78.42-.28.18-.33-.32-.78-.12-.36.08-.48.39-.72.58-.14.11-.16.32-.09.49.14.44.73.29,1.04.55.17.07.19.31.29.47.11.25.6.42.69.1.05-.48.55-.52.77-.83.03-.16.14-.23.3-.28.33.15.15.58.46.7.15.07.28.18.41.32.39.8-1.24.96-1.75.89-.14-.06-.26-.14-.41-.19Z"/>
        <path class="cls-30" d="m38.91,54.68c.06.29-.15.54.2.75.17.23.75.3.65.61-.02.08-.04.15.02.22.05.09-.04.2-.02.31-.06.23.76-.1.77-.22.11-.14.2-.32.34-.42.11-.04.17-.11.22-.21.06-.12.08-.12.2-.03.11.08.34.04.24.24-.03.08-.09.11-.17.15-.31.11-.06.44.13.45.18,0,.36-.11.47.09.11.14.42,0,.32.28-.04.14.11.35-.07.42-.53.25-.32.86-.9.92-.09-.15-.28-.17-.39-.31-.09-.12-.12-.12-.23-.02-.15.08-.4-.08-.32.23.03.1.08.18.05.3-.03.09.08.15.14.22.19.34-.14.27-.31.39.08.24.37.19.56.29.12.03.08.21-.04.18-.17-.04-.9.03-.52.27.1.05.29.19.22.31-.11.1.32.56.38.73.09.19-.18.38.09.49.38.18-.21.41.14.62.3.31.22.29.58.08.19.05.07.34.22.49-.16.17-.48.29-.62.05-.09-.32-.59-.52-.45-.87.16-.29-.45-.22-.3-.52.34-.75-.62-.67-.48-1.02.12-.46-.24-.95.04-1.42.16-.41-.42-.51-.73-.56-.08-.03-.13.02-.18.08-.17.28-.88.16-.7-.21.36-.42-.05-.93-.44-1.17-.74-.66.79-1.25.61-2,.09-.05.19-.23.29-.21Z"/>
        <path class="cls-30" d="m45.12,62.3s.05.05.04.08c-.13.23.07.38.23.5-.05.06-.18.1-.09.21.04.05.09.1.16.04.05-.04.11-.11.18-.06.06.27-.45.16-.33.49,0,.18-.25.31-.21.5.09,1.28.84-.86,1.3-.71.62.16.87-.48,1.05-.96.05-.15-.07-.41.17-.4.29.1.39-.22.63-.28.16-.06.36-.04.48-.21.06-.06.2,0,.15.1-.06.15.11.27.07.42-.04.22.19.09.28.17.14.23.49-.03.57.24.02.06.05.12.1.15.27.16.07.59.48.53-.13.53-.68.93-1.02,1.35-.18.15-.28.17-.44,0-.19-.21-.38-.41-.66-.5-.12-.03-.2-.13-.24-.25-.04-.3-.61.32-.74.4-.27.35-.58-.16-.91-.04-.13.03-.23.11-.22.26,0,.77-1.08,1.1-1.46.41-.33-.25-.78-.13-.86-.71.03-.07.09-.08.14-.09.64-.05.53-.65.57-1.11.04-.28.42-.3.58-.55Z"/>
        <path class="cls-22" d="m51.49,61.4s-.07.06-.07.09c-.04.2-.23.24-.31.42-.2-.08.03-.46.02-.64.06-.24-.19-.42,0-.65.07-.1.02-.21-.13-.21-.28-.06-.4-.44-.72-.47-.4-.17-.8,0-1.2-.03-.19-.07-.38.03-.56.01-.24-.06-.46-.06-.7.08-.14.08-.35.06-.53.09-1.04-.03-1.39,1.21-1.78.54-.12-.19-.3-.34-.39-.56-.14-.29-.68-.18-.77-.55-.21-.27-.11-.8-.47-.9-.34-.02-.31-.39-.5-.59-.58-.61.65-1.44-.42-1.86.03-.3.46.04.45-.39,0-.09.03-.18.11-.26.15-.03.29-.03.43.05.3,1.25-.23.57-.11,1.53-.14.13-.08.24,0,.38.13.36-.29.79.3.88.92.14.14,1,.98,1.01.38.05.43.1.48.48,0,.34.33.58.53.22.27-.36.85-.16,1.03-.64.13-.25.4.14.67-.18.61-.05.62-1.16,1.19-1.19.28.07.58-.2.73.17.04.09.15.07.23.04.25-.07.48.07.73.03.05,0,.09.04.11.08.14.2.46.16.46.47.22,1.08.67,1.29.21,2.53Z"/>
        <path class="cls-23" d="m42.93,56.15c.36.12.64.34.49.75-.06.16,0,.34-.14.47-.11.11-.06.25-.03.38.08.25.32.4.36.68.02.1.14.15.25.16.52.03.26,1.16.85,1.21.16,0,.25.18.41.18.05,0,.07.1.08.16.01.06.01.13.07.17.22.13.4.75.7.4.12-.19.34-.27.45-.46.03-.05.08-.05.13-.04.24.04.42-.18.67-.15.1,0,.2.02.28-.06.03-.03.08-.01.12,0,.26.1.35-.26.61-.16.28.14.58-.06.87.04.32.03.65-.1.99-.02.23-.02.38.15.57.24.09.02.16.06.17.17.02.22.3-.02.36.14.16.29-.2.31-.05.54.17.31-.09.64-.05.97-.02.09-.03.18-.1.26-.14-.25-.49,0-.67-.4-.05-.16-.36-.34-.17-.49.23-.12.42-.56.1-.68-.44-.2-.15-.72-1.03-.54-.2.07-.5-.1-.59.19-.11.22-.4.42-.54.13-.02-.03-.05-.08-.1-.07-.14.06-.37-.06-.46.06-.1.33.01.68-.1,1.01-.09.44-.56.03-.66-.2-.05,0-.06.03-.07.06-.05.18-.15.29-.34.32-.26,0-.63.69-.67.1.13-.42-.31-.56-.33-.92-.01-.22-.29-.23-.33-.44-.01-.03-.04-.06-.07-.07-.07-.04-.11-.1-.14-.17-.14-.42-.7.09-.76-.43-.02-.09-.03-.17-.13-.23-.19-.1-.02-.43-.2-.52-.39-.03-.45-.55-.84-.54-.32.04-.27-.55-.62-.31-.35.19-.28-.49-.02-.57.24-.13.27-.2.19-.45-.1-.22.13-.41-.02-.62.14-.11.33-.14.5-.24Z"/>
        <path class="cls-21" d="m45.61,65.06c.24-.13.5-.4.48-.67-.02-.07-.06-.14,0-.19.16-.23.58-.27.77-.03.05.08.28.04.36-.06.11-.18.3-.25.45-.36.07-.13.2-.16.31-.23.21.66.5.27.94.89.18.21.21.21.42,0,.17-.11.25-.35.42-.43.06.23-.2.38-.34.52-.07.08-.04.19-.12.26-.24.5-.64.91-1.19,1.01-.35.2-.68.4-1.1.42-.22.03-.46.14-.61-.13-.45-.18-.61-.58-.78-1Z"/>
        <path class="cls-19" d="m42.96,56.15c-.53.49-1.03.13-.73-.53.06-.16-.21-.18-.2-.37-.08-.39-.87-.47-.73-.88.05-.23-.39-.2-.53-.1-.31.2-.66.33-.93.59-.11.1-.15.1-.24-.01-.1-.12-.28-.18-.32-.37.02-.04.05-.05.09-.08.67.09,1.09-.51,1.7-.54.26-.06.69-.5.82-.01.07.3.15.34.42.15.36-.22.74,0,.64.42.15.25.19.56.4.77.1.1.18.19.21.35-.18.2.02.63-.35.57-.08,0-.15-.03-.23.04Z"/>
        <path class="cls-25" d="m48.4,53.52s-.07.04-.09.02c-.41-.27-.63.03-.96-.53-.06-.07-.11-.08-.18-.01-.08.08-.18.06-.27.09-.42.08-.81-.11-1.23-.13-.31-.04-.64-.28-.95-.1-.62.03-1.27.1-1.89,0-.33-.04-.62.17-.9-.21.32-.45,1.37-.17,1.88-.37.26-.06.54,0,.79-.12.41-.23.82-.09,1.26-.1.3.21.67,0,.96.17.51.42,1.27.7,1.57,1.3Z"/>
        <path class="cls-7" d="m45.6,65.04c.13.24.29.47.46.68.03.18.14.26.32.25.16-.03.06.21.18.21.27.03.51-.09.78-.11.13,0,.26-.04.36-.14.13-.12.28-.2.46-.24.22-.1.51-.11.65-.33.07-.09.11-.22.25-.26.01.27-.23.47-.39.67-.13.02-.11.16-.2.23-.19.16-.42.27-.6.46-.49.03-.89.31-1.39.22-.58-.09-1.11.14-1.68.25-.13-.09-.26-.16-.31-.32.09-.14.19-.27.08-.45-.03-.34.43-.49.69-.62.18-.05.06-.22.07-.36.08-.08.14-.15.27-.14Z"/>
        <path class="cls-6" d="m36.91,60.4c.31-.13.75.11.63.45-.16.27,0,.53.05.79.06.16.3.04.39.2.17.11.34.09.23.33-.01.16-.2.27-.14.42.28.77.86,1.38,1.5,1.86.08.09.14.18.08.3.07.46.54.86.92,1.13.32.32.89.08,1.09.52-.02.09-.12.06-.17.01-.24-.02-.44-.16-.66-.22-.17-.19-.43-.28-.65-.39-.19-.15-.36-.31-.53-.48-.73-.71-1.58-1.39-1.85-2.41-.41-.8-.85-1.58-.87-2.52Z"/>
        <path class="cls-33" d="m51.66,60.25c-.04-.48-.27-.91-.26-1.4.04-.38-.23-.69-.22-1.06.02-.35-.37-.18-.58-.32,0-.27.42-.13.34-.42-.11-.48-.27-1.06-.71-1.34-.64-.27-.63-1.08-1.25-1.35-.03-.06-.11-.06-.12-.13,1.32.35,1.95,1.68,2.51,2.78.14.16.06.41.2.56.27.67.16,1.41.28,2.11.02.13.04,1.15-.18.76,0-.06.01-.12-.01-.2Z"/>
        <path class="cls-22" d="m42.32,54.02c-.12.21-.51.21-.49-.09.06-.29-.26-.33-.47-.18-.11.16-.26.17-.44.16-.51.1-.99.72-1.54.49.46-.44.96-.82,1.45-1.25.43-.05.79-.27,1.22-.06.07.16.09.33.26.42.05.03.04.1.01.15-.07.12-.04.23,0,.36Z"/>
        <path class="cls-7" d="m38.61,54.88c.36.49-1.3,1.4-.58,1.97.02.2-.04.35-.21.45-.21-.06-.29-.29-.56-.21-.35.27-.33.67-.45,1.04-.26.54-.03,1.09-.15,1.65-.43-.13-.37-1.07-.18-1.39,0-.38.23-.64.43-.93.46-.92.84-1.97,1.71-2.58Z"/>
        <path class="cls-9" d="m44.8,66.91c.66-.32,1.39-.32,2.11-.28.32,0,.62-.33.93-.18.03.12-.12.1-.18.16-.1.08-.2.14-.29.24-.06.01-.11.03-.16.08-.66.02-1.3.19-1.94.28-.44.09-1,.59-1.41.15.08-.14.23-.11.34-.15.2-.08.38-.19.59-.29Z"/>
        <path class="cls-8" d="m44.3,67.54c.88-.39,1.92-.65,2.9-.61-.81.54-1.94.9-2.9.61Z"/>
        <path class="cls-29" d="m45.87,52.03c-.32.19-.8-.12-1.15.12-.9.29-1.95.22-2.83.4.49-.4,3.46-.86,3.98-.52Z"/>
        <path class="cls-6" d="m44.81,66.9c-.24.29-.58.34-.91.46-.01.03-.03.05-.06.06-.13-.04-.25-.07-.38-.12-.06-.12-.53-.15-.33-.3.05-.03.1-.03.17-.03.05-.03.08-.07.12-.06.41.06.7-.16,1.05-.31.09.12.24.17.33.31Z"/>
        <path class="cls-4" d="m36.91,60.37c.13.53.22,1.05.42,1.56.14.39.47.67.54,1.09.27.86,1.01,1.44,1.57,2.1-.69-.41-1.16-1.13-1.59-1.8-.12-.32-.16-.64-.38-.92-.51-.69-.52-1.59-.76-2.4.14.07.11.23.19.36Z"/>
        <path class="cls-33" d="m41.87,52.54c.13.13.42.24.47.39-.16.41-.87-.05-1.23.24-.07.03-.16.08-.25-.01.28-.28.63-.48,1.01-.61Z"/>
        <path class="cls-4" d="m49.67,64.27c-.06-.12.07-.18.11-.29.17-.14.21-.32.39-.45-.06.24-.3.53-.49.74Z"/>
        <path class="cls-32" d="m51.66,60.46c.12.05.09.18.04.28.03.12,0,.26-.08.35-.18-.11.03-.43.04-.63Z"/>
        <path class="cls-25" d="m48.75,54.08c-.17.07-.18-.29-.21-.42.1.11.25.21.21.42Z"/>
        <path class="cls-7" d="m43.3,66.95c-.04.08-.24.03-.19.16-.11.04-.17-.06-.27-.12.14-.03.29-.08.46-.04Z"/>
        <path class="cls-7" d="m42.42,66.8c.16-.03.28.05.4.17-.16.03-.26-.11-.4-.17Z"/>
        <path class="cls-9" d="m41.55,66.48s.05-.03.1-.05c.08.04.15.08.23.13-.11.03-.23.03-.33-.08Z"/>
        <path class="cls-4" d="m50.24,63.46c-.03-.13.12-.28.21-.38,0,.15-.12.25-.21.38Z"/>
        <path class="cls-33" d="m51.57,61.08c.12.07-.01.24-.08.33-.05-.12.04-.21.08-.33Z"/>
        <path class="cls-4" d="m40.17,65.83c.14-.07.21.06.32.14-.13.04-.2-.08-.32-.14Z"/>
        <path class="cls-8" d="m43.83,67.43s.02-.03.04-.05c.1.03.19.07.29.13-.09.11-.22-.03-.33-.08Z"/>
        <path class="cls-7" d="m49.15,65.03c-.04-.11.04-.18.13-.26.09.09-.09.16-.13.26Z"/>
        <path class="cls-9" d="m41.92,66.61c.08-.07.16-.02.24.04-.08.05-.16.05-.24-.04Z"/>
        <path class="cls-4" d="m39.62,65.34c.1-.02.12.07.19.14-.12.05-.14-.05-.19-.14Z"/>
        <path class="cls-4" d="m48.25,66.15c.05-.06.1-.12.19-.15,0,.1-.07.16-.19.15Z"/>
        <path class="cls-4" d="m41.05,66.29c.1-.06.15.03.24.09-.09.04-.16,0-.24-.09Z"/>
        <path class="cls-8" d="m37.66,55.91c.05.1-.03.16-.1.24-.02-.09.02-.16.1-.24Z"/>
        <path class="cls-4" d="m48.53,65.94c-.02-.11,0-.15.11-.17-.03.06-.04.13-.11.17Z"/>
        <path class="cls-7" d="m49.36,64.69c-.06-.06-.04-.12.04-.18.02.06.02.12-.04.18Z"/>
        <path class="cls-4" d="m36.55,59.77c.06-.05.14.06.11.12-.05-.02-.09-.05-.11-.12Z"/>
        <path class="cls-4" d="m41.31,66.4s.1-.05.16,0c-.04.04-.1.05-.16,0Z"/>
        <path class="cls-8" d="m47.67,66.63c-.01-.07.02-.1.1-.07-.02.04-.04.07-.1.07Z"/>
        <path class="cls-4" d="m48.76,65.69c-.04-.05-.03-.09.05-.11.02.05,0,.08-.05.11Z"/>
        <path class="cls-4" d="m40.82,66.21s.1-.07.14.02c-.05.03-.09.02-.14-.02Z"/>
        <path class="cls-8" d="m39.16,54.48c.01.05-.01.08-.08.08-.01-.06.01-.08.08-.08Z"/>
        <path class="cls-4" d="m39.96,65.66s.07,0,.11.05c-.05.04-.09.04-.11-.05Z"/>
        <path class="cls-33" d="m51.72,60.74s-.02-.08.02-.13c.04.04.03.08-.02.13Z"/>
        <path class="cls-33" d="m51.69,60.98s-.03-.08.02-.12c.03.04.02.08-.02.12Z"/>
        <path class="cls-9" d="m43.45,67.31s.08-.03.12.02c-.04.03-.08.02-.12-.02Z"/>
        <path class="cls-8" d="m38.93,54.69s-.02,0-.03-.02c0-.07.02-.07.07-.05,0,.02-.02.04-.04.06Z"/>
        <path class="cls-33" d="m48.39,53.53c0-.05.1-.05.08.02-.03.02-.05,0-.08-.02Z"/>
        <path class="cls-4" d="m48.05,66.3s0-.06.05-.06c.01.04,0,.06-.05.06Z"/>
        <path class="cls-8" d="m47.47,66.78s-.05-.09.05-.06c0,.02-.02.03-.05.06Z"/>
        <path class="cls-8" d="m37.88,55.57s.04.06,0,.1c-.03-.03-.04-.06,0-.1Z"/>
        <path class="cls-8" d="m47.28,66.89c-.01-.06.02-.07.07-.04,0,.03-.03.04-.07.04Z"/>
        <path class="cls-26" d="m45.14,62.29c-.16.44-.56.26-.55.63-.05.57.14.64-.35,1.08-.04.05-.1.03-.16.03-.21-.03-.43.09-.64.15-.28-.08-.41-.39-.46-.65-.04-.19.31-.46.06-.56-.37-.11-.69-.39-1.12-.36-.03-.01-.05-.03-.06-.06-.21-.11-.11-.31-.19-.5.09-.18.35-.1.4-.3.1-.23.4-.26.43-.54.05-.11.07-.29.23-.29.09.02.15-.11.23-.08.16.13.39.14.51.32.05.07.13.09.19,0,.16-.15.41.01.49-.29,0-.16.24-.27.28-.08.02.08,0,.17.08.23.26.2.11-.35.37-.26.35.04.21.54.39.77.14.28.05.51-.12.75Z"/>
        <path class="cls-11" d="m42.05,53.13c.07-.08.19-.09.27-.19.97.17.24.61.9.83.36.12.21.63.62.75.32.13.21.66.49.77.1-.02.18.02.26.05.18.07.36-.06.55-.07.28-.07.41.16.62.28.47.26.6,1.07,1.26.92.25-.07.62-.02.75-.29.11-.14.14-.45.36-.43.08,0,.14.03.13.12,0,.02.02.05.03.05.2.03.21.23.29.35.06.14.32.26.38.07.08-.18.27-.28.38-.44.03-.19.04-.38.13-.56.15-.5-.55-.75-.51-.99.66.08.62.93,1.16,1.22.58.28.83,1,.89,1.61,0,.1-.07.13-.15.14-.46.02-.15.86-.85.44-.09-.06-.18-.11-.29-.1-.64.09-.73-1.03-1.27-.88-.22.09-.39-.02-.54-.21-.05.11,0,.22-.04.31-.04.31-.45.29-.44-.03,0-.19-.08-.21-.23-.18-.72.08-1.4-.45-1.87-.93-.34-.55-.77.4-1.19-.04-.17-.11-.41-.09-.6-.14-.11-.26-.44-.36-.45-.64,0-.16-.16-.27-.22-.42-.04-.05-.05-.12-.01-.18.18-.32-.31-.43-.53-.29-.32-.19.15-.45-.13-.55-.19-.05-.1-.21-.15-.35Z"/>
        <path class="cls-28" d="m42.98,63.49c.05.11.09.21.13.33-.02.11-.1.1-.17.09-.34-.1-.37.65-.75.22,0-.26-.24-.25-.39-.36-.21-.22-.38.11-.6.03-.35-.09.06-.3-.63-.79-.17-.16-.32.12-.48,0-.13-.11-.23-.05-.37,0-.18-.1-.44,0-.58-.22-.17-.05-.28-.22-.14-.38.15-.15.2-.36.36-.5-.06-.12-.27-.05-.24-.25-.03-.26-.42-.26-.59-.4-.23-.09-.18-.37-.33-.53-.1-.14-.1-.32-.13-.48-.16-.33.37-.36.27-.68-.04-.14-.09-.16-.23-.11-.05.02-.1.04-.14.01-.15-.1-.33-.11-.5-.15-.21-.11-.04-.65.07-.83.18-.26-.29-.36-.21-.61.06-.35.26-.48-.08-.77.23-.2.37-.02.53.17.26.33-.33.76.17.99.5.51-.09.89,1.09.7.15-.01.24.04.25.21,0,.2.13.4.05.6-.07.16-.07.32-.05.49,0,.33.41.42.41.75.04.77.61.7.87,1.2.07.18.2.32.34.45.12.11.23.23.26.39.12.26.69.36.95.51.05.01.09.07.14.03.21-.19.47-.08.72-.11Z"/>
        <path class="cls-20" d="m42.18,64.12c.14.18.43.06.46-.15.07-.28.28-.05.46-.13.11.1.18.23.33.31.15.04.17.16.19.29-.07.24.32.45.12.64-.44.2-.12.37-.43.47-.9.35-.35.94-.97.84-.32.09-.55-.42-.64-.67,0-.09-.1-.13-.2-.13-.11,0-.21-.02-.27-.12-.04-.06-.1-.04-.15-.03-.51.07-.75-.72-.36-.97.24-.1.23-.46.53-.45.68-.35.28-.12.92.11Z"/>
        <path class="cls-21" d="m43.73,65.1c.05-.07.05-.14-.01-.21.02-.16-.09-.26-.12-.4-.05-.11-.03-.23-.14-.32.09-.12.21-.18.37-.13.08.37.46.61.8.53.15.47.75.44.79.83.03.34-.45.16-.56.43-.11.12-.28.11-.29.31-.17-.28-.7-.27-.66-.65.02-.15-.12-.24-.18-.39Z"/>
        <path class="cls-21" d="m43,63.48c-.19.2-.53-.1-.69.16-.03.06-.1.09-.13.04-.18-.17-.44-.16-.63-.32-.13-.13-.42-.01-.43-.26-.08-.4-.55-.53-.65-.95-.05-.28-.45-.2-.53-.42-.38-.36-.18-.82-.51-1.08-.24-.16-.22-.5-.24-.74.22-.23.04-.46.02-.72.05-.5-.95.23-1.1-.41-.13-.9-.21-.08-.48-.85-.03-.23.27-.28.14-.63.15-.11.17-.28.24-.43.59.12.3.56.66.49-.16.23.13.46-.1.63-.4.23.18.42.4.35.16-.04.12-.32.31-.23.32.11.78.07.86.52-.29.52-.1.42-.13.96-.09.22.24.38.07.55-.27.2.32.22.47.54.25.48-.38.57.2.77.38.11-.23.37.18.6.39.36.22.82.89.48.03,0,.04.02.06.05.37.02.36.22.33.53.08.41.57-.49.88.11-.03.09-.07.17-.11.26Z"/>
        <path class="cls-21" d="m37.92,56.3c-.1-.16.03-.27.12-.37.2-.15.22-.41.4-.57.1-.07.14-.18.22-.29.08.35-.59.9-.75,1.23Z"/>
        <path class="cls-32" d="m43.92,55.63c.21-.25.44.43.84,0,.16-.17.53-.21.61.06.37.45.97.8,1.55.95.16.07.65-.2.57.11-.06.45.41.39.34-.04-.05-.11.01-.31.14-.18.07.16.25.29.43.22.62-.26.65.91,1.27.86.2-.05.33.11.48.2.51.14.14-.48.84-.3.38.03.14.56.35.8.17.43.05.9.23,1.33.05.16.11.32.06.5-.14-.41-.41-.8-.42-1.25-.01-.16-.07-.25-.23-.28-.22.02-.18-.32-.37-.23-.22.07-.43-.13-.67-.02-.19.05-.23.03-.32-.14-.09-.16-.09-.16-.27-.09-.25.09-.55-.12-.66.21-.12.28-.41.49-.48.8,0,.09-.05.13-.14.12-.13-.03-.23.02-.32.11-.23.31-.5-.18-.6.16-.14.35-.63.32-.91.46-.04.21-.28.21-.37.38-.03.06-.1.05-.13-.02-.38-.35-.04-.87-.61-.9-.14-.02-.28,0-.41-.09-.32-.18.03-.7-.37-.83-1.28-.3-.21-.62-.72-1.16-.08-.06-.07-.09.01-.15.32-.18-.18-.4.17-.71.29-.27,0-.58.07-.88Z"/>
        <path class="cls-32" d="m51.65,60.25c.06.04.09.1.03.19-.06-.05-.05-.11-.03-.19Z"/>
        <path class="cls-30" d="m43.12,63.22c-.36-.27-.26-.21-.62-.03-.14.16-.36.17-.33-.1.06-.25.04-.44-.25-.5.39-.16.73.25,1.11.29.13.05.24.25.09.33Z"/>
        <path class="cls-24" d="m43.58,64.49c.11.09.2.2.13.38-.06-.12-.21-.23-.13-.38Z"/>
        <path class="cls-33" d="m45.68,56.74c.21-.09.43,0,.64.05.39.16-.2.39-.32.53-.22.2-.42.43-.58.68-.08.2-.25.29-.44.35-.27.02-.47-.26-.72-.34-.32-.28-.17-1.31.35-1.28.16.07.34-.08.49.03.19.15.36,0,.57-.03Z"/>
      </g>
      <g class="cls-1">
        <path class="cls-38" d="m.81,12c2.18.36-.51-4.15,2.73-2.73-.2,1.14-1.42,1.86.91,1.82v2.73c-1.59.07-2.83-.2-3.64-.91v-.91Z"/>
        <path class="cls-44" d="m20.84,22.92c-.55-.85-2.12-3.36.91-2.73h5.46c.65,2.47-4.29-.65-3.64,1.82-1.25-.04-2,.43-2.73.91Z"/>
        <path class="cls-34" d="m-2.83,27.47c.55-1.88,1.41-3.45,4.55-2.73-.91-1.22-2.46-1.79-2.73-3.64H-.1c4.35-.71,1.6,5.69,4.55,6.37v.91c-2.22,2.24-3.95-.67-7.28,0v-.91Z"/>
        <path class="cls-34" d="m6.27,26.57v-2.73h2.73v4.55c-.91,0-1.09-.74-1.82-.91-.05-.55-.14-1.07-.91-.91Z"/>
        <path class="cls-34" d="m2.63,32.94c.04,1.25-.43,2-.91,2.73-1.72.2-2.01-1.03-3.64-.91.22-1.6,1.56-2.08,3.64-1.82h.91Z"/>
        <path class="cls-44" d="m15.38,35.67c2.11.31,4.27.59,3.64,3.64h-2.73c2.37-2.4-1.47-.72-.91-3.64Z"/>
        <path class="cls-34" d="m16.29,44.77h5.46c.67,3.1-3.36,1.5-3.64,3.64-1.6-.22-2.08-1.57-1.82-3.64Z"/>
        <path class="cls-42" d="m4.45,8.36V2.9c1.35-.48,2.29-1.35,3.64-1.82,2.33.09,4.34.51,5.46,1.82-3.84-.16.01,1.4,0,2.73v2.73c-2.18.36.5-4.15-2.73-2.73-1.35-1.43-4.07-1.01-3.64,1.82v.91h-2.73Z"/>
        <path class="cls-42" d="m19.02,3.81h5.46c.76,1.06,1.2,2.44.91,4.55-1.59-.07-2.83.2-3.64.91h-.91c-.01-1.81-2.48-1.16-1.82-3.65v-1.82Z"/>
        <path class="cls-45" d="m10.83,5.62c3.24-1.41.55,3.09,2.73,2.73h.91c.78.74.54,2.49,1.82,2.73-1.55,3.45-1.5-1.98-2.73-1.82-2.03,2.39,3.42,5.04,6.37,5.46,1.04-2.86-1.43-2.21-1.82-3.64,3.73-.32,4.09,6.98,7.28,1.82-.58,3.32,4.34,1.13,4.55,3.64-1.29-.08-2.58-.15-2.73.91-1.94-.43-1.73,1.3-1.82,2.73h-3.64c.56-.85,2.12-3.36-.91-2.73h-1.82v-2.73c-2.26-.13-4.42-.17-4.55,1.82-.77-.17-.86.36-.91.91-3.82-1.35-2.07-3.52-.91-6.37-.09-1.73-3.55.56-3.64,1.82-1.39,1.65-6.24-.17-5.46,3.64-.02.89-1.11.71-1.82.91-.81.56-1.63,1.1-1.82,0,.48-.73.95-1.48.91-2.73v-1.82c.81.71,2.06.98,3.64.91v-5.46h2.73c-.5,2.02,1.74,1.3,1.82,2.73,1.07-.15.77-1.66.91-2.73,1.06-.15.77-1.66.91-2.73Z"/>
        <path class="cls-39" d="m25.39,12c-.48-.73-.95-1.48-.91-2.73,2.62,1.66,2.85,1.48,6.37.91.86-4.5-3.55-.5-.91-4.55,2.96.69,3.99,3.3,5.46,5.47-2.72,1.31-3.1-.75-5.46.91-.12,5.75,6.39-.78,6.37,4.55-.15,1.07-1.66.77-2.73.91-1.44-.08-3.47.44-3.64-.91-.21-2.52-5.14-.33-4.55-3.64v-.91Z"/>
        <path class="cls-40" d="m-6.47,5.62c4.8-.24,7.53,1.58,7.28,6.38v.91c-.77.17-.86-.35-.91-.91v-3.65h-10.01c.25-1.87,2.43-1.82,3.64-2.73Z"/>
        <path class="cls-52" d="m13.56,5.62h5.46c-.66,2.49,1.81,1.84,1.82,3.65h.91v.91c-2.98-.05-3.48-2.59-7.28-1.82h-.91v-2.73Z"/>
        <path class="cls-40" d="m9.92,8.36c-.14,1.07.16,2.59-.91,2.73-.08-1.44-2.32-.71-1.82-2.73v-.91c1.29-.08,2.58-.15,2.73.91Z"/>
        <path class="cls-51" d="m36.32,16.55c.01-5.33-6.49,1.2-6.37-4.55,2.37-1.66,2.75.39,5.46-.91,1.4,1.93,2.62,4.06,3.64,6.37-.73-.48-1.48-.95-2.73-.91Z"/>
        <path class="cls-45" d="m21.75,9.27c.81-.71,2.06-.98,3.64-.91.29-2.11-.15-3.5-.91-4.55,2.13.3,3.76,1.1,5.46,1.82-2.64,4.05,1.77.06.91,4.55-3.53.57-3.75.75-6.37-.91-.04,1.25.43,2,.91,2.73-1.35-.48-2.3-1.35-3.64-1.82v-.91Z"/>
        <path class="cls-51" d="m9.01,12.91c.09-1.26,3.55-3.55,3.64-1.82-1.16,2.85-2.91,5.03.91,6.37-.15,1.07-1.66.77-2.73.91.84,2.2,2.36,3.71,4.55,4.55v6.37c-2.57.75-2.36-1.28-4.55-.91v-.91c1.56.04,2.36-.68,2.73-1.82.63-2.45-1.88-1.76-2.73-2.73.1-4.04-1.78-1.65-4.55-3.64.32-1.2,1.6-1.43,1.82-2.73,2.87.14,1.77-3.69,3.64-4.55-1.06-.15-1.62.2-1.82.91h-.91Z"/>
        <path class="cls-42" d="m14.47,8.36c3.81-.77,4.3,1.77,7.28,1.82,1.35.47,2.29,1.35,3.64,1.82v.91c-3.19,5.16-3.55-2.14-7.28-1.82h-1.82c-1.28-.24-1.04-2-1.82-2.73Z"/>
        <path class="cls-39" d="m18.11,11.09c.39,1.43,2.86.78,1.82,3.64-2.95-.42-8.4-3.08-6.37-5.46,1.23-.15,1.18,5.27,2.73,1.82h1.82Z"/>
        <path class="cls-43" d="m-5.56,11.09c.55,2.65,4.36,3.79,5.46.91.05.55.14,1.07.91.91v1.82c-2.96.53-4.24-.62-6.37-.91.87-3.3-3.93-.93-4.55-2.73-.77.17-.86-.36-.91-.91.17-.74.91-.91.91-1.82h4.55c-1.09,1.2-.35,1.43,0,2.73Z"/>
        <path class="cls-43" d="m3.54,16.55c-.78-3.81,4.08-1.99,5.46-3.64h.91c.2-.71.76-1.06,1.82-.91-1.87.86-.77,4.69-3.64,4.55-2.26.1-2.82,1.71-4.55,0Z"/>
        <path class="cls-44" d="m-5.56,13.82c2.14.29,3.41,1.44,6.37.91.04,1.25-.43,2-.91,2.73-1.79-2.19-4.55-2.1-5.46.91-.75-.67-1.1-2.74,0-4.55Z"/>
        <path class="cls-51" d="m-5.56,13.82c-1.1,1.81-.75,3.89,0,4.55.91-3.01,3.67-3.1,5.46-.91.19,1.1,1.01.56,1.82,0-.32,1.2-1.6,1.43-1.82,2.73-3.86,1.19-7.21-2.78-8.19.91h-.91c.11-2.28,1.74-2.85-.91-3.64v-.91c3.05.62,3.33-1.53,3.64-3.64-2.48-.66-1.83,1.81-3.64,1.82v-3.64c.62,1.81,5.42-.57,4.55,2.73Z"/>
        <path class="cls-46" d="m14.47,17.46c1.76-1.77,5.57-.95,4.55,2.73h-2.73c-1.12-.4-1.87-1.17-1.82-2.73Z"/>
        <path class="cls-42" d="m27.21,17.46c.16-1.06,1.44-.99,2.73-.91.17,1.35,2.2.83,3.64.91.48.73.95,1.48.91,2.73h-4.55c.28-2.1-2.63-1.01-2.73-2.73Z"/>
        <path class="cls-43" d="m20.84,22.92c-1.47.26-1.57-.86-2.73-.91.79-1.33,1.36-2.89,3.64-2.73-.17-.74-.91-.91-.91-1.82,3.03-.63,1.47,1.88.91,2.73-3.03-.63-1.47,1.88-.91,2.73Z"/>
        <path class="cls-44" d="m-.1,20.19c.22-1.3,1.5-1.54,1.82-2.73.71-.21,1.8-.03,1.82-.91,1.74,1.71,2.29.1,4.55,0-.22,1.3-1.5,1.53-1.82,2.73v.91c-.81-.71-2.05-.98-3.64-.91-1.47-.26-1.57.86-2.73.91Z"/>
        <path class="cls-39" d="m39.05,17.46c2.03.39.37,4.48.91,6.37-3.6.49-5.42-2.9-5.46,1.82v.91c-1.61-.82-2.66-2.2-4.55-2.73-.4-.81-.8-1.63-1.82-1.82.09-1.74,3.39.72,4.55.91.57-2.19.55-1.39,4.55-.91,1.89-.24.25-4,1.82-4.55Z"/>
        <path class="cls-37" d="m29.95,23.83c1.89.53,2.94,1.91,4.55,2.73v1.82c-3.33.29-3.62-2.45-4.55-4.55Z"/>
        <path class="cls-45" d="m39.05,17.46c-1.57.55.07,4.32-1.82,4.55-4-.48-3.99-1.28-4.55.91-1.16-.18-4.46-2.64-4.55-.91,1.02.19,1.42,1.01,1.82,1.82.93,2.1,1.23,4.85,4.55,4.55v-2.73c2.13.23.53,4,0,4.55h-.91c-1.61-.82-2.66-2.2-4.55-2.73-.5-1.32,1.06-4.7-.91-4.55-1.06-.76-2.44-1.2-4.55-.91-.65-2.47,4.29.65,3.64-1.82h7.28c.04-1.25-.43-2-.91-2.73,1.07-.14,2.59.15,2.73-.91,1.25-.04,2,.43,2.73.91Z"/>
        <path class="cls-46" d="m6.27,26.57c-1.12-1.02-1.87-.8-1.82.91-2.96-.68-.2-7.08-4.55-6.37v-.91c1.16-.05,1.26-1.17,2.73-.91-.93,3.06,2.83,1.42,4.55,1.82-.15,1.06.2,1.62.91,1.82h.91v.91h-2.73v2.73Z"/>
        <path class="cls-46" d="m-7.38,26.57c1.71-1.74.1-2.29,0-4.55,3.72-.15,6.62,3.35,5.46-.91h.91c.27,1.86,1.82,2.43,2.73,3.64-3.14-.72-4,.85-4.55,2.73-1.89-1.99-2.94.8-4.55-.91Z"/>
        <path class="cls-43" d="m9.01,22.92h1.82c.85.97,3.36.28,2.73,2.73-.37,1.14-1.18,1.86-2.73,1.82.17-.74.91-.9.91-1.82-.4-1.12-1.17-1.87-2.73-1.82v-.91Z"/>
        <path class="cls-50" d="m9.01,23.83c1.56-.05,2.33.7,2.73,1.82-1.6.22-2.08,1.57-1.82,3.64h-1.82c.17-.77-.35-.86-.91-.91v-.91c.74.17.91.91,1.82.91v-4.55Z"/>
        <path class="cls-46" d="m16.29,22.92c3.92-.59,2.86,3.82,6.37,3.65-1.52,1.81.08,1.16,0,3.64-2.91-.12-4.01-2.06-3.64-5.46-2.02-.5-1.3,1.74-2.73,1.82v-3.65Z"/>
        <path class="cls-34" d="m22.66,26.57h1.82v3.64c-2.18.55-4.15,1.31-7.28.91.08-1.29.15-2.58-.91-2.73v-1.82c1.43-.08.71-2.32,2.73-1.82-.36,3.4.73,5.34,3.64,5.46.08-2.48-1.52-1.83,0-3.64Z"/>
        <path class="cls-40" d="m7.19,30.21c1.61-.21,4.56.92,3.64-1.82,2.19-.37,1.98,1.66,4.55.91v-6.37c-2.2-.84-3.71-2.35-4.55-4.55,1.07-.14,2.59.15,2.73-.91.05-.55.14-1.08.91-.91v.91c-.05,1.56.7,2.33,1.82,2.73,2.89,1.87-2.57,1.82,0,2.73v5.46c-.54,2.91,1.7,2.82,0,4.55-3.21,1.5-3.93-6.49-5.46-.91-.73.48-1.48.95-2.73.91-.48-.73-.95-1.48-.91-2.73Z"/>
        <path class="cls-50" d="m16.29,28.39c1.06.15.99,1.44.91,2.73,3.13.4,5.1-.36,7.28-.91v-3.64c1.07.14.77,1.66.91,2.73v.91c-2.01.12-.39,3.86-.91,5.46-3.24,1.41-.55-3.09-2.73-2.73.17-.78-.35-.86-.91-.91-3.24-1.42-.55,3.09-2.73,2.73h-1.82v-1.82c1.7-1.74-.54-1.65,0-4.55Z"/>
        <path class="cls-42" d="m33.59,30.21h.91c.53-.55,2.13-4.32,0-4.55.05-4.72,1.87-1.33,5.46-1.82v2.73c-1.24,1.8-1.84,4.23-4.55,4.55,1.2,1.31,4.16,2.29,1.82,4.55-1.85,1.83-1.79-.4-3.64-.91h-.91c-2.43-2.35,2.1-.96.91-4.55Z"/>
        <path class="cls-52" d="m7.19,27.47v.91c.55.05,1.08.14.91.91h1.82c-.25-2.07.22-3.42,1.82-3.64,0,.91-.74,1.08-.91,1.82v.91c.92,2.74-2.03,1.61-3.64,1.82h-2.73c.56-.81,1.1-1.63,0-1.82v-.91c-.05-1.7.7-1.93,1.82-.91.77-.17.86.35.91.91Z"/>
        <path class="cls-50" d="m4.45,28.39c1.1.2.56,1.01,0,1.82H.81c.17.74.91.91.91,1.82H-1.01c.17-.74.91-.91.91-1.82-.4-2.63-6.88.81-7.28-1.82v-1.82c1.61,1.71,2.66-1.09,4.55.91v.91c3.34-.67,5.06,2.24,7.28,0Z"/>
        <path class="cls-37" d="m37.23,35.67c2.34-2.26-.62-3.24-1.82-4.55,2.72-.32,3.31-2.75,4.55-4.55-.39,4.16-1.39,7.72-.91,12.75-.91,0-1.08-.74-1.82-.91v-2.73Z"/>
        <path class="cls-47" d="m10.83,32.03c1.54-5.58,2.26,2.41,5.46.91v1.82c-1.31-1.02-2.22-.98-2.73.91-.75,2.57,1.28,2.36.91,4.55-1.55-.33-1.72.71-1.82,1.82h-2.73c.8-1.6,3.05-2.82,0-3.64.26-1.47-.86-1.57-.91-2.73,1.2.32,1.43,1.6,2.73,1.82,1.63-1.97,1.6-4.18.91-6.37-.77-.17-.86.35-.91.91h-.91Z"/>
        <path class="cls-49" d="m4.45,30.21h2.73c-.04,1.25.43,2,.91,2.73-2.23.1-.19,3.01.91,2.73.05,1.16,1.17,1.26.91,2.73-3.42.69-3.08-2.38-4.55-3.64,2.69-1.31-1.08-3.67-3.64-2.73,0-.91-.74-1.09-.91-1.82h3.64Z"/>
        <path class="cls-47" d="m31.77,29.3c.24,2.97-1.08,4.38-3.64,4.55-.71-.81-.98-2.05-.91-3.64,2.2.37,1.98-1.66,4.55-.91Z"/>
        <path class="cls-51" d="m31.77,38.4c-1.18-1.21-1.2-3.39.91-3.64h.91c-.07,1.44.44,3.47-.91,3.64h-.91Z"/>
        <path class="cls-41" d="m33.59,39.31v2.73c-2.92-.79-2.85,1.4-3.64,2.73-2.25-.78.27-6.34-1.82-7.28.81.71,2.05.98,3.64.91h.91c-.17.77.35.86.91.91Z"/>
        <path class="cls-41" d="m1.72,32.03c2.56-.94,6.33,1.42,3.64,2.73-2.02.5-1.3-1.74-2.73-1.82h-.91v-.91Z"/>
        <path class="cls-46" d="m2.63,32.94c1.43.08.71,2.32,2.73,1.82,1.47,1.26,1.13,4.33,4.55,3.64,3.05.82.8,2.04,0,3.64-3.47.44-1.85-4.21-6.38-2.73-.2-3.74-4.44-3.46-8.19-3.64.12-1.63-1.12-1.92-.91-3.64H1.72v.91c-2.08-.26-3.42.22-3.64,1.82,1.63-.12,1.92,1.12,3.64.91.48-.73.95-1.48.91-2.73Z"/>
        <path class="cls-35" d="m10.83,32.03h.91c.05-.56.14-1.08.91-.91.69,2.19.72,4.4-.91,6.37-1.3-.22-1.54-1.5-2.73-1.82-1.11.28-3.14-2.63-.91-2.73,1.25.04,2-.43,2.73-.91Z"/>
        <path class="cls-47" d="m-4.65,35.67c3.75.19,7.99-.1,8.19,3.64-.22-3.35-8.61-1.36-5.46.91-2.41,3.23-1.21-4.79-4.55-3.64.03-.89,1.11-.71,1.82-.91Z"/>
        <path class="cls-40" d="m13.56,35.67c1.6.83,1.67,3.19,2.73,4.55,1.32.5,4.7-1.06,4.55.91-3.83-1.34-7.61,2.02-8.19.91.1-1.11.27-2.16,1.82-1.82.37-2.19-1.66-1.98-.91-4.55Z"/>
        <path class="cls-49" d="m25.39,38.4c.73-.48,1.48-.95,2.73-.91,2.09.94-.43,6.5,1.82,7.28.8-1.33.72-3.52,3.64-2.73v-2.73c.81-.71,2.06-.98,3.64-.91v3.64c-4.16-.52-5.19,2.09-5.46,5.46-1.9.53-2.6,2.26-5.46,1.82,1.46-3.58-3.94-.32-3.64-2.73-1.34-3.46,4.07-.18,2.73-3.64v-.91c.81.4,1.63.8,1.82,1.82,1.98.15.41-3.23.91-4.55-1.06-.15-1.62.2-1.82.91h-.91v-1.82Z"/>
        <path class="cls-49" d="m3.54,39.31c4.52-1.48,2.91,3.17,6.38,2.73h2.73c.58,1.11,4.37-2.25,8.19-.91h4.55c.17.78-.36.86-.91.91-5.26-.34-8.46,1.1-10.93,5.46,1.57.86,1.49,3.37,4.55,2.73-2.12,1.75-4.91-.79-8.19.91-1.55-.57-1.5-2.75-2.73-3.64-1.08-2.61-1.91-4.83-.91-7.28-.93.59-.94,2.09-2.73,1.82.73,1.7,1.52,3.33,1.82,5.46-.89-.02-.71-1.11-.91-1.82-1.63-.12-1.92,1.11-3.64.91-1.85-2.15-3.72,1.14-1.82,2.73-.71-.2-1.8-.02-1.82-.91-.08-2.48,1.52-1.83,0-3.64,3.49.17.33-.75.91-2.73,2.32-.41,4.19-1.28,5.46-2.73Zm4.55,5.46c.89,2.14.3,5.78,3.64,5.46-.89-2.14-.3-5.77-3.64-5.46Z"/>
        <path class="cls-41" d="m.81,46.6c1.72.2,2.01-1.03,3.64-.91.2.71.02,1.8.91,1.82-.3-2.13-1.1-3.76-1.82-5.46,1.79.27,1.81-1.23,2.73-1.82-1,2.45-.17,4.67.91,7.28h-1.82c.48.73.95,1.48.91,2.73h-.91c-1.43-.69-1.36-2.89-3.64-2.73-.77.17-.86-.35-.91-.91Z"/>
        <path class="cls-43" d="m-6.47,44.77c-.37-2.19,1.66-1.98.91-4.55-1.25.04-2-.43-2.73-.91v-3.64c1.19-.01,1.16-2.53,0-2.73.22-1.3,1.5-1.54,1.82-2.73H-.1c0,.91-.74,1.09-.91,1.82h-4.55c-.21,1.72,1.03,2.01.91,3.64-.71.2-1.79.02-1.82.91,3.34-1.15,2.14,6.87,4.55,3.64-3.15-2.27,5.24-4.26,5.46-.91-1.28,1.45-3.14,2.32-5.46,2.73-.58,1.98,2.58,2.9-.91,2.73-1.35-1.05-2.29-1.05-3.64,0Z"/>
        <path class="cls-46" d="m11.74,50.24c-3.35.31-2.75-3.32-3.64-5.46,3.35-.31,2.75,3.32,3.64,5.46Z"/>
        <path class="cls-46" d="m24.48,50.24c-1.21-.91-2.75-1.5-3.64-2.73-1.31.51-2.22,1.42-2.73,2.73-3.06.63-2.98-1.87-4.55-2.73,2.47-4.36,5.67-5.8,10.93-5.46-.17.78.35.86.91.91,1.34,3.46-4.07.18-2.73,3.64-.29,2.41,5.1-.85,3.64,2.73-.03.89-1.12.71-1.82.91Zm-6.37-1.82c.28-2.14,4.31-.54,3.64-3.64h-5.46c-.26,2.08.22,3.42,1.82,3.64Z"/>
        <path class="cls-46" d="m-7.38,44.77c-.63,3.37,1.44,4.02,4.55,3.64.03.89,1.12.71,1.82.91H.81c-.17.78.35.86.91.91.33,1.55-.71,1.72-1.82,1.82-3.39-.55-5.96-1.93-8.19-3.64.16-1.36-.33-3.36.91-3.64Z"/>
        <path class="cls-41" d="m9.92,51.15c3.29-1.7,6.07.84,8.19-.91.51-1.31,1.42-2.22,2.73-2.73.89,1.23,2.43,1.82,3.64,2.73-4.26,1.51-7.89,3.65-13.66,3.64-.05-.56-.14-1.08-.91-.91v-1.82Z"/>
        <path class="cls-48" d="m13.56,2.9c1.6.52,5.35-1.1,5.46.91v1.82h-5.46c.01-1.33-3.84-2.88,0-2.73Z"/>
        <path class="cls-51" d="m7.19,7.45c-.43-2.84,2.29-3.26,3.64-1.82-.14,1.08.15,2.59-.91,2.73-.15-1.06-1.44-.99-2.73-.91Z"/>
        <path class="cls-37" d="m.81,12c.24-4.8-2.49-6.62-7.28-6.38C-2.48,4.76.7,3.09,3.54,1.07c.55,2.18-1.14,6.61.91,7.28v2.73c-2.33.04-1.11-.68-.91-1.82-3.24-1.41-.55,3.09-2.73,2.73Z"/>
        <path class="cls-39" d="m4.45,8.36c-2.05-.68-.36-5.11-.91-7.28.55-.52,4.32-2.13,4.55,0-1.35.47-2.29,1.35-3.64,1.82v5.46Z"/>
        <path class="cls-43" d="m2.63,19.28c1.59-.07,2.83.2,3.64.91,1.12.4,1.87,1.17,1.82,2.73-.71-.2-1.06-.76-.91-1.82-1.72-.4-5.49,1.24-4.55-1.82Z"/>
        <path class="cls-52" d="m27.21,20.19h-1.82c.09-1.43-.12-3.16,1.82-2.73.1,1.72,3.01.63,2.73,2.73h-2.73Z"/>
        <path class="cls-45" d="m8.1,22.92c.05-1.56-.7-2.33-1.82-2.73v-.91c2.77,1.99,4.66-.4,4.55,3.64h-2.73Z"/>
        <path class="cls-52" d="m16.29,22.92c-2.57-.91,2.89-.86,0-2.73h2.73c1.02-3.68-2.79-4.5-4.55-2.73v-.91c.14-1.99,2.3-1.95,4.55-1.82v2.73h1.82c0,.91.74,1.08.91,1.82-2.28-.16-2.85,1.4-3.64,2.73,1.16.05,1.26,1.17,2.73.91.23,1.15,1.81.92,1.82,0,2.64.51-1.4,1.42-.91,2.73,3.58.85,2.3-3.17,6.37-1.82.44,2.87-2.79,2.06-1.82,5.46h-.91c-.14-1.07.16-2.58-.91-2.73h-1.82c-3.52.17-2.45-4.23-6.37-3.65Z"/>
        <path class="cls-40" d="m23.57,22.01c2.11-.29,3.5.15,4.55.91v.91c-4.07-1.35-2.8,2.67-6.37,1.82-.49-1.31,3.55-2.22.91-2.73-.01.92-1.6,1.15-1.82,0,.73-.48,1.48-.95,2.73-.91Z"/>
        <path class="cls-36" d="m21.75,32.94c2.18-.36-.5,4.15,2.73,2.73.52-1.6-1.1-5.35.91-5.46v6.37c-2.26-.13-4.42-.17-4.55,1.82-1.15-1.61-.95-3.85.91-5.46Z"/>
        <path class="cls-43" d="m28.13,37.49c-1.25-.04-2,.43-2.73.91-2.23-2.37-6.29,1.68-2.73,2.73h-1.82c.15-1.97-3.23-.41-4.55-.91-1.07-1.36-1.14-3.72-2.73-4.55.51-1.89,1.42-1.93,2.73-.91h1.82c2.18.36-.51-4.15,2.73-2.73.56.05,1.08.14.91.91-1.86,1.61-2.06,3.85-.91,5.46.14-1.99,2.3-1.95,4.55-1.82v-7.28h.91c-.97-3.4,2.26-2.59,1.82-5.46v-.91c1.97-.15.41,3.23.91,4.55,1.89.54,2.94,1.91,4.55,2.73,1.19,3.59-3.34,2.2-.91,4.55-2.11.26-2.09,2.43-.91,3.64-1.59.07-2.83-.2-3.64-.91Zm-.91-7.28c-.07,1.59.21,2.83.91,3.64,2.56-.17,3.88-1.58,3.64-4.55-2.57-.75-2.36,1.28-4.55.91Zm-10.92,9.11h2.73c.62-3.05-1.53-3.33-3.64-3.64-.56,2.92,3.28,1.25.91,3.64Z"/>
        <path class="cls-40" d="m33.59,34.76c1.86.51,1.79,2.74,3.64.91v2.73c-1.59-.07-2.83.2-3.64.91-.55-.05-1.08-.14-.91-.91,1.35-.17.83-2.2.91-3.64Z"/>
        <path class="cls-44" d="m25.39,40.22v.91h-2.73c-3.56-1.05.5-5.1,2.73-2.73v1.82Z"/>
        <path class="cls-50" d="m25.39,40.22h.91c.2-.71.76-1.06,1.82-.91-.5,1.32,1.06,4.7-.91,4.55-.19-1.02-1.01-1.42-1.82-1.82v.91c-.55-.05-1.08-.13-.91-.91.55-.05,1.08-.14.91-.91v-.91Z"/>
        <path class="cls-43" d="m-1.01,49.33c-1.9-1.59-.03-4.88,1.82-2.73.05.56.14,1.08.91.91-.17.74-.91.91-.91,1.82h-1.82Z"/>
        <path class="cls-51" d="m1.72,50.24c-.56-.05-1.08-.14-.91-.91,0-.91.74-1.08.91-1.82,2.28-.16,2.21,2.04,3.64,2.73H1.72Z"/>
        <path class="cls-36" d="m6.27,50.24c-.28,2.4,1.9,2.35,3.64,2.73.77-.17.86.35.91.91-4.36.11-8.24-.26-10.93-1.82,1.11-.1,2.16-.27,1.82-1.82h4.55Z"/>
        <path class="cls-43" d="m9.92,52.97c-1.74-.39-3.92-.33-3.64-2.73.04-1.25-.43-2-.91-2.73h1.82c1.23.89,1.18,3.07,2.73,3.64v1.82Z"/>
        <path class="cls-41" d="m31.77,47.5c.27-3.37,1.3-5.98,5.46-5.46v-3.64c.74.17.91.91,1.82.91-.58,4.58-3.74,6.58-7.28,8.19Z"/>
      </g>
    </g>
  </g>
</svg>