<?xml version="1.0" encoding="UTF-8"?>
<svg xmlns="http://www.w3.org/2000/svg" viewBox="0 0 1920 1155.3">
  <defs>
    <style>
      .cls-1 {
        opacity: .8;
      }

      .cls-1, .cls-2, .cls-3, .cls-4 {
        fill: none;
      }

      .cls-2 {
        opacity: .85;
      }

      .cls-3 {
        isolation: isolate;
      }

      .cls-5 {
        fill: #f9e697;
      }

      .cls-6 {
        fill: #eef2d5;
      }

      .cls-7 {
        fill: #f0f0b1;
      }

      .cls-8 {
        fill: #e3edc0;
      }

      .cls-9 {
        fill: #edf4e5;
      }

      .cls-10 {
        fill: #ffee8c;
      }

      .cls-11 {
        fill: #ffe148;
      }

      .cls-12 {
        fill: #fff080;
      }

      .cls-13 {
        fill: #ffeb41;
      }

      .cls-14 {
        fill: #fff2a4;
      }

      .cls-15 {
        fill: #ffec56;
      }

      .cls-16 {
        fill: #ffeb61;
      }

      .cls-17 {
        fill: #ffeb74;
      }

      .cls-18 {
        fill: #f1f4cb;
      }

      .cls-19 {
        fill: #fae7c0;
      }

      .cls-20 {
        fill: #fbe7a9;
      }

      .cls-21 {
        fill: #fbeca6;
      }

      .cls-22 {
        fill: #fbe2a1;
      }

      .cls-23 {
        fill: #faecb5;
      }

      .cls-24 {
        fill: #faf0b2;
      }

      .cls-25 {
        fill: #fcdf73;
      }

      .cls-26 {
        fill: #fde76b;
      }

      .cls-27 {
        fill: #fde25c;
      }

      .cls-28 {
        fill: #fdf4af;
      }

      .cls-29 {
        fill: #fddb62;
      }

      .cls-30 {
        fill: #fdf09c;
      }

      .cls-31 {
        fill: #fdeb84;
      }

      .cls-32 {
        fill: #bae0df;
      }

      .cls-33 {
        fill: #b2dddf;
      }

      .cls-34 {
        fill: #bbdeca;
      }

      .cls-35 {
        fill: #d9e69c;
      }

      .cls-36 {
        fill: #d6e7b2;
      }

      .cls-37 {
        fill: #c4e2d2;
      }

      .cls-38 {
        fill: #c8e3c6;
      }

      .cls-39 {
        fill: #dee9a5;
      }

      .cls-40 {
        fill: #c3e3ef;
      }

      .cls-41 {
        fill: #c3dfac;
      }

      .cls-42 {
        fill: #c4e0ba;
      }

      .cls-43 {
        fill: #d9e7ab;
      }

      .cls-44 {
        fill: #d8ebf3;
      }

      .cls-45 {
        fill: #cae2b5;
      }

      .cls-46 {
        fill: #c7e5e2;
      }

      .cls-47 {
        fill: #d5ebe9;
      }

      .cls-4 {
        mix-blend-mode: multiply;
      }

      .cls-48 {
        fill: #cae4c6;
      }

      .cls-48, .cls-49, .cls-50, .cls-51, .cls-52, .cls-53, .cls-54, .cls-55, .cls-56, .cls-57, .cls-58, .cls-59, .cls-60, .cls-61, .cls-62 {
        fill-rule: evenodd;
      }

      .cls-49 {
        fill: #acd8be;
      }

      .cls-50 {
        fill: #c5e3cf;
      }

      .cls-51 {
        fill: #c7e3c5;
      }

      .cls-52 {
        fill: #c7e6e6;
      }

      .cls-53 {
        fill: #aad8cb;
      }

      .cls-54 {
        fill: #afd9c2;
      }

      .cls-55 {
        fill: #abd8cb;
      }

      .cls-56 {
        fill: #b4dedd;
      }

      .cls-57 {
        fill: #badecc;
      }

      .cls-58 {
        fill: #baddbf;
      }

      .cls-59 {
        fill: #c2e0bc;
      }

      .cls-60 {
        fill: #b6ddce;
      }

      .cls-61 {
        fill: #c1e0c3;
      }

      .cls-62 {
        fill: #b6dbbf;
      }
    </style>
  </defs>
  <g class="cls-3">
    <g id="_レイヤー_16" data-name="レイヤー 16">
      <g class="cls-2">
        <path class="cls-42" d="m-37.22,132.86c.4-1.81-.1-3.78.81-5.43,3.26-1.42,10.09.86,9.97-4.31.76-7.27.31-17.22,6.13-22.26,5.24-3.45,2.85,4.41,13.5.34,4.68-2.03,9.27.11,13.9,0,2.13.33,2.86,3.1,4.35,4.45,3.2,6.25,8.39-.65,12.08,3.95,1.59,2.09,3.47,3.73,5.86,4.91,5.99,2.39.26,9.56,4.98,12.84,4.24,3.49,3.13-6.41,9.39-4.02,4.17.95,5.98-4.27,10.31-3.73,3.19-.27,6.49-.12,9.41-1.98,1.51-.97,3.09-.29,4.39.67,3.42,2.51,7.79,1.52,11.47,3.19,4.41.21,3.66-7.84,11.31-5.46,1.73.4,3.74.33,5.32-.05,5.69-1.36,10.53,2.51,16.07,2.11,3.6-.71,5.7,4.69,9.02,4.52,1.26-.48.82-1.71.77-2.65-.13-2.62.19-5.14,1.35-7.53.84-1.74.55-3.44-.14-5.2-3.97-6.84,13.24.27,8.42-8.3-2.14-5.23-11.4-7.37-10.83-13.28,1.14-2.9,2.84-6.19,6.96-6.46,3.02-.2,3.42-2.55,2.8-4.68-2.58-8.89,4.43-13,9-18.23,3.41-3.44,8.51,1.17,12.57-1.18,10.53-2.13,6.02,10.24,9.9,10.55,12.47,3.39,12.64-5.88,16.53-2.53,3.86,5.13,5.7,10.7,6.14,16.8-1.89,3.68-3.2,4.34-6.36,2.7-3.2-1.67-6.61-.81-9.89-1.31-.68-.1-1.39.3-1.74.87-1.8,2.87-5.24,3.31-7.64,5.28-2.78,1.67-7.51-2.44-10.53-4.05.2,5.32-3.65,8.02-3.45,12.8.22,2.47-.12,4.63-1.97,6.48-2.99,1.82,7.96,9.5,8.07,20.98.35,2.13-.21,4.24-1.87,5.51-10.94,7.99,4.67,20.12-1.8,28.47-1.93,1.21-3.31-.17-4.84-1.13-3.5-1.59-3.8-5.23-5.49-8.09-2.79-2.26-3.5-5.03-2.17-8.42-1.88,3.43-3.14,3.72-5.8,1.12-3.36-1.85-6.95.17-9.21-4.51-1.86-6.41-6.67-9.07-12.28-10.93-2.63-.87-10-5.14-8.36.93,2.67,3.06-.89,6.16-4.07,4.17-.78-.34-1.64-1.05-2.42-.09-.59.72-.16,1.51.2,2.2,2.39,3.64-.38,6.33-1.25,9.77-.15,1.89-1.28,2.79-3.06,2.96-19.44,2.99-1.68,16.08-6.79,28.85-.8,6.99-1.01,8.75-8.24,8.84-2.24.17-4.07-.33-4.83-2.66-.73-2.24-2.24-2.57-4.23-1.95-4.39,1.21-5.09-4.79-10.47-4.63-3.6-.85-7.67.11-10.71-3.04-.83-.86-2.38-.24-3.56.11-8.73,1.39-1.51-7.64.42-10.93-3.07-.25-4.14,2.93-7.01,3.28-8.61,1.72,1.94-8.09-6.02-7.66-3.52-.77-7.55-2.84-9.44-5.66-.69-11.92,16.31-5.76,13.63-15.66-1.37-3.79-4.04-7.11-3.33-11.43.39-3.07-2.05-6.51-4.96-7.56-.21-.08-.49-.25-.64-.14-2.65,2.11-6.96,1.18-8.79,4.84-1.02,2.05-2.57,3.3-5.06,3.2-7.33-.19-2.46-5.69-5.19-8.47-1.23-.62-5.04,1.15-4.58,2.7,1,4.25.18,8.69,1.61,12.93,1.62,2.96-2.55,16.56-6.59,12.57-3.4-1.94-6.67-7.66-10.86-5.64-6.92,3.05-18.07,5.37-20.17-4.66Z"/>
        <path class="cls-33" d="m46.99,5.39c3.35-.4,6.04,2.02,9.41,2.13,2.04.15,4.02-.56,6.02-.35,7.55.94,15.95-2.27,19.59,7.25,5.04,3.39,4.05,9.13,5.33,13.95,1.66,9.94-17.55-1.17-16.22,7.54,4.46,7.09.85,13.83-3.92,19.74-7.3,7.52-19.39,1.26-28.48,5.63-5.86,1.8-5.38,9.79-12.52,13.4-4.93,2.36-9.89-4.07-15.16-1.57-5.41,3.13-10.67-3.41-15.82.07-5.62,3.98-10.63-5.25-15.84.27-.74.55-2.3,1.56-3.18.42-.21-3.36,1.83-5.64,3.8-7.34,5.59-4.81,9.61-10.89,14.19-16.51,2.38-2.92,5.03-5.64,6.43-9.32,6.5-6.45,15.06-11.67,21.76-18.31,4.17-1.74,2.17-9.83,7.15-9.78,7.62,1.73,10.64-5.57,17.44-7.22Z"/>
        <path class="cls-39" d="m147.07,215.22c-1.2.97-2.3,1.57-3.87,1.72-2.73,1.69-4.99,3.94-8.28,4.52-2.82-.32-5.28,0-7.12,1.94-8.75,8.16-23.77,10.37-34.44,5.79-1.78-2.12-4.07-2.33-6.43-1.54-9.41,2.56-35.87,4.89-39.64-6.33-.68-2.53-2.49-3.47-5.21-2.07-16.83,10.83-17.6-15.46-28.65-3.17-2.35,3.01-5.14-.6-7.71-.64-1.47-.07-2.81-.22-4.01-1.15-7.02-6.8-15.63-11.13-20.03-20.3-2.88-4.53-7.96-8.79-6.69-14.88,9.24-4.44,7.95,8.4,16.23,7.52,6.75-.34,4.83,7.98,11.62,11.29,2.14.84,7.66-3.84,9.19-5.73,1.54-3.78,7.58-1.99,7.55,1.67-.21,7.36,5.56,8.06,10.44,10.15,8.21,4.43,12.99-2.7,19.77-2.13,2.18,2.04,6.29-2.15,6.88,1.55,1.68,3.57,1.03,11.66,6.65,10.45,5.89-.62,8.07-5.7,11.94-9.03,1.54-.68,2.55-1.75,3-3.39,2.36-4.57,9.99-4.75,14.52-3.11,3.69,1.68,4.84,1.2,6.22-2.67,1.63-3.42,9.71-9.67,13.07-5.22-.72,5.32-7.29.84-9.48,8.28-2.67,5.18-.13,9.88-.32,14.74-.11,2.85,2.36,5.23,5.05,6.16,6.83,2.84,11.06-5.96,17.45-7.12,2.58-1.29,5.81.82,8.77,1.27,4.18,1.17,11.22-3.03,8.37-7.45-5.33-5.47-.73-12.08-2.29-17.92-1.67-2.01-1.37-4.14-.35-6.54,5.21-2.47,8.57,4.12,13.39,1.54,2.45-1.16,5.09-1.58,8.05-1.73,13.78,3.46-.94,25.08-7.08,30.5-2.08,1.09-4.39,1.65-6.56,3.06Z"/>
        <path class="cls-45" d="m-37.14,133.9c4.21,2.25,5.1,7.42,11.25,5.27,4.62.25,11.32-6.1,14.11-1.7.77,1.03,1.38,1.99,2.83,2.03,1.67.3,2.1,2.55,3.52,3.4,2.14,3.09,6.51-10.34,5.17-11.65-.56-2.75-1.84-5.7-1.57-8.49.68-1.7.44-3.18-.34-4.82-.9-1.9-.64-2.25,1.66-2.77,2.08-.61,3.97-3.68,5.43-.43.66,1.2.42,2.3.1,3.55-1.87,4.94,4.76,5.27,6.8,3.07,1.73-2.23,2.34-5.55,5.97-4.87,2.91.06,4.23-5.12,6.74-.96,1.33,1.94,5.34,2.25,4.42,5.22-2.47,9.08,7.28,12.7,1.98,20.53-2.77-.45-4.98,1.72-7.75,1.57-2.48-.13-2.68.15-2.52,2.6-.62,2.6-5.06,4.03-.47,6.33,1.53.61,3.05.85,4.12,2.49.85,1.31,2.72.53,4.14.64,6.1,1.08,1.89,4.52,1.67,7.77,3.84,1.47,6.14-2.54,9.28-3.84,1.62-1.2,3.31,1.19,1.81,2.37-2.21,1.63-8.87,11.28-2.05,9.18,1.63-.67,5.29-1.58,6.01.54.16,2.41,10.15,1.93,12.76,2.87,3.25.78,2.82,6.08,6.91,3.91,6.04-2.82,2.84,6.86,9,4.67,6.88-.48,5.82.22,7.03-6.3,2.52-1.75,4.8,2.65,8.18,2.36.44,3.68-1.38,8.93-5.77,8.05-4.8-2.15-12.45,1.85-15.25-3.38-1.81-4.93-7.34,3.28-9.44-1.76-5.71-11.89-14.64.7-17.36-4.58-4.37-6.13-14-6.84-16.93-15.02-3.33-6.1-10.61-.05-14.33,3.1-1.15.7-1.06,1.75-.87,2.96,1.6,4.96-7.09,12.4-9.76,6.46-1.37-8.76-11.92-8.99-18.76-6.65-15.73,2.28-7.19-22.55-18.21-27.98.26-1.65-.83-4.71.49-5.74Z"/>
        <path class="cls-45" d="m119.83,136.26c.6-.14,1.17-.11,1.32.33,1.47,4.05,5.39,2.98,8.52,2.31.29,1.22-.63,3.21,1.69,3.21,1.1,0,2.06-.09,2.07-1.53.09-1.06-.21-2.47,1.15-2.84,3.9,2.03-2.72,7.18,2.61,9.1,2.27,1.88,1.26,6.31,3.91,7.75,16.67,12.01-1.98-19.12,4.67-23.1,8.32-6.01,3.13-15.56-1-22.65-1.29-2.1-5.66-3.34-3.13-6.18,4.15-2.57,1.31-6.95,3.1-10.6.9-2.66,3.22-4.86,2.4-8.08-.18-1.3,2.02-2.5,2.67-.79,1.22,2.29,4.39,1.37,5.93,3.41,2.36,2.75,2.99-1.4,5.03-1.67,4.34.62,4.57-6.3,8.78-4.53.99.33,1.98.61,2.96.3,4.71-1.66,7.93,5.12,11.38-.37,5.11,6.96,4.41,17.92,6.01,26.28.05,3.77-.74,5.19-4.55,5.39-4.49.23-8.91.42-12.88,3.02-1.62,1.06-3.63,1.17-5.52.43-4.09-2.55-2.41,10.77-2.69,13.17,1.52,6.86-7.96,5.46-9.74,10.73-1.02,1.86-1.02,3.9.92,5.44,9.4,7.85,2.33,24.58-10,22.08-6.46,1.42-9.56,8.25-17.43,3.24-.56-1.16-.15-1.92.34-2.71,5.98-8.31-2.45-13.11-7.72-18.47-3.03-3.35.73-8.25-.77-12.67Z"/>
        <path class="cls-37" d="m174.28,49.01c.2.73.06,1.45.36,1.8,2.12,2.52.59,5.32,1.9,8.15-3.02,1.56-5.34-5.14-7.58-6.8-2.28-3.23-7.14-2.04-7.97-6.76-.49-1.82-2.38-2.37-3.95-.54-3.56,2.81-9.52.41-13.06,4-6.09,3.14-8.22,9.86-12.71,14.47-2.77,1.61-3.55,4.86-5.61,7.03-3.22,2.39-5.43,5.07-6.14,9.42-.41,2.53-2.81,4.96-4.36,7.39-11.06,12.34.53,29.35-11.64,27.37-3.62-.45-7.23.26-10.93-1-4.96-1.19-9.19,6.42-14.62,3.82-5.45-.15-10.94-6.97-15.87-3.47-3.69,3.96-7.99-.24-12.37.07-13.38.87-11.06-22.73-26.98-13.97-3.4-3.47,5.22-5.19-.15-9.49-1.03-.99-1.91-2.21-2.02-4.01,1.21-2.18,2.65-3.82,5.06-4.7,18.39,9.1,4.55,8.67,17.65,17.02.2,3.08,2.17,3.49,4.65,3.87,5.69,2.06,6.66,11.72,13.83,5.28,11.09-9.84,13.66,8.6,22.41-1.64,4.42-4.12,5.67-4.24,10.82-1.02,4.24,3.45,10.43,1.92,8.08-4.24-1.64-7,6.68-12.06,2.71-19.14-1.69-4.1,5.81-3.55,4.69-10.08,5.7-7.99-7.85-19.46-2.31-26.71,3.75-2.72,3.47-9.09,9.67-7.21,1.46.37,2.35-1.12,2.92-2.37,1.69-3.73,5.84-5.19,7.87-8.63.41-.69,1.41-.62,2.2-.53,3.83.31,6.67-3.91,10.4-.8,15.43,8.46,22.75,5.07,33.07,23.41Z"/>
        <path class="cls-38" d="m22.12,99.86c5.18-3.15,10.66-4.32,14.22,1.65,1.38,2.37,4.11,3.47,4.27,6.56.17,2.46,2.42,3.33,4.36,4.18,3.91,1.57,8.19.23,12,2.56,1.44.76,3.3-.14,4.49-1.47,5.74-6.02,16.87,8.83,23.52,1.95,1.8-1.93,4.74-1.14,6.49-3.18.47-.54,1.92.25,2.76.73.89.51,1.76,1.25,2.77.92,3.87-1.4,13.36,2.76,12.02-4.44-1.04-3.42.23-6.97-1.04-10.31-.32-.84.28-1.52.87-2.04,3.02-2.5,2.11-7,5-9.67.99-1.2,2.29-2.16,2.11-4-.08-.78.65-1.11,1.19-1.5,3.86-2.1.32-6.96,4.27-9.06,4.6-2.07,5.19-7.69,9.38-10.2,3.65-3.71,5.41-9.04,9.95-12.38,2.18-2.99,5.73-3.2,8.81-4.43,1.25-.91,2.3-1.36,3.84-.26,2.8,2.03,2.85-3.94,5.41-2.96,5.25.97,1.73,5.59,6.11,6.11,5.5,1.05,6.85,7.72,11.38,10.57.94,1.2,1.91,2.22,2.2,3.85-4.47-.84-5.02,5.91-11.73,4.14-2.5-1.04-7.8.92-7.76-3.02.96-4.1-2.53-10.93-7.22-8.19-6.92,3.37-10.36-5.65-17.22,6.99-1.2,3.23-6.33,5.16-3.82,9.16,1.5,3.58,1.03,9.18-3.95,8.02-.64-.09-1.52-.18-1.86.46-.64,2.34-4.53,3.94-3.91,6.23,2.99,4.65,8.48,6.84,11.34,11.68,4.52,5.62-5.38,7.21-9.18,6.01-.41.67-.23,1.05.04,1.43,1.74,2.41,1.99,4.78.4,7.48-2.66,3.21,1.98,14.73-5.6,9.18-3.82-5.94-10.06-1.89-14.6-5.41-2.76-2.09-5.81,1.09-8.76-.48-.54-.23-1.1-.12-1.63.1-1.2.5-2.36.29-3.6-.02-6.63-2.62-6.08,9.53-12.99,4.9-1.3-.61-2.44-1.34-4.1-.73-3.14,1.27-5.45-4.23-8.45-2.84-4.3,4.44-11.35-.05-15.28,4.69-2.75,4.27-9.5-2.27-10.15,4.37-1.22,6.24-8.81-1.59-7.23-5.64.89-4.21.36-5.4-3.64-6.95-3.71-1.09-3.77-5.78-7.78-6.18.1-2.92,1.61-5.51,2.26-8.57Z"/>
        <path class="cls-36" d="m158.56,158.48c.8-4.3.31-10.24-3.23-12.73-1.01-.47-2.31-.62-2.28-2.07-1.09-4.3,2.67-9.84,7.55-9.76,1.54.15,3.36-3.1,2.92-4.97-1.08-3.13.06-6.19.17-9.25-.91-2.15.1-4.12.28-6.13,10.34,4.2,8.38-3.3,20.56-2.44,4.5-.02,4.73-.47,4.27-5.08.39-3.28-1.71-6.75-.93-9.59,3.33,1.64,2.58,6.33,2.9,9.57.33,1.72,1.92,2.5,1.96,4.21,3.57,8.11,4.64,17.15.15,24.99-1.21,6.31-2.15,12.43-6.09,17.77-1.86,3.06-3,7.04-7.93,6.17-6.84,3.61-13.42,1.47-20.29-.68Z"/>
        <path class="cls-34" d="m22.31,99.43c.55,11.44-9.02,13.95-14.03,3.52-1.36-2.47-4.41.67-6.54-1.42-5.53-3.04-14.7,5.86-18.26-.06-2.21-2.97-6.44,2.7-6.69,5.42-.77,5.83-2.68,11.49-2.34,17.5.13,2.4-.34,2.85-2.63,2.88-2.53.03-5,1.56-7.81.17-.22-.61-.2-1.12-.11-1.87,7.93-7.32,4.96-18.48,10.85-26.37,1.93-3.87.93-13.63,8.29-10.18,4.41,2.28,5.67,1.61,6.15-3.52.93-6.68,7.66-9.01,11.71-3.47,4.56.76,8.72,3.45,13.51,2.95,2.18-.23,4.23-.24,6.37,1.03.64,4.22,7.84,6.24,3.37,10.15-.82.89-1.93,1.59-1.84,3.28Z"/>
        <path class="cls-40" d="m46.02,5.84c-.21.61-.26,1.24-.72,1.29-7.56,2.23-6.03,7.98-16.29,6.29-1.44-.04-2.11.63-1.96,2.02.18,1.72-1.08,2.8-1.63,4.17-3.39,5.96-9.68,8.82-14.28,13.69-3.76,3.39-10.04,4.96-11.05,10.57-5.99,7.93-11.84,16.47-19.46,23.13-3.91,3.67-4.38,9.35-11.75,8.84-2.2-8.57,11.99-18.5,14.86-26.82,1.87-3.81,5.61-6.63,6.55-10.9,1.34-7.33,7.32-10.93,11.66-16.41,5.63-1.47,6.93-8.17,11.98-10.03,10.43-1.92,21.5-8.34,32.1-5.84Z"/>
        <path class="cls-8" d="m158.26,158.5c4.35.9,8.65,1.25,13,1.29,2.56,1.44,4.58.9,6.32-1.44,1.29-2.2,3.15,1.42,4.41.05,3.24-3.02,4.14-7.19,6.71-10.67,1.35-1.66,2.18-3.6,2.03-5.88-.19-2.84.49-5.52,1.77-8.07,1.04-3.77,3.9-7.29,2.57-11.37-.4-1.8-1.51-3.55-.57-5.7,3.48,2.61,3.36,7.67,4.17,11.64-1.04,1.85.88,2.99.74,4.79-.05,4.02-.98,7.91-.56,12.04-4.62,6.3-5.31,14.05-11.57,19.26-7.08,6.22-9.71,15.05-14.24,23.18-2.4.62-4.54,1.53-7.03.48-.82-2.61-1.35-5.1-4.69-5.57-4.48-3.13-1.65-10.34-.44-14.85,1.28-2.78-2.05-3.07-3.7-4.49-.17-1.73-.35-3.3,1.09-4.7Z"/>
        <path class="cls-7" d="m12.34,217.11c1.61-5.21,9.07-8.09,11.92-3.07,1.67,4.82,6.42,5.51,10.21,7.44,2.56.85,3.65-3.29,6.5-2.66,3.13-.89,4.56-3.28,6.41.63,1.81,1.74,1.17,5.21,3.68,6.04,12.25,4.49,25.71,3.74,38.14.81,1.89-.03,3.6.1,4.54,2.08,6.43,3.9,16,2.2,23.25.4,7.19-.58,10.1-10.02,17.64-8.02.88,1.24-.5,2.1-1.59,2.23-2.73,2.65-6.48,3.66-9.54,5.86-4.02.17-7.86,2.3-11.43,4.05-3.73.73-7.53,1.27-11.36,1.58-16.12,1.69-33.25,4.97-48.5-2.15-14.03-3.17-28.01-5.78-39.86-15.22Z"/>
        <path class="cls-47" d="m161.91,35.12c-6.3-4.55-13.88-5.98-19.78-11.19-4.19-4.35-10.86-4.21-15.26-8.13-4.07-3.84-6.1,2.69-9.83,3.83-3.43-2.7,2.76-6.42-1.68-8.53-7.02-3.62-15.8-7.63-23.62-5.08-9.88,4.99-19.73-3.35-29.43,1.42-1.1-.23-1.79.72-2.81.1,17.87-12.62,40.58-6.58,59.8-2.18,3.36-.15,5.53,3.48,8.91,3.36,10.91,3.58,18.97,12.54,28.73,18.31,1.78.99,14.41,11.3,7.5,9.96-.68-.72-1.38-1.42-2.52-1.88Z"/>
        <path class="cls-8" d="m-37.92,139.62c9.7.66,3.69,30.29,18.18,27.42,2.66,1.75,3.82,4.04,3.33,7.26-2.93,1.91-6.51.57-8.26,4.67-.36,7.08,4.8,10.87,8.13,16.25,3.85,8.73,13.13,11.57,18.62,18.74-5.95,3.9-16.93-6.48-18.95-12.08-4.64-3.98-5.38-9.37-7.04-14.82-6.52-15.14-15.48-30.6-14-47.45Z"/>
        <path class="cls-18" d="m173.02,187.48c2.85-11.36,10.4-20.34,18.24-28.76,3.39-3.81,2.36-10.98,7.36-13.22,1.74.83.03,2.45.17,3.8-.05,2.1-.33,3.88-.08,5.99-.52.91-.72,1.68-.63,2.74-6.55,8.34-11.01,17.78-16.49,26.57-3.47,6.26-3.05,18.31-12.56,18.77-.93-2.45,1-3.87,1.56-5.71,1-3.27,1.54-6.64,2.44-10.19Z"/>
        <path class="cls-9" d="m175.45,200.04c4.27-14.84,11.69-30.18,22.38-41.75-1.72,15.48-8.86,32.96-22.38,41.75Z"/>
        <path class="cls-44" d="m1.86,21.54c-.93,5.89-9.66,8.62-10.36,15.31-5.69,13.97-17.4,26.09-24.21,38.72.16-10.17,25.04-51.14,34.56-54.03Z"/>
        <path class="cls-7" d="m172.89,187.26c1.01,5.95-1.8,10.65-3.73,15.92.24.51.33.81.08,1.34-1.79,1.23-3.51,2.32-5.36,3.36-2.07-.53-7.28,5.01-7.11.93.12-.85.75-1.53,1.41-2.45.2-.87.04-1.71.56-2.1,4.92-4.4,5.25-10.21,6.95-16.1,2.43.1,4.59-1.23,7.2-.9Z"/>
        <path class="cls-6" d="m11.93,216.88c7.92,3.86,15.11,8.02,23.44,10.94,6.29,2.28,13.01,1.12,18.92,4.64,13.31,5.58,28.04,2.48,41.91,2.37-12.14,4.2-25.85,2.6-38.35.92-5.13-1.87-9.49-4.72-15.09-4.77-13.72-.9-24.84-10.03-37.16-15.39,2.26-1.03,3.94,1.08,6.33,1.29Z"/>
        <path class="cls-6" d="m190.67,100.76c-2.17-.48-1.5-2.67-2.44-4.31.05-3.51-1.69-5.85-1.53-9.34,2.24,3.19,3.39,9.02,3.97,13.65Z"/>
        <path class="cls-46" d="m164.53,37.22c1.85-.97,3.14.69,3.86,2.31,1.7.89,3.16,2.79,3.46,4.66-3.27,1.05-4.96-4.87-7.31-6.97Z"/>
        <path class="cls-40" d="m56.53,7.29c-.91,2.86-5.43-.74-7.24-1.73,2.47-.11,5.18-.88,7.24,1.73Z"/>
        <path class="cls-8" d="m158.13,206.18c.57,1.39-2.18,3.23-.04,3.94-.67,1.75-2.49,1.52-4.21,2.02,1.12-2.02,2.05-4.35,4.25-5.96Z"/>
        <path class="cls-8" d="m147.11,215.37c1.27-2.17,3.51-2.9,6.23-3.2-1.2,2.28-3.95,2.07-6.23,3.2Z"/>
        <path class="cls-18" d="m134.3,222.81c-.05-.53.15-1.01.42-1.66,1.28-.62,2.49-1.05,3.94-1.49-.81,1.61-1.99,3.04-4.36,3.15Z"/>
        <path class="cls-6" d="m186.56,85.34c-1.89-.99-2.14-4.35-2.48-6.43,1.85,1.52,1.86,3.96,2.48,6.43Z"/>
        <path class="cls-47" d="m171.18,44.66c2.08-.72,2.85,2.7,3.25,4.29-1.93-.56-2.17-2.61-3.25-4.29Z"/>
        <path class="cls-6" d="m112.14,233.05c.59-2.39,2.91-2.02,4.99-2.57-.84,2-3.12,1.61-4.99,2.57Z"/>
        <path class="cls-9" d="m169.31,204.7c-.22-.28-.2-.56-.16-1.05,1.42-.87,2.83-1.53,4.48-2.21.37,2.18-2.7,2.38-4.32,3.26Z"/>
        <path class="cls-8" d="m194.61,114.93c-1.83-.61-1.77-2.32-1.9-4.21,2.08-.18,1.05,2.76,1.9,4.21Z"/>
        <path class="cls-18" d="m139.71,219.56c0-1.77,1.4-2.16,3-2.59-.17,1.55-1.04,2.57-3,2.59Z"/>
        <path class="cls-6" d="m100.62,234.68c.8-1.42,2.17-.76,3.66-.87-.54,1.99-2.08,1.23-3.66.87Z"/>
        <path class="cls-6" d="m199.08,137.39c-.23-1.18-.52-2.44.15-3.84,1.15,1.16,1.34,2.48-.15,3.84Z"/>
        <path class="cls-6" d="m126.92,226.97c.31-1.75,1.94-1.59,3.49-2.02-.42,1.51-1.77,1.88-3.49,2.02Z"/>
        <path class="cls-6" d="m199.36,131.81c-1.59-.84-1.84-1.62-.91-3.16.38.95,1.09,1.82.91,3.16Z"/>
        <path class="cls-8" d="m192.61,108.91c-1.39.06-1.94-.77-1.87-2.34.87.36,1.72.97,1.87,2.34Z"/>
        <path class="cls-6" d="m.93,215.09c.06-1.25,2.21-1.06,2.6-.01-.75.47-1.58.57-2.6.01Z"/>
        <path class="cls-6" d="m130.92,224.89c-.1-1.02.38-1.7,1.68-1.86.07.98-.36,1.72-1.68,1.86Z"/>
        <path class="cls-9" d="m198.95,149.38c-1-.59-1.03-1.26.2-1.88.28.57.37,1.18-.2,1.88Z"/>
        <path class="cls-6" d="m198.64,126.45c-1.06-.02-1.4-.59-.77-1.7.83.2.89.81.77,1.7Z"/>
        <path class="cls-6" d="m123.54,228.96c.37-.55.2-1.95,1.7-1.47-.19.86-.67,1.36-1.7,1.47Z"/>
        <path class="cls-6" d="m107.99,233.87c.26-.78.86-.81,1.71-.77,0,1.09-.53,1.53-1.71.77Z"/>
        <path class="cls-47" d="m168.52,39.44c-.76-.03-1.24-.54-1.35-1.59.94-.12,1.33.45,1.35,1.59Z"/>
        <path class="cls-47" d="m171.09,42.21c-.93.13-1.29-.43-1.29-1.53.75.01,1.2.51,1.29,1.53Z"/>
        <path class="cls-18" d="m163.92,208.01c-.1-.93.48-1.24,1.54-1.26,0,.77-.5,1.21-1.54,1.26Z"/>
        <path class="cls-47" d="m46.09,6.01c-.64-.54.41-1.64,1.04-.8-.11.53-.43.73-1.04.8Z"/>
        <path class="cls-6" d="m198.93,141.35c-.65-.21-.84-.58-.25-1.17.63.22.77.6.25,1.17Z"/>
        <path class="cls-9" d="m198.74,153.37c-.93.01-1.59-.28-.22-1.15.21.28.22.6.22,1.15Z"/>
        <path class="cls-9" d="m198.24,156.82c-.86-.48-.68-.9.26-1.25.24.39.21.79-.26,1.25Z"/>
        <path class="cls-41" d="m119.88,135.83c3.65,6.47-2.58,9.42,1.96,13.2,6.52,6.47,9.24,4.93,9.55,15.36.12.98-.65,1.6-1.25,2.27-2.58,2.26-3.3,6.26-4.68,9.41-3.93,2.61-8.96,1.09-12.75-1-2.73-1.38-2.44-8.46-6.17-6.48-5.19,3.42-11.86,4.51-16,10.04-.51.24-.83.25-1.35.03-3.53,1.45-4.91-1.73-8.04-2.82-1.24-2.95,2.26-5.3.48-7.99-1.77-3.51.88-7.61-2.22-10.78-.9-1.74-2.81-3.88-1.24-5.79,1.11-.95.17-2.95,1.42-3.58,3.2-.61,5.71-3.28,9.24-2.95,1.44.14,2.48-.71,1.91-2.31-.15-3.49,4.37-4.95,1.42-8.98-1.84-1.74-.83-5.67,1.99-4.26,1.16.6,2.1,1.68,3.64,1.45,5.09-1.2-3.12-4.87.68-7.2,4.12-3.85,8.78,2.89,13.43,3.17,4.91,1.22,6.73,4.64,7.97,9.2Z"/>
        <path class="cls-32" d="m-23.97,79.54c-.28-1.74.79-3.23.47-5.19,12.04-10.16,9.96,3.39,19.35-2.53,5.16-3.1,9.8,3.92,15.55.22,4.89-2.48,10.18,4.22,14.54,1.91.75-1.42,2.06-1.96,3.3-2.71,2.74-1.5,2.95-5.12,4.84-7.46,1.96-4.17,6.18-3.35,9.76-4.66,7.97-3.12,19.35,3.65,24.2-5.94,1.75-3.75,6.08-7.78,4.14-12.15-.66-2.77-4.05-6.39-1.59-8.9.92-.91,1.74-1.37,2.86-.35.2.18.76.29.91.16,2.46-2.19,4.9-.2,7.28.11,2.33.78,6.5-1.29,4.76-3.99-1.42-2.79-.65-6.13-1.55-9.14-2.02-2.24-4.23-4.38-5.45-7.33-4.55-6.99-14.81-.87-17.3-3.97,7.76-7.17,17.71,2.01,26.78-1.63,9.39-4.13,20.77.11,28.84,5.57,1.3.93.92,2.18.18,3.28-4.56,5.85,8.93,10.66-3.36,14.82-1.64.51-3.23,1.06-4.26,2.5-5.49,8.67-20.08-1.6-23.86,6.45-1.26,3.62-4.26,4.56-8.07,4.43.92,1.74,2.59,2.27,3.39,3.6,3.46,3.69-1.12,8.46-4.82,5.07-2.25-2.09-3.35-1.11-4.61.98-6.44,9.58-19.79,12.52-30.6,13.31-10.18-1.55-2.91,13.52-12.75,14.19-3.09.87-5.33,4-7.81,5.91-4.29-1.39-8.92,1.67-12.47-1.03-1.97-1.53-5.01-.83-7.39-1.61-1.12,0-1.98-.71-2.31-1.69-2.05-5.4-8.48-.69-9,3.51-5.66,2.02-3.98-6.53-8.07-3.97-2.57,1.89-3.59-.91-5.9-1.77Z"/>
        <path class="cls-43" d="m112.36,174.61c1.86.46,3.51,1.07,5.38,1.78,1.08,1.4.19,2.3-.67,2.92-4.7,3.09,4.1,11.22-4.96,11.48-3.16-2.75-5.43.35-8.49,1.07-4.8.37-2.63,5.77-5.79,7.7-4.75,3.41-2.98-3.78-16.07-.36-3.77.46-1.75,5.12-4.94,5.9-2.61.41-3.07,2.31-3.85,4.42-3.1,1.23-4.56,5.41-8.71,4.8-2.41,1.52-5.52,1.22-6.09-2.25-.3-3.35-2.39-6.15-2.39-9.5-2.09-.48-3.36,2.71-5.49.43-3.46-2.34-7.44,2.44-11.02,3.12-3.5,1.9-6.38-1.52-9.95-1.38-2.73-.21-4.94-2.15-7.21-3.4-5.74-1.43-.68-8.22-5.54-10.22-2.07-.89-2.92-.61-3.67,1.65-.26.79-.49,1.59-1.3,1.82-2.8.8-4.69,2.95-6.89,4.61-3.45,1.46-8.35-6.23-9.36-9.41-1.4-4.9-7.42-.16-9.66-3.75-3.62-4.3-3.19-8.06-10.23-6.86-.06-4.94,3.61-4.78,7.49-4.72,6.71.15,5.88,11.91,13.79,8.09,11.28-.88,10.03,10.25,19.73-6.07,1.36-1.99,3-2.48,5.1-.83,2.52,1.98,6.23,2.42,7.85,5.48,1.32,2.5,3.24,4.15,5.53,5.61,4.08,3.24,9.29-.68,13.38,2.76,9.83,7.35,14.84-.31,23.65,1.7,2.91,1.06,6.01.78,8.99.38,2.63-.36,5.1-.47,7.51.82,4.46,1.19,11.4-4.76,16.04-6.42.64-.42,1.77-.49,1.75-1.36-.1-4.55,3.83-6.63,6.08-10Z"/>
        <path class="cls-35" d="m111.85,190.88c3.59.15,5.14-4.61,2.88-7.15-2.75-3.68,2.3-3.91,3.2-7.01,2.32-.37,4.67.15,7.17-.88,2.11-1.44,3.7-.51,5.5.64,2.2,3.36,8.8.63,9.07,5.17-2.02,7.47,3.22,5.28,1.37,10.01-4.99,14.6,7.95,13.96.31,20.48-2.21,4.89-10.82,2.39-14.7.92-1.12-.79-2.59-.06-3.57,1.08-1.12,1.31-2.36,2.39-4.3,2.13-1.1-.15-1.46.79-1.96,1.55-4.35,6.95-16.48,1.76-15.62-5.6,1.29-4-3.25-7.52-.12-11.14,2.77-11.9,1.43-4.65,10.78-10.19Z"/>
        <path class="cls-36" d="m139.79,181.88c-.35-1.4-1.13-2.03-2.73-2.03-1.72-1.81-4.06-1.53-6.11-2.53-1.86-.41-3.14-2.05-5.3-1.51-.46-2.32-.02-4.39,2.21-5.96,5.3,2.77,12.14.57,14.65-4.38,7.32,3.02,13.09-4.61,18.24-1.22,4.49,3.05-2.59,7.14-.52,11.31.32,2.48-1.54,4.54.8,6.74-5.1-.77-10.48,5.75-14.69,1.37-1.68-1.76-4.18-.97-6.54-1.78Z"/>
        <path class="cls-36" d="m112.48,174.25c.55,4.33-6.63,5.48-5.05,10.07.44,1.05.1,2.13-.88,2.06-3.95.36-6.4,3.74-10.29,4.43-2.93.3-4.47,5.02-7.57,2.61-5.79-3.1-12.23,1.3-18.3-1.84-3.86-2.28-7.09,3.37-10.64,2.14-8.28,1-11.82-6.18-18.48-4.8-4.44,1.36-8.32-2.49-11.48-4.7-.6-5.12-5.32-5.22-8.52-7.66-5.66-5.77-6.97,13.93-16.27,9.22-12.37-7.61-3.1,1.69-15.31-2.91-3.06-1.98-.6-6.18-6.31-8.25.14-2.91-1.65-4.88-2.73-7.37,7.49-5.93,9.9,2.1,12.71-3.04,1.19,4.24,7,3.21,6.75,7.71-1.33,7.29,7.03,2.14,8.36-1.29,1.14-2.34-2.67-4.79.35-6.26,4.64-2.76,8.97-8.84,15.24-5.15,3.38,8.81,4.08,5.54,10.35,11.42,1.86,3.34,7.16,1,7.47,4.88-.29,5.29,6.02-1.58,11.42-.29,8.48,1.85,3.05,10.45,11.52,5.5,5.3-3.54,2.16,6.64,9.21,3.96,8.44-1.16,12.24,5.68,14.93-5.96.33-.25.63-.25,1.15-.25,4.06-4.23,6.42-2.07,9.86,1.42,5.92,3.2-.13-11.96,10.36-9.66.82,1.37,1.43,2.58,2.14,4Z"/>
        <path class="cls-46" d="m25.86,82.28c-.88-5.07,9.78-.93,8.56-10.39-.48-3.64,2.87-8.62,6.99-6.85,9.37.08,19.79-3.72,27.55-9.26,2.43-1.23,4.2-10.02,7.25-5.83,4.99,5.35,8.91-.99,3.01-4.65-1.83-.44-3.68-3.34-.8-3.53,2.67.76,6.12-.12,7.14-2.99,3.21-10.27,17.77,1.37,23.62-6.76,1.51-2.95,4.71-2.82,7.44-3.87,6.9-4.81-4.48-6.65,4.99-13.29,4.24-4.35,8.32,4.1,13.4,3.99,6.92,2.35,11.57,8.67,18.61,10.87,2.43,1.02,5.02,1.88,6.73,4.38-6.48-2.52-13.95-3.25-19.62-7.76-2.04-1.46-3.75-1.69-5.72-.04-2.09,2.89-5.74-1-6.63,2.1-1.43,3.39-5.99,3.97-7.12,7.98-1.35,2.85-1.97,3.06-5,2.45-2.83-.58-2.85-.58-3.82,2.35-1.44,4-7.18,5.48-4.22,10.31,2.24,4.42,1.78,10.11,4.86,14.05.99.95,1.08,2.04.01,2.9-1.67,1.36-2.1,3.07-1.88,5.09,1.48,5.94-7.35,4.24-4.23,8.96,2.88,5.37-2.62,11.04-3.7,15.83,2.15,2.62-.28,5.68.89,8.43.42,1-.49,1.72-1.6,1.36-8.15,1.01-11.08-8.41-17.18-1.8-1.63,1.51-2.95,3.38-5.23,4.11-5.45,2.13-8.29-7.62-14.02-4.03-16.89,12.55-9.8-3.79-21.54-3.09-1.58.42-1.86-.02-1.69-1.73,1.04-5.78-6.76-1.99-6.93-9.36-.34-6.32-7.12-5.85-10.12-9.93Z"/>
        <path class="cls-46" d="m161.84,35.19c1.11-.24,2.21-.11,2.57,1.57-1.16.25-1.83-.54-2.57-1.57Z"/>
        <path class="cls-45" d="m110.54,170.14c-6.93,1.61-5.25,1.07-6.71,7.38.58,3.38-1.66,6.1-4.58,3.09-2.52-3.3-4.98-4.98-8.67-2.14,2.02-6.38,10.52-6.44,15.01-10.63,1.96-1.11,5.51-.47,4.96,2.3Z"/>
        <path class="cls-39" d="m130.8,177.4c2.28-.38,4.52-.34,5.98,2.2-2.02-.46-4.91.22-5.98-2.2Z"/>
        <path class="cls-47" d="m57.56,72.25c1.08-3.52,4.52-5.26,7.29-7.33,5.92-3.17,2.69,6.5,3.27,9.37.26,4.71,1.04,9.57,2.39,14.05,1.73,3.03,1.05,6.03-.24,9.01-2.53,3.41-7.97,3.13-11.56,5.34-6.68.99-17.75-11.4-12.06-17.43,2.58-1.23,2.51-4.96,5.39-5.71,3.74-.75,3.66-4.49,5.51-7.3Z"/>
      </g>
      <g class="cls-4">
        <path class="cls-50" d="m185.67,260.92h2.95c-1.58,5.52,3.67,4.21,2.95,8.86-3.22-1.73-9.33-5-5.91-8.86Z"/>
        <path class="cls-57" d="m188.62,260.92c.46-2.01,3.7-1.23,5.91-1.48-.12,2.34.71,5.63-1.47,5.91-.59,3.53,6.72-.82,4.43,4.42-11.1-2.23-5.66,12.06-11.82,14.77-2.73-.23-.91-5-2.95-5.91.04-5.95-3.37-8.44-7.38-10.34.54-2.51-1.15-2.78-2.95-2.95,5.74-3.4,6.88-3.26,13.29-4.43-3.43,3.86,2.69,7.13,5.91,8.86.71-4.65-4.53-3.34-2.95-8.86Z"/>
        <path class="cls-50" d="m194.52,259.44c10.51-1.15,11.94,6.77,16.25,11.82v1.47c-1.32,1.15-3.34,1.59-5.91,1.48-3.04-2.93-1.39-2.93-4.43,0-.65-2.19-1.89.59-4.43,0h-4.43c-.13,4.02,2.46,2.97,0,5.9.27,1.26-.58,1.39-1.47,1.48,2.22,2.21,4.42,4.44,5.91,7.39-9.14-1.35-3.74,9.57-5.91,11.81-1.74.23-4.19-.25-4.43,1.48-1.48,0-1.76,1.19-2.95,1.48h-7.38c1.98-7.4-8.55-2.28-5.91-10.34v-1.48c1.31,1.15,3.33,1.59,5.91,1.48,4.63,1.63,4.16.95,5.91-2.95,3.89.45,3.81-3.08,4.43-5.9,6.15-2.71.72-17,11.82-14.77,2.29-5.25-5.02-.89-4.43-4.42,2.19-.28,1.35-3.57,1.47-5.91Z"/>
        <path class="cls-48" d="m204.86,274.21c2.57.11,4.59-.33,5.91-1.48-.21,1.74-2.63,3.35,0,4.43-1.49,4.16-6.27-.41-8.86,0,.02-1.96,2.59-1.35,2.95-2.95Z"/>
        <path class="cls-61" d="m191.57,280.11c2.29,1.65,3.08,4.8,7.38,4.43.15-4.58-4.64-4.21-2.95-10.34,2.54.59,3.78-2.19,4.43,0-.88,4.21,1.83,6.55,0,14.77.35,2.1,2.43,2.49,2.95,4.42,1.72-.25,1.6-2.33,1.47-4.42-4.27-1.66,2.27-1.6,1.48,1.47.27,3.23-1.21,4.7-4.43,4.43.08-2.54-1.14-3.79-2.95-4.43-.04-1.44-1.81-1.15-2.95-1.47-1.49-2.95-3.69-5.17-5.91-7.39.9-.09,1.75-.22,1.47-1.48Z"/>
        <path class="cls-50" d="m169.42,268.3c1.48,1.96,1.39,5.49,4.43,5.91,1.77,4.06,3.21,6.17,1.48,10.34h-1.48c-2.93-2.46-1.88.13-5.91,0-.07-2.52,1.1-3.82,2.95-4.43-.22-2.73-5-.9-5.9-2.95.66-3.77,2.07-6.79,4.43-8.86Z"/>
        <path class="cls-55" d="m173.85,274.21c-3.03-.42-2.94-3.95-4.43-5.91.65-1.31,1.29-2.64,2.95-2.95,1.8.16,3.5.44,2.95,2.95-.17,5.09,6.08,3.77,5.91,8.86h-4.43c.55-2.51-1.15-2.79-2.95-2.95Z"/>
        <path class="cls-53" d="m175.33,268.3c4.01,1.9,7.43,4.39,7.38,10.34h-2.95c-1.81,1.65-3.03,1.28-2.96-1.48h4.43c.17-5.09-6.08-3.77-5.91-8.86Z"/>
        <path class="cls-51" d="m210.77,272.73v-1.47c6.08.82,7.76,6.02,7.38,13.29h-1.48c-1.25-3.17-3.64-5.23-8.86-4.43,3.75.68,4.18,4.68,5.91,7.39,1.72.25,1.6,2.33,1.48,4.43-4.64-1.67-3.9.43-7.38-1.48h-1.48c.79-3.07-5.75-3.13-1.48-1.47.13,2.09.25,4.18-1.47,4.42-.52-1.93-2.6-2.32-2.95-4.42,1.83-8.22-.88-10.56,0-14.77,3.04-2.93,1.39-2.93,4.43,0-.36,1.6-2.93,1-2.95,2.95,2.59-.41,7.37,4.16,8.86,0-2.63-1.08-.21-2.69,0-4.43Z"/>
        <path class="cls-57" d="m173.85,284.54h1.48c1.73-4.17.29-6.27-1.48-10.34,1.8.16,3.5.44,2.95,2.95-.08,2.76,1.14,3.13,2.96,1.48,1.9,3.48-.19,2.75,1.48,7.39-2.38.41-2.54-1.4-4.43-1.48-1.3,4.75,4.87,2.03,4.43,5.9-1.75,3.91-1.28,4.59-5.91,2.95v-4.42c-3.37-.42-5.55.36-5.91,2.95v1.48c-3.98,1.02-2.86-3.05-4.43-4.42,1.8-.17,3.49-.44,2.95-2.95,2.21-.25,5.45.52,5.91-1.48Z"/>
        <path class="cls-60" d="m162.04,288.98c1.46-3.47,2.59-7.26,2.95-11.82.9,2.05,5.68.22,5.9,2.95-1.85.61-3.02,1.91-2.95,4.43,4.03.13,2.97-2.46,5.91,0-.46,2-3.7,1.23-5.91,1.48.54,2.51-1.15,2.78-2.95,2.95h-2.95Z"/>
        <path class="cls-61" d="m213.72,287.5c-1.08-6.47,2.93,1.19,2.95-2.95h1.48c2.45,5.53-1.81,15.46-5.91,19.2v-4.43c-2.18,1.7-3.72,1.7-5.91,0-.69-6.08,3.71,1.16,5.91-2.95,0-.82-1.19-1.68-1.47,0-1.98-.98-2.75-3.16-2.95-5.91,3.48,1.9,2.74-.19,7.38,1.48.12-2.09.24-4.18-1.48-4.43Z"/>
        <path class="cls-58" d="m206.34,299.31c2.19,1.7,3.72,1.7,5.91,0v4.43c-1.94.52-2.32,2.6-4.43,2.95-1.24-1.72-1.95-3.96-1.48-7.38Z"/>
        <path class="cls-62" d="m198.95,290.45c1.82.65,3.03,1.9,2.95,4.43,3.22.27,4.7-1.21,4.43-4.43h1.48c.2,2.75.97,4.94,2.95,5.91.28-1.68,1.48-.82,1.47,0-2.19,4.11-6.59-3.12-5.91,2.95-.47,3.42.24,5.66,1.48,7.38-1.2.28-1.47,1.48-2.96,1.48,2.76-2.62-1.2-3.75,0-8.86-5.56,2.16-2.98,3.91-2.95,10.34-2.79.33-3.26-1.67-5.91-1.48,0-1.48,1.2-1.76,1.48-2.95-2.59-2.33-7.87-1.98-11.82-2.95.24-1.73,2.69-1.24,4.43-1.48,2.82-.62,6.35-.53,5.91-4.42,2.63-1.08.21-2.68,0-4.43,1.72.24,2.63-.33,2.95-1.48Z"/>
        <path class="cls-56" d="m169.42,293.4c-2.65,8.06,7.89,2.95,5.91,10.34h7.38c2.59,9.16,7.54-2.06,10.34,5.91-5.12-1.18-5.68,2.19-10.34,1.47-13.76-.51-19.14-9.41-20.67-22.14h2.95c1.57,1.37.46,5.44,4.43,4.42Z"/>
        <path class="cls-57" d="m185.67,302.26c3.95.98,9.22.62,11.82,2.95-.28,1.2-1.48,1.48-1.48,2.95,2.65-.19,3.11,1.81,5.91,1.48-.38,3.07-6.48.4-7.38,2.95,0-1.48-1.19-1.76-1.47-2.95-2.8-7.97-7.75,3.25-10.34-5.91,1.19-.29,1.47-1.48,2.95-1.48Z"/>
        <path class="cls-58" d="m181.24,290.45c.44-3.88-5.73-1.16-4.43-5.9,1.89.08,2.05,1.89,4.43,1.48-1.67-4.64.43-3.9-1.48-7.39h2.95c2.04.91.22,5.68,2.95,5.91-.62,2.82-.54,6.35-4.43,5.9Z"/>
        <path class="cls-58" d="m169.42,291.93c.35-2.59,2.54-3.37,5.91-2.95v4.42c-2.57.11-4.59-.33-5.91-1.48Z"/>
        <path class="cls-57" d="m198.95,290.45c-.32,1.15-1.24,1.72-2.95,1.48-2.08-5.47-8.44,7.46,0,4.43.45,3.89-3.08,3.81-5.91,4.42,2.16-2.24-3.23-13.16,5.91-11.81,1.15.33,2.91.03,2.95,1.47Z"/>
        <path class="cls-54" d="m196,291.93c.21,1.75,2.63,3.35,0,4.43-8.44,3.03-2.08-9.9,0-4.43Z"/>
        <path class="cls-49" d="m201.91,309.65c-.03-6.42-2.61-8.18,2.95-10.34-1.2,5.11,2.76,6.23,0,8.86-1.19.28-1.47,1.48-2.95,1.48Z"/>
        <path class="cls-52" d="m193.05,309.65c.28,1.19,1.48,1.47,1.47,2.95h-11.81v-1.48c4.66.72,5.22-2.65,10.34-1.47Z"/>
        <path class="cls-59" d="m213.72,287.5c-1.73-2.71-2.15-6.71-5.91-7.39,5.22-.79,7.61,1.26,8.86,4.43-.02,4.14-4.03-3.51-2.95,2.95Z"/>
        <path class="cls-51" d="m191.57,280.11c2.46-2.93-.13-1.88,0-5.9h4.43c-1.69,6.12,3.11,5.75,2.95,10.34-4.31.37-5.09-2.78-7.38-4.43Z"/>
      </g>
      <g class="cls-1">
        <path class="cls-17" d="m1928.46,948.16c2.44,8.08,6.79,15.14,7.32,23.79-1.12,5.51,3.13,9.96.29,15.09-1.58,3.43-2.47,6.7,2.03,8.86,3.98,2.7-2.85,7.16-.77,11.29.78,6.34-6.45,11.41-9.68,4.08-2.38-7.47-4.1-15.01-7.78-22.05-1.59-4.45-2.55-5.02-6.17-2.28-2.44,1.86-4.36,1.13-5.96-.81-4.41-4.76-10.81-8.21-17.05-8.92-12.84,4.39-21.67-18.42-31.83-17.79-5.07,1.02-9.74-.6-14.31-2.18-6.89-2.77-15.7,11.97-19.43-1.02q-1.92-7.11-9.54-8.02c-14.16-14.17-4.49-27.67-13.88-30.82-6.18-1.14-9.19,7.52-14.26,10.17-.66.64-1.54,1.44-2.36,1.3-5.19-.85-8.29,3.17-12.26,5.1-9.73,6.27,1.49,9.38,4.14,14.76,2.15,6.39-5.52,8.78-5.53,14.72.35,8.57-13.88,13.32-15.28,4.12.49-12.39-16.67-6.86-16.43-17.88-.21-2.27-2.71-12.64-6.24-8.89-5.28,6.53-13.18,10.37-15.19,19.15-1.96,4.91-11.93,5.59-7.39,12.47,4.03,7.41-10.32,8.55-2.5,15.62,10.52,11.1-1.13,16.05,6.75,21.42,5.05,4.33,5.13,4.33,2.55,10.59-.84,2.05-.5,3.82.34,5.72,4.28,9.8,4.29,21,10.57,30.03,4.31,6.74,15.09,7.61,15.01,17.25.29,5.47,7.95,1.57,9.23,7.01,1.93,3.9,6.05,6.07,7.99,10.37-.12,2.35,1.2,3.57,2.38,4.93,1.92,2.22,4.28,4.25,4.09,7.91-2.55,2.16-3.79.15-4.78-1.4-1.92-3.03-4.61-4.05-7.77-2.96-3.66,1.27-7.13-.98-10.99.07-3.85.64-5.54-1.01-5.38-4.46.08-1.88-.57-2.87-2.42-3.16-6.1-2.72-6.8-12.3-8.06-18.31-.04-1.5-.88-2.16-2.03-2.71-9.29-4.81-10.6-14.53-13.85-23.31.47-5.28-.11-9.86-4.58-13.46.09-3.29-2.54-5.85-1.3-9.3,1.5-3.13.65-5.61-.07-8.57-2.18-10.89-6.69-20.36-11.42-30.52-1.1-1.19-1.05-2.87-.1-4.29,10.33-18.98,20.39-38.37,38.28-51.41,7.3-4.19,17.16-13.6,25.96-10.18,3.41,1.67,6.06,1.14,8.22-2.24,4.27-5.47,11.73-11.62,19.03-9.28,8.3,3.73,15.28-2.59,23.5-3.15,4.64-.88,10.35,8.35,5.1,10.59-3.74,2.29-1.53,11.06,2.77,11.03,8.31-.32,12.83,5.99,18.65,10.24,4.77,3.49,9.02,8.08,16.36,6.7,7.11-1.8,11.48,8.4,18.3,7.47,4.75-.31,8.87,3.95,13.67.78,2.03-1.05,4.21-.03,6.32-.09,5.77,1.27,11.73-3.43,16.89-.25,12.44,8.93,13.83-17.26,20.87-2.96Z"/>
        <path class="cls-16" d="m1813.59,923.79c-7.95-8.77,5.46-9.47,1.84-12.85-1.58-1.49-1.67-3.97-3.63-5.17-2.15-1.32-3.64,1.02-5.63.95-2.8-.09-5.35.93-7.72,2.49-7.24,4.33-14.92-4.45-21.91,1.15-6.34,2.1-10.52,14.83-16.7,10.73-5.7-3.92-9.86-.73-13.93,2.37-6.93,4.8-10.91,2.98-16.09,10.94-8.1,5.26-12.9,14.21-20.07,20.05-1.65,4.36-4.48,8.16-5.43,12.69-4.18,3.36-4.3,8.92-7.5,12.87-6.2,5.26,4.77,6.68,2.36,12.49.31,6.91,9.09,10.51,6.57,19.33.53,5.57,5.48,5.37,1.73,12.4-.63.42-1.33.43-1.42.11-1.77-6.14-7.05-5.45-11.66-6.07-3.74-.44-4.23-5.62-8.06-6.68-4.32-3.97-4.97-9.09-5.04-14.08-.04-3.04-.36-5.59-2.03-8.17-5.77-6.38,7.26-9.39,9.92-20.07,1.99-21.24,23.36-30.26,35.47-44.13,2.38-9.18,12.7-.06,17.31-7.74,2.22-2.67,5.88-4.23,8.84-6.37,6.03-3.19,14.45,4.52,16.19-5.62.98-3.83,5.59-4.83,6.2-8.79.54-3.29,2.69-4.96,5.77-5.76,16.28-7.64,24.07,4.73,28.03-5.21,1.15-2.39,7.06-4.99,10.34-4.51,1.89.28,7.7,2.26,5.42-1.74-2.94-5.05-2.91-5.15,1.59-8.88,3.44-2.65,1.17-6.58,3.39-9.94,13.46-1.49,26.94,13.61,39.27,18.48,23.44,15.34-6.31,19.12,18.27,22.3,2.65.46,3.45,2.2,1.96,4.3-3.21,4.54-4.17,9.82-5.24,15.04-1.94,8.98-13,2.56-18.6,8.06-4.12,2.64-8.98,0-13.52.71-3.31-.17-7.26,1.09-10.42.51-4.63-3.19-10.65-2.33-15.32-5.57-3.12-2.17-6.83-.66-10.55-.61Z"/>
        <path class="cls-13" d="m1731.24,861.76c7.91-.87,14.71-8.35,22.73-6.13,8.3,23.88,10.52,7.79,8.47,37.6.22,6.92-5.88,2.17-9.72,4.38-7.39,6.42-22.87-7.71-23.44,4.81.47,4.87-3.69,6.43-6,9.61-2.88,7.32-7.72,15.23-14.41,19.3-4.46,3.89-5.02,10.75-11.62,13.37-6.36,2.8-9.09,9.01-9.75,15.93-13.16,19.15-20.42,24.28-43.32,15.16.19-19.16,12.64-34.76,21.99-50.8,3.27-1.34,3.24-5.62,6.03-7.54,1.94-.89,1.76-2.54,3-4.19,2.5-1.38,2.69-4.26,5.05-5.75,2.81-2.16,6.78-3.8,7.99-7.28,1.1-2.57,4.61-2.54,5.29-5.42,1.25-1.8,3.6-3.38,5.62-4.1,2.58.21,3.02-1.88,4.34-3.35,1.02-1.36,2.52-2.01,3.82-3.07.56-1.48,1.93-.84,2.97-1.52.72-1.27,2.15-1.66,3.18-2.59,2.16-4.29,4.17-8.61,8.09-11.61,2.13-.04,2.55-1.82,3.87-2.93,1.39-1.46,3.54-1.01,4.38-3.02.44-.51.76-.72,1.42-.84Z"/>
        <path class="cls-15" d="m1644.12,975.7c1.18.33,2.13.99,3.24.63,3.49-1.54,5.7,2.13,9.09,1.75,10.1,1.36,14.62.61,21.81-6.41,1.94-6.87,10.08-10.11,9.36-18.11-.21-3.84,4.19-4.36,5.55-7.39.8-1.59,2.16-2.84,3.79-3.1,5.22-.82,6.63-5.16,8.08-9,.99-2.63,1.92-4.37,4.85-4.45,1.49-.04,1.97-1.24,2.62-2.26,2.3-5.62,8.51-8.46,8.96-14.94,1.02-4.43,8.16-4.29,6.56-9.9-.61-5.25,3.44-9.88,8.82-6.24,10.41,6.16,15.41-4.17,23.9.79,5.28-38.98-6.42-18.93-6.59-42.53,18.89-5.53,51.81-7.14,66.59,7.35,2.54,2.35,5.05-6.5,7.73-1.88-1.12,1.82-.44,3.55-.61,5.19,1.16,8.59-10.52,5.9-4.71,13.04,4.7,2.6,1.66,6.56-2.8,4.81-2.36-.02-4.91-2.44-6.85-.23-2.01,2.33-6.57.21-5.63,4.86.27,1.89-.94,3.12-3,3.27-15.73-.54-5.84-5.24-26.91,1.4-5.34.76-1.91,6.72-5.76,8.68-2.39,1.62-4.53,3.18-4.3,6.84.05,3.68-6.59,5.85-10.03,3.92-5.62-2.76-8.06,2.3-12.3,4.6-4.5.49-4.34,7.24-9.31,6.1-3.19.3-9.2-2.95-10.01,1.6-2.79,9.05-13.99,10.66-19.42,18.19-3.57,3.63-5.69,8.67-10.67,10.97-5.41,4.93-3.1,15.42-7.92,20.85-1.02.76-2.02,1.73-2.18,2.87.42,6.02-10.62,4.88-6.64,10.61,5.99,6.64.23,15.83,7.03,22.82-3.63,4.48-8.35-2.26-7.45-6.63.38-8.96-8.68-6.9-12.47-12.45-1.53-2.76-3.8-3.08-6.13-1.47-5,3.48-11.01,4.2-16.78,6.46-3.64-1.66-.7-17.02.47-20.6Z"/>
        <path class="cls-29" d="m1810.87,1153.99c-36.02.67-73.7-7.64-102.61-29.94.97-3.94,4.3-5.05,7.26-6.36,4.43-1.72,4.56,6.77,9.08,5.02,2.21-.86,3.64-2.56,3.97-5.11.55-12.74,16.18-4.88,17.5-15.49,3.32.45,3.77,3.05,4.42,5.35.65,3.71,2.92,2.56,5.56,2.86,4.27,4.53,11.45,3.71,15.55,8.54,2.86,3.37,7.69,2.63,11.02,5.14.68.51,1.68-.45,2.39-1.04,3.78-3.41,9.21.21,13.03-3.97,1.39-1.13,3.32-.21,4.73.72,6,5.68,12.97-4.32,18.22,1.82,8.46,4.38,19.83-.76,28.39,6.16,8.14,1.01,17.38-.25,19.92,10.62-16.54,12.74-38.48,13.8-58.42,15.68Z"/>
        <path class="cls-31" d="m1815.27,947.21c10.44.37,8.71-.25,11.26,9.8,1.54,6.16,8.43,2.87,11.49-.31,1.98-2.42,3.04-1.59,6.57-.59,4.28,1.21,8.62,3.59,13.27,2.17,9.47-2.15,15.86,13.56,25.23,17.19,3.6,3.56,6.31-.87,9.78.37,18.7,5.84,14.33,16.24,22.66,7.74,1.39-.97,2.55-.76,3.4.79,2.92,3.83,2.02,8.79,5.94,11.99,1.29,1.44,1.85,3.16,1.47,5.09-1,4.59,4.4,18.02,9.05,10.14,2.73-4.33-2.36-9.22,2.78-12.46,2.66-3.36-4.47-2.04-4.56-5.02-1.54-6.05,5.33-10.69.85-16.55-1.01-1.69.18-3.56.53-5.66,4.25-.09,4.42,11.58,5.07,14.99,3.02,15.29,9.45,35.99,2.27,50.76-3.73,1.16-7.96-.58-9.85,3.88-1.72,4.78,5.84,5.22,4.61,14.79-4.75,15.01-10.61,5.4-21.84,12.28-6.5,3.28-10.19-3-17.07-2.81-5.21-5.57-5.32-12.95,2.81-14.58,12.95-3.11,4.57-21.67,16.3-23.36,6.13,1.01-1.06,14.21,12.97-.62,3.24-5.19-5.82-7.39-6.74-12.21-1.7-3.87-3.93.63-5.12,2.43-9.52,10.87-12.13-9-18.8-5.23-5.91,4.61-9.55-5.05-2.46-6.24,4.9-.45,7.3-9.99,1.55-10.15-6.88-.14-12.65-2.48-16.82-8.33-1.59-2.22-3.98-4.03-6.36-5.18-11.83-4.59-9.73-20.42-23.42-19.66-8.03-5.12-12.34,3.05-19.32,2.65-16.32-5.22-31.59,10.2-23.11-17.92,1.94-2.32,3.57-.03,5.64-.18Z"/>
        <path class="cls-27" d="m1746.47,1101.87c-1.39,3.04,1.4,8.41-3.97,7.59-4.92-.8-12.8,1.8-12.86,7.41.41,2.82-2.02,6.46-4.62,7.42-9.26,1.43-3.67-14.24-16.99.38-9.96-2.86-14.45-13-21.27-19.87.71-9.02,7.96-5.07,12.22-7.75,1.93-5.61-2.15-11.28-1.83-17.02,2.24-9.75,9.6-9.16,2.04-21.71-4.51-7.43,2.09-15.82-3.45-23.2-3.4-6.9,2.98-5.4-6.13-15.44.07-1.38.55-2.2,1.76-2.93,5.21,1.58,13.22-1.22,14.35,5.46.19.7.69,1.31,1.32,2.16-2.09,3.41,3.15,5.08.74,8.55-3.32,10.34,9.56,15.94,9.39,26.06-.56,3.94,3.59,4.29,5.35,6.73.48,4.43,8.58,2.82,6.89,6.78-1.02,1.68-.66,3.08.24,4.69,2.67,3.96,1.28,12.64,7.41,13.18,2.74-.11,3,.54,2.55,3.26-2.37,6.16,7.05,2.76,6.86,8.26Z"/>
        <path class="cls-26" d="m1813.2,923.87c10.65-5.66,11.43,2.82,19.27,1.81,1.77-.15,3.14,1.13,4.51,2.03,6.2,3.05,13.54-1.32,20.28.85,2.62.46,5.19.31,7.26-1.71,2.32-2.44,5.34-2.6,8.49-2.18,10.21,2.22,7.76-9.11,10.69-15.67.48-2.42,3.62-3.14,3.38-5.67-.29-1.19-1.48-1.02-2.28-.95-2.5.23-4.72-1.3-7.16-1.05-2.71.08-6.87-3.83-3.62-6.18,3.37-2.79,1.66-5.9.36-9.23,9.27,1.82,16.08,12.01,21.19,19.28,6.85,11.52,16.74,20.11,25.76,29.76,1.14,2.67,3.65,4.68,3.67,8.13-4.35,7.62-10.82,15.57-19.54,8.19-.94-.54-1.87-1.01-2.99-.37-5.79,3.69-12.18.17-18.04,1.75-5.11,4.79-9.74-2.7-14.94-.4-2.13,1.19-3.68-.4-5.01-1.99-2.83-3.39-7.32-4.03-10.78-6.39-.38-.26-1.39-.16-1.72.17-3.57,3.52-6.11.48-8.64-1.45-2.29-2.6-6.29-1.09-7.93-4.47-2.98-4.48-8.38-7.44-12.99-10.33-3.23-1.5-10.15,2.42-9.2-3.93Z"/>
        <path class="cls-11" d="m1689.55,1019.88c3.21,2.37,8.37,4.75,6.47,9.4-.37.97-1.47,2.06-.64,2.95,8.99,12.68-.39,16.74,4.83,25.49,11.24,18.62-8.65,14.25.28,32.02,1.32,3.17-2.19,4.69,1.65,7.85-5.35,3.31-12.41-1.16-15.41,6.6-3.42-.28-2.41-4.71-4.64-6.25-3.84-3.36-5.83-7.59-8.92-11.6-6.77-10.48-16.54-19.57-20.49-31.42-1.28-3.17-3.85-6.87-3.12-10.49,8.89-4.51,15.11-13.16,25.38-15.71,5.44-1.35,9.16-6.38,14.6-8.84Z"/>
        <path class="cls-25" d="m1746.52,1102.37c-.54-1.77-1.97-2.52-3.06-3.89,2.1-3.94,6.77,1.7,10.24-.64,9.94-2.82,7.29,4.2,12.76,5.68,7.94,1.82,16.16-1,23.6,2.86,1.98,1.03,4.16.47,6.17-.58,5.37-2.7,12.03-1.4,17.62-3.04,13.06-3.5,20.78,7.2,32.11,9.87,3.06.43,5.21,4,7.67,6.21,2.26,2.04,4.39,2.95,7.34,2.74,6.9-1.71,25.71,7.29,15.7,14.27-2.63,1.03-5.26,4.56-8.16,3.16.4-3.68-8.09-11.97-11.48-10.14-7.24,3.73-12.2-5.37-19.57-3.79-3.77-.31-7.37-1.66-11.23-.47-2.68.48-5.05.29-6.5-2.69-4.39-5.74-10.11,6.21-18.51-1.8-1.71-1.01-3.28-.96-4.28.91-2.94,5.36-8.86-2.06-11.78,3.59-1.43,2.02-2.82,2.09-4.53.24-2.81-3.52-8.24-.84-10.26-5.6-2.35-5.5-8.97-.75-11.4-5.62-1.51-2.67-2.57-2.82-5.63-1.86-5.48,2.16-2.57-7.13-6.8-9.41Z"/>
        <path class="cls-31" d="m1880.14,1131.86c-9.38-9.9-12.34-8.97-24.54-9.19-1.81-3.61-6.26-4.37-8.11-7.79-3.68-3.9-10.66.61-13.7-6.66-1.7-3.12-5.22-3.45-8.37-3.28-4.77,1.21-9.29-4.51-13.37-.33-4.94,3.12-11.42-1.74-16.47,2.88-2.54,1.68-5.38.8-7.4-.42-6.91-4.14-14.11.97-21.09-3.48-.36-5.77-7.44-6.99-7.12-12.2,6.42,1.98,13.32,3.46,19.84,2.19,3.93,2.9,8.47-.08,12.6,1.5,3.05,1.16,4.79-.96,6.01-3.91,3.26-3.14,5.44,5.2,6.65-2.08,6.4-8.11,12.88,6.99,18.87-1.53,1.42-1.95,3.88-1.33,4.66,1.04,1.77,5.41,6.91,7.96,9.92,12.29,1.53,2.2,3.65,1.7,6.08.78,1.9-.22,3.69-.23,4.76.72,4.09,3.64,9.76,4.07,14.02,7.24,9.78,5.2,18.08-9.03,28.28-5.26,8.51,2.66,9.15,3.36,9.48,10.48-2.38,4.25-16.63,17.13-20.99,17.01Z"/>
        <path class="cls-13" d="m1690.06,1019.49c-7.61,9.61-21.54,10.82-30.81,18.84-.64,6.01-6.4,3.66-9.43,6.83-4.31-1.64-3.24-8.12-4.85-11.77-1.95-6.47-3.05-12.68-2.51-19.53-.95-3.82.05-7.88-.12-11.82-.18-1.98-1.49-4.28.41-5.83,4.54-3.73,10.15-2.78,14.48-5.87,3.58-2.55,8.35-5.39,10.3.36,3.79,6.89,12.05-1.41,12.78,14.61-2.18,8.7,18.07,3.25,9.76,14.17Z"/>
        <path class="cls-25" d="m1897.91,1065c10.32-1.13,8.87,5.24,14.61,3.26,5.37-1.88,9.42-4.72,15.53-3.41,4.27.38,6.56-4.86,8.02-8.55,7.03,5.95-7.55,23.91-9.99,31.58-3.25,3.11-5.67,6.15-8.08,9.98-8.53.85-15.1-8.24-22.59-11.36-5.1-2.75-6.45-7.32-2.88-11.75,2.38-2.96,2.1-7.08,5.38-9.74Z"/>
        <path class="cls-5" d="m1898.03,1064.67c-.41,7.49-12.74,16.52-1.42,20.98,7.11,3.32,12.63,9.4,20.25,12.13-3.61,6.55-9.85,12.27-15.55,17.31-1.98-4.52-2.33-9.44-9.3-9.35-3.49-5.44,1.12-9.21,6.52-10.57-4.93-4.73-11.01-7.75-13.79-14.27,1.92-6.55-7.19-10.62-4.13-16.19,5.67-4.05.14-11.39,6.33-15.78,2.5-2.68,5.29-6.15,9.37-6.04,3.12,2.6-.24,5.68-1.37,8.26-4.63,6.28-1.15,8.11,3.09,13.52Z"/>
        <path class="cls-30" d="m1644.49,975.18c-.67,2.7.39,5.35-1.67,7.6-2.76-11.97,3.27-25.26,8.47-35.9,3.57-3.19,3.43-9.15,6.76-12.24,2.36-1.13,3.4-3.42,5.5-5.11,1.48,1.07.92,1.99-.2,2.86-10.99,11.54-15.21,27.26-18.86,42.79Z"/>
        <path class="cls-24" d="m1921.43,934.63c-14.31-9.25-24.59-23.93-32.82-38.78,6.43,2.34,7.81,12.1,13.56,16.18,4.31,6.68,11.05,11.05,15.41,17.52.65,2.08,3.48,2.45,3.85,5.08Z"/>
        <path class="cls-28" d="m1813.05,856.72c-10.41-3.63-21.31-2.82-31.24-6.51,1.79-2.07,3.98-.05,6.2-.27,2.85-.29,6.01-.28,8.85,1.09,12.72,1.43,24.94,4.13,36.82,9.23-1.78,1.9-5.13-.07-7.17-1.07-4.98,1.44-9.06-.77-13.46-2.47Z"/>
        <path class="cls-20" d="m1762.54,1148.91c11.64,1.38,22.59,2.19,34.25,4.8-10.34.47-25.14-.11-34.25-4.8Z"/>
        <path class="cls-24" d="m1871.21,882.46c-.62-.11-.97-.32-1.59-.69-8.44-5.04-16.78-9.65-25.12-15.42,10.01,1.98,18.31,9.51,26.78,15.11.14.52.17.71-.07,1Z"/>
        <path class="cls-14" d="m1780.46,849.62c-7.61,3.81-16.64,3.82-25.06,4.52,3.47-3.71,19.45-5.3,25.06-4.52Z"/>
        <path class="cls-22" d="m1868.07,1138.95c.99-.13,1.72-.07,2.7.08-.09.82-.68,1.23-1.39,1.56-5.49,1.95-10.13,6.09-16.01,6.6,3.93-4.28,9.73-5.26,14.7-8.24Z"/>
        <path class="cls-23" d="m1871.02,882.9c-.08-.33.14-.72.25-.91,4.68,3.04,11.04,4.38,13.4,9.99-4.55-1.96-9.55-5.84-13.65-9.07Z"/>
        <path class="cls-23" d="m1879.71,1131.91c5.44-1.05,6.68-7.01,12.31-8.18-3.31,4.12-7.8,9.29-13.49,10.55.29-.9.64-1.49,1.19-2.36Z"/>
        <path class="cls-20" d="m1825.36,1152.99c3.89-2.87,8.5-3.29,13.59-2.6-3.57,2.86-8.95,1.84-13.59,2.6Z"/>
        <path class="cls-14" d="m1642.96,995.76c-.22.9-.54,1.5-1.07,2.38-1.01-4.08-1.21-8.42.28-13.02,3.18,2.43-.66,6.91.79,10.64Z"/>
        <path class="cls-24" d="m1647.08,1042.36c2.9,1.41,4.62,8.21,5.12,11.48-2.69-3.14-4.32-7-5.12-11.48Z"/>
        <path class="cls-19" d="m1910.04,1107.42c-.26-4.79,4.52-6.45,7.18-9.43.2,0,.4-.02.69.23-2.32,3.33-4.47,6.63-7.88,9.2Z"/>
        <path class="cls-23" d="m1692.59,1112.28c3.67,1.92,5.84,5.65,8.86,8.85-3.88-1.7-6.81-4.68-8.86-8.85Z"/>
        <path class="cls-23" d="m1798.12,1154.23c2.52-3.05,7.67-.28,11.45-.47-3.47,1.87-7.32,1.06-11.45.47Z"/>
        <path class="cls-21" d="m1748.89,1145.79c3.01-.82,6.17-.64,9.27,1.7-2.81,2.2-6.13-.82-9.27-1.7Z"/>
        <path class="cls-21" d="m1677.92,1093.89c2.65.85,7.53,4.53,6.15,7.88-2.62-1.99-3.92-5.17-6.15-7.88Z"/>
        <path class="cls-10" d="m1745.87,855.92c-1.3,3.43-4.82,3-7.84,3.99,1.54-2.98,4.9-2.83,7.84-3.99Z"/>
        <path class="cls-24" d="m1665.67,1076.37c2.79,1.34,5.41,5.03,6.17,8.06-2.95-1.97-4.44-4.98-6.17-8.06Z"/>
        <path class="cls-23" d="m1735.05,1140.42c2.55.13,5.11.83,7.68,2.52-2.75.7-5.31-.34-7.68-2.52Z"/>
        <path class="cls-14" d="m1754.15,854.26c.1.48-.09.86-.48,1.47-2.05-.66-3.86.98-5.99.18,1.58-1.88,3.76-2.28,6.46-1.65Z"/>
        <path class="cls-30" d="m1680.23,907.31c-1.16,1.93-1.35,4.85-4.44,5.75.78-2.23,1.67-4.6,4.44-5.75Z"/>
        <path class="cls-17" d="m1688.73,900.17c.36,2.23-.18,3.66-2.65,3.96-1.43-.83,1.32-5.38,2.65-3.96Z"/>
        <path class="cls-14" d="m1703.95,887.71c-1.08,1.79-1.97,3.64-4.43,4.01-.42-.61-.31-1.09.31-1.74,1.69-.72,2.2-4.54,4.11-2.26Z"/>
        <path class="cls-17" d="m1693.85,894.69c1.07,2.38-.9,3.84-3.06,2.85.6-.92,1.56-3.41,3.06-2.85Z"/>
        <path class="cls-28" d="m1714.23,878.24c1.83,1.61-1.99,4.16-3.49,4.38-.22-2.32,1.9-2.99,3.49-4.38Z"/>
        <path class="cls-30" d="m1668.65,921.93c1.5,1.9,1.43,2.01-1.95,2.84-.02-1.26.69-2.09,1.95-2.84Z"/>
        <path class="cls-28" d="m1643.53,1028.44c1.72.81,2,2.39,1.57,4.45-1.52-.91-1.77-2.48-1.57-4.45Z"/>
        <path class="cls-21" d="m1675.27,1089.2c1.39.48,2.05,1.7,2.37,3.41-1.78-.17-2.71-1.21-2.37-3.41Z"/>
        <path class="cls-10" d="m1725.49,865.28c.28,2.25-.35,2.93-3.33,3.36.17-1.31,1.86-3.48,3.33-3.36Z"/>
        <path class="cls-28" d="m1661.37,1070.53c1.62,1,2.89,2.08,3.23,4.13-1.25-.39-3.43-2.57-3.23-4.13Z"/>
        <path class="cls-28" d="m1704.32,887.73c-.71.02-1.15-.21-1.81-.56.16-1.53.91-2.39,2.83-1.76-.05.77-.4,1.42-1.01,2.32Z"/>
        <path class="cls-28" d="m1642.55,1021.32c1.67,1.21.2,2.85.34,4.71-2.32-1.08-.45-2.84-.34-4.71Z"/>
        <path class="cls-23" d="m1722.18,1133.35c1.31-1.13,2.22-.31,3.13,1.01-1.25.82-2.15.08-3.13-1.01Z"/>
        <path class="cls-28" d="m1642.23,1014.68c1.17,1.06.97,2.44.29,4.11-1.3-1.03-.88-2.45-.29-4.11Z"/>
        <path class="cls-14" d="m1690.37,897.33c.43.02.57.09.9.29-.55.86-1.3,1.59-2.25,2.58-.46.1-.74-.02-1.23-.2,0-1.53,1.31-1.9,2.58-2.66Z"/>
        <path class="cls-17" d="m1642.19,1002.03c1.36,1,.94,2.42.33,4.1-1.14-1.04-.75-2.44-.33-4.1Z"/>
        <path class="cls-28" d="m1655.94,1062.11c1.41.53,2.18,1.69,2.2,3.55-1.34-.57-2.2-1.67-2.2-3.55Z"/>
        <path class="cls-23" d="m1707.89,1125.06c0-.41.08-.54.3-.87,1.1.31,2.17.65,2.75,2.03-1.24.61-2.13-.07-3.05-1.16Z"/>
        <path class="cls-28" d="m1641.8,1010.11c.83.8,1.27,1.84.81,3.31-1.24-.64-1.74-1.71-.81-3.31Z"/>
        <path class="cls-23" d="m1810.85,1154.18c.68-1.2,1.74-1.68,3.33-.77-.76,1.02-1.83,1.38-3.33.77Z"/>
        <path class="cls-28" d="m1685.27,902.87c.5.22.56.48.52.96-.69.6-1.77,2.55-2.91,1.88.51-1.21.9-2.35,2.39-2.85Z"/>
        <path class="cls-28" d="m1718.92,870.97c.16.78-.2,1.26-1.2,1.49-1.63-1.94-.36-1.77,1.2-1.49Z"/>
        <path class="cls-22" d="m1844.05,1149.72c.42-.8.82-2.09,2.25-.96-.44.91-1.16,1.15-2.25.96Z"/>
        <path class="cls-19" d="m1878.22,1134.15c.23-.19.6.02.78.12-.3,1.04-.74,2.03-2.37,1.81.25-.64.81-1.19,1.59-1.93Z"/>
        <path class="cls-28" d="m1724.81,865.18c-.14.73-.46,1.51-1.61,1.9-.89-1.57.38-1.62,1.61-1.9Z"/>
        <path class="cls-10" d="m1730.35,862.78c-.4,1.12-.81,2.25-2.53,1.77-.16-1.09,1.46-2.38,2.53-1.77Z"/>
        <path class="cls-24" d="m1661.53,1070.22c.16.26-.03.59-.12.75-.98-.39-1.94-.89-1.7-2.49.89.06,1.22.82,1.82,1.74Z"/>
        <path class="cls-24" d="m1730.7,862.81c-.66.21-1.15.21-1.88.2.27-.99.75-2.02,2.44-1.41.05.46-.17.73-.56,1.21Z"/>
        <path class="cls-21" d="m1652.46,1055c1.35.13,1.5,1.04,1.01,2.47-1.11-.28-1.01-1.26-1.01-2.47Z"/>
        <path class="cls-28" d="m1709.4,882.95c-.14.73-.66,1.08-1.57,1.16-.28-1.09.14-1.65,1.57-1.16Z"/>
        <path class="cls-28" d="m1699.83,889.72c.11.45-.09.88-.46,1.61-.46.22-.76.13-1.27-.04-.08-1.04.37-1.65,1.73-1.57Z"/>
        <path class="cls-14" d="m1694.21,894.7c-.4.15-.62.05-1.04-.07-.25-1.05.26-1.48,1.5-1.4.09.45-.1.83-.47,1.48Z"/>
        <path class="cls-30" d="m1682.49,905.51c.41.01.55.09.89.3-.21.76-.7,1.3-1.82,1.19-.2-.67.11-1.13.93-1.49Z"/>
        <path class="cls-30" d="m1673.74,915.4c1.58.18,1.08,2.19-.5,1.44-.06-.48.11-.85.5-1.44Z"/>
        <path class="cls-21" d="m1671.67,1084.81c-.07-.27.14-.63.24-.81.79.19,1.21.75,1.15,1.83-.63.12-1.06-.21-1.38-1.02Z"/>
        <path class="cls-23" d="m1690.37,1108.78c.93-.13,1.39.41,1.38,1.62-.84.03-1.32-.48-1.38-1.62Z"/>
        <path class="cls-21" d="m1654.4,1059.17c.89-.01,1.28.58,1.24,1.73-.89.01-1.27-.59-1.24-1.73Z"/>
        <path class="cls-28" d="m1645.84,1037.91c.75.35.91,1.03.55,2.06-.89-.27-1.19-.93-.55-2.06Z"/>
        <path class="cls-28" d="m1645.22,1034.7c.89.18,1.26.81.81,1.99-.79-.26-1.03-.92-.81-1.99Z"/>
        <path class="cls-23" d="m1715.58,1129.68c.53-.66,1.25-1.08,1.79.26-.59.45-1.12.34-1.79-.26Z"/>
        <path class="cls-20" d="m1819.52,1153.78c.31-.79.96-1.11,2.05-.62-.3.81-.96,1.1-2.05.62Z"/>
        <path class="cls-20" d="m1816.21,1154.02c.32-.79.96-1.14,2.07-.59-.33.77-.99,1.05-2.07.59Z"/>
        <path class="cls-21" d="m1762.56,1148.71c.42.95-1.51,1.45-1.77.21.48-.53.99-.54,1.77-.21Z"/>
        <path class="cls-28" d="m1672.17,917.22c.17.64-.08,1.14-.89,1.51-.95-1.06-.35-1.42.89-1.51Z"/>
        <path class="cls-12" d="m1799.43,1090.27c-1.25,5.34-3.4,8.17-9.11,5.5-3.08-2.42-4.53,3.98-7.28.42-2.53-3.67-5.73-.28-8.69-.31-6.1-3-8.42,1.12-13.95-4.62-2.26-4.67-7.02-6.57-8.91-11.26-.97-2.16-2.3-2.87-4.68-2.57-3.91.49-4.23-.03-4.28-4.05.32-8.64-9.05-9.93-13.76-15.15-5.72-7.48-7.33-16.49-9.36-25.44-.78-4.09-5.34-8.67-3.18-12.71,1.68-2.74,4.21-6.11.28-8.12-11.81-8.23-3.02-6.41-4.5-14.48-.21-6.48-12.84-12.93-5.25-17.84,10.43-4.93-4.63-9.43,4.65-15.55,9.29-2.91,5.46-11,10.6-14.61,4.18-1.19,6.02-4.84,8.67-7.65,7.44-8.7,6.58-1.43,9.29,4.69,4.1,2.75-1.39,5.86,1.9,7.87.53.3,1.09.87,1.6.84,3.58-.45,15.86,6.52,13.85,10.41-2.05,10.19,14.95,5.43,12.92-2.74-1.2-5.36,5.04-5.86,5.64-10.61,1.34-4.74-2.07-5.94-5.61-7.97-3.93-2.44-3.3-10.66,1.48-11.31,4.46-.02,5.43-6.83,9.95-5.06,2.25.69,4.01.05,5.36-1.53,4.44-2.59,9.59-13.2,14.75-10.45,11.1,2.56,1.89,17.65,9.02,23.05,4.49,1.54,1.28,5.87,4.46,7.97-1.34,2.49-2.85-.21-4.75.16-7.44,2.28-9.31-6.98-11.01-12.08-1.33-5.07-3.91-3.91-7.41-1.6-5.02,1.55-7.64,4.41-6.37,10.1,1.1,5.89-9.62,14.28-1.31,18.61,4.44,2.11,4.68,4.53,1.3,8.14-4.54,2.9-7.22,12.74-13.43,10.37-7.45-2.58-15.84-.68-21.17-7.92-5.41-9.25-22.77-10.28-24.03,2.09,1.61,7.51-11.18,5-7.29,12.56,9.66,14.56-2.32,13.74,7.05,25.95-2.95,5.76-1.17,12.04-3.06,17.68-.51,1.53-.26,3.74.67,4.87,6.21,9,4.21,22.56,17.93,24.62,9.66,9.63,17.82,20.25,29.6,27.16,7.27-1.09,13.58,3.56,20.72,3.46,2.29-.03,4.02-2.55,6.66-.87Z"/>
        <path class="cls-16" d="m1712.73,1046.37c-5.63-2.02-9.49-6.94-5.32-12.83,1.83.87,4.69,1.22,4.75,3.55.07,3.02,2.7,5.83.57,9.27Z"/>
        <path class="cls-26" d="m1867.65,880.97c.47-.06.82.13,1.44.49-.12,1.7-2.26,1.28-1.44-.49Z"/>
        <path class="cls-14" d="m1712.84,881.66c-.02-.63.3-1.16,1.27-1.44.58,1.1.02,1.49-1.27,1.44Z"/>
        <path class="cls-16" d="m1812.73,856.72c4.38.48,8.51,1.97,13.18,2.15-.53,2.57-3.84,7.51-6.18,4.11-1.1-4.51-7.25-3.28-7.01-6.26Z"/>
        <path class="cls-10" d="m1726.52,1013.7c-2.76-4.02-7.26-5.88-4-11.77.92-1.39,1.55-3.36,1.14-4.85-15.24-23.41,2.41-11.83,2.41-21.41-.58-6.27,2.52-7.69,7.54-10.01,1.76-3.2,4.35-1.98,6.85-1.42,10.5,1.63,13.72,15.78,25.62,13.71,3.69-1.63,7.85,4.62,10.58,1.4,1.17-5.61,16.91-12.55,7.08-16.39-10.83-3.24,4.29-15.49.75-22.69-2.31-6.78,6.87-6.17,10.09-9.94,8.21-5.4,5.31,17.48,15.36,16.76,1.2,4.72-1.32,8.69-1.66,13.14.01,1.39.22,2.83,1.06,3.93,1.21,1.58,2.51.07,3.71-.24,4.98-1.29,10.12-.78,15.15-1.47,9.86,5.74,9.36-3.23,18.29-2.73,4,.36,7.15,3.35,11.45,2.12,3.89-.65,5.12,4.45,6.65,7.12,2.93,7.68,10,11.11,15.99,15.62,3.52,1.74,3.5,6.83,7.71,7.21,3.68.73,6.09,4.2,10.22,2.81,3.63-.91,4.85.46,4.53,4.28.4,9.94-3.69,5.38-8.53,9.97-2.07,5.74,5.56,3.41,6.83-.18,5.69,4.34,10.93,17.9,17.17,6.38,1.05-1.41,1.36-3.93,3.6-3.68,2.06.23,2.37,2.5,2.98,4.21,1.05,4.08,6.1,4.38,7.09,8.51.99,2.14.52,3.23-1.32,4.53-2.77,2.04-10.99,12.27-12.1,4.13,1.99-5.58-4.79-4.9-6.17-.86-1.6,4.61-1.83,17.06-6.71,18.43-3,.78-14.58,5.47-9.81,8.94.83.95,1.23,1.67.42,3.09-6.91-3.2-7.25-4.33-3.34-10.88,6.01-5.91.25-9.21,2.58-14.83,3.15-5.58.06-9.19-3.87-12-3.86-2.76-6.88-6-9.1-10.09-5.99-6.3-20.96-1.99-14.45-20.44,1.06-2.29.63-3.89-1.25-5.13-7.69-4.34-7.15-14.19-13.46-19.74-8.82-9.15-10.95,8.72-20.02,5.67-17.67-2.49-16.04,8.97-26.34,6.35-15.03-4.05-8.3-2.35-17.49,5.64-9.35,10.18-17.74,10.29-28.34,1.71-.83-.7-1.92-1.27-2.95-1.09-5.83,1.01-9.38-2.66-13.08-6.13-5.23-5.57-3.94,3.62-7.58,5.3-7.5,1.93-8.33,11.31-6.92,17.74,4.21,17.44,14.92,29.09,9.86,48.31-.2,1.04-.56,2.51.51,2.96,4.56,1.93,6.1,7.26,10.65,9.19,2.18.93,3.79,2.53,4.23,5.06.94,6.56,8.92,2.22,11.52,7.7,3.64,7.93,9.08,4.94,16.87,6.55,3.56,5.12,10.38.72,15.62.42,2.8-.11,5.22-.08,7.77-1.38,5.81-.06,11.2,4.82,16.5-.26,2.84-2.04,5.83.81,6.58,3.57,3.59,5.04,8.43,8.56,12.01,13.57.68.29,1.05.51,1.7,1.3-3.96,3.61-5,3.5-7.69-.43-2.82-4.19-8.08-6.07-9.23-11.53-.56-2.64-2.02-2.82-3.7-.78-4.41,10.04-12.09-5.96-18.47.75-1.79,2.17-3.89.84-6.01,1.15-4.8-.83-2.72,4.03-10.53,1.06-6.52,2.11-7.56-4.5-12.48-2.63-9.53,3.04-27.37-21.09-34.19-27.22-.58-1.49-1.71-1.54-2.7-1.93-7.38-2.02-4.58-7.28-5.93-12.84-2.22-3.62-2.48-7.77-3.47-11.7-5.03-6.43-3.36-14.03-3.78-21.6Z"/>
        <path class="cls-27" d="m1684.68,1100.29c-.98-.3-1.5-1.1-1.64-2.43.96.24,2.17.59,1.64,2.43Z"/>
        <path class="cls-10" d="m1891.48,1099.88c-.16,1.96,1.12,3.48.35,5.41-10.46-4.04-20.74,13.11-30,4.49-1.97-2.91-6.68-.6-8.7-3.38-1.92-2.69-5.06-3.23-8.11-4.46,6.86-8.96,18.66,7.45,26.75,1.63,5.62-4.17,13.91-11.13,19.71-3.69Z"/>
        <path class="cls-12" d="m1799.92,1090.75c1.11-2.28,3.28-.09,5.2-1.08.46,1.81.77,4.13-.97,4.82-2.6.74-1.88-3.13-4.22-3.74Z"/>
        <path class="cls-28" d="m1881.37,1064.28c-1.09,1.75-.75,3.59-1.17,5.5-1.79,2.17-.95,3.47,1.16,4.69,5.55,6.53,2.2,17.41-7.08,18.66-22.35,9.64-16.18-.67-30.91-2.03-8.8,1.28-11.69-11.54-20.82-9.52-11.91,2-24.06-1.15-35.8,1.84-4.8,1.38-6.41-4.12-10.42-4.76-4.37-.69-6.62-3.5-5.83-8.23-3.11-7.85-28.18-8.91-12.41-24.03,9.45-6.87,6.43-16.04-2.56-21.35-4.63-6.33-10.11-12.48-14.62-19.11-3.49-6.62-1.56-10.53,5.75-10.7,6.12-1.39,12.48-2.97,17.96,1.42,8.97,6.81,19.03,6.58,29.35,4.39,5.66-3.76,9.89-9.58,17.75-6.54,9.11,4.29,6.84-9.17,16.02-12.19,4.86-2.89,9.08,2,13.82,2.77,3.26.4,3.58,4.77.66,6-6.82,1.67-10.52,6.85-14.95,11.53-3,2.28,1.92,7.38,4.78,5.74,3.96-2.02,7.2-2.06,10.05,1.77,2.13,1.89,6.08,0,8.19,2.36,8.68,7.74,23.48,6.73,28.07,18.76.73,4.42,6.82,1.54,7.04,6.48,2.85,12.57-12.75,12.29-4.02,26.55Z"/>
        <path class="cls-14" d="m1880.93,1064.05c-4.63-5.86-5.63-10.91.41-15.8,3.7-1.94,4.96-13.68.41-12.96-3.32.25-2.77-.09-4.36-3.17-2.35-7.58-7.97-8.73-14.44-11.97-7.65.24-11.41-8.93-18.76-7.8-1.65.53-2.82-.38-3.81-1.8-3.51-6.7-6.49.87-10.77-.38-1.95-1.77-7.43-4.32-4.61-7.39,9.06-4.92,3.49-9.12,8.31-9.51,3.54.32,5.74-2.68,8.88-3.3,1.98-.36,1.69-4.09-.53-3.78-5.38.24-9.81-6.98-14.78-2.08-8.56,4.16-4.47,15.13-12.01,12.55-6.41-2.33-12.8-3.01-17.04,3.4-10.21,6.55-25.47,4.21-35.23-3.29-4.93-4.35-10.94-.66-16.46-.23-1.66-.36-3.71-1.52-4.94.73-3.04,5.79,2.76,11.98,6.79,15.96,4.28,1.87,3.92,7.73,7.26,10.26,5.11,3.78,12.27,8.56,9.57,15.71-.97,3.73-2.92,6.19-6.1,8.1-11.94,8.93,3.05,16.58,11.47,19.58,5.46,1.72-3.07,9.63,6.22,10.68,4.86-.51,5.15,6.19,9.9,4.85,7.05-2.8,14.15-.67,21.36-1.88,2.43,1.87,4.9.75,7.44.25,3.87-.76,7.84-.05,11.76-.72,2.26-.38,4.14,1.27,5.17,3.16,1.29,2.33,10.8,9.57,12.53,6.42,2.82-4.4,8.56,7.62,15.54,6.25,7.88,1.28,12.39-5.44,19.6-5.87,1.82.03,3.26-.92,2.5-2.8-1.07-2.63.36-4.71,1.01-7.32,1.02-.82,1.61.53,2.36.95.61,4.52,4.26,11.96-2.53,12.74-8.3-.39-11.67,11.36-19.29,8.92-3.57-1.58-7.76-.99-11.12-3.75-2.08-1.62-5.19,2.01-7.41,3.05-.52.04-1.78-.75-2.21-.9-.94-9.23-11.23-9.24-14.04-16.57-.3-3.84-12,1.97-16.38.76-3.44-1.91-7.14-.93-10.73.18-5.56-1.44-11.1,1.07-16.86.05-5.82-3.58-13.52-.81-18.17-7.3-.49-1.16-.77-2.44-1.71-2.87-8.7-3.93-12.31-13.54-20.41-18.17-2.78-1.59-2.52-4.22-.41-6.17,2.49-4.34,16.23-13.82,6.23-16.31-7.36-1.64-2.02-9.78-7.28-13.63-5.31-6.77-19.13-24.1-5.34-28.62,2.78-.59,5.13-1.45,7.16-3.62,7.21-5.17,17.52,4.21,24.49,7.12,4.2,3.07,8.25.72,12.76.17,7.09.7,10.87-1.3,14.02-7.37,3.56-10.02,12.26,3.9,20.87-6.55,10.73-12.08,21.68,1.64,26.76-5.58,1.18-1.9,2.29-4.62,5.04-3.86,7.03,2.47,4.88,11.5,8.25,16.91,1.41,2.84-1.42,7.01-5.03,8.61-.93.41-2.31.33-2.11,1.88.15,1.22,1.12,1.81,2.19,2.07,8.89.37,8.43,12.72,16.62,12.44,6.18-.79,9.08,4.92,14.24,6.2,7.11.05,8.59,5.91,11.07,10.69.65,1.25.48,2.82-.34,3.97-3.1,3.93-2.91,9.49-5.67,13.78-8.61,3.25-1.85,10.65-7.32,14.95Z"/>
        <path class="cls-30" d="m1889.77,1047.04c-2.88-8.49,8.16-12.36.9-19.94-1.3-3.64-3.6-5.5-7.59-5.16-5.42.54-6.36-7.64-12.46-5.92-3.02-.47-8.66-.02-9.06-4.05-1.5-10.28-12.75-5.41-13.52-13.55.16-1.17,1.07-1.61,1.97-1.42,4.62,1.16,8.68-6.04,5.15-9.13-1.66-1.35-2.13-3.54-1.66-5.46,1.26-2.88-4.33-11.89-6.59-8.4-7.86,16.06-11.6-4.1-27.7,7.34-10.24,14.45-19.78-1.61-21.36,6.81-1.97,4.93-5.75,8.07-10.66,9.9-.87.32-1.89.53-2.66-.05-4.11-3.46-8.03,3.45-12.36.15-6.59-1.59-11.41-6.9-17.47-9.01-4.01.36-8.18-3.17-10.29,2.08-.79,1.65-2.81,1.67-4.46,1.9-16.02,1.45.62,23.55,6.63,28.95,3.29,2.69-2.21,10.55,4,11.44,1.74.86,3.76-1.55,4.94.66.78,1.76-.06,6.28-1.38,7.11-3.84,2.52-4.82,7.31-8.71,9.81-6.37,5.83,13.41,11.93,13.89,18.38.45,5.09,7.88,2.32,7.43,8.1-3.53-4.16-11.53.4-11.75-7.23-1.08-5.42-8.27-5.1-10.1-10.4-1.01-3.33-7.62-1.62-5.7-6.1,1.25-3.13.37-6.65,2.05-9.79.67-1.26.49-3.63-.29-4.88-3.46-5.11.29-12.59-4.65-16.63-4.99-4.69-3.62-12.27-6.91-18.02-1.61-3.81.72-8.51.61-12.57.23-6.57,10.63-4,9.26-11.09-.21-1.43,1.05-2.42,2.53-2.85,1.53-.44,2.76-.11,3.51,1.33,1.48,2.85,4.63,3.88,6.63,6.2,3.36,2.21,7.91-.73,11.4,2.77,9.46,6.82,10.19,7.08,20.71,3.05.56.05,1.21-.61,1.21-1.21.18-5.16,7.04-3.6,7.79-8.49.96-7.53,10.67-1.94,15.37-1.33,9.48,2.14,4.27-8.4,25.32-6.67,4.83,1.37,6.63-1.14,8.65-4.75,7.12-10.5,17.19,3.46,18.82,11.31.65,4.81,5.79,6.4,8.68,9.6,3.33,4.52-4.59,5.91-1.76,11.5.87,1.94-.38,4.5,1.93,5.83,2.54,1.34,4.77,3.75,7.88,3.28,7.76-.18,7.63,11.29,15.24,13.43,10,8.07,2.82,9.03,2.81,19.11-2.85.34-3.34,3.76-6.2,4.05Z"/>
        <path class="cls-30" d="m1847.05,1100.84c.28-2.35,4.22-5.27,6.07-3.44,2.36,2.92,5.89,1.93,8.55,3.23,9,4.65,11.73-8.94,21.02-8.06,7.3-.37.4-7.15,2.94-11.32,3.38,2.3,4.41,7.17,8.64,8.84,1.41.87,3.01,1.5,3.96,2.98.61.96,2.41,1.22,1.96,2.76-.48,1.61-2.02.87-3.13,1.06-2.01.34-3.37,1.87-5.25,3.05-6.85-3.03-5.17-4.04-11.7.14-4.91-.72-5.57,4.61-9.08,5.77-2.95-.25-6.07.81-8.8-1.35-1.7-2.11-4.68-1.07-6.73-2.05-2.18-3.44-5.18-2.34-8.45-1.62Z"/>
        <path class="cls-30" d="m1880.8,1064.3c3.27-5.64-1.77-12.39,6.95-15.01-6,3.39-.07,17.24-6.95,15.01Z"/>
        <path class="cls-30" d="m1885.14,1080.19c-2.66.03-2.8-3.47-4.12-5.12-2.03-1.75-2.57-4.32-.81-6.53,3.35,2.54,7.04,7.15,4.94,11.65Z"/>
        <path class="cls-31" d="m1726.28,1013.71c.64,4.87,3.25,9.82,1.93,15.25-.55,2.27.98,3.7,2.63,4.91.89.65,1.75,1.19,1.42,2.55-1,4.09,1.21,7.34,3.03,10.62,2.54,2.69-1.94,5.01-.49,7.54,1.45,1.89,3,3.87,5.42,4.73.91.32,2.34-.03,2.01,1.99-7.75-1.15-12.96-6.8-14.79-14.07,1.11-3.73-1.02-5.83-3.11-8.58-2.06-2.72-3.01-6.69-1.14-10.27,1.8-5.09-1.15-10,3.1-14.68Z"/>
        <path class="cls-31" d="m1723.53,998.27c.98,1.02,1.35,2.27-.58,3.31-.89-1.17-.09-2.06.58-3.31Z"/>
        <path class="cls-30" d="m1830.26,1087.42c4.59,1.7,9.14,3.36,12.02,7.42,1.79,1.71-.09,3.86.97,5.93-1.08.84-1.91.22-2.46-.79-2.17-5.48-8.26-7.61-10.53-12.55Z"/>
        <path class="cls-30" d="m1784.7,1085.47c5.23-.7,10.88-3.55,15.77-.76-2.52,3.18-8.42,1.63-12.14,3.19-1.94.4-3.32.13-3.64-2.43Z"/>
        <path class="cls-30" d="m1767.31,1078.68c4.64,3.58,9.98,1.54,14.69,4.92-5.63,3.15-11.43,1.32-14.69-4.92Z"/>
        <path class="cls-30" d="m1812.59,1085.34c2.54-2.9,8.3-1.4,12.28-2.41-.95,2.81-2.78,3.95-5.9,3.2-1.94-.46-4.18,1.07-6.38-.8Z"/>
        <path class="cls-30" d="m1801.87,1085.47c1.2-1.99,3.19-2.37,5.7-1.93-1.2,1.97-3.19,2.36-5.7,1.93Z"/>
        <path class="cls-30" d="m1826.72,1082.9c1.53-1.61,1.77-1.54,2.21.91-.71-.05-1.31-.39-2.21-.91Z"/>
        <path class="cls-14" d="m1879.13,1069.91c.77,1.43,1.23,2.91,1.67,4.68-3.11-.74-3.52-1.77-1.67-4.68Z"/>
      </g>
    </g>
  </g>
</svg>