<?xml version="1.0" encoding="UTF-8"?>
<svg xmlns="http://www.w3.org/2000/svg" viewBox="0 0 375 222.88">
  <defs>
    <style>
      .cls-1 {
        opacity: .8;
      }

      .cls-1, .cls-2, .cls-3 {
        fill: none;
      }

      .cls-2 {
        isolation: isolate;
      }

      .cls-4 {
        fill: #eef2d5;
      }

      .cls-5 {
        fill: #f0f0b1;
      }

      .cls-6 {
        fill: #e3edc0;
      }

      .cls-7 {
        fill: #edf4e5;
      }

      .cls-8 {
        fill: #f1f4cb;
      }

      .cls-9 {
        fill: #bae0df;
      }

      .cls-10 {
        fill: #b2dddf;
      }

      .cls-11 {
        fill: #bbdeca;
      }

      .cls-12 {
        fill: #d9e69c;
      }

      .cls-13 {
        fill: #d6e7b2;
      }

      .cls-14 {
        fill: #c4e2d2;
      }

      .cls-15 {
        fill: #c8e3c6;
      }

      .cls-16 {
        fill: #dee9a5;
      }

      .cls-17 {
        fill: #c3e3ef;
      }

      .cls-18 {
        fill: #c3dfac;
      }

      .cls-19 {
        fill: #c4e0ba;
      }

      .cls-20 {
        fill: #d9e7ab;
      }

      .cls-21 {
        fill: #d8ebf3;
      }

      .cls-22 {
        fill: #cae2b5;
      }

      .cls-23 {
        fill: #c7e5e2;
      }

      .cls-24 {
        fill: #d5ebe9;
      }

      .cls-3 {
        mix-blend-mode: multiply;
        opacity: .85;
      }

      .cls-25 {
        fill: #f8ca99;
      }

      .cls-25, .cls-26, .cls-27, .cls-28, .cls-29, .cls-30, .cls-31, .cls-32, .cls-33, .cls-34 {
        fill-rule: evenodd;
      }

      .cls-26 {
        fill: #f8ca8f;
      }

      .cls-27 {
        fill: #f8d994;
      }

      .cls-28 {
        fill: #f7d184;
      }

      .cls-29 {
        fill: #f9da99;
      }

      .cls-30 {
        fill: #f8dd9d;
      }

      .cls-31 {
        fill: #f8d08a;
      }

      .cls-32 {
        fill: #f8d192;
      }

      .cls-33 {
        fill: #f9d68c;
      }

      .cls-34 {
        fill: #f9d690;
      }
    </style>
  </defs>
  <g class="cls-2">
    <g id="_背景" data-name="背景">
      <g class="cls-3">
        <path class="cls-19" d="m341.35,187.37c.29-.15.51-.45.84-.51.57.28,1.04,1.48,1.73.87,1.08-.73,2.39-1.93,3.75-1.71,1.07.32-.28.9,1.5,1.88.82.41,1.05,1.28,1.59,1.9.2.33-.1.75-.11,1.1-.49,1.15,1.05,1.07.84,2.1-.1.46-.11.9,0,1.36.36,1.09-1.28,1.13-1.18,2.15,0,.98,1.24-.31,1.63.82.35.68,1.27.33,1.69.98.4.4.76.87,1.35,1.06.31.1.39.39.41.68.05.76.69,1.24.88,1.93.48.63,1.49-.4,2.04.92.14.28.38.55.62.72.84.62.86,1.73,1.55,2.44.51.41.01,1.32.42,1.75.21.12.33-.08.45-.2.34-.32.72-.56,1.18-.68.33-.08.53-.32.7-.62.48-1.33,1.48,1.84,2.1.2.47-.89-.3-2.4.57-3,.53-.18,1.17-.32,1.68.21.37.39.74.17.96-.15.92-1.37,2.29-.89,3.52-.86.86.07.82,1.3,1.6,1.58,1.5,1.2-.71,2-.31,2.56.97,2.09,2.25,1.05,2.24,1.97-.26,1.12-.81,2.01-1.59,2.77-.72.16-.96.06-1.1-.56-.14-.63-.65-1-.95-1.5-.06-.1-.2-.15-.32-.14-.6.08-1.05-.34-1.6-.44-.55-.19-.53-1.31-.65-1.9-.7.64-1.51.42-2.14,1-.31.31-.65.51-1.11.47-.59-.2-.39,2.18-1.94,3.51-.25.29-.6.46-.97.38-2.35-.58-2.21,2.94-4.1,3.02-.39-.13-.36-.47-.4-.79-.18-.66.28-1.12.48-1.68-.01-.64.29-1.06.9-1.26-.68.14-.87,0-.82-.66-.13-.67-.82-.93-.44-1.78.66-.99.48-1.95.09-2.93-.18-.46-.44-1.96-1.09-1.04-.11.72-.94.59-1.04-.08-.04-.15-.04-.34-.26-.34-.17,0-.22.15-.28.28-.22.74-.91.67-1.48.95-.28.2-.53.14-.76-.08-2.64-2.31-2.39,1.61-4.72,2.38-1.05.69-1.31.87-2.15-.11-.28-.29-.42-.59-.19-.97.22-.36.1-.6-.22-.8-.67-.46.07-1.25-.57-1.96-.3-.59-.9-1.04-.81-1.81.02-.21-.24-.35-.42-.47-1.19-1.03.87-1.08,1.54-1.2-.32-.45-.88-.23-1.25-.58-1.22-.98,1.33-.66.36-1.7-.3-.57-.48-1.36-.31-1.94,1.55-1.46,2.66,1.57,3.7.07.36-.62.51-1.37,1.18-1.77.46-.3.66-1.03.46-1.55-.01-.04-.02-.1-.05-.1-.59-.12-.96-.82-1.67-.65-.4.09-.75.03-1.02-.33-.81-1.02.49-.99.56-1.68-.06-.24-.73-.56-.89-.32-.47.62-1.17,1.02-1.58,1.7-.22.56-2.56,1.55-2.47.54-.12-.69.28-1.79-.47-2.13-1.21-.6-2.81-1.85-1.68-3.29Z"/>
        <path class="cls-10" d="m368.42,184.26c.44.41.42,1.06.79,1.53.21.3.54.49.74.78.74,1.14,2.14,1.92,1.26,3.51.11,1.08-.78,1.6-1.3,2.33-1.17,1.37-1.85-2.53-2.89-1.35-.46,1.42-1.79,1.7-3.15,1.73-1.87-.14-2.4-2.51-4.04-3.25-.92-.59-1.95.39-3.27-.17-.89-.4-.58-1.82-1.52-2.25-1.05-.38-.76-1.85-1.82-2.15-1.19-.31-.5-2.05-1.85-2.13-.16-.04-.48-.14-.42-.39.43-.41.98-.4,1.44-.32,1.3.21,2.59.06,3.88.05.67,0,1.35.04,2.01-.19,1.63.15,3.32.72,5,.87.72.37,1.59-.83,2.16-.14.64,1.24,1.98.82,2.99,1.56Z"/>
        <path class="cls-16" d="m351.22,222c-.27-.05-.48-.13-.68-.33-.54-.18-1.11-.23-1.57-.61-.28-.42-.61-.72-1.08-.75-2.12-.26-4.14-2.06-4.74-4.04.09-.49-.15-.82-.53-1.06-1.43-.99-4.78-4.34-3.68-6.14.27-.38.19-.74-.31-.95-3.41-1.06.1-4.18-2.85-4.28-.68.02-.51-.77-.8-1.13-.16-.21-.29-.41-.3-.68.13-1.74-.27-3.41.48-5.07.29-.91.29-2.1,1.27-2.62,1.67.75-.24,2.05.83,3.08.82.88-.54,1.57-.21,2.88.13.39,1.4.61,1.84.6.69-.22,1.14.81.64,1.22-1.03.82-.46,1.68-.19,2.59.34,1.63,1.86,1.47,2.56,2.46-.03.53,1.01.61.58,1.12-.3.64-1.48,1.48-.67,2.11.76.73,1.7.45,2.6.6.27.13.53.15.81.02.89-.2,1.79.82,2.09,1.63.19.7.39.8,1.08.54.65-.17,2.44.22,2.21,1.19-.81.51-.95-.9-2.22-.35-1.01.23-1.36,1.12-2.05,1.65-.4.31-.44.92-.26,1.4.4,1.26,2.08.83,2.97,1.57.47.2.55.89.83,1.34.32.71,1.7,1.19,1.98.29.14-1.36,1.57-1.49,2.19-2.37.08-.46.41-.66.85-.8.93.43.42,1.64,1.32,2.01.44.2.8.51,1.16.9,1.11,2.28-3.54,2.75-4.98,2.53-.39-.16-.73-.41-1.17-.55Z"/>
        <path class="cls-22" d="m341.21,187.5c.18.83-.43,1.55.57,2.14.5.66,2.13.85,1.85,1.73-.05.22-.11.42.05.62.15.26-.11.58-.06.87-.18.65,2.16-.3,2.19-.63.31-.39.57-.91.98-1.19.31-.1.49-.3.62-.6.16-.34.23-.35.57-.09.32.21.96.12.68.69-.09.23-.27.32-.47.42-.89.31-.17,1.25.36,1.28.5-.02,1.03-.32,1.35.26.33.41,1.18,0,.9.81-.11.4.31.99-.21,1.2-1.52.7-.9,2.45-2.58,2.63-.26-.43-.81-.48-1.1-.88-.27-.35-.33-.35-.64-.05-.43.21-1.13-.23-.92.66.09.28.23.51.13.85-.08.27.24.43.39.64.55.96-.4.78-.87,1.12.24.69,1.05.55,1.59.83.35.08.22.59-.12.52-.48-.12-2.56.08-1.49.77.28.15.82.54.62.88-.31.3.9,1.61,1.07,2.07.27.53-.51,1.08.26,1.39,1.08.5-.61,1.18.39,1.77.85.88.64.82,1.67.24.53.14.19.96.62,1.39-.45.48-1.38.84-1.76.13-.26-.9-1.68-1.49-1.29-2.47.47-.81-1.29-.63-.84-1.49.97-2.14-1.77-1.92-1.37-2.9.34-1.3-.67-2.7.11-4.04.45-1.16-1.21-1.46-2.07-1.6-.23-.08-.36.06-.5.22-.49.79-2.51.45-2-.59,1.04-1.19-.14-2.66-1.24-3.33-2.12-1.89,2.26-3.57,1.74-5.7.25-.15.55-.65.84-.59Z"/>
        <path class="cls-22" d="m358.89,209.22c.09.07.15.15.11.22-.38.67.21,1.08.66,1.43-.13.18-.51.28-.24.6.13.15.25.27.45.11.16-.11.31-.31.52-.17.17.77-1.29.45-.94,1.4,0,.53-.72.9-.61,1.42.27,3.66,2.39-2.46,3.69-2.01,1.78.45,2.49-1.36,2.98-2.73.14-.42-.19-1.16.49-1.14.83.27,1.1-.62,1.8-.79.47-.18,1.03-.12,1.38-.6.16-.17.57-.01.42.27-.17.43.32.76.21,1.2-.1.64.53.25.8.5.41.66,1.38-.1,1.63.68.07.17.14.34.3.44.77.45.21,1.67,1.36,1.51-.37,1.5-1.94,2.66-2.9,3.83-.51.44-.79.49-1.26,0-.55-.59-1.08-1.17-1.89-1.41-.33-.1-.58-.36-.69-.71-.12-.85-1.75.91-2.11,1.14-.76.99-1.66-.46-2.58-.1-.37.07-.65.31-.64.75,0,2.18-3.09,3.14-4.16,1.17-.93-.72-2.22-.36-2.44-2.01.09-.21.25-.24.41-.26,1.82-.14,1.51-1.84,1.64-3.17.11-.8,1.21-.85,1.64-1.56Z"/>
        <path class="cls-14" d="m377.06,206.66c-.08.11-.19.17-.21.26-.1.58-.66.69-.9,1.19-.56-.23.09-1.32.06-1.82.18-.68-.54-1.21.01-1.86.19-.27.05-.6-.38-.6-.79-.16-1.15-1.25-2.04-1.33-1.13-.47-2.29,0-3.43-.08-.54-.19-1.07.07-1.6.04-.7-.17-1.32-.16-1.99.24-.39.23-1,.19-1.51.25-2.95-.1-3.95,3.44-5.08,1.55-.35-.55-.86-.96-1.12-1.61-.41-.82-1.93-.52-2.2-1.56-.6-.76-.3-2.29-1.35-2.57-.96-.05-.88-1.12-1.43-1.68-1.65-1.73,1.84-4.12-1.18-5.29.08-.86,1.31.12,1.28-1.11.02-.25.08-.51.32-.74.44-.08.83-.08,1.22.15.87,3.56-.66,1.62-.3,4.36-.4.38-.23.7,0,1.08.37,1.01-.84,2.25.86,2.5,2.62.39.39,2.85,2.79,2.87,1.07.13,1.23.29,1.38,1.36.01.98.93,1.65,1.51.62.77-1.03,2.41-.47,2.93-1.82.37-.7,1.15.39,1.92-.52,1.75-.14,1.76-3.3,3.39-3.38.8.2,1.64-.57,2.09.49.12.24.42.19.66.13.7-.2,1.38.2,2.08.09.14-.02.25.12.32.24.4.56,1.3.46,1.3,1.33.61,3.08,1.92,3.69.59,7.2Z"/>
        <path class="cls-15" d="m352.66,191.69c1.03.35,1.81.96,1.41,2.13-.17.46,0,.96-.41,1.34-.32.31-.18.71-.07,1.08.23.71.91,1.15,1.03,1.93.06.28.4.44.72.45,1.48.09.73,3.32,2.43,3.44.47.02.7.52,1.18.52.13,0,.19.29.22.46.03.18.03.38.19.49.64.37,1.15,2.14,1.99,1.13.35-.53.98-.77,1.29-1.32.08-.14.24-.14.38-.11.69.13,1.2-.52,1.9-.43.28,0,.56.07.79-.17.1-.1.23-.04.34,0,.73.29.99-.75,1.73-.46.81.39,1.65-.17,2.47.11.93.07,1.86-.3,2.83-.06.66-.05,1.09.42,1.62.7.27.07.45.16.48.5.04.62.87-.06,1.02.4.47.83-.57.88-.13,1.54.49.87-.27,1.82-.14,2.77-.06.27-.08.52-.27.74-.4-.71-1.38,0-1.91-1.13-.14-.46-1.02-.96-.48-1.41.67-.34,1.2-1.6.29-1.93-1.25-.56-.42-2.06-2.93-1.55-.58.21-1.43-.27-1.69.53-.32.62-1.14,1.19-1.55.38-.06-.1-.15-.23-.28-.2-.39.18-1.06-.17-1.3.18-.29.94.04,1.94-.3,2.89-.25,1.26-1.6.09-1.87-.57-.14.02-.17.09-.19.17-.13.51-.43.82-.98.91-.74,0-1.79,1.96-1.9.29.37-1.2-.9-1.59-.93-2.62-.03-.62-.82-.67-.94-1.25-.03-.1-.11-.16-.2-.21-.21-.11-.31-.29-.41-.49-.4-1.21-2,.26-2.16-1.21-.07-.25-.1-.49-.37-.64-.53-.28-.05-1.23-.58-1.48-1.1-.08-1.3-1.56-2.39-1.55-.9.11-.78-1.56-1.76-.89-.99.55-.79-1.39-.06-1.63.68-.36.78-.57.53-1.29-.28-.63.36-1.18-.05-1.77.41-.32.94-.41,1.43-.67Z"/>
        <path class="cls-13" d="m360.3,217.06c.68-.38,1.43-1.13,1.37-1.9-.05-.19-.18-.39.02-.55.46-.64,1.65-.76,2.2-.09.16.23.81.1,1.01-.17.3-.51.85-.7,1.28-1.04.19-.37.57-.46.87-.66.61,1.89,1.41.77,2.69,2.53.52.61.61.59,1.18,0,.49-.32.73-1.01,1.2-1.23.16.64-.57,1.08-.98,1.49-.2.24-.12.55-.35.75-.7,1.42-1.81,2.6-3.4,2.89-1,.56-1.95,1.13-3.13,1.21-.63.1-1.31.4-1.75-.38-1.28-.52-1.74-1.67-2.23-2.85Z"/>
        <path class="cls-11" d="m352.74,191.67c-1.5,1.39-2.94.37-2.09-1.51.18-.47-.6-.53-.56-1.06-.22-1.1-2.49-1.34-2.09-2.5.15-.64-1.11-.57-1.51-.29-.88.56-1.88.95-2.66,1.69-.31.29-.43.28-.7-.03-.29-.34-.79-.5-.92-1.05.06-.1.13-.16.24-.23,1.91.24,3.09-1.44,4.85-1.54.75-.18,1.97-1.44,2.34-.03.19.86.43.96,1.19.44,1.02-.64,2.11.01,1.82,1.2.42.71.53,1.59,1.15,2.19.28.27.52.55.59.99-.5.57.05,1.79-1,1.63-.21-.01-.44-.08-.66.13Z"/>
        <path class="cls-17" d="m368.25,184.18c-.11.04-.2.11-.26.05-1.17-.78-1.78.09-2.73-1.5-.16-.2-.33-.22-.5-.04-.21.22-.51.17-.76.26-1.2.22-2.32-.31-3.51-.38-.9-.13-1.83-.8-2.71-.3-1.77.09-3.61.27-5.39,0-.95-.11-1.78.47-2.56-.59.92-1.28,3.9-.48,5.37-1.04.74-.18,1.55,0,2.24-.35,1.16-.66,2.33-.25,3.58-.29.85.6,1.91,0,2.74.49,1.46,1.21,3.61,1.98,4.48,3.72Z"/>
        <path class="cls-6" d="m360.26,217.02c.38.7.82,1.33,1.31,1.92.1.51.4.73.92.7.45-.08.17.59.5.61.78.1,1.46-.26,2.23-.31.38,0,.74-.11,1.04-.4.37-.35.81-.57,1.31-.68.64-.29,1.44-.3,1.85-.95.2-.26.31-.61.71-.73.04.77-.66,1.34-1.11,1.9-.37.07-.31.46-.57.65-.55.45-1.19.77-1.71,1.3-1.39.09-2.53.89-3.96.63-1.66-.25-3.17.4-4.8.71-.36-.26-.73-.44-.87-.91.26-.41.54-.77.22-1.28-.09-.97,1.22-1.41,1.98-1.76.53-.14.18-.63.19-1.02.22-.22.41-.43.77-.39Z"/>
        <path class="cls-5" d="m335.51,203.8c.9-.38,2.15.31,1.79,1.28-.47.78-.02,1.51.15,2.25.18.45.87.12,1.11.58.48.33.97.25.65.95-.03.45-.58.76-.4,1.2.79,2.19,2.44,3.94,4.26,5.31.22.25.4.5.24.86.2,1.33,1.53,2.44,2.61,3.22.9.92,2.53.23,3.12,1.49-.07.26-.34.17-.49.04-.67-.07-1.24-.47-1.9-.63-.48-.53-1.22-.81-1.86-1.1-.53-.43-1.04-.88-1.52-1.37-2.08-2.01-4.49-3.97-5.27-6.88-1.18-2.28-2.42-4.49-2.49-7.19Z"/>
        <path class="cls-24" d="m377.54,203.37c-.1-1.38-.77-2.58-.74-3.99.11-1.07-.67-1.97-.64-3.02.06-1-1.07-.53-1.65-.91-.02-.78,1.19-.36.97-1.21-.31-1.37-.77-3.03-2.01-3.81-1.82-.78-1.8-3.08-3.57-3.86-.09-.18-.3-.16-.34-.37,3.77.99,5.55,4.79,7.16,7.92.41.44.16,1.15.56,1.6.76,1.9.46,4.03.79,6.03.07.36.11,3.27-.5,2.17.02-.18.04-.35-.03-.56Z"/>
        <path class="cls-14" d="m350.93,185.61c-.34.61-1.46.59-1.41-.25.18-.83-.75-.95-1.35-.5-.31.46-.75.47-1.24.44-1.45.3-2.81,2.05-4.39,1.38,1.31-1.24,2.74-2.34,4.15-3.56,1.22-.13,2.25-.77,3.49-.17.21.45.25.94.73,1.2.14.08.12.3.04.44-.19.33-.12.65,0,1.01Z"/>
        <path class="cls-6" d="m340.34,188.05c1.02,1.4-3.72,3.98-1.66,5.63.07.56-.11.99-.61,1.29-.6-.18-.83-.82-1.59-.59-1.01.76-.93,1.9-1.29,2.98-.75,1.53-.08,3.12-.43,4.69-1.22-.37-1.06-3.06-.52-3.97.01-1.09.66-1.81,1.22-2.66,1.32-2.63,2.41-5.62,4.88-7.36Z"/>
        <path class="cls-8" d="m357.99,222.36c1.88-.91,3.97-.91,6.02-.81.91.03,1.77-.94,2.65-.51.09.33-.33.29-.5.46-.29.23-.57.4-.83.68-.18.03-.31.09-.45.23-1.89.06-3.69.53-5.52.79-1.25.24-2.85,1.68-4.01.44.23-.41.64-.31.96-.44.56-.24,1.08-.55,1.67-.84Z"/>
        <path class="cls-7" d="m356.55,224.14c2.52-1.12,5.47-1.86,8.27-1.73-2.31,1.54-5.52,2.57-8.27,1.73Z"/>
        <path class="cls-21" d="m361.04,179.94c-.91.55-2.29-.33-3.28.34-2.56.83-5.56.61-8.07,1.13,1.41-1.15,9.86-2.44,11.35-1.47Z"/>
        <path class="cls-5" d="m358.01,222.32c-.7.82-1.66.98-2.6,1.32-.04.09-.07.14-.17.16-.37-.1-.72-.21-1.07-.35-.16-.34-1.52-.42-.94-.86.13-.08.3-.07.5-.09.14-.07.24-.19.35-.16,1.17.17,2-.45,3-.9.27.34.69.49.95.88Z"/>
        <path class="cls-4" d="m335.5,203.72c.38,1.52.64,2.98,1.19,4.46.41,1.12,1.34,1.91,1.54,3.12.76,2.46,2.88,4.12,4.48,6-1.97-1.18-3.32-3.23-4.52-5.14-.33-.92-.44-1.84-1.08-2.61-1.45-1.98-1.48-4.55-2.16-6.84.4.19.3.66.55,1.01Z"/>
        <path class="cls-24" d="m349.65,181.38c.36.38,1.19.68,1.33,1.1-.47,1.16-2.47-.14-3.52.68-.2.09-.45.22-.7-.04.81-.8,1.81-1.35,2.89-1.74Z"/>
        <path class="cls-4" d="m371.87,214.83c-.18-.35.19-.51.31-.83.49-.4.61-.9,1.1-1.28-.18.67-.84,1.5-1.41,2.11Z"/>
        <path class="cls-17" d="m369.26,185.78c-.49.2-.52-.83-.59-1.19.3.32.71.61.59,1.19Z"/>
        <path class="cls-6" d="m353.73,222.47c-.13.24-.69.07-.54.45-.32.11-.49-.17-.76-.34.4-.08.83-.22,1.3-.1Z"/>
        <path class="cls-6" d="m351.21,222.02c.44-.08.8.15,1.15.48-.45.1-.74-.3-1.15-.48Z"/>
        <path class="cls-8" d="m348.72,221.12c.07-.07.15-.1.28-.13.23.1.43.22.65.37-.31.07-.64.08-.93-.23Z"/>
        <path class="cls-4" d="m373.5,212.5c-.08-.37.35-.79.59-1.08,0,.43-.33.71-.59,1.08Z"/>
        <path class="cls-4" d="m344.78,219.27c.4-.19.61.17.92.39-.37.11-.58-.24-.92-.39Z"/>
        <path class="cls-6" d="m370.38,217c-.13-.32.11-.51.36-.74.26.26-.26.46-.36.74Z"/>
        <path class="cls-8" d="m349.79,221.49c.24-.2.45-.06.7.11-.23.16-.47.15-.7-.11Z"/>
        <path class="cls-4" d="m343.24,217.88c.29-.05.35.21.54.4-.33.16-.41-.14-.54-.4Z"/>
        <path class="cls-4" d="m367.83,220.18c.13-.17.27-.35.54-.42-.03.29-.19.47-.54.42Z"/>
        <path class="cls-4" d="m347.31,220.59c.28-.16.44.08.68.25-.25.12-.46-.03-.68-.25Z"/>
        <path class="cls-7" d="m337.65,191.01c.15.29-.1.45-.28.68-.06-.25.05-.47.28-.68Z"/>
        <path class="cls-4" d="m368.62,219.58c-.07-.31.01-.44.33-.49-.09.16-.12.36-.33.49Z"/>
        <path class="cls-6" d="m370.98,216.03c-.17-.18-.12-.35.11-.52.05.16.06.35-.11.52Z"/>
        <path class="cls-4" d="m334.48,202.01c.18-.14.4.18.3.35-.15-.05-.26-.15-.3-.35Z"/>
        <path class="cls-4" d="m348.05,220.9c.13-.13.28-.14.45.02-.13.12-.28.15-.45-.02Z"/>
        <path class="cls-7" d="m366.17,221.54c-.03-.2.05-.29.28-.19-.04.1-.12.19-.28.19Z"/>
        <path class="cls-4" d="m369.27,218.87c-.12-.15-.08-.26.14-.3.07.14,0,.21-.14.3Z"/>
        <path class="cls-4" d="m346.65,220.36c.12-.01.29-.2.39.06-.14.07-.26.06-.39-.06Z"/>
        <path class="cls-7" d="m341.93,186.92c.03.16-.04.24-.22.23-.04-.16.04-.24.22-.23Z"/>
        <path class="cls-4" d="m344.19,218.8c.14-.05.21.03.3.15-.15.13-.27.1-.3-.15Z"/>
        <path class="cls-7" d="m341.25,187.51s-.06,0-.09-.05c-.02-.19.05-.21.21-.13-.01.06-.05.1-.12.17Z"/>
        <path class="cls-24" d="m368.24,184.21c0-.15.27-.13.23.05-.08.05-.15.03-.23-.05Z"/>
        <path class="cls-4" d="m367.27,220.62c-.05-.11-.02-.18.13-.17.04.11,0,.17-.13.17Z"/>
        <path class="cls-7" d="m365.6,221.97c-.11-.13-.14-.25.13-.16-.01.06-.06.1-.13.16Z"/>
        <path class="cls-7" d="m338.26,190.04c.08.07.11.17-.01.28-.08-.07-.11-.17.01-.28Z"/>
        <path class="cls-7" d="m365.07,222.3c-.03-.17.04-.2.2-.11-.03.08-.08.12-.2.11Z"/>
        <path class="cls-18" d="m358.96,209.18c-.46,1.24-1.58.73-1.58,1.78-.14,1.63.39,1.83-1,3.07-.12.13-.29.1-.45.09-.61-.09-1.23.27-1.82.44-.81-.24-1.18-1.1-1.32-1.86-.12-.53.88-1.3.18-1.59-1.06-.32-1.98-1.1-3.21-1.03-.09-.04-.13-.09-.16-.18-.6-.32-.33-.87-.54-1.42.26-.51.98-.3,1.15-.85.28-.64,1.14-.75,1.22-1.54.13-.32.21-.83.65-.83.26.04.42-.32.65-.22.45.37,1.1.4,1.46.93.15.21.38.26.53,0,.46-.42,1.18.03,1.39-.84.03-.45.68-.76.81-.22.05.23.01.48.22.66.75.56.31-.98,1.06-.73,1,.12.61,1.53,1.11,2.2.4.81.14,1.45-.34,2.14Z"/>
        <path class="cls-9" d="m350.15,183.06c.21-.24.53-.26.76-.53,2.77.48.68,1.75,2.57,2.35,1.02.35.59,1.79,1.75,2.15.9.38.59,1.87,1.41,2.21.28-.06.5.06.75.14.52.2,1.04-.18,1.57-.19.79-.21,1.17.46,1.76.8,1.34.73,1.72,3.06,3.59,2.63.71-.19,1.76-.06,2.13-.83.3-.41.41-1.29,1.03-1.24.23.02.39.08.38.35,0,.05.05.14.08.14.58.08.59.65.82,1.01.16.41.92.74,1.09.19.22-.51.76-.79,1.07-1.26.08-.53.11-1.08.38-1.59.43-1.42-1.58-2.12-1.44-2.82,1.87.24,1.76,2.65,3.29,3.47,1.64.81,2.37,2.85,2.55,4.58.02.28-.19.38-.43.4-1.32.05-.43,2.44-2.41,1.24-.26-.17-.51-.32-.83-.3-1.81.24-2.08-2.93-3.62-2.52-.64.24-1.11-.06-1.53-.6-.13.33-.01.62-.1.88-.11.9-1.28.82-1.25-.08.03-.55-.23-.58-.66-.52-2.05.22-3.98-1.27-5.33-2.66-.96-1.57-2.18,1.15-3.4-.12-.47-.32-1.16-.27-1.7-.39-.3-.75-1.25-1.03-1.29-1.82-.02-.45-.46-.78-.63-1.19-.13-.15-.13-.35-.03-.51.5-.9-.88-1.24-1.51-.83-.93-.54.44-1.29-.38-1.56-.55-.13-.29-.59-.44-1.01Z"/>
        <path class="cls-20" d="m352.79,212.6c.15.31.26.6.37.94-.07.31-.29.29-.48.24-.96-.29-1.06,1.85-2.14.64.01-.75-.67-.7-1.12-1.04-.6-.61-1.09.3-1.72.09-1.01-.26.18-.84-1.79-2.24-.49-.46-.9.35-1.37,0-.36-.31-.67-.15-1.05-.02-.52-.28-1.26,0-1.65-.64-.48-.16-.8-.61-.39-1.09.42-.43.57-1.03,1.02-1.42-.17-.34-.76-.15-.69-.7-.08-.74-1.19-.74-1.69-1.15-.66-.26-.52-1.05-.95-1.52-.29-.4-.27-.92-.36-1.37-.46-.95,1.05-1.03.76-1.93-.12-.39-.25-.47-.65-.31-.14.05-.27.11-.4.03-.43-.29-.94-.3-1.42-.41-.6-.3-.11-1.85.21-2.36.51-.75-.83-1.03-.6-1.75.17-.99.74-1.36-.24-2.19.67-.57,1.07-.05,1.5.48.75.93-.95,2.17.48,2.81,1.41,1.44-.25,2.55,3.09,2,.43-.04.68.13.7.6.02.57.38,1.13.15,1.7-.19.47-.2.92-.13,1.4.02.93,1.16,1.19,1.16,2.15.12,2.19,1.74,1.99,2.48,3.43.19.52.58.91.98,1.27.35.32.65.64.75,1.12.35.75,1.96,1.01,2.72,1.46.13.04.27.19.39.08.61-.54,1.34-.24,2.06-.32Z"/>
        <path class="cls-12" d="m350.51,214.39c.39.51,1.22.17,1.31-.43.19-.8.8-.13,1.32-.37.32.27.51.66.94.88.44.12.49.45.54.82-.21.69.92,1.27.33,1.83-1.25.58-.35,1.05-1.21,1.34-2.57.99-1,2.69-2.76,2.39-.92.26-1.57-1.2-1.81-1.9-.02-.24-.29-.36-.56-.36-.31,0-.6-.05-.78-.34-.11-.17-.28-.11-.44-.09-1.45.2-2.13-2.05-1.03-2.78.69-.28.66-1.31,1.51-1.29,1.94-.99.8-.34,2.63.3Z"/>
        <path class="cls-13" d="m354.95,217.18c.15-.21.15-.39-.04-.61.05-.44-.26-.73-.35-1.13-.16-.3-.08-.66-.4-.9.26-.33.6-.51,1.07-.38.23,1.04,1.31,1.72,2.28,1.5.43,1.35,2.13,1.26,2.26,2.35.1.96-1.27.47-1.61,1.23-.3.33-.8.31-.83.88-.48-.79-1.99-.77-1.87-1.85.05-.43-.35-.68-.51-1.1Z"/>
        <path class="cls-13" d="m352.86,212.57c-.53.57-1.51-.28-1.96.46-.09.18-.28.26-.38.12-.5-.5-1.25-.45-1.79-.9-.38-.37-1.2-.04-1.23-.74-.24-1.15-1.58-1.52-1.85-2.71-.13-.79-1.27-.58-1.51-1.21-1.09-1.02-.51-2.32-1.46-3.08-.7-.45-.61-1.42-.67-2.11.63-.67.1-1.32.07-2.04.14-1.44-2.7.65-3.13-1.17-.38-2.56-.59-.23-1.36-2.43-.08-.65.78-.79.4-1.81.41-.31.48-.79.69-1.22,1.67.34.85,1.59,1.87,1.39-.44.65.36,1.32-.28,1.81-1.15.65.51,1.21,1.13,1,.45-.11.35-.91.9-.67.91.32,2.24.21,2.45,1.49-.82,1.47-.29,1.19-.37,2.72-.24.64.69,1.09.19,1.58-.76.57.91.64,1.35,1.53.72,1.37-1.08,1.61.57,2.21,1.09.32-.66,1.06.51,1.71,1.13,1.02.63,2.32,2.53,1.36.07.02.11.06.17.13,1.04.07,1.02.64.94,1.51.24,1.18,1.62-1.39,2.51.31-.09.27-.19.49-.3.75Z"/>
        <path class="cls-13" d="m338.37,192.11c-.27-.45.09-.78.36-1.04.58-.42.62-1.16,1.14-1.62.29-.2.41-.53.63-.84.23.99-1.67,2.57-2.12,3.49Z"/>
        <path class="cls-23" d="m355.49,190.19c.59-.7,1.25,1.23,2.4-.02.44-.48,1.51-.6,1.74.17,1.06,1.29,2.78,2.28,4.43,2.7.45.19,1.85-.58,1.63.32-.16,1.3,1.16,1.1.98-.12-.15-.3.03-.89.39-.51.2.45.72.82,1.23.63,1.77-.74,1.85,2.59,3.63,2.45.58-.13.93.32,1.38.57,1.45.39.4-1.38,2.39-.84,1.08.08.39,1.61.99,2.29.47,1.21.14,2.58.65,3.79.14.45.32.9.17,1.42-.4-1.17-1.16-2.28-1.19-3.57-.03-.45-.2-.71-.65-.79-.64.05-.52-.9-1.05-.66-.63.19-1.23-.36-1.91-.06-.54.14-.65.08-.91-.4-.25-.45-.25-.46-.76-.25-.71.26-1.57-.35-1.89.6-.35.81-1.18,1.4-1.36,2.28-.02.24-.15.38-.4.33-.38-.07-.66.06-.91.33-.64.88-1.42-.52-1.71.45-.4,1.01-1.81.91-2.59,1.31-.11.59-.81.61-1.05,1.09-.09.17-.29.13-.37-.06-1.07-1-.12-2.48-1.73-2.55-.39-.05-.8-.01-1.16-.24-.92-.5.09-2.01-1.06-2.38-3.65-.87-.61-1.77-2.05-3.3-.24-.17-.21-.26.04-.43.91-.52-.5-1.15.48-2.02.82-.77-.02-1.64.2-2.52Z"/>
        <path class="cls-22" d="m353.2,211.84c-1.02-.76-.75-.6-1.78-.07-.4.47-1.02.47-.95-.27.16-.72.11-1.25-.7-1.43,1.1-.46,2.09.7,3.17.83.38.14.7.7.25.94Z"/>
        <path class="cls-16" d="m354.53,215.44c.31.27.56.58.38,1.07-.17-.33-.59-.65-.38-1.07Z"/>
        <path class="cls-24" d="m360.5,193.37c.6-.26,1.24.01,1.84.16,1.11.45-.58,1.11-.91,1.52-.61.58-1.19,1.24-1.65,1.94-.22.58-.7.83-1.26,1-.76.05-1.34-.73-2.05-.97-.9-.8-.48-3.73,1-3.65.46.21.97-.23,1.4.08.53.43,1.03-.01,1.63-.08Z"/>
      </g>
      <g class="cls-1">
        <path class="cls-28" d="m16.51,4.56c1.51,2.63,4.75,5.56,4.51,7.88-3.64-2.21-4.24-.94-8.01-1.41-.43-2.63,5.68-1.22,2.62-4.85-.22-.63.02-1.17.88-1.62Z"/>
        <path class="cls-34" d="m12.67,6.25c.48.67.01,1.18.27,1.81-.42.52-1.31.95-.87,1.62-1.66,1.59-2.39-2.07-3.9-1.28l-1.41-2.02c2.28-1.77,3.81.72,5.92-.14Z"/>
        <path class="cls-33" d="m.15,17.02c3.78,1.28,5.17,3.27,6.33,7.61-1.34.93-2.14-1.24-3.64.54l-.47-.67c-3.06-2.63.76-4.41-2.83-4.04-.47-.67-.94-1.34-1.41-2.02l1.35-.94.67-.47Z"/>
        <path class="cls-34" d="m23.11,13.99c.42,2.43-2.09,4.35-1.21,6.87-1.3.66-2.35-.08-3.23-1.75-1.93-1.72-.22-2.8-2.15-4.51-2.04,2.66-.51,4.64,1.75,6.8l-.67.47c-.47-.67-1.1-.41-1.61-.87.77-.98-.48-.54-.94-1.35-.42,1.3-2.06,2.39-1.28,3.91-2.03.35-3.87-.33-5.52-2.16,1.56-.9,1.76-2.05.6-3.43-1.95-1.57-1.88,1.92-3.37,2.36,3.74.1,2.52,3.71.14,5.93-1.18-1.74-1.08-.47-1.82.27l-.94-1.35c1.49-1.78,2.29.39,3.64-.54-1.16-4.34-2.55-6.32-6.33-7.61l.67-.47c.74.29,1.47.6,2.09,1.55,1.17-.78,1.4-1.72,1.08-2.76,1.3-.6.76,2.95,3.43.61-2.52,0-1.25-.78-3.23-1.76,1.42-1.98-2.23-1.11-1.21-3.16,1.3-.67,2.35.08,3.23,1.75,4.79,2.78,3.22,4.65,5.93,9.89.83-4.14,4.14-6.24-1.61-10.9,2.93.09,6.21,4.6,8.21.27.63.9,1.26,1.8,1.89,2.69-2.63.73-2.2.89-1.75,3.23.47.68,1.11.42,1.62.88-.52-3.18,1.31-2.53,2.63-4.85Z"/>
        <path class="cls-33" d="m16.51,4.56c2.51,1.69,7.95,5.97,6.6,9.42-1.32,2.32-3.14,1.67-2.63,4.85-.51-.46-1.15-.2-1.62-.88-.45-2.33-.88-2.49,1.75-3.23-.63-.9-1.26-1.8-1.89-2.69-2,4.34-5.28-.18-8.21-.27,5.76,4.66,2.45,6.77,1.61,10.9-2.7-5.24-1.14-7.11-5.93-9.89l.67-.47c1.42.88,2.85,1.68,4.17,3.1,1.18-.65-1.72-5.35-3.03-2.89-.35-1.24-.19-2.39-.54-3.63l.67-.47c1.52-.79,2.25,2.87,3.9,1.28-.44-.67.46-1.1.87-1.62.9-.63,1.8-1.26,2.69-1.88,3.06,3.63-3.05,2.22-2.62,4.85,3.77.47,4.37-.8,8.01,1.41.24-2.32-3-5.25-4.51-7.88Z"/>
        <path class="cls-32" d="m12.8,2.14c-.7,1.5-2.79,3.69-.13,4.1-2.12.86-3.65-1.64-5.92.14l-.94-1.35c-2.2,1.34-1.15,6.27-4.24,3.97L.15,6.99c2.66-2.14,3.24-.95,4.71-3.3,2.88.84,3.93-2.84,7.47-2.23l.47.68Z"/>
        <path class="cls-31" d="m6.75,6.38l1.41,2.02-.67.47-1.89-2.7c-1.33.95.43,2.44-1.75,3.24.86,1.81,2.26.6,3.03,2.89l-.67.47c-.88-1.66-1.93-2.41-3.23-1.75-.57-1.22-1.45-.71-2.09-1.55l.67-.47c3.09,2.3,2.04-2.63,4.24-3.97l.94,1.35Z"/>
        <path class="cls-27" d="m3.79,26.51c.74-.74.64-2.01,1.82-.27,2.38-2.22,3.6-5.83-.14-5.93,1.48-.44,1.42-3.93,3.37-2.36,1.15,1.39.95,2.53-.6,3.43,1.65,1.83,3.49,2.5,5.52,2.16-.78-1.51.86-2.6,1.28-3.91.46.8,1.71.36.94,1.35-1.67,1.28-1.49,2.88-1.95,4.38-1.87.58-3.43-.62-5.05-1.48-1.37,1.57-2.47,6.21-5.18,2.63Z"/>
        <path class="cls-33" d="m4.19,14.19c1.98.97.71,1.75,3.23,1.76-2.67,2.34-2.13-1.21-3.43-.61.32,1.04.09,1.98-1.08,2.76-.62-.95-1.35-1.26-2.09-1.55.71-.66-.29-1.62-.74-2.49.67-.47,1.35-.94,2.02-1.41.61.99,1.22,1.98,2.08,1.54Z"/>
        <path class="cls-26" d="m5.94.93c2.34-.99,4.62-1.67,6.39.54-3.54-.62-4.59,3.07-7.47,2.23-.29-1.04-.11-1.99,1.07-2.76Z"/>
        <path class="cls-27" d="m18.66,19.1c-1.22.97,1.09,2.55-.6,3.43-.37.26-1.15-.01-.47-.68l.67-.47c-2.26-2.15-3.79-4.13-1.75-6.8,1.93,1.72.23,2.79,2.15,4.51Z"/>
        <path class="cls-29" d="m18.66,19.1c.89,1.67,1.93,2.42,3.23,1.75.1,1.39.48,2.84-1.28,3.9l-.67.47c-.76-1.27-1.82-.84-2.56-2.22-1.35,1.52-2.74,3.7-5.39,3.77-1.94,1.03,3.27,3.33-.14,4.11-3.98,2.48-6.91-.93-10.3-1.82,3.41-2.18-2.17-3.18.81-4.58l.47.67.94,1.35c2.72,3.59,3.81-1.06,5.18-2.63,1.62.86,3.18,2.06,5.05,1.48.46-1.5.28-3.1,1.95-4.38.51.46,1.14.2,1.61.87-.67.66.1.94.47.68,1.7-.88-.61-2.47.6-3.43Z"/>
        <path class="cls-28" d="m7.49,8.87c.34,1.24.19,2.39.54,3.63,1.3-2.46,4.21,2.24,3.03,2.89-1.32-1.42-2.75-2.21-4.17-3.1-.77-2.29-2.17-1.08-3.03-2.89,2.18-.8.42-2.29,1.75-3.24l1.89,2.7Z"/>
        <path class="cls-30" d="m20.62,24.76c-1.74,3.15-5.22,5.94-8.75,6.13,3.41-.78-1.8-3.07.14-4.11,2.65-.07,4.03-2.25,5.39-3.77.74,1.38,1.8.95,2.56,2.22l.67-.47Z"/>
        <path class="cls-25" d="m5.94.93c-1.18.77-1.36,1.72-1.07,2.76-1.47,2.35-2.05,1.16-4.71,3.3-1.94.97-3.93,2.24-5.66,1.95C-6.21,3.72,2.14,2.19,5.94.93Z"/>
        <path class="cls-32" d="m.89,9.48c.64.84,1.52.33,2.09,1.55-1.02,2.05,2.64,1.18,1.21,3.16-.86.44-1.48-.55-2.08-1.54-.67.47-1.35.94-2.02,1.41.45.86,1.45,1.82.74,2.49l-.67.47-.67.47c-1.69-2.26-3.73-4.59-2.43-6.33L.42,8.8l.47.67Z"/>
        <path class="cls-26" d="m-6.11,12.38c-.95-.96-.18-1.61-.74-2.49l1.34-.94c1.72.29,3.71-.98,5.66-1.95l1.41,2.01-.67.47-.47-.67-3.37,2.36c-1.21,1.27-2.1.79-3.16,1.22Z"/>
        <path class="cls-27" d="m-2.61,25.97c4.54.85-1.61-6.23,2.15-5.52,3.59-.37-.23,1.41,2.83,4.04-2.98,1.4,2.61,2.4-.81,4.58-1.2-2.09-2.97-1-4.17-3.1Z"/>
        <path class="cls-31" d="m12.8,2.14c1.4-.13,2.64.68,3.7,2.42-.86.44-1.09.99-.88,1.62-.9.63-1.79,1.26-2.69,1.88-.25-.63.21-1.14-.27-1.81-2.66-.42-.57-2.6.13-4.1Z"/>
      </g>
    </g>
  </g>
</svg>