<?xml version="1.0" encoding="UTF-8"?>
<svg id="CONTENTS" xmlns="http://www.w3.org/2000/svg" viewBox="0 0 104.18 9.2">
  <defs>
    <style>
      .cls-1 {
        fill: none;
        stroke: #000;
        stroke-miterlimit: 10;
        stroke-width: .65px;
      }
    </style>
  </defs>
  <g>
    <path d="m.49,8.94V.3h2.55c.76,0,1.44.17,2.03.51.59.34,1.05.82,1.37,1.45s.49,1.34.49,2.15v.43c0,.82-.16,1.54-.49,2.16-.33.62-.79,1.1-1.39,1.44-.6.34-1.29.5-2.07.5H.49ZM1.99,1.51v6.23h.98c.79,0,1.39-.25,1.81-.74.42-.49.64-1.2.64-2.12v-.48c0-.94-.2-1.65-.61-2.15-.41-.49-1-.74-1.77-.74h-1.05Z"/>
    <path d="m14.96,6.93h-3.35l-.7,2.01h-1.56L12.62.3h1.35l3.27,8.64h-1.57l-.71-2.01Zm-2.92-1.21h2.5l-1.25-3.58-1.25,3.58Z"/>
    <path d="m25.57,1.51h-2.69v7.43h-1.49V1.51h-2.67V.3h6.85v1.21Z"/>
    <path d="m32.65,6.93h-3.35l-.7,2.01h-1.56L30.3.3h1.35l3.27,8.64h-1.57l-.71-2.01Zm-2.92-1.21h2.5l-1.25-3.58-1.25,3.58Z"/>
  </g>
  <g>
    <line class="cls-1" x1="41.82" y1="4.4" x2="103.25" y2="4.4"/>
    <circle cx="103.2" cy="4.4" r=".97"/>
  </g>
</svg>