<?xml version="1.0" encoding="UTF-8"?><svg id="sesign" xmlns="http://www.w3.org/2000/svg" viewBox="0 0 302.019 11.926"><defs><style>.cls-1{fill:none;stroke:#000;stroke-miterlimit:10;stroke-width:.8px;}</style></defs><g><path d="M1.896,11.167V.503h3.149c.942,0,1.778,.21,2.509,.63,.729,.42,1.295,1.016,1.695,1.787s.601,1.655,.601,2.651v.535c0,1.011-.201,1.899-.604,2.666-.402,.767-.977,1.357-1.721,1.772-.745,.415-1.598,.623-2.56,.623H1.896ZM3.75,1.997v7.69h1.208c.972,0,1.718-.304,2.237-.912,.521-.607,.785-1.48,.795-2.618v-.593c0-1.157-.251-2.041-.754-2.651s-1.233-.916-2.19-.916h-1.296Z"/><path d="M19.762,8.684h-4.131l-.864,2.483h-1.926L16.869,.503h1.662l4.036,10.664h-1.934l-.872-2.483Zm-3.61-1.494h3.091l-1.546-4.424-1.545,4.424Z"/><path d="M32.851,1.997h-3.325V11.167h-1.838V1.997h-3.296V.503h8.459V1.997Z"/><path d="M41.591,8.684h-4.131l-.864,2.483h-1.926L38.698,.503h1.662l4.036,10.664h-1.934l-.872-2.483Zm-3.61-1.494h3.091l-1.546-4.424-1.545,4.424Z"/></g><g><line class="cls-1" x1="52.919" y1="5.561" x2="299.954" y2="5.561"/><path d="M299.894,6.764c.665,0,1.203-.539,1.203-1.203s-.539-1.203-1.203-1.203-1.203,.539-1.203,1.203,.539,1.203,1.203,1.203Z"/></g></svg>