<?xml version="1.0" encoding="UTF-8"?>
<svg id="_デザイン" data-name="デザイン" xmlns="http://www.w3.org/2000/svg" viewBox="0 0 11.63 1284.1">
  <defs>
    <style>
      .cls-1 {
        fill: #8cc359;
      }
    </style>
  </defs>
  <circle class="cls-1" cx="5.81" cy="5.81" r="5.81"/>
  <g>
    <g>
      <path class="cls-1" d="m4.9,16.28c-.01-.33-.03-.39-.04-.12-.08-.47-.16-.15-.22,5.06l.07,5.26-.06,1.63v-4.38c-.06,2.44,0,4.05.02,5.83-.03.41-.05,1.11-.06,2.15l.11,5.19c-.05.59-.09-2.36-.12,1.06.05,2.43.1-2.24.14,1.76-.06,2.46-.1,1.69-.05,4.64-.03.4-.05-.23-.06-1.4.04,2.62.01,6.89.08,8.26-.07,2.56.02,8.8-.1,8.48.02.66.06,3.16.08,5.34-.02-.19-.06.39-.05-1.36-.02,1.61-.02,3.04-.01,4.35,0,2.78,0,7.13-.08,6.39.08,2.24.08,6.81.09,11.33v.32s0,.17,0,.17c0,1.97.01,3.93.03,5.65-.01-.33-.03-.96-.02-1.48,0,.7,0,1.26-.01,1.78-.02.81-.05,1.31-.05-.89-.06,5.25,0,2.41.03,2.94-.01.76-.03,1.45-.04,2.35.06.31.1,2.41.13,4.62,0,.58-.02,1.15-.04,1.33.03.75.04-.26.05-.85,0,.57.02,1.07.03,1.61-.04.61-.05,1.58-.04,2.8-.05-.11-.08-3.43-.15-2.54.08-.16.08,6.9.15,5.58-.01.6-.02.99-.02,1.36-.02-1.28-.01-2.43-.06.31.02.32.02.79.03,1.19,0,.34-.02.66-.06,1.25.06.32.07,1.07.07,2.07-.02,2.01-.05,4.18-.04,5.84,0,.01,0,.06,0,.06-.01,0-.03.1-.05.36,0,.31.01.48.03.67,0,.43,0,1.09.01,2.25-.04,2.26-.08-2.03-.08-2.03,0,4.89.09,2.34.15,3.41.02,5.86-.07,2.67-.12,4.63.02,3.22.09,5.81.1,8.24,0,.38,0,.76,0,1.15,0,.2-.02.39-.03-.1.01.67.02,1.53.02,2.37,0,2.18-.02,4.37-.03,5.97l-.02-.15c.04.42.06,1.69.07,3.22,0,.45,0,.89,0,1.33,0,1.22,0,2.53.01,3.8h0s0,0,0,0c0,.44,0,.92,0,1.35-.02-.06-.03-.28-.04-.5.01-.28.03-.65.04-.83-.05.42-.06-3.38-.06.2-.01-.41-.02-.87-.03-1.69v3.46c.03.82.05,1.91.06,4.17v-.09c0-.73,0-1.44-.05-.56l-.02-.24c0,.2,0,.41,0,.59,0,.09,0,.11-.01.23-.03,6.98.04,7.84.02,14.79.04,1.38.07.14.1.78,0,1.27,0,1.55.03,1.89,0,.55,0,1.15,0,1.61-.03.34-.03,1.32-.06,1.06,0-.54.02-1.88,0-2.71,0,2.44-.04,5.38-.08,6.36.02-.15.04.11.06.71-.04,1.27-.08,2.46-.06,4.82,0,.17,0,.23-.01.51.04,1.11,0,4.05.08,4.13,0,1.35-.04,1.6-.06,2.12.02,1.62.02,6.2.04,8.08-.03,2.22,0,2.96.02,3.77v.94c0,.09,0-.3,0-.69.02.49.03,1.09.03,2.25l-.09.69c0,5.39.04,11.25.06,17.19h0c.01,1.82.02,3.79.02,5.73-.02-.53-.05-1.41-.07.24.01,3.71.01,7.63,0,11.55l-.05-.25c0,2.11.02.65.05.4-.01,6.66-.04,13.38-.08,19.44l.07,3.73c0,.16,0,.24,0,.37l-.07-.94c-.1,9.41.18,16.97,0,24.15.06,2.49.04-5.13.11-2.91-.01,4.35-.13,8.86-.13,10.2-.05,5.95.13,5.54.09,11.76.01-.32.03-.5.05-.51,0,2.51,0,5.01,0,7.55-.02-.07-.04-.41-.05-1.36,0-1.04,0-1.54.02-1.49-.01-1.41-.02-3.26-.06-1.53l.03.57c-.03,2.16-.03,8.11-.08,6.71.03,3.28.05,1.41.07-1.03-.04,5.57,0,8.68-.03,14.42.02-.91.05-1.75.05-.85-.01,2.72,0,4.01,0,4.78,0,1.07-.01,2.27-.03,3.27.03.45.04,1.44.04,2.68-.02-.02-.04-.1-.01,3.21-.03,3.5-.08.75-.11-.63.06,5.22-.04,9.74-.05,12.72l-.02-2.75c.02,1.63.01,3,.02,4.36l.06-1.58c0,1.61,0,2.99-.04,2.95.03,1.03.06.41.09.45-.01,1.29-.02,3-.04,5.49,0,.26,0,.47,0,.7-.02.12-.04-.11-.04-2.3.01,1.1.01,2.46,0,4.07,0,.23-.02-.24-.02-.68-.07,6.48.09,2.96.09,9.68-.05-.86-.09,1.55-.08,2.65,0-1.84.04-1.68.07-.67v.12s.01,2.97.01,2.97c0-.57.01-1.15.02-1.59,0,.12,0,.2,0,.35-.02,3.13,0,4.18.02,5.39-.02,2.67-.06,4.85-.08,4.89l.06,10.95c-.03-.25-.04-2.08-.06-3.54.08,5.86-.08,1.06-.01,6.42,0-.06,0,.03,0-.01.03,4.02-.06,4.99-.02,9.98.02-.41.03-.71.03-.91,0,1.61,0,3.22,0,4.65l-.05-.85c-.02,8.11.02,17.1.02,26.2.03-3.27.12-2.51.13.17l-.08,1.07c.01.39.02.41.03.31,0,.37-.02.74-.03,1.09.01-.05.02.48.02,1.19-.02-.31-.04-.83-.05-1.52l.03,4.13c-.02.25-.04-.73-.07-.98.05,1.69-.09,7.12,0,9.57l-.02.24c0,9.09.02,13.23.03,20.64.07.14.06,3.04.11,5.25-.02,5.45-.08,11.49-.08,18.05.03,4.61.06,1.34.1,3.43-.07.35-.06,6.89-.11,3.48,0,7.88.01,10.06.06,20.01.03-1.07.04-2.28.06-1.66.01,1.82-.03,4.11-.06,3.86v-.48c.09,11.18-.21,25.8-.07,34.71v-.49s.06,9.21.06,9.21c-.01,4.25-.05-2.55-.09.6.11,9.96-.02,15.73.05,23.92-.2,6.38,0,22.53-.12,31.11l.04-.49c.04,2.21-.03,2.68-.04,4.31.04-.23.04-2.42.07-1.03.05,18.75-.06,38.71-.1,57.95,0,3.13.04,4.27.09,5.33-.01.3-.03.77-.04,1.84.06-.75.08,1.84.06,4.97l-.06-1.82c.02,3.43.04,6.89.04,10.37v-.57c0,1.18,0,2.96,0,4.97,0,9.48-.01,19.01.04,28.11-.02-.83-.04-.85-.04-2.19-.06,2.95,0,10.83.05,10.9,0,2.17-.04.5-.07,1.84-.04,2.93.08,7.38.02,8.94,0,.25-.02-.82-.02-1.36.03,1.92,0,8.92.06,7.08-.01,2.02,0,3.95,0,5.81,0,.5,0,1.02,0,1.5,0,2.42.01,4.71,0,6.83.08,2.7-.04,8.93.08,9.76-.06-.18-.08,2.49-.08,5.5-.01,1.74-.02,3.5-.03,4.8l-.02-.14c0,5.97.02,10.99.05,15.92,0,4.94.11,9.47-.02,12.34.01,2.59.03,5.03.04,7.54-.02,3.95-.02,8.69-.03,13.41,0,0,0-.09,0-.07,0,.37,0,.67,0,1.04,0,3.87-.01,7.72-.04,11.02.02-1.55.09.28.1,2.11-.02,2.42.08,6.68-.03,6.3v-.86c-.1,1.79-.07,6.76-.08,10.63l.11.53c0,.66,0,1.32,0,1.96-.14,10.16.08,25.05-.09,30.22.03,2.46.03,5.49.07,7.94l-.07-.16c-.02,6.76-.03,10.15-.02,18.52l-.05-1.72c0,4.73.21,6.04.21,10.37l-.11,1.29c0,8.26-.1,16.56,0,24.74-.02-.15-.05-.4-.05-1.74,0,3.87-.08,14.99.07,13.63-.1.07-.01,8.51.03,12.96l-.07-.7c.09,3.78.12,3.9.14,9.17-.01,1.23-.06,1.07-.04-.59-.04,4.13.07,3.27.03,8.27l-.05-1.9c0,4.27.02,3.95.07,6.3,0,.67,0,1.48,0,2.35h0c0,.09,0,.16,0,.21,0,2.66-.04,5.66-.09,6.13.04.58.09,2.95.07,5.45-.02.33-.04-.6-.05-1.06-.05,7.12.08,10.65,0,15.51-.02.08-.04.4-.04.81,0-5.67,0-10.21.01-9.78-.07-.03-.08,4.53-.17.86.05,3.7.16,10.01.12,14.46,0,.2-.01.42-.02.58v-.47c-.01,1.03,0,1.95,0,2.84-.01,1.41-.02,2.32-.02,3.68-.05.5-.03,5.24-.03,7.5.07-.16.06,2.83.12.06,0,.36,0-.43-.01-1.95,0-.34,0-.75,0-.96v.15c0-1.5,0-3.45,0-5.66.04,1.83.07,3.71.03,6.21.05,1.19.09,2.5.12,3.23-.1,3.08-.16,9.07-.22,9.89.04,6.98.02,16.41.16,20.86.02,2-.04,2.26-.06,3-.01-1.16-.01-2.5-.03-3.14.03,3.98.01,11.75.11,12.73-.04,4.97-.09-2.85-.07,4.01l-.03-.93c-.15,13.41.24,22.05.04,36.91.01-1.02.02-1.54.03-1.75-.09,17.01.07,35.19-.07,51.95-.03,4.76.03,5.32.08,8.27l-.08.99.09,5.05c.06,7.13-.19,12.13-.07,21.17l.05-1.12c-.01,3.2.03,10.24-.03,9.65,0,.32.05,1.08.03,2.33l-.04.06.07,7.96c-.03,6.12-.16-1.07-.17,7.88.01,3.33.12,9.54.14,8.32,0-1.34.03-3.41.07-3.47l.02,3.05c.02.11.04.27.06.42v.16c.01.34.03.4.05.14.08.46.25.45.31-4.73l-.07-5.28.06-1.61v4.36c.06-2.44,0-4.05-.02-5.82.03-.4.05-1.12.07-2.14l-.11-5.19c.05-.59.09,2.37.12-1.06-.05-2.43-.11,2.23-.14-1.76.06-2.46.1-1.7.05-4.65.03-.4.05.25.06,1.41-.04-2.63-.01-6.89-.08-8.27.07-2.54-.01-8.8.1-8.47-.02-.66-.06-3.16-.08-5.35.03.18.06-.4.05,1.35.02-1.61.02-3.04.01-4.33,0-2.77,0-7.13.08-6.38-.08-2.25-.08-6.81-.09-11.35v-.31s0-.17,0-.17c0-1.98-.01-3.94-.03-5.65,0,.34.03.95.02,1.46,0-.69,0-1.25.01-1.76.02-.82.05-1.31.06.89.06-5.28,0-2.41-.03-2.96.01-.76.02-1.44.04-2.34-.06-.31-.1-2.42-.13-4.63.01-.58.02-1.15.04-1.33-.03-.73-.04.26-.05.87,0-.58-.02-1.08-.03-1.62.04-.6.05-1.59.04-2.81.05.14.08,3.43.15,2.54-.08.16-.08-6.88-.15-5.58.01-.6.02-.98.03-1.34.02,1.26.01,2.41.06-.33-.02-.31-.02-.78-.03-1.19.01-.34.02-.64.06-1.24-.06-.31-.07-1.07-.07-2.08.02-2,.05-4.17.04-5.84,0-.01,0-.03,0-.06.01,0,.03-.09.05-.36,0-.31-.01-.47-.03-.66,0-.44,0-1.08-.01-2.25.04-2.27.08,2.02.08,2.02,0-4.88-.09-2.34-.15-3.41-.03-5.86.07-2.66.12-4.61-.02-3.25-.18-6.15-.19-8.58,0-.38,0-.77,0-1.14,0-.21.02-.4.03.07-.01-.65-.02-1.52-.02-2.35,0-2.19.02-4.36.03-5.97l.02.15c-.04-.42-.06-1.68-.07-3.22,0-.46,0-.89,0-1.32,0-1.25,0-2.53-.01-3.8v-.03s0,0,0,.02c0-.44,0-.93,0-1.34.02.05.03.27.04.48-.01.3-.03.66-.04.84.05-.41.06,3.38.06-.21.01.43.02.89.03,1.69v-3.45c-.03-.83-.05-1.91-.06-4.15v.07c0,.74,0,1.45.05.57l.02.23c0-.18,0-.4,0-.58,0-.09,0-.1.01-.24.03-6.97-.04-7.83-.02-14.78-.04-1.37-.07-.12-.1-.77,0-1.27,0-1.58-.02-1.91,0-.55,0-1.16,0-1.61.03-.34.03-1.32.06-1.07,0,.55-.02,1.91,0,2.72,0-2.43.04-5.38.08-6.36-.02.14-.04-.13-.06-.7.04-1.27.08-2.47.06-4.83,0-.16,0-.21.01-.5-.04-1.11,0-4.06-.08-4.13,0-1.36.04-1.61.06-2.13-.02-1.63-.02-6.2-.04-8.07.03-2.24,0-2.99-.02-3.78v-.94c0-.09,0,.31,0,.69-.02-.5-.03-1.09-.03-2.25l.09-.69c0-5.39-.04-11.25-.06-17.19h0c-.01-1.82-.02-3.8-.02-5.74.02.55.05,1.43.07-.23-.02-3.72-.01-7.64,0-11.56l.05.26c0-2.11-.02-.65-.05-.41.01-6.64.04-13.37.08-19.43l-.07-3.72c0-.18,0-.24,0-.4l.07.95c.1-9.42-.18-16.97,0-24.15-.06-2.47-.04,5.12-.11,2.89.01-4.32.13-8.85.13-10.19.05-5.95-.13-5.53-.09-11.75-.01.31-.03.49-.05.5,0-2.51,0-5.01,0-7.55.02.08.04.42.05,1.36,0,1.04,0,1.54-.02,1.5.01,1.41.02,3.25.06,1.51l-.03-.56c.03-2.14.03-8.1.08-6.72-.03-3.26-.05-1.38-.07,1.03.04-5.57,0-8.67.03-14.4-.02.91-.05,1.74-.05.85.01-2.73,0-4.02,0-4.78,0-1.09.01-2.28.02-3.29-.03-.43-.04-1.43-.04-2.68.02.03.04.11.01-3.2.03-3.51.08-.75.11.63-.06-5.21.04-9.75.05-12.72l.02,2.74c-.02-1.64-.01-2.99-.02-4.35l-.06,1.58c.01-1.61.01-2.99.04-2.95-.02-1.02-.06-.4-.09-.47.01-1.28.02-2.97.04-5.48,0-.25,0-.45,0-.69.02-.13.04.1.04,2.28,0-1.09,0-2.44,0-4.05,0-.25.02.22.02.67.07-6.48-.09-2.97-.09-9.68.05.85.09-1.55.08-2.65,0,1.84-.04,1.69-.07.68v-.15s-.01-2.96-.01-2.96c0,.56-.01,1.16-.02,1.6,0-.12,0-.21,0-.36.03-3.12,0-4.18-.02-5.39.02-2.68.06-4.83.08-4.9l-.06-10.94c.03.24.04,2.09.06,3.53-.08-5.84.08-1.06.01-6.41,0,.06,0-.02,0,0-.03-4.02.06-4.99.02-9.96-.02.41-.03.7-.03.91,0-1.61,0-3.22,0-4.65l.05.86c.02-8.11-.02-17.11-.02-26.22-.03,3.27-.12,2.51-.13-.16l.08-1.07c-.01-.41-.02-.41-.03-.32,0-.39.02-.75.03-1.09-.01.05-.02-.48-.02-1.19.02.31.04.81.05,1.53l-.03-4.13c.03-.26.04.73.07.95-.05-1.68.09-7.1,0-9.57l.03-.24c0-9.08-.03-13.22-.03-20.62-.07-.15-.05-3.04-.11-5.27.02-5.45.08-11.49.08-18.06-.04-4.58-.06-1.34-.1-3.42.07-.34.06-6.89.11-3.48,0-7.88-.01-10.05-.06-20.02-.03,1.09-.04,2.3-.06,1.67-.01-1.8.03-4.11.06-3.87v.5c-.09-11.19.2-25.81.07-34.73v.5s-.06-9.21-.06-9.21c.01-4.25.05,2.56.09-.6-.11-9.95.02-15.74-.05-23.91.2-6.39,0-22.54.12-31.13l-.04.5c-.04-2.2.03-2.67.04-4.3-.04.23-.04,2.41-.07,1.02-.05-18.74.06-38.71.1-57.94,0-3.14-.04-4.27-.09-5.35.01-.3.03-.77.04-1.84-.06.76-.08-1.84-.06-4.96l.06,1.82c-.03-3.44-.04-6.91-.04-10.38v.57c0-1.19,0-2.99,0-4.98,0-9.47.02-18.99-.04-28.11.02.83.05.86.05,2.2.06-2.94,0-10.83-.05-10.9,0-2.16.04-.5.07-1.83.04-2.95-.08-7.38-.02-8.96,0-.26.02.82.03,1.36-.03-1.92,0-8.93-.07-7.08.01-2.02,0-3.95,0-5.82,0-.49,0-1.01,0-1.48,0-2.42-.01-4.71,0-6.84-.08-2.7.04-8.92-.08-9.77.06.2.08-2.47.08-5.49.01-1.75.03-3.48.03-4.79l.02.11c0-5.97-.02-10.96-.05-15.9,0-4.95-.11-9.47.02-12.36-.02-2.59-.03-5.02-.04-7.52.02-3.95.02-8.68.03-13.41,0,0,0,.08,0,.08,0-.39,0-.67,0-1.04,0-3.88.01-7.72.04-11.04-.02,1.58-.09-.27-.1-2.1.02-2.41-.08-6.68.03-6.29v.86c.1-1.8.07-6.76.08-10.63l-.11-.54v-1.98c.14-10.16-.08-25.04.09-30.22-.03-2.45-.03-5.47-.06-7.92l.07.16c.02-6.78.03-10.17.01-18.54l.05,1.71c0-4.71-.21-6-.21-10.36l.11-1.28c0-8.25.1-16.56,0-24.74.02.15.05.39.05,1.75,0-3.89.08-15-.07-13.63.1-.08.01-8.51-.03-12.97l.07.71c-.09-3.8-.12-3.93-.14-9.18,0-1.24.06-1.07.04.59.04-4.14-.07-3.27-.03-8.26l.04,1.87c0-4.26-.02-3.93-.07-6.3,0-.65,0-1.46,0-2.34,0,0,0,0,0-.01,0-.07,0-.15,0-.2,0-2.65.04-5.67.09-6.13-.04-.59-.09-2.94-.07-5.44.02-.34.04.58.05,1.04.05-7.1-.08-10.65,0-15.5.02-.09.04-.42.04-.81,0,5.65,0,10.21-.01,9.77.07.03.08-4.54.17-.85-.05-3.7-.16-10.02-.12-14.47,0-.2.01-.42.02-.57v.45c.01-1.02,0-1.95,0-2.83.01-1.43.02-2.32.02-3.69.05-.5.03-5.23.03-7.5-.07.15-.06-2.83-.12-.06,0-.36,0,.43.01,1.95,0,.35,0,.74,0,.98v-.16c0,1.5,0,3.46,0,5.67-.04-1.83-.07-3.72-.03-6.22-.05-1.19-.09-2.5-.12-3.23.1-3.09.16-9.07.22-9.87-.04-7-.02-16.42-.16-20.87-.02-2,.04-2.25.06-2.98.01,1.15.01,2.5.03,3.12-.03-3.97-.01-11.72-.11-12.71.04-4.97.09,2.83.07-4.02l.03.93c.15-13.4-.24-22.06-.04-36.91-.01,1.02-.02,1.54-.03,1.74.09-16.99-.07-35.19.07-51.92.03-4.78-.03-5.33-.08-8.27l.08-.99-.09-5.05c-.06-7.13.19-12.14.07-21.17l-.05,1.11c.01-3.21-.03-10.23.03-9.65,0-.33-.05-1.08-.03-2.32l.04-.08-.07-7.94c.03-6.12.16,1.07.17-7.88-.01-3.32-.12-9.54-.14-8.32,0,1.34-.03,3.41-.07,3.48l-.02-3.06c-.02-.1-.04-.26-.06-.42v-.16Zm-.44,1057.36v.18c0-.14-.02-.32-.03-.61-.01-1.52,0-2.02.02-2.22,0,.7,0,1.54,0,2.66Zm.7-847.87v-.17c0,.15.02.32.03.61.01,1.51,0,2.02-.02,2.22,0-.71,0-1.54,0-2.67Zm-.36-65.54c-.02-1.25-.04-2.79-.04-4.33.01,1.18.03,1.52.04,1.54.01,1.2.02,2.17,0,2.79Zm-.13,18.03s0,.01,0,.07c0,.02,0,.03,0,.06v-.12Zm-.04,30.94c0-.62-.01-1.27-.01-1.9,0,.14.02.1.03-.36v-.6s0,.39,0,.39c0,.47,0,.94,0,1.41,0,.61,0,1.34-.02,2.22,0-.19,0-.55-.01-.84,0-.42,0-.78,0-1.2v.89Zm.05,33.62c0,.51,0,1.09.02,1.53,0,.3,0,.62,0,.94,0,.08,0,.15,0,.21,0,.18,0,.34,0,.5,0-.93,0-2.04,0-3.19Zm-.21,467.18l.05-2.83c0,.93,0,2-.02,3.45l-.02-.62Zm.34,431.97c-.01-1.19-.02-2.16,0-2.78.02,1.26.04,2.79.04,4.33-.01-1.18-.03-1.52-.04-1.56Zm.13-20.83s0,0,0-.05v-.08.12Zm.04-30.91c0,.61.01,1.27.01,1.86,0-.12-.02-.09-.03.39v.61s0-.4,0-.4c0-.47,0-.94,0-1.4,0-.64,0-1.36.02-2.25,0,.2,0,.55.01.86,0,.41,0,.78,0,1.2v-.88Zm-.05-33.64c0-.5,0-1.07-.02-1.51,0-.31,0-.64,0-.96,0-.07,0-.13,0-.2,0-.17,0-.34,0-.5,0,.93,0,2.04,0,3.18Zm.21-467.17l-.05,2.81c0-.91,0-1.97.02-3.44l.02.62Z"/>
      <path class="cls-1" d="m4.63,319.63c0-.84-.01-1.2-.02-1.23,0,.77.01,1.43.02,1.23Z"/>
      <path class="cls-1" d="m4.57,159.24v-.91c0-.26-.02-.5-.04-.74l.04,1.65Z"/>
      <path class="cls-1" d="m4.68,1283.17v-.6c-.02-.08-.03-.16-.04-.17l.04.77Z"/>
      <path class="cls-1" d="m4.45,373.44v-.16c0-.91,0-.39,0,.16Z"/>
      <path class="cls-1" d="m5.19,506.18c-.03.91-.04,1.87-.05,2.88,0,.2.01.45.02.6l.03-3.48Z"/>
      <path class="cls-1" d="m4.54,1075.98c0,.23,0,.34,0,.61,0-.31.01-.61.02-.88l-.02-.55v.82Z"/>
      <path class="cls-1" d="m4.67,206.73c0,.14,0,.14,0,.22v.2c0-.16,0-.32,0-.42Z"/>
      <path class="cls-1" d="m4.59,115.82c-.01-3.15-.04.06-.06-.11.03,2.02.03,2.5.06.11Z"/>
      <polygon class="cls-1" points="4.48 287.54 4.51 291.62 4.49 288.62 4.48 287.54"/>
      <polygon class="cls-1" points="4.45 893.21 4.47 896.84 4.48 895.14 4.45 893.21"/>
      <path class="cls-1" d="m5.02,979.78c0,.84.01,1.2.02,1.25,0-.77-.01-1.43-.02-1.25Z"/>
      <path class="cls-1" d="m5.07,1140.18v.92c.01.25.02.5.03.73l-.03-1.65Z"/>
      <path class="cls-1" d="m4.96,16.26v.6c.02.08.03.15.04.17l-.04-.77Z"/>
      <path class="cls-1" d="m5.19,925.99v.16c0,.91,0,.39,0-.16Z"/>
      <path class="cls-1" d="m4.45,793.26c.03-.92.04-1.88.05-2.89,0-.2,0-.45-.02-.59l-.03,3.48Z"/>
      <path class="cls-1" d="m5.11,223.45c0-.22,0-.35,0-.62,0,.33-.01.62-.02.9l.02.55v-.82Z"/>
      <path class="cls-1" d="m4.97,1092.7c0-.15,0-.15,0-.22v-.2c0,.16,0,.32,0,.42Z"/>
      <path class="cls-1" d="m5.14,1183.92c.01,3.17.04-.06.06.12-.03-2.02-.03-2.5-.06-.12Z"/>
      <polygon class="cls-1" points="5.16 1011.88 5.14 1007.79 5.15 1010.81 5.16 1011.88"/>
      <polygon class="cls-1" points="5.19 406.22 5.17 402.57 5.17 404.29 5.19 406.22"/>
    </g>
    <g>
      <path class="cls-1" d="m6.8,16.28c-.01-.33-.03-.39-.04-.12-.08-.47-.16-.15-.22,5.06l.07,5.26-.06,1.63v-4.38c-.06,2.44,0,4.05.02,5.83-.03.41-.05,1.11-.06,2.15l.11,5.19c-.05.59-.09-2.36-.12,1.06.05,2.43.11-2.24.14,1.76-.06,2.46-.1,1.69-.05,4.64-.03.4-.05-.23-.06-1.4.04,2.62.01,6.89.08,8.26-.07,2.56.02,8.8-.1,8.48.02.66.06,3.16.08,5.34-.02-.19-.06.39-.05-1.36-.02,1.61-.02,3.04-.01,4.35,0,2.78,0,7.13-.09,6.39.08,2.24.08,6.81.09,11.33v.32s0,.17,0,.17c0,1.97.01,3.93.03,5.65-.01-.33-.03-.96-.02-1.48,0,.7,0,1.26-.01,1.78-.02.81-.05,1.31-.05-.89-.06,5.25,0,2.41.03,2.94-.01.76-.03,1.45-.04,2.35.06.31.1,2.41.13,4.62,0,.58-.02,1.15-.04,1.33.03.75.04-.26.05-.85,0,.57.02,1.07.03,1.61-.04.61-.05,1.58-.04,2.8-.05-.11-.08-3.43-.15-2.54.08-.16.08,6.9.15,5.58-.01.6-.02.99-.02,1.36-.02-1.28-.01-2.43-.06.31.02.32.02.79.03,1.19,0,.34-.02.66-.06,1.25.06.32.07,1.07.07,2.07-.02,2.01-.05,4.18-.04,5.84,0,.01,0,.06,0,.06-.01,0-.03.1-.05.36,0,.31.01.48.03.67,0,.43,0,1.09.01,2.25-.04,2.26-.08-2.03-.08-2.03,0,4.89.09,2.34.15,3.41.02,5.86-.07,2.67-.12,4.63.02,3.22.09,5.81.1,8.24,0,.38,0,.76,0,1.15,0,.2-.02.39-.03-.1.01.67.02,1.53.02,2.37,0,2.18-.02,4.37-.03,5.97l-.02-.15c.04.42.06,1.69.07,3.22,0,.45,0,.89,0,1.33,0,1.22,0,2.53.01,3.8h0s0,0,0,0c0,.44,0,.92,0,1.35-.02-.06-.03-.28-.04-.5.01-.28.03-.65.04-.83-.05.42-.06-3.38-.06.2-.01-.41-.02-.87-.03-1.69v3.46c.03.82.05,1.91.06,4.17v-.09c0-.73,0-1.44-.05-.56l-.02-.24c0,.2,0,.41,0,.59,0,.09,0,.11-.01.23-.03,6.98.04,7.84.02,14.79.04,1.38.07.14.1.78,0,1.27,0,1.55.03,1.89,0,.55,0,1.15,0,1.61-.03.34-.03,1.32-.06,1.06,0-.54.02-1.88,0-2.71,0,2.44-.04,5.38-.08,6.36.02-.15.04.11.06.71-.04,1.27-.08,2.46-.06,4.82,0,.17,0,.23-.01.51.04,1.11,0,4.05.08,4.13,0,1.35-.04,1.6-.06,2.12.02,1.62.02,6.2.04,8.08-.03,2.22,0,2.96.02,3.77v.94c0,.09,0-.3,0-.69.02.49.03,1.09.03,2.25l-.09.69c0,5.39.04,11.25.06,17.19h0c.01,1.82.02,3.79.02,5.73-.02-.53-.05-1.41-.07.24.01,3.71.01,7.63,0,11.55l-.05-.25c0,2.11.02.65.05.4-.01,6.66-.04,13.38-.08,19.44l.07,3.73c0,.16,0,.24,0,.37l-.07-.94c-.1,9.41.18,16.97,0,24.15.06,2.49.04-5.13.11-2.91-.01,4.35-.13,8.86-.13,10.2-.05,5.95.13,5.54.09,11.76.01-.32.03-.5.05-.51,0,2.51,0,5.01,0,7.55-.02-.07-.04-.41-.05-1.36,0-1.04,0-1.54.02-1.49-.01-1.41-.02-3.26-.06-1.53l.03.57c-.03,2.16-.03,8.11-.08,6.71.03,3.28.05,1.41.07-1.03-.04,5.57,0,8.68-.03,14.42.02-.91.05-1.75.05-.85-.01,2.72,0,4.01,0,4.78,0,1.07-.01,2.27-.03,3.27.03.45.04,1.44.04,2.68-.02-.02-.04-.1-.01,3.21-.03,3.5-.08.75-.11-.63.06,5.22-.04,9.74-.05,12.72l-.02-2.75c.02,1.63.01,3,.02,4.36l.06-1.58c0,1.61,0,2.99-.04,2.95.03,1.03.06.41.09.45-.01,1.29-.02,3-.04,5.49,0,.26,0,.47,0,.7-.02.12-.04-.11-.04-2.3.01,1.1.01,2.46,0,4.07,0,.23-.02-.24-.02-.68-.07,6.48.09,2.96.09,9.68-.05-.86-.09,1.55-.08,2.65,0-1.84.04-1.68.07-.67v.12s.01,2.97.01,2.97c0-.57.01-1.15.02-1.59,0,.12,0,.2,0,.35-.02,3.13,0,4.18.02,5.39-.02,2.67-.06,4.85-.08,4.89l.06,10.95c-.03-.25-.04-2.08-.06-3.54.08,5.86-.08,1.06-.01,6.42,0-.06,0,.03,0-.01.03,4.02-.06,4.99-.02,9.98.02-.41.03-.71.03-.91,0,1.61,0,3.22,0,4.65l-.05-.85c-.02,8.11.02,17.1.02,26.2.03-3.27.12-2.51.13.17l-.08,1.07c.01.39.02.41.03.31,0,.37-.02.74-.03,1.09.01-.05.02.48.02,1.19-.02-.31-.04-.83-.05-1.52l.03,4.13c-.02.25-.04-.73-.07-.98.05,1.69-.09,7.12,0,9.57l-.02.24c0,9.09.02,13.23.03,20.64.07.14.06,3.04.11,5.25-.02,5.45-.08,11.49-.08,18.05.03,4.61.06,1.34.1,3.43-.07.35-.06,6.89-.11,3.48,0,7.88.01,10.06.06,20.01.03-1.07.04-2.28.06-1.66.01,1.82-.03,4.11-.06,3.86v-.48c.09,11.18-.21,25.8-.07,34.71v-.49s.06,9.21.06,9.21c-.01,4.25-.05-2.55-.09.6.11,9.96-.02,15.73.05,23.92-.2,6.38,0,22.53-.12,31.11l.04-.49c.04,2.21-.03,2.68-.04,4.31.04-.23.04-2.42.07-1.03.05,18.75-.06,38.71-.1,57.95,0,3.13.04,4.27.09,5.33-.01.3-.03.77-.04,1.84.06-.75.08,1.84.06,4.97l-.06-1.82c.02,3.43.04,6.89.04,10.37v-.57c0,1.18,0,2.96,0,4.97,0,9.48-.01,19.01.04,28.11-.02-.83-.04-.85-.04-2.19-.06,2.95,0,10.83.05,10.9,0,2.17-.04.5-.07,1.84-.04,2.93.08,7.38.02,8.94,0,.25-.02-.82-.02-1.36.03,1.92,0,8.92.06,7.08-.01,2.02,0,3.95,0,5.81,0,.5,0,1.02,0,1.5,0,2.42.01,4.71,0,6.83.08,2.7-.04,8.93.08,9.76-.06-.18-.08,2.49-.08,5.5-.01,1.74-.02,3.5-.03,4.8l-.02-.14c0,5.97.02,10.99.05,15.92,0,4.94.11,9.47-.02,12.34.01,2.59.03,5.03.04,7.54-.02,3.95-.02,8.69-.03,13.41,0,0,0-.09,0-.07,0,.37,0,.67,0,1.04,0,3.87-.01,7.72-.04,11.02.02-1.55.09.28.1,2.11-.02,2.42.08,6.68-.03,6.3v-.86c-.1,1.79-.07,6.76-.08,10.63l.11.53c0,.66,0,1.32,0,1.96-.14,10.16.08,25.05-.09,30.22.03,2.46.03,5.49.07,7.94l-.07-.16c-.02,6.76-.03,10.15-.02,18.52l-.05-1.72c0,4.73.21,6.04.21,10.37l-.11,1.29c0,8.26-.1,16.56,0,24.74-.02-.15-.05-.4-.05-1.74,0,3.87-.08,14.99.07,13.63-.1.07-.01,8.51.03,12.96l-.07-.7c.09,3.78.12,3.9.14,9.17-.01,1.23-.06,1.07-.04-.59-.04,4.13.07,3.27.03,8.27l-.05-1.9c0,4.27.02,3.95.07,6.3,0,.67,0,1.48,0,2.35h0c0,.09,0,.16,0,.21,0,2.66-.04,5.66-.09,6.13.04.58.09,2.95.07,5.45-.02.33-.04-.6-.05-1.06-.05,7.12.08,10.65,0,15.51-.02.08-.04.4-.04.81,0-5.67,0-10.21.01-9.78-.07-.03-.08,4.53-.17.86.05,3.7.16,10.01.12,14.46,0,.2-.01.42-.02.58v-.47c-.01,1.03,0,1.95,0,2.84-.01,1.41-.02,2.32-.02,3.68-.05.5-.03,5.24-.03,7.5.07-.16.06,2.83.12.06,0,.36,0-.43-.01-1.95,0-.34,0-.75,0-.96v.15c0-1.5,0-3.45,0-5.66.04,1.83.07,3.71.03,6.21.05,1.19.09,2.5.12,3.23-.1,3.08-.16,9.07-.22,9.89.04,6.98.02,16.41.16,20.86.02,2-.04,2.26-.06,3-.01-1.16-.01-2.5-.03-3.14.03,3.98.01,11.75.11,12.73-.04,4.97-.09-2.85-.07,4.01l-.03-.93c-.15,13.41.24,22.05.04,36.91.01-1.02.02-1.54.03-1.75-.09,17.01.07,35.19-.07,51.95-.03,4.76.03,5.32.08,8.27l-.08.99.09,5.05c.06,7.13-.19,12.13-.07,21.17l.05-1.12c-.01,3.2.03,10.24-.03,9.65,0,.32.05,1.08.03,2.33l-.04.06.07,7.96c-.03,6.12-.16-1.07-.17,7.88.01,3.33.12,9.54.14,8.32,0-1.34.03-3.41.07-3.47l.02,3.05c.02.11.04.27.06.42v.16c.01.34.03.4.05.14.08.46.25.45.31-4.73l-.07-5.28.06-1.61v4.36c.06-2.44,0-4.05-.02-5.82.03-.4.05-1.12.07-2.14l-.11-5.19c.05-.59.09,2.37.12-1.06-.05-2.43-.11,2.23-.14-1.76.06-2.46.1-1.7.05-4.65.03-.4.05.25.06,1.41-.04-2.63-.01-6.89-.08-8.27.07-2.54-.01-8.8.1-8.47-.02-.66-.06-3.16-.08-5.35.03.18.06-.4.05,1.35.02-1.61.02-3.04.01-4.33,0-2.77,0-7.13.08-6.38-.08-2.25-.08-6.81-.09-11.35v-.31s0-.17,0-.17c0-1.98-.01-3.94-.03-5.65,0,.34.03.95.02,1.46,0-.69,0-1.25.01-1.76.02-.82.05-1.31.06.89.06-5.28,0-2.41-.03-2.96.01-.76.02-1.44.04-2.34-.06-.31-.1-2.42-.13-4.63.01-.58.02-1.15.04-1.33-.03-.73-.04.26-.05.87,0-.58-.02-1.08-.03-1.62.04-.6.05-1.59.04-2.81.05.14.08,3.43.15,2.54-.08.16-.08-6.88-.15-5.58.01-.6.02-.98.03-1.34.02,1.26.01,2.41.06-.33-.02-.31-.02-.78-.03-1.19.01-.34.02-.64.06-1.24-.06-.31-.07-1.07-.07-2.08.02-2,.05-4.17.04-5.84,0-.01,0-.03,0-.06.01,0,.03-.09.05-.36,0-.31-.01-.47-.03-.66,0-.44,0-1.08-.01-2.25.04-2.27.08,2.02.08,2.02,0-4.88-.09-2.34-.15-3.41-.03-5.86.07-2.66.12-4.61-.02-3.25-.18-6.15-.19-8.58,0-.38,0-.77,0-1.14,0-.21.02-.4.03.07-.01-.65-.02-1.52-.02-2.35,0-2.19.02-4.36.03-5.97l.02.15c-.04-.42-.06-1.68-.07-3.22,0-.46,0-.89,0-1.32,0-1.25,0-2.53-.01-3.8v-.03s0,0,0,.02c0-.44,0-.93,0-1.34.02.05.03.27.04.48-.01.3-.03.66-.04.84.05-.41.06,3.38.06-.21.01.43.02.89.03,1.69v-3.45c-.03-.83-.05-1.91-.06-4.15v.07c0,.74,0,1.45.05.57l.02.23c0-.18,0-.4,0-.58,0-.09,0-.1.01-.24.03-6.97-.04-7.83-.02-14.78-.04-1.37-.07-.12-.1-.77,0-1.27,0-1.58-.02-1.91,0-.55,0-1.16,0-1.61.03-.34.03-1.32.06-1.07,0,.55-.02,1.91,0,2.72,0-2.43.04-5.38.08-6.36-.02.14-.04-.13-.06-.7.04-1.27.08-2.47.06-4.83,0-.16,0-.21.01-.5-.04-1.11,0-4.06-.08-4.13,0-1.36.04-1.61.06-2.13-.02-1.63-.02-6.2-.04-8.07.03-2.24,0-2.99-.02-3.78v-.94c0-.09,0,.31,0,.69-.02-.5-.03-1.09-.03-2.25l.09-.69c0-5.39-.04-11.25-.06-17.19h0c-.01-1.82-.02-3.8-.02-5.74.02.55.05,1.43.07-.23-.02-3.72-.01-7.64,0-11.56l.05.26c0-2.11-.02-.65-.05-.41.01-6.64.04-13.37.08-19.43l-.07-3.72c0-.18,0-.24,0-.4l.07.95c.1-9.42-.18-16.97,0-24.15-.06-2.47-.04,5.12-.11,2.89.01-4.32.13-8.85.13-10.19.05-5.95-.13-5.53-.09-11.75-.01.31-.03.49-.05.5,0-2.51,0-5.01,0-7.55.02.08.04.42.05,1.36,0,1.04,0,1.54-.02,1.5.01,1.41.02,3.25.06,1.51l-.03-.56c.03-2.14.03-8.1.08-6.72-.03-3.26-.05-1.38-.07,1.03.04-5.57,0-8.67.03-14.4-.02.91-.05,1.74-.05.85.01-2.73,0-4.02,0-4.78,0-1.09.01-2.28.02-3.29-.03-.43-.04-1.43-.04-2.68.02.03.04.11.01-3.2.03-3.51.08-.75.11.63-.06-5.21.04-9.75.05-12.72l.02,2.74c-.02-1.64-.01-2.99-.02-4.35l-.06,1.58c.01-1.61.01-2.99.04-2.95-.02-1.02-.06-.4-.09-.47.01-1.28.02-2.97.04-5.48,0-.25,0-.45,0-.69.02-.13.04.1.04,2.28,0-1.09,0-2.44,0-4.05,0-.25.02.22.02.67.07-6.48-.09-2.97-.09-9.68.05.85.08-1.55.08-2.65,0,1.84-.04,1.69-.07.68v-.15s-.01-2.96-.01-2.96c0,.56-.01,1.16-.02,1.6,0-.12,0-.21,0-.36.03-3.12,0-4.18-.02-5.39.02-2.68.06-4.83.08-4.9l-.06-10.94c.03.24.04,2.09.06,3.53-.08-5.84.08-1.06.01-6.41,0,.06,0-.02,0,0-.03-4.02.06-4.99.02-9.96-.02.41-.03.7-.03.91,0-1.61,0-3.22,0-4.65l.05.86c.02-8.11-.02-17.11-.02-26.22-.03,3.27-.12,2.51-.13-.16l.08-1.07c-.01-.41-.02-.41-.03-.32,0-.39.02-.75.03-1.09-.01.05-.02-.48-.02-1.19.02.31.04.81.05,1.53l-.03-4.13c.03-.26.04.73.07.95-.05-1.68.09-7.1,0-9.57l.03-.24c0-9.08-.03-13.22-.03-20.62-.07-.15-.05-3.04-.11-5.27.02-5.45.08-11.49.08-18.06-.04-4.58-.06-1.34-.1-3.42.07-.34.06-6.89.11-3.48,0-7.88-.01-10.05-.06-20.02-.03,1.09-.04,2.3-.06,1.67-.01-1.8.03-4.11.06-3.87v.5c-.09-11.19.2-25.81.07-34.73v.5s-.06-9.21-.06-9.21c.01-4.25.05,2.56.09-.6-.11-9.95.02-15.74-.05-23.91.2-6.39,0-22.54.12-31.13l-.04.5c-.04-2.2.03-2.67.04-4.3-.04.23-.04,2.41-.07,1.02-.05-18.74.06-38.71.1-57.94,0-3.14-.04-4.27-.09-5.35.01-.3.03-.77.04-1.84-.06.76-.08-1.84-.06-4.96l.06,1.82c-.03-3.44-.04-6.91-.04-10.38v.57c0-1.19,0-2.99,0-4.98,0-9.47.02-18.99-.04-28.11.02.83.05.86.05,2.2.06-2.94,0-10.83-.05-10.9,0-2.16.04-.5.07-1.83.04-2.95-.08-7.38-.02-8.96,0-.26.02.82.03,1.36-.03-1.92,0-8.93-.07-7.08.01-2.02,0-3.95,0-5.82,0-.49,0-1.01,0-1.48,0-2.42-.01-4.71,0-6.84-.08-2.7.04-8.92-.08-9.77.06.2.08-2.47.08-5.49.01-1.75.03-3.48.03-4.79l.02.11c0-5.97-.02-10.96-.05-15.9,0-4.95-.11-9.47.02-12.36-.02-2.59-.03-5.02-.04-7.52.02-3.95.02-8.68.03-13.41,0,0,0,.08,0,.08,0-.39,0-.67,0-1.04,0-3.88.01-7.72.04-11.04-.02,1.58-.09-.27-.1-2.1.02-2.41-.08-6.68.03-6.29v.86c.1-1.8.07-6.76.08-10.63l-.11-.54v-1.98c.14-10.16-.08-25.04.09-30.22-.03-2.45-.03-5.47-.06-7.92l.07.16c.02-6.78.03-10.17.01-18.54l.05,1.71c0-4.71-.21-6-.21-10.36l.11-1.28c0-8.25.1-16.56,0-24.74.02.15.05.39.05,1.75,0-3.89.08-15-.07-13.63.1-.08.01-8.51-.03-12.97l.07.71c-.09-3.8-.12-3.93-.14-9.18,0-1.24.06-1.07.04.59.04-4.14-.07-3.27-.03-8.26l.04,1.87c0-4.26-.02-3.93-.07-6.3,0-.65,0-1.46,0-2.34,0,0,0,0,0-.01,0-.07,0-.15,0-.2,0-2.65.04-5.67.09-6.13-.04-.59-.09-2.94-.07-5.44.02-.34.04.58.05,1.04.05-7.1-.08-10.65,0-15.5.02-.09.04-.42.04-.81,0,5.65,0,10.21-.01,9.77.07.03.08-4.54.17-.85-.05-3.7-.16-10.02-.12-14.47,0-.2.01-.42.02-.57v.45c.01-1.02,0-1.95,0-2.83.01-1.43.02-2.32.02-3.69.05-.5.03-5.23.03-7.5-.07.15-.06-2.83-.12-.06,0-.36,0,.43.01,1.95,0,.35,0,.74,0,.98v-.16c0,1.5,0,3.46,0,5.67-.04-1.83-.07-3.72-.03-6.22-.05-1.19-.09-2.5-.12-3.23.1-3.09.16-9.07.22-9.87-.04-7-.02-16.42-.16-20.87-.02-2,.04-2.25.06-2.98.01,1.15.01,2.5.03,3.12-.03-3.97-.01-11.72-.11-12.71.04-4.97.09,2.83.07-4.02l.03.93c.15-13.4-.24-22.06-.04-36.91-.01,1.02-.02,1.54-.03,1.74.09-16.99-.07-35.19.07-51.92.03-4.78-.03-5.33-.08-8.27l.08-.99-.09-5.05c-.06-7.13.19-12.14.07-21.17l-.05,1.11c.01-3.21-.03-10.23.03-9.65,0-.33-.05-1.08-.03-2.32l.04-.08-.07-7.94c.03-6.12.16,1.07.17-7.88-.01-3.32-.12-9.54-.14-8.32,0,1.34-.03,3.41-.07,3.48l-.02-3.06c-.02-.1-.04-.26-.06-.42v-.16Zm-.44,1057.36v.18c0-.14-.02-.32-.03-.61-.01-1.52,0-2.02.02-2.22,0,.7,0,1.54,0,2.66Zm.7-847.87v-.17c0,.15.02.32.03.61.01,1.51,0,2.02-.02,2.22,0-.71,0-1.54,0-2.67Zm-.36-65.54c-.02-1.25-.04-2.79-.04-4.33.01,1.18.03,1.52.04,1.54.01,1.2.02,2.17,0,2.79Zm-.13,18.03s0,.01,0,.07c0,.02,0,.03,0,.06v-.12Zm-.04,30.94c0-.62-.01-1.27-.01-1.9,0,.14.02.1.03-.36v-.6s0,.39,0,.39c0,.47,0,.94,0,1.41,0,.61,0,1.34-.02,2.22,0-.19,0-.55-.01-.84,0-.42,0-.78,0-1.2v.89Zm.05,33.62c0,.51,0,1.09.02,1.53,0,.3,0,.62,0,.94,0,.08,0,.15,0,.21,0,.18,0,.34,0,.5,0-.93,0-2.04,0-3.19Zm-.21,467.18l.05-2.83c0,.93,0,2-.02,3.45l-.02-.62Zm.34,431.97c-.01-1.19-.02-2.16,0-2.78.02,1.26.04,2.79.04,4.33-.01-1.18-.03-1.52-.04-1.56Zm.13-20.83s0,0,0-.05v-.08.12Zm.04-30.91c0,.61.01,1.27.01,1.86,0-.12-.02-.09-.03.39v.61s0-.4,0-.4c0-.47,0-.94,0-1.4,0-.64,0-1.36.02-2.25,0,.2,0,.55.01.86,0,.41,0,.78,0,1.2v-.88Zm-.05-33.64c0-.5,0-1.07-.02-1.51,0-.31,0-.64,0-.96,0-.07,0-.13,0-.2,0-.17,0-.34,0-.5,0,.93,0,2.04,0,3.18Zm.21-467.17l-.05,2.81c0-.91,0-1.97.02-3.44l.02.62Z"/>
      <path class="cls-1" d="m6.53,319.63c0-.84-.01-1.2-.02-1.23,0,.77.01,1.43.02,1.23Z"/>
      <path class="cls-1" d="m6.47,159.24v-.91c0-.26-.02-.5-.04-.74l.04,1.65Z"/>
      <path class="cls-1" d="m6.58,1283.17v-.6c-.02-.08-.03-.16-.04-.17l.04.77Z"/>
      <path class="cls-1" d="m6.35,373.44v-.16c0-.91,0-.39,0,.16Z"/>
      <path class="cls-1" d="m7.09,506.18c-.03.91-.04,1.87-.05,2.88,0,.2.01.45.02.6l.03-3.48Z"/>
      <path class="cls-1" d="m6.44,1075.98c0,.23,0,.34,0,.61,0-.31.01-.61.02-.88l-.02-.55v.82Z"/>
      <path class="cls-1" d="m6.57,206.73c0,.14,0,.14,0,.22v.2c0-.16,0-.32,0-.42Z"/>
      <path class="cls-1" d="m6.49,115.82c-.01-3.15-.04.06-.06-.11.03,2.02.03,2.5.06.11Z"/>
      <polygon class="cls-1" points="6.38 287.54 6.41 291.62 6.39 288.62 6.38 287.54"/>
      <polygon class="cls-1" points="6.35 893.21 6.37 896.84 6.38 895.14 6.35 893.21"/>
      <path class="cls-1" d="m6.92,979.78c0,.84.01,1.2.02,1.25,0-.77-.01-1.43-.02-1.25Z"/>
      <path class="cls-1" d="m6.97,1140.18v.92c.01.25.02.5.03.73l-.03-1.65Z"/>
      <path class="cls-1" d="m6.86,16.26v.6c.02.08.03.15.04.17l-.04-.77Z"/>
      <path class="cls-1" d="m7.09,925.99v.16c0,.91,0,.39,0-.16Z"/>
      <path class="cls-1" d="m6.35,793.26c.03-.92.04-1.88.05-2.89,0-.2,0-.45-.02-.59l-.03,3.48Z"/>
      <path class="cls-1" d="m7.01,223.45c0-.22,0-.35,0-.62,0,.33-.01.62-.02.9l.02.55v-.82Z"/>
      <path class="cls-1" d="m6.87,1092.7c0-.15,0-.15,0-.22v-.2c0,.16,0,.32,0,.42Z"/>
      <path class="cls-1" d="m7.04,1183.92c.01,3.17.04-.06.06.12-.03-2.02-.03-2.5-.06-.12Z"/>
      <polygon class="cls-1" points="7.06 1011.88 7.04 1007.79 7.05 1010.81 7.06 1011.88"/>
      <polygon class="cls-1" points="7.09 406.22 7.07 402.57 7.07 404.29 7.09 406.22"/>
    </g>
  </g>
</svg>