<?xml version="1.0" encoding="UTF-8"?>
<svg id="_ライン" data-name="ライン" xmlns="http://www.w3.org/2000/svg" viewBox="0 0 24 1310.33">
  <defs>
    <style>
      .cls-1 {
        fill: #8cc359;
      }
    </style>
  </defs>
  <circle class="cls-1" cx="12" cy="11.63" r="11.63"/>
  <g>
    <g>
      <path class="cls-1" d="m8.53,32.27c-.04-.33-.12-.39-.17-.13-.32-.47-.63-.15-.86,5.11l.28,5.3-.23,1.65v-4.42c-.23,2.46-.04,4.09.09,5.88-.12.41-.21,1.12-.25,2.16l.44,5.23c-.18.59-.36-2.38-.46,1.06.2,2.45.41-2.26.54,1.77-.22,2.49-.39,1.71-.21,4.68-.12.4-.2-.23-.25-1.41.14,2.64.05,6.95.3,8.33-.27,2.59.06,8.87-.39,8.55.09.66.24,3.18.32,5.39-.1-.19-.24.39-.19-1.37-.06,1.63-.07,3.07-.05,4.39-.03,2.8,0,7.19-.33,6.44.32,2.26.3,6.87.33,11.42l-.06.32.06.17c.02,1.99.05,3.96.12,5.7-.04-.33-.12-.97-.09-1.49,0,.71-.03,1.27-.04,1.8-.09.81-.19,1.32-.21-.89-.23,5.3-.02,2.43.12,2.96-.05.77-.1,1.47-.14,2.37.25.31.37,2.43.49,4.66-.04.58-.08,1.16-.17,1.34.12.75.16-.26.2-.86.03.57.07,1.07.1,1.62-.16.62-.18,1.59-.14,2.83-.2-.11-.31-3.46-.58-2.56.32-.16.31,6.96.58,5.63-.05.61-.07,1-.1,1.37-.08-1.29-.06-2.45-.23.31.06.32.07.8.1,1.2-.04.34-.09.66-.22,1.26.25.32.27,1.08.26,2.08-.06,2.03-.19,4.21-.15,5.89,0,.01,0,.06-.01.06-.05,0-.11.1-.19.37,0,.31.05.48.1.68,0,.43,0,1.1.04,2.27-.15,2.28-.32-2.05-.32-2.05-.01,4.93.36,2.36.57,3.43.1,5.91-.28,2.69-.47,4.67.09,3.25.35,5.86.4,8.31,0,.38,0,.77-.02,1.16-.04.2-.06.39-.12-.1.05.68.06,1.54.09,2.39-.03,2.2-.07,4.41-.11,6.02l-.06-.15c.16.42.23,1.71.28,3.25,0,.46.03.89.04,1.34.02,1.24.04,2.55.06,3.83h0s0,0,0,0c0,.45,0,.93.02,1.36-.08-.06-.12-.29-.18-.5.05-.29.1-.65.15-.83-.18.42-.25-3.41-.25.2-.05-.41-.09-.88-.13-1.71v3.49c.12.82.19,1.92.23,4.2l-.03-.09c0-.73,0-1.45-.17-.56l-.08-.24c0,.21,0,.41.01.6-.02.09-.02.11-.05.23-.1,7.04.17,7.91.06,14.92.16,1.4.26.14.4.79-.03,1.28.03,1.57.1,1.91,0,.55.02,1.16.02,1.63-.11.34-.11,1.33-.24,1.06-.02-.55.08-1.9,0-2.74-.03,2.46-.15,5.43-.3,6.41.08-.15.16.11.22.72-.16,1.28-.3,2.48-.22,4.87-.02.17-.03.23-.05.51.14,1.12,0,4.09.3,4.17,0,1.36-.14,1.61-.22,2.14.09,1.64.08,6.25.17,8.15-.13,2.24-.04,2.99.08,3.8l-.03.95c.04.09.05-.3.06-.7.06.49.12,1.1.12,2.27l-.34.7c.04,5.44.16,11.34.25,17.34h-.04c.05,1.83.07,3.82.09,5.78-.09-.54-.19-1.42-.28.24.06,3.74.05,7.69.03,11.65l-.2-.25c.04,2.13.09.65.2.4-.04,6.72-.17,13.5-.3,19.61l.29,3.77c0,.16-.02.24-.03.38l-.27-.95c-.4,9.49.7,17.11.03,24.36.24,2.51.16-5.17.44-2.93-.04,4.38-.52,8.94-.52,10.29-.18,6,.49,5.59.37,11.86.04-.32.12-.5.19-.51-.02,2.53-.03,5.05-.03,7.61-.09-.07-.17-.41-.2-1.37,0-1.05.03-1.56.07-1.5-.04-1.42-.1-3.29-.23-1.55l.12.57c-.12,2.17-.1,8.18-.3,6.76.12,3.31.2,1.42.26-1.04-.17,5.62,0,8.76-.11,14.55.06-.92.21-1.76.21-.86-.05,2.75-.04,4.04,0,4.82-.03,1.08-.05,2.29-.1,3.3.11.46.15,1.45.15,2.7-.09-.02-.14-.1-.05,3.24-.12,3.53-.31.76-.41-.64.23,5.27-.15,9.82-.19,12.83l-.1-2.77c.06,1.65.05,3.02.06,4.4l.23-1.59c-.04,1.63-.04,3.01-.14,2.98.1,1.04.23.41.36.46-.05,1.3-.09,3.02-.15,5.54,0,.26.01.47.02.71-.08.13-.15-.11-.17-2.32.04,1.11.04,2.49,0,4.11-.03.23-.07-.24-.08-.69-.28,6.54.36,2.99.36,9.76-.18-.87-.33,1.57-.3,2.67,0-1.85.14-1.69.27-.68l-.02.13.08,3c0-.57.04-1.16.08-1.6.01.13.02.21.03.35-.1,3.16,0,4.21.06,5.44-.09,2.69-.24,4.89-.33,4.93l.25,11.05c-.13-.25-.17-2.09-.25-3.57.31,5.91-.32,1.06-.04,6.48,0-.06.02.04.02-.01.11,4.05-.25,5.04-.07,10.06.06-.41.11-.72.13-.92,0,1.63.02,3.25.04,4.69l-.21-.86c-.06,8.18.09,17.25.07,26.43.1-3.3.47-2.53.51.17l-.33,1.08c.05.39.08.41.1.31-.03.38-.06.74-.1,1.1.04-.05.06.48.07,1.2-.07-.31-.14-.84-.18-1.53l.11,4.17c-.1.25-.15-.73-.27-.98.2,1.71-.33,7.18.02,9.65l-.1.24c-.01,9.17.1,13.35.11,20.82.28.14.22,3.07.44,5.3-.1,5.5-.32,11.58-.31,18.2.13,4.65.24,1.35.4,3.46-.26.36-.24,6.95-.42,3.51.04,7.94.04,10.14.24,20.18.11-1.08.15-2.3.24-1.67.04,1.83-.11,4.14-.23,3.89l-.02-.48c.37,11.28-.78,26.02-.25,35l-.03-.49.27,9.29c-.05,4.28-.19-2.58-.35.61.42,10.05-.08,15.87.2,24.13-.77,6.43.03,22.72-.46,31.38l.18-.49c.18,2.23-.1,2.7-.14,4.35.14-.23.16-2.44.26-1.04.2,18.91-.24,39.05-.39,58.45-.02,3.16.16,4.3.33,5.38-.05.3-.1.78-.15,1.85.22-.76.31,1.85.23,5.01l-.24-1.83c.1,3.46.14,6.95.17,10.46l-.04-.57c.03,1.19.04,2.99.06,5.01.03,9.56-.06,19.17.17,28.35-.08-.84-.18-.86-.18-2.21-.24,2.98,0,10.92.19,10.99-.02,2.19-.18.5-.28,1.85-.14,2.95.31,7.44.07,9.02-.04.25-.08-.83-.1-1.37.12,1.93-.02,9,.25,7.14-.05,2.04-.04,3.98-.02,5.86,0,.5,0,1.03.01,1.51.03,2.44.06,4.75-.03,6.89.31,2.73-.14,9.01.3,9.84-.24-.18-.32,2.51-.32,5.55-.06,1.75-.1,3.53-.12,4.84l-.06-.14c-.04,6.02.07,11.08.19,16.06.04,4.98.43,9.55-.08,12.44.06,2.61.1,5.07.15,7.6-.07,3.98-.08,8.77-.1,13.53-.01,0-.02-.09-.03-.07,0,.38.02.68.03,1.05-.02,3.9-.05,7.78-.15,11.12.08-1.57.35.29.39,2.13-.09,2.44.3,6.74-.1,6.35v-.87c-.39,1.81-.29,6.82-.31,10.73l.43.54c0,.66,0,1.33,0,1.98-.55,10.24.31,25.26-.34,30.48.13,2.48.13,5.54.26,8.01l-.28-.16c-.08,6.82-.12,10.23-.06,18.68l-.2-1.74c-.02,4.77.82,6.09.83,10.46l-.43,1.3c0,8.33-.38,16.7,0,24.95-.06-.15-.18-.4-.2-1.75-.02,3.9-.3,15.12.28,13.75-.38.07-.05,8.59.12,13.07l-.28-.71c.35,3.81.45,3.94.55,9.25-.04,1.24-.23,1.08-.15-.6-.15,4.17.26,3.3.11,8.34l-.18-1.91c-.03,4.3.07,3.98.28,6.35.02.68.03,1.49.03,2.37h0c0,.09,0,.16,0,.22-.02,2.68-.17,5.71-.36,6.18.15.58.36,2.98.28,5.49-.1.33-.15-.61-.18-1.06-.2,7.18.32,10.74.03,15.65-.09.08-.14.4-.17.81.01-5.72.03-10.3.05-9.87-.26-.03-.31,4.57-.66.87.19,3.73.61,10.1.48,14.58-.03.21-.05.42-.09.58l-.03-.47c-.03,1.04,0,1.97.04,2.86-.05,1.42-.08,2.33-.09,3.71-.21.5-.12,5.29-.13,7.57.28-.16.23,2.85.47.06-.02.37-.03-.43-.04-1.97,0-.34-.01-.75-.03-.97l.02.15c0-1.51,0-3.48-.02-5.71.15,1.84.26,3.74.1,6.26.18,1.2.36,2.52.46,3.26-.4,3.1-.62,9.15-.86,9.97.15,7.04.09,16.55.61,21.04.07,2.01-.15,2.28-.24,3.02-.05-1.17-.04-2.52-.12-3.17.13,4.02.04,11.85.41,12.84-.17,5.01-.34-2.87-.28,4.04l-.12-.94c-.6,13.53.93,22.24.15,37.22.05-1.03.07-1.56.13-1.76-.35,17.16.28,35.5-.27,52.39-.11,4.8.13,5.37.3,8.34l-.3,1,.35,5.09c.25,7.19-.76,12.24-.28,21.35l.2-1.13c-.04,3.23.11,10.33-.12,9.73.04.32.21,1.09.1,2.35l-.16.06.27,8.02c-.12,6.17-.63-1.08-.67,7.94.06,3.35.45,9.63.56,8.39.01-1.35.1-3.43.26-3.5l.08,3.08c.08.11.16.27.24.42v.16c.05.34.12.4.18.14.32.47.98.46,1.21-4.77l-.28-5.32.23-1.63v4.4c.23-2.46.04-4.09-.09-5.87.12-.4.21-1.13.26-2.16l-.44-5.23c.18-.6.36,2.39.47-1.07-.21-2.45-.41,2.24-.55-1.77.22-2.48.39-1.72.21-4.69.12-.4.2.25.25,1.42-.14-2.66-.05-6.95-.3-8.34.27-2.56-.06-8.87.38-8.54-.08-.66-.24-3.18-.32-5.39.1.18.24-.4.19,1.36.06-1.63.07-3.07.05-4.37.03-2.79,0-7.19.33-6.43-.32-2.27-.3-6.87-.33-11.45l.06-.31-.06-.17c-.02-2-.04-3.97-.12-5.7.04.34.11.96.09,1.48,0-.7.03-1.26.04-1.77.09-.82.19-1.32.22.89.22-5.32.01-2.43-.12-2.99.05-.77.1-1.45.14-2.36-.25-.31-.37-2.44-.49-4.67.04-.58.08-1.16.17-1.34-.12-.73-.16.26-.2.88-.03-.58-.06-1.09-.1-1.64.17-.61.19-1.6.14-2.84.2.14.31,3.46.59,2.56-.32.16-.31-6.94-.58-5.63.05-.61.07-.98.1-1.35.08,1.27.05,2.43.23-.33-.06-.31-.07-.79-.1-1.2.04-.34.09-.64.22-1.25-.25-.31-.27-1.08-.26-2.1.06-2.01.19-4.2.15-5.89,0-.01,0-.03.01-.06.05,0,.11-.09.19-.37,0-.31-.06-.47-.1-.66,0-.45-.01-1.09-.04-2.27.15-2.29.32,2.04.32,2.04.02-4.92-.36-2.36-.57-3.43-.1-5.91.28-2.68.47-4.65-.08-3.27-.69-6.2-.74-8.65,0-.38.01-.78.02-1.15.03-.22.06-.4.12.07-.05-.65-.06-1.53-.09-2.37.03-2.21.07-4.4.11-6.02l.06.15c-.16-.42-.23-1.69-.28-3.25,0-.47-.02-.89-.03-1.33-.02-1.26-.04-2.55-.05-3.83v-.04s0,0,0,.02c0-.45,0-.94-.02-1.35.08.05.12.27.18.48-.05.3-.1.66-.15.85.18-.41.25,3.41.25-.22.05.43.09.89.13,1.71v-3.48c-.12-.84-.19-1.92-.23-4.19l.03.07c0,.74,0,1.47.17.57l.08.23c0-.18,0-.4,0-.58.01-.09.02-.1.04-.24.11-7.03-.16-7.9-.06-14.9-.16-1.38-.26-.13-.4-.78.03-1.28-.03-1.59-.09-1.92-.01-.55-.03-1.17-.03-1.63.11-.34.11-1.33.24-1.08.02.55-.08,1.92,0,2.75.03-2.45.15-5.43.3-6.41-.08.14-.16-.13-.22-.71.16-1.28.3-2.49.22-4.88.01-.16.03-.22.04-.5-.14-1.12,0-4.1-.3-4.17,0-1.37.14-1.63.22-2.15-.1-1.65-.08-6.25-.17-8.14.13-2.26.03-3.01-.08-3.81l.03-.95c-.04-.09-.05.31-.06.7-.06-.5-.12-1.1-.12-2.27l.34-.7c-.04-5.44-.16-11.34-.25-17.34h.04c-.05-1.83-.07-3.84-.09-5.79.09.55.18,1.44.28-.23-.06-3.75-.06-7.7-.03-11.66l.2.26c-.03-2.13-.09-.65-.2-.41.05-6.7.17-13.48.3-19.6l-.29-3.75c0-.18.02-.24.03-.4l.27.96c.4-9.5-.7-17.11-.03-24.36-.24-2.5-.16,5.16-.44,2.92.04-4.36.52-8.93.52-10.28.18-6-.49-5.57-.37-11.85-.04.31-.12.49-.19.5.02-2.53.03-5.05.03-7.61.09.08.17.42.2,1.37.01,1.05-.02,1.56-.06,1.51.04,1.42.1,3.27.22,1.52l-.12-.56c.12-2.16.1-8.17.3-6.78-.12-3.29-.2-1.4-.26,1.04.17-5.62,0-8.75.11-14.53-.06.92-.21,1.75-.21.86.05-2.76.04-4.05,0-4.82.03-1.1.05-2.3.1-3.32-.11-.43-.15-1.44-.16-2.7.09.04.14.11.05-3.23.12-3.54.31-.76.42.64-.23-5.25.14-9.83.18-12.83l.1,2.76c-.06-1.65-.06-3.01-.06-4.39l-.23,1.59c.04-1.63.04-3.01.14-2.98-.1-1.03-.23-.4-.36-.47.05-1.29.09-3,.15-5.53,0-.25-.02-.46-.02-.7.08-.13.15.1.17,2.3-.04-1.1-.04-2.46,0-4.09.04-.25.07.22.09.68.28-6.54-.36-3-.36-9.76.18.86.33-1.57.3-2.67,0,1.85-.14,1.71-.27.69l.02-.15-.08-2.99c0,.56-.04,1.17-.08,1.61,0-.13-.02-.22-.03-.37.1-3.15,0-4.21-.06-5.44.09-2.7.24-4.88.33-4.95l-.25-11.03c.12.24.16,2.11.24,3.56-.31-5.89.33-1.06.04-6.47,0,.06-.01-.02-.02,0-.11-4.05.25-5.04.07-10.05-.06.41-.1.71-.13.92,0-1.63-.02-3.25-.04-4.69l.21.87c.06-8.18-.09-17.26-.07-26.44-.1,3.3-.47,2.53-.51-.16l.33-1.08c-.05-.41-.08-.41-.1-.32.03-.39.06-.75.1-1.1-.04.05-.06-.48-.07-1.2.07.31.14.81.18,1.54l-.11-4.17c.1-.26.15.73.27.96-.2-1.69.34-7.17-.02-9.65l.1-.24c.01-9.16-.1-13.34-.11-20.8-.28-.15-.21-3.07-.44-5.31.1-5.5.32-11.58.31-18.21-.14-4.62-.24-1.35-.4-3.45.26-.34.24-6.95.42-3.51-.03-7.94-.04-10.14-.24-20.19-.11,1.1-.15,2.32-.24,1.68-.04-1.82.11-4.14.23-3.9l.02.5c-.37-11.29.78-26.03.25-35.03l.03.5-.27-9.29c.05-4.28.19,2.59.35-.61-.42-10.04.08-15.88-.2-24.12.76-6.44-.03-22.73.46-31.4l-.18.5c-.18-2.22.1-2.69.15-4.34-.14.23-.17,2.43-.26,1.03-.2-18.9.24-39.05.39-58.44.02-3.17-.16-4.3-.33-5.39.05-.3.1-.78.15-1.85-.22.77-.31-1.85-.23-5l.25,1.83c-.1-3.47-.15-6.97-.18-10.47l.04.57c-.03-1.2-.05-3.01-.06-5.03-.03-9.55.06-19.15-.17-28.36.08.84.18.87.18,2.22.24-2.96,0-10.92-.19-10.99.02-2.18.17-.5.27-1.84.14-2.98-.31-7.44-.07-9.03.04-.26.08.83.1,1.37-.12-1.93.02-9.01-.26-7.14.05-2.04.04-3.98.02-5.87,0-.49,0-1.02-.02-1.49-.03-2.44-.06-4.75.03-6.9-.31-2.73.14-9-.3-9.86.24.21.33-2.49.32-5.54.06-1.76.1-3.51.13-4.83l.06.11c.03-6.02-.07-11.06-.2-16.04-.04-4.99-.43-9.55.08-12.47-.06-2.61-.1-5.06-.15-7.59.07-3.98.09-8.76.1-13.53.01,0,.02.08.03.08,0-.39-.02-.68-.03-1.05.02-3.91.06-7.78.15-11.14-.08,1.59-.35-.27-.39-2.12.09-2.43-.3-6.74.1-6.34v.87c.39-1.82.29-6.82.31-10.73l-.43-.55v-1.99c.55-10.24-.32-25.25.34-30.48-.13-2.47-.12-5.52-.25-7.99l.28.16c.08-6.83.12-10.26.06-18.7l.2,1.73c.02-4.75-.82-6.06-.83-10.45l.43-1.29c0-8.32.38-16.7,0-24.95.06.15.19.39.2,1.76.01-3.93.3-15.13-.28-13.75.38-.08.05-8.59-.12-13.08l.28.72c-.35-3.83-.45-3.96-.54-9.26.04-1.25.22-1.08.15.6.15-4.18-.26-3.3-.11-8.33l.18,1.89c.03-4.29-.07-3.96-.28-6.35-.03-.65-.03-1.48-.03-2.36,0,0,0,0,0-.01,0-.07,0-.15,0-.21.02-2.67.17-5.72.36-6.18-.15-.6-.36-2.96-.28-5.48.1-.34.15.58.19,1.05.19-7.17-.32-10.74-.04-15.64.09-.09.14-.42.17-.81-.01,5.7-.03,10.3-.05,9.86.26.03.31-4.58.66-.86-.19-3.73-.61-10.11-.48-14.59.02-.21.05-.42.09-.57l.03.46c.03-1.03,0-1.97-.04-2.85.05-1.44.08-2.33.08-3.72.21-.5.12-5.28.13-7.57-.28.15-.23-2.85-.47-.06.02-.37.03.43.04,1.97,0,.36.01.74.03.98l-.02-.16c0,1.51,0,3.49.01,5.72-.14-1.84-.26-3.75-.1-6.27-.18-1.2-.36-2.52-.45-3.26.4-3.11.62-9.15.86-9.96-.15-7.06-.09-16.56-.61-21.05-.07-2.01.15-2.27.24-3.01.05,1.16.04,2.52.12,3.15-.14-4.01-.04-11.82-.41-12.82.17-5.01.34,2.85.29-4.05l.11.94c.6-13.52-.93-22.25-.15-37.22-.05,1.03-.07,1.56-.13,1.75.35-17.14-.28-35.5.27-52.37.11-4.82-.12-5.38-.3-8.34l.31-1-.35-5.09c-.25-7.19.76-12.25.28-21.35l-.21,1.12c.04-3.24-.11-10.31.12-9.73-.04-.33-.21-1.09-.1-2.33l.16-.08-.27-8.01c.12-6.17.63,1.08.67-7.94-.06-3.35-.45-9.63-.56-8.39,0,1.35-.1,3.43-.26,3.51l-.08-3.09c-.08-.1-.16-.26-.24-.42v-.16Zm-1.7,1066.48l.04.18c-.06-.14-.1-.32-.14-.62-.04-1.53.02-2.04.07-2.24.01.71.02,1.56.03,2.68Zm2.76-855.18l-.04-.17c.06.15.11.32.14.62.04,1.52-.02,2.04-.07,2.24,0-.72-.02-1.56-.03-2.69Zm-1.42-66.11c-.08-1.26-.15-2.82-.15-4.37.05,1.19.1,1.53.15,1.56.04,1.21.08,2.19,0,2.82Zm-.49,18.19s0,.01.01.07c0,.02,0,.03,0,.06v-.13Zm-.15,31.2c-.02-.63-.04-1.28-.06-1.91.03.14.07.1.13-.37l.02-.61.02.39c.02.47.01.95.02,1.42,0,.62-.03,1.35-.06,2.24-.02-.19-.04-.55-.05-.85,0-.42,0-.79,0-1.21l-.03.89Zm.21,33.91c.02.51.03,1.1.06,1.54,0,.3-.01.63-.03.95,0,.08,0,.15,0,.22,0,.18-.03.34-.04.5,0-.94,0-2.06.01-3.22Zm-.82,471.21l.18-2.85c0,.94-.03,2.01-.1,3.48l-.08-.63Zm1.34,435.7c-.04-1.2-.08-2.17,0-2.8.08,1.27.15,2.82.15,4.37-.05-1.19-.1-1.53-.15-1.57Zm.5-21.01s0,0-.01-.05v-.08.13Zm.15-31.18c.03.62.04,1.28.06,1.88-.03-.13-.07-.09-.13.39l-.02.62v-.4c-.03-.47-.03-.95-.04-1.41,0-.64.03-1.37.06-2.27.02.21.04.55.05.87,0,.41,0,.79,0,1.21l.03-.89Zm-.21-33.93c-.02-.5-.03-1.08-.06-1.52,0-.31.01-.64.03-.97,0-.07,0-.13,0-.21.01-.17.02-.34.04-.5,0,.94,0,2.06-.01,3.2Zm.82-471.2l-.18,2.84c0-.92.03-1.99.1-3.47l.08.63Z"/>
      <path class="cls-1" d="m7.44,338.24c0-.85-.04-1.21-.07-1.24.02.78.04,1.44.07,1.24Z"/>
      <path class="cls-1" d="m7.23,176.46v-.92c-.04-.26-.09-.5-.14-.74l.14,1.66Z"/>
      <path class="cls-1" d="m7.65,1310.09l-.02-.61c-.05-.08-.11-.16-.16-.17l.17.78Z"/>
      <path class="cls-1" d="m6.75,392.51v-.16c-.03-.92-.02-.39,0,.16Z"/>
      <path class="cls-1" d="m9.65,526.4c-.1.92-.16,1.89-.19,2.91.02.21.04.46.07.61l.12-3.51Z"/>
      <path class="cls-1" d="m7.09,1101.11c0,.23.02.34.02.62.02-.31.05-.62.06-.89l-.09-.55v.82Z"/>
      <path class="cls-1" d="m7.61,224.37c-.02.14-.02.14-.03.22v.21c0-.16.02-.32.03-.42Z"/>
      <path class="cls-1" d="m7.29,132.68c-.06-3.18-.16.06-.22-.11.1,2.04.13,2.52.22.11Z"/>
      <polygon class="cls-1" points="6.88 305.87 6.97 309.99 6.92 306.96 6.88 305.87"/>
      <polygon class="cls-1" points="6.75 916.77 6.83 920.43 6.85 918.71 6.75 916.77"/>
      <path class="cls-1" d="m8.96,1004.09c0,.85.04,1.21.07,1.26-.02-.78-.04-1.44-.07-1.26Z"/>
      <path class="cls-1" d="m9.18,1165.87v.93c.04.25.08.5.14.73l-.14-1.66Z"/>
      <path class="cls-1" d="m8.75,32.25v.61c.07.08.12.15.17.17l-.17-.78Z"/>
      <path class="cls-1" d="m9.65,949.83v.16c.03.92.02.39,0-.16Z"/>
      <path class="cls-1" d="m6.75,815.95c.1-.93.16-1.9.19-2.92-.02-.21-.04-.46-.07-.59l-.12,3.51Z"/>
      <path class="cls-1" d="m9.32,241.23c0-.22-.02-.36-.02-.63-.02.33-.04.63-.06.9l.09.55v-.82Z"/>
      <path class="cls-1" d="m8.79,1117.97c.01-.15.02-.15.04-.22v-.21c0,.16-.02.32-.04.42Z"/>
      <path class="cls-1" d="m9.46,1209.98c.06,3.19.16-.06.22.13-.1-2.04-.13-2.52-.22-.13Z"/>
      <polygon class="cls-1" points="9.53 1036.46 9.43 1032.34 9.49 1035.38 9.53 1036.46"/>
      <polygon class="cls-1" points="9.66 425.57 9.57 421.9 9.55 423.63 9.66 425.57"/>
    </g>
    <g>
      <path class="cls-1" d="m15.96,32.27c-.04-.33-.12-.39-.17-.13-.32-.47-.63-.15-.86,5.11l.28,5.3-.23,1.65v-4.42c-.23,2.46-.04,4.09.09,5.88-.12.41-.21,1.12-.25,2.16l.44,5.23c-.18.59-.36-2.38-.46,1.06.2,2.45.41-2.26.54,1.77-.22,2.49-.39,1.71-.21,4.68-.12.4-.2-.23-.25-1.41.14,2.64.05,6.95.3,8.33-.27,2.59.06,8.87-.39,8.55.09.66.24,3.18.32,5.39-.1-.19-.24.39-.19-1.37-.06,1.63-.07,3.07-.05,4.39-.03,2.8,0,7.19-.33,6.44.32,2.26.3,6.87.33,11.42l-.06.32.06.17c.02,1.99.05,3.96.12,5.7-.04-.33-.12-.97-.09-1.49,0,.71-.03,1.27-.04,1.8-.09.81-.19,1.32-.21-.89-.23,5.3-.02,2.43.12,2.96-.05.77-.1,1.47-.14,2.37.25.31.37,2.43.49,4.66-.04.58-.08,1.16-.17,1.34.12.75.16-.26.2-.86.03.57.07,1.07.1,1.62-.16.62-.18,1.59-.14,2.83-.2-.11-.31-3.46-.58-2.56.32-.16.31,6.96.58,5.63-.05.61-.07,1-.1,1.37-.08-1.29-.06-2.45-.23.31.06.32.07.8.1,1.2-.04.34-.09.66-.22,1.26.25.32.27,1.08.26,2.08-.06,2.03-.19,4.21-.15,5.89,0,.01,0,.06-.01.06-.05,0-.11.1-.19.37,0,.31.05.48.1.68,0,.43,0,1.1.04,2.27-.15,2.28-.32-2.05-.32-2.05-.01,4.93.36,2.36.57,3.43.1,5.91-.28,2.69-.47,4.67.09,3.25.35,5.86.4,8.31,0,.38,0,.77-.02,1.16-.04.2-.06.39-.12-.1.05.68.06,1.54.09,2.39-.03,2.2-.07,4.41-.11,6.02l-.06-.15c.16.42.23,1.71.28,3.25,0,.46.03.89.04,1.34.02,1.24.04,2.55.06,3.83h0s0,0,0,0c0,.45,0,.93.02,1.36-.08-.06-.12-.29-.18-.5.05-.29.1-.65.15-.83-.18.42-.25-3.41-.25.2-.05-.41-.09-.88-.13-1.71v3.49c.12.82.19,1.92.23,4.2l-.03-.09c0-.73,0-1.45-.17-.56l-.08-.24c0,.21,0,.41.01.6-.02.09-.02.11-.05.23-.1,7.04.17,7.91.06,14.92.16,1.4.26.14.4.79-.03,1.28.03,1.57.1,1.91,0,.55.02,1.16.02,1.63-.11.34-.11,1.33-.24,1.06-.02-.55.08-1.9,0-2.74-.03,2.46-.15,5.43-.3,6.41.08-.15.16.11.22.72-.16,1.28-.3,2.48-.22,4.87-.02.17-.03.23-.05.51.14,1.12,0,4.09.3,4.17,0,1.36-.14,1.61-.22,2.14.09,1.64.08,6.25.17,8.15-.13,2.24-.04,2.99.08,3.8l-.03.95c.04.09.05-.3.06-.7.06.49.12,1.1.12,2.27l-.34.7c.04,5.44.16,11.34.25,17.34h-.04c.05,1.83.07,3.82.09,5.78-.09-.54-.19-1.42-.28.24.06,3.74.05,7.69.03,11.65l-.2-.25c.04,2.13.09.65.2.4-.04,6.72-.17,13.5-.3,19.61l.29,3.77c0,.16-.02.24-.03.38l-.27-.95c-.4,9.49.7,17.11.03,24.36.24,2.51.16-5.17.44-2.93-.04,4.38-.52,8.94-.52,10.29-.18,6,.49,5.59.37,11.86.04-.32.12-.5.19-.51-.02,2.53-.03,5.05-.03,7.61-.09-.07-.17-.41-.2-1.37,0-1.05.03-1.56.07-1.5-.04-1.42-.1-3.29-.23-1.55l.12.57c-.12,2.17-.1,8.18-.3,6.76.12,3.31.2,1.42.26-1.04-.17,5.62,0,8.76-.11,14.55.06-.92.21-1.76.21-.86-.05,2.75-.04,4.04,0,4.82-.03,1.08-.05,2.29-.1,3.3.11.46.15,1.45.15,2.7-.09-.02-.14-.1-.05,3.24-.12,3.53-.31.76-.41-.64.23,5.27-.15,9.82-.19,12.83l-.1-2.77c.06,1.65.05,3.02.06,4.4l.23-1.59c-.04,1.63-.04,3.01-.14,2.98.1,1.04.23.41.36.46-.05,1.3-.09,3.02-.15,5.54,0,.26.01.47.02.71-.08.13-.15-.11-.17-2.32.04,1.11.04,2.49,0,4.11-.03.23-.07-.24-.08-.69-.28,6.54.36,2.99.36,9.76-.18-.87-.33,1.57-.3,2.67,0-1.85.14-1.69.27-.68l-.02.13.08,3c0-.57.04-1.16.08-1.6.01.13.02.21.03.35-.1,3.16,0,4.21.06,5.44-.09,2.69-.24,4.89-.33,4.93l.25,11.05c-.13-.25-.17-2.09-.25-3.57.31,5.91-.32,1.06-.04,6.48,0-.06.02.04.02-.01.11,4.05-.25,5.04-.07,10.06.06-.41.1-.72.13-.92,0,1.63.02,3.25.04,4.69l-.21-.86c-.06,8.18.09,17.25.07,26.43.1-3.3.47-2.53.51.17l-.33,1.08c.05.39.08.41.1.31-.03.38-.06.74-.1,1.1.04-.05.06.48.07,1.2-.07-.31-.14-.84-.18-1.53l.11,4.17c-.1.25-.15-.73-.27-.98.2,1.71-.33,7.18.02,9.65l-.1.24c-.01,9.17.1,13.35.11,20.82.28.14.22,3.07.44,5.3-.1,5.5-.32,11.58-.31,18.2.13,4.65.24,1.35.4,3.46-.26.36-.24,6.95-.42,3.51.04,7.94.04,10.14.24,20.18.11-1.08.15-2.3.24-1.67.04,1.83-.11,4.14-.23,3.89l-.02-.48c.37,11.28-.78,26.02-.25,35l-.03-.49.27,9.29c-.05,4.28-.19-2.58-.35.61.42,10.05-.08,15.87.2,24.13-.77,6.43.03,22.72-.46,31.38l.18-.49c.18,2.23-.1,2.7-.14,4.35.14-.23.16-2.44.26-1.04.2,18.91-.24,39.05-.39,58.45-.02,3.16.16,4.3.33,5.38-.05.3-.1.78-.15,1.85.22-.76.31,1.85.23,5.01l-.24-1.83c.1,3.46.14,6.95.17,10.46l-.04-.57c.03,1.19.04,2.99.06,5.01.03,9.56-.06,19.17.17,28.35-.08-.84-.18-.86-.18-2.21-.24,2.98,0,10.92.19,10.99-.02,2.19-.18.5-.28,1.85-.14,2.95.31,7.44.07,9.02-.04.25-.08-.83-.1-1.37.12,1.93-.02,9,.25,7.14-.05,2.04-.04,3.98-.02,5.86,0,.5,0,1.03.01,1.51.03,2.44.06,4.75-.03,6.89.31,2.73-.14,9.01.3,9.84-.24-.18-.32,2.51-.32,5.55-.06,1.75-.1,3.53-.12,4.84l-.06-.14c-.04,6.02.07,11.08.19,16.06.04,4.98.43,9.55-.08,12.44.06,2.61.1,5.07.15,7.6-.07,3.98-.08,8.77-.1,13.53-.01,0-.02-.09-.03-.07,0,.38.02.68.03,1.05-.02,3.9-.05,7.78-.15,11.12.08-1.57.35.29.39,2.13-.09,2.44.3,6.74-.1,6.35v-.87c-.39,1.81-.29,6.82-.31,10.73l.43.54c0,.66,0,1.33,0,1.98-.55,10.24.32,25.26-.34,30.48.13,2.48.13,5.54.26,8.01l-.28-.16c-.08,6.82-.12,10.23-.06,18.68l-.2-1.74c-.02,4.77.82,6.09.83,10.46l-.43,1.3c0,8.33-.38,16.7,0,24.95-.06-.15-.18-.4-.2-1.75-.02,3.9-.3,15.12.28,13.75-.38.07-.05,8.59.12,13.07l-.28-.71c.35,3.81.45,3.94.55,9.25-.04,1.24-.23,1.08-.15-.6-.15,4.17.26,3.3.11,8.34l-.18-1.91c-.03,4.3.07,3.98.28,6.35.02.68.03,1.49.03,2.37h0c0,.09,0,.16,0,.22-.02,2.68-.17,5.71-.36,6.18.15.58.36,2.98.28,5.49-.1.33-.15-.61-.18-1.06-.2,7.18.31,10.74.03,15.65-.09.08-.14.4-.17.81.01-5.72.03-10.3.05-9.87-.26-.03-.31,4.57-.66.87.19,3.73.61,10.1.48,14.58-.03.21-.05.42-.09.58l-.03-.47c-.03,1.04,0,1.97.04,2.86-.05,1.42-.08,2.33-.09,3.71-.21.5-.12,5.29-.13,7.57.28-.16.23,2.85.47.06-.02.37-.03-.43-.04-1.97,0-.34-.01-.75-.03-.97l.02.15c0-1.51,0-3.48-.02-5.71.15,1.84.26,3.74.1,6.26.18,1.2.36,2.52.46,3.26-.4,3.1-.62,9.15-.86,9.97.15,7.04.09,16.55.61,21.04.07,2.01-.15,2.28-.24,3.02-.05-1.17-.04-2.52-.12-3.17.13,4.02.04,11.85.41,12.84-.17,5.01-.34-2.87-.28,4.04l-.12-.94c-.6,13.53.93,22.24.15,37.22.05-1.03.07-1.56.13-1.76-.35,17.16.28,35.5-.27,52.39-.11,4.8.13,5.37.3,8.34l-.3,1,.35,5.09c.25,7.19-.76,12.24-.28,21.35l.2-1.13c-.04,3.23.11,10.33-.12,9.73.04.32.21,1.09.1,2.35l-.16.06.27,8.02c-.12,6.17-.63-1.08-.67,7.94.06,3.35.45,9.63.56,8.39.01-1.35.1-3.43.26-3.5l.08,3.08c.08.11.16.27.24.42v.16c.05.34.12.4.18.14.32.47.98.46,1.21-4.77l-.28-5.32.23-1.63v4.4c.23-2.46.04-4.09-.09-5.87.12-.4.21-1.13.26-2.16l-.44-5.23c.18-.6.36,2.39.47-1.07-.21-2.45-.41,2.24-.55-1.77.22-2.48.39-1.72.21-4.69.12-.4.2.25.25,1.42-.14-2.66-.05-6.95-.3-8.34.27-2.56-.06-8.87.38-8.54-.08-.66-.24-3.18-.32-5.39.1.18.24-.4.19,1.36.06-1.63.07-3.07.05-4.37.03-2.79,0-7.19.33-6.43-.32-2.27-.3-6.87-.33-11.45l.06-.31-.06-.17c-.02-2-.04-3.97-.12-5.7.04.34.11.96.09,1.48,0-.7.03-1.26.04-1.77.09-.82.19-1.32.22.89.22-5.32.01-2.43-.12-2.99.05-.77.1-1.45.14-2.36-.25-.31-.37-2.44-.49-4.67.04-.58.08-1.16.17-1.34-.12-.73-.16.26-.2.88-.03-.58-.06-1.09-.1-1.64.17-.61.19-1.6.14-2.84.2.14.31,3.46.59,2.56-.32.16-.31-6.94-.58-5.63.05-.61.07-.98.1-1.35.08,1.27.05,2.43.23-.33-.06-.31-.07-.79-.1-1.2.04-.34.09-.64.22-1.25-.25-.31-.27-1.08-.26-2.1.06-2.01.19-4.2.15-5.89,0-.01,0-.03.01-.06.05,0,.11-.09.19-.37,0-.31-.06-.47-.1-.66,0-.45-.01-1.09-.04-2.27.15-2.29.32,2.04.32,2.04.02-4.92-.36-2.36-.57-3.43-.1-5.91.28-2.68.47-4.65-.08-3.27-.69-6.2-.74-8.65,0-.38.01-.78.02-1.15.03-.22.06-.4.12.07-.05-.65-.06-1.53-.09-2.37.03-2.21.07-4.4.11-6.02l.06.15c-.16-.42-.23-1.69-.28-3.25,0-.47-.02-.89-.03-1.33-.02-1.26-.04-2.55-.05-3.83v-.04s0,0,0,.02c0-.45,0-.94-.02-1.35.08.05.12.27.18.48-.05.3-.1.66-.15.85.18-.41.25,3.41.25-.22.05.43.09.89.13,1.71v-3.48c-.12-.84-.19-1.92-.23-4.19l.03.07c0,.74,0,1.47.17.57l.08.23c0-.18,0-.4,0-.58.01-.09.02-.1.04-.24.11-7.03-.16-7.9-.06-14.9-.16-1.38-.26-.13-.4-.78.03-1.28-.03-1.59-.09-1.92-.01-.55-.03-1.17-.03-1.63.11-.34.11-1.33.24-1.08.02.55-.08,1.92,0,2.75.03-2.45.15-5.43.3-6.41-.08.14-.16-.13-.22-.71.16-1.28.3-2.49.22-4.88.01-.16.03-.22.04-.5-.14-1.12,0-4.1-.3-4.17,0-1.37.14-1.63.22-2.15-.1-1.65-.08-6.25-.17-8.14.13-2.26.03-3.01-.08-3.81l.03-.95c-.04-.09-.05.31-.06.7-.06-.5-.12-1.1-.12-2.27l.34-.7c-.04-5.44-.16-11.34-.25-17.34h.04c-.05-1.83-.07-3.84-.09-5.79.09.55.18,1.44.28-.23-.06-3.75-.06-7.7-.03-11.66l.2.26c-.03-2.13-.09-.65-.2-.41.05-6.7.17-13.48.3-19.6l-.29-3.75c0-.18.02-.24.03-.4l.27.96c.4-9.5-.7-17.11-.03-24.36-.24-2.5-.16,5.16-.44,2.92.04-4.36.52-8.93.52-10.28.18-6-.49-5.57-.37-11.85-.04.31-.12.49-.19.5.02-2.53.03-5.05.03-7.61.09.08.17.42.2,1.37.01,1.05-.02,1.56-.06,1.51.04,1.42.1,3.27.22,1.52l-.12-.56c.12-2.16.1-8.17.3-6.78-.12-3.29-.2-1.4-.26,1.04.17-5.62,0-8.75.11-14.53-.06.92-.21,1.75-.21.86.05-2.76.04-4.05,0-4.82.03-1.1.05-2.3.1-3.32-.11-.43-.15-1.44-.16-2.7.09.04.14.11.05-3.23.12-3.54.32-.76.42.64-.23-5.25.14-9.83.18-12.83l.1,2.76c-.06-1.65-.06-3.01-.06-4.39l-.23,1.59c.04-1.63.04-3.01.14-2.98-.1-1.03-.23-.4-.36-.47.05-1.29.09-3,.15-5.53,0-.25-.02-.46-.02-.7.08-.13.15.1.17,2.3-.04-1.1-.04-2.46,0-4.09.04-.25.07.22.09.68.28-6.54-.36-3-.36-9.76.18.86.33-1.57.3-2.67,0,1.85-.14,1.71-.27.69l.02-.15-.08-2.99c0,.56-.04,1.17-.08,1.61,0-.13-.02-.22-.03-.37.1-3.15,0-4.21-.06-5.44.09-2.7.24-4.88.33-4.95l-.25-11.03c.12.24.16,2.11.24,3.56-.31-5.89.33-1.06.04-6.47,0,.06-.01-.02-.02,0-.11-4.05.25-5.04.07-10.05-.06.41-.1.71-.13.92,0-1.63-.02-3.25-.04-4.69l.21.87c.06-8.18-.09-17.26-.07-26.44-.1,3.3-.47,2.53-.51-.16l.33-1.08c-.05-.41-.08-.41-.1-.32.03-.39.06-.75.1-1.1-.04.05-.06-.48-.07-1.2.07.31.14.81.18,1.54l-.11-4.17c.1-.26.15.73.27.96-.2-1.69.34-7.17-.02-9.65l.1-.24c.01-9.16-.1-13.34-.11-20.8-.28-.15-.21-3.07-.44-5.31.1-5.5.32-11.58.31-18.21-.14-4.62-.24-1.35-.4-3.45.26-.34.24-6.95.42-3.51-.03-7.94-.04-10.14-.24-20.19-.11,1.1-.15,2.32-.24,1.68-.04-1.82.11-4.14.23-3.9l.02.5c-.37-11.29.78-26.03.25-35.03l.03.5-.27-9.29c.05-4.28.19,2.59.35-.61-.42-10.04.08-15.88-.2-24.12.76-6.44-.03-22.73.46-31.4l-.18.5c-.18-2.22.1-2.69.15-4.34-.14.23-.17,2.43-.26,1.03-.2-18.9.24-39.05.39-58.44.02-3.17-.16-4.3-.33-5.39.05-.3.1-.78.15-1.85-.22.77-.31-1.85-.23-5l.25,1.83c-.1-3.47-.15-6.97-.18-10.47l.04.57c-.03-1.2-.05-3.01-.06-5.03-.03-9.55.06-19.15-.17-28.36.08.84.18.87.18,2.22.24-2.96,0-10.92-.19-10.99.02-2.18.17-.5.27-1.84.14-2.98-.31-7.44-.07-9.03.04-.26.08.83.1,1.37-.12-1.93.02-9.01-.26-7.14.05-2.04.04-3.98.02-5.87,0-.49,0-1.02-.02-1.49-.03-2.44-.06-4.75.03-6.9-.31-2.73.14-9-.3-9.86.24.21.33-2.49.32-5.54.06-1.76.1-3.51.13-4.83l.06.11c.03-6.02-.07-11.06-.2-16.04-.04-4.99-.43-9.55.08-12.47-.06-2.61-.1-5.06-.15-7.59.07-3.98.09-8.76.1-13.53.01,0,.02.08.03.08,0-.39-.02-.68-.03-1.05.02-3.91.06-7.78.15-11.14-.08,1.59-.35-.27-.39-2.12.09-2.43-.3-6.74.1-6.34v.87c.39-1.82.29-6.82.31-10.73l-.43-.55v-1.99c.55-10.24-.32-25.25.34-30.48-.13-2.47-.12-5.52-.25-7.99l.28.16c.08-6.83.12-10.26.06-18.7l.2,1.73c.02-4.75-.82-6.06-.83-10.45l.43-1.29c0-8.32.38-16.7,0-24.95.06.15.19.39.2,1.76.01-3.93.3-15.13-.28-13.75.38-.08.05-8.59-.12-13.08l.28.72c-.35-3.83-.45-3.96-.54-9.26.04-1.25.22-1.08.15.6.15-4.18-.26-3.3-.11-8.33l.18,1.89c.03-4.29-.07-3.96-.28-6.35-.03-.65-.03-1.48-.03-2.36,0,0,0,0,0-.01,0-.07,0-.15,0-.21.02-2.67.17-5.72.36-6.18-.15-.6-.36-2.96-.28-5.48.1-.34.15.58.19,1.05.19-7.17-.32-10.74-.04-15.64.09-.09.14-.42.17-.81-.01,5.7-.03,10.3-.05,9.86.26.03.31-4.58.66-.86-.19-3.73-.61-10.11-.48-14.59.02-.21.05-.42.09-.57l.03.46c.03-1.03,0-1.97-.04-2.85.05-1.44.08-2.33.08-3.72.21-.5.12-5.28.13-7.57-.28.15-.23-2.85-.47-.06.02-.37.03.43.04,1.97,0,.36.01.74.03.98l-.02-.16c0,1.51,0,3.49.01,5.72-.14-1.84-.26-3.75-.1-6.27-.18-1.2-.36-2.52-.45-3.26.4-3.11.62-9.15.86-9.96-.15-7.06-.09-16.56-.61-21.05-.07-2.01.15-2.27.24-3.01.05,1.16.04,2.52.12,3.15-.14-4.01-.04-11.82-.41-12.82.17-5.01.34,2.85.29-4.05l.11.94c.6-13.52-.93-22.25-.15-37.22-.05,1.03-.07,1.56-.13,1.75.35-17.14-.28-35.5.27-52.37.11-4.82-.12-5.38-.3-8.34l.31-1-.35-5.09c-.25-7.19.76-12.25.28-21.35l-.21,1.12c.04-3.24-.11-10.31.12-9.73-.04-.33-.21-1.09-.1-2.33l.16-.08-.27-8.01c.12-6.17.63,1.08.67-7.94-.06-3.35-.45-9.63-.56-8.39,0,1.35-.1,3.43-.26,3.51l-.08-3.09c-.08-.1-.16-.26-.24-.42v-.16Zm-1.7,1066.48l.04.18c-.06-.14-.1-.32-.14-.62-.04-1.53.02-2.04.07-2.24.01.71.02,1.56.03,2.68Zm2.76-855.18l-.04-.17c.06.15.11.32.14.62.04,1.52-.02,2.04-.07,2.24,0-.72-.02-1.56-.03-2.69Zm-1.42-66.11c-.08-1.26-.15-2.82-.15-4.37.05,1.19.1,1.53.15,1.56.04,1.21.08,2.19,0,2.82Zm-.49,18.19s0,.01.01.07c0,.02,0,.03,0,.06v-.13Zm-.15,31.2c-.02-.63-.04-1.28-.06-1.91.03.14.07.1.13-.37l.02-.61.02.39c.02.47.01.95.02,1.42,0,.62-.03,1.35-.06,2.24-.02-.19-.04-.55-.05-.85,0-.42,0-.79,0-1.21l-.03.89Zm.21,33.91c.02.51.03,1.1.06,1.54,0,.3-.01.63-.03.95,0,.08,0,.15,0,.22,0,.18-.03.34-.04.5,0-.94,0-2.06.01-3.22Zm-.82,471.21l.18-2.85c0,.94-.03,2.01-.1,3.48l-.08-.63Zm1.34,435.7c-.04-1.2-.08-2.17,0-2.8.08,1.27.15,2.82.15,4.37-.05-1.19-.1-1.53-.15-1.57Zm.5-21.01s0,0-.01-.05v-.08.13Zm.15-31.18c.03.62.04,1.28.06,1.88-.03-.13-.07-.09-.13.39l-.02.62v-.4c-.03-.47-.03-.95-.04-1.41,0-.64.03-1.37.06-2.27.02.21.04.55.05.87,0,.41,0,.79,0,1.21l.03-.89Zm-.21-33.93c-.02-.5-.03-1.08-.06-1.52,0-.31.01-.64.03-.97,0-.07,0-.13,0-.21.01-.17.02-.34.04-.5,0,.94,0,2.06-.01,3.2Zm.82-471.2l-.18,2.84c0-.92.03-1.99.1-3.47l.08.63Z"/>
      <path class="cls-1" d="m14.87,338.24c0-.85-.04-1.21-.07-1.24.02.78.04,1.44.07,1.24Z"/>
      <path class="cls-1" d="m14.66,176.46v-.92c-.04-.26-.09-.5-.14-.74l.14,1.66Z"/>
      <path class="cls-1" d="m15.08,1310.09l-.02-.61c-.05-.08-.11-.16-.16-.17l.17.78Z"/>
      <path class="cls-1" d="m14.18,392.51v-.16c-.03-.92-.02-.39,0,.16Z"/>
      <path class="cls-1" d="m17.08,526.4c-.1.92-.16,1.89-.19,2.91.02.21.04.46.07.61l.12-3.51Z"/>
      <path class="cls-1" d="m14.52,1101.11c0,.23.02.34.02.62.02-.31.05-.62.06-.89l-.09-.55v.82Z"/>
      <path class="cls-1" d="m15.05,224.37c-.02.14-.02.14-.03.22v.21c0-.16.02-.32.03-.42Z"/>
      <path class="cls-1" d="m14.72,132.68c-.06-3.18-.16.06-.22-.11.1,2.04.13,2.52.22.11Z"/>
      <polygon class="cls-1" points="14.31 305.87 14.4 309.99 14.35 306.96 14.31 305.87"/>
      <polygon class="cls-1" points="14.18 916.77 14.26 920.43 14.28 918.71 14.18 916.77"/>
      <path class="cls-1" d="m16.4,1004.09c0,.85.04,1.21.07,1.26-.02-.78-.04-1.44-.07-1.26Z"/>
      <path class="cls-1" d="m16.61,1165.87v.93c.04.25.08.5.14.73l-.14-1.66Z"/>
      <path class="cls-1" d="m16.19,32.25v.61c.07.08.12.15.17.17l-.17-.78Z"/>
      <path class="cls-1" d="m17.08,949.83v.16c.03.92.02.39,0-.16Z"/>
      <path class="cls-1" d="m14.18,815.95c.1-.93.16-1.9.19-2.92-.02-.21-.04-.46-.07-.59l-.12,3.51Z"/>
      <path class="cls-1" d="m16.75,241.23c0-.22-.02-.36-.02-.63-.02.33-.04.63-.06.9l.09.55v-.82Z"/>
      <path class="cls-1" d="m16.22,1117.97c.01-.15.02-.15.04-.22v-.21c0,.16-.02.32-.04.42Z"/>
      <path class="cls-1" d="m16.89,1209.98c.06,3.19.16-.06.22.13-.1-2.04-.13-2.52-.22-.13Z"/>
      <polygon class="cls-1" points="16.96 1036.46 16.86 1032.34 16.92 1035.38 16.96 1036.46"/>
      <polygon class="cls-1" points="17.09 425.57 17 421.9 16.98 423.63 17.09 425.57"/>
    </g>
  </g>
</svg>