<?xml version="1.0" encoding="UTF-8"?>
<svg xmlns="http://www.w3.org/2000/svg" viewBox="0 0 24 1582.22">
  <defs>
    <style>
      .cls-1 {
        fill: #8cc359;
      }
    </style>
  </defs>
  <g id="_デザイン" data-name="デザイン">
    <circle class="cls-1" cx="12.08" cy="11.87" r="11.63"/>
  </g>
  <g id="_レイヤー_1" data-name="レイヤー 1">
    <g>
      <g>
        <path class="cls-1" d="m10.27,32.37c-.02-.17-.06-.2-.09-.07-.16-.25-.32-.08-.44,2.69l.14,2.79-.12.87v-2.33c-.12,1.3-.02,2.15.05,3.1-.06.22-.11.59-.13,1.14l.23,2.76c-.09.31-.18-1.25-.24.56.1,1.29.21-1.19.28.93-.11,1.31-.2.9-.11,2.47-.06.21-.1-.12-.13-.74.07,1.39.03,3.66.15,4.39-.14,1.36.03,4.67-.2,4.5.04.35.12,1.68.16,2.84-.05-.1-.12.21-.1-.72-.03.86-.03,1.62-.02,2.31-.01,1.48,0,3.79-.17,3.39.16,1.19.16,3.62.17,6.02l-.03.17.03.09c0,1.05.02,2.09.06,3-.02-.17-.06-.51-.05-.78,0,.37-.01.67-.02.95-.05.43-.1.69-.11-.47-.12,2.79,0,1.28.06,1.56-.03.4-.05.77-.07,1.25.13.16.19,1.28.25,2.45-.02.31-.04.61-.09.71.06.4.08-.14.1-.45.02.3.04.57.05.86-.08.33-.09.84-.07,1.49-.1-.06-.16-1.82-.3-1.35.16-.08.16,3.67.3,2.97-.02.32-.04.52-.05.72-.04-.68-.03-1.29-.12.16.03.17.04.42.05.63-.02.18-.05.35-.11.66.13.17.14.57.13,1.1-.03,1.07-.1,2.22-.08,3.1,0,0,0,.03,0,.03-.03,0-.05.05-.09.19,0,.16.03.25.05.36,0,.23,0,.58.02,1.19-.08,1.2-.16-1.08-.16-1.08,0,2.6.18,1.24.29,1.81.05,3.11-.14,1.42-.24,2.46.04,1.71.18,3.09.2,4.38,0,.2,0,.4,0,.61-.02.11-.03.2-.06-.05.03.36.03.81.04,1.26-.02,1.16-.03,2.32-.05,3.17l-.03-.08c.08.22.12.9.14,1.71,0,.24.01.47.02.71.01.65.02,1.34.03,2.02h0s0,0,0,0c0,.24,0,.49,0,.72-.04-.03-.06-.15-.09-.27.03-.15.05-.34.08-.44-.09.22-.13-1.8-.13.11-.02-.22-.04-.46-.07-.9v1.84c.06.43.09,1.01.12,2.21v-.05c0-.39-.01-.77-.1-.3l-.04-.13c0,.11,0,.22,0,.31,0,.05-.01.06-.02.12-.05,3.71.08,4.17.03,7.86.08.74.13.07.21.42-.02.67.02.83.05,1.01,0,.29.01.61.01.86-.05.18-.06.7-.13.56,0-.29.04-1,0-1.44-.02,1.3-.08,2.86-.15,3.38.04-.08.08.06.11.38-.08.68-.15,1.31-.11,2.56,0,.09-.02.12-.02.27.07.59,0,2.15.15,2.19,0,.72-.07.85-.11,1.13.05.86.04,3.29.09,4.29-.07,1.18-.02,1.57.04,2l-.02.5s.03-.16.03-.37c.03.26.06.58.06,1.19l-.17.37c.02,2.86.08,5.97.13,9.13h-.02c.02.96.04,2.01.05,3.04-.05-.28-.09-.75-.14.13.03,1.97.03,4.05.01,6.14l-.1-.13c.02,1.12.04.34.1.21-.02,3.54-.09,7.11-.16,10.33l.15,1.98c0,.08,0,.13-.01.2l-.14-.5c-.2,5,.36,9.01.01,12.83.12,1.32.08-2.72.22-1.54-.02,2.31-.26,4.71-.26,5.42-.09,3.16.25,2.94.19,6.25.02-.17.06-.26.1-.27,0,1.33-.02,2.66-.02,4.01-.05-.04-.09-.22-.1-.72,0-.55.01-.82.03-.79-.02-.75-.05-1.73-.12-.81l.06.3c-.06,1.15-.05,4.31-.15,3.56.06,1.74.1.75.13-.55-.09,2.96,0,4.61-.06,7.66.03-.48.11-.93.11-.45-.02,1.45-.02,2.13,0,2.54-.02.57-.03,1.21-.05,1.74.05.24.08.77.08,1.42-.04-.01-.07-.05-.02,1.71-.06,1.86-.16.4-.21-.34.12,2.77-.07,5.17-.09,6.76l-.05-1.46c.03.87.03,1.59.03,2.32l.12-.84c-.02.86-.02,1.59-.07,1.57.05.55.12.22.18.24-.02.69-.05,1.59-.07,2.92,0,.14,0,.25,0,.37-.04.07-.08-.06-.09-1.22.02.59.02,1.31,0,2.16-.02.12-.03-.13-.04-.36-.14,3.44.18,1.57.18,5.14-.09-.46-.17.83-.15,1.41,0-.98.07-.89.14-.36v.07s.03,1.58.03,1.58c0-.3.02-.61.04-.84,0,.07.01.11.01.19-.05,1.66,0,2.22.03,2.86-.05,1.42-.12,2.57-.17,2.6l.13,5.82c-.06-.13-.09-1.1-.13-1.88.16,3.11-.17.56-.02,3.41,0-.03,0,.02,0,0,.06,2.13-.13,2.65-.04,5.3.03-.22.05-.38.07-.48,0,.86,0,1.71.02,2.47l-.11-.45c-.03,4.31.04,9.08.04,13.92.05-1.74.24-1.33.26.09l-.17.57c.03.2.04.22.05.16-.02.2-.03.39-.05.58.02-.02.03.25.04.63-.04-.16-.07-.44-.09-.81l.05,2.19c-.05.13-.08-.39-.14-.52.1.9-.17,3.78,0,5.08l-.05.13c0,4.83.05,7.03.05,10.97.14.07.11,1.62.23,2.79-.05,2.89-.17,6.1-.16,9.59.07,2.45.12.71.21,1.82-.13.19-.12,3.66-.22,1.85.02,4.18.02,5.34.12,10.63.05-.57.08-1.21.12-.88.02.96-.06,2.18-.12,2.05v-.25c.18,5.94-.41,13.7-.14,18.44v-.26s.13,4.89.13,4.89c-.03,2.26-.1-1.36-.18.32.21,5.29-.04,8.36.1,12.71-.39,3.39.02,11.97-.24,16.52l.09-.26c.09,1.18-.05,1.42-.07,2.29.07-.12.08-1.28.13-.55.1,9.96-.12,20.56-.2,30.78,0,1.66.08,2.27.17,2.83-.03.16-.05.41-.07.98.11-.4.16.98.12,2.64l-.12-.96c.05,1.82.07,3.66.09,5.51l-.02-.3c.02.63.02,1.57.03,2.64.01,5.03-.03,10.1.09,14.93-.04-.44-.09-.45-.09-1.16-.12,1.57,0,5.75.1,5.79,0,1.15-.09.27-.14.98-.07,1.56.16,3.92.04,4.75-.02.13-.04-.43-.05-.72.06,1.02-.01,4.74.13,3.76-.02,1.07-.02,2.1,0,3.09,0,.27,0,.54,0,.8.02,1.28.03,2.5-.01,3.63.16,1.44-.07,4.74.15,5.18-.12-.1-.17,1.32-.16,2.92-.03.92-.05,1.86-.06,2.55l-.03-.07c-.02,3.17.03,5.84.1,8.46.02,2.62.22,5.03-.04,6.55.03,1.37.05,2.67.08,4-.04,2.1-.04,4.62-.05,7.13,0,0,0-.05-.02-.04,0,.2,0,.36.01.55-.01,2.06-.03,4.1-.07,5.85.04-.83.18.15.2,1.12-.05,1.28.15,3.55-.05,3.35v-.46c-.2.95-.15,3.59-.16,5.65l.22.28c0,.35,0,.7,0,1.04-.28,5.4.16,13.31-.18,16.05.07,1.31.06,2.92.13,4.22l-.15-.08c-.04,3.59-.06,5.39-.03,9.84l-.1-.92c-.01,2.51.42,3.21.42,5.51l-.22.69c0,4.39-.2,8.8,0,13.14-.03-.08-.09-.21-.1-.92,0,2.06-.16,7.96.14,7.24-.19.04-.02,4.52.06,6.88l-.14-.37c.18,2.01.23,2.07.28,4.87-.02.65-.12.57-.08-.31-.08,2.19.13,1.74.05,4.39l-.09-1.01c-.01,2.27.04,2.1.14,3.35.01.36.02.78.01,1.25h0s0,.08,0,.11c-.01,1.41-.09,3.01-.18,3.26.08.31.18,1.57.14,2.89-.05.18-.08-.32-.09-.56-.1,3.78.16,5.65.02,8.24-.05.04-.07.21-.09.43,0-3.01.02-5.43.03-5.2-.13-.02-.16,2.41-.34.46.1,1.97.31,5.32.25,7.68-.01.11-.03.22-.05.31l-.02-.25c-.01.55,0,1.04.02,1.51-.02.75-.04,1.23-.04,1.95-.11.27-.06,2.79-.07,3.98.14-.08.12,1.5.24.03,0,.19-.02-.23-.02-1.04,0-.18,0-.4-.01-.51v.08c0-.8,0-1.83,0-3.01.07.97.13,1.97.05,3.3.09.63.19,1.33.23,1.72-.2,1.63-.32,4.82-.44,5.25.08,3.71.04,8.72.31,11.08.04,1.06-.08,1.2-.12,1.59-.03-.61-.02-1.33-.06-1.67.07,2.12.02,6.24.21,6.76-.09,2.64-.17-1.51-.14,2.13l-.06-.49c-.31,7.13.47,11.71.08,19.6.02-.54.03-.82.07-.93-.18,9.04.14,18.7-.14,27.59-.06,2.53.07,2.83.16,4.39l-.16.52.18,2.68c.13,3.79-.39,6.44-.14,11.24l.1-.6c-.02,1.7.06,5.44-.06,5.12.02.17.11.57.05,1.24l-.08.03.14,4.23c-.06,3.25-.32-.57-.34,4.18.03,1.77.23,5.07.29,4.42,0-.71.05-1.81.13-1.84l.04,1.62c.04.06.08.14.12.22v.08c.02.18.06.21.09.07.16.25.5.24.62-2.51l-.14-2.8.12-.86v2.32c.12-1.3.02-2.15-.05-3.09.06-.21.11-.6.13-1.14l-.23-2.76c.09-.31.18,1.26.24-.56-.11-1.29-.21,1.18-.28-.93.11-1.31.2-.9.11-2.47.06-.21.1.13.13.75-.07-1.4-.03-3.66-.16-4.39.14-1.35-.03-4.67.2-4.5-.04-.35-.12-1.68-.16-2.84.05.1.12-.21.1.72.03-.86.03-1.62.02-2.3.01-1.47,0-3.79.17-3.39-.16-1.19-.15-3.62-.17-6.03l.03-.16-.03-.09c0-1.05-.02-2.09-.06-3,.02.18.06.51.04.78,0-.37.01-.66.02-.93.05-.43.1-.69.11.47.11-2.8,0-1.28-.06-1.57.02-.4.05-.77.07-1.24-.13-.16-.19-1.28-.25-2.46.02-.31.04-.61.09-.71-.06-.39-.08.14-.1.46-.02-.31-.03-.57-.05-.86.09-.32.09-.84.07-1.5.1.07.16,1.82.3,1.35-.16.08-.16-3.65-.3-2.97.02-.32.04-.52.05-.71.04.67.03,1.28.12-.18-.03-.16-.04-.42-.05-.63.02-.18.05-.34.11-.66-.13-.16-.14-.57-.13-1.1.03-1.06.1-2.21.07-3.1,0,0,0-.02,0-.03.03,0,.06-.05.1-.19,0-.16-.03-.25-.05-.35,0-.23,0-.57-.02-1.19.08-1.21.16,1.07.16,1.07,0-2.59-.18-1.24-.29-1.81-.05-3.11.14-1.41.24-2.45-.04-1.72-.35-3.27-.38-4.56,0-.2,0-.41,0-.6.02-.11.03-.21.06.04-.02-.34-.03-.81-.04-1.25.02-1.16.03-2.32.06-3.17l.03.08c-.08-.22-.12-.89-.14-1.71,0-.25-.01-.47-.02-.7,0-.66-.02-1.34-.03-2.02v-.02s0,0,0,.01c0-.24,0-.49-.01-.71.04.02.06.14.09.25-.03.16-.05.35-.08.45.09-.22.13,1.8.13-.11.03.23.05.47.07.9v-1.83c-.06-.44-.09-1.01-.12-2.21v.04c.01.39.01.77.1.3l.04.12c0-.1,0-.21,0-.31,0-.05.01-.05.02-.13.05-3.7-.08-4.16-.03-7.85-.08-.73-.13-.07-.21-.41.02-.68-.02-.84-.05-1.01,0-.29-.02-.62-.02-.86.06-.18.06-.7.13-.57,0,.29-.04,1.01,0,1.45.02-1.29.08-2.86.15-3.38-.04.07-.08-.07-.11-.37.08-.67.15-1.31.11-2.57,0-.08.01-.11.02-.26-.07-.59,0-2.16-.15-2.19,0-.72.07-.86.11-1.13-.05-.87-.04-3.29-.09-4.29.06-1.19.02-1.59-.04-2.01l.02-.5s-.03.16-.03.37c-.03-.27-.06-.58-.06-1.19l.17-.37c-.02-2.86-.08-5.97-.13-9.13h.02c-.02-.96-.03-2.02-.04-3.05.04.29.09.76.14-.12-.03-1.98-.03-4.06-.02-6.14l.1.14c-.02-1.12-.04-.34-.1-.22.02-3.53.09-7.1.16-10.32l-.15-1.98c0-.1,0-.13.02-.21l.14.51c.2-5-.36-9.01-.02-12.83-.12-1.31-.08,2.72-.22,1.54.02-2.3.27-4.7.27-5.41.09-3.16-.25-2.94-.19-6.24-.02.16-.06.26-.1.27,0-1.33.02-2.66.02-4.01.04.04.09.22.1.72,0,.55-.01.82-.03.8.02.75.05,1.72.11.8l-.06-.3c.06-1.14.05-4.3.15-3.57-.06-1.73-.1-.74-.13.55.09-2.96,0-4.61.06-7.65-.03.48-.11.92-.11.45.02-1.45.02-2.13,0-2.54.02-.58.02-1.21.05-1.75-.06-.23-.08-.76-.08-1.42.05.02.07.06.02-1.7.06-1.86.16-.4.21.34-.12-2.77.07-5.18.09-6.76l.05,1.45c-.03-.87-.03-1.59-.03-2.31l-.12.84c.02-.86.02-1.59.07-1.57-.05-.54-.12-.21-.18-.25.02-.68.05-1.58.08-2.91,0-.13,0-.24,0-.37.04-.07.08.05.09,1.21-.02-.58-.02-1.3,0-2.15.02-.13.03.11.04.36.14-3.44-.18-1.58-.18-5.14.09.45.17-.83.15-1.41,0,.98-.07.9-.14.36v-.08s-.03-1.57-.03-1.57c0,.3-.02.61-.04.85,0-.07-.01-.11-.01-.19.05-1.66,0-2.22-.03-2.86.05-1.42.12-2.57.17-2.6l-.13-5.81c.06.13.08,1.11.12,1.87-.16-3.1.17-.56.02-3.41,0,.03,0-.01-.01,0-.06-2.13.13-2.65.04-5.29-.03.22-.05.37-.07.48,0-.86,0-1.71-.02-2.47l.11.46c.03-4.31-.04-9.09-.04-13.93-.05,1.74-.24,1.33-.26-.08l.17-.57c-.02-.22-.04-.22-.05-.17.02-.2.03-.4.05-.58-.02.02-.03-.25-.04-.63.04.16.07.43.09.81l-.06-2.19c.05-.14.08.39.14.51-.1-.89.17-3.77,0-5.08l.05-.13c0-4.82-.05-7.02-.05-10.95-.14-.08-.11-1.62-.23-2.8.05-2.89.17-6.1.16-9.59-.07-2.44-.12-.71-.21-1.81.13-.18.12-3.66.21-1.85-.02-4.18-.02-5.34-.12-10.63-.06.58-.08,1.22-.12.89-.02-.96.06-2.18.12-2.06v.27c-.18-5.94.41-13.71.14-18.45v.26s-.12-4.89-.12-4.89c.02-2.26.1,1.36.18-.32-.21-5.29.04-8.36-.1-12.7.39-3.39-.02-11.97.23-16.54l-.09.27c-.09-1.17.05-1.42.08-2.29-.07.12-.09,1.28-.13.54-.1-9.95.12-20.56.2-30.78.01-1.67-.08-2.27-.17-2.84.03-.16.05-.41.08-.98-.11.4-.16-.98-.12-2.63l.13.96c-.05-1.83-.08-3.67-.09-5.52l.02.3c-.02-.63-.02-1.59-.03-2.65-.01-5.03.03-10.09-.09-14.93.04.44.09.46.09,1.17.12-1.56,0-5.75-.1-5.79,0-1.15.09-.27.14-.97.07-1.57-.16-3.92-.04-4.76.02-.14.04.43.05.72-.06-1.02.01-4.74-.13-3.76.02-1.07.02-2.1,0-3.09,0-.26,0-.54,0-.78-.02-1.28-.03-2.5.01-3.63-.16-1.44.07-4.74-.15-5.19.12.11.17-1.31.16-2.92.03-.93.05-1.85.06-2.54l.03.06c.02-3.17-.04-5.82-.1-8.45-.02-2.63-.22-5.03.04-6.57-.03-1.37-.05-2.66-.08-4,.04-2.1.04-4.61.05-7.13,0,0,.01.04.02.04,0-.2-.01-.36-.01-.55.01-2.06.03-4.1.07-5.87-.04.84-.18-.14-.2-1.12.05-1.28-.16-3.55.05-3.34v.46c.2-.96.15-3.59.16-5.65l-.22-.29v-1.05c.28-5.4-.16-13.3.17-16.05-.07-1.3-.06-2.91-.13-4.21l.14.08c.04-3.6.06-5.4.03-9.85l.1.91c.01-2.5-.42-3.19-.42-5.5l.22-.68c0-4.38.2-8.8,0-13.14.03.08.1.2.1.93,0-2.07.15-7.97-.15-7.24.19-.04.02-4.52-.06-6.89l.14.38c-.18-2.02-.23-2.09-.28-4.88.02-.66.11-.57.08.31.08-2.2-.13-1.74-.05-4.39l.09,1c.01-2.26-.04-2.09-.14-3.35-.01-.34-.02-.78-.02-1.24,0,0,0,0,0,0,0-.04,0-.08,0-.11.01-1.41.09-3.01.18-3.26-.08-.31-.18-1.56-.15-2.89.05-.18.08.31.09.55.1-3.77-.16-5.65-.02-8.24.05-.05.07-.22.08-.43,0,3-.01,5.43-.03,5.19.13.02.16-2.41.34-.45-.1-1.96-.31-5.32-.25-7.69.01-.11.03-.22.05-.3v.24c.03-.54.02-1.04,0-1.5.02-.76.04-1.23.04-1.96.11-.27.06-2.78.07-3.98-.14.08-.12-1.5-.24-.03.01-.19.02.23.02,1.04,0,.19,0,.39.01.52v-.08c-.01.8,0,1.84,0,3.01-.07-.97-.13-1.98-.05-3.3-.09-.63-.19-1.33-.23-1.72.2-1.64.32-4.82.44-5.24-.08-3.72-.05-8.72-.31-11.09-.04-1.06.08-1.19.12-1.59.03.61.02,1.33.06,1.66-.07-2.11-.02-6.23-.21-6.75.09-2.64.17,1.5.15-2.13l.06.49c.31-7.12-.47-11.72-.08-19.6-.03.54-.04.82-.07.92.18-9.02-.14-18.69.14-27.58.06-2.54-.06-2.83-.16-4.39l.16-.52-.18-2.68c-.13-3.79.39-6.45.14-11.24l-.11.59c.02-1.71-.06-5.43.06-5.12-.02-.17-.11-.57-.05-1.23l.08-.04-.14-4.22c.06-3.25.32.57.34-4.18-.03-1.77-.23-5.07-.29-4.42,0,.71-.05,1.81-.13,1.85l-.04-1.63c-.04-.05-.08-.14-.12-.22v-.08Zm-.87,561.67l.02.1c-.03-.07-.05-.17-.07-.33-.02-.81,0-1.07.04-1.18,0,.37,0,.82.02,1.41Zm1.41-450.38l-.02-.09c.03.08.05.17.07.33.02.8,0,1.07-.04,1.18,0-.38,0-.82-.02-1.42Zm-.73-34.82c-.04-.66-.07-1.48-.08-2.3.02.63.05.81.08.82.02.64.04,1.15,0,1.48Zm-.25,9.58s0,0,0,.04c0,.01,0,.02,0,.03v-.07Zm-.08,16.43c-.01-.33-.02-.68-.03-1.01.02.07.04.05.07-.19v-.32s.02.2.02.2c0,.25,0,.5.01.75,0,.33-.01.71-.03,1.18-.01-.1-.02-.29-.03-.45,0-.22,0-.42,0-.64v.47Zm.11,17.86c.01.27.02.58.03.81,0,.16,0,.33-.01.5,0,.04,0,.08,0,.11,0,.1-.01.18-.02.27,0-.49,0-1.09,0-1.69Zm-.42,248.16l.09-1.5c0,.49-.01,1.06-.05,1.83l-.04-.33Zm.69,229.46c-.02-.63-.04-1.15,0-1.48.04.67.08,1.48.08,2.3-.03-.63-.05-.81-.08-.83Zm.26-11.06s0,0,0-.02v-.04.07Zm.08-16.42c.01.33.02.67.03.99-.02-.07-.04-.05-.06.21v.33s-.02-.21-.02-.21c0-.25,0-.5-.01-.74,0-.34.02-.72.03-1.19.01.11.02.29.03.46,0,.22,0,.42,0,.64v-.47Zm-.11-17.87c0-.26-.02-.57-.03-.8,0-.16,0-.34.01-.51,0-.04,0-.07,0-.11,0-.09.01-.18.02-.27,0,.49,0,1.09,0,1.69Zm.42-248.16l-.09,1.5c0-.48.01-1.05.05-1.83l.04.33Z"/>
        <path class="cls-1" d="m9.71,193.51c0-.45-.02-.64-.04-.65.01.41.02.76.04.65Z"/>
        <path class="cls-1" d="m9.6,108.31v-.48c-.02-.14-.04-.27-.07-.39l.07.87Z"/>
        <path class="cls-1" d="m9.82,705.34v-.32s-.06-.08-.09-.09l.09.41Z"/>
        <path class="cls-1" d="m9.36,222.1v-.08c-.01-.48-.01-.2,0,.08Z"/>
        <path class="cls-1" d="m10.84,292.61c-.05.48-.08.99-.1,1.53.01.11.02.24.04.32l.06-1.85Z"/>
        <path class="cls-1" d="m9.53,595.28c0,.12,0,.18,0,.33.01-.16.02-.33.03-.47l-.04-.29v.43Z"/>
        <path class="cls-1" d="m9.8,133.54c0,.07-.01.07-.02.11v.11c0-.08,0-.17.02-.22Z"/>
        <path class="cls-1" d="m9.63,85.25c-.03-1.68-.08.03-.11-.06.05,1.07.07,1.33.11.06Z"/>
        <polygon class="cls-1" points="9.42 176.46 9.47 178.64 9.44 177.04 9.42 176.46"/>
        <polygon class="cls-1" points="9.36 498.2 9.4 500.13 9.41 499.22 9.36 498.2"/>
        <path class="cls-1" d="m10.49,544.18c0,.45.02.64.04.66-.01-.41-.02-.76-.04-.66Z"/>
        <path class="cls-1" d="m10.6,629.39v.49c.02.13.04.27.07.39l-.07-.87Z"/>
        <path class="cls-1" d="m10.38,32.36v.32s.06.08.09.09l-.09-.41Z"/>
        <path class="cls-1" d="m10.84,515.61v.08c.01.48,0,.2,0-.08Z"/>
        <path class="cls-1" d="m9.36,445.1c.05-.49.08-1,.1-1.54-.01-.11-.02-.24-.04-.31l-.06,1.85Z"/>
        <path class="cls-1" d="m10.67,142.42c0-.11,0-.19,0-.33-.01.17-.02.33-.03.48l.05.29v-.43Z"/>
        <path class="cls-1" d="m10.4,604.16c0-.08.01-.08.02-.11v-.11c0,.08,0,.17-.02.22Z"/>
        <path class="cls-1" d="m10.75,652.62c.03,1.68.08-.03.11.07-.05-1.07-.07-1.33-.11-.07Z"/>
        <polygon class="cls-1" points="10.78 561.23 10.73 559.06 10.76 560.67 10.78 561.23"/>
        <polygon class="cls-1" points="10.84 239.51 10.8 237.57 10.79 238.48 10.84 239.51"/>
      </g>
      <g>
        <path class="cls-1" d="m14.07,32.37c-.02-.17-.06-.2-.09-.07-.16-.25-.32-.08-.44,2.69l.14,2.79-.12.87v-2.33c-.12,1.3-.02,2.15.05,3.1-.06.22-.11.59-.13,1.14l.23,2.76c-.09.31-.18-1.25-.24.56.1,1.29.21-1.19.28.93-.11,1.31-.2.9-.11,2.47-.06.21-.1-.12-.13-.74.07,1.39.03,3.66.15,4.39-.14,1.36.03,4.67-.2,4.5.04.35.12,1.68.16,2.84-.05-.1-.12.21-.1-.72-.03.86-.03,1.62-.02,2.31-.01,1.48,0,3.79-.17,3.39.16,1.19.16,3.62.17,6.02l-.03.17.03.09c0,1.05.02,2.09.06,3-.02-.17-.06-.51-.05-.78,0,.37-.01.67-.02.95-.05.43-.1.69-.11-.47-.12,2.79,0,1.28.06,1.56-.03.4-.05.77-.07,1.25.13.16.19,1.28.25,2.45-.02.31-.04.61-.09.71.06.4.08-.14.1-.45.02.3.04.57.05.86-.08.33-.09.84-.07,1.49-.1-.06-.16-1.82-.3-1.35.16-.08.16,3.67.3,2.97-.02.32-.04.52-.05.72-.04-.68-.03-1.29-.12.16.03.17.04.42.05.63-.02.18-.05.35-.11.66.13.17.14.57.13,1.1-.03,1.07-.1,2.22-.08,3.1,0,0,0,.03,0,.03-.03,0-.05.05-.09.19,0,.16.03.25.05.36,0,.23,0,.58.02,1.19-.08,1.2-.16-1.08-.16-1.08,0,2.6.18,1.24.29,1.81.05,3.11-.14,1.42-.24,2.46.04,1.71.18,3.09.2,4.38,0,.2,0,.4,0,.61-.02.11-.03.2-.06-.05.03.36.03.81.04,1.26-.02,1.16-.03,2.32-.05,3.17l-.03-.08c.08.22.12.9.14,1.71,0,.24.01.47.02.71.01.65.02,1.34.03,2.02h0s0,0,0,0c0,.24,0,.49,0,.72-.04-.03-.06-.15-.09-.27.03-.15.05-.34.08-.44-.09.22-.13-1.8-.13.11-.02-.22-.04-.46-.07-.9v1.84c.06.43.09,1.01.12,2.21v-.05c0-.39-.01-.77-.1-.3l-.04-.13c0,.11,0,.22,0,.31,0,.05-.01.06-.02.12-.05,3.71.08,4.17.03,7.86.08.74.13.07.21.42-.02.67.02.83.05,1.01,0,.29.01.61.01.86-.05.18-.06.7-.13.56,0-.29.04-1,0-1.44-.02,1.3-.08,2.86-.15,3.38.04-.08.08.06.11.38-.08.68-.15,1.31-.11,2.56,0,.09-.02.12-.02.27.07.59,0,2.15.15,2.19,0,.72-.07.85-.11,1.13.05.86.04,3.29.09,4.29-.07,1.18-.02,1.57.04,2l-.02.5s.03-.16.03-.37c.03.26.06.58.06,1.19l-.17.37c.02,2.86.08,5.97.13,9.13h-.02c.02.96.04,2.01.05,3.04-.05-.28-.09-.75-.14.13.03,1.97.03,4.05.01,6.14l-.1-.13c.02,1.12.04.34.1.21-.02,3.54-.09,7.11-.16,10.33l.15,1.98c0,.08,0,.13-.01.2l-.14-.5c-.2,5,.36,9.01.01,12.83.12,1.32.08-2.72.22-1.54-.02,2.31-.26,4.71-.26,5.42-.09,3.16.25,2.94.19,6.25.02-.17.06-.26.1-.27,0,1.33-.02,2.66-.02,4.01-.05-.04-.09-.22-.1-.72,0-.55.01-.82.03-.79-.02-.75-.05-1.73-.12-.81l.06.3c-.06,1.15-.05,4.31-.15,3.56.06,1.74.1.75.13-.55-.09,2.96,0,4.61-.06,7.66.03-.48.11-.93.11-.45-.02,1.45-.02,2.13,0,2.54-.02.57-.03,1.21-.05,1.74.05.24.08.77.08,1.42-.04-.01-.07-.05-.02,1.71-.06,1.86-.16.4-.21-.34.12,2.77-.07,5.17-.09,6.76l-.05-1.46c.03.87.03,1.59.03,2.32l.12-.84c-.02.86-.02,1.59-.07,1.57.05.55.12.22.18.24-.02.69-.05,1.59-.07,2.92,0,.14,0,.25,0,.37-.04.07-.08-.06-.09-1.22.02.59.02,1.31,0,2.16-.02.12-.03-.13-.04-.36-.14,3.44.18,1.57.18,5.14-.09-.46-.17.83-.15,1.41,0-.98.07-.89.14-.36v.07s.03,1.58.03,1.58c0-.3.02-.61.04-.84,0,.07.01.11.01.19-.05,1.66,0,2.22.03,2.86-.05,1.42-.12,2.57-.17,2.6l.13,5.82c-.06-.13-.09-1.1-.13-1.88.16,3.11-.17.56-.02,3.41,0-.03,0,.02,0,0,.06,2.13-.13,2.65-.04,5.3.03-.22.05-.38.07-.48,0,.86,0,1.71.02,2.47l-.11-.45c-.03,4.31.04,9.08.04,13.92.05-1.74.24-1.33.26.09l-.17.57c.03.2.04.22.05.16-.02.2-.03.39-.05.58.02-.02.03.25.04.63-.04-.16-.07-.44-.09-.81l.05,2.19c-.05.13-.08-.39-.14-.52.1.9-.17,3.78,0,5.08l-.05.13c0,4.83.05,7.03.05,10.97.14.07.11,1.62.23,2.79-.05,2.89-.17,6.1-.16,9.59.07,2.45.12.71.21,1.82-.13.19-.12,3.66-.22,1.85.02,4.18.02,5.34.12,10.63.05-.57.08-1.21.12-.88.02.96-.06,2.18-.12,2.05v-.25c.18,5.94-.41,13.7-.14,18.44v-.26s.13,4.89.13,4.89c-.03,2.26-.1-1.36-.18.32.21,5.29-.04,8.36.1,12.71-.39,3.39.02,11.97-.24,16.52l.09-.26c.09,1.18-.05,1.42-.07,2.29.07-.12.08-1.28.13-.55.1,9.96-.12,20.56-.2,30.78,0,1.66.08,2.27.17,2.83-.03.16-.05.41-.07.98.11-.4.16.98.12,2.64l-.12-.96c.05,1.82.07,3.66.09,5.51l-.02-.3c.02.63.02,1.57.03,2.64.01,5.03-.03,10.1.09,14.93-.04-.44-.09-.45-.09-1.16-.12,1.57,0,5.75.1,5.79,0,1.15-.09.27-.14.98-.07,1.56.16,3.92.04,4.75-.02.13-.04-.43-.05-.72.06,1.02-.01,4.74.13,3.76-.02,1.07-.02,2.1,0,3.09,0,.27,0,.54,0,.8.02,1.28.03,2.5-.01,3.63.16,1.44-.07,4.74.15,5.18-.12-.1-.17,1.32-.16,2.92-.03.92-.05,1.86-.06,2.55l-.03-.07c-.02,3.17.03,5.84.1,8.46.02,2.62.22,5.03-.04,6.55.03,1.37.05,2.67.08,4-.04,2.1-.04,4.62-.05,7.13,0,0,0-.05-.02-.04,0,.2,0,.36.01.55-.01,2.06-.03,4.1-.07,5.85.04-.83.18.15.2,1.12-.05,1.28.15,3.55-.05,3.35v-.46c-.2.95-.15,3.59-.16,5.65l.22.28c0,.35,0,.7,0,1.04-.28,5.4.16,13.31-.18,16.05.07,1.31.06,2.92.13,4.22l-.15-.08c-.04,3.59-.06,5.39-.03,9.84l-.1-.92c-.01,2.51.42,3.21.42,5.51l-.22.69c0,4.39-.2,8.8,0,13.14-.03-.08-.09-.21-.1-.92,0,2.06-.16,7.96.14,7.24-.19.04-.02,4.52.06,6.88l-.14-.37c.18,2.01.23,2.07.28,4.87-.02.65-.12.57-.08-.31-.08,2.19.13,1.74.05,4.39l-.09-1.01c-.01,2.27.04,2.1.14,3.35.01.36.02.78.01,1.25h0s0,.08,0,.11c-.01,1.41-.09,3.01-.18,3.26.08.31.18,1.57.14,2.89-.05.18-.08-.32-.09-.56-.1,3.78.16,5.65.02,8.24-.05.04-.07.21-.09.43,0-3.01.02-5.43.03-5.2-.13-.02-.16,2.41-.34.46.1,1.97.31,5.32.25,7.68-.01.11-.03.22-.05.31l-.02-.25c-.01.55,0,1.04.02,1.51-.02.75-.04,1.23-.04,1.95-.11.27-.06,2.79-.07,3.98.14-.08.12,1.5.24.03,0,.19-.02-.23-.02-1.04,0-.18,0-.4-.01-.51v.08c0-.8,0-1.83,0-3.01.07.97.13,1.97.05,3.3.09.63.19,1.33.23,1.72-.2,1.63-.32,4.82-.44,5.25.08,3.71.04,8.72.31,11.08.04,1.06-.08,1.2-.12,1.59-.03-.61-.02-1.33-.06-1.67.07,2.12.02,6.24.21,6.76-.09,2.64-.17-1.51-.14,2.13l-.06-.49c-.31,7.13.47,11.71.08,19.6.02-.54.03-.82.07-.93-.18,9.04.14,18.7-.14,27.59-.06,2.53.07,2.83.16,4.39l-.16.52.18,2.68c.13,3.79-.39,6.44-.14,11.24l.1-.6c-.02,1.7.06,5.44-.06,5.12.02.17.11.57.05,1.24l-.08.03.14,4.23c-.06,3.25-.32-.57-.34,4.18.03,1.77.23,5.07.29,4.42,0-.71.05-1.81.13-1.84l.04,1.62c.04.06.08.14.12.22v.08c.02.18.06.21.09.07.16.25.5.24.62-2.51l-.14-2.8.12-.86v2.32c.12-1.3.02-2.15-.05-3.09.06-.21.11-.6.13-1.14l-.23-2.76c.09-.31.18,1.26.24-.56-.11-1.29-.21,1.18-.28-.93.11-1.31.2-.9.11-2.47.06-.21.1.13.13.75-.07-1.4-.03-3.66-.16-4.39.14-1.35-.03-4.67.2-4.5-.04-.35-.12-1.68-.16-2.84.05.1.12-.21.1.72.03-.86.03-1.62.02-2.3.01-1.47,0-3.79.17-3.39-.16-1.19-.15-3.62-.17-6.03l.03-.16-.03-.09c0-1.05-.02-2.09-.06-3,.02.18.06.51.04.78,0-.37.01-.66.02-.93.05-.43.1-.69.11.47.11-2.8,0-1.28-.06-1.57.02-.4.05-.77.07-1.24-.13-.16-.19-1.28-.25-2.46.02-.31.04-.61.09-.71-.06-.39-.08.14-.1.46-.02-.31-.03-.57-.05-.86.09-.32.09-.84.07-1.5.1.07.16,1.82.3,1.35-.16.08-.16-3.65-.3-2.97.02-.32.04-.52.05-.71.04.67.03,1.28.12-.18-.03-.16-.04-.42-.05-.63.02-.18.05-.34.11-.66-.13-.16-.14-.57-.13-1.1.03-1.06.1-2.21.07-3.1,0,0,0-.02,0-.03.03,0,.06-.05.1-.19,0-.16-.03-.25-.05-.35,0-.23,0-.57-.02-1.19.08-1.21.16,1.07.16,1.07,0-2.59-.18-1.24-.29-1.81-.05-3.11.14-1.41.24-2.45-.04-1.72-.35-3.27-.38-4.56,0-.2,0-.41,0-.6.02-.11.03-.21.06.04-.02-.34-.03-.81-.04-1.25.02-1.16.03-2.32.06-3.17l.03.08c-.08-.22-.12-.89-.14-1.71,0-.25-.01-.47-.02-.7,0-.66-.02-1.34-.03-2.02v-.02s0,0,0,.01c0-.24,0-.49-.01-.71.04.02.06.14.09.25-.03.16-.05.35-.08.45.09-.22.13,1.8.13-.11.03.23.05.47.07.9v-1.83c-.06-.44-.09-1.01-.12-2.21v.04c.01.39.01.77.1.3l.04.12c0-.1,0-.21,0-.31,0-.05.01-.05.02-.13.05-3.7-.08-4.16-.03-7.85-.08-.73-.13-.07-.21-.41.02-.68-.02-.84-.05-1.01,0-.29-.02-.62-.02-.86.06-.18.06-.7.13-.57,0,.29-.04,1.01,0,1.45.02-1.29.08-2.86.15-3.38-.04.07-.08-.07-.11-.37.08-.67.15-1.31.11-2.57,0-.08.01-.11.02-.26-.07-.59,0-2.16-.15-2.19,0-.72.07-.86.11-1.13-.05-.87-.04-3.29-.09-4.29.06-1.19.02-1.59-.04-2.01l.02-.5s-.03.16-.03.37c-.03-.27-.06-.58-.06-1.19l.17-.37c-.02-2.86-.08-5.97-.13-9.13h.02c-.02-.96-.03-2.02-.04-3.05.04.29.09.76.14-.12-.03-1.98-.03-4.06-.02-6.14l.1.14c-.02-1.12-.04-.34-.1-.22.02-3.53.09-7.1.16-10.32l-.15-1.98c0-.1,0-.13.02-.21l.14.51c.2-5-.36-9.01-.02-12.83-.12-1.31-.08,2.72-.22,1.54.02-2.3.27-4.7.27-5.41.09-3.16-.25-2.94-.19-6.24-.02.16-.06.26-.1.27,0-1.33.02-2.66.02-4.01.04.04.09.22.1.72,0,.55-.01.82-.03.8.02.75.05,1.72.11.8l-.06-.3c.06-1.14.05-4.3.15-3.57-.06-1.73-.1-.74-.13.55.09-2.96,0-4.61.06-7.65-.03.48-.11.92-.11.45.02-1.45.02-2.13,0-2.54.02-.58.02-1.21.05-1.75-.06-.23-.08-.76-.08-1.42.05.02.07.06.02-1.7.06-1.86.16-.4.21.34-.12-2.77.07-5.18.09-6.76l.05,1.45c-.03-.87-.03-1.59-.03-2.31l-.12.84c.02-.86.02-1.59.07-1.57-.05-.54-.12-.21-.18-.25.02-.68.05-1.58.08-2.91,0-.13,0-.24,0-.37.04-.07.08.05.09,1.21-.02-.58-.02-1.3,0-2.15.02-.13.03.11.04.36.14-3.44-.18-1.58-.18-5.14.09.45.17-.83.15-1.41,0,.98-.07.9-.14.36v-.08s-.03-1.57-.03-1.57c0,.3-.02.61-.04.85,0-.07-.01-.11-.01-.19.05-1.66,0-2.22-.03-2.86.05-1.42.12-2.57.17-2.6l-.13-5.81c.06.13.08,1.11.12,1.87-.16-3.1.17-.56.02-3.41,0,.03,0-.01-.01,0-.06-2.13.13-2.65.04-5.29-.03.22-.05.37-.07.48,0-.86,0-1.71-.02-2.47l.11.46c.03-4.31-.04-9.09-.04-13.93-.05,1.74-.24,1.33-.26-.08l.17-.57c-.02-.22-.04-.22-.05-.17.02-.2.03-.4.05-.58-.02.02-.03-.25-.04-.63.04.16.07.43.09.81l-.06-2.19c.05-.14.08.39.14.51-.1-.89.17-3.77,0-5.08l.05-.13c0-4.82-.05-7.02-.05-10.95-.14-.08-.11-1.62-.23-2.8.05-2.89.17-6.1.16-9.59-.07-2.44-.12-.71-.21-1.81.13-.18.12-3.66.21-1.85-.02-4.18-.02-5.34-.12-10.63-.06.58-.08,1.22-.12.89-.02-.96.06-2.18.12-2.06v.27c-.18-5.94.41-13.71.14-18.45v.26s-.12-4.89-.12-4.89c.02-2.26.1,1.36.18-.32-.21-5.29.04-8.36-.1-12.7.39-3.39-.02-11.97.23-16.54l-.09.27c-.09-1.17.05-1.42.08-2.29-.07.12-.09,1.28-.13.54-.1-9.95.12-20.56.2-30.78.01-1.67-.08-2.27-.17-2.84.03-.16.05-.41.08-.98-.11.4-.16-.98-.12-2.63l.13.96c-.05-1.83-.08-3.67-.09-5.52l.02.3c-.02-.63-.02-1.59-.03-2.65-.01-5.03.03-10.09-.09-14.93.04.44.09.46.09,1.17.12-1.56,0-5.75-.1-5.79,0-1.15.09-.27.14-.97.07-1.57-.16-3.92-.04-4.76.02-.14.04.43.05.72-.06-1.02.01-4.74-.13-3.76.02-1.07.02-2.1,0-3.09,0-.26,0-.54,0-.78-.02-1.28-.03-2.5.01-3.63-.16-1.44.07-4.74-.15-5.19.12.11.17-1.31.16-2.92.03-.93.05-1.85.06-2.54l.03.06c.02-3.17-.04-5.82-.1-8.45-.02-2.63-.22-5.03.04-6.57-.03-1.37-.05-2.66-.08-4,.04-2.1.04-4.61.05-7.13,0,0,.01.04.02.04,0-.2-.01-.36-.01-.55.01-2.06.03-4.1.07-5.87-.04.84-.18-.14-.2-1.12.05-1.28-.16-3.55.05-3.34v.46c.2-.96.15-3.59.16-5.65l-.22-.29v-1.05c.28-5.4-.16-13.3.17-16.05-.07-1.3-.06-2.91-.13-4.21l.14.08c.04-3.6.06-5.4.03-9.85l.1.91c.01-2.5-.42-3.19-.42-5.5l.22-.68c0-4.38.2-8.8,0-13.14.03.08.1.2.1.93,0-2.07.15-7.97-.15-7.24.19-.04.02-4.52-.06-6.89l.14.38c-.18-2.02-.23-2.09-.28-4.88.02-.66.11-.57.08.31.08-2.2-.13-1.74-.05-4.39l.09,1c.01-2.26-.04-2.09-.14-3.35-.01-.34-.02-.78-.02-1.24,0,0,0,0,0,0,0-.04,0-.08,0-.11.01-1.41.09-3.01.18-3.26-.08-.31-.18-1.56-.15-2.89.05-.18.08.31.09.55.1-3.77-.16-5.65-.02-8.24.05-.05.07-.22.08-.43,0,3-.01,5.43-.03,5.19.13.02.16-2.41.34-.45-.1-1.96-.31-5.32-.25-7.69.01-.11.03-.22.05-.3v.24c.03-.54.02-1.04,0-1.5.02-.76.04-1.23.04-1.96.11-.27.06-2.78.07-3.98-.14.08-.12-1.5-.24-.03.01-.19.02.23.02,1.04,0,.19,0,.39.01.52v-.08c-.01.8,0,1.84,0,3.01-.07-.97-.13-1.98-.05-3.3-.09-.63-.19-1.33-.23-1.72.2-1.64.32-4.82.44-5.24-.08-3.72-.05-8.72-.31-11.09-.04-1.06.08-1.19.12-1.59.03.61.02,1.33.06,1.66-.07-2.11-.02-6.23-.21-6.75.09-2.64.17,1.5.15-2.13l.06.49c.31-7.12-.47-11.72-.08-19.6-.03.54-.04.82-.07.92.18-9.02-.14-18.69.14-27.58.06-2.54-.06-2.83-.16-4.39l.16-.52-.18-2.68c-.13-3.79.39-6.45.14-11.24l-.11.59c.02-1.71-.06-5.43.06-5.12-.02-.17-.11-.57-.05-1.23l.08-.04-.14-4.22c.06-3.25.32.57.34-4.18-.03-1.77-.23-5.07-.29-4.42,0,.71-.05,1.81-.13,1.85l-.04-1.63c-.04-.05-.08-.14-.12-.22v-.08Zm-.87,561.67l.02.1c-.03-.07-.05-.17-.07-.33-.02-.81,0-1.07.04-1.18,0,.37,0,.82.02,1.41Zm1.41-450.38l-.02-.09c.03.08.05.17.07.33.02.8,0,1.07-.04,1.18,0-.38,0-.82-.02-1.42Zm-.73-34.82c-.04-.66-.07-1.48-.08-2.3.02.63.05.81.08.82.02.64.04,1.15,0,1.48Zm-.25,9.58s0,0,0,.04c0,.01,0,.02,0,.03v-.07Zm-.08,16.43c-.01-.33-.02-.68-.03-1.01.02.07.04.05.07-.19v-.32s.02.2.02.2c0,.25,0,.5.01.75,0,.33-.01.71-.03,1.18-.01-.1-.02-.29-.03-.45,0-.22,0-.42,0-.64v.47Zm.11,17.86c.01.27.02.58.03.81,0,.16,0,.33-.01.5,0,.04,0,.08,0,.11,0,.1-.01.18-.02.27,0-.49,0-1.09,0-1.69Zm-.42,248.16l.09-1.5c0,.49-.01,1.06-.05,1.83l-.04-.33Zm.69,229.46c-.02-.63-.04-1.15,0-1.48.04.67.08,1.48.08,2.3-.03-.63-.05-.81-.08-.83Zm.26-11.06s0,0,0-.02v-.04.07Zm.08-16.42c.01.33.02.67.03.99-.02-.07-.04-.05-.06.21v.33s-.02-.21-.02-.21c0-.25,0-.5-.01-.74,0-.34.02-.72.03-1.19.01.11.02.29.03.46,0,.22,0,.42,0,.64v-.47Zm-.11-17.87c0-.26-.02-.57-.03-.8,0-.16,0-.34.01-.51,0-.04,0-.07,0-.11,0-.09.01-.18.02-.27,0,.49,0,1.09,0,1.69Zm.42-248.16l-.09,1.5c0-.48.01-1.05.05-1.83l.04.33Z"/>
        <path class="cls-1" d="m13.51,193.51c0-.45-.02-.64-.04-.65.01.41.02.76.04.65Z"/>
        <path class="cls-1" d="m13.4,108.31v-.48c-.02-.14-.04-.27-.07-.39l.07.87Z"/>
        <path class="cls-1" d="m13.62,705.34v-.32s-.06-.08-.09-.09l.09.41Z"/>
        <path class="cls-1" d="m13.16,222.1v-.08c-.01-.48-.01-.2,0,.08Z"/>
        <path class="cls-1" d="m14.64,292.61c-.05.48-.08.99-.1,1.53.01.11.02.24.04.32l.06-1.85Z"/>
        <path class="cls-1" d="m13.33,595.28c0,.12,0,.18,0,.33.01-.16.02-.33.03-.47l-.04-.29v.43Z"/>
        <path class="cls-1" d="m13.6,133.54c0,.07-.01.07-.02.11v.11c0-.08,0-.17.02-.22Z"/>
        <path class="cls-1" d="m13.43,85.25c-.03-1.68-.08.03-.11-.06.05,1.07.07,1.33.11.06Z"/>
        <polygon class="cls-1" points="13.22 176.46 13.27 178.64 13.24 177.04 13.22 176.46"/>
        <polygon class="cls-1" points="13.16 498.2 13.2 500.13 13.21 499.22 13.16 498.2"/>
        <path class="cls-1" d="m14.29,544.18c0,.45.02.64.04.66-.01-.41-.02-.76-.04-.66Z"/>
        <path class="cls-1" d="m14.4,629.39v.49c.02.13.04.27.07.39l-.07-.87Z"/>
        <path class="cls-1" d="m14.18,32.36v.32s.06.08.09.09l-.09-.41Z"/>
        <path class="cls-1" d="m14.64,515.61v.08c.01.48,0,.2,0-.08Z"/>
        <path class="cls-1" d="m13.16,445.1c.05-.49.08-1,.1-1.54-.01-.11-.02-.24-.04-.31l-.06,1.85Z"/>
        <path class="cls-1" d="m14.47,142.42c0-.11,0-.19,0-.33-.01.17-.02.33-.03.48l.05.29v-.43Z"/>
        <path class="cls-1" d="m14.2,604.16c0-.08.01-.08.02-.11v-.11c0,.08,0,.17-.02.22Z"/>
        <path class="cls-1" d="m14.55,652.62c.03,1.68.08-.03.11.07-.05-1.07-.07-1.33-.11-.07Z"/>
        <polygon class="cls-1" points="14.58 561.23 14.53 559.06 14.56 560.67 14.58 561.23"/>
        <polygon class="cls-1" points="14.64 239.51 14.6 237.57 14.59 238.48 14.64 239.51"/>
      </g>
    </g>
    <g>
      <g>
        <path class="cls-1" d="m10.27,694.84c-.02-.23-.06-.27-.09-.09-.16-.33-.32-.1-.44,3.54l.14,3.68-.12,1.14v-3.07c-.12,1.71-.02,2.84.05,4.09-.06.29-.11.78-.13,1.5l.23,3.63c-.09.41-.18-1.65-.24.74.1,1.7.21-1.57.28,1.23-.11,1.73-.2,1.18-.11,3.25-.06.28-.1-.16-.13-.98.07,1.84.03,4.82.15,5.79-.14,1.8.03,6.16-.2,5.94.04.46.12,2.21.16,3.74-.05-.13-.12.27-.1-.95-.03,1.13-.03,2.13-.02,3.04-.01,1.95,0,4.99-.17,4.47.16,1.57.16,4.77.17,7.93l-.03.22.03.12c0,1.38.02,2.75.06,3.96-.02-.23-.06-.68-.05-1.03,0,.49-.01.88-.02,1.25-.05.56-.1.91-.11-.62-.12,3.68,0,1.68.06,2.06-.03.53-.05,1.02-.07,1.65.13.21.19,1.68.25,3.23-.02.41-.04.8-.09.93.06.52.08-.18.1-.6.02.4.04.75.05,1.13-.08.43-.09,1.11-.07,1.96-.1-.08-.16-2.4-.3-1.78.16-.11.16,4.83.3,3.91-.02.42-.04.69-.05.95-.04-.9-.03-1.7-.12.21.03.22.04.56.05.83-.02.24-.05.46-.11.87.13.22.14.75.13,1.45-.03,1.41-.1,2.92-.08,4.09,0,0,0,.04,0,.04-.03,0-.05.07-.09.25,0,.21.03.33.05.47,0,.3,0,.76.02,1.57-.08,1.58-.16-1.42-.16-1.42,0,3.43.18,1.64.29,2.38.05,4.1-.14,1.87-.24,3.24.04,2.26.18,4.07.2,5.77,0,.26,0,.53,0,.8-.02.14-.03.27-.06-.07.03.47.03,1.07.04,1.66-.02,1.53-.03,3.06-.05,4.18l-.03-.1c.08.29.12,1.18.14,2.26,0,.32.01.62.02.93.01.86.02,1.77.03,2.66h0s0,0,0,0c0,.31,0,.64,0,.95-.04-.04-.06-.2-.09-.35.03-.2.05-.45.08-.58-.09.29-.13-2.37-.13.14-.02-.29-.04-.61-.07-1.18v2.42c.06.57.09,1.33.12,2.92v-.06c0-.51-.01-1.01-.1-.39l-.04-.17c0,.14,0,.29,0,.41,0,.06-.01.08-.02.16-.05,4.89.08,5.49.03,10.36.08.97.13.1.21.55-.02.89.02,1.09.05,1.33,0,.38.01.8.01,1.13-.05.24-.06.92-.13.74,0-.38.04-1.32,0-1.9-.02,1.71-.08,3.77-.15,4.45.04-.1.08.08.11.5-.08.89-.15,1.72-.11,3.38,0,.12-.02.16-.02.36.07.78,0,2.84.15,2.89,0,.95-.07,1.12-.11,1.49.05,1.14.04,4.34.09,5.66-.07,1.56-.02,2.07.04,2.64l-.02.66c.02.06.03-.21.03-.48.03.34.06.76.06,1.57l-.17.49c.02,3.77.08,7.87.13,12.04h-.02c.02,1.27.04,2.65.05,4.01-.05-.37-.09-.99-.14.17.03,2.6.03,5.34.01,8.09l-.1-.17c.02,1.48.04.45.1.28-.02,4.66-.09,9.37-.16,13.61l.15,2.61c0,.11,0,.17-.01.26l-.14-.66c-.2,6.59.36,11.88.01,16.91.12,1.74.08-3.59.22-2.03-.02,3.04-.26,6.21-.26,7.14-.09,4.16.25,3.88.19,8.23.02-.22.06-.35.1-.36,0,1.76-.02,3.5-.02,5.28-.05-.05-.09-.29-.1-.95,0-.73.01-1.08.03-1.04-.02-.99-.05-2.28-.12-1.07l.06.4c-.06,1.51-.05,5.68-.15,4.7.06,2.3.1.99.13-.72-.09,3.9,0,6.08-.06,10.1.03-.64.11-1.22.11-.6-.02,1.91-.02,2.81,0,3.35-.02.75-.03,1.59-.05,2.29.05.32.08,1.01.08,1.88-.04-.02-.07-.07-.02,2.25-.06,2.45-.16.52-.21-.44.12,3.66-.07,6.82-.09,8.91l-.05-1.92c.03,1.14.03,2.1.03,3.05l.12-1.1c-.02,1.13-.02,2.09-.07,2.07.05.72.12.29.18.32-.02.91-.05,2.1-.07,3.85,0,.18,0,.33,0,.49-.04.09-.08-.08-.09-1.61.02.77.02,1.73,0,2.85-.02.16-.03-.17-.04-.48-.14,4.54.18,2.07.18,6.78-.09-.6-.17,1.09-.15,1.85,0-1.29.07-1.18.14-.47v.09s.03,2.08.03,2.08c0-.4.02-.8.04-1.11,0,.09.01.14.01.25-.05,2.19,0,2.92.03,3.78-.05,1.87-.12,3.39-.17,3.43l.13,7.67c-.06-.17-.09-1.45-.13-2.48.16,4.1-.17.74-.02,4.5,0-.04,0,.02,0,0,.06,2.81-.13,3.5-.04,6.99.03-.29.05-.5.07-.64,0,1.13,0,2.26.02,3.26l-.11-.6c-.03,5.68.04,11.98.04,18.35.05-2.29.24-1.76.26.12l-.17.75c.03.27.04.29.05.21-.02.26-.03.52-.05.76.02-.03.03.33.04.83-.04-.21-.07-.58-.09-1.07l.05,2.89c-.05.17-.08-.51-.14-.68.1,1.18-.17,4.98,0,6.7l-.05.17c0,6.37.05,9.27.05,14.46.14.1.11,2.13.23,3.68-.05,3.81-.17,8.04-.16,12.64.07,3.23.12.94.21,2.4-.13.25-.12,4.82-.22,2.44.02,5.51.02,7.04.12,14.01.05-.75.08-1.6.12-1.16.02,1.27-.06,2.88-.12,2.7v-.33c.18,7.83-.41,18.06-.14,24.3v-.34s.13,6.45.13,6.45c-.03,2.97-.1-1.79-.18.42.21,6.98-.04,11.01.1,16.75-.39,4.47.02,15.78-.24,21.78l.09-.34c.09,1.55-.05,1.88-.07,3.02.07-.16.08-1.69.13-.72.1,13.13-.12,27.11-.2,40.58,0,2.19.08,2.99.17,3.74-.03.21-.05.54-.07,1.29.11-.53.16,1.29.12,3.48l-.12-1.27c.05,2.4.07,4.82.09,7.26l-.02-.4c.02.83.02,2.07.03,3.48.01,6.64-.03,13.31.09,19.68-.04-.58-.09-.6-.09-1.53-.12,2.07,0,7.58.1,7.63,0,1.52-.09.35-.14,1.29-.07,2.05.16,5.17.04,6.26-.02.17-.04-.57-.05-.95.06,1.34-.01,6.25.13,4.96-.02,1.42-.02,2.77,0,4.07,0,.35,0,.72,0,1.05.02,1.69.03,3.3-.01,4.78.16,1.89-.07,6.25.15,6.83-.12-.13-.17,1.74-.16,3.85-.03,1.22-.05,2.45-.06,3.36l-.03-.1c-.02,4.18.03,7.69.1,11.15.02,3.46.22,6.63-.04,8.64.03,1.81.05,3.52.08,5.28-.04,2.77-.04,6.09-.05,9.39,0,0,0-.06-.02-.05,0,.26,0,.47.01.73-.01,2.71-.03,5.4-.07,7.72.04-1.09.18.2.2,1.48-.05,1.69.15,4.68-.05,4.41v-.6c-.2,1.26-.15,4.74-.16,7.45l.22.37c0,.46,0,.92,0,1.38-.28,7.11.16,17.54-.18,21.16.07,1.72.06,3.85.13,5.56l-.15-.11c-.04,4.74-.06,7.1-.03,12.97l-.1-1.21c-.01,3.31.42,4.23.42,7.26l-.22.91c0,5.79-.2,11.59,0,17.32-.03-.1-.09-.28-.1-1.22,0,2.71-.16,10.5.14,9.54-.19.05-.02,5.96.06,9.08l-.14-.49c.18,2.65.23,2.73.28,6.42-.02.86-.12.75-.08-.41-.08,2.89.13,2.29.05,5.79l-.09-1.33c-.01,2.99.04,2.77.14,4.41.01.47.02,1.03.01,1.65h0c0,.06,0,.11,0,.15-.01,1.86-.09,3.97-.18,4.29.08.41.18,2.07.14,3.81-.05.23-.08-.42-.09-.74-.1,4.98.16,7.45.02,10.86-.05.06-.07.28-.09.56,0-3.97.02-7.15.03-6.85-.13-.02-.16,3.17-.34.6.1,2.59.31,7.01.25,10.12-.01.14-.03.29-.05.41l-.02-.33c-.01.72,0,1.37.02,1.99-.02.99-.04,1.62-.04,2.57-.11.35-.06,3.67-.07,5.25.14-.11.12,1.98.24.04,0,.25-.02-.3-.02-1.37,0-.24,0-.52-.01-.68v.1c0-1.05,0-2.42,0-3.97.07,1.28.13,2.6.05,4.35.09.83.19,1.75.23,2.26-.2,2.15-.32,6.35-.44,6.92.08,4.89.04,11.49.31,14.61.04,1.4-.08,1.58-.12,2.1-.03-.81-.02-1.75-.06-2.2.07,2.79.02,8.22.21,8.92-.09,3.48-.17-1.99-.14,2.81l-.06-.65c-.31,9.39.47,15.44.08,25.84.02-.72.03-1.08.07-1.22-.18,11.91.14,24.64-.14,36.37-.06,3.33.07,3.73.16,5.79l-.16.69.18,3.54c.13,4.99-.39,8.5-.14,14.82l.1-.79c-.02,2.24.06,7.17-.06,6.76.02.22.11.76.05,1.63l-.08.04.14,5.57c-.06,4.28-.32-.75-.34,5.51.03,2.33.23,6.68.29,5.83,0-.94.05-2.38.13-2.43l.04,2.14c.04.08.08.19.12.29v.11c.02.24.06.28.09.1.16.33.5.32.62-3.31l-.14-3.7.12-1.13v3.05c.12-1.71.02-2.84-.05-4.08.06-.28.11-.79.13-1.5l-.23-3.63c.09-.41.18,1.66.24-.74-.11-1.7-.21,1.56-.28-1.23.11-1.72.2-1.19.11-3.26.06-.28.1.17.13.99-.07-1.84-.03-4.82-.16-5.79.14-1.78-.03-6.16.2-5.93-.04-.46-.12-2.21-.16-3.74.05.13.12-.28.1.95.03-1.13.03-2.13.02-3.04.01-1.94,0-4.99.17-4.47-.16-1.57-.15-4.77-.17-7.95l.03-.21-.03-.12c0-1.39-.02-2.76-.06-3.96.02.24.06.67.04,1.03,0-.49.01-.87.02-1.23.05-.57.1-.91.11.62.11-3.7,0-1.68-.06-2.07.02-.53.05-1.01.07-1.64-.13-.21-.19-1.69-.25-3.24.02-.41.04-.8.09-.93-.06-.51-.08.18-.1.61-.02-.41-.03-.75-.05-1.14.09-.42.09-1.11.07-1.97.1.1.16,2.4.3,1.78-.16.11-.16-4.82-.3-3.91.02-.42.04-.68.05-.94.04.88.03,1.68.12-.23-.03-.21-.04-.55-.05-.83.02-.24.05-.45.11-.87-.13-.21-.14-.75-.13-1.46.03-1.4.1-2.92.07-4.09,0,0,0-.02,0-.04.03,0,.06-.06.1-.25,0-.21-.03-.33-.05-.46,0-.31,0-.75-.02-1.57.08-1.59.16,1.41.16,1.41,0-3.42-.18-1.64-.29-2.38-.05-4.1.14-1.86.24-3.23-.04-2.27-.35-4.31-.38-6.01,0-.26,0-.54,0-.8.02-.15.03-.28.06.05-.02-.45-.03-1.07-.04-1.65.02-1.53.03-3.05.06-4.18l.03.1c-.08-.29-.12-1.18-.14-2.26,0-.33-.01-.62-.02-.92,0-.87-.02-1.77-.03-2.66v-.02s0,0,0,.02c0-.31,0-.65-.01-.94.04.03.06.19.09.33-.03.21-.05.46-.08.59.09-.29.13,2.37.13-.15.03.3.05.62.07,1.18v-2.42c-.06-.58-.09-1.33-.12-2.91v.05c.01.52.01,1.02.1.4l.04.16c0-.13,0-.28,0-.41,0-.06.01-.07.02-.17.05-4.88-.08-5.48-.03-10.35-.08-.96-.13-.09-.21-.54.02-.89-.02-1.1-.05-1.33,0-.38-.02-.81-.02-1.13.06-.24.06-.92.13-.75,0,.38-.04,1.34,0,1.91.02-1.7.08-3.77.15-4.45-.04.1-.08-.09-.11-.49.08-.89.15-1.73.11-3.39,0-.11.01-.15.02-.35-.07-.78,0-2.85-.15-2.89,0-.95.07-1.13.11-1.49-.05-1.14-.04-4.34-.09-5.65.06-1.57.02-2.09-.04-2.65l.02-.66c-.02-.06-.03.21-.03.49-.03-.35-.06-.76-.06-1.57l.17-.48c-.02-3.78-.08-7.88-.13-12.04h.02c-.02-1.27-.03-2.66-.04-4.02.04.38.09,1,.14-.16-.03-2.61-.03-5.35-.02-8.1l.1.18c-.02-1.48-.04-.45-.1-.29.02-4.65.09-9.36.16-13.61l-.15-2.61c0-.13,0-.17.02-.28l.14.67c.2-6.6-.36-11.88-.02-16.91-.12-1.73-.08,3.58-.22,2.03.02-3.03.27-6.2.27-7.14.09-4.16-.25-3.87-.19-8.23-.02.21-.06.34-.1.35,0-1.76.02-3.51.02-5.28.04.06.09.29.1.95,0,.73-.01,1.08-.03,1.05.02.99.05,2.27.11,1.06l-.06-.39c.06-1.5.05-5.67.15-4.7-.06-2.28-.1-.97-.13.72.09-3.9,0-6.07.06-10.09-.03.64-.11,1.22-.11.6.02-1.91.02-2.81,0-3.35.02-.76.02-1.6.05-2.3-.06-.3-.08-1-.08-1.88.05.02.07.08.02-2.24.06-2.46.16-.52.21.44-.12-3.65.07-6.83.09-8.91l.05,1.92c-.03-1.14-.03-2.09-.03-3.04l-.12,1.1c.02-1.13.02-2.09.07-2.07-.05-.72-.12-.28-.18-.33.02-.9.05-2.08.08-3.84,0-.17,0-.32,0-.49.04-.09.08.07.09,1.6-.02-.76-.02-1.71,0-2.84.02-.17.03.15.04.47.14-4.54-.18-2.08-.18-6.78.09.6.17-1.09.15-1.85,0,1.29-.07,1.18-.14.48v-.1s-.03-2.07-.03-2.07c0,.39-.02.81-.04,1.12,0-.09-.01-.15-.01-.25.05-2.19,0-2.92-.03-3.77.05-1.88.12-3.39.17-3.43l-.13-7.66c.06.17.08,1.46.12,2.47-.16-4.09.17-.74.02-4.49,0,.04,0-.02-.01,0-.06-2.81.13-3.5.04-6.98-.03.29-.05.49-.07.64,0-1.13,0-2.26-.02-3.26l.11.6c.03-5.68-.04-11.98-.04-18.36-.05,2.29-.24,1.76-.26-.11l.17-.75c-.02-.29-.04-.29-.05-.22.02-.27.03-.52.05-.76-.02.03-.03-.33-.04-.83.04.21.07.56.09,1.07l-.06-2.89c.05-.18.08.51.14.67-.1-1.18.17-4.97,0-6.7l.05-.17c0-6.36-.05-9.26-.05-14.44-.14-.1-.11-2.13-.23-3.69.05-3.81.17-8.04.16-12.64-.07-3.21-.12-.94-.21-2.39.13-.24.12-4.82.21-2.44-.02-5.51-.02-7.04-.12-14.02-.06.76-.08,1.61-.12,1.17-.02-1.26.06-2.88.12-2.71v.35c-.18-7.84.41-18.07.14-24.32v.35s-.12-6.45-.12-6.45c.02-2.97.1,1.8.18-.42-.21-6.97.04-11.02-.1-16.74.39-4.47-.02-15.78.23-21.8l-.09.35c-.09-1.54.05-1.87.08-3.01-.07.16-.09,1.69-.13.72-.1-13.12.12-27.11.2-40.57.01-2.2-.08-2.99-.17-3.74.03-.21.05-.54.08-1.29-.11.53-.16-1.29-.12-3.47l.13,1.27c-.05-2.41-.08-4.84-.09-7.27l.02.4c-.02-.83-.02-2.09-.03-3.49-.01-6.63.03-13.3-.09-19.69.04.58.09.6.09,1.54.12-2.06,0-7.58-.1-7.63,0-1.51.09-.35.14-1.28.07-2.07-.16-5.17-.04-6.27.02-.18.04.57.05.95-.06-1.34.01-6.25-.13-4.96.02-1.42.02-2.77,0-4.08,0-.34,0-.71,0-1.03-.02-1.69-.03-3.3.01-4.79-.16-1.89.07-6.25-.15-6.84.12.14.17-1.73.16-3.85.03-1.22.05-2.44.06-3.35l.03.08c.02-4.18-.04-7.68-.1-11.13-.02-3.47-.22-6.63.04-8.65-.03-1.81-.05-3.51-.08-5.27.04-2.77.04-6.08.05-9.39,0,0,.01.06.02.06,0-.27-.01-.47-.01-.73.01-2.72.03-5.4.07-7.73-.04,1.11-.18-.19-.2-1.47.05-1.69-.16-4.68.05-4.4v.6c.2-1.26.15-4.74.16-7.45l-.22-.38v-1.38c.28-7.11-.16-17.53.17-21.16-.07-1.72-.06-3.83-.13-5.55l.14.11c.04-4.74.06-7.12.03-12.99l.1,1.2c.01-3.3-.42-4.2-.42-7.26l.22-.9c0-5.78.2-11.59,0-17.32.03.1.1.27.1,1.22,0-2.73.15-10.51-.15-9.54.19-.06.02-5.96-.06-9.08l.14.5c-.18-2.66-.23-2.75-.28-6.43.02-.87.11-.75.08.41.08-2.9-.13-2.29-.05-5.79l.09,1.31c.01-2.98-.04-2.75-.14-4.41-.01-.45-.02-1.03-.02-1.64,0,0,0,0,0,0,0-.05,0-.1,0-.14.01-1.85.09-3.97.18-4.29-.08-.41-.18-2.06-.15-3.81.05-.24.08.41.09.73.1-4.97-.16-7.45-.02-10.86.05-.06.07-.29.08-.56,0,3.96-.01,7.15-.03,6.84.13.02.16-3.18.34-.6-.1-2.59-.31-7.02-.25-10.13.01-.14.03-.29.05-.4v.32c.03-.72.02-1.37,0-1.98.02-1,.04-1.62.04-2.58.11-.35.06-3.66.07-5.25-.14.1-.12-1.98-.24-.04.01-.25.02.3.02,1.37,0,.25,0,.52.01.68v-.11c-.01,1.05,0,2.42,0,3.97-.07-1.28-.13-2.61-.05-4.36-.09-.83-.19-1.75-.23-2.26.2-2.16.32-6.35.44-6.91-.08-4.9-.05-11.5-.31-14.61-.04-1.4.08-1.57.12-2.09.03.8.02,1.75.06,2.18-.07-2.78-.02-8.21-.21-8.9.09-3.48.17,1.98.15-2.81l.06.65c.31-9.39-.47-15.45-.08-25.84-.03.72-.04,1.08-.07,1.22.18-11.9-.14-24.64.14-36.36.06-3.35-.06-3.74-.16-5.79l.16-.69-.18-3.54c-.13-4.99.39-8.5.14-14.82l-.11.78c.02-2.25-.06-7.16.06-6.76-.02-.23-.11-.76-.05-1.62l.08-.06-.14-5.56c.06-4.28.32.75.34-5.51-.03-2.33-.23-6.68-.29-5.83,0,.94-.05,2.38-.13,2.44l-.04-2.15c-.04-.07-.08-.18-.12-.29v-.11Zm-.87,740.39l.02.13c-.03-.1-.05-.22-.07-.43-.02-1.06,0-1.41.04-1.56,0,.49,0,1.08.02,1.86Zm1.41-593.7l-.02-.12c.03.1.05.22.07.43.02,1.06,0,1.41-.04,1.56,0-.5,0-1.08-.02-1.87Zm-.73-45.89c-.04-.87-.07-1.95-.08-3.04.02.83.05,1.06.08,1.08.02.84.04,1.52,0,1.95Zm-.25,12.63s0,0,0,.05c0,.02,0,.02,0,.04v-.09Zm-.08,21.66c-.01-.44-.02-.89-.03-1.33.02.1.04.07.07-.25v-.42s.02.27.02.27c0,.33,0,.66.01.99,0,.43-.01.94-.03,1.56-.01-.14-.02-.38-.03-.59,0-.29,0-.55,0-.84v.62Zm.11,23.54c.01.36.02.76.03,1.07,0,.21,0,.44-.01.66,0,.06,0,.1,0,.15,0,.13-.01.24-.02.35,0-.65,0-1.43,0-2.23Zm-.42,327.13l.09-1.98c0,.65-.01,1.4-.05,2.42l-.04-.44Zm.69,302.48c-.02-.83-.04-1.51,0-1.95.04.88.08,1.95.08,3.04-.03-.83-.05-1.06-.08-1.09Zm.26-14.58s0,0,0-.03v-.06.09Zm.08-21.65c.01.43.02.89.03,1.3-.02-.09-.04-.06-.06.27v.43s-.02-.28-.02-.28c0-.33,0-.66-.01-.98,0-.45.02-.95.03-1.57.01.14.02.38.03.6,0,.29,0,.55,0,.84v-.62Zm-.11-23.56c0-.35-.02-.75-.03-1.06,0-.21,0-.45.01-.68,0-.05,0-.09,0-.14,0-.12.01-.24.02-.35,0,.65,0,1.43,0,2.22Zm.42-327.12l-.09,1.97c0-.64.01-1.38.05-2.41l.04.44Z"/>
        <path class="cls-1" d="m9.71,907.25c0-.59-.02-.84-.04-.86.01.54.02,1,.04.86Z"/>
        <path class="cls-1" d="m9.6,794.94v-.64c-.02-.18-.04-.35-.07-.52l.07,1.15Z"/>
        <path class="cls-1" d="m9.82,1581.95v-.42c-.03-.06-.06-.11-.09-.12l.09.54Z"/>
        <path class="cls-1" d="m9.36,944.93v-.11c-.01-.64-.01-.27,0,.11Z"/>
        <path class="cls-1" d="m10.84,1037.88c-.05.64-.08,1.31-.1,2.02.01.14.02.32.04.42l.06-2.44Z"/>
        <path class="cls-1" d="m9.53,1436.87c0,.16,0,.24,0,.43.01-.21.02-.43.03-.62l-.04-.38v.57Z"/>
        <path class="cls-1" d="m9.8,828.2c0,.1-.01.1-.02.15v.14c0-.11,0-.22.02-.29Z"/>
        <path class="cls-1" d="m9.63,764.54c-.03-2.21-.08.04-.11-.08.05,1.41.07,1.75.11.08Z"/>
        <polygon class="cls-1" points="9.42 884.78 9.47 887.64 9.44 885.53 9.42 884.78"/>
        <polygon class="cls-1" points="9.36 1308.89 9.4 1311.43 9.41 1310.24 9.36 1308.89"/>
        <path class="cls-1" d="m10.49,1369.51c0,.59.02.84.04.87-.01-.54-.02-1-.04-.87Z"/>
        <path class="cls-1" d="m10.6,1481.82v.64c.02.17.04.35.07.51l-.07-1.15Z"/>
        <path class="cls-1" d="m10.38,694.82v.42c.04.06.06.1.09.12l-.09-.54Z"/>
        <path class="cls-1" d="m10.84,1331.84v.11c.01.64,0,.27,0-.11Z"/>
        <path class="cls-1" d="m9.36,1238.9c.05-.64.08-1.32.1-2.03-.01-.14-.02-.32-.04-.41l-.06,2.44Z"/>
        <path class="cls-1" d="m10.67,839.9c0-.15,0-.25,0-.44-.01.23-.02.44-.03.63l.05.38v-.57Z"/>
        <path class="cls-1" d="m10.4,1448.57c0-.1.01-.1.02-.15v-.14c0,.11,0,.22-.02.29Z"/>
        <path class="cls-1" d="m10.75,1512.45c.03,2.22.08-.04.11.09-.05-1.41-.07-1.75-.11-.09Z"/>
        <polygon class="cls-1" points="10.78 1391.98 10.73 1389.12 10.76 1391.23 10.78 1391.98"/>
        <polygon class="cls-1" points="10.84 967.88 10.8 965.33 10.79 966.53 10.84 967.88"/>
      </g>
      <g>
        <path class="cls-1" d="m14.07,694.84c-.02-.23-.06-.27-.09-.09-.16-.33-.32-.1-.44,3.54l.14,3.68-.12,1.14v-3.07c-.12,1.71-.02,2.84.05,4.09-.06.29-.11.78-.13,1.5l.23,3.63c-.09.41-.18-1.65-.24.74.1,1.7.21-1.57.28,1.23-.11,1.73-.2,1.18-.11,3.25-.06.28-.1-.16-.13-.98.07,1.84.03,4.82.15,5.79-.14,1.8.03,6.16-.2,5.94.04.46.12,2.21.16,3.74-.05-.13-.12.27-.1-.95-.03,1.13-.03,2.13-.02,3.04-.01,1.95,0,4.99-.17,4.47.16,1.57.16,4.77.17,7.93l-.03.22.03.12c0,1.38.02,2.75.06,3.96-.02-.23-.06-.68-.05-1.03,0,.49-.01.88-.02,1.25-.05.56-.1.91-.11-.62-.12,3.68,0,1.68.06,2.06-.03.53-.05,1.02-.07,1.65.13.21.19,1.68.25,3.23-.02.41-.04.8-.09.93.06.52.08-.18.1-.6.02.4.04.75.05,1.13-.08.43-.09,1.11-.07,1.96-.1-.08-.16-2.4-.3-1.78.16-.11.16,4.83.3,3.91-.02.42-.04.69-.05.95-.04-.9-.03-1.7-.12.21.03.22.04.56.05.83-.02.24-.05.46-.11.87.13.22.14.75.13,1.45-.03,1.41-.1,2.92-.08,4.09,0,0,0,.04,0,.04-.03,0-.05.07-.09.25,0,.21.03.33.05.47,0,.3,0,.76.02,1.57-.08,1.58-.16-1.42-.16-1.42,0,3.43.18,1.64.29,2.38.05,4.1-.14,1.87-.24,3.24.04,2.26.18,4.07.2,5.77,0,.26,0,.53,0,.8-.02.14-.03.27-.06-.07.03.47.03,1.07.04,1.66-.02,1.53-.03,3.06-.05,4.18l-.03-.1c.08.29.12,1.18.14,2.26,0,.32.01.62.02.93.01.86.02,1.77.03,2.66h0s0,0,0,0c0,.31,0,.64,0,.95-.04-.04-.06-.2-.09-.35.03-.2.05-.45.08-.58-.09.29-.13-2.37-.13.14-.02-.29-.04-.61-.07-1.18v2.42c.06.57.09,1.33.12,2.92v-.06c0-.51-.01-1.01-.1-.39l-.04-.17c0,.14,0,.29,0,.41,0,.06-.01.08-.02.16-.05,4.89.08,5.49.03,10.36.08.97.13.1.21.55-.02.89.02,1.09.05,1.33,0,.38.01.8.01,1.13-.05.24-.06.92-.13.74,0-.38.04-1.32,0-1.9-.02,1.71-.08,3.77-.15,4.45.04-.1.08.08.11.5-.08.89-.15,1.72-.11,3.38,0,.12-.02.16-.02.36.07.78,0,2.84.15,2.89,0,.95-.07,1.12-.11,1.49.05,1.14.04,4.34.09,5.66-.07,1.56-.02,2.07.04,2.64l-.02.66c.02.06.03-.21.03-.48.03.34.06.76.06,1.57l-.17.49c.02,3.77.08,7.87.13,12.04h-.02c.02,1.27.04,2.65.05,4.01-.05-.37-.09-.99-.14.17.03,2.6.03,5.34.01,8.09l-.1-.17c.02,1.48.04.45.1.28-.02,4.66-.09,9.37-.16,13.61l.15,2.61c0,.11,0,.17-.01.26l-.14-.66c-.2,6.59.36,11.88.01,16.91.12,1.74.08-3.59.22-2.03-.02,3.04-.26,6.21-.26,7.14-.09,4.16.25,3.88.19,8.23.02-.22.06-.35.1-.36,0,1.76-.02,3.5-.02,5.28-.05-.05-.09-.29-.1-.95,0-.73.01-1.08.03-1.04-.02-.99-.05-2.28-.12-1.07l.06.4c-.06,1.51-.05,5.68-.15,4.7.06,2.3.1.99.13-.72-.09,3.9,0,6.08-.06,10.1.03-.64.11-1.22.11-.6-.02,1.91-.02,2.81,0,3.35-.02.75-.03,1.59-.05,2.29.05.32.08,1.01.08,1.88-.04-.02-.07-.07-.02,2.25-.06,2.45-.16.52-.21-.44.12,3.66-.07,6.82-.09,8.91l-.05-1.92c.03,1.14.03,2.1.03,3.05l.12-1.1c-.02,1.13-.02,2.09-.07,2.07.05.72.12.29.18.32-.02.91-.05,2.1-.07,3.85,0,.18,0,.33,0,.49-.04.09-.08-.08-.09-1.61.02.77.02,1.73,0,2.85-.02.16-.03-.17-.04-.48-.14,4.54.18,2.07.18,6.78-.09-.6-.17,1.09-.15,1.85,0-1.29.07-1.18.14-.47v.09s.03,2.08.03,2.08c0-.4.02-.8.04-1.11,0,.09.01.14.01.25-.05,2.19,0,2.92.03,3.78-.05,1.87-.12,3.39-.17,3.43l.13,7.67c-.06-.17-.09-1.45-.13-2.48.16,4.1-.17.74-.02,4.5,0-.04,0,.02,0,0,.06,2.81-.13,3.5-.04,6.99.03-.29.05-.5.07-.64,0,1.13,0,2.26.02,3.26l-.11-.6c-.03,5.68.04,11.98.04,18.35.05-2.29.24-1.76.26.12l-.17.75c.03.27.04.29.05.21-.02.26-.03.52-.05.76.02-.03.03.33.04.83-.04-.21-.07-.58-.09-1.07l.05,2.89c-.05.17-.08-.51-.14-.68.1,1.18-.17,4.98,0,6.7l-.05.17c0,6.37.05,9.27.05,14.46.14.1.11,2.13.23,3.68-.05,3.81-.17,8.04-.16,12.64.07,3.23.12.94.21,2.4-.13.25-.12,4.82-.22,2.44.02,5.51.02,7.04.12,14.01.05-.75.08-1.6.12-1.16.02,1.27-.06,2.88-.12,2.7v-.33c.18,7.83-.41,18.06-.14,24.3v-.34s.13,6.45.13,6.45c-.03,2.97-.1-1.79-.18.42.21,6.98-.04,11.01.1,16.75-.39,4.47.02,15.78-.24,21.78l.09-.34c.09,1.55-.05,1.88-.07,3.02.07-.16.08-1.69.13-.72.1,13.13-.12,27.11-.2,40.58,0,2.19.08,2.99.17,3.74-.03.21-.05.54-.07,1.29.11-.53.16,1.29.12,3.48l-.12-1.27c.05,2.4.07,4.82.09,7.26l-.02-.4c.02.83.02,2.07.03,3.48.01,6.64-.03,13.31.09,19.68-.04-.58-.09-.6-.09-1.53-.12,2.07,0,7.58.1,7.63,0,1.52-.09.35-.14,1.29-.07,2.05.16,5.17.04,6.26-.02.17-.04-.57-.05-.95.06,1.34-.01,6.25.13,4.96-.02,1.42-.02,2.77,0,4.07,0,.35,0,.72,0,1.05.02,1.69.03,3.3-.01,4.78.16,1.89-.07,6.25.15,6.83-.12-.13-.17,1.74-.16,3.85-.03,1.22-.05,2.45-.06,3.36l-.03-.1c-.02,4.18.03,7.69.1,11.15.02,3.46.22,6.63-.04,8.64.03,1.81.05,3.52.08,5.28-.04,2.77-.04,6.09-.05,9.39,0,0,0-.06-.02-.05,0,.26,0,.47.01.73-.01,2.71-.03,5.4-.07,7.72.04-1.09.18.2.2,1.48-.05,1.69.15,4.68-.05,4.41v-.6c-.2,1.26-.15,4.74-.16,7.45l.22.37c0,.46,0,.92,0,1.38-.28,7.11.16,17.54-.18,21.16.07,1.72.06,3.85.13,5.56l-.15-.11c-.04,4.74-.06,7.1-.03,12.97l-.1-1.21c-.01,3.31.42,4.23.42,7.26l-.22.91c0,5.79-.2,11.59,0,17.32-.03-.1-.09-.28-.1-1.22,0,2.71-.16,10.5.14,9.54-.19.05-.02,5.96.06,9.08l-.14-.49c.18,2.65.23,2.73.28,6.42-.02.86-.12.75-.08-.41-.08,2.89.13,2.29.05,5.79l-.09-1.33c-.01,2.99.04,2.77.14,4.41.01.47.02,1.03.01,1.65h0c0,.06,0,.11,0,.15-.01,1.86-.09,3.97-.18,4.29.08.41.18,2.07.14,3.81-.05.23-.08-.42-.09-.74-.1,4.98.16,7.45.02,10.86-.05.06-.07.28-.09.56,0-3.97.02-7.15.03-6.85-.13-.02-.16,3.17-.34.6.1,2.59.31,7.01.25,10.12-.01.14-.03.29-.05.41l-.02-.33c-.01.72,0,1.37.02,1.99-.02.99-.04,1.62-.04,2.57-.11.35-.06,3.67-.07,5.25.14-.11.12,1.98.24.04,0,.25-.02-.3-.02-1.37,0-.24,0-.52-.01-.68v.1c0-1.05,0-2.42,0-3.97.07,1.28.13,2.6.05,4.35.09.83.19,1.75.23,2.26-.2,2.15-.32,6.35-.44,6.92.08,4.89.04,11.49.31,14.61.04,1.4-.08,1.58-.12,2.1-.03-.81-.02-1.75-.06-2.2.07,2.79.02,8.22.21,8.92-.09,3.48-.17-1.99-.14,2.81l-.06-.65c-.31,9.39.47,15.44.08,25.84.02-.72.03-1.08.07-1.22-.18,11.91.14,24.64-.14,36.37-.06,3.33.07,3.73.16,5.79l-.16.69.18,3.54c.13,4.99-.39,8.5-.14,14.82l.1-.79c-.02,2.24.06,7.17-.06,6.76.02.22.11.76.05,1.63l-.08.04.14,5.57c-.06,4.28-.32-.75-.34,5.51.03,2.33.23,6.68.29,5.83,0-.94.05-2.38.13-2.43l.04,2.14c.04.08.08.19.12.29v.11c.02.24.06.28.09.1.16.33.5.32.62-3.31l-.14-3.7.12-1.13v3.05c.12-1.71.02-2.84-.05-4.08.06-.28.11-.79.13-1.5l-.23-3.63c.09-.41.18,1.66.24-.74-.11-1.7-.21,1.56-.28-1.23.11-1.72.2-1.19.11-3.26.06-.28.1.17.13.99-.07-1.84-.03-4.82-.16-5.79.14-1.78-.03-6.16.2-5.93-.04-.46-.12-2.21-.16-3.74.05.13.12-.28.1.95.03-1.13.03-2.13.02-3.04.01-1.94,0-4.99.17-4.47-.16-1.57-.15-4.77-.17-7.95l.03-.21-.03-.12c0-1.39-.02-2.76-.06-3.96.02.24.06.67.04,1.03,0-.49.01-.87.02-1.23.05-.57.1-.91.11.62.11-3.7,0-1.68-.06-2.07.02-.53.05-1.01.07-1.64-.13-.21-.19-1.69-.25-3.24.02-.41.04-.8.09-.93-.06-.51-.08.18-.1.61-.02-.41-.03-.75-.05-1.14.09-.42.09-1.11.07-1.97.1.1.16,2.4.3,1.78-.16.11-.16-4.82-.3-3.91.02-.42.04-.68.05-.94.04.88.03,1.68.12-.23-.03-.21-.04-.55-.05-.83.02-.24.05-.45.11-.87-.13-.21-.14-.75-.13-1.46.03-1.4.1-2.92.07-4.09,0,0,0-.02,0-.04.03,0,.06-.06.1-.25,0-.21-.03-.33-.05-.46,0-.31,0-.75-.02-1.57.08-1.59.16,1.41.16,1.41,0-3.42-.18-1.64-.29-2.38-.05-4.1.14-1.86.24-3.23-.04-2.27-.35-4.31-.38-6.01,0-.26,0-.54,0-.8.02-.15.03-.28.06.05-.02-.45-.03-1.07-.04-1.65.02-1.53.03-3.05.06-4.18l.03.1c-.08-.29-.12-1.18-.14-2.26,0-.33-.01-.62-.02-.92,0-.87-.02-1.77-.03-2.66v-.02s0,0,0,.02c0-.31,0-.65-.01-.94.04.03.06.19.09.33-.03.21-.05.46-.08.59.09-.29.13,2.37.13-.15.03.3.05.62.07,1.18v-2.42c-.06-.58-.09-1.33-.12-2.91v.05c.01.52.01,1.02.1.4l.04.16c0-.13,0-.28,0-.41,0-.06.01-.07.02-.17.05-4.88-.08-5.48-.03-10.35-.08-.96-.13-.09-.21-.54.02-.89-.02-1.1-.05-1.33,0-.38-.02-.81-.02-1.13.06-.24.06-.92.13-.75,0,.38-.04,1.34,0,1.91.02-1.7.08-3.77.15-4.45-.04.1-.08-.09-.11-.49.08-.89.15-1.73.11-3.39,0-.11.01-.15.02-.35-.07-.78,0-2.85-.15-2.89,0-.95.07-1.13.11-1.49-.05-1.14-.04-4.34-.09-5.65.06-1.57.02-2.09-.04-2.65l.02-.66c-.02-.06-.03.21-.03.49-.03-.35-.06-.76-.06-1.57l.17-.48c-.02-3.78-.08-7.88-.13-12.04h.02c-.02-1.27-.03-2.66-.04-4.02.04.38.09,1,.14-.16-.03-2.61-.03-5.35-.02-8.1l.1.18c-.02-1.48-.04-.45-.1-.29.02-4.65.09-9.36.16-13.61l-.15-2.61c0-.13,0-.17.02-.28l.14.67c.2-6.6-.36-11.88-.02-16.91-.12-1.73-.08,3.58-.22,2.03.02-3.03.27-6.2.27-7.14.09-4.16-.25-3.87-.19-8.23-.02.21-.06.34-.1.35,0-1.76.02-3.51.02-5.28.04.06.09.29.1.95,0,.73-.01,1.08-.03,1.05.02.99.05,2.27.11,1.06l-.06-.39c.06-1.5.05-5.67.15-4.7-.06-2.28-.1-.97-.13.72.09-3.9,0-6.07.06-10.09-.03.64-.11,1.22-.11.6.02-1.91.02-2.81,0-3.35.02-.76.02-1.6.05-2.3-.06-.3-.08-1-.08-1.88.05.02.07.08.02-2.24.06-2.46.16-.52.21.44-.12-3.65.07-6.83.09-8.91l.05,1.92c-.03-1.14-.03-2.09-.03-3.04l-.12,1.1c.02-1.13.02-2.09.07-2.07-.05-.72-.12-.28-.18-.33.02-.9.05-2.08.08-3.84,0-.17,0-.32,0-.49.04-.09.08.07.09,1.6-.02-.76-.02-1.71,0-2.84.02-.17.03.15.04.47.14-4.54-.18-2.08-.18-6.78.09.6.17-1.09.15-1.85,0,1.29-.07,1.18-.14.48v-.1s-.03-2.07-.03-2.07c0,.39-.02.81-.04,1.12,0-.09-.01-.15-.01-.25.05-2.19,0-2.92-.03-3.77.05-1.88.12-3.39.17-3.43l-.13-7.66c.06.17.08,1.46.12,2.47-.16-4.09.17-.74.02-4.49,0,.04,0-.02-.01,0-.06-2.81.13-3.5.04-6.98-.03.29-.05.49-.07.64,0-1.13,0-2.26-.02-3.26l.11.6c.03-5.68-.04-11.98-.04-18.36-.05,2.29-.24,1.76-.26-.11l.17-.75c-.02-.29-.04-.29-.05-.22.02-.27.03-.52.05-.76-.02.03-.03-.33-.04-.83.04.21.07.56.09,1.07l-.06-2.89c.05-.18.08.51.14.67-.1-1.18.17-4.97,0-6.7l.05-.17c0-6.36-.05-9.26-.05-14.44-.14-.1-.11-2.13-.23-3.69.05-3.81.17-8.04.16-12.64-.07-3.21-.12-.94-.21-2.39.13-.24.12-4.82.21-2.44-.02-5.51-.02-7.04-.12-14.02-.06.76-.08,1.61-.12,1.17-.02-1.26.06-2.88.12-2.71v.35c-.18-7.84.41-18.07.14-24.32v.35s-.12-6.45-.12-6.45c.02-2.97.1,1.8.18-.42-.21-6.97.04-11.02-.1-16.74.39-4.47-.02-15.78.23-21.8l-.09.35c-.09-1.54.05-1.87.08-3.01-.07.16-.09,1.69-.13.72-.1-13.12.12-27.11.2-40.57.01-2.2-.08-2.99-.17-3.74.03-.21.05-.54.08-1.29-.11.53-.16-1.29-.12-3.47l.13,1.27c-.05-2.41-.08-4.84-.09-7.27l.02.4c-.02-.83-.02-2.09-.03-3.49-.01-6.63.03-13.3-.09-19.69.04.58.09.6.09,1.54.12-2.06,0-7.58-.1-7.63,0-1.51.09-.35.14-1.28.07-2.07-.16-5.17-.04-6.27.02-.18.04.57.05.95-.06-1.34.01-6.25-.13-4.96.02-1.42.02-2.77,0-4.08,0-.34,0-.71,0-1.03-.02-1.69-.03-3.3.01-4.79-.16-1.89.07-6.25-.15-6.84.12.14.17-1.73.16-3.85.03-1.22.05-2.44.06-3.35l.03.08c.02-4.18-.04-7.68-.1-11.13-.02-3.47-.22-6.63.04-8.65-.03-1.81-.05-3.51-.08-5.27.04-2.77.04-6.08.05-9.39,0,0,.01.06.02.06,0-.27-.01-.47-.01-.73.01-2.72.03-5.4.07-7.73-.04,1.11-.18-.19-.2-1.47.05-1.69-.16-4.68.05-4.4v.6c.2-1.26.15-4.74.16-7.45l-.22-.38v-1.38c.28-7.11-.16-17.53.17-21.16-.07-1.72-.06-3.83-.13-5.55l.14.11c.04-4.74.06-7.12.03-12.99l.1,1.2c.01-3.3-.42-4.2-.42-7.26l.22-.9c0-5.78.2-11.59,0-17.32.03.1.1.27.1,1.22,0-2.73.15-10.51-.15-9.54.19-.06.02-5.96-.06-9.08l.14.5c-.18-2.66-.23-2.75-.28-6.43.02-.87.11-.75.08.41.08-2.9-.13-2.29-.05-5.79l.09,1.31c.01-2.98-.04-2.75-.14-4.41-.01-.45-.02-1.03-.02-1.64,0,0,0,0,0,0,0-.05,0-.1,0-.14.01-1.85.09-3.97.18-4.29-.08-.41-.18-2.06-.15-3.81.05-.24.08.41.09.73.1-4.97-.16-7.45-.02-10.86.05-.06.07-.29.08-.56,0,3.96-.01,7.15-.03,6.84.13.02.16-3.18.34-.6-.1-2.59-.31-7.02-.25-10.13.01-.14.03-.29.05-.4v.32c.03-.72.02-1.37,0-1.98.02-1,.04-1.62.04-2.58.11-.35.06-3.66.07-5.25-.14.1-.12-1.98-.24-.04.01-.25.02.3.02,1.37,0,.25,0,.52.01.68v-.11c-.01,1.05,0,2.42,0,3.97-.07-1.28-.13-2.61-.05-4.36-.09-.83-.19-1.75-.23-2.26.2-2.16.32-6.35.44-6.91-.08-4.9-.05-11.5-.31-14.61-.04-1.4.08-1.57.12-2.09.03.8.02,1.75.06,2.18-.07-2.78-.02-8.21-.21-8.9.09-3.48.17,1.98.15-2.81l.06.65c.31-9.39-.47-15.45-.08-25.84-.03.72-.04,1.08-.07,1.22.18-11.9-.14-24.64.14-36.36.06-3.35-.06-3.74-.16-5.79l.16-.69-.18-3.54c-.13-4.99.39-8.5.14-14.82l-.11.78c.02-2.25-.06-7.16.06-6.76-.02-.23-.11-.76-.05-1.62l.08-.06-.14-5.56c.06-4.28.32.75.34-5.51-.03-2.33-.23-6.68-.29-5.83,0,.94-.05,2.38-.13,2.44l-.04-2.15c-.04-.07-.08-.18-.12-.29v-.11Zm-.87,740.39l.02.13c-.03-.1-.05-.22-.07-.43-.02-1.06,0-1.41.04-1.56,0,.49,0,1.08.02,1.86Zm1.41-593.7l-.02-.12c.03.1.05.22.07.43.02,1.06,0,1.41-.04,1.56,0-.5,0-1.08-.02-1.87Zm-.73-45.89c-.04-.87-.07-1.95-.08-3.04.02.83.05,1.06.08,1.08.02.84.04,1.52,0,1.95Zm-.25,12.63s0,0,0,.05c0,.02,0,.02,0,.04v-.09Zm-.08,21.66c-.01-.44-.02-.89-.03-1.33.02.1.04.07.07-.25v-.42s.02.27.02.27c0,.33,0,.66.01.99,0,.43-.01.94-.03,1.56-.01-.14-.02-.38-.03-.59,0-.29,0-.55,0-.84v.62Zm.11,23.54c.01.36.02.76.03,1.07,0,.21,0,.44-.01.66,0,.06,0,.1,0,.15,0,.13-.01.24-.02.35,0-.65,0-1.43,0-2.23Zm-.42,327.13l.09-1.98c0,.65-.01,1.4-.05,2.42l-.04-.44Zm.69,302.48c-.02-.83-.04-1.51,0-1.95.04.88.08,1.95.08,3.04-.03-.83-.05-1.06-.08-1.09Zm.26-14.58s0,0,0-.03v-.06.09Zm.08-21.65c.01.43.02.89.03,1.3-.02-.09-.04-.06-.06.27v.43s-.02-.28-.02-.28c0-.33,0-.66-.01-.98,0-.45.02-.95.03-1.57.01.14.02.38.03.6,0,.29,0,.55,0,.84v-.62Zm-.11-23.56c0-.35-.02-.75-.03-1.06,0-.21,0-.45.01-.68,0-.05,0-.09,0-.14,0-.12.01-.24.02-.35,0,.65,0,1.43,0,2.22Zm.42-327.12l-.09,1.97c0-.64.01-1.38.05-2.41l.04.44Z"/>
        <path class="cls-1" d="m13.51,907.25c0-.59-.02-.84-.04-.86.01.54.02,1,.04.86Z"/>
        <path class="cls-1" d="m13.4,794.94v-.64c-.02-.18-.04-.35-.07-.52l.07,1.15Z"/>
        <path class="cls-1" d="m13.62,1581.95v-.42c-.03-.06-.06-.11-.09-.12l.09.54Z"/>
        <path class="cls-1" d="m13.16,944.93v-.11c-.01-.64-.01-.27,0,.11Z"/>
        <path class="cls-1" d="m14.64,1037.88c-.05.64-.08,1.31-.1,2.02.01.14.02.32.04.42l.06-2.44Z"/>
        <path class="cls-1" d="m13.33,1436.87c0,.16,0,.24,0,.43.01-.21.02-.43.03-.62l-.04-.38v.57Z"/>
        <path class="cls-1" d="m13.6,828.2c0,.1-.01.1-.02.15v.14c0-.11,0-.22.02-.29Z"/>
        <path class="cls-1" d="m13.43,764.54c-.03-2.21-.08.04-.11-.08.05,1.41.07,1.75.11.08Z"/>
        <polygon class="cls-1" points="13.22 884.78 13.27 887.64 13.24 885.53 13.22 884.78"/>
        <polygon class="cls-1" points="13.16 1308.89 13.2 1311.43 13.21 1310.24 13.16 1308.89"/>
        <path class="cls-1" d="m14.29,1369.51c0,.59.02.84.04.87-.01-.54-.02-1-.04-.87Z"/>
        <path class="cls-1" d="m14.4,1481.82v.64c.02.17.04.35.07.51l-.07-1.15Z"/>
        <path class="cls-1" d="m14.18,694.82v.42c.04.06.06.1.09.12l-.09-.54Z"/>
        <path class="cls-1" d="m14.64,1331.84v.11c.01.64,0,.27,0-.11Z"/>
        <path class="cls-1" d="m13.16,1238.9c.05-.64.08-1.32.1-2.03-.01-.14-.02-.32-.04-.41l-.06,2.44Z"/>
        <path class="cls-1" d="m14.47,839.9c0-.15,0-.25,0-.44-.01.23-.02.44-.03.63l.05.38v-.57Z"/>
        <path class="cls-1" d="m14.2,1448.57c0-.1.01-.1.02-.15v-.14c0,.11,0,.22-.02.29Z"/>
        <path class="cls-1" d="m14.55,1512.45c.03,2.22.08-.04.11.09-.05-1.41-.07-1.75-.11-.09Z"/>
        <polygon class="cls-1" points="14.58 1391.98 14.53 1389.12 14.56 1391.23 14.58 1391.98"/>
        <polygon class="cls-1" points="14.64 967.88 14.6 965.33 14.59 966.53 14.64 967.88"/>
      </g>
    </g>
  </g>
</svg>