<?xml version="1.0" encoding="UTF-8"?>
<svg id="CONTENTS" xmlns="http://www.w3.org/2000/svg" viewBox="0 0 12 1004.99">
  <defs>
    <style>
      .cls-1 {
        fill: #8cc359;
      }
    </style>
  </defs>
  <circle class="cls-1" cx="6" cy="5.81" r="5.81"/>
  <g>
    <g>
      <path class="cls-1" d="m4.26,16.06c-.02-.08-.06-.09-.09-.03-.16-.11-.31-.04-.43,1.22l.14,1.27-.11.39v-1.06c-.11.59-.02.98.04,1.41-.06.1-.1.27-.13.52l.22,1.25c-.09.14-.18-.57-.23.25.1.59.21-.54.27.42-.11.6-.19.41-.1,1.12-.06.1-.1-.06-.12-.34.07.63.03,1.66.15,2-.13.62.03,2.12-.19,2.05.04.16.12.76.16,1.29-.05-.05-.12.09-.09-.33-.03.39-.03.73-.02,1.05-.01.67,0,1.72-.17,1.54.16.54.15,1.64.17,2.74l-.03.08.03.04c0,.48.02.95.06,1.37-.02-.08-.06-.23-.05-.36,0,.17-.01.3-.02.43-.05.19-.1.32-.11-.21-.11,1.27,0,.58.06.71-.03.18-.05.35-.07.57.12.07.19.58.25,1.12-.02.14-.04.28-.09.32.06.18.08-.06.1-.21.02.14.03.26.05.39-.08.15-.09.38-.07.68-.1-.03-.16-.83-.29-.61.16-.04.15,1.67.29,1.35-.02.15-.04.24-.05.33-.04-.31-.03-.59-.11.07.03.08.04.19.05.29-.02.08-.05.16-.11.3.13.08.13.26.13.5-.03.49-.1,1.01-.07,1.41,0,0,0,.01,0,.01-.02,0-.05.02-.09.09,0,.07.03.12.05.16,0,.1,0,.26.02.54-.08.55-.16-.49-.16-.49,0,1.18.18.56.29.82.05,1.41-.14.64-.23,1.12.04.78.17,1.4.2,1.99,0,.09,0,.18,0,.28-.02.05-.03.09-.06-.02.02.16.03.37.04.57-.02.53-.03,1.06-.05,1.44l-.03-.04c.08.1.12.41.14.78,0,.11.01.21.02.32.01.3.02.61.03.92h0s0,0,0,0c0,.11,0,.22,0,.33-.04-.01-.06-.07-.09-.12.03-.07.05-.16.07-.2-.09.1-.13-.82-.13.05-.02-.1-.04-.21-.06-.41v.84c.06.2.09.46.12,1.01v-.02c0-.18-.01-.35-.1-.13l-.04-.06s0,.1,0,.14c0,.02-.01.03-.02.05-.05,1.69.08,1.89.03,3.57.08.33.13.03.2.19-.02.31.02.38.05.46,0,.13.01.28.01.39-.05.08-.06.32-.12.25,0-.13.04-.46,0-.66-.02.59-.07,1.3-.15,1.54.04-.04.08.03.11.17-.08.31-.15.59-.11,1.17,0,.04-.02.05-.02.12.07.27,0,.98.15,1,0,.33-.07.39-.11.51.05.39.04,1.5.08,1.95-.06.54-.02.72.04.91l-.02.23s.03-.07.03-.17c.03.12.06.26.06.54l-.17.17c.02,1.3.08,2.72.13,4.15h-.02c.02.44.03.92.05,1.38-.04-.13-.09-.34-.14.06.03.9.03,1.84.01,2.79l-.1-.06c.02.51.04.16.1.1-.02,1.61-.08,3.23-.15,4.7l.15.9s0,.06-.01.09l-.13-.23c-.2,2.27.35,4.1.01,5.83.12.6.08-1.24.22-.7-.02,1.05-.26,2.14-.26,2.46-.09,1.44.25,1.34.18,2.84.02-.08.06-.12.1-.12,0,.61-.02,1.21-.02,1.82-.04-.02-.09-.1-.1-.33,0-.25.01-.37.03-.36-.02-.34-.05-.79-.11-.37l.06.14c-.06.52-.05,1.96-.15,1.62.06.79.1.34.13-.25-.08,1.35,0,2.1-.05,3.48.03-.22.1-.42.1-.21-.02.66-.02.97,0,1.15-.02.26-.03.55-.05.79.05.11.07.35.08.65-.04,0-.07-.02-.02.78-.06.84-.16.18-.21-.15.12,1.26-.07,2.35-.09,3.07l-.05-.66c.03.39.03.72.03,1.05l.12-.38c-.02.39-.02.72-.07.71.05.25.11.1.18.11-.02.31-.05.72-.07,1.33,0,.06,0,.11,0,.17-.04.03-.08-.03-.09-.56.02.27.02.6,0,.98-.02.06-.03-.06-.04-.16-.14,1.57.18.72.18,2.34-.09-.21-.17.38-.15.64,0-.44.07-.41.14-.16v.03s.03.72.03.72c0-.14.02-.28.04-.38,0,.03.01.05.01.08-.05.76,0,1.01.03,1.3-.05.64-.12,1.17-.17,1.18l.13,2.65c-.06-.06-.08-.5-.12-.86.16,1.41-.16.25-.02,1.55,0-.01,0,0,0,0,.06.97-.12,1.21-.03,2.41.03-.1.05-.17.07-.22,0,.39,0,.78.02,1.12l-.11-.21c-.03,1.96.04,4.13.04,6.33.05-.79.24-.61.25.04l-.17.26c.02.09.04.1.05.07-.02.09-.03.18-.05.26.02-.01.03.12.04.29-.04-.07-.07-.2-.09-.37l.05,1c-.05.06-.07-.18-.14-.24.1.41-.17,1.72,0,2.31l-.05.06c0,2.2.05,3.2.05,4.99.14.03.11.73.22,1.27-.05,1.32-.16,2.77-.15,4.36.07,1.11.12.32.2.83-.13.09-.12,1.66-.21.84.02,1.9.02,2.43.12,4.83.05-.26.08-.55.12-.4.02.44-.06.99-.12.93v-.12c.17,2.7-.4,6.23-.14,8.38v-.12s.12,2.23.12,2.23c-.03,1.03-.1-.62-.18.15.21,2.41-.04,3.8.1,5.78-.38,1.54.02,5.44-.23,7.51l.09-.12c.09.53-.05.65-.07,1.04.07-.05.08-.58.13-.25.1,4.53-.12,9.35-.2,14,0,.76.08,1.03.17,1.29-.02.07-.05.19-.07.44.11-.18.15.44.12,1.2l-.12-.44c.05.83.07,1.66.08,2.51l-.02-.14c.02.29.02.72.03,1.2.01,2.29-.03,4.59.09,6.79-.04-.2-.09-.21-.09-.53-.12.71,0,2.62.1,2.63,0,.52-.09.12-.14.44-.07.71.16,1.78.04,2.16-.02.06-.04-.2-.05-.33.06.46-.01,2.15.13,1.71-.02.49-.02.95,0,1.4,0,.12,0,.25,0,.36.02.58.03,1.14-.01,1.65.16.65-.07,2.16.15,2.36-.12-.04-.16.6-.16,1.33-.03.42-.05.84-.06,1.16l-.03-.03c-.02,1.44.03,2.65.1,3.85.02,1.19.21,2.29-.04,2.98.03.63.05,1.21.07,1.82-.04.95-.04,2.1-.05,3.24,0,0,0-.02-.02-.02,0,.09,0,.16.01.25-.01.94-.03,1.86-.07,2.66.04-.38.17.07.19.51-.04.58.15,1.61-.05,1.52v-.21c-.2.43-.15,1.63-.15,2.57l.21.13c0,.16,0,.32,0,.47-.28,2.45.16,6.05-.17,7.3.06.59.06,1.33.13,1.92l-.14-.04c-.04,1.63-.06,2.45-.03,4.47l-.1-.42c-.01,1.14.41,1.46.41,2.51l-.21.31c0,2-.19,4,0,5.98-.03-.04-.09-.1-.1-.42,0,.93-.15,3.62.14,3.29-.19.02-.02,2.06.06,3.13l-.14-.17c.18.91.23.94.27,2.22-.02.3-.11.26-.08-.14-.08,1,.13.79.05,2l-.09-.46c-.01,1.03.04.95.14,1.52.01.16.02.36.01.57h0s0,.04,0,.05c-.01.64-.09,1.37-.18,1.48.08.14.18.71.14,1.32-.05.08-.08-.15-.09-.25-.1,1.72.16,2.57.02,3.75-.05.02-.07.1-.08.19,0-1.37.02-2.47.03-2.36-.13,0-.15,1.09-.33.21.1.89.3,2.42.24,3.49-.01.05-.03.1-.04.14l-.02-.11c-.01.25,0,.47.02.69-.02.34-.04.56-.04.89-.11.12-.06,1.27-.06,1.81.14-.04.12.68.23.01,0,.09-.02-.1-.02-.47,0-.08,0-.18-.01-.23v.04c0-.36,0-.83,0-1.37.07.44.13.9.05,1.5.09.29.18.6.23.78-.2.74-.31,2.19-.43,2.39.08,1.69.04,3.96.31,5.04.03.48-.08.55-.12.72-.02-.28-.02-.6-.06-.76.07.96.02,2.84.21,3.08-.09,1.2-.17-.69-.14.97l-.06-.22c-.3,3.24.46,5.33.08,8.91.02-.25.03-.37.06-.42-.17,4.11.14,8.5-.13,12.55-.06,1.15.06,1.29.15,2l-.15.24.17,1.22c.12,1.72-.38,2.93-.14,5.11l.1-.27c-.02.77.06,2.47-.06,2.33.02.08.11.26.05.56h-.08s.13,1.94.13,1.94c-.06,1.48-.32-.26-.34,1.9.03.8.23,2.31.28,2.01,0-.32.05-.82.13-.84l.04.74s.08.07.12.1v.04c.02.08.06.1.09.03.16.11.49.11.61-1.14l-.14-1.27.11-.39v1.05c.11-.59.02-.98-.04-1.41.06-.1.1-.27.13-.52l-.22-1.25c.09-.14.18.57.23-.26-.1-.59-.21.54-.27-.42.11-.59.19-.41.11-1.12.06-.1.1.06.13.34-.07-.64-.03-1.66-.15-2,.13-.61-.03-2.12.19-2.05-.04-.16-.12-.76-.16-1.29.05.04.12-.1.1.33.03-.39.03-.73.02-1.05.01-.67,0-1.72.17-1.54-.16-.54-.15-1.64-.17-2.74l.03-.07-.03-.04c0-.48-.02-.95-.06-1.37.02.08.06.23.04.35,0-.17.01-.3.02-.43.05-.2.1-.32.11.21.11-1.27,0-.58-.06-.72.02-.18.05-.35.07-.56-.13-.07-.19-.58-.25-1.12.02-.14.04-.28.09-.32-.06-.18-.08.06-.1.21-.02-.14-.03-.26-.05-.39.08-.15.09-.38.07-.68.1.03.16.83.29.61-.16.04-.16-1.66-.29-1.35.02-.15.04-.24.05-.32.04.3.03.58.11-.08-.03-.07-.04-.19-.05-.29.02-.08.05-.15.11-.3-.13-.07-.13-.26-.13-.5.03-.48.1-1.01.07-1.41,0,0,0,0,0-.01.02,0,.06-.02.1-.09,0-.07-.03-.11-.05-.16,0-.11,0-.26-.02-.54.08-.55.16.49.16.49,0-1.18-.18-.56-.29-.82-.05-1.41.14-.64.23-1.11-.04-.78-.35-1.49-.37-2.07,0-.09,0-.19,0-.27.02-.05.03-.1.06.02-.02-.16-.03-.37-.04-.57.02-.53.03-1.05.06-1.44l.03.04c-.08-.1-.12-.41-.14-.78,0-.11-.01-.21-.02-.32,0-.3-.02-.61-.03-.92h0s0,0,0,0c0-.11,0-.22-.01-.32.04.01.06.07.09.12-.03.07-.05.16-.07.2.09-.1.13.82.13-.05.02.1.05.21.06.41v-.83c-.06-.2-.09-.46-.12-1v.02c.01.18.01.35.1.14l.04.05s0-.1,0-.14c0-.02.01-.02.02-.06.05-1.68-.08-1.89-.03-3.57-.08-.33-.13-.03-.2-.19.02-.31-.02-.38-.05-.46,0-.13-.02-.28-.02-.39.05-.08.06-.32.12-.26,0,.13-.04.46,0,.66.02-.59.07-1.3.15-1.54-.04.03-.08-.03-.11-.17.08-.31.15-.6.11-1.17,0-.04.01-.05.02-.12-.07-.27,0-.98-.15-1,0-.33.07-.39.11-.52-.05-.39-.04-1.5-.08-1.95.06-.54.02-.72-.04-.91l.02-.23s-.03.07-.03.17c-.03-.12-.06-.26-.06-.54l.17-.17c-.02-1.3-.08-2.72-.13-4.15h.02c-.02-.44-.03-.92-.04-1.39.04.13.09.35.14-.05-.03-.9-.03-1.84-.02-2.79l.1.06c-.02-.51-.04-.16-.1-.1.02-1.6.08-3.23.15-4.69l-.15-.9s0-.06.02-.1l.13.23c.2-2.28-.35-4.1-.02-5.83-.12-.6-.08,1.24-.22.7.02-1.04.26-2.14.26-2.46.09-1.44-.25-1.34-.18-2.84-.02.07-.06.12-.1.12,0-.61.02-1.21.02-1.82.04.02.08.1.1.33,0,.25-.01.37-.03.36.02.34.05.78.11.36l-.06-.13c.06-.52.05-1.96.15-1.62-.06-.79-.1-.33-.13.25.08-1.35,0-2.09.06-3.48-.03.22-.1.42-.1.21.02-.66.02-.97,0-1.15.02-.26.02-.55.05-.79-.05-.1-.07-.35-.08-.65.04,0,.07.03.02-.77.06-.85.16-.18.21.15-.12-1.26.07-2.35.09-3.07l.05.66c-.03-.39-.03-.72-.03-1.05l-.12.38c.02-.39.02-.72.07-.71-.05-.25-.11-.1-.18-.11.02-.31.05-.72.07-1.32,0-.06,0-.11,0-.17.04-.03.08.02.09.55-.02-.26-.02-.59,0-.98.02-.06.03.05.04.16.14-1.57-.18-.72-.18-2.34.09.21.17-.38.15-.64,0,.44-.07.41-.14.16v-.04s-.03-.72-.03-.72c0,.13-.02.28-.04.39,0-.03-.01-.05-.01-.09.05-.75,0-1.01-.03-1.3.05-.65.12-1.17.16-1.18l-.13-2.64c.06.06.08.5.12.85-.16-1.41.16-.25.02-1.55,0,.01,0,0-.01,0-.05-.97.12-1.21.03-2.41-.03.1-.05.17-.07.22,0-.39,0-.78-.02-1.12l.11.21c.03-1.96-.04-4.13-.04-6.33-.05.79-.24.61-.25-.04l.17-.26c-.02-.1-.04-.1-.05-.08.02-.09.03-.18.05-.26-.02.01-.03-.12-.03-.29.04.07.07.19.09.37l-.06-1c.05-.06.08.18.14.23-.1-.41.17-1.72,0-2.31l.05-.06c0-2.19-.05-3.19-.05-4.98-.14-.04-.11-.73-.22-1.27.05-1.32.16-2.77.15-4.36-.07-1.11-.12-.32-.2-.83.13-.08.12-1.66.21-.84-.02-1.9-.02-2.43-.12-4.84-.05.26-.08.56-.12.4-.02-.44.06-.99.12-.93v.12c-.18-2.7.4-6.23.14-8.39v.12s-.12-2.23-.12-2.23c.02-1.03.09.62.18-.15-.21-2.4.04-3.8-.1-5.78.38-1.54-.02-5.44.23-7.52l-.09.12c-.09-.53.05-.64.07-1.04-.07.06-.08.58-.13.25-.1-4.53.12-9.35.2-13.99.01-.76-.08-1.03-.17-1.29.02-.07.05-.19.07-.44-.11.18-.15-.44-.12-1.2l.12.44c-.05-.83-.07-1.67-.09-2.51l.02.14c-.02-.29-.02-.72-.03-1.2-.01-2.29.03-4.59-.08-6.79.04.2.09.21.09.53.12-.71,0-2.62-.1-2.63,0-.52.09-.12.14-.44.07-.71-.16-1.78-.04-2.16.02-.06.04.2.05.33-.06-.46.01-2.16-.13-1.71.02-.49.02-.95,0-1.41,0-.12,0-.24,0-.36-.02-.58-.03-1.14.01-1.65-.16-.65.07-2.15-.15-2.36.12.05.16-.6.16-1.33.03-.42.05-.84.06-1.16l.03.03c.02-1.44-.04-2.65-.1-3.84-.02-1.2-.21-2.29.04-2.99-.03-.63-.05-1.21-.08-1.82.04-.95.04-2.1.05-3.24,0,0,.01.02.02.02,0-.09-.01-.16-.01-.25.01-.94.03-1.86.07-2.67-.04.38-.17-.07-.19-.51.04-.58-.15-1.61.05-1.52v.21c.19-.44.15-1.63.15-2.57l-.22-.13v-.48c.28-2.45-.16-6.05.17-7.3-.06-.59-.06-1.32-.13-1.91l.14.04c.04-1.64.06-2.46.03-4.48l.1.41c.01-1.14-.41-1.45-.41-2.5l.21-.31c0-1.99.19-4,0-5.98.03.04.09.09.1.42,0-.94.15-3.62-.14-3.29.19-.02.02-2.06-.06-3.13l.14.17c-.18-.92-.23-.95-.27-2.22.02-.3.11-.26.08.14.08-1-.13-.79-.05-2l.09.45c.01-1.03-.04-.95-.14-1.52-.01-.16-.02-.35-.02-.56,0,0,0,0,0,0,0-.02,0-.04,0-.05.01-.64.09-1.37.18-1.48-.08-.14-.18-.71-.14-1.31.05-.08.08.14.09.25.1-1.72-.16-2.57-.02-3.74.05-.02.07-.1.08-.19,0,1.37-.01,2.47-.03,2.36.13,0,.15-1.1.33-.21-.09-.89-.3-2.42-.24-3.5.01-.05.03-.1.04-.14v.11c.03-.25.02-.47,0-.68.02-.35.04-.56.04-.89.11-.12.06-1.26.07-1.81-.14.04-.12-.68-.23-.01.01-.09.02.1.02.47,0,.09,0,.18.01.24v-.04c-.01.36,0,.84,0,1.37-.07-.44-.13-.9-.05-1.5-.09-.29-.18-.6-.23-.78.2-.75.31-2.19.43-2.38-.08-1.69-.04-3.97-.31-5.04-.03-.48.08-.54.12-.72.02.28.02.6.06.75-.07-.96-.02-2.83-.21-3.07.09-1.2.17.68.14-.97l.06.22c.3-3.24-.46-5.33-.08-8.91-.02.25-.04.37-.07.42.18-4.1-.14-8.5.13-12.54.06-1.15-.06-1.29-.15-2l.15-.24-.17-1.22c-.13-1.72.38-2.93.14-5.11l-.1.27c.02-.78-.06-2.47.06-2.33-.02-.08-.11-.26-.05-.56l.08-.02-.13-1.92c.06-1.48.32.26.34-1.9-.03-.8-.23-2.31-.28-2.01,0,.32-.05.82-.13.84l-.04-.74s-.08-.06-.12-.1v-.04Zm-.85,255.41l.02.04s-.05-.08-.07-.15c-.02-.37,0-.49.04-.54,0,.17,0,.37.02.64Zm1.38-204.8l-.02-.04s.05.08.07.15c.02.36,0,.49-.04.54,0-.17,0-.37-.02-.64Zm-.71-15.83c-.04-.3-.07-.67-.07-1.05.02.29.05.37.08.37.02.29.04.52,0,.67Zm-.25,4.36s0,0,0,.02c0,0,0,0,0,.01v-.03Zm-.08,7.47c-.01-.15-.02-.31-.03-.46.02.03.04.02.06-.09v-.15s.02.09.02.09c0,.11,0,.23.01.34,0,.15-.01.32-.03.54-.01-.05-.02-.13-.03-.2,0-.1,0-.19,0-.29v.21Zm.11,8.12c.01.12.02.26.03.37,0,.07,0,.15-.01.23,0,.02,0,.04,0,.05,0,.04-.01.08-.02.12,0-.22,0-.49,0-.77Zm-.41,112.85l.09-.68c0,.22-.01.48-.05.83l-.04-.15Zm.67,104.34c-.02-.29-.04-.52,0-.67.04.3.07.67.08,1.05-.02-.29-.05-.37-.08-.38Zm.25-5.03s0,0,0-.01v-.02.03Zm.08-7.47c.01.15.02.31.03.45-.02-.03-.04-.02-.06.09v.15s-.02-.1-.02-.1c0-.11,0-.23-.01-.34,0-.15.02-.33.03-.54.01.05.02.13.03.21,0,.1,0,.19,0,.29v-.21Zm-.11-8.13c0-.12-.02-.26-.03-.36,0-.07,0-.15.01-.23,0-.02,0-.03,0-.05,0-.04.01-.08.02-.12,0,.22,0,.49,0,.77Zm.41-112.85l-.09.68c0-.22.01-.48.05-.83l.04.15Z"/>
      <path class="cls-1" d="m3.72,89.34c0-.2-.02-.29-.04-.3.01.19.02.35.04.3Z"/>
      <path class="cls-1" d="m3.61,50.59v-.22c-.02-.06-.04-.12-.07-.18l.07.4Z"/>
      <path class="cls-1" d="m3.82,322.08v-.15s-.06-.04-.09-.04l.09.19Z"/>
      <path class="cls-1" d="m3.37,102.33v-.04c-.01-.22-.01-.09,0,.04Z"/>
      <path class="cls-1" d="m4.83,134.4c-.05.22-.08.45-.1.7.01.05.02.11.04.15l.06-.84Z"/>
      <path class="cls-1" d="m3.54,272.03c0,.05,0,.08,0,.15.01-.07.02-.15.03-.21l-.04-.13v.2Z"/>
      <path class="cls-1" d="m3.81,62.06s-.01.03-.02.05v.05s0-.08.02-.1Z"/>
      <path class="cls-1" d="m3.64,40.11c-.03-.76-.08.01-.11-.03.05.49.06.6.11.03Z"/>
      <polygon class="cls-1" points="3.44 81.58 3.49 82.57 3.46 81.84 3.44 81.58"/>
      <polygon class="cls-1" points="3.37 227.89 3.42 228.76 3.43 228.35 3.37 227.89"/>
      <path class="cls-1" d="m4.48,248.8c0,.2.02.29.04.3-.01-.19-.02-.35-.04-.3Z"/>
      <path class="cls-1" d="m4.59,287.54v.22c.02.06.04.12.07.18l-.07-.4Z"/>
      <path class="cls-1" d="m4.38,16.06v.15s.06.04.08.04l-.08-.19Z"/>
      <path class="cls-1" d="m4.83,235.8v.04c.01.22,0,.09,0-.04Z"/>
      <path class="cls-1" d="m3.37,203.74c.05-.22.08-.46.1-.7-.01-.05-.02-.11-.04-.14l-.06.84Z"/>
      <path class="cls-1" d="m4.66,66.1c0-.05,0-.09,0-.15-.01.08-.02.15-.03.22l.04.13v-.2Z"/>
      <path class="cls-1" d="m4.39,276.07s.01-.04.02-.05v-.05s0,.08-.02.1Z"/>
      <path class="cls-1" d="m4.73,298.11c.03.76.08-.01.11.03-.05-.49-.06-.6-.11-.03Z"/>
      <polygon class="cls-1" points="4.76 256.55 4.71 255.56 4.74 256.29 4.76 256.55"/>
      <polygon class="cls-1" points="4.83 110.25 4.78 109.37 4.78 109.79 4.83 110.25"/>
    </g>
    <g>
      <path class="cls-1" d="m7.98,16.06c-.02-.08-.06-.09-.09-.03-.16-.11-.32-.04-.43,1.22l.14,1.27-.11.39v-1.06c-.11.59-.02.98.04,1.41-.06.1-.1.27-.13.52l.22,1.25c-.09.14-.18-.57-.23.25.1.59.21-.54.27.42-.11.6-.19.41-.1,1.12-.06.1-.1-.06-.12-.34.07.63.03,1.66.15,2-.13.62.03,2.12-.19,2.05.04.16.12.76.16,1.29-.05-.05-.12.09-.09-.33-.03.39-.03.73-.02,1.05-.01.67,0,1.72-.17,1.54.16.54.15,1.64.17,2.74l-.03.08.03.04c0,.48.02.95.06,1.37-.02-.08-.06-.23-.05-.36,0,.17-.01.3-.02.43-.05.19-.1.32-.11-.21-.11,1.27,0,.58.06.71-.03.18-.05.35-.07.57.12.07.19.58.25,1.12-.02.14-.04.28-.09.32.06.18.08-.06.1-.21.02.14.03.26.05.39-.08.15-.09.38-.07.68-.1-.03-.16-.83-.29-.61.16-.04.15,1.67.29,1.35-.02.15-.04.24-.05.33-.04-.31-.03-.59-.11.07.03.08.04.19.05.29-.02.08-.05.16-.11.3.13.08.13.26.13.5-.03.49-.1,1.01-.07,1.41,0,0,0,.01,0,.01-.02,0-.05.02-.09.09,0,.07.03.12.05.16,0,.1,0,.26.02.54-.08.55-.16-.49-.16-.49,0,1.18.18.56.29.82.05,1.41-.14.64-.23,1.12.04.78.17,1.4.2,1.99,0,.09,0,.18,0,.28-.02.05-.03.09-.06-.02.02.16.03.37.04.57-.02.53-.03,1.06-.05,1.44l-.03-.04c.08.1.12.41.14.78,0,.11.01.21.02.32.01.3.02.61.03.92h0s0,0,0,0c0,.11,0,.22,0,.33-.04-.01-.06-.07-.09-.12.03-.07.05-.16.07-.2-.09.1-.13-.82-.13.05-.02-.1-.04-.21-.06-.41v.84c.06.2.09.46.12,1.01v-.02c0-.18-.01-.35-.1-.13l-.04-.06s0,.1,0,.14c0,.02-.01.03-.02.05-.05,1.69.08,1.89.03,3.57.08.33.13.03.2.19-.02.31.02.38.05.46,0,.13.01.28.01.39-.05.08-.06.32-.12.25,0-.13.04-.46,0-.66-.02.59-.07,1.3-.15,1.54.04-.04.08.03.11.17-.08.31-.15.59-.11,1.17,0,.04-.02.05-.02.12.07.27,0,.98.15,1,0,.33-.07.39-.11.51.05.39.04,1.5.08,1.95-.06.54-.02.72.04.91l-.02.23s.03-.07.03-.17c.03.12.06.26.06.54l-.17.17c.02,1.3.08,2.72.13,4.15h-.02c.02.44.03.92.05,1.38-.04-.13-.09-.34-.14.06.03.9.03,1.84.01,2.79l-.1-.06c.02.51.04.16.1.1-.02,1.61-.08,3.23-.15,4.7l.15.9s0,.06-.01.09l-.13-.23c-.2,2.27.35,4.1.01,5.83.12.6.08-1.24.22-.7-.02,1.05-.26,2.14-.26,2.46-.09,1.44.25,1.34.18,2.84.02-.08.06-.12.1-.12,0,.61-.02,1.21-.02,1.82-.04-.02-.09-.1-.1-.33,0-.25.01-.37.03-.36-.02-.34-.05-.79-.11-.37l.06.14c-.06.52-.05,1.96-.15,1.62.06.79.1.34.13-.25-.08,1.35,0,2.1-.05,3.48.03-.22.1-.42.1-.21-.02.66-.02.97,0,1.15-.02.26-.03.55-.05.79.05.11.07.35.08.65-.04,0-.07-.02-.02.78-.06.84-.16.18-.21-.15.12,1.26-.07,2.35-.09,3.07l-.05-.66c.03.39.03.72.03,1.05l.12-.38c-.02.39-.02.72-.07.71.05.25.11.1.18.11-.02.31-.05.72-.07,1.33,0,.06,0,.11,0,.17-.04.03-.08-.03-.09-.56.02.27.02.6,0,.98-.02.06-.03-.06-.04-.16-.14,1.57.18.72.18,2.34-.09-.21-.17.38-.15.64,0-.44.07-.41.14-.16v.03s.03.72.03.72c0-.14.02-.28.04-.38,0,.03.01.05.01.08-.05.76,0,1.01.03,1.3-.05.64-.12,1.17-.17,1.18l.13,2.65c-.06-.06-.08-.5-.12-.86.16,1.41-.16.25-.02,1.55,0-.01,0,0,0,0,.06.97-.12,1.21-.03,2.41.03-.1.05-.17.07-.22,0,.39,0,.78.02,1.12l-.11-.21c-.03,1.96.04,4.13.04,6.33.05-.79.24-.61.25.04l-.17.26c.02.09.04.1.05.07-.02.09-.03.18-.05.26.02-.01.03.12.04.29-.04-.07-.07-.2-.09-.37l.05,1c-.05.06-.07-.18-.14-.24.1.41-.17,1.72,0,2.31l-.05.06c0,2.2.05,3.2.05,4.99.14.03.11.73.22,1.27-.05,1.32-.16,2.77-.15,4.36.07,1.11.12.32.2.83-.13.09-.12,1.66-.21.84.02,1.9.02,2.43.12,4.83.05-.26.08-.55.12-.4.02.44-.06.99-.12.93v-.12c.17,2.7-.4,6.23-.14,8.38v-.12s.12,2.23.12,2.23c-.03,1.03-.1-.62-.18.15.21,2.41-.04,3.8.1,5.78-.38,1.54.02,5.44-.23,7.51l.09-.12c.09.53-.05.65-.07,1.04.07-.05.08-.58.13-.25.1,4.53-.12,9.35-.2,14,0,.76.08,1.03.17,1.29-.02.07-.05.19-.07.44.11-.18.15.44.12,1.2l-.12-.44c.05.83.07,1.66.08,2.51l-.02-.14c.02.29.02.72.03,1.2.01,2.29-.03,4.59.09,6.79-.04-.2-.09-.21-.09-.53-.12.71,0,2.62.1,2.63,0,.52-.09.12-.14.44-.07.71.16,1.78.04,2.16-.02.06-.04-.2-.05-.33.06.46-.01,2.15.13,1.71-.02.49-.02.95,0,1.4,0,.12,0,.25,0,.36.02.58.03,1.14-.01,1.65.16.65-.07,2.16.15,2.36-.12-.04-.16.6-.16,1.33-.03.42-.05.84-.06,1.16l-.03-.03c-.02,1.44.03,2.65.1,3.85.02,1.19.21,2.29-.04,2.98.03.63.05,1.21.07,1.82-.04.95-.04,2.1-.05,3.24,0,0,0-.02-.02-.02,0,.09,0,.16.01.25-.01.94-.03,1.86-.07,2.66.04-.38.17.07.19.51-.04.58.15,1.61-.05,1.52v-.21c-.2.43-.15,1.63-.15,2.57l.21.13c0,.16,0,.32,0,.47-.28,2.45.16,6.05-.17,7.3.06.59.06,1.33.13,1.92l-.14-.04c-.04,1.63-.06,2.45-.03,4.47l-.1-.42c-.01,1.14.41,1.46.41,2.51l-.21.31c0,2-.19,4,0,5.98-.03-.04-.09-.1-.1-.42,0,.93-.15,3.62.14,3.29-.19.02-.02,2.06.06,3.13l-.14-.17c.18.91.23.94.27,2.22-.02.3-.11.26-.08-.14-.08,1,.13.79.05,2l-.09-.46c-.01,1.03.04.95.14,1.52.01.16.02.36.01.57h0s0,.04,0,.05c-.01.64-.09,1.37-.18,1.48.08.14.18.71.14,1.32-.05.08-.08-.15-.09-.25-.1,1.72.16,2.57.02,3.75-.05.02-.07.1-.08.19,0-1.37.02-2.47.03-2.36-.13,0-.15,1.09-.33.21.1.89.3,2.42.24,3.49-.01.05-.03.1-.04.14l-.02-.11c-.01.25,0,.47.02.69-.02.34-.04.56-.04.89-.11.12-.06,1.27-.06,1.81.14-.04.12.68.23.01,0,.09-.02-.1-.02-.47,0-.08,0-.18-.01-.23v.04c0-.36,0-.83,0-1.37.07.44.13.9.05,1.5.09.29.18.6.23.78-.2.74-.31,2.19-.43,2.39.08,1.69.04,3.96.31,5.04.03.48-.08.55-.12.72-.02-.28-.02-.6-.06-.76.07.96.02,2.84.21,3.08-.09,1.2-.17-.69-.14.97l-.06-.22c-.3,3.24.46,5.33.08,8.91.02-.25.03-.37.06-.42-.17,4.11.14,8.5-.13,12.55-.06,1.15.06,1.29.15,2l-.15.24.17,1.22c.12,1.72-.38,2.93-.14,5.11l.1-.27c-.02.77.06,2.47-.06,2.33.02.08.11.26.05.56h-.08s.13,1.94.13,1.94c-.06,1.48-.32-.26-.34,1.9.03.8.23,2.31.28,2.01,0-.32.05-.82.13-.84l.04.74s.08.07.12.1v.04c.02.08.06.1.09.03.16.11.49.11.61-1.14l-.14-1.27.11-.39v1.05c.11-.59.02-.98-.04-1.41.06-.1.1-.27.13-.52l-.22-1.25c.09-.14.18.57.23-.26-.1-.59-.21.54-.27-.42.11-.59.19-.41.1-1.12.06-.1.1.06.13.34-.07-.64-.03-1.66-.15-2,.13-.61-.03-2.12.19-2.05-.04-.16-.12-.76-.16-1.29.05.04.12-.1.1.33.03-.39.03-.73.02-1.05.01-.67,0-1.72.17-1.54-.16-.54-.15-1.64-.17-2.74l.03-.07-.03-.04c0-.48-.02-.95-.06-1.37.02.08.06.23.04.35,0-.17.01-.3.02-.43.05-.2.1-.32.11.21.11-1.27,0-.58-.06-.72.02-.18.05-.35.07-.56-.13-.07-.19-.58-.25-1.12.02-.14.04-.28.09-.32-.06-.18-.08.06-.1.21-.02-.14-.03-.26-.05-.39.08-.15.09-.38.07-.68.1.03.16.83.29.61-.16.04-.16-1.66-.29-1.35.02-.15.04-.24.05-.32.04.3.03.58.11-.08-.03-.07-.04-.19-.05-.29.02-.08.05-.15.11-.3-.13-.07-.13-.26-.13-.5.03-.48.1-1.01.07-1.41,0,0,0,0,0-.01.02,0,.06-.02.1-.09,0-.07-.03-.11-.05-.16,0-.11,0-.26-.02-.54.08-.55.16.49.16.49,0-1.18-.18-.56-.29-.82-.05-1.41.14-.64.23-1.11-.04-.78-.35-1.49-.37-2.07,0-.09,0-.19,0-.27.02-.05.03-.1.06.02-.02-.16-.03-.37-.04-.57.02-.53.03-1.05.06-1.44l.03.04c-.08-.1-.12-.41-.14-.78,0-.11-.01-.21-.02-.32,0-.3-.02-.61-.03-.92h0s0,0,0,0c0-.11,0-.22-.01-.32.04.01.06.07.09.12-.03.07-.05.16-.07.2.09-.1.13.82.13-.05.02.1.05.21.06.41v-.83c-.06-.2-.09-.46-.12-1v.02c.01.18.01.35.1.14l.04.05s0-.1,0-.14c0-.02.01-.02.02-.06.05-1.68-.08-1.89-.03-3.57-.08-.33-.13-.03-.2-.19.02-.31-.02-.38-.05-.46,0-.13-.02-.28-.02-.39.05-.08.06-.32.12-.26,0,.13-.04.46,0,.66.02-.59.07-1.3.15-1.54-.04.03-.08-.03-.11-.17.08-.31.15-.6.11-1.17,0-.04.01-.05.02-.12-.07-.27,0-.98-.15-1,0-.33.07-.39.11-.52-.05-.39-.04-1.5-.08-1.95.06-.54.02-.72-.04-.91l.02-.23s-.03.07-.03.17c-.03-.12-.06-.26-.06-.54l.17-.17c-.02-1.3-.08-2.72-.13-4.15h.02c-.02-.44-.03-.92-.04-1.39.04.13.09.35.14-.05-.03-.9-.03-1.84-.02-2.79l.1.06c-.02-.51-.04-.16-.1-.1.02-1.6.08-3.23.15-4.69l-.15-.9s0-.06.02-.1l.13.23c.2-2.28-.35-4.1-.02-5.83-.12-.6-.08,1.24-.22.7.02-1.04.26-2.14.26-2.46.09-1.44-.25-1.34-.18-2.84-.02.07-.06.12-.1.12,0-.61.02-1.21.02-1.82.04.02.08.1.1.33,0,.25-.01.37-.03.36.02.34.05.78.11.36l-.06-.13c.06-.52.05-1.96.15-1.62-.06-.79-.1-.33-.13.25.08-1.35,0-2.09.06-3.48-.03.22-.1.42-.1.21.02-.66.02-.97,0-1.15.02-.26.02-.55.05-.79-.05-.1-.07-.35-.08-.65.04,0,.07.03.02-.77.06-.85.16-.18.21.15-.12-1.26.07-2.35.09-3.07l.05.66c-.03-.39-.03-.72-.03-1.05l-.12.38c.02-.39.02-.72.07-.71-.05-.25-.11-.1-.18-.11.02-.31.05-.72.07-1.32,0-.06,0-.11,0-.17.04-.03.08.02.09.55-.02-.26-.02-.59,0-.98.02-.06.03.05.04.16.14-1.57-.18-.72-.18-2.34.09.21.17-.38.15-.64,0,.44-.07.41-.14.16v-.04s-.03-.72-.03-.72c0,.13-.02.28-.04.39,0-.03-.01-.05-.01-.09.05-.75,0-1.01-.03-1.3.05-.65.12-1.17.16-1.18l-.13-2.64c.06.06.08.5.12.85-.16-1.41.16-.25.02-1.55,0,.01,0,0-.01,0-.05-.97.12-1.21.03-2.41-.03.1-.05.17-.07.22,0-.39,0-.78-.02-1.12l.11.21c.03-1.96-.04-4.13-.04-6.33-.05.79-.24.61-.25-.04l.17-.26c-.02-.1-.04-.1-.05-.08.02-.09.03-.18.05-.26-.02.01-.03-.12-.03-.29.04.07.07.19.09.37l-.06-1c.05-.06.08.18.14.23-.1-.41.17-1.72,0-2.31l.05-.06c0-2.19-.05-3.19-.05-4.98-.14-.04-.11-.73-.22-1.27.05-1.32.16-2.77.15-4.36-.07-1.11-.12-.32-.2-.83.13-.08.12-1.66.21-.84-.02-1.9-.02-2.43-.12-4.84-.05.26-.08.56-.12.4-.02-.44.06-.99.12-.93v.12c-.18-2.7.4-6.23.14-8.39v.12s-.12-2.23-.12-2.23c.02-1.03.09.62.18-.15-.21-2.4.04-3.8-.1-5.78.38-1.54-.02-5.44.23-7.52l-.09.12c-.09-.53.05-.64.07-1.04-.07.06-.08.58-.13.25-.1-4.53.12-9.35.2-13.99.01-.76-.08-1.03-.17-1.29.02-.07.05-.19.07-.44-.11.18-.15-.44-.12-1.2l.12.44c-.05-.83-.07-1.67-.09-2.51l.02.14c-.02-.29-.02-.72-.03-1.2-.01-2.29.03-4.59-.08-6.79.04.2.09.21.09.53.12-.71,0-2.62-.1-2.63,0-.52.09-.12.14-.44.07-.71-.16-1.78-.04-2.16.02-.06.04.2.05.33-.06-.46.01-2.16-.13-1.71.02-.49.02-.95,0-1.41,0-.12,0-.24,0-.36-.02-.58-.03-1.14.01-1.65-.16-.65.07-2.15-.15-2.36.12.05.16-.6.16-1.33.03-.42.05-.84.06-1.16l.03.03c.02-1.44-.04-2.65-.1-3.84-.02-1.2-.21-2.29.04-2.99-.03-.63-.05-1.21-.08-1.82.04-.95.04-2.1.05-3.24,0,0,.01.02.02.02,0-.09-.01-.16-.01-.25.01-.94.03-1.86.07-2.67-.04.38-.17-.07-.19-.51.04-.58-.15-1.61.05-1.52v.21c.19-.44.15-1.63.15-2.57l-.22-.13v-.48c.28-2.45-.16-6.05.17-7.3-.06-.59-.06-1.32-.13-1.91l.14.04c.04-1.64.06-2.46.03-4.48l.1.41c.01-1.14-.41-1.45-.41-2.5l.21-.31c0-1.99.19-4,0-5.98.03.04.09.09.1.42,0-.94.15-3.62-.14-3.29.19-.02.02-2.06-.06-3.13l.14.17c-.18-.92-.23-.95-.27-2.22.02-.3.11-.26.08.14.08-1-.13-.79-.05-2l.09.45c.01-1.03-.04-.95-.14-1.52-.01-.16-.02-.35-.02-.56,0,0,0,0,0,0,0-.02,0-.04,0-.05.01-.64.09-1.37.18-1.48-.08-.14-.18-.71-.14-1.31.05-.08.08.14.09.25.1-1.72-.16-2.57-.02-3.74.05-.02.07-.1.08-.19,0,1.37-.01,2.47-.03,2.36.13,0,.15-1.1.33-.21-.09-.89-.3-2.42-.24-3.5.01-.05.03-.1.04-.14v.11c.03-.25.02-.47,0-.68.02-.35.04-.56.04-.89.11-.12.06-1.26.07-1.81-.14.04-.12-.68-.23-.01.01-.09.02.1.02.47,0,.09,0,.18.01.24v-.04c-.01.36,0,.84,0,1.37-.07-.44-.13-.9-.05-1.5-.09-.29-.18-.6-.23-.78.2-.75.31-2.19.43-2.38-.08-1.69-.04-3.97-.31-5.04-.03-.48.08-.54.12-.72.02.28.02.6.06.75-.07-.96-.02-2.83-.21-3.07.09-1.2.17.68.14-.97l.06.22c.3-3.24-.46-5.33-.08-8.91-.02.25-.04.37-.07.42.18-4.1-.14-8.5.13-12.54.06-1.15-.06-1.29-.15-2l.15-.24-.17-1.22c-.13-1.72.38-2.93.14-5.11l-.1.27c.02-.78-.06-2.47.06-2.33-.02-.08-.11-.26-.05-.56l.08-.02-.13-1.92c.06-1.48.31.26.33-1.9-.03-.8-.23-2.31-.28-2.01,0,.32-.05.82-.13.84l-.04-.74s-.08-.06-.12-.1v-.04Zm-.85,255.41l.02.04s-.05-.08-.07-.15c-.02-.37,0-.49.04-.54,0,.17,0,.37.02.64Zm1.38-204.8l-.02-.04s.05.08.07.15c.02.36,0,.49-.04.54,0-.17,0-.37-.02-.64Zm-.71-15.83c-.04-.3-.07-.67-.07-1.05.02.29.05.37.08.37.02.29.04.52,0,.67Zm-.25,4.36s0,0,0,.02c0,0,0,0,0,.01v-.03Zm-.08,7.47c-.01-.15-.02-.31-.03-.46.02.03.04.02.06-.09v-.15s.02.09.02.09c0,.11,0,.23.01.34,0,.15-.01.32-.03.54-.01-.05-.02-.13-.03-.2,0-.1,0-.19,0-.29v.21Zm.11,8.12c.01.12.02.26.03.37,0,.07,0,.15-.01.23,0,.02,0,.04,0,.05,0,.04-.01.08-.02.12,0-.22,0-.49,0-.77Zm-.41,112.85l.09-.68c0,.22-.01.48-.05.83l-.04-.15Zm.67,104.34c-.02-.29-.04-.52,0-.67.04.3.07.67.08,1.05-.02-.29-.05-.37-.08-.38Zm.25-5.03s0,0,0-.01v-.02.03Zm.08-7.47c.01.15.02.31.03.45-.02-.03-.04-.02-.06.09v.15s-.02-.1-.02-.1c0-.11,0-.23-.01-.34,0-.15.02-.33.03-.54.01.05.02.13.03.21,0,.1,0,.19,0,.29v-.21Zm-.11-8.13c0-.12-.02-.26-.03-.36,0-.07,0-.15.01-.23,0-.02,0-.03,0-.05,0-.04.01-.08.02-.12,0,.22,0,.49,0,.77Zm.41-112.85l-.09.68c0-.22.01-.48.05-.83l.04.15Z"/>
      <path class="cls-1" d="m7.43,89.34c0-.2-.02-.29-.04-.3.01.19.02.35.04.3Z"/>
      <path class="cls-1" d="m7.33,50.59v-.22c-.02-.06-.04-.12-.07-.18l.07.4Z"/>
      <path class="cls-1" d="m7.54,322.08v-.15s-.06-.04-.09-.04l.09.19Z"/>
      <path class="cls-1" d="m7.09,102.33v-.04c-.01-.22-.01-.09,0,.04Z"/>
      <path class="cls-1" d="m8.54,134.4c-.05.22-.08.45-.1.7.01.05.02.11.04.15l.06-.84Z"/>
      <path class="cls-1" d="m7.26,272.03c0,.05,0,.08,0,.15.01-.07.02-.15.03-.21l-.04-.13v.2Z"/>
      <path class="cls-1" d="m7.52,62.06s-.01.03-.02.05v.05s0-.08.02-.1Z"/>
      <path class="cls-1" d="m7.36,40.11c-.03-.76-.08.01-.11-.03.05.49.06.6.11.03Z"/>
      <polygon class="cls-1" points="7.15 81.58 7.2 82.57 7.17 81.84 7.15 81.58"/>
      <polygon class="cls-1" points="7.09 227.89 7.13 228.76 7.14 228.35 7.09 227.89"/>
      <path class="cls-1" d="m8.2,248.8c0,.2.02.29.04.3-.01-.19-.02-.35-.04-.3Z"/>
      <path class="cls-1" d="m8.3,287.54v.22c.02.06.04.12.07.18l-.07-.4Z"/>
      <path class="cls-1" d="m8.09,16.06v.15s.06.04.08.04l-.08-.19Z"/>
      <path class="cls-1" d="m8.54,235.8v.04c.01.22,0,.09,0-.04Z"/>
      <path class="cls-1" d="m7.09,203.74c.05-.22.08-.46.1-.7-.01-.05-.02-.11-.04-.14l-.06.84Z"/>
      <path class="cls-1" d="m8.37,66.1c0-.05,0-.09,0-.15-.01.08-.02.15-.03.22l.04.13v-.2Z"/>
      <path class="cls-1" d="m8.11,276.07s.01-.04.02-.05v-.05s0,.08-.02.1Z"/>
      <path class="cls-1" d="m8.45,298.11c.03.76.08-.01.11.03-.05-.49-.06-.6-.11-.03Z"/>
      <polygon class="cls-1" points="8.48 256.55 8.43 255.56 8.46 256.29 8.48 256.55"/>
      <polygon class="cls-1" points="8.54 110.25 8.5 109.37 8.49 109.79 8.54 110.25"/>
    </g>
  </g>
  <g>
    <g>
      <path class="cls-1" d="m4.26,321.52s-.06-.03-.09-.01c-.16-.04-.31-.01-.43.41l.14.42-.11.13v-.35c-.11.2-.02.33.04.47-.06.03-.1.09-.13.17l.22.42c-.09.05-.18-.19-.23.09.1.2.21-.18.27.14-.11.2-.19.14-.1.38-.06.03-.1-.02-.12-.11.07.21.03.56.15.67-.13.21.03.71-.19.69.04.05.12.25.16.43-.05-.02-.12.03-.09-.11-.03.13-.03.25-.02.35-.01.22,0,.58-.17.52.16.18.15.55.17.92l-.03.03h.03c0,.17.02.33.06.47-.02-.03-.06-.08-.05-.12,0,.06-.01.1-.02.14-.05.07-.1.11-.11-.07-.11.42,0,.19.06.24-.03.06-.05.12-.07.19.12.02.19.19.25.37-.02.05-.04.09-.09.11.06.06.08-.02.1-.07.02.05.03.09.05.13-.08.05-.09.13-.07.23-.1,0-.16-.28-.29-.21.16-.01.15.56.29.45-.02.05-.04.08-.05.11-.04-.1-.03-.2-.11.02.03.03.04.06.05.1-.02.03-.05.05-.11.1.13.03.13.09.13.17-.03.16-.1.34-.07.47,0,0,0,0,0,0-.02,0-.05,0-.09.03,0,.02.03.04.05.05,0,.03,0,.09.02.18-.08.18-.16-.16-.16-.16,0,.4.18.19.29.28.05.47-.14.22-.23.37.04.26.17.47.2.67,0,.03,0,.06,0,.09-.02.02-.03.03-.06,0,.02.05.03.12.04.19-.02.18-.03.35-.05.48h-.03c.08.02.12.12.14.25,0,.04.01.07.02.11.01.1.02.2.03.31h0s0,0,0,0c0,.04,0,.07,0,.11-.04,0-.06-.02-.09-.04.03-.02.05-.05.07-.07-.09.03-.13-.27-.13.02-.02-.03-.04-.07-.06-.14v.28c.06.07.09.15.12.34h-.01c0-.07,0-.12-.09-.05l-.04-.02s0,.03,0,.05c0,0-.01,0-.02.02-.05.56.08.63.03,1.19.08.11.13.01.2.06-.02.1.02.13.05.15,0,.04.01.09.01.13-.05.03-.06.11-.12.09,0-.04.04-.15,0-.22-.02.2-.07.43-.15.51.04-.01.08,0,.11.06-.08.1-.15.2-.11.39,0,.01-.02.02-.02.04.07.09,0,.33.15.33,0,.11-.07.13-.11.17.05.13.04.5.08.65-.06.18-.02.24.04.3l-.02.08s.03-.02.03-.06c.03.04.06.09.06.18l-.17.06c.02.44.08.91.13,1.39h-.02c.02.15.03.31.05.46-.04-.04-.09-.11-.14.02.03.3.03.62.01.93l-.1-.02c.02.17.04.05.1.03-.02.54-.08,1.08-.15,1.57l.15.3s0,.02-.01.03l-.13-.08c-.2.76.35,1.37.01,1.95.12.2.08-.41.22-.23-.02.35-.26.72-.26.82-.09.48.25.45.18.95.02-.03.06-.04.1-.04,0,.2-.02.4-.02.61-.04,0-.09-.03-.1-.11,0-.08.01-.12.03-.12-.02-.11-.05-.26-.11-.12l.06.05c-.06.17-.05.66-.15.54.06.27.1.11.13-.08-.08.45,0,.7-.05,1.17.03-.07.1-.14.1-.07-.02.22-.02.32,0,.39-.02.09-.03.18-.05.26.05.04.07.12.08.22-.04,0-.07,0-.02.26-.06.28-.16.06-.21-.05.12.42-.07.79-.09,1.03l-.05-.22c.03.13.03.24.03.35l.12-.13c-.02.13-.02.24-.07.24.05.08.11.03.18.04-.02.1-.05.24-.07.44,0,.02,0,.04,0,.06-.04.01-.08,0-.09-.19.02.09.02.2,0,.33-.02.02-.03-.02-.04-.06-.14.52.18.24.18.78-.09-.07-.17.13-.15.21,0-.15.07-.14.14-.05h-.01s.04.25.04.25c0-.05.02-.09.04-.13,0,.01.01.02.01.03-.05.25,0,.34.03.44-.05.22-.12.39-.17.4l.13.88c-.06-.02-.08-.17-.12-.29.16.47-.16.09-.02.52,0,0,0,0,0,0,.06.32-.12.4-.03.81.03-.03.05-.06.07-.07,0,.13,0,.26.02.38l-.11-.07c-.03.66.04,1.38.04,2.12.05-.26.24-.2.25.01l-.17.09s.04.03.05.02c-.02.03-.03.06-.05.09.02,0,.03.04.04.1-.04-.02-.07-.07-.09-.12l.05.33s-.07-.06-.14-.08c.1.14-.17.57,0,.77l-.05.02c0,.73.05,1.07.05,1.67.14.01.11.25.22.42-.05.44-.16.93-.15,1.46.07.37.12.11.2.28-.13.03-.12.56-.21.28.02.64.02.81.12,1.62.05-.09.08-.18.12-.13.02.15-.06.33-.12.31v-.04c.17.9-.4,2.08-.14,2.8v-.04s.12.74.12.74c-.03.34-.1-.21-.18.05.21.81-.04,1.27.1,1.93-.38.52.02,1.82-.23,2.51l.09-.04c.09.18-.05.22-.07.35.07-.02.08-.2.13-.08.1,1.51-.12,3.13-.2,4.68,0,.25.08.34.17.43-.02.02-.05.06-.07.15.11-.06.15.15.12.4l-.12-.15c.05.28.07.56.08.84l-.02-.05c.02.1.02.24.03.4.01.77-.03,1.54.09,2.27-.04-.07-.09-.07-.09-.18-.12.24,0,.87.1.88,0,.18-.09.04-.14.15-.07.24.16.6.04.72-.02.02-.04-.07-.05-.11.06.15-.01.72.13.57-.02.16-.02.32,0,.47,0,.04,0,.08,0,.12.02.2.03.38-.01.55.16.22-.07.72.15.79-.12-.01-.16.2-.16.44-.03.14-.05.28-.06.39h-.03c-.02.47.03.88.1,1.28.02.4.21.76-.04,1,.03.21.05.41.07.61-.04.32-.04.7-.05,1.08,0,0,0,0-.02,0,0,.03,0,.05.01.08-.01.31-.03.62-.07.89.04-.13.17.02.19.17-.04.2.15.54-.05.51v-.07c-.2.14-.15.55-.15.86l.21.04c0,.05,0,.11,0,.16-.28.82.16,2.02-.17,2.44.06.2.06.44.13.64h-.14c-.04.53-.06.81-.03,1.48l-.1-.14c-.01.38.41.49.41.84l-.21.1c0,.67-.19,1.34,0,2-.03-.01-.09-.03-.1-.14,0,.31-.15,1.21.14,1.1-.19,0-.02.69.06,1.05l-.14-.06c.18.31.23.32.27.74-.02.1-.11.09-.08-.05-.08.33.13.26.05.67l-.09-.15c-.01.34.04.32.14.51.01.05.02.12.01.19h0s0,.01,0,.02c-.01.21-.09.46-.18.5.08.05.18.24.14.44-.05.03-.08-.05-.09-.09-.1.57.16.86.02,1.25-.05,0-.07.03-.08.07,0-.46.02-.83.03-.79-.13,0-.15.37-.33.07.1.3.3.81.24,1.17-.01.02-.03.03-.04.05l-.02-.04c-.01.08,0,.16.02.23-.02.11-.04.19-.04.3-.11.04-.06.42-.06.61.14-.01.12.23.23,0,0,.03-.02-.03-.02-.16,0-.03,0-.06-.01-.08h.01c0-.11,0-.27,0-.45.07.15.13.3.05.5.09.1.18.2.23.26-.2.25-.31.73-.43.8.08.56.04,1.33.31,1.69.03.16-.08.18-.12.24-.02-.09-.02-.2-.06-.25.07.32.02.95.21,1.03-.09.4-.17-.23-.14.32l-.06-.08c-.3,1.08.46,1.78.08,2.98.02-.08.03-.12.06-.14-.17,1.37.14,2.84-.13,4.2-.06.38.06.43.15.67l-.15.08.17.41c.12.58-.38.98-.14,1.71l.1-.09c-.02.26.06.83-.06.78.02.03.11.09.05.19h-.08s.13.65.13.65c-.06.49-.32-.09-.34.64.03.27.23.77.28.67,0-.11.05-.28.13-.28l.04.25s.08.02.12.03h0s.06.04.08.02c.16.04.49.04.61-.38l-.14-.43.11-.13v.35c.11-.2.02-.33-.04-.47.06-.03.1-.09.13-.17l-.22-.42c.09-.05.18.19.23-.09-.1-.2-.21.18-.27-.14.11-.2.19-.14.11-.38.06-.03.1.02.13.11-.07-.21-.03-.56-.15-.67.13-.21-.03-.71.19-.68-.04-.05-.12-.25-.16-.43.05.01.12-.03.1.11.03-.13.03-.25.02-.35.01-.22,0-.58.17-.52-.16-.18-.15-.55-.17-.92l.03-.02h-.03c0-.17-.02-.33-.06-.47.02.03.06.08.04.12,0-.06.01-.1.02-.14.05-.07.1-.11.11.07.11-.43,0-.19-.06-.24.02-.06.05-.12.07-.19-.13-.02-.19-.2-.25-.37.02-.05.04-.09.09-.11-.06-.06-.08.02-.1.07-.02-.05-.03-.09-.05-.13.08-.05.09-.13.07-.23.1.01.16.28.29.21-.16.01-.16-.56-.29-.45.02-.05.04-.08.05-.11.04.1.03.19.11-.03-.03-.02-.04-.06-.05-.1.02-.03.05-.05.11-.1-.13-.02-.13-.09-.13-.17.03-.16.1-.34.07-.47,0,0,0,0,0,0,.02,0,.06,0,.1-.03,0-.02-.03-.04-.05-.05,0-.04,0-.09-.02-.18.08-.18.16.16.16.16,0-.39-.18-.19-.29-.28-.05-.47.14-.21.23-.37-.04-.26-.35-.5-.37-.69,0-.03,0-.06,0-.09.02-.02.03-.03.06,0-.02-.05-.03-.12-.04-.19.02-.18.03-.35.06-.48h.03c-.08-.02-.12-.12-.14-.25,0-.04-.01-.07-.02-.11,0-.1-.02-.2-.03-.31h0s0,0,0,0c0-.04,0-.08-.01-.11.04,0,.06.02.09.04-.03.02-.05.05-.07.07.09-.03.13.27.13-.02.02.03.05.07.06.14v-.28c-.06-.07-.09-.15-.12-.34h.01c0,.07,0,.12.09.05l.04.02s0-.03,0-.05c0,0,.01,0,.02-.02.05-.56-.08-.63-.03-1.19-.08-.11-.13-.01-.2-.06.02-.1-.02-.13-.05-.15,0-.04-.02-.09-.02-.13.05-.03.06-.11.12-.09,0,.04-.04.15,0,.22.02-.2.07-.43.15-.51-.04.01-.08-.01-.11-.06.08-.1.15-.2.11-.39,0-.01.01-.02.02-.04-.07-.09,0-.33-.15-.33,0-.11.07-.13.11-.17-.05-.13-.04-.5-.08-.65.06-.18.02-.24-.04-.31l.02-.08s-.03.02-.03.06c-.03-.04-.06-.09-.06-.18l.17-.06c-.02-.44-.08-.91-.13-1.39h.02c-.02-.15-.03-.31-.04-.46.04.04.09.12.14-.02-.03-.3-.03-.62-.02-.93l.1.02c-.02-.17-.04-.05-.1-.03.02-.54.08-1.08.15-1.57l-.15-.3s0-.02.02-.03l.13.08c.2-.76-.35-1.37-.02-1.95-.12-.2-.08.41-.22.23.02-.35.26-.72.26-.82.09-.48-.25-.45-.18-.95-.02.02-.06.04-.1.04,0-.2.02-.4.02-.61.04,0,.08.03.1.11,0,.08-.01.12-.03.12.02.11.05.26.11.12l-.06-.04c.06-.17.05-.65.15-.54-.06-.26-.1-.11-.13.08.08-.45,0-.7.06-1.16-.03.07-.1.14-.1.07.02-.22.02-.32,0-.39.02-.09.02-.18.05-.27-.05-.03-.07-.12-.08-.22.04,0,.07,0,.02-.26.06-.28.16-.06.21.05-.12-.42.07-.79.09-1.03l.05.22c-.03-.13-.03-.24-.03-.35l-.12.13c.02-.13.02-.24.07-.24-.05-.08-.11-.03-.18-.04.02-.1.05-.24.07-.44,0-.02,0-.04,0-.06.04-.01.08,0,.09.18-.02-.09-.02-.2,0-.33.02-.02.03.02.04.05.14-.52-.18-.24-.18-.78.09.07.17-.13.15-.21,0,.15-.07.14-.14.06h.01s-.04-.25-.04-.25c0,.04-.02.09-.04.13,0-.01-.01-.02-.01-.03.05-.25,0-.34-.03-.44.05-.22.12-.39.16-.4l-.13-.88c.06.02.08.17.12.29-.16-.47.16-.09.02-.52,0,0,0,0-.01,0-.05-.32.12-.4.03-.81-.03.03-.05.06-.07.07,0-.13,0-.26-.02-.38l.11.07c.03-.66-.04-1.38-.04-2.12-.05.26-.24.2-.25-.01l.17-.09s-.04-.03-.05-.03c.02-.03.03-.06.05-.09-.02,0-.03-.04-.03-.1.04.02.07.07.09.12l-.06-.33s.08.06.14.08c-.1-.14.17-.57,0-.77l.05-.02c0-.73-.05-1.07-.05-1.67-.14-.01-.11-.25-.22-.43.05-.44.16-.93.15-1.46-.07-.37-.12-.11-.2-.28.13-.03.12-.56.21-.28-.02-.64-.02-.81-.12-1.62-.05.09-.08.19-.12.13-.02-.15.06-.33.12-.31v.04c-.18-.9.4-2.09.14-2.81v.04s-.12-.74-.12-.74c.02-.34.09.21.18-.05-.21-.8.04-1.27-.1-1.93.38-.52-.02-1.82.23-2.52l-.09.04c-.09-.18.05-.22.07-.35-.07.02-.08.19-.13.08-.1-1.51.12-3.13.2-4.68.01-.25-.08-.34-.17-.43.02-.02.05-.06.07-.15-.11.06-.15-.15-.12-.4l.12.15c-.05-.28-.07-.56-.09-.84l.02.05c-.02-.1-.02-.24-.03-.4-.01-.76.03-1.53-.08-2.27.04.07.09.07.09.18.12-.24,0-.87-.1-.88,0-.17.09-.04.14-.15.07-.24-.16-.6-.04-.72.02-.02.04.07.05.11-.06-.15.01-.72-.13-.57.02-.16.02-.32,0-.47,0-.04,0-.08,0-.12-.02-.2-.03-.38.01-.55-.16-.22.07-.72-.15-.79.12.02.16-.2.16-.44.03-.14.05-.28.06-.39h.03c.02-.47-.04-.88-.1-1.28-.02-.4-.21-.76.04-1-.03-.21-.05-.41-.08-.61.04-.32.04-.7.05-1.08,0,0,.01,0,.02,0,0-.03-.01-.05-.01-.08.01-.31.03-.62.07-.89-.04.13-.17-.02-.19-.17.04-.19-.15-.54.05-.51v.07c.19-.15.15-.55.15-.86l-.22-.04v-.16c.28-.82-.16-2.02.17-2.44-.06-.2-.06-.44-.13-.64h.14c.04-.53.06-.81.03-1.49l.1.14c.01-.38-.41-.49-.41-.84l.21-.1c0-.67.19-1.34,0-2,.03.01.09.03.1.14,0-.31.15-1.21-.14-1.1.19,0,.02-.69-.06-1.05l.14.06c-.18-.31-.23-.32-.27-.74.02-.1.11-.09.08.05.08-.33-.13-.26-.05-.67l.09.15c.01-.34-.04-.32-.14-.51-.01-.05-.02-.12-.02-.19,0,0,0,0,0,0,0,0,0-.01,0-.02.01-.21.09-.46.18-.5-.08-.05-.18-.24-.14-.44.05-.03.08.05.09.08.1-.57-.16-.86-.02-1.25.05,0,.07-.03.08-.07,0,.46-.01.83-.03.79.13,0,.15-.37.33-.07-.09-.3-.3-.81-.24-1.17.01-.02.03-.03.04-.05v.04c.03-.08.02-.16,0-.23.02-.12.04-.19.04-.3.11-.04.06-.42.07-.61-.14.01-.12-.23-.23,0,.01-.03.02.03.02.16,0,.03,0,.06.01.08h-.01c0,.11,0,.27,0,.45-.07-.15-.13-.3-.05-.5-.09-.1-.18-.2-.23-.26.2-.25.31-.73.43-.8-.08-.57-.04-1.33-.31-1.69-.03-.16.08-.18.12-.24.02.09.02.2.06.25-.07-.32-.02-.95-.21-1.03.09-.4.17.23.14-.32l.06.08c.3-1.08-.46-1.78-.08-2.98-.02.08-.04.12-.07.14.18-1.37-.14-2.84.13-4.2.06-.39-.06-.43-.15-.67l.15-.08-.17-.41c-.13-.58.38-.98.14-1.71l-.1.09c.02-.26-.06-.83.06-.78-.02-.03-.11-.09-.05-.19h.08s-.13-.65-.13-.65c.06-.49.32.09.34-.64-.03-.27-.23-.77-.28-.67,0,.11-.05.28-.13.28l-.04-.25s-.08-.02-.12-.03h0Zm-.85,85.43h.02s-.05-.01-.07-.03c-.02-.12,0-.16.04-.18,0,.06,0,.12.02.21Zm1.38-68.51h-.02s.05.01.07.04c.02.12,0,.16-.04.18,0-.06,0-.12-.02-.22Zm-.71-5.3c-.04-.1-.07-.23-.07-.35.02.1.05.12.08.12.02.1.04.18,0,.23Zm-.25,1.46s0,0,0,0c0,0,0,0,0,0h0Zm-.08,2.5c-.01-.05-.02-.1-.03-.15.02.01.04,0,.06-.03v-.05s.02.03.02.03c0,.04,0,.08.01.11,0,.05-.01.11-.03.18-.01-.02-.02-.04-.03-.07,0-.03,0-.06,0-.1v.07Zm.11,2.72s.02.09.03.12c0,.02,0,.05-.01.08,0,0,0,.01,0,.02,0,.01-.01.03-.02.04,0-.08,0-.17,0-.26Zm-.41,37.75l.09-.23c0,.08-.01.16-.05.28l-.04-.05Zm.67,34.9c-.02-.1-.04-.17,0-.22.04.1.07.23.08.35-.02-.1-.05-.12-.08-.13Zm.25-1.68s0,0,0,0h0s0,0,0,0Zm.08-2.5s.02.1.03.15c-.02-.01-.04,0-.06.03v.05s-.02-.03-.02-.03c0-.04,0-.08-.01-.11,0-.05.02-.11.03-.18.01.02.02.04.03.07,0,.03,0,.06,0,.1v-.07Zm-.11-2.72s-.02-.09-.03-.12c0-.02,0-.05.01-.08,0,0,0-.01,0-.02,0-.01.01-.03.02-.04,0,.08,0,.17,0,.26Zm.41-37.75l-.09.23c0-.07.01-.16.05-.28l.04.05Z"/>
      <path class="cls-1" d="m3.72,346.03c0-.07-.02-.1-.04-.1.01.06.02.12.04.1Z"/>
      <path class="cls-1" d="m3.61,333.07v-.07s-.04-.04-.07-.06l.07.13Z"/>
      <path class="cls-1" d="m3.82,423.89v-.05s-.06-.01-.09-.01l.09.06Z"/>
      <path class="cls-1" d="m3.37,350.38h0c-.02-.09-.01-.04,0,0Z"/>
      <path class="cls-1" d="m4.83,361.11c-.05.07-.08.15-.1.23.01.02.02.04.04.05l.06-.28Z"/>
      <path class="cls-1" d="m3.54,407.14s0,.03,0,.05c.01-.02.02-.05.03-.07l-.04-.04v.07Z"/>
      <path class="cls-1" d="m3.81,336.91s-.01.01-.02.02v.02s0-.03.02-.03Z"/>
      <path class="cls-1" d="m3.64,329.57c-.03-.25-.08,0-.11,0,.05.16.06.2.11,0Z"/>
      <polygon class="cls-1" points="3.44 343.44 3.49 343.77 3.46 343.53 3.44 343.44"/>
      <polygon class="cls-1" points="3.37 392.38 3.42 392.67 3.43 392.53 3.37 392.38"/>
      <path class="cls-1" d="m4.48,399.37c0,.07.02.1.04.1-.01-.06-.02-.12-.04-.1Z"/>
      <path class="cls-1" d="m4.59,412.33v.07s.04.04.07.06l-.07-.13Z"/>
      <path class="cls-1" d="m4.38,321.52v.05s.06.01.08.01l-.08-.06Z"/>
      <path class="cls-1" d="m4.83,395.03h0c.02.09.01.04,0,0Z"/>
      <path class="cls-1" d="m3.37,384.3c.05-.07.08-.15.1-.23-.01-.02-.02-.04-.04-.05l-.06.28Z"/>
      <path class="cls-1" d="m4.66,338.26s0-.03,0-.05c-.01.03-.02.05-.03.07l.04.04v-.07Z"/>
      <path class="cls-1" d="m4.39,408.5s.01-.01.02-.02v-.02s0,.03-.02.03Z"/>
      <path class="cls-1" d="m4.73,415.87c.03.26.08,0,.11.01-.05-.16-.06-.2-.11-.01Z"/>
      <polygon class="cls-1" points="4.76 401.97 4.71 401.64 4.74 401.88 4.76 401.97"/>
      <polygon class="cls-1" points="4.83 353.03 4.78 352.73 4.78 352.87 4.83 353.03"/>
    </g>
    <g>
      <path class="cls-1" d="m7.98,321.52s-.06-.03-.09-.01c-.16-.04-.32-.01-.43.41l.14.42-.11.13v-.35c-.11.2-.02.33.04.47-.06.03-.1.09-.13.17l.22.42c-.09.05-.18-.19-.23.09.1.2.21-.18.27.14-.11.2-.19.14-.1.38-.06.03-.1-.02-.12-.11.07.21.03.56.15.67-.13.21.03.71-.19.69.04.05.12.25.16.43-.05-.02-.12.03-.09-.11-.03.13-.03.25-.02.35-.01.22,0,.58-.17.52.16.18.15.55.17.92l-.03.03h.03c0,.17.02.33.06.47-.02-.03-.06-.08-.05-.12,0,.06-.01.1-.02.14-.05.07-.1.11-.11-.07-.11.42,0,.19.06.24-.03.06-.05.12-.07.19.12.02.19.19.25.37-.02.05-.04.09-.09.11.06.06.08-.02.1-.07.02.05.03.09.05.13-.08.05-.09.13-.07.23-.1,0-.16-.28-.29-.21.16-.01.15.56.29.45-.02.05-.04.08-.05.11-.04-.1-.03-.2-.11.02.03.03.04.06.05.1-.02.03-.05.05-.11.1.13.03.13.09.13.17-.03.16-.1.34-.07.47,0,0,0,0,0,0-.02,0-.05,0-.09.03,0,.02.03.04.05.05,0,.03,0,.09.02.18-.08.18-.16-.16-.16-.16,0,.4.18.19.29.28.05.47-.14.22-.23.37.04.26.17.47.2.67,0,.03,0,.06,0,.09-.02.02-.03.03-.06,0,.02.05.03.12.04.19-.02.18-.03.35-.05.48h-.03c.08.02.12.12.14.25,0,.04.01.07.02.11.01.1.02.2.03.31h0s0,0,0,0c0,.04,0,.07,0,.11-.04,0-.06-.02-.09-.04.03-.02.05-.05.07-.07-.09.03-.13-.27-.13.02-.02-.03-.04-.07-.06-.14v.28c.06.07.09.15.12.34h-.01c0-.07,0-.12-.09-.05l-.04-.02s0,.03,0,.05c0,0-.01,0-.02.02-.05.56.08.63.03,1.19.08.11.13.01.2.06-.02.1.02.13.05.15,0,.04.01.09.01.13-.05.03-.06.11-.12.09,0-.04.04-.15,0-.22-.02.2-.07.43-.15.51.04-.01.08,0,.11.06-.08.1-.15.2-.11.39,0,.01-.02.02-.02.04.07.09,0,.33.15.33,0,.11-.07.13-.11.17.05.13.04.5.08.65-.06.18-.02.24.04.3l-.02.08s.03-.02.03-.06c.03.04.06.09.06.18l-.17.06c.02.44.08.91.13,1.39h-.02c.02.15.03.31.05.46-.04-.04-.09-.11-.14.02.03.3.03.62.01.93l-.1-.02c.02.17.04.05.1.03-.02.54-.08,1.08-.15,1.57l.15.3s0,.02-.01.03l-.13-.08c-.2.76.35,1.37.01,1.95.12.2.08-.41.22-.23-.02.35-.26.72-.26.82-.09.48.25.45.18.95.02-.03.06-.04.1-.04,0,.2-.02.4-.02.61-.04,0-.09-.03-.1-.11,0-.08.01-.12.03-.12-.02-.11-.05-.26-.11-.12l.06.05c-.06.17-.05.66-.15.54.06.27.1.11.13-.08-.08.45,0,.7-.05,1.17.03-.07.1-.14.1-.07-.02.22-.02.32,0,.39-.02.09-.03.18-.05.26.05.04.07.12.08.22-.04,0-.07,0-.02.26-.06.28-.16.06-.21-.05.12.42-.07.79-.09,1.03l-.05-.22c.03.13.03.24.03.35l.12-.13c-.02.13-.02.24-.07.24.05.08.11.03.18.04-.02.1-.05.24-.07.44,0,.02,0,.04,0,.06-.04.01-.08,0-.09-.19.02.09.02.2,0,.33-.02.02-.03-.02-.04-.06-.14.52.18.24.18.78-.09-.07-.17.13-.15.21,0-.15.07-.14.14-.05h-.01s.04.25.04.25c0-.05.02-.09.04-.13,0,.01.01.02.01.03-.05.25,0,.34.03.44-.05.22-.12.39-.17.4l.13.88c-.06-.02-.08-.17-.12-.29.16.47-.16.09-.02.52,0,0,0,0,0,0,.06.32-.12.4-.03.81.03-.03.05-.06.07-.07,0,.13,0,.26.02.38l-.11-.07c-.03.66.04,1.38.04,2.12.05-.26.24-.2.25.01l-.17.09s.04.03.05.02c-.02.03-.03.06-.05.09.02,0,.03.04.04.1-.04-.02-.07-.07-.09-.12l.05.33s-.07-.06-.14-.08c.1.14-.17.57,0,.77l-.05.02c0,.73.05,1.07.05,1.67.14.01.11.25.22.42-.05.44-.16.93-.15,1.46.07.37.12.11.2.28-.13.03-.12.56-.21.28.02.64.02.81.12,1.62.05-.09.08-.18.12-.13.02.15-.06.33-.12.31v-.04c.17.9-.4,2.08-.14,2.8v-.04s.12.74.12.74c-.03.34-.1-.21-.18.05.21.81-.04,1.27.1,1.93-.38.52.02,1.82-.23,2.51l.09-.04c.09.18-.05.22-.07.35.07-.02.08-.2.13-.08.1,1.51-.12,3.13-.2,4.68,0,.25.08.34.17.43-.02.02-.05.06-.07.15.11-.06.15.15.12.4l-.12-.15c.05.28.07.56.08.84l-.02-.05c.02.1.02.24.03.4.01.77-.03,1.54.09,2.27-.04-.07-.09-.07-.09-.18-.12.24,0,.87.1.88,0,.18-.09.04-.14.15-.07.24.16.6.04.72-.02.02-.04-.07-.05-.11.06.15-.01.72.13.57-.02.16-.02.32,0,.47,0,.04,0,.08,0,.12.02.2.03.38-.01.55.16.22-.07.72.15.79-.12-.01-.16.2-.16.44-.03.14-.05.28-.06.39h-.03c-.02.47.03.88.1,1.28.02.4.21.76-.04,1,.03.21.05.41.07.61-.04.32-.04.7-.05,1.08,0,0,0,0-.02,0,0,.03,0,.05.01.08-.01.31-.03.62-.07.89.04-.13.17.02.19.17-.04.2.15.54-.05.51v-.07c-.2.14-.15.55-.15.86l.21.04c0,.05,0,.11,0,.16-.28.82.16,2.02-.17,2.44.06.2.06.44.13.64h-.14c-.04.53-.06.81-.03,1.48l-.1-.14c-.01.38.41.49.41.84l-.21.1c0,.67-.19,1.34,0,2-.03-.01-.09-.03-.1-.14,0,.31-.15,1.21.14,1.1-.19,0-.02.69.06,1.05l-.14-.06c.18.31.23.32.27.74-.02.1-.11.09-.08-.05-.08.33.13.26.05.67l-.09-.15c-.01.34.04.32.14.51.01.05.02.12.01.19h0s0,.01,0,.02c-.01.21-.09.46-.18.5.08.05.18.24.14.44-.05.03-.08-.05-.09-.09-.1.57.16.86.02,1.25-.05,0-.07.03-.08.07,0-.46.02-.83.03-.79-.13,0-.15.37-.33.07.1.3.3.81.24,1.17-.01.02-.03.03-.04.05l-.02-.04c-.01.08,0,.16.02.23-.02.11-.04.19-.04.3-.11.04-.06.42-.06.61.14-.01.12.23.23,0,0,.03-.02-.03-.02-.16,0-.03,0-.06-.01-.08h.01c0-.11,0-.27,0-.45.07.15.13.3.05.5.09.1.18.2.23.26-.2.25-.31.73-.43.8.08.56.04,1.33.31,1.69.03.16-.08.18-.12.24-.02-.09-.02-.2-.06-.25.07.32.02.95.21,1.03-.09.4-.17-.23-.14.32l-.06-.08c-.3,1.08.46,1.78.08,2.98.02-.08.03-.12.06-.14-.17,1.37.14,2.84-.13,4.2-.06.38.06.43.15.67l-.15.08.17.41c.12.58-.38.98-.14,1.71l.1-.09c-.02.26.06.83-.06.78.02.03.11.09.05.19h-.08s.13.65.13.65c-.06.49-.32-.09-.34.64.03.27.23.77.28.67,0-.11.05-.28.13-.28l.04.25s.08.02.12.03h0s.06.04.08.02c.16.04.49.04.61-.38l-.14-.43.11-.13v.35c.11-.2.02-.33-.04-.47.06-.03.1-.09.13-.17l-.22-.42c.09-.05.18.19.23-.09-.1-.2-.21.18-.27-.14.11-.2.19-.14.1-.38.06-.03.1.02.13.11-.07-.21-.03-.56-.15-.67.13-.21-.03-.71.19-.68-.04-.05-.12-.25-.16-.43.05.01.12-.03.1.11.03-.13.03-.25.02-.35.01-.22,0-.58.17-.52-.16-.18-.15-.55-.17-.92l.03-.02h-.03c0-.17-.02-.33-.06-.47.02.03.06.08.04.12,0-.06.01-.1.02-.14.05-.07.1-.11.11.07.11-.43,0-.19-.06-.24.02-.06.05-.12.07-.19-.13-.02-.19-.2-.25-.37.02-.05.04-.09.09-.11-.06-.06-.08.02-.1.07-.02-.05-.03-.09-.05-.13.08-.05.09-.13.07-.23.1.01.16.28.29.21-.16.01-.16-.56-.29-.45.02-.05.04-.08.05-.11.04.1.03.19.11-.03-.03-.02-.04-.06-.05-.1.02-.03.05-.05.11-.1-.13-.02-.13-.09-.13-.17.03-.16.1-.34.07-.47,0,0,0,0,0,0,.02,0,.06,0,.1-.03,0-.02-.03-.04-.05-.05,0-.04,0-.09-.02-.18.08-.18.16.16.16.16,0-.39-.18-.19-.29-.28-.05-.47.14-.21.23-.37-.04-.26-.35-.5-.37-.69,0-.03,0-.06,0-.09.02-.02.03-.03.06,0-.02-.05-.03-.12-.04-.19.02-.18.03-.35.06-.48h.03c-.08-.02-.12-.12-.14-.25,0-.04-.01-.07-.02-.11,0-.1-.02-.2-.03-.31h0s0,0,0,0c0-.04,0-.08-.01-.11.04,0,.06.02.09.04-.03.02-.05.05-.07.07.09-.03.13.27.13-.02.02.03.05.07.06.14v-.28c-.06-.07-.09-.15-.12-.34h.01c0,.07,0,.12.09.05l.04.02s0-.03,0-.05c0,0,.01,0,.02-.02.05-.56-.08-.63-.03-1.19-.08-.11-.13-.01-.2-.06.02-.1-.02-.13-.05-.15,0-.04-.02-.09-.02-.13.05-.03.06-.11.12-.09,0,.04-.04.15,0,.22.02-.2.07-.43.15-.51-.04.01-.08-.01-.11-.06.08-.1.15-.2.11-.39,0-.01.01-.02.02-.04-.07-.09,0-.33-.15-.33,0-.11.07-.13.11-.17-.05-.13-.04-.5-.08-.65.06-.18.02-.24-.04-.31l.02-.08s-.03.02-.03.06c-.03-.04-.06-.09-.06-.18l.17-.06c-.02-.44-.08-.91-.13-1.39h.02c-.02-.15-.03-.31-.04-.46.04.04.09.12.14-.02-.03-.3-.03-.62-.02-.93l.1.02c-.02-.17-.04-.05-.1-.03.02-.54.08-1.08.15-1.57l-.15-.3s0-.02.02-.03l.13.08c.2-.76-.35-1.37-.02-1.95-.12-.2-.08.41-.22.23.02-.35.26-.72.26-.82.09-.48-.25-.45-.18-.95-.02.02-.06.04-.1.04,0-.2.02-.4.02-.61.04,0,.08.03.1.11,0,.08-.01.12-.03.12.02.11.05.26.11.12l-.06-.04c.06-.17.05-.65.15-.54-.06-.26-.1-.11-.13.08.08-.45,0-.7.06-1.16-.03.07-.1.14-.1.07.02-.22.02-.32,0-.39.02-.09.02-.18.05-.27-.05-.03-.07-.12-.08-.22.04,0,.07,0,.02-.26.06-.28.16-.06.21.05-.12-.42.07-.79.09-1.03l.05.22c-.03-.13-.03-.24-.03-.35l-.12.13c.02-.13.02-.24.07-.24-.05-.08-.11-.03-.18-.04.02-.1.05-.24.07-.44,0-.02,0-.04,0-.06.04-.01.08,0,.09.18-.02-.09-.02-.2,0-.33.02-.02.03.02.04.05.14-.52-.18-.24-.18-.78.09.07.17-.13.15-.21,0,.15-.07.14-.14.06h.01s-.04-.25-.04-.25c0,.04-.02.09-.04.13,0-.01-.01-.02-.01-.03.05-.25,0-.34-.03-.44.05-.22.12-.39.16-.4l-.13-.88c.06.02.08.17.12.29-.16-.47.16-.09.02-.52,0,0,0,0-.01,0-.05-.32.12-.4.03-.81-.03.03-.05.06-.07.07,0-.13,0-.26-.02-.38l.11.07c.03-.66-.04-1.38-.04-2.12-.05.26-.24.2-.25-.01l.17-.09s-.04-.03-.05-.03c.02-.03.03-.06.05-.09-.02,0-.03-.04-.03-.1.04.02.07.07.09.12l-.06-.33s.08.06.14.08c-.1-.14.17-.57,0-.77l.05-.02c0-.73-.05-1.07-.05-1.67-.14-.01-.11-.25-.22-.43.05-.44.16-.93.15-1.46-.07-.37-.12-.11-.2-.28.13-.03.12-.56.21-.28-.02-.64-.02-.81-.12-1.62-.05.09-.08.19-.12.13-.02-.15.06-.33.12-.31v.04c-.18-.9.4-2.09.14-2.81v.04s-.12-.74-.12-.74c.02-.34.09.21.18-.05-.21-.8.04-1.27-.1-1.93.38-.52-.02-1.82.23-2.52l-.09.04c-.09-.18.05-.22.07-.35-.07.02-.08.19-.13.08-.1-1.51.12-3.13.2-4.68.01-.25-.08-.34-.17-.43.02-.02.05-.06.07-.15-.11.06-.15-.15-.12-.4l.12.15c-.05-.28-.07-.56-.09-.84l.02.05c-.02-.1-.02-.24-.03-.4-.01-.76.03-1.53-.08-2.27.04.07.09.07.09.18.12-.24,0-.87-.1-.88,0-.17.09-.04.14-.15.07-.24-.16-.6-.04-.72.02-.02.04.07.05.11-.06-.15.01-.72-.13-.57.02-.16.02-.32,0-.47,0-.04,0-.08,0-.12-.02-.2-.03-.38.01-.55-.16-.22.07-.72-.15-.79.12.02.16-.2.16-.44.03-.14.05-.28.06-.39h.03c.02-.47-.04-.88-.1-1.28-.02-.4-.21-.76.04-1-.03-.21-.05-.41-.08-.61.04-.32.04-.7.05-1.08,0,0,.01,0,.02,0,0-.03-.01-.05-.01-.08.01-.31.03-.62.07-.89-.04.13-.17-.02-.19-.17.04-.19-.15-.54.05-.51v.07c.19-.15.15-.55.15-.86l-.22-.04v-.16c.28-.82-.16-2.02.17-2.44-.06-.2-.06-.44-.13-.64h.14c.04-.53.06-.81.03-1.49l.1.14c.01-.38-.41-.49-.41-.84l.21-.1c0-.67.19-1.34,0-2,.03.01.09.03.1.14,0-.31.15-1.21-.14-1.1.19,0,.02-.69-.06-1.05l.14.06c-.18-.31-.23-.32-.27-.74.02-.1.11-.09.08.05.08-.33-.13-.26-.05-.67l.09.15c.01-.34-.04-.32-.14-.51-.01-.05-.02-.12-.02-.19,0,0,0,0,0,0,0,0,0-.01,0-.02.01-.21.09-.46.18-.5-.08-.05-.18-.24-.14-.44.05-.03.08.05.09.08.1-.57-.16-.86-.02-1.25.05,0,.07-.03.08-.07,0,.46-.01.83-.03.79.13,0,.15-.37.33-.07-.09-.3-.3-.81-.24-1.17.01-.02.03-.03.04-.05v.04c.03-.08.02-.16,0-.23.02-.12.04-.19.04-.3.11-.04.06-.42.07-.61-.14.01-.12-.23-.23,0,.01-.03.02.03.02.16,0,.03,0,.06.01.08h-.01c0,.11,0,.27,0,.45-.07-.15-.13-.3-.05-.5-.09-.1-.18-.2-.23-.26.2-.25.31-.73.43-.8-.08-.57-.04-1.33-.31-1.69-.03-.16.08-.18.12-.24.02.09.02.2.06.25-.07-.32-.02-.95-.21-1.03.09-.4.17.23.14-.32l.06.08c.3-1.08-.46-1.78-.08-2.98-.02.08-.04.12-.07.14.18-1.37-.14-2.84.13-4.2.06-.39-.06-.43-.15-.67l.15-.08-.17-.41c-.13-.58.38-.98.14-1.71l-.1.09c.02-.26-.06-.83.06-.78-.02-.03-.11-.09-.05-.19h.08s-.13-.65-.13-.65c.06-.49.31.09.33-.64-.03-.27-.23-.77-.28-.67,0,.11-.05.28-.13.28l-.04-.25s-.08-.02-.12-.03h0Zm-.85,85.43h.02s-.05-.01-.07-.03c-.02-.12,0-.16.04-.18,0,.06,0,.12.02.21Zm1.38-68.51h-.02s.05.01.07.04c.02.12,0,.16-.04.18,0-.06,0-.12-.02-.22Zm-.71-5.3c-.04-.1-.07-.23-.07-.35.02.1.05.12.08.12.02.1.04.18,0,.23Zm-.25,1.46s0,0,0,0c0,0,0,0,0,0h0Zm-.08,2.5c-.01-.05-.02-.1-.03-.15.02.01.04,0,.06-.03v-.05s.02.03.02.03c0,.04,0,.08.01.11,0,.05-.01.11-.03.18-.01-.02-.02-.04-.03-.07,0-.03,0-.06,0-.1v.07Zm.11,2.72s.02.09.03.12c0,.02,0,.05-.01.08,0,0,0,.01,0,.02,0,.01-.01.03-.02.04,0-.08,0-.17,0-.26Zm-.41,37.75l.09-.23c0,.08-.01.16-.05.28l-.04-.05Zm.67,34.9c-.02-.1-.04-.17,0-.22.04.1.07.23.08.35-.02-.1-.05-.12-.08-.13Zm.25-1.68s0,0,0,0h0s0,0,0,0Zm.08-2.5s.02.1.03.15c-.02-.01-.04,0-.06.03v.05s-.02-.03-.02-.03c0-.04,0-.08-.01-.11,0-.05.02-.11.03-.18.01.02.02.04.03.07,0,.03,0,.06,0,.1v-.07Zm-.11-2.72s-.02-.09-.03-.12c0-.02,0-.05.01-.08,0,0,0-.01,0-.02,0-.01.01-.03.02-.04,0,.08,0,.17,0,.26Zm.41-37.75l-.09.23c0-.07.01-.16.05-.28l.04.05Z"/>
      <path class="cls-1" d="m7.43,346.03c0-.07-.02-.1-.04-.1.01.06.02.12.04.1Z"/>
      <path class="cls-1" d="m7.33,333.07v-.07s-.04-.04-.07-.06l.07.13Z"/>
      <path class="cls-1" d="m7.54,423.89v-.05s-.06-.01-.09-.01l.09.06Z"/>
      <path class="cls-1" d="m7.09,350.38h0c-.02-.09-.01-.04,0,0Z"/>
      <path class="cls-1" d="m8.54,361.11c-.05.07-.08.15-.1.23.01.02.02.04.04.05l.06-.28Z"/>
      <path class="cls-1" d="m7.26,407.14s0,.03,0,.05c.01-.02.02-.05.03-.07l-.04-.04v.07Z"/>
      <path class="cls-1" d="m7.52,336.91s-.01.01-.02.02v.02s0-.03.02-.03Z"/>
      <path class="cls-1" d="m7.36,329.57c-.03-.25-.08,0-.11,0,.05.16.06.2.11,0Z"/>
      <polygon class="cls-1" points="7.15 343.44 7.2 343.77 7.17 343.53 7.15 343.44"/>
      <polygon class="cls-1" points="7.09 392.38 7.13 392.67 7.14 392.53 7.09 392.38"/>
      <path class="cls-1" d="m8.2,399.37c0,.07.02.1.04.1-.01-.06-.02-.12-.04-.1Z"/>
      <path class="cls-1" d="m8.3,412.33v.07s.04.04.07.06l-.07-.13Z"/>
      <path class="cls-1" d="m8.09,321.52v.05s.06.01.08.01l-.08-.06Z"/>
      <path class="cls-1" d="m8.54,395.03h0c.02.09.01.04,0,0Z"/>
      <path class="cls-1" d="m7.09,384.3c.05-.07.08-.15.1-.23-.01-.02-.02-.04-.04-.05l-.06.28Z"/>
      <path class="cls-1" d="m8.37,338.26s0-.03,0-.05c-.01.03-.02.05-.03.07l.04.04v-.07Z"/>
      <path class="cls-1" d="m8.11,408.5s.01-.01.02-.02v-.02s0,.03-.02.03Z"/>
      <path class="cls-1" d="m8.45,415.87c.03.26.08,0,.11.01-.05-.16-.06-.2-.11-.01Z"/>
      <polygon class="cls-1" points="8.48 401.97 8.43 401.64 8.46 401.88 8.48 401.97"/>
      <polygon class="cls-1" points="8.54 353.03 8.5 352.73 8.49 352.87 8.54 353.03"/>
    </g>
  </g>
  <g>
    <g>
      <path class="cls-1" d="m4.26,423.87c-.02-.15-.06-.18-.09-.06-.16-.21-.31-.07-.43,2.32l.14,2.41-.11.75v-2.01c-.11,1.12-.02,1.86.04,2.67-.06.19-.1.51-.13.98l.22,2.38c-.09.27-.18-1.08-.23.48.1,1.11.21-1.02.27.81-.11,1.13-.19.78-.1,2.13-.06.18-.1-.1-.12-.64.07,1.2.03,3.16.15,3.78-.13,1.17.03,4.03-.19,3.88.04.3.12,1.45.16,2.45-.05-.09-.12.18-.09-.62-.03.74-.03,1.39-.02,1.99-.01,1.27,0,3.26-.17,2.93.16,1.02.15,3.12.17,5.19l-.03.15.03.08c0,.9.02,1.8.06,2.59-.02-.15-.06-.44-.05-.68,0,.32-.01.58-.02.82-.05.37-.1.6-.11-.41-.11,2.41,0,1.1.06,1.35-.03.35-.05.67-.07,1.08.12.14.19,1.1.25,2.12-.02.27-.04.53-.09.61.06.34.08-.12.1-.39.02.26.03.49.05.74-.08.28-.09.72-.07,1.28-.1-.05-.16-1.57-.29-1.16.16-.07.15,3.16.29,2.56-.02.28-.04.45-.05.62-.04-.59-.03-1.11-.11.14.03.15.04.36.05.55-.02.16-.05.3-.11.57.13.15.13.49.13.95-.03.92-.1,1.91-.07,2.68,0,0,0,.03,0,.03-.02,0-.05.05-.09.17,0,.14.03.22.05.31,0,.2,0,.5.02,1.03-.08,1.03-.16-.93-.16-.93,0,2.24.18,1.07.29,1.56.05,2.68-.14,1.22-.23,2.12.04,1.48.17,2.66.2,3.77,0,.17,0,.35,0,.53-.02.09-.03.18-.06-.05.02.31.03.7.04,1.09-.02,1-.03,2-.05,2.73l-.03-.07c.08.19.12.78.14,1.48,0,.21.01.41.02.61.01.56.02,1.16.03,1.74h0s0,0,0,0c0,.2,0,.42,0,.62-.04-.03-.06-.13-.09-.23.03-.13.05-.3.07-.38-.09.19-.13-1.55-.13.09-.02-.19-.04-.4-.06-.77v1.59c.06.37.09.87.12,1.91v-.04c0-.33-.01-.66-.1-.25l-.04-.11c0,.09,0,.19,0,.27,0,.04-.01.05-.02.1-.05,3.2.08,3.59.03,6.77.08.63.13.06.2.36-.02.58.02.71.05.87,0,.25.01.53.01.74-.05.16-.06.6-.12.48,0-.25.04-.86,0-1.24-.02,1.12-.07,2.46-.15,2.91.04-.07.08.05.11.33-.08.58-.15,1.13-.11,2.21,0,.08-.02.1-.02.23.07.51,0,1.86.15,1.89,0,.62-.07.73-.11.97.05.74.04,2.84.08,3.7-.06,1.02-.02,1.36.04,1.73l-.02.43s.03-.14.03-.32c.03.22.06.5.06,1.03l-.17.32c.02,2.47.08,5.15.13,7.88h-.02c.02.83.03,1.74.05,2.63-.04-.24-.09-.64-.14.11.03,1.7.03,3.49.01,5.29l-.1-.11c.02.97.04.3.1.18-.02,3.05-.08,6.13-.15,8.9l.15,1.71c0,.07,0,.11-.01.17l-.13-.43c-.2,4.31.35,7.77.01,11.06.12,1.14.08-2.35.22-1.33-.02,1.99-.26,4.06-.26,4.67-.09,2.72.25,2.54.18,5.39.02-.15.06-.23.1-.23,0,1.15-.02,2.29-.02,3.46-.04-.03-.09-.19-.1-.62,0-.48.01-.71.03-.68-.02-.64-.05-1.49-.11-.7l.06.26c-.06.99-.05,3.72-.15,3.07.06,1.5.1.64.13-.47-.08,2.55,0,3.98-.05,6.61.03-.42.1-.8.1-.39-.02,1.25-.02,1.84,0,2.19-.02.49-.03,1.04-.05,1.5.05.21.07.66.08,1.23-.04-.01-.07-.05-.02,1.47-.06,1.6-.16.34-.21-.29.12,2.39-.07,4.46-.09,5.83l-.05-1.26c.03.75.03,1.37.03,2l.12-.72c-.02.74-.02,1.37-.07,1.35.05.47.11.19.18.21-.02.59-.05,1.37-.07,2.52,0,.12,0,.21,0,.32-.04.06-.08-.05-.09-1.06.02.5.02,1.13,0,1.87-.02.1-.03-.11-.04-.31-.14,2.97.18,1.36.18,4.43-.09-.39-.17.71-.15,1.21,0-.84.07-.77.14-.31v.06s.03,1.36.03,1.36c0-.26.02-.53.04-.73,0,.06.01.09.01.16-.05,1.44,0,1.91.03,2.47-.05,1.22-.12,2.22-.17,2.24l.13,5.02c-.06-.11-.08-.95-.12-1.62.16,2.68-.16.48-.02,2.94,0-.03,0,.02,0,0,.06,1.84-.12,2.29-.03,4.57.03-.19.05-.33.07-.42,0,.74,0,1.48.02,2.13l-.11-.39c-.03,3.72.04,7.83.04,12,.05-1.5.24-1.15.25.08l-.17.49c.02.18.04.19.05.14-.02.17-.03.34-.05.5.02-.02.03.22.04.55-.04-.14-.07-.38-.09-.7l.05,1.89c-.05.11-.07-.33-.14-.45.1.77-.17,3.26,0,4.38l-.05.11c0,4.16.05,6.06.05,9.46.14.06.11,1.39.22,2.41-.05,2.5-.16,5.26-.15,8.27.07,2.11.12.61.2,1.57-.13.16-.12,3.16-.21,1.6.02,3.61.02,4.61.12,9.16.05-.49.08-1.04.12-.76.02.83-.06,1.88-.12,1.77v-.22c.17,5.12-.4,11.82-.14,15.9v-.22s.12,4.22.12,4.22c-.03,1.94-.1-1.17-.18.28.21,4.56-.04,7.2.1,10.96-.38,2.92.02,10.32-.23,14.25l.09-.22c.09,1.01-.05,1.23-.07,1.98.07-.1.08-1.11.13-.47.1,8.59-.12,17.73-.2,26.54,0,1.43.08,1.95.17,2.44-.02.14-.05.35-.07.84.11-.34.15.84.12,2.28l-.12-.83c.05,1.57.07,3.16.08,4.75l-.02-.26c.02.54.02,1.36.03,2.28.01,4.34-.03,8.71.09,12.88-.04-.38-.09-.39-.09-1-.12,1.35,0,4.96.1,4.99,0,.99-.09.23-.14.84-.07,1.34.16,3.38.04,4.1-.02.11-.04-.37-.05-.62.06.88-.01,4.09.13,3.24-.02.93-.02,1.81,0,2.66,0,.23,0,.47,0,.69.02,1.11.03,2.16-.01,3.13.16,1.24-.07,4.09.15,4.47-.12-.08-.16,1.14-.16,2.52-.03.8-.05,1.6-.06,2.2l-.03-.06c-.02,2.73.03,5.03.1,7.29.02,2.26.21,4.34-.04,5.65.03,1.19.05,2.3.07,3.45-.04,1.81-.04,3.98-.05,6.14,0,0,0-.04-.02-.03,0,.17,0,.31.01.48-.01,1.77-.03,3.54-.07,5.05.04-.71.17.13.19.97-.04,1.11.15,3.06-.05,2.89v-.4c-.2.82-.15,3.1-.15,4.87l.21.24c0,.3,0,.6,0,.9-.28,4.65.16,11.47-.17,13.84.06,1.13.06,2.52.13,3.64l-.14-.07c-.04,3.1-.06,4.65-.03,8.48l-.1-.79c-.01,2.17.41,2.77.41,4.75l-.21.59c0,3.78-.19,7.58,0,11.33-.03-.07-.09-.18-.1-.8,0,1.77-.15,6.87.14,6.24-.19.03-.02,3.9.06,5.94l-.14-.32c.18,1.73.23,1.79.27,4.2-.02.56-.11.49-.08-.27-.08,1.89.13,1.5.05,3.79l-.09-.87c-.01,1.95.04,1.81.14,2.89.01.31.02.68.01,1.08h0s0,.07,0,.1c-.01,1.22-.09,2.59-.18,2.81.08.27.18,1.35.14,2.49-.05.15-.08-.28-.09-.48-.1,3.26.16,4.88.02,7.11-.05.04-.07.18-.08.37,0-2.6.02-4.68.03-4.48-.13-.02-.15,2.07-.33.39.1,1.69.3,4.59.24,6.62-.01.09-.03.19-.04.27l-.02-.21c-.01.47,0,.89.02,1.3-.02.64-.04,1.06-.04,1.68-.11.23-.06,2.4-.06,3.44.14-.07.12,1.29.23.03,0,.17-.02-.2-.02-.89,0-.16,0-.34-.01-.44v.07c0-.69,0-1.58,0-2.59.07.84.13,1.7.05,2.84.09.55.18,1.14.23,1.48-.2,1.41-.31,4.15-.43,4.53.08,3.2.04,7.52.31,9.55.03.92-.08,1.03-.12,1.37-.02-.53-.02-1.14-.06-1.44.07,1.82.02,5.38.21,5.83-.09,2.28-.17-1.3-.14,1.83l-.06-.43c-.3,6.14.46,10.1.08,16.9.02-.47.03-.71.06-.8-.17,7.79.14,16.12-.13,23.79-.06,2.18.06,2.44.15,3.79l-.15.45.17,2.31c.12,3.26-.38,5.56-.14,9.69l.1-.51c-.02,1.47.06,4.69-.06,4.42.02.15.11.49.05,1.07l-.08.03.13,3.64c-.06,2.8-.32-.49-.34,3.61.03,1.52.23,4.37.28,3.81,0-.61.05-1.56.13-1.59l.04,1.4c.04.05.08.12.12.19v.07c.02.16.06.18.09.06.16.21.49.21.61-2.17l-.14-2.42.11-.74v2c.11-1.12.02-1.86-.04-2.67.06-.18.1-.51.13-.98l-.22-2.38c.09-.27.18,1.09.23-.48-.1-1.11-.21,1.02-.27-.81.11-1.13.19-.78.11-2.13.06-.18.1.11.13.64-.07-1.21-.03-3.16-.15-3.79.13-1.16-.03-4.03.19-3.88-.04-.3-.12-1.45-.16-2.45.05.08.12-.18.1.62.03-.74.03-1.39.02-1.99.01-1.27,0-3.26.17-2.92-.16-1.03-.15-3.12-.17-5.2l.03-.14-.03-.08c0-.91-.02-1.8-.06-2.59.02.16.06.44.04.67,0-.32.01-.57.02-.81.05-.37.1-.6.11.41.11-2.42,0-1.1-.06-1.36.02-.35.05-.66.07-1.07-.13-.14-.19-1.11-.25-2.12.02-.27.04-.52.09-.61-.06-.33-.08.12-.1.4-.02-.27-.03-.49-.05-.74.08-.28.09-.73.07-1.29.1.06.16,1.57.29,1.16-.16.07-.16-3.15-.29-2.56.02-.28.04-.45.05-.61.04.58.03,1.1.11-.15-.03-.14-.04-.36-.05-.55.02-.16.05-.29.11-.57-.13-.14-.13-.49-.13-.95.03-.91.1-1.91.07-2.68,0,0,0-.02,0-.03.02,0,.06-.04.1-.17,0-.14-.03-.21-.05-.3,0-.2,0-.49-.02-1.03.08-1.04.16.93.16.93,0-2.24-.18-1.07-.29-1.56-.05-2.68.14-1.22.23-2.11-.04-1.49-.35-2.82-.37-3.93,0-.17,0-.35,0-.52.02-.1.03-.18.06.03-.02-.3-.03-.7-.04-1.08.02-1,.03-2,.06-2.73l.03.07c-.08-.19-.12-.77-.14-1.48,0-.21-.01-.41-.02-.6,0-.57-.02-1.16-.03-1.74v-.02s0,0,0,.01c0-.2,0-.43-.01-.61.04.02.06.12.09.22-.03.14-.05.3-.07.38.09-.19.13,1.55.13-.1.02.2.05.41.06.77v-1.58c-.06-.38-.09-.87-.12-1.9v.03c.01.34.01.67.1.26l.04.1c0-.08,0-.18,0-.27,0-.04.01-.05.02-.11.05-3.19-.08-3.59-.03-6.77-.08-.63-.13-.06-.2-.35.02-.58-.02-.72-.05-.87,0-.25-.02-.53-.02-.74.05-.16.06-.6.12-.49,0,.25-.04.87,0,1.25.02-1.11.07-2.46.15-2.91-.04.06-.08-.06-.11-.32.08-.58.15-1.13.11-2.21,0-.07.01-.1.02-.23-.07-.51,0-1.86-.15-1.89,0-.62.07-.74.11-.98-.05-.75-.04-2.84-.08-3.7.06-1.02.02-1.37-.04-1.73l.02-.43s-.03.14-.03.32c-.03-.23-.06-.5-.06-1.03l.17-.32c-.02-2.47-.08-5.15-.13-7.88h.02c-.02-.83-.03-1.74-.04-2.63.04.25.09.66.14-.1-.03-1.7-.03-3.5-.02-5.3l.1.12c-.02-.97-.04-.3-.1-.19.02-3.04.08-6.12.15-8.9l-.15-1.7c0-.08,0-.11.02-.18l.13.44c.2-4.31-.35-7.77-.02-11.06-.12-1.13-.08,2.34-.22,1.33.02-1.98.26-4.05.26-4.67.09-2.72-.25-2.53-.18-5.38-.02.14-.06.22-.1.23,0-1.15.02-2.29.02-3.46.04.04.08.19.1.62,0,.48-.01.71-.03.69.02.64.05,1.49.11.69l-.06-.25c.06-.98.05-3.71.15-3.08-.06-1.49-.1-.63-.13.47.08-2.55,0-3.97.06-6.6-.03.42-.1.8-.1.39.02-1.25.02-1.84,0-2.19.02-.5.02-1.04.05-1.51-.05-.2-.07-.65-.08-1.23.04.02.07.05.02-1.47.06-1.61.16-.34.21.29-.12-2.39.07-4.47.09-5.83l.05,1.25c-.03-.75-.03-1.37-.03-1.99l-.12.72c.02-.74.02-1.37.07-1.35-.05-.47-.11-.18-.18-.21.02-.59.05-1.36.07-2.51,0-.11,0-.21,0-.32.04-.06.08.05.09,1.04-.02-.5-.02-1.12,0-1.86.02-.11.03.1.04.31.14-2.97-.18-1.36-.18-4.43.09.39.17-.71.15-1.21,0,.84-.07.77-.14.31v-.07s-.03-1.36-.03-1.36c0,.25-.02.53-.04.73,0-.06-.01-.1-.01-.17.05-1.43,0-1.91-.03-2.47.05-1.23.12-2.21.16-2.25l-.13-5.01c.06.11.08.96.12,1.62-.16-2.68.16-.48.02-2.94,0,.03,0-.01-.01,0-.05-1.84.12-2.29.03-4.56-.03.19-.05.32-.07.42,0-.74,0-1.48-.02-2.13l.11.39c.03-3.72-.04-7.84-.04-12.01-.05,1.5-.24,1.15-.25-.07l.17-.49c-.02-.19-.04-.19-.05-.15.02-.18.03-.34.05-.5-.02.02-.03-.22-.03-.55.04.14.07.37.09.7l-.06-1.89c.05-.12.08.33.14.44-.1-.77.17-3.25,0-4.38l.05-.11c0-4.16-.05-6.06-.05-9.45-.14-.07-.11-1.39-.22-2.41.05-2.5.16-5.26.15-8.27-.07-2.1-.12-.61-.2-1.56.13-.16.12-3.16.21-1.6-.02-3.61-.02-4.61-.12-9.17-.05.5-.08,1.06-.12.76-.02-.83.06-1.88.12-1.77v.23c-.18-5.13.4-11.82.14-15.91v.23s-.12-4.22-.12-4.22c.02-1.94.09,1.17.18-.28-.21-4.56.04-7.21-.1-10.95.38-2.93-.02-10.32.23-14.26l-.09.23c-.09-1.01.05-1.22.07-1.97-.07.1-.08,1.1-.13.47-.1-8.58.12-17.73.2-26.54.01-1.44-.08-1.95-.17-2.45.02-.14.05-.35.07-.84-.11.35-.15-.84-.12-2.27l.12.83c-.05-1.58-.07-3.17-.09-4.76l.02.26c-.02-.55-.02-1.37-.03-2.28-.01-4.34.03-8.7-.08-12.88.04.38.09.39.09,1.01.12-1.35,0-4.96-.1-4.99,0-.99.09-.23.14-.84.07-1.35-.16-3.38-.04-4.1.02-.12.04.37.05.62-.06-.88.01-4.09-.13-3.24.02-.93.02-1.81,0-2.67,0-.22,0-.46,0-.68-.02-1.11-.03-2.16.01-3.13-.16-1.24.07-4.09-.15-4.48.12.09.16-1.13.16-2.52.03-.8.05-1.6.06-2.19l.03.05c.02-2.73-.04-5.02-.1-7.28-.02-2.27-.21-4.34.04-5.66-.03-1.19-.05-2.3-.08-3.45.04-1.81.04-3.98.05-6.14,0,0,.01.04.02.04,0-.18-.01-.31-.01-.48.01-1.78.03-3.53.07-5.06-.04.72-.17-.12-.19-.96.04-1.1-.15-3.06.05-2.88v.4c.19-.83.15-3.1.15-4.87l-.22-.25v-.9c.28-4.65-.16-11.47.17-13.84-.06-1.12-.06-2.51-.13-3.63l.14.07c.04-3.1.06-4.66.03-8.49l.1.78c.01-2.16-.41-2.75-.41-4.75l.21-.59c0-3.78.19-7.58,0-11.33.03.07.09.18.1.8,0-1.78.15-6.87-.14-6.24.19-.04.02-3.9-.06-5.94l.14.33c-.18-1.74-.23-1.8-.27-4.21.02-.57.11-.49.08.27.08-1.9-.13-1.5-.05-3.78l.09.86c.01-1.95-.04-1.8-.14-2.89-.01-.3-.02-.67-.02-1.07,0,0,0,0,0,0,0-.03,0-.07,0-.09.01-1.21.09-2.6.18-2.81-.08-.27-.18-1.35-.14-2.49.05-.16.08.27.09.48.1-3.25-.16-4.88-.02-7.1.05-.04.07-.19.08-.37,0,2.59-.01,4.68-.03,4.48.13.02.15-2.08.33-.39-.09-1.69-.3-4.59-.24-6.63.01-.09.03-.19.04-.26v.21c.03-.47.02-.89,0-1.29.02-.66.04-1.06.04-1.69.11-.23.06-2.4.07-3.44-.14.07-.12-1.29-.23-.03.01-.17.02.2.02.89,0,.16,0,.34.01.45v-.07c-.01.69,0,1.59,0,2.6-.07-.84-.13-1.7-.05-2.85-.09-.55-.18-1.14-.23-1.48.2-1.41.31-4.15.43-4.52-.08-3.21-.04-7.52-.31-9.56-.03-.92.08-1.03.12-1.37.02.52.02,1.14.06,1.43-.07-1.82-.02-5.37-.21-5.82.09-2.28.17,1.29.14-1.84l.06.43c.3-6.14-.46-10.11-.08-16.9-.02.47-.04.71-.07.8.18-7.78-.14-16.12.13-23.78.06-2.19-.06-2.44-.15-3.79l.15-.45-.17-2.31c-.13-3.26.38-5.56.14-9.7l-.1.51c.02-1.47-.06-4.68.06-4.42-.02-.15-.11-.49-.05-1.06l.08-.04-.13-3.64c.06-2.8.32.49.34-3.61-.03-1.52-.23-4.37-.28-3.81,0,.61-.05,1.56-.13,1.6l-.04-1.4s-.08-.12-.12-.19v-.07Zm-.85,484.31l.02.08c-.03-.06-.05-.15-.07-.28-.02-.7,0-.93.04-1.02,0,.32,0,.71.02,1.22Zm1.38-388.35l-.02-.08c.03.07.05.15.07.28.02.69,0,.93-.04,1.02,0-.33,0-.71-.02-1.22Zm-.71-30.02c-.04-.57-.07-1.28-.07-1.99.02.54.05.7.08.71.02.55.04.99,0,1.28Zm-.25,8.26s0,0,0,.03c0,.01,0,.02,0,.03v-.06Zm-.08,14.17c-.01-.29-.02-.58-.03-.87.02.06.04.05.06-.17v-.28s.02.18.02.18c0,.21,0,.43.01.64,0,.28-.01.61-.03,1.02-.01-.09-.02-.25-.03-.38,0-.19,0-.36,0-.55v.41Zm.11,15.4c.01.23.02.5.03.7,0,.14,0,.29-.01.43,0,.04,0,.07,0,.1,0,.08-.01.16-.02.23,0-.43,0-.94,0-1.46Zm-.41,213.98l.09-1.29c0,.43-.01.92-.05,1.58l-.04-.29Zm.67,197.86c-.02-.55-.04-.99,0-1.27.04.58.07,1.28.08,1.99-.02-.54-.05-.7-.08-.71Zm.25-9.54s0,0,0-.02v-.04.06Zm.08-14.16c.01.28.02.58.03.85-.02-.06-.04-.04-.06.18v.28s-.02-.18-.02-.18c0-.21,0-.43-.01-.64,0-.29.02-.62.03-1.03.01.09.02.25.03.39,0,.19,0,.36,0,.55v-.41Zm-.11-15.41c0-.23-.02-.49-.03-.69,0-.14,0-.29.01-.44,0-.03,0-.06,0-.09,0-.08.01-.16.02-.23,0,.43,0,.94,0,1.46Zm.41-213.98l-.09,1.29c0-.42.01-.9.05-1.58l.04.29Z"/>
      <path class="cls-1" d="m3.72,562.82c0-.38-.02-.55-.04-.56.01.35.02.65.04.56Z"/>
      <path class="cls-1" d="m3.61,489.35v-.42c-.02-.12-.04-.23-.07-.34l.07.75Z"/>
      <path class="cls-1" d="m3.82,1004.15v-.28s-.06-.07-.09-.08l.09.35Z"/>
      <path class="cls-1" d="m3.37,587.46v-.07c-.01-.42-.01-.18,0,.07Z"/>
      <path class="cls-1" d="m4.83,648.26c-.05.42-.08.86-.1,1.32.01.09.02.21.04.28l.06-1.6Z"/>
      <path class="cls-1" d="m3.54,909.25c0,.1,0,.16,0,.28.01-.14.02-.28.03-.41l-.04-.25v.37Z"/>
      <path class="cls-1" d="m3.81,511.11c0,.06-.01.06-.02.1v.09c0-.07,0-.15.02-.19Z"/>
      <path class="cls-1" d="m3.64,469.47c-.03-1.44-.08.03-.11-.05.05.93.06,1.14.11.05Z"/>
      <polygon class="cls-1" points="3.44 548.12 3.49 549.99 3.46 548.61 3.44 548.12"/>
      <polygon class="cls-1" points="3.37 825.54 3.42 827.2 3.43 826.42 3.37 825.54"/>
      <path class="cls-1" d="m4.48,865.19c0,.38.02.55.04.57-.01-.35-.02-.66-.04-.57Z"/>
      <path class="cls-1" d="m4.59,938.66v.42c.02.11.04.23.07.33l-.07-.75Z"/>
      <path class="cls-1" d="m4.38,423.86v.28s.06.07.08.08l-.08-.35Z"/>
      <path class="cls-1" d="m4.83,840.55v.07c.01.42,0,.18,0-.07Z"/>
      <path class="cls-1" d="m3.37,779.76c.05-.42.08-.86.1-1.33-.01-.09-.02-.21-.04-.27l-.06,1.6Z"/>
      <path class="cls-1" d="m4.66,518.76c0-.1,0-.16,0-.29-.01.15-.02.29-.03.41l.04.25v-.37Z"/>
      <path class="cls-1" d="m4.39,916.91c0-.07.01-.07.02-.1v-.09c0,.07,0,.15-.02.19Z"/>
      <path class="cls-1" d="m4.73,958.69c.03,1.45.08-.03.11.06-.05-.93-.06-1.14-.11-.06Z"/>
      <polygon class="cls-1" points="4.76 879.89 4.71 878.02 4.74 879.4 4.76 879.89"/>
      <polygon class="cls-1" points="4.83 602.48 4.78 600.81 4.78 601.59 4.83 602.48"/>
    </g>
    <g>
      <path class="cls-1" d="m7.98,423.87c-.02-.15-.06-.18-.09-.06-.16-.21-.32-.07-.43,2.32l.14,2.41-.11.75v-2.01c-.11,1.12-.02,1.86.04,2.67-.06.19-.1.51-.13.98l.22,2.38c-.09.27-.18-1.08-.23.48.1,1.11.21-1.02.27.81-.11,1.13-.19.78-.1,2.13-.06.18-.1-.1-.12-.64.07,1.2.03,3.16.15,3.78-.13,1.17.03,4.03-.19,3.88.04.3.12,1.45.16,2.45-.05-.09-.12.18-.09-.62-.03.74-.03,1.39-.02,1.99-.01,1.27,0,3.26-.17,2.93.16,1.02.15,3.12.17,5.19l-.03.15.03.08c0,.9.02,1.8.06,2.59-.02-.15-.06-.44-.05-.68,0,.32-.01.58-.02.82-.05.37-.1.6-.11-.41-.11,2.41,0,1.1.06,1.35-.03.35-.05.67-.07,1.08.12.14.19,1.1.25,2.12-.02.27-.04.53-.09.61.06.34.08-.12.1-.39.02.26.03.49.05.74-.08.28-.09.72-.07,1.28-.1-.05-.16-1.57-.29-1.16.16-.07.15,3.16.29,2.56-.02.28-.04.45-.05.62-.04-.59-.03-1.11-.11.14.03.15.04.36.05.55-.02.16-.05.3-.11.57.13.15.13.49.13.95-.03.92-.1,1.91-.07,2.68,0,0,0,.03,0,.03-.02,0-.05.05-.09.17,0,.14.03.22.05.31,0,.2,0,.5.02,1.03-.08,1.03-.16-.93-.16-.93,0,2.24.18,1.07.29,1.56.05,2.68-.14,1.22-.23,2.12.04,1.48.17,2.66.2,3.77,0,.17,0,.35,0,.53-.02.09-.03.18-.06-.05.02.31.03.7.04,1.09-.02,1-.03,2-.05,2.73l-.03-.07c.08.19.12.78.14,1.48,0,.21.01.41.02.61.01.56.02,1.16.03,1.74h0s0,0,0,0c0,.2,0,.42,0,.62-.04-.03-.06-.13-.09-.23.03-.13.05-.3.07-.38-.09.19-.13-1.55-.13.09-.02-.19-.04-.4-.06-.77v1.59c.06.37.09.87.12,1.91v-.04c0-.33-.01-.66-.1-.25l-.04-.11c0,.09,0,.19,0,.27,0,.04-.01.05-.02.1-.05,3.2.08,3.59.03,6.77.08.63.13.06.2.36-.02.58.02.71.05.87,0,.25.01.53.01.74-.05.16-.06.6-.12.48,0-.25.04-.86,0-1.24-.02,1.12-.07,2.46-.15,2.91.04-.07.08.05.11.33-.08.58-.15,1.13-.11,2.21,0,.08-.02.1-.02.23.07.51,0,1.86.15,1.89,0,.62-.07.73-.11.97.05.74.04,2.84.08,3.7-.06,1.02-.02,1.36.04,1.73l-.02.43s.03-.14.03-.32c.03.22.06.5.06,1.03l-.17.32c.02,2.47.08,5.15.13,7.88h-.02c.02.83.03,1.74.05,2.63-.04-.24-.09-.64-.14.11.03,1.7.03,3.49.01,5.29l-.1-.11c.02.97.04.3.1.18-.02,3.05-.08,6.13-.15,8.9l.15,1.71c0,.07,0,.11-.01.17l-.13-.43c-.2,4.31.35,7.77.01,11.06.12,1.14.08-2.35.22-1.33-.02,1.99-.26,4.06-.26,4.67-.09,2.72.25,2.54.18,5.39.02-.15.06-.23.1-.23,0,1.15-.02,2.29-.02,3.46-.04-.03-.09-.19-.1-.62,0-.48.01-.71.03-.68-.02-.64-.05-1.49-.11-.7l.06.26c-.06.99-.05,3.72-.15,3.07.06,1.5.1.64.13-.47-.08,2.55,0,3.98-.05,6.61.03-.42.1-.8.1-.39-.02,1.25-.02,1.84,0,2.19-.02.49-.03,1.04-.05,1.5.05.21.07.66.08,1.23-.04-.01-.07-.05-.02,1.47-.06,1.6-.16.34-.21-.29.12,2.39-.07,4.46-.09,5.83l-.05-1.26c.03.75.03,1.37.03,2l.12-.72c-.02.74-.02,1.37-.07,1.35.05.47.11.19.18.21-.02.59-.05,1.37-.07,2.52,0,.12,0,.21,0,.32-.04.06-.08-.05-.09-1.06.02.5.02,1.13,0,1.87-.02.1-.03-.11-.04-.31-.14,2.97.18,1.36.18,4.43-.09-.39-.17.71-.15,1.21,0-.84.07-.77.14-.31v.06s.03,1.36.03,1.36c0-.26.02-.53.04-.73,0,.06.01.09.01.16-.05,1.44,0,1.91.03,2.47-.05,1.22-.12,2.22-.17,2.24l.13,5.02c-.06-.11-.08-.95-.12-1.62.16,2.68-.16.48-.02,2.94,0-.03,0,.02,0,0,.06,1.84-.12,2.29-.03,4.57.03-.19.05-.33.07-.42,0,.74,0,1.48.02,2.13l-.11-.39c-.03,3.72.04,7.83.04,12,.05-1.5.24-1.15.25.08l-.17.49c.02.18.04.19.05.14-.02.17-.03.34-.05.5.02-.02.03.22.04.55-.04-.14-.07-.38-.09-.7l.05,1.89c-.05.11-.07-.33-.14-.45.1.77-.17,3.26,0,4.38l-.05.11c0,4.16.05,6.06.05,9.46.14.06.11,1.39.22,2.41-.05,2.5-.16,5.26-.15,8.27.07,2.11.12.61.2,1.57-.13.16-.12,3.16-.21,1.6.02,3.61.02,4.61.12,9.16.05-.49.08-1.04.12-.76.02.83-.06,1.88-.12,1.77v-.22c.17,5.12-.4,11.82-.14,15.9v-.22s.12,4.22.12,4.22c-.03,1.94-.1-1.17-.18.28.21,4.56-.04,7.2.1,10.96-.38,2.92.02,10.32-.23,14.25l.09-.22c.09,1.01-.05,1.23-.07,1.98.07-.1.08-1.11.13-.47.1,8.59-.12,17.73-.2,26.54,0,1.43.08,1.95.17,2.44-.02.14-.05.35-.07.84.11-.34.15.84.12,2.28l-.12-.83c.05,1.57.07,3.16.08,4.75l-.02-.26c.02.54.02,1.36.03,2.28.01,4.34-.03,8.71.09,12.88-.04-.38-.09-.39-.09-1-.12,1.35,0,4.96.1,4.99,0,.99-.09.23-.14.84-.07,1.34.16,3.38.04,4.1-.02.11-.04-.37-.05-.62.06.88-.01,4.09.13,3.24-.02.93-.02,1.81,0,2.66,0,.23,0,.47,0,.69.02,1.11.03,2.16-.01,3.13.16,1.24-.07,4.09.15,4.47-.12-.08-.16,1.14-.16,2.52-.03.8-.05,1.6-.06,2.2l-.03-.06c-.02,2.73.03,5.03.1,7.29.02,2.26.21,4.34-.04,5.65.03,1.19.05,2.3.07,3.45-.04,1.81-.04,3.98-.05,6.14,0,0,0-.04-.02-.03,0,.17,0,.31.01.48-.01,1.77-.03,3.54-.07,5.05.04-.71.17.13.19.97-.04,1.11.15,3.06-.05,2.89v-.4c-.2.82-.15,3.1-.15,4.87l.21.24c0,.3,0,.6,0,.9-.28,4.65.16,11.47-.17,13.84.06,1.13.06,2.52.13,3.64l-.14-.07c-.04,3.1-.06,4.65-.03,8.48l-.1-.79c-.01,2.17.41,2.77.41,4.75l-.21.59c0,3.78-.19,7.58,0,11.33-.03-.07-.09-.18-.1-.8,0,1.77-.15,6.87.14,6.24-.19.03-.02,3.9.06,5.94l-.14-.32c.18,1.73.23,1.79.27,4.2-.02.56-.11.49-.08-.27-.08,1.89.13,1.5.05,3.79l-.09-.87c-.01,1.95.04,1.81.14,2.89.01.31.02.68.01,1.08h0s0,.07,0,.1c-.01,1.22-.09,2.59-.18,2.81.08.27.18,1.35.14,2.49-.05.15-.08-.28-.09-.48-.1,3.26.16,4.88.02,7.11-.05.04-.07.18-.08.37,0-2.6.02-4.68.03-4.48-.13-.02-.15,2.07-.33.39.1,1.69.3,4.59.24,6.62-.01.09-.03.19-.04.27l-.02-.21c-.01.47,0,.89.02,1.3-.02.64-.04,1.06-.04,1.68-.11.23-.06,2.4-.06,3.44.14-.07.12,1.29.23.03,0,.17-.02-.2-.02-.89,0-.16,0-.34-.01-.44v.07c0-.69,0-1.58,0-2.59.07.84.13,1.7.05,2.84.09.55.18,1.14.23,1.48-.2,1.41-.31,4.15-.43,4.53.08,3.2.04,7.52.31,9.55.03.92-.08,1.03-.12,1.37-.02-.53-.02-1.14-.06-1.44.07,1.82.02,5.38.21,5.83-.09,2.28-.17-1.3-.14,1.83l-.06-.43c-.3,6.14.46,10.1.08,16.9.02-.47.03-.71.06-.8-.17,7.79.14,16.12-.13,23.79-.06,2.18.06,2.44.15,3.79l-.15.45.17,2.31c.12,3.26-.38,5.56-.14,9.69l.1-.51c-.02,1.47.06,4.69-.06,4.42.02.15.11.49.05,1.07l-.08.03.13,3.64c-.06,2.8-.32-.49-.34,3.61.03,1.52.23,4.37.28,3.81,0-.61.05-1.56.13-1.59l.04,1.4c.04.05.08.12.12.19v.07c.02.16.06.18.09.06.16.21.49.21.61-2.17l-.14-2.42.11-.74v2c.11-1.12.02-1.86-.04-2.67.06-.18.1-.51.13-.98l-.22-2.38c.09-.27.18,1.09.23-.48-.1-1.11-.21,1.02-.27-.81.11-1.13.19-.78.1-2.13.06-.18.1.11.13.64-.07-1.21-.03-3.16-.15-3.79.13-1.16-.03-4.03.19-3.88-.04-.3-.12-1.45-.16-2.45.05.08.12-.18.1.62.03-.74.03-1.39.02-1.99.01-1.27,0-3.26.17-2.92-.16-1.03-.15-3.12-.17-5.2l.03-.14-.03-.08c0-.91-.02-1.8-.06-2.59.02.16.06.44.04.67,0-.32.01-.57.02-.81.05-.37.1-.6.11.41.11-2.42,0-1.1-.06-1.36.02-.35.05-.66.07-1.07-.13-.14-.19-1.11-.25-2.12.02-.27.04-.52.09-.61-.06-.33-.08.12-.1.4-.02-.27-.03-.49-.05-.74.08-.28.09-.73.07-1.29.1.06.16,1.57.29,1.16-.16.07-.16-3.15-.29-2.56.02-.28.04-.45.05-.61.04.58.03,1.1.11-.15-.03-.14-.04-.36-.05-.55.02-.16.05-.29.11-.57-.13-.14-.13-.49-.13-.95.03-.91.1-1.91.07-2.68,0,0,0-.02,0-.03.02,0,.06-.04.1-.17,0-.14-.03-.21-.05-.3,0-.2,0-.49-.02-1.03.08-1.04.16.93.16.93,0-2.24-.18-1.07-.29-1.56-.05-2.68.14-1.22.23-2.11-.04-1.49-.35-2.82-.37-3.93,0-.17,0-.35,0-.52.02-.1.03-.18.06.03-.02-.3-.03-.7-.04-1.08.02-1,.03-2,.06-2.73l.03.07c-.08-.19-.12-.77-.14-1.48,0-.21-.01-.41-.02-.6,0-.57-.02-1.16-.03-1.74v-.02s0,0,0,.01c0-.2,0-.43-.01-.61.04.02.06.12.09.22-.03.14-.05.3-.07.38.09-.19.13,1.55.13-.1.02.2.05.41.06.77v-1.58c-.06-.38-.09-.87-.12-1.9v.03c.01.34.01.67.1.26l.04.1c0-.08,0-.18,0-.27,0-.04.01-.05.02-.11.05-3.19-.08-3.59-.03-6.77-.08-.63-.13-.06-.2-.35.02-.58-.02-.72-.05-.87,0-.25-.02-.53-.02-.74.05-.16.06-.6.12-.49,0,.25-.04.87,0,1.25.02-1.11.07-2.46.15-2.91-.04.06-.08-.06-.11-.32.08-.58.15-1.13.11-2.21,0-.07.01-.1.02-.23-.07-.51,0-1.86-.15-1.89,0-.62.07-.74.11-.98-.05-.75-.04-2.84-.08-3.7.06-1.02.02-1.37-.04-1.73l.02-.43s-.03.14-.03.32c-.03-.23-.06-.5-.06-1.03l.17-.32c-.02-2.47-.08-5.15-.13-7.88h.02c-.02-.83-.03-1.74-.04-2.63.04.25.09.66.14-.1-.03-1.7-.03-3.5-.02-5.3l.1.12c-.02-.97-.04-.3-.1-.19.02-3.04.08-6.12.15-8.9l-.15-1.7c0-.08,0-.11.02-.18l.13.44c.2-4.31-.35-7.77-.02-11.06-.12-1.13-.08,2.34-.22,1.33.02-1.98.26-4.05.26-4.67.09-2.72-.25-2.53-.18-5.38-.02.14-.06.22-.1.23,0-1.15.02-2.29.02-3.46.04.04.08.19.1.62,0,.48-.01.71-.03.69.02.64.05,1.49.11.69l-.06-.25c.06-.98.05-3.71.15-3.08-.06-1.49-.1-.63-.13.47.08-2.55,0-3.97.06-6.6-.03.42-.1.8-.1.39.02-1.25.02-1.84,0-2.19.02-.5.02-1.04.05-1.51-.05-.2-.07-.65-.08-1.23.04.02.07.05.02-1.47.06-1.61.16-.34.21.29-.12-2.39.07-4.47.09-5.83l.05,1.25c-.03-.75-.03-1.37-.03-1.99l-.12.72c.02-.74.02-1.37.07-1.35-.05-.47-.11-.18-.18-.21.02-.59.05-1.36.07-2.51,0-.11,0-.21,0-.32.04-.06.08.05.09,1.04-.02-.5-.02-1.12,0-1.86.02-.11.03.1.04.31.14-2.97-.18-1.36-.18-4.43.09.39.17-.71.15-1.21,0,.84-.07.77-.14.31v-.07s-.03-1.36-.03-1.36c0,.25-.02.53-.04.73,0-.06-.01-.1-.01-.17.05-1.43,0-1.91-.03-2.47.05-1.23.12-2.21.16-2.25l-.13-5.01c.06.11.08.96.12,1.62-.16-2.68.16-.48.02-2.94,0,.03,0-.01-.01,0-.05-1.84.12-2.29.03-4.56-.03.19-.05.32-.07.42,0-.74,0-1.48-.02-2.13l.11.39c.03-3.72-.04-7.84-.04-12.01-.05,1.5-.24,1.15-.25-.07l.17-.49c-.02-.19-.04-.19-.05-.15.02-.18.03-.34.05-.5-.02.02-.03-.22-.03-.55.04.14.07.37.09.7l-.06-1.89c.05-.12.08.33.14.44-.1-.77.17-3.25,0-4.38l.05-.11c0-4.16-.05-6.06-.05-9.45-.14-.07-.11-1.39-.22-2.41.05-2.5.16-5.26.15-8.27-.07-2.1-.12-.61-.2-1.56.13-.16.12-3.16.21-1.6-.02-3.61-.02-4.61-.12-9.17-.05.5-.08,1.06-.12.76-.02-.83.06-1.88.12-1.77v.23c-.18-5.13.4-11.82.14-15.91v.23s-.12-4.22-.12-4.22c.02-1.94.09,1.17.18-.28-.21-4.56.04-7.21-.1-10.95.38-2.93-.02-10.32.23-14.26l-.09.23c-.09-1.01.05-1.22.07-1.97-.07.1-.08,1.1-.13.47-.1-8.58.12-17.73.2-26.54.01-1.44-.08-1.95-.17-2.45.02-.14.05-.35.07-.84-.11.35-.15-.84-.12-2.27l.12.83c-.05-1.58-.07-3.17-.09-4.76l.02.26c-.02-.55-.02-1.37-.03-2.28-.01-4.34.03-8.7-.08-12.88.04.38.09.39.09,1.01.12-1.35,0-4.96-.1-4.99,0-.99.09-.23.14-.84.07-1.35-.16-3.38-.04-4.1.02-.12.04.37.05.62-.06-.88.01-4.09-.13-3.24.02-.93.02-1.81,0-2.67,0-.22,0-.46,0-.68-.02-1.11-.03-2.16.01-3.13-.16-1.24.07-4.09-.15-4.48.12.09.16-1.13.16-2.52.03-.8.05-1.6.06-2.19l.03.05c.02-2.73-.04-5.02-.1-7.28-.02-2.27-.21-4.34.04-5.66-.03-1.19-.05-2.3-.08-3.45.04-1.81.04-3.98.05-6.14,0,0,.01.04.02.04,0-.18-.01-.31-.01-.48.01-1.78.03-3.53.07-5.06-.04.72-.17-.12-.19-.96.04-1.1-.15-3.06.05-2.88v.4c.19-.83.15-3.1.15-4.87l-.22-.25v-.9c.28-4.65-.16-11.47.17-13.84-.06-1.12-.06-2.51-.13-3.63l.14.07c.04-3.1.06-4.66.03-8.49l.1.78c.01-2.16-.41-2.75-.41-4.75l.21-.59c0-3.78.19-7.58,0-11.33.03.07.09.18.1.8,0-1.78.15-6.87-.14-6.24.19-.04.02-3.9-.06-5.94l.14.33c-.18-1.74-.23-1.8-.27-4.21.02-.57.11-.49.08.27.08-1.9-.13-1.5-.05-3.78l.09.86c.01-1.95-.04-1.8-.14-2.89-.01-.3-.02-.67-.02-1.07,0,0,0,0,0,0,0-.03,0-.07,0-.09.01-1.21.09-2.6.18-2.81-.08-.27-.18-1.35-.14-2.49.05-.16.08.27.09.48.1-3.25-.16-4.88-.02-7.1.05-.04.07-.19.08-.37,0,2.59-.01,4.68-.03,4.48.13.02.15-2.08.33-.39-.09-1.69-.3-4.59-.24-6.63.01-.09.03-.19.04-.26v.21c.03-.47.02-.89,0-1.29.02-.66.04-1.06.04-1.69.11-.23.06-2.4.07-3.44-.14.07-.12-1.29-.23-.03.01-.17.02.2.02.89,0,.16,0,.34.01.45v-.07c-.01.69,0,1.59,0,2.6-.07-.84-.13-1.7-.05-2.85-.09-.55-.18-1.14-.23-1.48.2-1.41.31-4.15.43-4.52-.08-3.21-.04-7.52-.31-9.56-.03-.92.08-1.03.12-1.37.02.52.02,1.14.06,1.43-.07-1.82-.02-5.37-.21-5.82.09-2.28.17,1.29.14-1.84l.06.43c.3-6.14-.46-10.11-.08-16.9-.02.47-.04.71-.07.8.18-7.78-.14-16.12.13-23.78.06-2.19-.06-2.44-.15-3.79l.15-.45-.17-2.31c-.13-3.26.38-5.56.14-9.7l-.1.51c.02-1.47-.06-4.68.06-4.42-.02-.15-.11-.49-.05-1.06l.08-.04-.13-3.64c.06-2.8.31.49.33-3.61-.03-1.52-.23-4.37-.28-3.81,0,.61-.05,1.56-.13,1.6l-.04-1.4s-.08-.12-.12-.19v-.07Zm-.85,484.31l.02.08c-.03-.06-.05-.15-.07-.28-.02-.7,0-.93.04-1.02,0,.32,0,.71.02,1.22Zm1.38-388.35l-.02-.08c.03.07.05.15.07.28.02.69,0,.93-.04,1.02,0-.33,0-.71-.02-1.22Zm-.71-30.02c-.04-.57-.07-1.28-.07-1.99.02.54.05.7.08.71.02.55.04.99,0,1.28Zm-.25,8.26s0,0,0,.03c0,.01,0,.02,0,.03v-.06Zm-.08,14.17c-.01-.29-.02-.58-.03-.87.02.06.04.05.06-.17v-.28s.02.18.02.18c0,.21,0,.43.01.64,0,.28-.01.61-.03,1.02-.01-.09-.02-.25-.03-.38,0-.19,0-.36,0-.55v.41Zm.11,15.4c.01.23.02.5.03.7,0,.14,0,.29-.01.43,0,.04,0,.07,0,.1,0,.08-.01.16-.02.23,0-.43,0-.94,0-1.46Zm-.41,213.98l.09-1.29c0,.43-.01.92-.05,1.58l-.04-.29Zm.67,197.86c-.02-.55-.04-.99,0-1.27.04.58.07,1.28.08,1.99-.02-.54-.05-.7-.08-.71Zm.25-9.54s0,0,0-.02v-.04.06Zm.08-14.16c.01.28.02.58.03.85-.02-.06-.04-.04-.06.18v.28s-.02-.18-.02-.18c0-.21,0-.43-.01-.64,0-.29.02-.62.03-1.03.01.09.02.25.03.39,0,.19,0,.36,0,.55v-.41Zm-.11-15.41c0-.23-.02-.49-.03-.69,0-.14,0-.29.01-.44,0-.03,0-.06,0-.09,0-.08.01-.16.02-.23,0,.43,0,.94,0,1.46Zm.41-213.98l-.09,1.29c0-.42.01-.9.05-1.58l.04.29Z"/>
      <path class="cls-1" d="m7.43,562.82c0-.38-.02-.55-.04-.56.01.35.02.65.04.56Z"/>
      <path class="cls-1" d="m7.33,489.35v-.42c-.02-.12-.04-.23-.07-.34l.07.75Z"/>
      <path class="cls-1" d="m7.54,1004.15v-.28s-.06-.07-.09-.08l.09.35Z"/>
      <path class="cls-1" d="m7.09,587.46v-.07c-.01-.42-.01-.18,0,.07Z"/>
      <path class="cls-1" d="m8.54,648.26c-.05.42-.08.86-.1,1.32.01.09.02.21.04.28l.06-1.6Z"/>
      <path class="cls-1" d="m7.26,909.25c0,.1,0,.16,0,.28.01-.14.02-.28.03-.41l-.04-.25v.37Z"/>
      <path class="cls-1" d="m7.52,511.11c0,.06-.01.06-.02.1v.09c0-.07,0-.15.02-.19Z"/>
      <path class="cls-1" d="m7.36,469.47c-.03-1.44-.08.03-.11-.05.05.93.06,1.14.11.05Z"/>
      <polygon class="cls-1" points="7.15 548.12 7.2 549.99 7.17 548.61 7.15 548.12"/>
      <polygon class="cls-1" points="7.09 825.54 7.13 827.2 7.14 826.42 7.09 825.54"/>
      <path class="cls-1" d="m8.2,865.19c0,.38.02.55.04.57-.01-.35-.02-.66-.04-.57Z"/>
      <path class="cls-1" d="m8.3,938.66v.42c.02.11.04.23.07.33l-.07-.75Z"/>
      <path class="cls-1" d="m8.09,423.86v.28s.06.07.08.08l-.08-.35Z"/>
      <path class="cls-1" d="m8.54,840.55v.07c.01.42,0,.18,0-.07Z"/>
      <path class="cls-1" d="m7.09,779.76c.05-.42.08-.86.1-1.33-.01-.09-.02-.21-.04-.27l-.06,1.6Z"/>
      <path class="cls-1" d="m8.37,518.76c0-.1,0-.16,0-.29-.01.15-.02.29-.03.41l.04.25v-.37Z"/>
      <path class="cls-1" d="m8.11,916.91c0-.07.01-.07.02-.1v-.09c0,.07,0,.15-.02.19Z"/>
      <path class="cls-1" d="m8.45,958.69c.03,1.45.08-.03.11.06-.05-.93-.06-1.14-.11-.06Z"/>
      <polygon class="cls-1" points="8.48 879.89 8.43 878.02 8.46 879.4 8.48 879.89"/>
      <polygon class="cls-1" points="8.54 602.48 8.5 600.81 8.49 601.59 8.54 602.48"/>
    </g>
  </g>
</svg>