<?xml version="1.0" encoding="UTF-8"?>
<svg id="_ライン" data-name="ライン" xmlns="http://www.w3.org/2000/svg" viewBox="0 0 24 905.33">
  <defs>
    <style>
      .cls-1 {
        fill: #f8d388;
      }
    </style>
  </defs>
  <ellipse class="cls-1" cx="12" cy="11.7" rx="11.63" ry="11.7"/>
  <g>
    <g>
      <path class="cls-1" d="m9.35,30.9c-.03-.22-.09-.25-.13-.08-.24-.31-.48-.1-.65,3.34l.21,3.47-.17,1.08v-2.89c-.17,1.61-.03,2.67.07,3.85-.09.27-.16.73-.19,1.42l.34,3.42c-.14.39-.27-1.56-.35.7.15,1.6.31-1.48.41,1.16-.16,1.63-.3,1.12-.16,3.06-.09.26-.15-.15-.19-.92.11,1.73.04,4.55.23,5.45-.2,1.69.04,5.8-.29,5.59.07.43.19,2.08.24,3.53-.07-.13-.18.25-.14-.9-.05,1.06-.05,2.01-.03,2.87-.02,1.83,0,4.7-.25,4.22.24,1.48.23,4.49.25,7.47l-.04.21.05.11c.01,1.3.04,2.59.09,3.73-.03-.22-.09-.64-.07-.97,0,.46-.02.83-.03,1.18-.07.53-.15.86-.16-.58-.17,3.47-.01,1.59.09,1.94-.04.5-.08.96-.11,1.55.19.2.28,1.59.37,3.05-.03.38-.06.76-.13.88.09.49.12-.17.15-.56.02.37.05.7.08,1.06-.12.4-.14,1.04-.11,1.85-.15-.07-.24-2.26-.44-1.68.24-.11.23,4.55.44,3.68-.04.4-.06.65-.07.9-.06-.85-.04-1.6-.17.2.05.21.05.52.08.79-.03.22-.07.43-.17.82.19.21.2.7.2,1.36-.05,1.33-.14,2.76-.11,3.86,0,0,0,.04-.01.04-.04,0-.08.07-.14.24,0,.2.04.31.08.44,0,.28,0,.72.03,1.48-.12,1.49-.24-1.34-.24-1.34-.01,3.23.27,1.54.44,2.25.07,3.86-.21,1.76-.36,3.05.07,2.13.26,3.83.3,5.44,0,.25,0,.5-.01.76-.03.13-.05.25-.09-.07.04.44.05,1.01.07,1.57-.02,1.44-.05,2.88-.08,3.94l-.05-.1c.12.28.18,1.12.21,2.13,0,.3.02.58.03.88.02.81.03,1.67.04,2.51h0s0,0,0,0c0,.29,0,.61.01.89-.06-.04-.09-.19-.13-.33.04-.19.08-.43.11-.55-.14.28-.19-2.23-.19.13-.03-.27-.07-.58-.1-1.12v2.28c.09.54.14,1.26.18,2.75l-.02-.06c0-.48,0-.95-.13-.37l-.06-.16c0,.13,0,.27,0,.39-.01.06-.02.07-.03.15-.08,4.61.13,5.17.04,9.76.12.91.19.09.31.52-.03.84.02,1.03.08,1.25,0,.36.02.76.02,1.06-.08.22-.08.87-.19.7-.01-.36.06-1.24,0-1.79-.03,1.61-.11,3.55-.23,4.19.06-.1.12.08.17.47-.12.84-.22,1.62-.17,3.18-.01.11-.02.15-.03.34.11.73,0,2.67.23,2.73,0,.89-.11,1.06-.17,1.4.07,1.07.06,4.09.13,5.33-.1,1.47-.03,1.95.06,2.49l-.02.62c.03.06.04-.19.05-.46.05.32.09.72.09,1.48l-.26.46c.03,3.56.12,7.42.19,11.34h-.03c.04,1.2.05,2.5.07,3.78-.07-.35-.14-.93-.21.16.04,2.45.04,5.03.02,7.62l-.15-.16c.03,1.39.07.43.15.26-.03,4.4-.13,8.83-.23,12.83l.22,2.46c0,.11-.01.16-.02.25l-.2-.62c-.3,6.21.53,11.19.02,15.93.18,1.64.12-3.38.33-1.92-.03,2.87-.39,5.85-.39,6.73-.14,3.92.37,3.65.28,7.76.03-.21.09-.33.15-.34-.01,1.65-.02,3.3-.02,4.98-.07-.05-.13-.27-.15-.9,0-.69.02-1.02.05-.98-.03-.93-.07-2.15-.17-1.01l.09.37c-.09,1.42-.08,5.35-.23,4.43.09,2.16.15.93.19-.68-.13,3.68,0,5.73-.08,9.52.05-.6.16-1.15.16-.56-.03,1.8-.03,2.64,0,3.15-.03.7-.04,1.5-.08,2.16.08.3.11.95.12,1.77-.07-.02-.1-.07-.04,2.12-.09,2.31-.24.49-.31-.42.18,3.44-.11,6.43-.14,8.39l-.07-1.81c.04,1.08.04,1.98.04,2.88l.18-1.04c-.03,1.06-.03,1.97-.11,1.95.08.68.17.27.27.3-.03.85-.07,1.98-.11,3.62,0,.17.01.31.01.46-.06.08-.12-.08-.13-1.52.03.73.03,1.63,0,2.69-.02.15-.05-.16-.06-.45-.21,4.28.27,1.95.27,6.39-.13-.57-.25,1.03-.23,1.75,0-1.21.1-1.11.21-.44l-.02.08.06,1.96c0-.37.03-.76.06-1.05,0,.08.02.13.02.23-.07,2.07,0,2.76.05,3.56-.07,1.76-.18,3.2-.25,3.23l.19,7.23c-.1-.16-.13-1.37-.19-2.34.24,3.86-.25.7-.03,4.24,0-.04.01.02.01,0,.09,2.65-.19,3.29-.05,6.58.05-.27.08-.47.1-.6,0,1.06.01,2.13.03,3.07l-.16-.56c-.05,5.35.07,11.28.05,17.29.08-2.16.36-1.65.38.11l-.25.7c.04.25.06.27.08.2-.03.25-.05.49-.08.72.03-.03.05.31.05.79-.06-.2-.11-.55-.14-1l.08,2.73c-.07.16-.11-.48-.21-.64.15,1.12-.25,4.7.01,6.31l-.07.16c0,6,.07,8.73.08,13.62.21.09.16,2.01.34,3.47-.07,3.59-.25,7.58-.23,11.91.1,3.04.18.88.31,2.26-.2.23-.18,4.55-.32,2.3.03,5.2.03,6.63.18,13.2.08-.7.12-1.51.18-1.09.03,1.2-.08,2.71-.18,2.55l-.02-.31c.28,7.38-.59,17.02-.19,22.9l-.02-.32.21,6.08c-.04,2.8-.14-1.68-.27.4.32,6.57-.06,10.38.15,15.79-.58,4.21.02,14.86-.35,20.53l.13-.32c.13,1.46-.08,1.77-.11,2.85.1-.15.12-1.59.2-.68.15,12.37-.18,25.54-.3,38.24-.01,2.07.12,2.82.25,3.52-.04.19-.08.51-.11,1.21.16-.49.23,1.21.18,3.28l-.18-1.2c.07,2.26.11,4.54.13,6.84l-.03-.37c.02.78.03,1.95.04,3.28.02,6.25-.04,12.54.13,18.55-.06-.55-.13-.56-.13-1.45-.18,1.95,0,7.14.14,7.19-.01,1.43-.13.33-.21,1.21-.1,1.93.24,4.87.06,5.9-.03.16-.06-.54-.07-.9.09,1.27-.02,5.89.19,4.67-.04,1.33-.03,2.61-.01,3.83,0,.33,0,.67.01.99.02,1.6.04,3.11-.02,4.51.24,1.78-.11,5.89.23,6.44-.18-.12-.25,1.64-.24,3.63-.04,1.15-.07,2.31-.09,3.17l-.05-.09c-.03,3.94.05,7.25.15,10.51.03,3.26.33,6.25-.06,8.14.04,1.71.08,3.32.11,4.97-.05,2.61-.06,5.74-.08,8.85-.01,0-.01-.06-.02-.05,0,.25.01.44.02.69-.02,2.55-.04,5.09-.11,7.27.06-1.03.26.19.29,1.39-.07,1.59.23,4.41-.08,4.16v-.57c-.3,1.18-.22,4.46-.23,7.02l.33.35c0,.43,0,.87,0,1.3-.42,6.7.24,16.53-.26,19.94.1,1.62.1,3.62.2,5.24l-.22-.11c-.06,4.46-.09,6.69-.04,12.22l-.15-1.14c-.02,3.12.62,3.98.63,6.84l-.32.85c0,5.45-.29,10.93,0,16.32-.05-.1-.14-.26-.15-1.15-.01,2.55-.23,9.89.21,8.99-.29.04-.03,5.62.09,8.55l-.21-.46c.27,2.49.34,2.58.41,6.05-.03.81-.17.7-.12-.39-.12,2.73.2,2.16.08,5.46l-.13-1.25c-.02,2.82.05,2.61.21,4.16.02.44.03.97.02,1.55h0c0,.06,0,.11,0,.14-.02,1.75-.13,3.74-.27,4.04.12.38.27,1.95.21,3.59-.07.22-.12-.4-.14-.7-.15,4.7.24,7.02.03,10.24-.07.05-.11.26-.13.53,0-3.74.02-6.74.04-6.45-.19-.02-.23,2.99-.5.57.14,2.44.46,6.61.37,9.54-.02.13-.04.28-.07.38l-.02-.31c-.02.68,0,1.29.03,1.87-.03.93-.06,1.53-.07,2.43-.16.33-.09,3.46-.1,4.95.21-.11.18,1.86.35.04-.01.24-.02-.28-.03-1.29,0-.22,0-.49-.02-.64l.02.1c0-.99,0-2.28-.01-3.74.11,1.21.2,2.45.08,4.1.14.79.28,1.65.35,2.13-.3,2.03-.47,5.98-.65,6.52.11,4.61.07,10.83.46,13.76.05,1.32-.12,1.49-.18,1.98-.04-.76-.03-1.65-.09-2.07.1,2.63.03,7.75.31,8.4-.13,3.28-.26-1.88-.21,2.64l-.09-.61c-.46,8.85.7,14.55.12,24.35.04-.67.05-1.02.1-1.15-.26,11.23.21,23.22-.2,34.27-.08,3.14.1,3.51.23,5.46l-.23.65.26,3.33c.19,4.7-.57,8.01-.21,13.97l.15-.74c-.03,2.11.09,6.75-.09,6.37.03.21.16.71.08,1.54l-.12.04.2,5.25c-.09,4.04-.48,37.78-.51,43.69.04,2.19.34,6.3.42,5.49,0-.88.08-2.25.2-2.29l.06,2.01c.06.07.12.18.18.28v.11c.04.22.09.26.13.09.24.31.74.3.92-3.12l-.21-3.48.17-1.06v2.88c.17-1.61.03-2.67-.07-3.84.09-.26.16-39.23.19-39.9l-.34-3.42c.14-.39.27,1.57.35-.7-.16-1.6-.31,1.47-.42-1.16.17-1.62.3-1.12.16-3.07.09-.26.15.16.19.93-.11-1.74-.04-4.55-.23-5.46.2-1.68-.04-5.8.29-5.59-.06-.43-.19-2.08-.24-3.53.08.12.18-.26.14.89.05-1.06.05-2.01.04-2.86.02-1.83,0-4.7.25-4.21-.24-1.48-.23-4.49-.25-7.49l.04-.2-.05-.11c-.01-1.31-.03-2.6-.09-3.73.03.22.09.63.07.97,0-.46.02-.82.03-1.16.07-.54.15-.86.16.58.17-3.48.01-1.59-.09-1.95.04-.5.07-.95.1-1.54-.19-.2-.28-1.59-.37-3.05.03-.38.06-.76.13-.88-.09-.48-.12.17-.15.58-.02-.38-.05-.71-.08-1.07.13-.4.14-1.05.11-1.86.15.09.24,2.26.44,1.68-.24.1-.24-4.54-.44-3.68.03-.4.05-.64.08-.88.06.83.04,1.59.17-.22-.05-.2-.05-.52-.08-.79.03-.22.07-.42.17-.82-.19-.2-.2-.7-.2-1.37.05-1.32.14-2.75.11-3.86,0,0,0-.02,0-.04.04,0,.08-.06.14-.24,0-.2-.04-.31-.08-.43,0-.29,0-.71-.03-1.48.12-1.5.24,1.33.24,1.33.01-3.22-.27-1.54-.43-2.25-.08-3.86.21-1.75.35-3.04-.06-2.14-.52-4.06-.56-5.66,0-.25,0-.51.01-.75.03-.14.05-.26.09.05-.04-.43-.05-1-.07-1.55.02-1.44.05-2.88.08-3.94l.05.1c-.12-.28-.18-1.11-.21-2.13,0-.31-.02-.58-.03-.87-.01-.82-.03-1.67-.04-2.51v-.02s0,0,0,.02c0-.29,0-.61-.02-.88.06.03.09.18.13.31-.04.19-.08.43-.11.55.14-.27.19,2.23.19-.14.04.28.07.58.1,1.12v-2.28c-.09-.55-.14-1.26-.18-2.74l.02.05c0,.49,0,.96.13.37l.06.15c0-.12,0-.26,0-.38.01-.06.02-.07.03-.16.08-4.6-.12-5.17-.04-9.75-.12-.91-.19-.08-.31-.51.03-.84-.02-1.04-.07-1.26-.01-.36-.02-.76-.02-1.06.08-.22.09-.87.19-.7.01.36-.06,1.26,0,1.8.03-1.6.11-3.55.23-4.19-.06.09-.12-.08-.17-.46.12-.84.23-1.63.17-3.19.01-.1.02-.14.03-.33-.11-.73,0-2.68-.23-2.73,0-.9.11-1.06.17-1.41-.07-1.08-.06-4.09-.13-5.32.1-1.48.03-1.97-.06-2.49l.02-.62c-.03-.06-.04.2-.05.46-.05-.33-.09-.72-.09-1.48l.26-.46c-.03-3.56-.12-7.42-.19-11.34h.03c-.03-1.2-.05-2.51-.07-3.79.07.36.14.94.21-.15-.05-2.46-.04-5.04-.02-7.63l.15.17c-.03-1.39-.07-.43-.15-.27.03-4.38.13-8.82.23-12.82l-.22-2.46c0-.12.01-.16.02-.26l.2.63c.3-6.22-.53-11.19-.02-15.93-.18-1.63-.12,3.38-.33,1.91.03-2.85.39-5.84.39-6.72.14-3.92-.37-3.65-.28-7.75-.03.2-.09.32-.15.33.01-1.65.02-3.3.02-4.98.07.05.13.28.15.9,0,.69-.02,1.02-.05.99.03.93.07,2.14.17,1l-.09-.37c.09-1.41.08-5.35.23-4.43-.09-2.15-.15-.91-.2.68.13-3.68,0-5.72.08-9.5-.05.6-.16,1.15-.16.56.04-1.8.03-2.65,0-3.15.02-.72.04-1.51.07-2.17-.08-.28-.11-.94-.12-1.77.07.02.11.08.04-2.11.09-2.31.24-.49.32.42-.18-3.44.11-6.43.14-8.39l.07,1.81c-.04-1.08-.04-1.97-.04-2.87l-.18,1.04c.03-1.06.03-1.97.11-1.95-.07-.67-.17-.26-.27-.31.03-.85.07-1.96.11-3.62,0-.16-.01-.3-.01-.46.06-.08.11.07.13,1.51-.03-.72-.03-1.61,0-2.67.03-.16.05.14.07.44.21-4.28-.27-1.96-.27-6.39.13.56.25-1.03.22-1.75,0,1.21-.1,1.12-.21.45l.02-.1-.06-1.95c0,.37-.03.76-.06,1.06,0-.08-.02-.14-.02-.24.08-2.06,0-2.76-.04-3.56.07-1.77.18-3.19.25-3.24l-.19-7.22c.09.16.12,1.38.18,2.33-.24-3.86.25-.7.03-4.23,0,.04-.01-.02-.02,0-.08-2.65.19-3.29.05-6.57-.04.27-.08.46-.1.6,0-1.06-.01-2.13-.03-3.07l.16.57c.05-5.35-.07-11.29-.06-17.3-.08,2.16-.36,1.65-.38-.11l.25-.7c-.03-.27-.06-.27-.08-.21.02-.25.05-.49.08-.72-.03.03-.04-.31-.05-.79.05.2.11.53.14,1.01l-.09-2.73c.08-.17.11.48.21.63-.15-1.11.25-4.69-.01-6.31l.08-.16c0-5.99-.08-8.72-.08-13.61-.21-.1-.16-2.01-.34-3.47.07-3.59.25-7.58.23-11.91-.1-3.03-.18-.88-.31-2.25.2-.22.18-4.55.32-2.3-.02-5.2-.03-6.63-.18-13.21-.08.72-.12,1.52-.18,1.1-.03-1.19.08-2.71.18-2.55l.02.33c-.28-7.38.59-17.03.19-22.91l.02.33-.21-6.08c.04-2.8.14,1.69.27-.4-.32-6.57.06-10.39-.15-15.78.58-4.22-.02-14.87.35-20.54l-.13.33c-.13-1.45.08-1.76.11-2.84-.11.15-.13,1.59-.2.67-.15-12.36.18-25.54.3-38.23.02-2.07-.12-2.82-.25-3.53.04-.19.08-.51.11-1.21-.16.5-.23-1.21-.18-3.27l.19,1.2c-.08-2.27-.11-4.56-.13-6.85l.03.37c-.02-.79-.03-1.97-.04-3.29-.02-6.25.04-12.53-.13-18.55.06.55.13.57.13,1.45.18-1.94,0-7.14-.15-7.19.01-1.42.13-.33.21-1.21.11-1.95-.24-4.87-.06-5.91.03-.17.06.54.08.9-.09-1.27.02-5.89-.19-4.67.04-1.33.03-2.61.01-3.84,0-.32,0-.67-.01-.97-.02-1.59-.04-3.11.02-4.51-.24-1.78.11-5.89-.23-6.45.19.13.25-1.63.24-3.62.04-1.15.08-2.3.1-3.16l.05.07c.03-3.94-.05-7.23-.15-10.49-.03-3.27-.33-6.25.06-8.15-.04-1.71-.08-3.31-.11-4.97.05-2.61.07-5.73.08-8.85.01,0,.02.05.03.05,0-.25-.02-.44-.02-.69.02-2.56.04-5.09.11-7.29-.06,1.04-.26-.18-.29-1.38.07-1.59-.23-4.41.08-4.15v.57c.3-1.19.22-4.46.23-7.02l-.33-.36v-1.3c.42-6.7-.24-16.52.26-19.94-.1-1.62-.09-3.61-.19-5.23l.21.11c.06-4.47.09-6.71.04-12.24l.15,1.13c.02-3.11-.62-3.96-.63-6.84l.32-.85c0-5.44.29-10.93,0-16.32.05.1.14.25.15,1.15.01-2.57.23-9.9-.22-8.99.29-.05.03-5.62-.09-8.56l.21.47c-.27-2.51-.34-2.59-.41-6.06.03-.82.17-.7.11.39.11-2.73-.2-2.16-.08-5.45l.13,1.24c.02-2.81-.05-2.59-.21-4.16-.02-.43-.03-.97-.02-1.54,0,0,0,0,0,0,0-.04,0-.1,0-.13.02-1.75.13-3.74.27-4.04-.12-.39-.27-1.94-.22-3.59.07-.22.12.38.14.69.15-4.69-.24-7.02-.03-10.23.07-.06.11-.28.13-.53,0,3.73-.02,6.74-.04,6.45.2.02.23-3,.5-.56-.14-2.44-.46-6.61-.36-9.55.02-.14.04-.28.07-.37l.02.3c.02-.67,0-1.29-.03-1.86.03-.94.06-1.53.06-2.43.16-.33.09-3.45.1-4.95-.21.1-.18-1.86-.36-.04.02-.24.03.28.03,1.29,0,.23.01.49.02.64l-.02-.11c0,.99,0,2.28.01,3.74-.11-1.21-.2-2.46-.08-4.1-.14-.79-.27-1.65-.34-2.13.3-2.04.47-5.98.65-6.51-.11-4.62-.07-10.84-.47-13.77-.05-1.32.12-1.48.18-1.97.04.76.03,1.65.09,2.06-.1-2.62-.03-7.74-.31-8.39.13-3.28.26,1.86.22-2.65l.09.61c.46-8.84-.7-14.56-.11-24.35-.04.67-.05,1.02-.1,1.15.27-11.21-.21-23.22.2-34.26.08-3.15-.09-3.52-.23-5.46l.23-.65-.26-3.33c-.19-4.7.58-8.01.21-13.97l-.16.73c.03-2.12-.09-6.75.09-6.37-.03-.22-.16-.71-.08-1.53l.12-.05-.2-5.24c.09-4.04.48.7.51-5.2-.04-2.19-.34-6.3-.42-5.49,0,.88-.08,2.25-.2,2.3l-.06-2.02c-.06-.07-.12-.17-.18-.28v-.11Zm-1.29,697.66l.03.12c-.04-.09-.08-.21-.11-.4-.03-1,.01-1.33.06-1.47,0,.46.01,1.02.02,1.75Zm2.09-559.43l-.03-.11c.04.1.08.21.11.4.03,1-.01,1.33-.06,1.47,0-.47-.01-1.02-.02-1.76Zm-1.08-43.25c-.06-.82-.11-1.84-.11-2.86.03.78.08,1,.12,1.02.03.79.06,1.43,0,1.84Zm-.37,11.9s0,0,0,.05c0,.01,0,.02,0,.04v-.08Zm-.12,20.41c-.02-.41-.03-.84-.04-1.25.02.09.05.07.1-.24v-.4s.03.25.03.25c.01.31,0,.62.02.93,0,.4-.02.88-.05,1.47-.02-.13-.03-.36-.04-.55,0-.28,0-.52,0-.79l-.02.58Zm.16,22.18c.02.34.03.72.05,1.01,0,.19,0,.41-.02.62,0,.05,0,.1,0,.14,0,.12-.02.22-.03.33,0-.61,0-1.35,0-2.1Zm-.62,308.25l.14-1.86c0,.61-.02,1.32-.07,2.28l-.06-.41Zm1.02,285.02c-.03-.79-.06-1.42,0-1.83.06.83.11,1.84.11,2.86-.04-.78-.08-1-.12-1.03Zm.38-13.74s0,0-.01-.03v-.05.08Zm.12-20.4c.02.4.03.84.04,1.23-.02-.08-.05-.06-.1.25l-.02.4v-.26c-.02-.31-.02-.62-.03-.92,0-.42.02-.9.05-1.48.02.13.03.36.04.57,0,.27,0,.52,0,.79l.02-.58Zm-.16-22.2c-.01-.33-.03-.7-.05-1,0-.2.01-.42.02-.64,0-.05,0-.08,0-.13,0-.11.02-.22.03-.33,0,.61,0,1.35,0,2.1Zm.62-308.24l-.14,1.86c0-.6.02-1.3.07-2.27l.06.41Z"/>
      <path class="cls-1" d="m8.52,231.05c0-.55-.03-.79-.05-.81.02.51.03.94.05.81Z"/>
      <path class="cls-1" d="m8.36,125.22v-.6c-.03-.17-.07-.33-.11-.49l.11,1.09Z"/>
      <path class="cls-1" d="m8.68,905.29v-.4c-.05-.05-.09-.11-.13-.11l.13.51Z"/>
      <path class="cls-1" d="m8,266.56v-.1c-.02-.6-.02-.25,0,.1Z"/>
      <path class="cls-1" d="m10.2,354.14c-.08.6-.12,1.24-.15,1.9.02.13.03.3.06.4l.09-2.3Z"/>
      <path class="cls-1" d="m8.26,730.1c0,.15.01.22.01.4.02-.2.03-.4.05-.58l-.07-.36v.54Z"/>
      <path class="cls-1" d="m8.66,156.56c-.01.09-.02.09-.03.14v.13c0-.1.01-.21.03-.28Z"/>
      <path class="cls-1" d="m8.41,96.58c-.04-2.08-.12.04-.17-.07.08,1.33.1,1.65.17.07Z"/>
      <polygon class="cls-1" points="8.1 209.88 8.17 212.57 8.13 210.59 8.1 209.88"/>
      <polygon class="cls-1" points="8 609.51 8.06 611.9 8.08 610.78 8 609.51"/>
      <path class="cls-1" d="m9.68,666.63c0,.55.03.79.06.82-.02-.51-.03-.94-.06-.82Z"/>
      <path class="cls-1" d="m9.84,772.46v.61c.03.16.06.33.1.48l-.1-1.09Z"/>
      <path class="cls-1" d="m9.52,30.88v.4c.05.05.09.1.13.11l-.13-.51Z"/>
      <path class="cls-1" d="m10.2,631.13v.1c.02.6.01.25,0-.1Z"/>
      <path class="cls-1" d="m8,543.56c.08-.61.12-1.24.15-1.91-.02-.13-.03-.3-.06-.39l-.09,2.3Z"/>
      <path class="cls-1" d="m9.95,167.59c0-.14-.01-.23-.01-.41-.02.22-.03.41-.05.59l.07.36v-.54Z"/>
      <path class="cls-1" d="m9.55,741.13c.01-.1.02-.1.03-.14v-.13c0,.1-.01.21-.03.28Z"/>
      <path class="cls-1" d="m10.06,801.32c.04,2.09.12-.04.17.08-.08-1.33-.1-1.65-.17-.08Z"/>
      <polygon class="cls-1" points="10.11 687.8 10.03 685.11 10.08 687.1 10.11 687.8"/>
      <polygon class="cls-1" points="10.2 288.18 10.14 285.78 10.12 286.91 10.2 288.18"/>
    </g>
    <g>
      <path class="cls-1" d="m14.98,30.9c-.03-.22-.09-.25-.13-.08-.24-.31-.48-.1-.65,3.34l.21,3.47-.17,1.08v-2.89c-.17,1.61-.03,2.67.07,3.85-.09.27-.16.73-.19,1.42l.34,3.42c-.14.39-.27-1.56-.35.7.15,1.6.31-1.48.41,1.16-.16,1.63-.3,1.12-.16,3.06-.09.26-.15-.15-.19-.92.11,1.73.04,4.55.23,5.45-.2,1.69.04,5.8-.29,5.59.07.43.19,2.08.24,3.53-.07-.13-.18.25-.14-.9-.05,1.06-.05,2.01-.03,2.87-.02,1.83,0,4.7-.25,4.22.24,1.48.23,4.49.25,7.47l-.04.21.05.11c.01,1.3.04,2.59.09,3.73-.03-.22-.09-.64-.07-.97,0,.46-.02.83-.03,1.18-.07.53-.15.86-.16-.58-.17,3.47-.01,1.59.09,1.94-.04.5-.08.96-.11,1.55.19.2.28,1.59.37,3.05-.03.38-.06.76-.13.88.09.49.12-.17.15-.56.02.37.05.7.08,1.06-.12.4-.14,1.04-.11,1.85-.15-.07-.24-2.26-.44-1.68.24-.11.23,4.55.44,3.68-.04.4-.06.65-.07.9-.06-.85-.04-1.6-.17.2.05.21.05.52.08.79-.03.22-.07.43-.17.82.19.21.2.7.2,1.36-.05,1.33-.14,2.76-.11,3.86,0,0,0,.04-.01.04-.04,0-.08.07-.14.24,0,.2.04.31.08.44,0,.28,0,.72.03,1.48-.12,1.49-.24-1.34-.24-1.34-.01,3.23.27,1.54.44,2.25.07,3.86-.21,1.76-.36,3.05.07,2.13.26,3.83.3,5.44,0,.25,0,.5-.01.76-.03.13-.05.25-.09-.07.04.44.05,1.01.07,1.57-.02,1.44-.05,2.88-.08,3.94l-.05-.1c.12.28.18,1.12.21,2.13,0,.3.02.58.03.88.02.81.03,1.67.04,2.51h0s0,0,0,0c0,.29,0,.61.01.89-.06-.04-.09-.19-.13-.33.04-.19.08-.43.11-.55-.14.28-.19-2.23-.19.13-.03-.27-.07-.58-.1-1.12v2.28c.09.54.14,1.26.18,2.75l-.02-.06c0-.48,0-.95-.13-.37l-.06-.16c0,.13,0,.27,0,.39-.01.06-.02.07-.03.15-.08,4.61.13,5.17.04,9.76.12.91.19.09.31.52-.03.84.02,1.03.08,1.25,0,.36.02.76.02,1.06-.08.22-.08.87-.19.7-.01-.36.06-1.24,0-1.79-.03,1.61-.11,3.55-.23,4.19.06-.1.12.08.17.47-.12.84-.22,1.62-.17,3.18-.01.11-.02.15-.03.34.11.73,0,2.67.23,2.73,0,.89-.11,1.06-.17,1.4.07,1.07.06,4.09.13,5.33-.1,1.47-.03,1.95.06,2.49l-.02.62c.03.06.04-.19.05-.46.05.32.09.72.09,1.48l-.26.46c.03,3.56.12,7.42.19,11.34h-.03c.04,1.2.05,2.5.07,3.78-.07-.35-.14-.93-.21.16.04,2.45.04,5.03.02,7.62l-.15-.16c.03,1.39.07.43.15.26-.03,4.4-.13,8.83-.23,12.83l.22,2.46c0,.11-.01.16-.02.25l-.2-.62c-.3,6.21.53,11.19.02,15.93.18,1.64.12-3.38.33-1.92-.03,2.87-.39,5.85-.39,6.73-.14,3.92.37,3.65.28,7.76.03-.21.09-.33.15-.34-.01,1.65-.02,3.3-.02,4.98-.07-.05-.13-.27-.15-.9,0-.69.02-1.02.05-.98-.03-.93-.07-2.15-.17-1.01l.09.37c-.09,1.42-.08,5.35-.23,4.43.09,2.16.15.93.19-.68-.13,3.68,0,5.73-.08,9.52.05-.6.16-1.15.16-.56-.03,1.8-.03,2.64,0,3.15-.03.7-.04,1.5-.08,2.16.08.3.11.95.12,1.77-.07-.02-.1-.07-.04,2.12-.09,2.31-.24.49-.31-.42.18,3.44-.11,6.43-.14,8.39l-.07-1.81c.04,1.08.04,1.98.04,2.88l.18-1.04c-.03,1.06-.03,1.97-.11,1.95.08.68.17.27.27.3-.03.85-.07,1.98-.11,3.62,0,.17.01.31.01.46-.06.08-.12-.08-.13-1.52.03.73.03,1.63,0,2.69-.02.15-.05-.16-.06-.45-.21,4.28.27,1.95.27,6.39-.13-.57-.25,1.03-.23,1.75,0-1.21.1-1.11.21-.44l-.02.08.06,1.96c0-.37.03-.76.06-1.05,0,.08.02.13.02.23-.07,2.07,0,2.76.05,3.56-.07,1.76-.18,3.2-.25,3.23l.19,7.23c-.1-.16-.13-1.37-.19-2.34.24,3.86-.25.7-.03,4.24,0-.04.01.02.01,0,.09,2.65-.19,3.29-.05,6.58.05-.27.08-.47.1-.6,0,1.06.01,2.13.03,3.07l-.16-.56c-.05,5.35.07,11.28.05,17.29.08-2.16.36-1.65.38.11l-.25.7c.04.25.06.27.08.2-.03.25-.05.49-.08.72.03-.03.05.31.06.79-.06-.2-.11-.55-.14-1l.08,2.73c-.07.16-.11-.48-.21-.64.15,1.12-.25,4.7.01,6.31l-.07.16c0,6,.07,8.73.08,13.62.21.09.16,2.01.34,3.47-.07,3.59-.25,7.58-.23,11.91.1,3.04.18.88.31,2.26-.2.23-.18,4.55-.32,2.3.03,5.2.03,6.63.18,13.2.08-.7.12-1.51.18-1.09.03,1.2-.08,2.71-.18,2.55l-.02-.31c.28,7.38-.59,17.02-.19,22.9l-.02-.32.21,6.08c-.04,2.8-.14-1.68-.27.4.32,6.57-.06,10.38.15,15.79-.58,4.21.02,14.86-.35,20.53l.13-.32c.13,1.46-.08,1.77-.11,2.85.1-.15.12-1.59.2-.68.15,12.37-.18,25.54-.3,38.24-.01,2.07.12,2.82.25,3.52-.04.19-.08.51-.11,1.21.16-.49.23,1.21.18,3.28l-.18-1.2c.07,2.26.11,4.54.13,6.84l-.03-.37c.02.78.03,1.95.04,3.28.02,6.25-.04,12.54.13,18.55-.06-.55-.13-.56-.13-1.45-.18,1.95,0,7.14.14,7.19-.01,1.43-.13.33-.21,1.21-.1,1.93.24,4.87.06,5.9-.03.16-.06-.54-.07-.9.09,1.27-.02,5.89.19,4.67-.04,1.33-.03,2.61-.01,3.83,0,.33,0,.67.01.99.02,1.6.04,3.11-.02,4.51.24,1.78-.11,5.89.23,6.44-.18-.12-.25,1.64-.24,3.63-.04,1.15-.07,2.31-.09,3.17l-.05-.09c-.03,3.94.05,7.25.15,10.51.03,3.26.33,6.25-.06,8.14.04,1.71.08,3.32.11,4.97-.05,2.61-.06,5.74-.08,8.85-.01,0-.01-.06-.02-.05,0,.25.01.44.02.69-.02,2.55-.04,5.09-.11,7.27.06-1.03.26.19.29,1.39-.07,1.59.23,4.41-.08,4.16v-.57c-.3,1.18-.22,4.46-.23,7.02l.33.35c0,.43,0,.87,0,1.3-.42,6.7.24,16.53-.26,19.94.1,1.62.1,3.62.2,5.24l-.22-.11c-.06,4.46-.09,6.69-.04,12.22l-.15-1.14c-.02,3.12.62,3.98.63,6.84l-.32.85c0,5.45-.29,10.93,0,16.32-.05-.1-.14-.26-.15-1.15-.01,2.55-.23,9.89.21,8.99-.29.04-.03,5.62.09,8.55l-.21-.46c.27,2.49.34,2.58.41,6.05-.03.81-.17.7-.12-.39-.12,2.73.2,2.16.08,5.46l-.13-1.25c-.02,2.82.05,2.61.21,4.16.02.44.03.97.02,1.55h0c0,.06,0,.11,0,.14-.02,1.75-.13,3.74-.27,4.04.12.38.27,1.95.21,3.59-.07.22-.12-.4-.14-.7-.15,4.7.24,7.02.03,10.24-.07.05-.11.26-.13.53,0-3.74.02-6.74.04-6.45-.19-.02-.23,2.99-.5.57.14,2.44.46,6.61.37,9.54-.02.13-.04.28-.07.38l-.02-.31c-.02.68,0,1.29.03,1.87-.03.93-.06,1.53-.07,2.43-.16.33-.09,3.46-.1,4.95.21-.11.18,1.86.35.04-.01.24-.02-.28-.03-1.29,0-.22,0-.49-.02-.64l.02.1c0-.99,0-2.28-.01-3.74.11,1.21.2,2.45.08,4.1.14.79.28,1.65.35,2.13-.3,2.03-.47,5.98-.65,6.52.11,4.61.07,10.83.46,13.76.05,1.32-.12,1.49-.18,1.98-.04-.76-.03-1.65-.09-2.07.1,2.63.03,7.75.31,8.4-.13,3.28-.26-1.88-.21,2.64l-.09-.61c-.46,8.85.7,14.55.12,24.35.04-.67.05-1.02.1-1.15-.26,11.23.21,23.22-.2,34.27-.08,3.14.1,3.51.23,5.46l-.23.65.26,3.33c.19,4.7-.57,8.01-.21,13.97l.15-.74c-.03,2.11.09,6.75-.09,6.37.03.21.16.71.08,1.54l-.12.04.2,5.25c-.09,4.04-.48,37.78-.51,43.69.04,2.19.34,6.3.42,5.49,0-.88.08-2.25.2-2.29l.06,2.01c.06.07.12.18.18.28v.11c.04.22.09.26.13.09.24.31.74.3.92-3.12l-.21-3.48.17-1.06v2.88c.17-1.61.03-2.67-.07-3.84.09-.26.16-39.23.19-39.9l-.34-3.42c.14-.39.27,1.57.35-.7-.16-1.6-.31,1.47-.42-1.16.17-1.62.3-1.12.16-3.07.09-.26.15.16.19.93-.11-1.74-.04-4.55-.23-5.46.2-1.68-.04-5.8.29-5.59-.06-.43-.19-2.08-.24-3.53.08.12.18-.26.14.89.05-1.06.05-2.01.04-2.86.02-1.83,0-4.7.25-4.21-.24-1.48-.23-4.49-.25-7.49l.04-.2-.05-.11c-.01-1.31-.03-2.6-.09-3.73.03.22.09.63.07.97,0-.46.02-.82.03-1.16.07-.54.15-.86.16.58.17-3.48.01-1.59-.09-1.95.04-.5.07-.95.1-1.54-.19-.2-.28-1.59-.37-3.05.03-.38.06-.76.13-.88-.09-.48-.12.17-.15.58-.02-.38-.05-.71-.08-1.07.13-.4.14-1.05.11-1.86.15.09.24,2.26.44,1.68-.24.1-.24-4.54-.44-3.68.03-.4.05-.64.08-.88.06.83.04,1.59.17-.22-.05-.2-.05-.52-.08-.79.03-.22.07-.42.17-.82-.19-.2-.2-.7-.2-1.37.05-1.32.14-2.75.11-3.86,0,0,0-.02,0-.04.04,0,.08-.06.14-.24,0-.2-.04-.31-.08-.43,0-.29,0-.71-.03-1.48.12-1.5.24,1.33.24,1.33.01-3.22-.27-1.54-.43-2.25-.08-3.86.21-1.75.35-3.04-.06-2.14-.52-4.06-.56-5.66,0-.25,0-.51.01-.75.03-.14.05-.26.09.05-.04-.43-.05-1-.07-1.55.02-1.44.05-2.88.08-3.94l.05.1c-.12-.28-.18-1.11-.21-2.13,0-.31-.02-.58-.03-.87-.01-.82-.03-1.67-.04-2.51v-.02s0,0,0,.02c0-.29,0-.61-.02-.88.06.03.09.18.13.31-.04.19-.08.43-.11.55.14-.27.19,2.23.19-.14.04.28.07.58.1,1.12v-2.28c-.09-.55-.14-1.26-.18-2.74l.02.05c0,.49,0,.96.13.37l.06.15c0-.12,0-.26,0-.38.01-.06.02-.07.03-.16.08-4.6-.12-5.17-.04-9.75-.12-.91-.19-.08-.31-.51.03-.84-.02-1.04-.07-1.26-.01-.36-.02-.76-.02-1.06.08-.22.09-.87.19-.7.01.36-.06,1.26,0,1.8.03-1.6.11-3.55.23-4.19-.06.09-.12-.08-.17-.46.12-.84.23-1.63.17-3.19.01-.1.02-.14.03-.33-.11-.73,0-2.68-.23-2.73,0-.9.11-1.06.17-1.41-.07-1.08-.06-4.09-.13-5.32.1-1.48.03-1.97-.06-2.49l.02-.62c-.03-.06-.04.2-.05.46-.05-.33-.09-.72-.09-1.48l.26-.46c-.03-3.56-.12-7.42-.19-11.34h.03c-.03-1.2-.05-2.51-.07-3.79.07.36.14.94.21-.15-.05-2.46-.04-5.04-.02-7.63l.15.17c-.03-1.39-.07-.43-.15-.27.03-4.38.13-8.82.23-12.82l-.22-2.46c0-.12.01-.16.02-.26l.2.63c.3-6.22-.53-11.19-.02-15.93-.18-1.63-.12,3.38-.33,1.91.03-2.85.39-5.84.39-6.72.14-3.92-.37-3.65-.28-7.75-.03.2-.09.32-.15.33.01-1.65.02-3.3.02-4.98.07.05.13.28.15.9,0,.69-.02,1.02-.05.99.03.93.07,2.14.17,1l-.09-.37c.09-1.41.08-5.35.23-4.43-.09-2.15-.15-.91-.2.68.13-3.68,0-5.72.08-9.5-.05.6-.16,1.15-.16.56.04-1.8.03-2.65,0-3.15.02-.72.04-1.51.07-2.17-.08-.28-.11-.94-.12-1.77.07.02.11.08.04-2.11.09-2.31.24-.49.32.42-.18-3.44.11-6.43.14-8.39l.07,1.81c-.04-1.08-.04-1.97-.04-2.87l-.18,1.04c.03-1.06.03-1.97.11-1.95-.07-.67-.17-.26-.27-.31.03-.85.07-1.96.11-3.62,0-.16-.01-.3-.01-.46.06-.08.11.07.13,1.51-.03-.72-.03-1.61,0-2.67.03-.16.05.14.07.44.21-4.28-.27-1.96-.27-6.39.13.56.25-1.03.22-1.75,0,1.21-.1,1.12-.21.45l.02-.1-.06-1.95c0,.37-.03.76-.06,1.06,0-.08-.02-.14-.02-.24.08-2.06,0-2.76-.04-3.56.07-1.77.18-3.19.25-3.24l-.19-7.22c.09.16.12,1.38.18,2.33-.24-3.86.25-.7.03-4.23,0,.04-.01-.02-.02,0-.08-2.65.19-3.29.05-6.57-.04.27-.08.46-.1.6,0-1.06-.01-2.13-.03-3.07l.16.57c.05-5.35-.07-11.29-.06-17.3-.08,2.16-.36,1.65-.38-.11l.25-.7c-.03-.27-.06-.27-.08-.21.02-.25.05-.49.08-.72-.03.03-.04-.31-.05-.79.05.2.11.53.14,1.01l-.09-2.73c.08-.17.11.48.21.63-.15-1.11.25-4.69-.01-6.31l.08-.16c0-5.99-.08-8.72-.08-13.61-.21-.1-.16-2.01-.34-3.47.07-3.59.25-7.58.23-11.91-.1-3.03-.18-.88-.31-2.25.2-.22.18-4.55.32-2.3-.02-5.2-.03-6.63-.18-13.21-.08.72-.12,1.52-.18,1.1-.03-1.19.08-2.71.18-2.55l.02.33c-.28-7.38.59-17.03.19-22.91l.02.33-.21-6.08c.04-2.8.14,1.69.27-.4-.32-6.57.06-10.39-.15-15.78.58-4.22-.02-14.87.35-20.54l-.13.33c-.13-1.45.08-1.76.11-2.84-.11.15-.13,1.59-.2.67-.15-12.36.18-25.54.3-38.23.02-2.07-.12-2.82-.25-3.53.04-.19.08-.51.11-1.21-.16.5-.23-1.21-.18-3.27l.19,1.2c-.08-2.27-.11-4.56-.13-6.85l.03.37c-.02-.79-.03-1.97-.04-3.29-.02-6.25.04-12.53-.13-18.55.06.55.13.57.13,1.45.18-1.94,0-7.14-.15-7.19.01-1.42.13-.33.21-1.21.11-1.95-.24-4.87-.06-5.91.03-.17.06.54.08.9-.09-1.27.02-5.89-.19-4.67.04-1.33.03-2.61.01-3.84,0-.32,0-.67-.01-.97-.02-1.59-.04-3.11.02-4.51-.24-1.78.11-5.89-.23-6.45.19.13.25-1.63.24-3.62.04-1.15.08-2.3.1-3.16l.05.07c.03-3.94-.05-7.23-.15-10.49-.03-3.27-.33-6.25.06-8.15-.04-1.71-.08-3.31-.11-4.97.05-2.61.07-5.73.08-8.85.01,0,.02.05.03.05,0-.25-.02-.44-.02-.69.02-2.56.04-5.09.11-7.29-.06,1.04-.26-.18-.29-1.38.07-1.59-.23-4.41.08-4.15v.57c.3-1.19.22-4.46.23-7.02l-.33-.36v-1.3c.42-6.7-.24-16.52.26-19.94-.1-1.62-.09-3.61-.19-5.23l.21.11c.06-4.47.09-6.71.04-12.24l.15,1.13c.02-3.11-.62-3.96-.63-6.84l.32-.85c0-5.44.29-10.93,0-16.32.05.1.14.25.15,1.15.01-2.57.23-9.9-.22-8.99.29-.05.03-5.62-.09-8.56l.21.47c-.27-2.51-.34-2.59-.41-6.06.03-.82.17-.7.11.39.11-2.73-.2-2.16-.08-5.45l.13,1.24c.02-2.81-.05-2.59-.21-4.16-.02-.43-.03-.97-.02-1.54,0,0,0,0,0,0,0-.04,0-.1,0-.13.02-1.75.13-3.74.27-4.04-.12-.39-.27-1.94-.22-3.59.07-.22.12.38.14.69.15-4.69-.24-7.02-.03-10.23.07-.06.11-.28.13-.53,0,3.73-.02,6.74-.04,6.45.2.02.23-3,.5-.56-.14-2.44-.46-6.61-.36-9.55.02-.14.04-.28.07-.37l.02.3c.02-.67,0-1.29-.03-1.86.03-.94.06-1.53.06-2.43.16-.33.09-3.45.1-4.95-.21.1-.18-1.86-.36-.04.02-.24.03.28.03,1.29,0,.23.01.49.02.64l-.02-.11c0,.99,0,2.28.01,3.74-.11-1.21-.2-2.46-.08-4.1-.14-.79-.27-1.65-.34-2.13.3-2.04.47-5.98.65-6.51-.11-4.62-.07-10.84-.47-13.77-.05-1.32.12-1.48.18-1.97.04.76.03,1.65.09,2.06-.1-2.62-.03-7.74-.31-8.39.13-3.28.26,1.86.22-2.65l.09.61c.46-8.84-.7-14.56-.11-24.35-.04.67-.05,1.02-.1,1.15.27-11.21-.21-23.22.2-34.26.08-3.15-.09-3.52-.23-5.46l.23-.65-.26-3.33c-.19-4.7.58-8.01.21-13.97l-.16.73c.03-2.12-.09-6.75.09-6.37-.03-.22-.16-.71-.08-1.53l.12-.05-.2-5.24c.09-4.04.48.7.51-5.2-.04-2.19-.34-6.3-.42-5.49,0,.88-.08,2.25-.2,2.3l-.06-2.02c-.06-.07-.12-.17-.18-.28v-.11Zm-1.29,697.66l.03.12c-.04-.09-.08-.21-.11-.4-.03-1,.01-1.33.06-1.47,0,.46.01,1.02.02,1.75Zm2.09-559.43l-.03-.11c.04.1.08.21.11.4.03,1-.01,1.33-.06,1.47,0-.47-.01-1.02-.02-1.76Zm-1.08-43.25c-.06-.82-.11-1.84-.11-2.86.03.78.08,1,.12,1.02.03.79.06,1.43,0,1.84Zm-.37,11.9s0,0,0,.05c0,.01,0,.02,0,.04v-.08Zm-.12,20.41c-.02-.41-.03-.84-.04-1.25.02.09.05.07.1-.24v-.4s.03.25.03.25c.01.31,0,.62.02.93,0,.4-.02.88-.05,1.47-.02-.13-.03-.36-.04-.55,0-.28,0-.52,0-.79l-.02.58Zm.16,22.18c.02.34.03.72.05,1.01,0,.19,0,.41-.02.62,0,.05,0,.1,0,.14,0,.12-.02.22-.03.33,0-.61,0-1.35,0-2.1Zm-.62,308.25l.14-1.86c0,.61-.02,1.32-.07,2.28l-.06-.41Zm1.02,285.02c-.03-.79-.06-1.42,0-1.83.06.83.11,1.84.11,2.86-.04-.78-.08-1-.12-1.03Zm.38-13.74s0,0-.01-.03v-.05.08Zm.12-20.4c.02.4.03.84.04,1.23-.02-.08-.05-.06-.1.25l-.02.4v-.26c-.02-.31-.02-.62-.03-.92,0-.42.02-.9.05-1.48.02.13.03.36.04.57,0,.27,0,.52,0,.79l.02-.58Zm-.16-22.2c-.01-.33-.03-.7-.05-1,0-.2.01-.42.02-.64,0-.05,0-.08,0-.13,0-.11.02-.22.03-.33,0,.61,0,1.35,0,2.1Zm.62-308.24l-.14,1.86c0-.6.02-1.3.07-2.27l.06.41Z"/>
      <path class="cls-1" d="m14.15,231.05c0-.55-.03-.79-.05-.81.02.51.03.94.05.81Z"/>
      <path class="cls-1" d="m14,125.22v-.6c-.03-.17-.07-.33-.11-.49l.11,1.09Z"/>
      <path class="cls-1" d="m14.31,905.29v-.4c-.05-.05-.09-.11-.13-.11l.13.51Z"/>
      <path class="cls-1" d="m13.63,266.56v-.1c-.02-.6-.02-.25,0,.1Z"/>
      <path class="cls-1" d="m15.83,354.14c-.08.6-.12,1.24-.15,1.9.02.13.03.3.06.4l.09-2.3Z"/>
      <path class="cls-1" d="m13.89,730.1c0,.15.01.22.01.4.02-.2.03-.4.05-.58l-.07-.36v.54Z"/>
      <path class="cls-1" d="m14.29,156.56c-.01.09-.02.09-.03.14v.13c0-.1.01-.21.03-.28Z"/>
      <path class="cls-1" d="m14.04,96.58c-.04-2.08-.12.04-.17-.07.08,1.33.1,1.65.17.07Z"/>
      <polygon class="cls-1" points="13.73 209.88 13.8 212.57 13.76 210.59 13.73 209.88"/>
      <polygon class="cls-1" points="13.63 609.51 13.69 611.9 13.71 610.78 13.63 609.51"/>
      <path class="cls-1" d="m15.31,666.63c0,.55.03.79.06.82-.02-.51-.03-.94-.06-.82Z"/>
      <path class="cls-1" d="m15.47,772.46v.61c.03.16.06.33.1.48l-.1-1.09Z"/>
      <path class="cls-1" d="m15.15,30.88v.4c.05.05.09.1.13.11l-.13-.51Z"/>
      <path class="cls-1" d="m15.83,631.13v.1c.02.6.01.25,0-.1Z"/>
      <path class="cls-1" d="m13.63,543.56c.08-.61.12-1.24.15-1.91-.02-.13-.03-.3-.06-.39l-.09,2.3Z"/>
      <path class="cls-1" d="m15.58,167.59c0-.14-.01-.23-.01-.41-.02.22-.03.41-.05.59l.07.36v-.54Z"/>
      <path class="cls-1" d="m15.18,741.13c.01-.1.02-.1.03-.14v-.13c0,.1-.01.21-.03.28Z"/>
      <path class="cls-1" d="m15.69,801.32c.04,2.09.12-.04.17.08-.08-1.33-.1-1.65-.17-.08Z"/>
      <polygon class="cls-1" points="15.74 687.8 15.66 685.11 15.71 687.1 15.74 687.8"/>
      <polygon class="cls-1" points="15.83 288.18 15.77 285.78 15.76 286.91 15.83 288.18"/>
    </g>
  </g>
</svg>