<?xml version="1.0" encoding="UTF-8"?>
<svg id="TEXT" xmlns="http://www.w3.org/2000/svg" viewBox="0 0 145.08 228.15">
  <defs>
    <style>
      .cls-1 {
        fill: #f2f2f2;
      }

      .cls-2 {
        fill: #cbae62;
      }

      .cls-3 {
        fill: #231815;
      }

      .cls-4 {
        fill: none;
        stroke: #40210f;
        stroke-linecap: round;
        stroke-linejoin: round;
        stroke-width: 1.22px;
      }
    </style>
  </defs>
  <g>
    <path class="cls-1" d="m84.63,58.11l-13.72,4.99c-6.22-10.97-19.61-16.19-31.86-11.73-12.25,4.46-19.15,17.06-16.86,29.47l-13.72,4.99c-6.67,2.43-10.11,9.8-7.68,16.47l43.2,117.38c2.43,6.67,9.8,10.11,16.47,7.68l76.17-27.72c6.67-2.43,10.11-9.8,7.68-16.47l-43.2-117.38c-2.43-6.67-9.8-10.11-16.47-7.68Zm-35.57,20.77c-3.51,1.28-7.39-.53-8.67-4.04-1.28-3.51.53-7.39,4.04-8.67s7.39.53,8.67,4.04-.53,7.39-4.04,8.67Z"/>
    <path class="cls-2" d="m49.9,81.18c-4.77,1.74-10.07-.73-11.8-5.5s.73-10.07,5.5-11.8,10.06.73,11.8,5.5c1.74,4.77-.73,10.06-5.5,11.8Zm-4.63-12.71c-2.24.81-3.4,3.3-2.58,5.54s3.3,3.4,5.54,2.58c2.24-.81,3.39-3.3,2.58-5.54s-3.3-3.4-5.54-2.58Z"/>
    <g>
      <path class="cls-4" d="m46.35,71.42c-.61-.54-1.1-1.02-1.95-1.89"/>
      <path class="cls-4" d="m32.63,54.27C18.69,36.14,2.43,8.01,20.83,1.31c20.71-7.54,30.71,47.58,25.52,70.11"/>
    </g>
  </g>
  <g>
    <path class="cls-2" d="m61.58,127.77c-.47.09-.81.19-1.56.44,1.1,3.81,1.37,6.75.91,9.78,1.73,1.04,3.48,1.7,5.4,1.95-.28,1.11-.35,1.72-.35,3.04-2.01-.43-3.5-1.03-5.6-2.3-.56,2.09-1.39,3.68-2.73,5.37-.75-.76-1.15-1.06-2.3-1.73,1.5-1.69,2.31-3.17,2.83-5.24-1.51-1.31-2.58-2.58-3.65-4.34-.13.66-.25,1.07-.5,1.9-.79-.93-1.37-1.43-2.23-1.97.2-.47.25-.62.38-1.22-.46.11-1.01.29-1.83.58l-7.01,2.55c-.84.31-1.35.52-1.92.83l-.82-2.27c.64-.13,1.12-.27,2.01-.6l.49-.18-.69-1.9-.28.1c-.77.28-1.3.5-1.74.74l-.81-2.22c.61-.14.88-.21,1.81-.55l.28-.1-.09-.26c-.28-.77-.44-1.14-.72-1.62l2.43-.88c.07.4.18.78.51,1.69l.09.26,2.1-.77-.1-.28c-.3-.82-.49-1.28-.69-1.6l2.41-.88c.07.48.19.88.48,1.68l.1.28c.98-.36,1.21-.47,1.72-.73l.81,2.22c-.49.1-.92.23-1.79.54l.69,1.9q1.32-.51,1.93-.81l.71,1.94c.34-1.84.38-3.39.15-5.69-.15-1.43-.32-2.34-.6-3.09l2.74-.47c0,.21.02.34.22,1.98.05.56.07.93.12,1.73l3.62-1.32c1.01-.37,1.56-.59,2.18-.92l.89,2.43Zm-12.96,18.51c.41,1.12.77,1.97,1.07,2.58l-2.57.94c-.14-.69-.39-1.5-.8-2.65l-2.62-7.2c-.33-.91-.61-1.6-.83-2.08.59-.13,1.3-.37,2.11-.66l4.68-1.7c.89-.32,1.53-.59,2.02-.84.14.53.41,1.36.81,2.46l2.66,7.29c.56,1.54.14,2.2-1.94,2.96-.42.15-.75.27-1.29.45-.51-.96-.66-1.16-1.26-1.85.48-.12,1.09-.29,1.44-.42.61-.22.74-.37.63-.68l-.49-1.36-4.07,1.48.47,1.29Zm-3.31-12.72l2.1-.77-.69-1.9-2.1.77.69,1.9Zm5.12,5.05l-.38-1.03-4.07,1.48.38,1.03,4.07-1.48Zm1.09,2.99l-.39-1.08-4.07,1.48.39,1.08,4.07-1.48Zm3.47-11.56c-.01.48-.02.61-.03,1.23.47.91.8,1.46,1.56,2.53.87,1.22,1.34,1.79,2.13,2.51.16-1.52.07-2.73-.33-4.75-.2-1.07-.33-1.57-.64-2.49l-2.69.98Z"/>
    <path class="cls-2" d="m72.65,121.31c-.39,1.25-.72,2.01-1.42,3.22-.7-.46-1.34-.78-2.2-1.1,1.27-1.89,1.91-3.98,1.82-5.83l2.54-.45q-.06.34-.11.78c-.04.41-.05.52-.1.83l2.97-1.08c.91-.33,1.55-.62,2.15-.92l.57,1.57c.5-1.4.65-2.57.53-3.85l2.54-.45q-.11,1.23-.14,1.59l4.42-1.61c1.01-.37,1.75-.66,2.41-1.01l.84,2.32c-.75.19-1.34.38-2.37.76l-1.85.67c.55.41.98.81,1.54,1.32l-2.05,1.43c-.6-.71-1.06-1.17-1.9-1.88l-1.47.54c-.27.86-.44,1.4-.75,2.02l.33-.12c.09.39.16.66.35,1.25l6.62-2.41c1.15-.42,1.71-.68,2.33-1.01l.84,2.31c-.76.17-1.31.34-2.43.75l-6.62,2.41.42,1.15,5.07-1.85c1.14-.44,1.83-.72,2.08-.84.08.45.29,1.09.59,1.9l.77,2.1c.26.72.23,1.29-.13,1.69-.24.27-.76.54-1.58.84-.4.14-.97.33-1.59.5-.29-.66-.53-1.02-1.17-1.77.49-.1,1.09-.27,1.47-.4.49-.18.6-.32.49-.63l-.48-1.31-4.79,1.74.29.79c1.54.95,3.66,1.69,5.72,1.97,1.56.23,3.42.24,5.61.05-.5,1.19-.72,1.96-.8,2.81-1.85.01-3.77-.16-5.14-.46-.86-.19-1.5-.41-2.56-.79-.9-.36-1.21-.49-1.98-1,.25.62.42,1.01.64,1.62l.64,1.7c.49,1.28.63,1.6,1.04,2.27l-2.76,1c-.13-.8-.34-1.52-.67-2.43l-.62-1.63c-.11-.3-.31-.92-.52-1.58-.45,1.54-1.17,2.89-2.35,4.38-.88,1.09-1.96,2.25-3.08,3.24-.93-.75-1.21-.91-2.51-1.52,1.4-1.04,2.96-2.48,4.02-3.66.69-.81,1.31-1.7,1.91-2.76.52-.9.69-1.31,1.01-2.33l-.29-.79-4.37,1.59.72,1.96c.31.87.53,1.39.76,1.79l-2.52.92c-.11-.6-.32-1.23-.63-2.1l-.71-1.96c-.26-.72-.47-1.21-.76-1.79.55-.15,1.27-.38,1.99-.64l4.82-1.75-.42-1.15-6.13,2.23c-.94.34-1.67.66-2.34.99l-.84-2.31c.74-.16,1.43-.36,2.44-.73l6.13-2.23c-.25-.62-.36-.85-.54-1.18l1.5-.54c-.55-.28-1.04-.47-1.69-.65.17-.27.21-.37.34-.6-.57.18-.73.24-1.04.35l-1.29.47c.6.47.83.68,1.51,1.3l-1.99,1.44c-.76-.92-1.14-1.31-1.83-1.9l-1.19.43Z"/>
    <path class="cls-2" d="m77.65,151.06c.56,1.54-.23,3.23-1.77,3.79s-3.23-.23-3.79-1.77.23-3.23,1.77-3.79c1.54-.56,3.23.23,3.79,1.77Z"/>
    <path class="cls-2" d="m48.98,182.9c-1.5.76-1.89.93-2.79,1.25-.62.22-.83-.04-1.72-2.07.38-.14.6-.22.78-.28.97-.35,1.82-.74,2.86-1.28l-.18-.49c-.55-1.52-1.07-2.68-1.73-3.87,1.54-.46,2.17-.58,2.64-.59.22,0,.35.09.43.32.05.14.07.24.05.51-.02.51.19,1.39.75,2.98.6-.38,1.55-1.07,2.24-1.64.05-.04.09-.06.13-.07.16-.06.29,0,.39.15.27.43.73,1.32.86,1.67.07.19.03.39-.1.51-.2.2-1.52,1.08-2.7,1.8l1.1,3.02c1.69-1.49,3.08-2.42,4.39-2.9,2.54-.93,4.89.39,5.97,3.36.7,1.92.6,3.7-.27,4.94-.46.65-1.24,1.22-2.2,1.57-.99.36-1.84.56-2.12.48-.27-.06-.32-.12-.56-.67-.28-.64-.6-1.16-1.09-1.75.94.05,1.67-.05,2.44-.33,1.55-.56,2.08-1.82,1.48-3.48-.58-1.59-1.78-2.29-3.11-1.81-1.25.46-2.67,1.5-4.07,2.99q.03.09.39,1,.58,1.54.7,1.86c.17.41.33.83.4,1.04.69,1.89.41,3.03-.91,3.51-1.25.46-2.85.14-4.09-.79-.51-.4-.86-.88-1.09-1.51-.55-1.52.1-3.32,2.05-5.75l-1.34-3.69Zm2.28,6.27c-.85,1.24-1.14,1.95-.96,2.44.2.54,1.06.88,1.66.67.28-.1.3-.35.1-.89l-.81-2.22Zm9.16-9.34c-1.47-.89-3.25-1.44-4.74-1.45-.18-.01-.3-.08-.34-.19-.05-.14.01-.59.24-1.68.09-.43.1-.46.3-.53.21-.05,1.07-.02,1.69.07,1.5.22,3.66,1.08,3.82,1.52.15.42-.3,2.26-.6,2.36-.1.04-.2.02-.37-.1Z"/>
    <path class="cls-2" d="m78.83,167.85c.31.84.48,1.25.73,1.77-.49.13-.98.28-1.99.64l-12.18,4.43c-.95.35-1.56.59-1.96.79-.14-.58-.27-.99-.58-1.83l-.64-1.76c-.31-.86-.48-1.25-.77-1.86.56-.12,1.11-.3,2.18-.69l11.85-4.31c1.07-.39,1.6-.61,2.11-.87.16.63.29,1.06.61,1.92l.64,1.76Zm-11.96,2.5l-2.65.96.53,1.45,2.65-.96-.53-1.45Zm3.81,14.92c-.79.29-1.38.53-2.01.84-.17-.65-.43-1.43-.88-2.67l-1.88-5.17c-.4-1.1-.69-1.84-1-2.5.61-.17,1.04-.3,2.01-.65l9.68-3.52c1.11-.4,1.54-.59,2.08-.84.2.75.41,1.38.85,2.58l1.9,5.21c.45,1.24.77,2.05,1.01,2.54-.64.15-1.25.35-2.06.64l-1.41.51c1.67.4,3.67.31,6.1-.24-.19.84-.25,1.41-.23,2.57-1.82.32-2.75.37-4.17.25-1.36-.14-2.13-.28-3.43-.71l.73-1.51-5.35,1.95,1.59.67c-.64,1.16-1.09,1.77-1.97,2.68-1,1.03-1.73,1.61-3.06,2.46-.53-.71-1.01-1.11-1.9-1.64,2.28-1.33,3.75-2.61,4.51-3.87l-1.11.41Zm-2.56-7.35l9.48-3.45-.36-.99-9.48,3.45.36.99Zm.97,2.67l9.48-3.45-.35-.96-9.48,3.45.35.96Zm2.35-11.9l-2.65.96.53,1.45,2.65-.96-.53-1.45Zm-1.35,14.66l9.48-3.45-.38-1.05-9.48,3.45.38,1.05Zm6.65-14.94l-.53-1.45-2.84,1.04.53,1.45,2.84-1.04Z"/>
    <path class="cls-2" d="m82.8,167.25c-.25-.68-.6-1.58-.83-2.08.96-.22,1.69-.3,2.31-.26.55.04.76.12.86.38q.05.14.06.4c.03.89.27,1.81,1.05,3.93,1.09,2.99,1.93,4.81,2.85,6.09.7.99,1.38,1.46,1.92,1.26.81-.3,1.08-1.67.87-4.53.81,1.06,1.08,1.36,1.94,1.99.16.13.28.27.34.43.14.37.13,1.28-.02,2.1-.29,1.61-1.02,2.7-2.07,3.08-1.53.56-3.21-.47-4.97-3.09-1.14-1.7-2.22-3.99-3.41-7.26l-.89-2.46Zm11.96-3.93c.12-.04.24,0,.46.1,1.4.76,3.12,2.25,4.44,3.84.89,1.08,1.91,2.59,2.09,3.08.08.23.03.39-.3.8-.35.45-1.15,1.16-1.39,1.25-.18.07-.3-.02-.51-.42-.91-1.71-1.75-2.88-2.92-4.18-1.05-1.15-1.11-1.21-3.18-2.68.57-1.03,1.07-1.69,1.31-1.77Z"/>
    <path class="cls-2" d="m115.55,153.4c.79-.29,1.26-.49,1.56-.67q.18.75.91,2.87c2.62,7.63,3.63,11.15,3.68,12.88.04.91-.23,1.67-.73,2.09-.34.31-.92.63-1.5.84-.42.15-.99.31-1.92.54-.33-.91-.77-1.63-1.42-2.34,1.05-.09,1.89-.26,2.5-.49.76-.27.88-.87.52-2.52-.59-2.54-1.7-6.21-3.34-10.83l-.22.08c.8,3.87,1.06,6.37.91,8.88-.17,3.13-.82,5.46-2.45,8.67-.73-.66-1.21-.91-2.28-1.26,1.68-2.68,2.45-5.08,2.63-8.18.14-2.41-.04-4.56-.62-7.45l-.8.29c.65,4.69.17,8.31-1.53,11.68-.66-.71-1.16-1.03-2.12-1.43.77-1.15,1.08-1.85,1.42-3.08.58-2.06.69-4.04.4-6.5l-.87.32c-.09,1.86-.33,3.3-.85,4.78-.91-.65-1.39-.9-2.21-1.13.28-.66.39-.96.52-1.41q-.07,0-.29.08c-.13.02-.54.17-.78.26l-.46.17,1.53,4.21c.57-.53.8-.77,1.48-1.49l.84,2.24c-.73.77-.95.98-1.48,1.55l1.85,5.1c.35.96.66,1.69,1.06,2.53l-2.27.82c-.18-.81-.45-1.66-.8-2.62l-1.54-4.23c-.77.68-1.24,1.11-1.47,1.33-.43.37-.54.49-.84.84l-1.41-2.51c.84-.41,1.38-.79,2.86-2.05l-1.81-4.98-.95.35c.32,1.5.43,2.17.58,3.89-.81-.37-1.33-.5-2.17-.59,0-1.11-.08-1.82-.39-3.35-.2-.93-.62-2.5-.85-3.13-.12-.33-.3-.76-.46-1.08l2-.44c.49,1.65.52,1.74.68,2.35l.73-.27-.92-2.52c-.26-.73-.5-1.25-.82-1.82l2.27-.82c.11.62.27,1.12.56,1.91l.92,2.52.46-.17c.62-.22.91-.36,1.19-.57l.78,2.15c.22-1.06.31-2.23.31-3.42-.05-1.57-.2-2.84-.45-3.78l2.38-.34q.02.5.14,2.25c.02.18.03.33.05.94l5.29-1.92Z"/>
  </g>
  <g>
    <path class="cls-3" d="m44.38,114.12l-4.91-1.78-.18.49,4.9,1.78c.06-.16.12-.33.18-.49Z"/>
    <path class="cls-3" d="m48.03,107.97l-4-3.35-.34.4,4,3.35c.11-.13.22-.27.34-.4Z"/>
    <path class="cls-3" d="m67.48,101.16l.91-5.14-.52-.09-.9,5.14c.17.03.34.06.51.09Z"/>
    <path class="cls-3" d="m74.17,103.7l2.61-4.52-.45-.26-2.61,4.52c.15.09.3.17.45.26Z"/>
    <path class="cls-3" d="m60.33,101.07l-.91-5.14-.51.09.91,5.14c.17-.03.34-.06.51-.09Z"/>
    <path class="cls-3" d="m53.57,103.44l-2.61-4.52-.45.26,2.61,4.52c.15-.09.3-.18.45-.26Z"/>
  </g>
</svg>