<?xml version="1.0" encoding="UTF-8"?>
<svg id="TEXT" xmlns="http://www.w3.org/2000/svg" viewBox="0 0 145.08 228.15">
  <defs>
    <style>
      .cls-1 {
        letter-spacing: .05em;
      }

      .cls-2 {
        letter-spacing: .05em;
      }

      .cls-3 {
        fill: #f2f2f2;
      }

      .cls-4, .cls-5 {
        fill: #cbae62;
      }

      .cls-6 {
        fill: #231815;
      }

      .cls-7 {
        fill: none;
        stroke: #40210f;
        stroke-linecap: round;
        stroke-linejoin: round;
        stroke-width: 1.22px;
      }

      .cls-5 {
        font-family: ATC-30533076308a306a5736ff0b44494e-83pv-RKSJ-H, ATC-30533076308a306a5736ff0b44494e;
        font-size: 24.88px;
      }
    </style>
  </defs>
  <g>
    <path class="cls-3" d="m84.63,58.11l-13.72,4.99c-6.22-10.97-19.61-16.19-31.86-11.73s-19.15,17.06-16.86,29.47l-13.72,4.99c-6.67,2.43-10.11,9.8-7.68,16.47l43.2,117.38c2.43,6.67,9.8,10.11,16.47,7.68l76.17-27.72c6.67-2.43,10.11-9.8,7.68-16.47l-43.2-117.38c-2.43-6.67-9.8-10.11-16.47-7.68Zm-35.57,20.77c-3.51,1.28-7.39-.53-8.67-4.04-1.28-3.51.53-7.39,4.04-8.67s7.39.53,8.67,4.04c1.28,3.51-.53,7.39-4.04,8.67Z"/>
    <path class="cls-4" d="m49.9,81.18c-4.77,1.74-10.07-.73-11.8-5.5s.73-10.07,5.5-11.8,10.06.73,11.8,5.5-.73,10.06-5.5,11.8Zm-4.63-12.71c-2.24.81-3.4,3.3-2.58,5.54s3.3,3.4,5.54,2.58,3.39-3.3,2.58-5.54-3.3-3.4-5.54-2.58Z"/>
    <g>
      <path class="cls-7" d="m46.35,71.42c-.61-.54-1.1-1.02-1.95-1.89"/>
      <path class="cls-7" d="m32.63,54.27C18.69,36.14,2.43,8.01,20.83,1.31c20.71-7.54,30.71,47.58,25.52,70.11"/>
    </g>
  </g>
  <text class="cls-5" transform="translate(42.51 177.82) rotate(-20)"><tspan class="cls-2" x="0" y="0">お</tspan><tspan class="cls-1" x="26.12" y="0">土</tspan><tspan class="cls-2" x="52.25" y="0">産</tspan></text>
  <g>
    <path class="cls-6" d="m52.78,139.11l-4.91-1.78-.18.49,4.9,1.78c.06-.16.12-.33.18-.49Z"/>
    <path class="cls-6" d="m56.43,132.95l-4-3.35-.34.4,4,3.35c.11-.13.22-.27.34-.4Z"/>
    <path class="cls-6" d="m75.89,126.15l.91-5.14-.52-.09-.9,5.14c.17.03.34.06.51.09Z"/>
    <path class="cls-6" d="m82.58,128.68l2.61-4.52-.45-.26-2.61,4.52c.15.09.3.17.45.26Z"/>
    <path class="cls-6" d="m68.73,126.06l-.91-5.14-.51.09.91,5.14c.17-.03.34-.06.51-.09Z"/>
    <path class="cls-6" d="m61.97,128.42l-2.61-4.52-.45.26,2.61,4.52c.15-.09.3-.18.45-.26Z"/>
  </g>
</svg>