<?xml version="1.0" encoding="UTF-8"?>
<svg xmlns="http://www.w3.org/2000/svg" viewBox="0 0 1920 1246.2">
  <defs>
    <style>
      .cls-1, .cls-2, .cls-3 {
        fill: none;
      }

      .cls-1, .cls-4, .cls-5, .cls-6, .cls-7, .cls-8, .cls-9, .cls-10, .cls-11, .cls-12, .cls-13, .cls-14, .cls-15, .cls-16, .cls-17, .cls-18, .cls-19, .cls-20, .cls-21, .cls-22, .cls-23, .cls-3 {
        opacity: .8;
      }

      .cls-2 {
        isolation: isolate;
      }

      .cls-24 {
        fill: #f6f1bc;
      }

      .cls-25 {
        fill: #f9e697;
      }

      .cls-26 {
        fill: #ffee8c;
      }

      .cls-27 {
        fill: #fff080;
      }

      .cls-28 {
        fill: #ffeb41;
      }

      .cls-29 {
        fill: #fff2a4;
      }

      .cls-30 {
        fill: #ffec56;
      }

      .cls-31 {
        fill: #ffeb61;
      }

      .cls-32 {
        fill: #ffeb74;
      }

      .cls-33 {
        fill: #fae7c0;
      }

      .cls-34 {
        fill: #faecb5;
      }

      .cls-35 {
        fill: #faf0b2;
      }

      .cls-36 {
        fill: #fcdf73;
      }

      .cls-37 {
        fill: #fde76b;
      }

      .cls-38 {
        fill: #fdf4af;
      }

      .cls-39 {
        fill: #fdf09c;
      }

      .cls-40 {
        fill: #fdeb84;
      }

      .cls-4 {
        fill: #f2a6b6;
      }

      .cls-4, .cls-5, .cls-6, .cls-7, .cls-8, .cls-9, .cls-10, .cls-11, .cls-12, .cls-13, .cls-14, .cls-15, .cls-16, .cls-17, .cls-18, .cls-19, .cls-20, .cls-21, .cls-22, .cls-23, .cls-41, .cls-42, .cls-43, .cls-44, .cls-45, .cls-46, .cls-47, .cls-48, .cls-49, .cls-50, .cls-51 {
        fill-rule: evenodd;
      }

      .cls-5 {
        fill: #f5b9ab;
      }

      .cls-6 {
        fill: #f6c0b2;
      }

      .cls-7 {
        fill: #f5bfc6;
      }

      .cls-8 {
        fill: #f2a7be;
      }

      .cls-9, .cls-42 {
        fill: #f8ca8f;
      }

      .cls-10, .cls-41 {
        fill: #f8ca99;
      }

      .cls-11 {
        fill: #f3b1b6;
      }

      .cls-12 {
        fill: #f3afc0;
      }

      .cls-13 {
        fill: #f3aec6;
      }

      .cls-14, .cls-45 {
        fill: #f7c5a4;
      }

      .cls-15, .cls-44 {
        fill: #f7d184;
      }

      .cls-16 {
        fill: #f9d794;
      }

      .cls-17, .cls-48 {
        fill: #f8d08a;
      }

      .cls-18, .cls-49 {
        fill: #f8d192;
      }

      .cls-19 {
        fill: #f4b7c1;
      }

      .cls-20 {
        fill: #f4b7c8;
      }

      .cls-21 {
        fill: #f9cf9a;
      }

      .cls-22, .cls-50 {
        fill: #f9d68c;
      }

      .cls-23, .cls-51 {
        fill: #f9d690;
      }

      .cls-3 {
        mix-blend-mode: multiply;
      }

      .cls-43 {
        fill: #f8d994;
      }

      .cls-46 {
        fill: #f9da99;
      }

      .cls-47 {
        fill: #f8dd9d;
      }
    </style>
  </defs>
  <g class="cls-2">
    <g id="_レイヤー_16" data-name="レイヤー 16">
      <g class="cls-1">
        <path class="cls-44" d="m1885.36,92.5c10.19,17.69,31.96,37.4,30.35,53-24.53-14.86-28.53-6.31-53.9-9.5-2.86-17.68,38.23-8.21,17.65-32.62-1.46-4.23.13-7.91,5.91-10.88Z"/>
        <path class="cls-51" d="m1859.56,103.85c3.2,4.54.1,7.96,1.79,12.21-2.79,3.48-8.82,6.4-5.87,10.89-11.15,10.69-16.06-13.91-26.26-8.59-3.19-4.55-6.35-9.07-9.52-13.6,15.33-11.94,25.6,4.85,39.87-.91Z"/>
        <path class="cls-50" d="m1775.29,176.31c25.46,8.64,34.81,22,42.61,51.19-9.04,6.23-14.42-8.34-24.47,3.61-1.04-1.49-2.11-3.01-3.17-4.52-20.59-17.71,5.12-29.66-19.03-27.18-3.17-4.52-6.33-9.05-9.52-13.6,3.03-2.12,6.04-4.23,9.07-6.35,1.5-1.05,3.02-2.11,4.51-3.16Z"/>
        <path class="cls-48" d="m1754.46,136.91c-8.8,11.7,4.93,27.34,16.32,42.56-3.03,2.12-6.04,4.23-9.07,6.35-9.49-13.56-19.01-27.15-28.52-40.73,7.12-2.86,13.17.37,21.28-8.18Z"/>
        <path class="cls-51" d="m1929.77,155.92c2.8,16.38-14.07,29.28-8.15,46.21-8.74,4.47-15.78-.57-21.75-11.78-12.97-11.56-1.51-18.81-14.49-30.35-13.74,17.92-3.41,31.25,11.77,45.74-1.52,1.06-3.01,2.11-4.52,3.17-3.15-4.53-7.42-2.79-10.86-5.88,5.16-6.61-3.26-3.67-6.34-9.06-2.84,8.77-13.86,16.09-8.62,26.28-13.65,2.34-26.06-2.21-37.14-14.5,10.48-6.07,11.82-13.79,4.06-23.11-13.12-10.58-12.68,12.92-22.64,15.85,25.19.66,16.95,24.95.93,39.87-7.93-11.72-7.24-3.15-12.24,1.83-2.12-3.03-4.23-6.04-6.35-9.07,10.05-11.95,15.43,2.62,24.47-3.61-7.8-29.2-17.15-42.55-42.61-51.19,1.52-1.06,3.02-2.11,4.54-3.18,4.95,1.97,9.87,4.05,14.04,10.43,7.9-5.23,9.4-11.58,7.26-18.57,8.76-4.05,5.13,19.84,23.1,4.09-16.96-.04-8.43-5.28-21.75-11.81,9.58-13.31-15.03-7.45-8.17-21.26,8.76-4.49,15.8.57,21.74,11.76,32.23,18.73,21.69,31.29,39.87,66.57,5.62-27.82,27.87-41.98-10.86-73.36,19.73.58,41.81,30.97,55.27,1.8,4.23,6.04,8.46,12.08,12.69,18.12-17.72,4.93-14.82,6.02-11.79,21.72,3.16,4.57,7.44,2.84,10.88,5.91-3.48-21.37,8.82-17,17.67-32.61Z"/>
        <path class="cls-50" d="m1885.36,92.5c16.89,11.35,53.47,40.2,44.4,63.42-8.85,15.62-21.15,11.24-17.67,32.61-3.43-3.07-7.72-1.34-10.88-5.91-3.03-15.7-5.93-16.79,11.79-21.72-4.23-6.04-8.46-12.08-12.69-18.12-13.46,29.17-35.54-1.23-55.27-1.8,38.73,31.39,16.48,45.54,10.86,73.36-18.18-35.29-7.64-47.84-39.87-66.57,1.52-1.06,3.02-2.11,4.54-3.18,9.56,5.95,19.19,11.3,28.09,20.84,7.96-4.38-11.61-36.03-20.37-19.46-2.34-8.35-1.31-16.11-3.62-24.45,1.5-1.05,3.02-2.11,4.52-3.17,10.2-5.32,15.11,19.28,26.26,8.59-2.95-4.5,3.08-7.41,5.87-10.89,6.04-4.23,12.08-8.46,18.11-12.68,20.58,24.41-20.51,14.93-17.65,32.62,25.37,3.19,29.37-5.36,53.9,9.5,1.61-15.6-20.16-35.31-30.35-53Z"/>
        <path class="cls-49" d="m1860.44,76.23c-4.74,10.1-18.8,24.82-.88,27.62-14.26,5.76-24.54-11.03-39.87.91-2.12-3.03-4.23-6.04-6.35-9.07-14.83,9.03-7.73,42.19-28.55,26.73-3.17-4.52-6.32-9.03-9.49-13.56,17.93-14.38,21.82-6.41,31.71-22.21,19.36,5.65,26.43-19.12,50.24-14.98,1.06,1.52,2.12,3.03,3.19,4.55Z"/>
        <path class="cls-48" d="m1819.69,104.76c3.17,4.52,6.33,9.05,9.52,13.6-1.5,1.05-3.02,2.11-4.52,3.17-4.23-6.04-8.48-12.11-12.71-18.15-8.96,6.37,2.9,16.41-11.78,21.77,5.79,12.2,15.19,4.05,20.38,19.45-1.52,1.06-3.02,2.11-4.54,3.18-5.93-11.19-12.98-16.25-21.74-11.76-3.83-8.22-9.73-4.81-14.03-10.44,1.5-1.05,3.02-2.11,4.51-3.16,20.82,15.46,13.72-17.7,28.55-26.73,2.12,3.03,4.23,6.04,6.35,9.07Z"/>
        <path class="cls-43" d="m1799.78,240.2c5-4.98,4.31-13.55,12.24-1.83,16.02-14.92,24.25-39.21-.93-39.87,9.96-2.93,9.52-26.43,22.64-15.85,7.76,9.32,6.42,17.04-4.06,23.11,11.08,12.29,23.49,16.84,37.14,14.5-5.23-10.19,5.78-17.51,8.62-26.28,3.08,5.4,11.51,2.45,6.34,9.06-11.23,8.62-10.05,19.39-13.14,29.46-12.59,3.9-23.1-4.17-33.97-9.98-9.24,10.56-16.6,41.82-34.88,17.68Z"/>
        <path class="cls-50" d="m1802.48,157.27c13.32,6.53,4.79,11.77,21.75,11.81-17.97,15.76-14.34-8.14-23.1-4.09,2.14,6.99.63,13.34-7.26,18.57-4.17-6.38-9.09-8.46-14.04-10.43,4.8-4.45-1.94-10.93-4.97-16.72,4.54-3.18,9.07-6.35,13.6-9.52,4.09,6.69,8.22,13.32,14.03,10.38Z"/>
        <path class="cls-42" d="m1814.25,68.07c15.73-6.67,31.11-11.21,43.01,3.61-23.81-4.14-30.88,20.63-50.24,14.98-1.94-6.99-.72-13.37,7.23-18.58Z"/>
        <path class="cls-43" d="m1899.87,190.35c-8.2,6.49,7.35,17.16-4.06,23.11-2.51,1.76-7.71-.08-3.19-4.55,1.52-1.06,3.01-2.11,4.52-3.17-15.18-14.49-25.51-27.82-11.77-45.74,12.98,11.55,1.53,18.8,14.49,30.35Z"/>
        <path class="cls-46" d="m1899.87,190.35c5.96,11.21,13.01,16.25,21.75,11.78.69,9.37,3.26,19.09-8.61,26.27-1.52,1.06-3.01,2.11-4.52,3.17-5.12-8.53-12.24-5.68-17.2-14.94-9.11,10.24-18.41,24.93-36.24,25.37-13.04,6.95,22.01,22.4-.92,27.63-26.76,16.69-46.51-6.23-69.3-12.22,22.97-14.65-14.6-21.42,5.43-30.81,1.06,1.52,2.12,3.03,3.17,4.52,2.12,3.03,4.23,6.04,6.35,9.07,18.29,24.13,25.64-7.13,34.88-17.68,10.87,5.81,21.38,13.88,33.97,9.98,3.08-10.07,1.9-20.84,13.14-29.46,3.43,3.09,7.7,1.35,10.86,5.88-4.52,4.47.67,6.31,3.19,4.55,11.42-5.95-4.14-16.61,4.06-23.11Z"/>
        <path class="cls-44" d="m1824.69,121.52c2.31,8.34,1.28,16.1,3.62,24.45,8.76-16.56,28.32,15.08,20.37,19.46-8.9-9.53-18.53-14.88-28.09-20.84-5.19-15.4-14.59-7.25-20.38-19.45,14.68-5.36,2.82-15.4,11.78-21.77,4.23,6.04,8.48,12.11,12.71,18.15Z"/>
        <path class="cls-47" d="m1913.01,228.4c-11.73,21.18-35.12,39.94-58.88,41.23,22.93-5.23-12.12-20.68.92-27.63,17.83-.45,27.13-15.13,36.24-25.37,4.96,9.26,12.08,6.41,17.2,14.94,1.52-1.06,3.01-2.11,4.52-3.17Z"/>
        <path class="cls-51" d="m1757.18,188.99c1.5-1.05,3.02-2.11,4.52-3.17,3.19,4.55,6.35,9.07,9.52,13.6-25.32-4.79,16.07,42.85-14.49,37.13-1.04-1.49-2.11-3.01-3.17-4.52,18.08-8.69,4.38-23.01-5.45-36.69,3.02-2.11,6.04-4.23,9.06-6.34Z"/>
        <path class="cls-41" d="m1814.25,68.07c-7.95,5.21-9.17,11.6-7.23,18.58-9.9,15.79-13.79,7.83-31.71,22.21-13.07,6.5-26.48,15.05-38.05,13.12-4.72-35.12,51.44-45.45,77-53.92Z"/>
        <path class="cls-49" d="m1780.28,125.57c4.3,5.63,10.2,2.22,14.03,10.44-6.86,13.81,17.74,7.96,8.17,21.26-5.81,2.94-9.94-3.69-14.03-10.38-4.52,3.17-9.06,6.34-13.6,9.52,3.02,5.79,9.76,12.27,4.97,16.72-1.52,1.06-3.02,2.11-4.54,3.18s-3.01,2.11-4.51,3.16c-11.39-15.22-25.12-30.86-16.32-42.56,7.56-5.29,15.1-10.57,22.66-15.86,1.06,1.52,2.12,3.03,3.17,4.52Z"/>
        <path class="cls-42" d="m1733.18,145.09c-6.41-6.44-1.2-10.82-4.98-16.77,3.02-2.11,6.04-4.23,9.05-6.33,11.58,1.93,24.98-6.63,38.05-13.12,3.17,4.52,6.33,9.03,9.49,13.56-1.49,1.04-3.01,2.11-4.51,3.16-1.04-1.49-2.11-3.01-3.17-4.52-7.56,5.29-15.1,10.57-22.66,15.86-8.11,8.55-14.16,5.32-21.28,8.18Z"/>
        <path class="cls-42" d="m1748.12,195.34c-4.26,1.73-7.69-1.36-12.21,1.81-8.54-8.1-5.29-14.16-8.17-21.26,10.85-1.43,21.64-2.59,29.44,13.11-3.02,2.11-6.04,4.23-9.06,6.34Z"/>
        <path class="cls-50" d="m1735.91,197.15c4.52-3.17,7.95-.08,12.21-1.81,9.83,13.67,23.53,27.99,5.45,36.69-3.88-11.26-26.43-25.82-17.66-34.88Z"/>
        <path class="cls-43" d="m1756.74,236.55c30.56,5.73-10.83-41.92,14.49-37.13,24.16-2.48-1.55,9.47,19.03,27.18-20.03,9.39,17.53,16.15-5.43,30.81-8.09-14.08-19.97-6.75-28.09-20.86Z"/>
        <path class="cls-48" d="m1860.44,76.23c9.43-.86,17.74,4.57,24.92,16.28-5.77,2.97-7.36,6.64-5.91,10.88-6.03,4.22-12.07,8.45-18.11,12.68-1.69-4.25,1.41-7.67-1.79-12.21-17.92-2.8-3.86-17.52.88-27.62Z"/>
        <path class="cls-45" d="m1733.18,145.09c9.51,13.58,19.03,27.18,28.52,40.73-1.5,1.05-3.02,2.11-4.52,3.17-7.8-15.69-18.59-14.54-29.44-13.11-9.39-17.55-6.03-32.82.46-47.57,3.79,5.95-1.43,10.34,4.98,16.77Z"/>
      </g>
      <g class="cls-3">
        <path class="cls-11" d="m1700.94,12.11c2.02.47,2.47-3.34,5.14-1.08-.59,1.27-1.18,2.54-1.78,3.81-.6,1.26-2.08.09-2.8,1.02-.95-.45-1.5.24-2.35.07.59-1.27,1.18-2.54,1.78-3.81Z"/>
        <path class="cls-9" d="m1689.96,5.83c.64.56.74,1.32.07,2.35.41,1.12-1.72,6.3-4.57,4.83,2.17-.72,2.52-3.57,1.27-5.21.44-.96,1.3-.78,1.84-1.46.61.22,1.19.38,1.4-.51Z"/>
        <path class="cls-6" d="m1697.14,10.34c2.63-.71,1.17.65,3.81,1.78-.59,1.27-1.18,2.54-1.78,3.81l-.44.95c-2.63.7-1.17-.66-3.81-1.78.74-1.59,1.48-3.18,2.22-4.76Z"/>
        <path class="cls-18" d="m1686.72,7.8c1.25,1.63.9,4.48-1.27,5.21-.65,1.29-.53,2.3-.38,3.3-1.62-.81-2.78-.41-3.75.57-1.93-3.23,4.11-7.02.26-8,1.17-1.84,3.96.75,5.14-1.08Z"/>
        <path class="cls-11" d="m1710.98,35.35l2.86,1.33c-.45.96-1.3.77-1.84,1.46-.78,4-10.76,2.22-9.46-2.09.56.32,1.06.67.51,1.4.52.25,1.44-.27.44-.95.55-.65,1.31-.74,2.35-.06,1.15,2.47,1.25.48,3.81,1.78l1.33-2.86Z"/>
        <path class="cls-12" d="m1692.76,39.61c1.99-4.24,1.69,3.44,2.48,4.63-1.46,2.11.78,2.88-1.27,5.21-1.26-1.85.08-6.37-3.43-5.08.3-.63.59-1.27.89-1.91.44-.95.89-1.9,1.33-2.86Z"/>
        <path class="cls-18" d="m1668.57,31.8c-1.44-1.15.77-1.13,1.33-2.86,1.06.66,1.37,2.7,2.86,1.33l1.9.89c-1.46,2.11.78,2.88-1.26,5.21-1.52-.97-2.86-.03-.44.95.57,1.63-.5,3.87-1.71,6.16-.69-.54-.51-1.4-1.46-1.84-1.19-.62-.75-1.83-2.41-2.28,1.88-1.94,4.35-5.5,1.2-7.56Z"/>
        <path class="cls-9" d="m1672.95,37.33l.95.44c1.04,1.47-.05,3.71-.31,5.65-.46.91-1.52.19-2.35.06,1.22-2.29,2.28-4.52,1.71-6.16Z"/>
        <path class="cls-21" d="m1676.82,41.45c-.65,1.29-.53,2.3-.38,3.3-1.19-.37-1.61,1.36-2.28,2.41l-4.76-2.22c.51-1.24-.6-1.89.38-3.3.96.44.78,1.3,1.46,1.84.84.13,1.89.85,2.35-.06,1.19.36,1.73-1.03,2.28-2.41l.95.44Z"/>
        <path class="cls-5" d="m1681.15,44.62c2.16,1.69,2.86,5.98,5.78,5.02-.66,1.29-.53,2.3-.38,3.3-1.91-.89-3.81-1.78-5.72-2.67-.62-1.95-3.24-4.43.32-5.65Z"/>
        <path class="cls-10" d="m1676.44,44.75c2.87.54.93,2.83,1.53,4.19-1.27-.59-2.54-1.18-3.81-1.78.67-1.05,1.1-2.78,2.28-2.41Z"/>
        <path class="cls-5" d="m1707.42,8.17c-.3.64-.59,1.27-.89,1.91l-.44.95c-2.67-2.26-3.13,1.55-5.14,1.08-2.64-1.13-1.18-2.48-3.81-1.78,1.54-.82,2.55-3.13,4.63-2.48,2.05,1.28,3.69,1.44,4.7-.13l.95.44Z"/>
        <path class="cls-5" d="m1689.96,23.22c.72-3.54,3.58-5.33,4.95-8.12,2.64,1.12,1.18,2.48,3.81,1.78-1.33,1.8-.52,2.82-.82,4.25-.73-.55-1.07-.05-1.39.51-1.63-.6-4.62,5.81-3.11,6.67-1.23.98-2.86.83-4.7.13.68-2.48,2.7-1.26,3.17-4.32l-1.91-.89Z"/>
        <path class="cls-6" d="m1689.96,23.22l1.91.89c-.47,3.06-2.5,1.84-3.17,4.32,1.83.69,3.47.85,4.7-.13.64.56,1.86.9,1.46,1.84-4.29-1.92-2.23,1.61-4.63,2.47l-.89,1.91c-2.79.28-6.09-.81-7.42,3.5.52,1.92,2.96,3.14,3.43,5.08,1.84,1.7,1.52,4.2,1.6,6.54-2.92.96-3.61-3.33-5.78-5.02-2.37-7.84,5.1-12.69,8.81-21.4Z"/>
        <path class="cls-10" d="m1673.9,37.77c3.68-6.64,3.63-10.19,9.08-12-.19,3.84-7.99,10.89-6.16,15.68l-.95-.44c-.55,1.39-1.1,2.77-2.28,2.41.26-1.94,1.35-4.19.31-5.65Z"/>
        <path class="cls-18" d="m1698.27.43c.63.29,1.27.59,1.9.89-.73,2.34-3.24-.22-4.19,1.53-1.52-3.93-5.08-1.19-6.03,2.99-.2.89-.79.73-1.4.51-4.49-2.7,2.92-5.61-2.54-6.98,3.97.04,7.55-.97,12.25,1.07Z"/>
        <path class="cls-13" d="m1708.12,16.62c1.54.26,2.14-.39,2.86,1.33.96.44.77,1.3,1.45,1.84-2.63.98-1.22,2.34-2.22,4.76l-2.85-1.33c3.65-2.17-1.34-.7-2.93-3.68.46-.91,1.52-.19,2.35-.06l1.33-2.86Z"/>
        <path class="cls-8" d="m1713.76,16.93l-.89,1.91c-1.11-.4-.83-2.07-1.9-.89-.72-1.73-1.32-1.07-2.86-1.33-1.41-.98-2.06.14-3.3-.38l.44-.95c1.04-.02,2.1-.04,2.8-1.02,1.14-2,.64-3.39-1.52-4.19.3-.64.59-1.27.89-1.91l.89-1.91.89-1.9c5.57,2.71,4.25,7.94,4.57,12.56Z"/>
        <path class="cls-17" d="m1686.02-.64c5.45,1.37-1.95,4.28,2.54,6.98-.54.68-1.4.5-1.84,1.46-1.18,1.84-3.97-.76-5.14,1.08,3.85.98-2.18,4.76-.26,8-2.5,3.76-3.05-.57-5.58,2.03-.72-1.73-1.32-1.07-2.86-1.33,2.53-1.01,3.63-5.97,5.4-9.08-.29-1.48-.07-3.14,1.26-5.21,2.68,5.71,9.5-2.3,4.13-3.87.46-.91,1.51-.2,2.35-.06Z"/>
        <path class="cls-23" d="m1672.88,17.58c1.53.27,2.14-.4,2.86,1.33l.96.45c-1.14.5-2.03,1.67-2.73,3.36-1.16-.9.32-2.76.83-4.25-1,.15-2.01.27-3.3-.38-1.84,2.79,1.39,3.71.64,6.09-1.82-1.18-.67-3.45-2.48-4.63-2.97.37-1.45,5.74.2,7.05-.68,1.03-.58,1.79.06,2.35-.56,1.73-2.78,1.71-1.33,2.86-3.15.75-.46,6.92-5.52,4.38.29-.63.59-1.27.89-1.9,1.21-.25,1.47-4.75,4.57-4.82.28-3.77-6.29-4.4-5.78-5.01-1.49-2.84,3.18-7.05,4.95-8.13,2.07,1.33,3.72,1.55,5.2,1.27Z"/>
        <path class="cls-19" d="m1701.51,15.86c.72-.92,2.19.24,2.8-1.02l.95.44-.44.95c-1.19-.37-1.61,1.36-2.28,2.42-.3,1.16.36,1.97,1.01,2.79-.59,1.26-2.07.1-2.79,1.02-1.43-.3-2.45.51-4.25-.83.33-.55.67-1.06,1.39-.51.64.3,1.27.59,1.91.89,1.06-2.24-.34-3.57,1.71-6.16Z"/>
        <path class="cls-13" d="m1713.65,29.63c1.46-2.38-.84-3.38-2.48-4.63.97-2.41,2-4.66,3.62-5.27,3.39,2.72,4.12,6.41,1.72,11.24-1.24-.52-1.89.61-3.3-.38l.44-.95Zm.69-8.95c-.59,1.27-1.18,2.54-1.78,3.81,2.92.11,1.43,5.66,4.31,3.17-1.08-2.24-.52-5.08-2.54-6.98Z"/>
        <path class="cls-20" d="m1710.98,17.95c1.07-1.18.79.49,1.9.89l.89-1.91c.66.82,1.32,1.63,1.02,2.79-1.62.61-2.65,2.86-3.62,5.27,1.63,1.25,3.94,2.26,2.48,4.63-.84-.13-1.48.28-1.84,1.46-3.84-.98-.82-4.45-1.59-6.54,1-2.42-.41-3.78,2.22-4.76-.68-.54-.5-1.4-1.45-1.84Z"/>
        <path class="cls-12" d="m1704.43,19.54c1.58,2.98,6.58,1.52,2.93,3.68l2.85,1.33c.77,2.09-2.24,5.56,1.59,6.54.36-1.18,1-1.6,1.84-1.46l-.44.95c1.41.98,2.06-.14,3.3.38-2.31,2.95-.29,4.32-2.16,7.11-.96-.45-1.49.24-2.35.06.54-.69,1.4-.5,1.84-1.46l-2.86-1.33c.54-.69,1.4-.5,1.84-1.46-2.05-1.28-3.69-1.44-4.7.13-2.51-1.82,2.15-.8,2.28-2.41-1.71.36-3.6.23-5.14,1.08-1.15.46-2.87-.65-3.75.57-2.73-6.27-2.22.56-6.09.64.6-3.18,3.5-5.09,5.33-11.43.71-.92,2.2.24,2.79-1.02-.65-.82-1.31-1.63-1.01-2.79l1.9.89Z"/>
        <path class="cls-19" d="m1705.27,32.68c1.54-.85,3.43-.72,5.14-1.08-.13,1.61-4.79.59-2.28,2.41,1.01-1.57,2.65-1.41,4.7-.13-.44.96-1.3.77-1.84,1.46l-1.33,2.86c-2.56-1.3-2.66.69-3.81-1.78.81-1.61.44-2.8-.57-3.75Z"/>
        <path class="cls-9" d="m1684.69,19.61c-6.16-3.04-3.02,6.05-8.32,5.4-1.95-2.01,4.85-3.71.32-5.65l-.96-.45c2.54-2.6,3.08,1.73,5.58-2.03.96-.98,2.13-1.39,3.75-.57-.98,1.41.14,2.06-.38,3.31Z"/>
        <path class="cls-5" d="m1685.33,43.1c-.46-1.94-2.9-3.16-3.43-5.08,1.34-4.3,4.63-3.22,7.42-3.5-.4,1.12-2.07.84-.89,1.91-.2.89-.79.73-1.39.51-4.22-.81-1.64,3.92-1.71,6.16Z"/>
        <path class="cls-16" d="m1672.12,24.18c.75-2.38-2.48-3.31-.64-6.09,1.29.65,2.3.53,3.3.38-.5,1.5-1.98,3.35-.83,4.25.53.86,1.08,1.71,2.41,2.29-.45.92-1.51.2-2.34.06-1.34,2.07-1.56,3.73-1.27,5.21-1.49,1.37-1.8-.67-2.86-1.33-.64-.56-.74-1.32-.06-2.35,2.22.39,2.71-.55,2.28-2.42Z"/>
        <path class="cls-19" d="m1701.52,33.25c.03,1.05.04,2.1,1.02,2.8-1.3,4.31,8.67,6.09,9.46,2.09.86.18,1.4-.51,2.35-.06.69.54.5,1.4,1.46,1.84-.54.69-1.4.51-1.85,1.46-4.15-2.71-5.46,2.38-8.38,3.05.41-1.3-5.24-3.94-2.86-1.33-3.8-.62-4.67-4.86-9.58-6.79.62-1.19,1.83-.75,2.28-2.41,3.88-.08,3.36-6.91,6.09-.64Z"/>
        <path class="cls-11" d="m1694.85,30.14c.41-.94-.82-1.28-1.46-1.84-1.51-.86,1.48-7.27,3.11-6.67,1.8,1.33,2.82.53,4.25.83-1.83,6.35-4.73,8.25-5.33,11.43-.45,1.66-1.67,1.22-2.28,2.41,4.92,1.93,5.78,6.17,9.58,6.79-2.38-2.6,3.27.03,2.86,1.33l-.44.95-1.91-.89c-.21,2.26,1.05,5.22,3.87,4.12-.74,2.3-1.9,3.48-3.68,2.93-4.06,1.55-.54-3.16-3.88-4.13-3.58,1.4-1.58,8.15-6.03,2.98,3.28.35,5.07-4.6,1.71-6.16-.79-1.19-.49-8.87-2.48-4.63-.98-.96-1.39-2.13-.57-3.75-1.15.47-2.87-.65-3.75.57-1.18-1.07.49-.79.89-1.91l.89-1.91c.53.86,1.08,1.71,2.41,2.29,1.98-2.77-.41-3.78,2.22-4.76Zm5.59,15.36c.74-2.41-6.37-7.98-4.76-2.22,1.09,3.9,4.17,4.15,4.76,2.22Z"/>
        <path class="cls-4" d="m1705.27,32.68c1.01.95,1.38,2.14.57,3.75-1.03-.67-1.79-.58-2.35.06.99.68.08,1.2-.44.95.55-.73.05-1.07-.51-1.4-.97-.7-.99-1.75-1.02-2.8.88-1.22,2.6-.11,3.75-.57Z"/>
        <path class="cls-7" d="m1688.44,36.43c.88-1.22,2.6-.11,3.75-.57-.81,1.62-.4,2.79.57,3.75-.44.95-.89,1.9-1.33,2.86.32-2.49-7-2.2-4.39-5.52.61.22,1.2.38,1.39-.51Z"/>
        <path class="cls-19" d="m1690.22,32.62c2.41-.86.35-4.4,4.63-2.47-2.63.98-.24,1.99-2.22,4.76-1.33-.57-1.88-1.42-2.41-2.29Z"/>
        <path class="cls-22" d="m1662.73,24.44c-.51.62,6.06,1.25,5.78,5.01-3.1.07-3.36,4.57-4.57,4.82-2.43-2.54-.86-6.54-1.21-9.84Z"/>
        <path class="cls-7" d="m1705.59,44.43c2.92-.67,4.23-5.76,8.38-3.05-1.28,3-2.89,5.08-5.01,5.78,2.23-7.34-6.65,3.9-3.81-1.78l.44-.95Z"/>
        <path class="cls-19" d="m1705.14,45.38c-2.84,5.67,6.04-5.56,3.81,1.78-.36,1.18-1,1.6-1.84,1.46-2.82,1.1-4.08-1.86-3.87-4.12l1.91.89Z"/>
        <path class="cls-19" d="m1693.52,50.39c4.44,5.17,2.45-1.58,6.03-2.98,3.34.97-.18,5.68,3.88,4.13-3.12,2.31-6.99,2.54-10.73,3.11l.44-.95c-.15-1-.27-2.01.38-3.31Z"/>
        <path class="cls-4" d="m1695.24,44.24c3.36,1.56,1.57,6.51-1.71,6.16-.65,1.3-.53,2.3-.38,3.31-1.57-1.01-1.41-2.65-.13-4.7-2.38-1.46-3.38.84-4.63,2.47,2.22-4.76-1.21-7.47-1.72-11.24,3.41.6,3.23,2.52,3.88,4.13,3.5-1.29,2.16,3.23,3.43,5.08,2.05-2.32-.19-3.1,1.27-5.21Z"/>
        <path class="cls-4" d="m1695.68,43.28c-1.61-5.76,5.5-.19,4.76,2.22-.59,1.93-3.67,1.68-4.76-2.22Z"/>
        <path class="cls-16" d="m1663.05,36.18c5.06,2.55,2.37-3.62,5.52-4.38,3.15,2.06.68,5.61-1.2,7.56,1.66.45,1.22,1.67,2.41,2.28-.98,1.41.14,2.06-.38,3.3l-.44.95c-3.34-2.74-5.3-5.98-5.91-9.72Z"/>
        <path class="cls-14" d="m1702.53,1.26c1.54-1.76,6.28,1.84,6.67,3.11l-.89,1.9c-2.34.08-4.84-.25-6.54,1.59-2.08-.65-3.09,1.66-4.63,2.48-.74,1.59-1.48,3.18-2.22,4.76-1.37,2.79-4.24,4.59-4.95,8.12-3.71,8.7-11.18,13.56-8.81,21.4-3.56,1.22-.94,3.7-.32,5.65-.95-.44-1.9-.89-2.86-1.33-.6-1.36,1.34-3.65-1.53-4.19-.15-1-.27-2.01.38-3.3-1.83-4.79,5.97-11.84,6.16-15.68.76-3.66,3.65-3.19,2.67-5.72,3.57-3.45,7.58-6.47,7.23-10.55.59-1.27,1.18-2.54,1.78-3.81,1.05-.03,2.1-.04,2.8-1.02,2.57.55,4.52-.61,6.54-1.59.14-.84-.28-1.48-1.46-1.83Z"/>
        <path class="cls-6" d="m1708.31,6.27l-.89,1.91-.95-.44c-1.02,1.57-2.66,1.4-4.7.13,1.71-1.84,4.2-1.51,6.54-1.59Z"/>
        <path class="cls-15" d="m1674.46,6.72c2.21-4.8,5.44-6.8,9.21-7.3,5.37,1.58-1.45,9.58-4.13,3.87-1.33,2.07-1.55,3.73-1.26,5.21-1.04-.67-1.8-.58-2.35.06-1.17-.36-1.59-1-1.46-1.84Z"/>
        <path class="cls-4" d="m1702.53,18.65c.67-1.06,1.09-2.78,2.28-2.42,1.25.52,1.89-.6,3.3.38l-1.33,2.86c-.84-.13-1.89-.85-2.35.06l-1.9-.89Z"/>
        <path class="cls-7" d="m1698.72,16.88l.44-.95c.85.18,1.4-.51,2.35-.07-2.05,2.59-.65,3.93-1.71,6.16-.64-.3-1.27-.59-1.91-.89.3-1.43-.51-2.45.82-4.25Z"/>
        <path class="cls-23" d="m1674.46,6.72c-.13.84.29,1.48,1.46,1.84-1.25,1.64-2.26,3.94-4.63,2.48.74-1.59,1.48-3.18,2.22-4.76l.95.44Z"/>
        <path class="cls-10" d="m1685.45,13.01c2.85,1.48,4.99-3.71,4.57-4.83l2.85,1.33c.35,4.08-3.66,7.09-7.23,10.55l-.95-.44c.51-1.25-.61-1.89.38-3.31-.15-1-.27-2.01.38-3.3Z"/>
        <path class="cls-21" d="m1685.65,20.05c.99,2.52-1.9,2.06-2.67,5.72-5.45,1.81-5.39,5.36-9.08,12l-.95-.44c-2.42-.98-1.07-1.92.44-.95,2.04-2.32-.19-3.09,1.26-5.21l-1.9-.89c-.28-1.48-.07-3.14,1.27-5.21.83.13,1.89.85,2.34-.06,5.3.65,2.16-8.44,8.32-5.4l.95.44Z"/>
        <path class="cls-17" d="m1676.7,19.36c4.53,1.94-2.27,3.64-.32,5.65-1.33-.57-1.88-1.42-2.41-2.29.71-1.69,1.59-2.86,2.73-3.36Z"/>
        <path class="cls-22" d="m1672.12,24.18c.43,1.87-.06,2.8-2.28,2.42-1.64-1.31-3.17-6.67-.2-7.05,1.81,1.18.66,3.45,2.48,4.63Z"/>
        <path class="cls-22" d="m1680.83,50.27c1.91.89,3.81,1.78,5.72,2.67l-.89,1.91c-6.06.08-12.94-5.63-16.7-8.95l.44-.95,4.76,2.22c1.27.59,2.54,1.18,3.81,1.78.96.45,1.91.89,2.86,1.33Z"/>
        <path class="cls-11" d="m1692.7,54.65c-2.38,0-4.68.19-7.05.19l.89-1.91c-.15-1-.27-2.01.38-3.3-.08-2.35.25-4.84-1.6-6.54.08-2.24-2.51-6.97,1.71-6.16-2.62,3.33,4.7,3.03,4.39,5.52-.3.64-.59,1.27-.89,1.91-.64-1.61-.47-3.52-3.88-4.13.51,3.77,3.94,6.48,1.72,11.24,1.26-1.63,2.26-3.94,4.63-2.47-1.28,2.05-1.44,3.68.13,4.7l-.44.95Z"/>
        <path class="cls-22" d="m1675.93,8.56c.56-.64,1.31-.73,2.35-.06-1.77,3.11-2.87,8.07-5.4,9.08-1.48.28-3.14.06-5.2-1.27.97-2.41,1.99-4.66,3.62-5.27,2.38,1.46,3.39-.84,4.63-2.48Z"/>
        <path class="cls-12" d="m1706.53,10.08c2.16.8,2.67,2.19,1.52,4.19-.7.98-1.75.99-2.8,1.02l-.95-.44c.59-1.27,1.18-2.54,1.78-3.81l.44-.95Z"/>
        <path class="cls-8" d="m1716.88,27.66c-2.89,2.48-1.4-3.06-4.31-3.17.59-1.27,1.18-2.54,1.78-3.81,2.02,1.9,1.46,4.74,2.54,6.98Z"/>
        <path class="cls-21" d="m1689.96,5.83c.95-4.18,4.51-6.91,6.03-2.99.64.56,1.87.91,1.46,1.84-.7.97-1.74.99-2.8,1.02-.59,1.27-1.18,2.54-1.78,3.81l-2.85-1.33c.67-1.04.57-1.79-.07-2.35Z"/>
        <path class="cls-10" d="m1698.27.43c.9-1.15,2.75.33,4.25.83,1.18.36,1.6,1,1.46,1.83-2.02.98-3.96,2.15-6.54,1.59.41-.94-.82-1.28-1.46-1.84.95-1.75,3.46.81,4.19-1.53-.63-.29-1.27-.59-1.9-.89Z"/>
      </g>
      <g class="cls-1">
        <path class="cls-32" d="m136.59,1181.43c-5.43,5.78-9.13,12.63-15.92,17.13-5.01,1.68-6.64,7.22-12.15,7.32-3.53.33-6.61,1.14-6.25,5.81-.33,4.5-7.16,1.05-9.54,4.68-4.79,3.61-12.31.11-7.87-5.96,4.96-5.44,10.28-10.38,14.28-16.68,2.87-3.38,2.89-4.44-1.04-6.09-2.66-1.12-2.96-3.02-2.14-5.23,1.8-5.82,1.6-12.65-.75-18.06-9.6-8.39,4.81-26.29-.48-34.25-3.21-3.64-4.09-8.21-4.95-12.67-.98-6.91-17.12-7.15-8.3-16.29q4.89-4.9,2.04-11.53c4.88-18.17,20.4-16.65,18.55-25.77-1.97-5.57-10.44-3.95-14.97-6.82-.83-.23-1.89-.58-2.17-1.31-1.74-4.62-6.47-5.25-9.91-7.58-9.67-4.97-6.93,5.62-10.07,10.3-4.19,4.75-9.73-.37-14.58,2.41-6.81,4.31-17.36-5.03-10.53-10.49,10.31-5.42-2.25-16.78,6.83-21.76,1.75-1.24,9.01-8.14,4.3-9.26-7.8-1.23-14.63-5.85-22.71-3.37-4.91.71-10.15-7.08-13.62-.16-4.13,6.76-11.8-4.38-13.88,5.3-4.09,13.78-13.59,6.62-14.26,15.55-1.15,6.14-1.11,6.21-7.41,7.05-2.07.28-3.35,1.39-4.49,2.96-5.96,8.09-15.07,13.35-19.47,22.7-3.46,6.67.89,15.86-6.98,20.32-4.32,2.8,2.46,7.2-1.37,10.8-2.27,3.4-2.1,7.78-4.68,11.38-1.97,1.01-2.34,2.65-2.9,4.25-.91,2.61-1.45,5.48-4.51,7.05-2.96-1.06-1.91-3.02-1.11-4.54,1.56-2.99,1.13-5.65-1.24-7.71-2.75-2.38-2.56-6.26-5.22-8.91-2.33-2.83-1.78-4.98,1.1-6.48,1.57-.81,2.07-1.81,1.43-3.45-.65-6.24,6.81-11.31,11.11-15.16,1.2-.74,1.35-1.73,1.25-2.93-.45-9.82,6.84-15.45,12.46-22.22,4.52-2.1,7.97-4.72,8.79-10.05,2.72-1.47,3.57-4.82,6.95-5.43,3.25-.25,4.87-2.1,6.94-4.08,7.84-6.89,13.42-15.01,19.47-23.63.45-1.45,1.84-2.21,3.44-2.1,20.3-.51,40.8-1.44,59.81,7,6.84,3.97,19.13,7.57,20.48,16.34.24,3.56,1.92,5.46,5.68,5.64,6.46.9,14.96,4.09,16.49,11.12.86,8.5,9.28,11.21,13.6,17.64,2.9,3.36-1.93,12.34-6.22,9.12-3.62-1.97-9.72,3.95-7.67,7.43,4.17,6.61,1.16,13.25.43,19.98-.6,5.52-2.34,11.13,2.23,16.46,4.8,4.94-1.44,13.29,2.52,18.4,2.48,3.72.95,9.07,5.79,11.48,1.8,1.16,2.01,3.41,3.04,5.11,1.67,5.29,8.3,7.93,8.14,13.63-1.42,14.32,20.54,3.15,12.21,15.59Z"/>
        <path class="cls-31" d="m102.45,1076.52c3.4-10.58,10.27,0,11.32-4.54.46-1.99,2.44-3.22,2.5-5.39.06-2.37-2.54-2.49-3.42-4.13-1.25-2.32-3.27-3.91-5.65-5.11-6.92-3.85-3.38-14.23-11.23-17.28-4.69-4.17-17.01-1.6-16.58-8.55.51-6.48-4.04-8.36-8.47-10.22-7.16-3.38-7.55-7.48-16.46-7.95-8.09-4.12-17.62-3.82-25.74-6.91-4.32.7-8.75.19-12.88,1.54-4.7-1.83-9.28.69-13.99-.06-7.2-2.57-3.19,7.02-9.05,7.78-5.48,3.5-4.28,12.33-12.64,14.43-4.28,3.05-1.79,6.98-9.28,7.23-.63-.32-.97-.88-.76-1.1,4.16-4.32,1.12-8.3-.54-12.34-1.4-3.24,2.58-6.08,1.65-9.69,1.2-5.38,5.06-8.31,9.09-10.71,2.45-1.46,4.38-2.92,5.7-5.49,2.48-7.69,11.05,1.5,20.99-1.35,18.22-8.36,35.59,4.79,52.57,8.13,8.59-2.37,6.01,10.31,14.42,10.45,3.21.55,6.2,2.79,9.33,4.21,5.42,3.41,3.11,13.88,12.18,10.53,3.58-1,6.56,2.28,10.07.91,2.93-1.11,5.3-.14,7.4,1.99,13.86,9.65,7.46,21.81,17.4,20.36,2.48-.18,7.38,3.4,8.53,6.29.66,1.67,1.78,7.33,3.96,3.59,2.73-4.76,2.82-4.78,7.98-2.88,3.77,1.56,5.9-2.14,9.68-1.91,7.54,10.25,1.58,28.31,3.41,40.63-1.47,26.28-18.52,3.85-9.56,25.33.87,2.37-.17,3.84-2.58,3.62-5.21-.48-9.94,1.22-14.7,2.8-8.22,2.64-8.19-9.37-15.29-11.34-4.09-2.11-4.21-7.31-6.93-10.67-1.42-2.77-4.3-5.4-5.31-8.24.43-5.26-3.11-9.76-2.66-15.08.3-3.55-2.67-5.86-4.46-8.87Z"/>
        <path class="cls-28" d="m114.24,980.38c4.43,6.03,13.7,8.04,15.67,15.61-15.53,17.97-1.4,12.22-26.61,24.56-5.53,3.43-4.52-3.76-8.13-5.85-8.7-3-4.47-22.23-14.92-16.81-3.74,2.67-6.97.02-10.63-.37-7.31,1.1-16.01.87-22.47-2.66-5.26-1.8-11.11.96-16.33-3.17-5.27-3.86-11.6-3.17-17.54-.45-21.76-1.71-29.34-5.21-32.68-28.13,15.68-8.85,34.21-6.05,51.66-5.97,2.63,2.03,6.09,0,8.97,1.36,1.64,1.16,2.89.23,4.82.48,2.29,1.39,4.73.19,7.05,1.41,3.08,1.27,6.28,3.73,9.68,3.08,2.61-.32,4.23,2.56,6.9,1.76,2.05.18,4.44,1.34,5.98,2.65,1.04,2.19,2.95,1.57,4.77,1.96,1.59.19,2.82,1.1,4.29,1.66,1.46-.24,1.59,1.18,2.63,1.7,1.37,0,2.36.97,3.6,1.37,4.5-.26,8.96-.65,13.24,1.13,1.03,1.71,2.68,1.22,4.2,1.77,1.84.44,2.49,2.4,4.52,2.15.62.12.94.28,1.35.76Z"/>
        <path class="cls-30" d="m-19.39,963.02c.29,1.11.19,2.2,1.01,2.94,2.89,2.12.95,5.64,2.85,8.22,3.64,8.85,6.37,12.18,15.46,14.73,6.5-1.65,12.96,3.46,19.13-.89,3.03-1.97,5.52,1.36,8.62,1.05,1.67-.09,3.32.42,4.3,1.63,3.12,3.87,7.32,2.97,11.12,2.35,2.6-.42,4.46-.5,5.9,1.85.73,1.2,1.93,1.02,3.07,1.07,5.65-.77,10.88,2.95,16.36.28,4.08-1.25,7.32,4.63,11.13.69,3.98-2.96,9.65-1.84,9.22,4.25-.12,11.36,10.63,10.58,10.58,19.82,34.19-14.02,12.39-14.12,31.51-25.34,13.37,12.77,30.14,38.8,25.3,57.63-.72,3.17,7.66,1.06,5.16,5.4-2.01-.06-3.1,1.31-4.5,1.94-6.44,4.98-9.74-5.78-12.82,2.29.09,5.05-4.56,4.43-5.23-.02-1.09-1.93-.32-5.14-3.03-5.68-2.84-.54-3.26-5.25-6.6-2.3-1.41,1.11-2.98.7-4.07-.91-6.95-13.05,1.52-7.21-13.77-21.23-3.13-3.99-6.36,1.6-9.77-.61-2.44-1.18-4.71-2.19-7.58-.28-2.97,1.77-7.86-2.61-7.9-6.32-.39-5.87-5.66-5.48-9.52-7.85-2.52-3.43-7.93-.13-9.33-4.71-1.75-2.46-1.92-8.87-6.01-7.4-8.67,1.98-15.25-6.38-23.92-7.25-4.63-1.2-9.73-.56-13.93-3.53-6.56-2.08-14,4.72-20.68,3.35-1.09-.47-2.36-.84-3.36-.42-4.7,3.17-8.96-6.35-11.75-.42-2.59,8-12.77,7.62-15.27,16.44-5.35-.85-2.09-7.85,1.89-9.18,7.47-3.9,1.54-10.31,4.28-15.99,1.53-2.54.72-4.54-1.68-5.67-5.17-2.43-8.59-6.98-13.14-10.62-.36-3.74,13.52-8.57,16.98-9.29Z"/>
        <path class="cls-40" d="m84.19,1088.89c4.6,8.67,4.29,6.97-2.69,13.76-4.28,4.15,1.62,8.21,5.65,9.2,2.9.48,2.72,1.73,3.57,5.06,1.03,4.05,1.13,8.7,4.46,11.81,6.2,6.7-3.58,19.27-2.13,28.61-1.2,4.6,3.67,4.72,4.29,8.13,4.03,17.96-6.48,19.29,4.34,22.07,1.44.67,1.82,1.72.96,3.14-1.75,4.18-6.2,5.77-6.96,10.46-.56,1.72-1.7,2.99-3.45,3.58-4.21,1.34-12.59,12.05-4,12.12,4.8.19,6.39-6.25,11.44-3.59,3.99.59-.44-4.6,1.94-6.07,4.2-4.09,11.2-.69,13.86-7.08.9-1.62,2.98-1.53,4.85-2.22,2.07,3.41-7.34,9.04-9.81,11.16-11.02,9.64-24.84,24.6-40.23,25.69-2.7-2.49-3.27-6.75-7.79-6.19-4.7.85-1.5,7.21-9.86,10.7-14.44,3.19-9.37-6.09-20.25-12-5.72-3.75-2.34-9.7-5.73-15.21,2.08-6.85,8.04-10.41,13.18-4.57,8.62,9.08,19.78-6.46,26.66,2.29,2.06,5.46-12.06,5.81,6.6,10.26,5.75.2,3.28-8.21,6.77-11.22,2.35-3.2-2.36-2.91-4.39-3.02-13.32-2.64,1.63-14.1-4.58-17.76-6.53-2.64-.37-10.14,3.92-4.93,2.67,3.78,11.56,1.25,8.99-3.51-3.12-5.66-3.93-11.46-1.13-17.6,1.06-2.34,1.41-5.13,1.23-7.6-1.83-11.78,12.04-17.51,4.99-28.29.4-8.94-8.28-8.61-11.23-14.48-3.42-15.73-23.14-20.91,3.72-27.22,2.8.49,1.7,2.89,2.8,4.5Z"/>
        <path class="cls-37" d="m102.2,1076.24c9.61,6.01,3.08,10.63,7.57,16.53.96,1.37.56,3.08.46,4.62.43,6.48,7.43,10.39,8.83,16.9.85,2.35,2.19,4.37,4.8,5.1,3.07.74,4.62,3.13,5.76,5.88,2.99,9.35,11.05,2.04,17.77,1.34,2.19-.74,4.26,1.47,6.2.09.83-.8.14-1.69-.3-2.3-1.36-1.93-1.16-4.45-2.51-6.32-1.34-2.17-.11-7.39,3.33-5.85,3.85,1.43,5.58-1.42,7.67-4.05,2.87,8.39-2.22,18.73-5.73,26.3-6.15,10.99-8.5,23.07-12.12,34.94-1.64,2.18-2.09,5.17-4.9,6.8-8.24.04-17.75-1.49-15.84-12.05,0-1.02-.05-1.99-1.1-2.61-5.72-2.98-5.86-9.83-9.9-13.86-6.3-1.91-2.38-9.19-6.69-12.34-1.97-1.18-1.4-3.18-.73-5.01,1.42-3.9-.16-7.85.14-11.78.03-.43-.52-1.2-.94-1.32-4.54-1.25-3.27-4.75-2.88-7.71,1.04-3.08-2.07-5.63-.08-8.55,2.25-4.53,2.12-10.32,2.3-15.42-.3-3.34-6.74-7.12-1.12-9.33Z"/>
        <path class="cls-36" d="m27.17,1211.46c5.77,7.87-.09,9.68,4.21,13.42,4.05,3.48,8.27,5.45,10.07,11.03,1.69,3.65,7.03,3.05,10.73,2.5-1.54,8.51-23,5.09-30.39,6.71-4.05-1.19-7.66-1.73-11.91-1.89-4.7-6.54-.39-16.16-1.37-23.72-.16-5.44,2.93-8.68,8.21-7.87,3.52.55,6.74-1.62,10.46-.19Z"/>
        <path class="cls-25" d="m27.49,1211.4c-6.29,3.18-19.43-2.61-17.74,8.7.64,7.35-1.72,14.69-.35,22.17-7.03.14-14.61-2.25-21.39-4.52,2.75-3.74,6.59-6.33,3.24-11.96,2.78-5.39,8.02-3.41,11.66.34,1.53-6.24,1.13-12.6,5.14-17.92,6.23-1.52,5.26-10.84,11.23-10.96,5.96,2.72,9.34-5.24,15.81-2.26,3.35.77,7.49,1.41,9.31,4.79-.65,3.76-4.74,2.47-7.37,2.76-7.28-.82-7.14,2.88-9.54,8.86Z"/>
        <path class="cls-34" d="m21.67,1245.41c2.61-3.34,9.54-1.5,13.65-2.11,6.42.91,12.46-1.44,17.82-4.89,6.66-6.34,15.14-3.4,23.23-5.11.72-.26,1.03-.18,1.19.46-3.64,3.5-8.67,2.58-13.12,3.47-6.94.6-12.02,5.62-18.44,7.6-2.62.98-5.34,1.28-8.36.74-5.24-.68-10.66,1.85-15.96-.15Z"/>
        <path class="cls-39" d="m-18.8,963.08c-2.51.72-4.17,2.83-6.97,2.21,8.44-7.87,22.09-9.21,33.19-9.97,4.28,1.4,9.06-1.5,13.13-.25,2.03,1.39,4.38,1.16,6.74,2.07-.17,1.71-1.19,1.68-2.42,1.18-14.55-3.52-29.33.43-43.68,4.76Z"/>
        <path class="cls-35" d="m144.29,1169.35c.8-15.98,7.92-31.25,16.13-44.92,1.12,6.33-6.18,12.04-6.79,18.63-3.41,6.64-3.8,14.18-7.01,20.77-1.38,1.51-.36,3.98-2.33,5.52Z"/>
        <path class="cls-38" d="m156.76,1044.58c-1.94-10.17-7.72-18.67-9.38-28.48,2.52.49,1.91,3.22,3.13,4.92,1.57,2.19,3.05,4.76,3.27,7.71,4.81,11.02,8.35,22.23,9.79,34.3-2.38-.55-2.36-4.2-2.5-6.34-3.51-3.38-3.63-7.73-4.32-12.11Z"/>
        <path class="cls-34" d="m116.48,1204.52c.28-2.7,3.34-3.54,4.13-6.37,6.47-4.29,8.5-12.55,15.34-15.74-.38,5.1-6.51,6.42-7.75,11.11-3.68,3.59-6.96,8.13-11.71,11Z"/>
        <path class="cls-35" d="m163.14,1103.98c-.2-.55-.19-.94-.19-1.62.13-9.23-.03-18.19.75-27.68,3.09,9.08.86,19.37.28,28.89-.36.36-.5.47-.85.41Z"/>
        <path class="cls-29" d="m147.24,1014.72c-6.67-4.4-10.92-11.74-15.45-18.26,4.65,1.08,13.45,13.33,15.45,18.26Z"/>
        <path class="cls-24" d="m77.81,1234.03c-.41-.25-.55-.46-.93-.7,5.38-3.51,10.93-6.94,16.8-10.37-.42,3.67-12.19,10.74-15.87,11.06Z"/>
        <path class="cls-34" d="m162.7,1104.04c.23-.22.65-.22.86-.22-.28,5.23,1.62,11.04-1.83,15.59-.55-4.62.27-10.52.97-15.37Z"/>
        <path class="cls-33" d="m-1.65,1241.25c3.77-2.46,7.37.64,11.04,1.42.1.16.2.31.14.67-3.8-.33-7.49-.52-11.18-2.09Z"/>
        <path class="cls-35" d="m138.68,1176.51c1.62-2.49,3.16-4.76,5-7.05.01,3.3-2.04,7.76-5.5,8.75-.02-.62.2-1.05.5-1.7Z"/>
        <path class="cls-26" d="m125.86,989.54c-3.4.56-4.7-2.51-6.93-4.5,3.15-.14,4.6,2.66,6.93,4.5Z"/>
        <path class="cls-24" d="m94.96,1222.71c1.07-2.22,3.04-3.74,5.57-4.97-.56,2.77-2.62,4.21-5.57,4.97Z"/>
        <path class="cls-29" d="m131.1,995.5c-.34.31-.74.33-1.42.3-.43-1.98-2.61-2.68-2.96-4.79,2.27.4,3.62,1.99,4.38,4.48Z"/>
        <path class="cls-39" d="m53.22,960.28c-2.11-.03-4.58,1.18-6.76-.91,2.18-.41,4.52-.8,6.76.91Z"/>
        <path class="cls-32" d="m63.02,963.84c-1.64,1.34-3.06,1.57-4.47-.29,0-1.55,4.99-1.45,4.47.29Z"/>
        <path class="cls-29" d="m80.3,970.37c-1.97-.04-3.88.11-5.34-1.72.3-.63.74-.77,1.57-.56,1.38,1.03,4.73-.35,3.77,2.28Z"/>
        <path class="cls-32" d="m69.88,965.43c-1.43,1.99-3.54,1.07-3.76-1.15,1.03.05,3.51-.33,3.76,1.15Z"/>
        <path class="cls-38" d="m92.84,974.29c-.45,2.25-4.32.34-5.2-.78,1.78-1.27,3.33.14,5.2.78Z"/>
        <path class="cls-34" d="m107.12,1212.47c.56-1.21,1.17-2.65,2.93-3.34.21,1.87-.44,3.27-2.93,3.34Z"/>
        <path class="cls-39" d="m35.88,957.72c-.84,2.12-.97,2.11-3.23-.25,1.01-.61,2.03-.42,3.23.25Z"/>
        <path class="cls-34" d="m137.67,1178.17c.44-.14.61-.13,1.02-.09-.06,1.35-.26,2.73-1.95,3.52-.7-1.22-.56-2.39.93-3.43Z"/>
        <path class="cls-26" d="m108.67,977.36c-1.7,1.28-2.55,1.09-4.3-1.13,1.14-.48,3.7-.12,4.3,1.13Z"/>
        <path class="cls-38" d="m80.46,970.68c-.35-.57-.37-1.04-.4-1.74,1.33-.59,2.37-.38,2.76,1.47-.65.32-1.34.34-2.36.27Z"/>
        <path class="cls-29" d="m66.1,963.84c.19.36.19.5.19.87-.96-.05-1.91-.31-3.16-.62-.3-.33-.33-.61-.41-1.1,1.25-.72,2.16.18,3.38.85Z"/>
        <path class="cls-34" d="m111.32,1208.88c-.06-1.25.58-2.09,2.13-2.38.14,1.29-.47,2.18-2.13,2.38Z"/>
        <path class="cls-38" d="m59.19,962.3c.06.51-.13.68-.54.87-.81-.28-2.91-.24-2.9-1.48,1.23-.15,2.33-.37,3.44.61Z"/>
        <path class="cls-38" d="m100.95,974.69c-.56.49-1.12.43-1.78-.28.82-2.24,1.27-1.12,1.78.28Z"/>
        <path class="cls-38" d="m108.43,976.75c-.66.23-1.45.33-2.3-.42.86-1.46,1.49-.45,2.3.42Z"/>
        <path class="cls-26" d="m112.99,980.14c-1.1.2-2.21.4-2.63-1.23.81-.64,2.62.07,2.63,1.23Z"/>
        <path class="cls-35" d="m113.13,980.44c-.48-.44-.71-.84-1.05-1.44.93-.25,1.99-.34,2.3,1.33-.35.26-.68.21-1.25.11Z"/>
        <path class="cls-38" d="m86.74,972.56c-.66.23-1.19-.03-1.68-.74.76-.74,1.41-.66,1.68.74Z"/>
        <path class="cls-38" d="m76.73,967.96c-.32.3-.76.34-1.52.38-.4-.27-.47-.56-.57-1.05.8-.55,1.51-.48,2.09.67Z"/>
        <path class="cls-29" d="m70.04,965.73c-.3-.25-.33-.49-.43-.88.74-.7,1.33-.48,1.85.56-.32.29-.72.31-1.42.31Z"/>
        <path class="cls-39" d="m55.74,961.27c.19.34.19.49.18.87-.72.18-1.39.04-1.83-.92.46-.48.97-.44,1.65.06Z"/>
        <path class="cls-39" d="m43.59,958.8c.6,1.37-1.27,1.91-1.4.27.36-.28.74-.31,1.4-.27Z"/>
        <path class="cls-38" d="m41.36,958.38c-.44.44-.97.47-1.65-.01.41-1.27.99-.95,1.65.01Z"/>
        <path class="cls-27" d="m-39.65,1143.2c-4.93,1.49-8.24,1.07-8.75-4.83.52-3.64-5.36-1.81-3.76-5.72,1.8-3.78-2.46-4.8-3.83-7.21-.43-6.38-4.87-6.32-2.8-13.52,2.73-4.03,2.05-8.8,4.97-12.54,1.3-1.8,1.25-3.22-.11-5.02-2.24-2.95-1.96-3.46,1.29-5.39,7.18-3.8,3.83-12.03,5.87-18.31,3.4-8.17,9.97-13.71,16.3-19.57,2.96-2.55,4.54-8.42,8.85-8.56,3.02.07,6.95.56,6.74-3.59,1.15-13.47,3.79-5.47,9.67-10.46,5.18-3.21,4.49-16.52,12.05-12.65,8.91,6.17,5.5-8.2,14.83-3.52,6.73,6.19,11.51-.72,16.87,1.76,2.93,2.84,6.77,2.63,10.3,3.46,10.57,1.96,4.25,4.68.55,9.76-.31,4.63-5.42,1.62-5.51,5.25,0,.57-.2,1.29.07,1.7,2.04,2.7,2.15,15.96-1.96,16.16-9.25,3.12,2.6,14.72,8.3,9.23,3.79-3.49,7.14,1.35,11.29-.39,4.48-1.14,3.86-4.47,3.85-8.31.14-4.34,7.12-7.69,9.9-4.11,2.11,3.62,8.11,1.21,8.79,5.72.5,2.15,1.84,3.28,3.76,3.64,4.19,2.39,15.25,1.61,15.43,7.09,3.13,10.24-13.47,9.82-14.51,18.16.85,4.38-4.18,3.8-4.39,7.37-2.66.08-1.17-2.42-2.36-3.79-5.35-4.99,1.31-10.85,4.66-14.63,3.5-3.46,1.35-5.02-2.18-6.78-3.62-3.36-7.17-4.15-11.21-.44-4.28,3.66-16.14-1.12-15.76,7.67.37,4.61-1.49,5.94-6.01,4.89-4.5-2.33-13.76.11-14.75-6.06-1.4-7.27-6.89-13.2-3.5-20.94,4.98-8.74-2.33-23.35-12.98-18.57-5.36,4.84-9.33-6.75-13.64-.03-7.31,14.7-12.27,4.56-17.8,17.93-6.07.31-10.34,4.71-15.82,5.82-1.49.3-3.17,1.55-3.65,2.83-4.41,9.28-16.37,14.02-11.61,26.16-3.3,12.38-8.11,24.01-8.19,36.84,4.3,5.41,3.48,12.72,6.92,18.49,1.1,1.85,3.96,2.08,3.84,5.01Z"/>
        <path class="cls-37" d="m162.68,1100.39c.27.35.28.73.28,1.4-1.43.7-2.1-1.24-.28-1.4Z"/>
        <path class="cls-29" d="m89.41,974.76c.5-.31,1.09-.3,1.77.35-.62.99-1.2.72-1.77-.35Z"/>
        <path class="cls-31" d="m156.62,1044.32c1.67,3.79,2.39,7.85,4.44,11.74-2.34.77-7.92.41-6.24-3.1,3.15-3.02-.74-7.44,1.8-8.64Z"/>
        <path class="cls-26" d="m-11.61,1047.91c1.97-4.14,1.37-8.67,7.7-8.78,1.56.09,3.46-.32,4.48-1.35,11.89-23.39,10.76-3.6,18.55-8.09,4.83-3.42,7.44-1.57,11.69,1.44,3.43-.07,3.65,2.61,4.37,4.91,3.61,9.31-6.39,18.57.88,27.28,3.06,2.23-.07,8.56,3.83,9.27,5.11-1.69,18.15,7.86,16.66-1.94-2.45-10.33,14.62-3.78,18.81-10.05,4.43-5.07,8.25,2.69,12.83,3.53,8.25,4.14-11.73,12.53-6.42,20.37-3.28,3.2-7.69,3-11.47,4.83-1.12.66-2.2,1.51-2.7,2.71-.72,1.73,1.12,2.07,1.94,2.91,3.39,3.44,5.39,7.87,8.31,11.63-.04,10.72,7.03,6.09,10.81,13.6,1.59,3.42.63,7.39,3.66,10.31,2.36,2.86-1.21,6.26-2.67,8.76-4.88,5.99-4.34,13.36-5.2,20.35.24,3.68-3.92,6.05-2.24,9.66,1.13,3.34-.56,6.93,2.51,9.64,2.45,2.53,1.91,4.16-1.35,5.7-7.9,4.99-6.11-.47-12.12-2.26-5.64,1.01-.16,6.12,3.35,5.47-.86,6.67-9.43,17.3,2.87,16.96,1.64.19,3.84-.74,4.68,1.2.78,1.78-.92,3.1-2.02,4.4-2.83,2.77-.7,7.02-3.59,9.77-1.28,1.81-2.39,1.94-4.3,1.05-2.97-1.3-15.15-3.18-9.04-7.91,5.48-1,1.73-6.2-2.2-5.42-4.5.86-14.74,6.52-18.15,3.2-2.04-2.08-11.3-9.29-11.88-3.78-.39,1.12-.78,1.79-2.31,1.79-.65-7.13.12-7.93,7.28-7.83,7.64,2.11,7.61-4.12,13.28-4.86,6.02-.06,7.5-4.27,7.95-8.79.43-4.44,1.65-8.42,3.93-12.15,2.31-7.83-8.23-17.99,9.85-21.36,2.36-.21,3.46-1.31,3.58-3.43-.09-8.3,8.19-12.48,9.74-20.23,3.3-11.48-12.24-4.81-14.01-13.63-6.27-15.55-14.83-8.84-17.54-18.45-3.77-14.13-1.99-7.86-12.8-11.58-12.67-2.82-16.7-9.6-14.7-22.25.18-1,.13-2.16-.5-2.92-3.56-4.27-2.24-8.88-1.15-13.52,2.08-6.87-4.8-1.51-7.87-3.67-5.1-5.2-13.12-1.46-17.69,2.71-12.21,11.62-16.66,25.8-34.67,30.72-.94.33-2.3.72-2.17,1.81.57,4.62-3.04,8.38-2.48,12.98.27,2.21-.28,4.27-2.13,5.82-4.9,3.85,2.38,8.3-.86,12.99-4.74,6.69.24,9.71,2.59,16.8-2.5,5.3,4.29,8.78,7,12.91,1.41,2.22,2.51,4.21,4.78,5.67,2.78,4.7,1.34,11.38,7.96,13.3,2.99,1.35,2.08,5.12.19,7.03-2.41,5.29-3,10.88-5.4,16.14.09.69.08,1.09-.26,2-4.8-1.53-5.2-2.42-3.26-6.45,2.08-4.27,1.14-9.43,5.05-12.93,1.89-1.7,1.34-2.97-1.1-3.38-10.24,1.13-.83-12.64-9.28-14.67-2.6-.43-2.51-2.77-3.76-4.35-1.57-4.29-4.55-.32-5.81-8.07-4.78-4.31.11-8.26-3.73-11.39-6.95-6.32,4.3-32.17,6.09-40.61.94-1.17.45-2.12.3-3.11-1.82-6.95,3.77-7.15,7.66-10.86,1.9-3.51,5.15-5.67,7.89-8.32,2.87-7.11,9.84-9.32,15.8-13.22Z"/>
        <path class="cls-36" d="m69.75,1233.8c-1.12,1.52-2.62,1.2-3.96,1.13-4.94-1.12-7.56,2.87-12.11,3.46,2.33-2.74,5.17-5.24,5.62-9.53,2.48-4.19,10.7-.29,10.45,4.94Z"/>
        <path class="cls-38" d="m19.98,1197.66c-1.94-.07-3.28,1.08-5.02,1.63-2.61-.43-3.27.86-3.28,3.15-2.71,7.58-13.13,9.96-18.5,3-18.34-13.66-7.05-13.48-12.87-26.1-5.18-6.56,3.89-14.93-2.03-21.41-7.22-8.75-10.37-20.12-18.32-28.26-3.38-3.26.35-7.15-1.02-10.72-1.49-3.88-.26-7.03,3.96-8.61,4.93-6.22-5.99-27.11,13.72-21.38,10.03,4.46,16.07-2.31,16.16-12.11,2.98-6.74,5.4-14.09,8.68-20.88,3.74-5.95,7.83-6.22,11.41-.35,4.01,4.33,8.28,8.75,7.28,15.28-1.33,10.5,3.58,18.57,10.22,25.94,5.72,2.84,12.44,3.55,13.66,11.37.79,9.43,10.67,1.26,17.44,7.31,4.63,2.59,2.64,8.33,4.23,12.55,1.21,2.84-2.2,5.15-4.58,3.36-4.56-4.77-10.51-5.34-16.4-6.75-3.27-1.37-5.1,5.03-2.43,6.58,3.5,2.27,5.06,4.89,3.28,9.01-.54,2.62,2.85,4.95,1.93,7.77-2.22,10.7,5.55,22.26-2.08,31.65-3.26,2.67,1.95,6.28-1.97,8.77-8.88,8.22-15.99-4.6-23.48,9.2Z"/>
        <path class="cls-29" d="m19.96,1197.19c2.59-6.52,6.23-9.71,13.05-7.09,3.31,2.1,13.46-2.39,10.74-5.75-1.76-2.58-1.23-2.3.53-5.04,5.07-5.48,3.36-10.58,2.96-17.37-3.79-6.11,1.91-13.48-2.46-18.93-1.2-1.09-1.02-2.47-.32-3.94,3.8-6-3.75-4.87-4.75-8.94.53-2.42.03-8.07,3.84-7.22,8.26,5.06,9.06-1.44,11.64,2.29,1.41,3.03,4.88,3.41,6.86,5.67,1.23,1.44,4.12-.55,2.83-2.21-2.73-4.27,1.07-11.26-5.25-13-7.4-5.01-14.41,3.47-15.85-3.88-1.11-6.31-3.56-11.83-10.77-12.26-10.13-5.23-15.39-18.74-13.87-30.21,1.22-6.05-4.61-9.21-7.54-13.5-.49-1.52-.51-3.73-2.92-3.68-6.14.25-8.45,7.88-9.8,13.02.49,4.36-4.45,6.82-4.94,10.73-.68,5.93-1.2,14-8.29,15.17-3.49.96-6.41.53-9.45-1.16-12.88-5.52-12.05,10.27-10.54,18.53,1.16,5.25-9.27,2.03-5.76,10.08,2.69,3.71-2.62,7.1.7,10.33,5.59,4.42,7.19,11.2,11.57,16.5-.38,2.85,1.7,4.34,3.29,6.17,2.43,2.79,3.72,6.35,6.11,9.23,1.37,1.66.91,3.97-.15,5.69-1.29,2.15-2.71,13.29.66,13.21,4.9.23-2.18,10.54,2.22,15.58,2.66,7.01,10.24,7.53,13.98,13.19.83,1.5,2.28,2.22,3.45.71,1.64-2.1,4-1.92,6.43-2.62,1.15.44.32,1.56.34,2.37-3.39,2.62-7.73,9.08-11.55,3.93-3.58-6.94-14.72-4.16-16.32-11.51-.39-3.65-2.84-6.78-2.17-10.81.34-2.45-4.07-3.28-5.97-4.6-.28-.41-.23-1.8-.31-2.22,7.07-5.11,2.25-13.47,6.88-19.2,2.98-2.05-7.24-8.84-8.31-12.97-.06-3.69-2.6-6.25-5.19-8.64-1.44-5.2-6.09-8.53-7.96-13.69.18-6.41-5.69-11.38-2.59-18.21.71-.94,1.62-1.77,1.53-2.74-.89-8.93,5.23-16.38,5.19-25.14-.01-3,2.25-4.03,4.83-3.24,4.7-.02,18.87,6.71,16.2-2.59-2.12-6.76,7.01-6.24,7.67-12.33,3.01-7.5,10.62-26.89,20.78-17.79,1.79,1.98,3.59,3.5,6.31,4.13,7.59,3.44,4.8,16.23,5.72,23.27-.53,4.86,3.29,7.05,5.86,10.46,2.76,6.1,6.16,8.23,12.59,7.95,9.82-1.81,2.59,11.81,15.13,13.91,14.87,3.05,8.85,18.41,17.11,19.15,2.1.07,4.83-.31,5.51,2.28,1.29,6.87-7.06,9.37-9.88,14.66-1.64,2.48-6.37,2.14-9.37-.05-.77-.56-1.35-1.72-2.52-.84-.92.7-.95,1.76-.65,2.76,3.88,7.4-6.39,12.83-2.32,19.37,3.54,4.66.27,9.7,1.64,14.5,3.3,5.81-.77,9.77-3.49,14.03-.71,1.11-2.07,1.71-3.39,1.59-4.66-.67-9.09,2.09-13.88,1.86-6.69-5.47-9.53,3.49-15.6,1.07Z"/>
        <path class="cls-39" d="m37.96,1196.4c5.55-6.33,13.89.83,16.65-8.63,2.35-2.77,2.79-5.51.63-8.6-2.99-4.15,3.23-8.77-1.03-12.92-1.04-2.67-4.05-7.06-.96-9.28,7.66-6.05-1.59-12.92,4.67-17.36,1.03-.42,1.81.12,2.08.94,1.23,4.31,8.99,4.23,9.85-.1.32-1.99,1.88-3.4,3.66-3.92,2.94-.33,7.64-9.11,3.74-9.31-16.76,1.15-2.11-11.37-18.98-19.09-16.57-1.54-7.98-16.85-15.58-14.18-4.93.71-9.27-.88-13.06-4.02-.67-.56-1.32-1.28-1.21-2.19.88-4.97-6.58-4.91-5.93-9.99-1.8-6.11.26-12.53-.87-18.45-2.18-3.1-1.27-8.14-6.53-7.4-1.71.13-2.68-1.5-3.64-2.74-8.7-12.35-18.87,11.56-20.44,18.99-.64,3.95-9.63,3.15-7.43,8.63.11,1.82,3.03,2.34,1.78,4.33-1.07,1.46-5.14,2.9-6.43,2.21-3.85-1.94-8.21-.49-12.08-2.48-7.73-2.44-3.41,16.52-8.43,19.93-3.93,2.76,1.81,7.5-3.1,9.85,1.73-4.82-5.74-9.19.36-12.95,3.91-3.42.26-9.12,3.72-13.1,2.23-2.39-2.27-6.96,2.29-7.5,3.13-.45,5.58-2.82,8.93-2.93,1.34-.05,3.18-1.3,3.83-2.52,2.53-5.22,10.38-5.68,11.34-11.59,1.47-6.26,8.28-8.71,11.41-14.08,2.34-3.1,7.26-3.41,10.51-5.41,5.45-2.9,8.25,6.77,13.38,2.33,1.07-.85,2.46-.29,3.51.72,1.08,1.04,1.38,2.19.57,3.48-1.62,2.54-.98,5.59-1.93,8.3-.22,3.78,4.3,6.09,3.1,10.58-1.11,10.9-.97,11.61,7.25,18.28.22.48,1.07.7,1.56.41,4.28-2.28,6.24,4.03,10.57,2.35,6.58-2.75,6.59,7.77,8.3,11.88,2.71,8.72,8.85-.47,17.32,17.47,1.15,4.58,4.05,4.86,7.93,4.8,11.89.86,5.26,15.61-.36,20.62-3.61,2.79-2.49,7.72-3.74,11.57-2.11,4.83-6.97-.96-10.19,3.97-1.17,1.62-3.84,1.8-3.83,4.31.1,2.69-.81,5.65,1.03,7.95,3.79,6.23-5.6,11.51-3.77,18.71-1.87,11.92-6.02,6.53-14.23,11.26-1.62-2.16-4.63-.95-6.21-3.14Z"/>
        <path class="cls-39" d="m-25.88,1186.91c2.04-.88,6.27.96,5.65,3.32-1.26,3.3,1.2,5.7,1.39,8.48.44,9.51,12.79,5.34,16.43,13.32,3.73,5.76,6-3.03,10.59-2.92-.28,3.83-3.76,6.95-3.13,11.18-.05,1.56.19,3.16-.57,4.62-.49.95.14,2.54-1.33,2.89-1.53.37-1.65-1.23-2.33-2.05-1.22-1.47-3.1-1.86-4.95-2.84-.75-7,.86-6.11-5.61-9.45-1.72-4.34-6.37-2.37-8.96-4.68-1.18-2.52-3.51-4.56-3.03-7.8.92-2.38-1.32-4.31-1.49-6.44,1.78-3.39-.53-5.31-2.65-7.64Z"/>
        <path class="cls-39" d="m19.7,1197.2c6.12.01,9.25-7.26,15.47-1.39-5.57-3.29-14.06,8.04-15.47,1.39Z"/>
        <path class="cls-39" d="m8.81,1208.2c-1.27-2.15,1.51-3.91,2.23-5.76.47-2.47,2.31-4.12,4.93-3.73-.49,3.92-2.51,9.09-7.16,9.49Z"/>
        <path class="cls-29" d="m14.35,1198.49c-.8,1.29-1.79,2.36-3.02,3.56-.86-2.88-.21-3.7,3.02-3.56Z"/>
      </g>
    </g>
  </g>
</svg>