<?xml version="1.0" encoding="UTF-8"?>
<svg xmlns="http://www.w3.org/2000/svg" viewBox="0 0 1920 1126">
  <defs>
    <style>
      .cls-1, .cls-2, .cls-3, .cls-4, .cls-5 {
        fill: none;
      }

      .cls-1, .cls-5 {
        opacity: .85;
      }

      .cls-2 {
        isolation: isolate;
      }

      .cls-6 {
        fill: #eef2d5;
      }

      .cls-7 {
        fill: #ebf5fa;
      }

      .cls-8 {
        fill: #f0f0b1;
      }

      .cls-9 {
        fill: #e3edc0;
      }

      .cls-10 {
        fill: #edf4e5;
      }

      .cls-11 {
        fill: #f1f4cb;
      }

      .cls-12 {
        fill: #97d2ed;
      }

      .cls-13 {
        fill: #bae0df;
      }

      .cls-14 {
        fill: #a0d6ed;
      }

      .cls-15 {
        fill: #cde6f0;
      }

      .cls-16 {
        fill: #b2dddf;
      }

      .cls-17 {
        fill: #b2dded;
      }

      .cls-18 {
        fill: #a7d6f3;
      }

      .cls-19 {
        fill: #a9d9ec;
      }

      .cls-20 {
        fill: #bbe0ee;
      }

      .cls-21 {
        fill: #bbdeca;
      }

      .cls-22 {
        fill: #d9e69c;
      }

      .cls-23 {
        fill: #d6e7b2;
      }

      .cls-24 {
        fill: #c4e2d2;
      }

      .cls-25 {
        fill: #c8e3c6;
      }

      .cls-26 {
        fill: #dee9a5;
      }

      .cls-27 {
        fill: #c3e3ef;
      }

      .cls-28 {
        fill: #c3dfac;
      }

      .cls-29 {
        fill: #c4e0ba;
      }

      .cls-30 {
        fill: #d9e7ab;
      }

      .cls-31 {
        fill: #d8ebf3;
      }

      .cls-32 {
        fill: #cae2b5;
      }

      .cls-33 {
        fill: #e0eff6;
      }

      .cls-34 {
        fill: #c7e5e2;
      }

      .cls-35 {
        fill: #d5ebe9;
      }

      .cls-3, .cls-4, .cls-5 {
        mix-blend-mode: multiply;
      }

      .cls-4 {
        opacity: .95;
      }

      .cls-36 {
        fill: #cae4c6;
      }

      .cls-36, .cls-37, .cls-38, .cls-39, .cls-40, .cls-41, .cls-42, .cls-43, .cls-44, .cls-45, .cls-46, .cls-47, .cls-48, .cls-49, .cls-50 {
        fill-rule: evenodd;
      }

      .cls-37 {
        fill: #acd8be;
      }

      .cls-38 {
        fill: #c5e3cf;
      }

      .cls-39 {
        fill: #c7e3c5;
      }

      .cls-40 {
        fill: #c7e6e6;
      }

      .cls-41 {
        fill: #aad8cb;
      }

      .cls-42 {
        fill: #afd9c2;
      }

      .cls-43 {
        fill: #abd8cb;
      }

      .cls-44 {
        fill: #b4dedd;
      }

      .cls-45 {
        fill: #badecc;
      }

      .cls-46 {
        fill: #baddbf;
      }

      .cls-47 {
        fill: #c2e0bc;
      }

      .cls-48 {
        fill: #b6ddce;
      }

      .cls-49 {
        fill: #c1e0c3;
      }

      .cls-50 {
        fill: #b6dbbf;
      }
    </style>
  </defs>
  <g class="cls-2">
    <g id="_レイヤー_16" data-name="レイヤー 16">
      <g class="cls-1">
        <path class="cls-29" d="m1756.43,1041.31c.33-1.47-.08-3.06.66-4.4,2.64-1.15,8.16.7,8.07-3.49.61-5.89.25-13.94,4.96-18.02,4.24-2.79,2.3,3.57,10.93.27,3.79-1.65,7.51.09,11.25,0,1.72.27,2.32,2.51,3.52,3.6,2.59,5.06,6.79-.52,9.77,3.2,1.29,1.69,2.81,3.02,4.74,3.97,4.85,1.93.21,7.74,4.03,10.39,3.43,2.83,2.53-5.19,7.6-3.25,3.37.77,4.84-3.45,8.34-3.02,2.58-.22,5.26-.1,7.62-1.6,1.23-.78,2.5-.23,3.56.54,2.77,2.03,6.31,1.23,9.28,2.58,3.57.17,2.96-6.34,9.15-4.42,1.4.33,3.02.27,4.3-.04,4.6-1.1,8.52,2.03,13.01,1.71,2.92-.58,4.61,3.8,7.3,3.66,1.02-.39.67-1.38.63-2.15-.11-2.12.16-4.16,1.09-6.09.68-1.41.44-2.79-.11-4.21-3.21-5.54,10.72.22,6.82-6.72-1.73-4.23-9.22-5.97-8.76-10.75.92-2.34,2.3-5.01,5.63-5.23,2.44-.16,2.76-2.07,2.27-3.79-2.09-7.2,3.59-10.52,7.28-14.75,2.76-2.79,6.89.95,10.17-.95,8.52-1.72,4.87,8.28,8.01,8.54,10.09,2.74,10.23-4.76,13.37-2.04,3.12,4.15,4.61,8.66,4.97,13.6-1.53,2.98-2.59,3.51-5.15,2.18-2.59-1.35-5.35-.65-8-1.06-.55-.08-1.12.25-1.41.71-1.45,2.32-4.24,2.68-6.19,4.28-2.25,1.35-6.08-1.97-8.52-3.28.16,4.31-2.95,6.49-2.79,10.36.18,2-.1,3.75-1.6,5.24-2.42,1.47,6.44,7.69,6.53,16.98.29,1.72-.17,3.43-1.51,4.46-8.85,6.47,3.78,16.28-1.46,23.04-1.56.98-2.68-.14-3.92-.91-2.83-1.29-3.08-4.23-4.44-6.55-2.26-1.83-2.83-4.07-1.76-6.82-1.52,2.77-2.54,3.01-4.69.91-2.72-1.5-5.62.14-7.45-3.65-1.5-5.19-5.39-7.34-9.94-8.85-2.13-.7-8.09-4.16-6.77.75,2.16,2.48-.72,4.99-3.29,3.38-.63-.27-1.32-.85-1.96-.08-.48.59-.13,1.22.16,1.78,1.94,2.94-.3,5.12-1.01,7.91-.12,1.53-1.04,2.26-2.47,2.4-15.73,2.42-1.36,13.01-5.49,23.35-.65,5.66-.82,7.08-6.66,7.15-1.81.14-3.29-.27-3.91-2.16-.59-1.81-1.81-2.08-3.43-1.58-3.55.98-4.12-3.88-8.47-3.74-2.91-.69-6.21.09-8.67-2.46-.67-.7-1.92-.2-2.89.09-7.06,1.12-1.22-6.18.34-8.84-2.49-.2-3.35,2.37-5.68,2.65-6.97,1.39,1.57-6.54-4.87-6.2-2.85-.62-6.11-2.3-7.64-4.58-.56-9.64,13.2-4.67,11.03-12.67-1.11-3.07-3.27-5.76-2.69-9.25.31-2.49-1.66-5.27-4.02-6.12-.17-.06-.39-.21-.52-.11-2.15,1.71-5.64.95-7.12,3.91-.83,1.66-2.08,2.67-4.1,2.59-5.93-.15-1.99-4.6-4.2-6.85-.99-.5-4.08.93-3.7,2.18.81,3.44.14,7.03,1.3,10.46,1.31,2.4-2.06,13.4-5.33,10.17-2.75-1.57-5.39-6.2-8.79-4.57-5.6,2.47-14.63,4.35-16.33-3.77Z"/>
        <path class="cls-16" d="m1824.58,938.15c2.71-.33,4.89,1.63,7.61,1.72,1.65.12,3.26-.45,4.87-.29,6.11.76,12.91-1.84,15.85,5.87,4.08,2.75,3.28,7.39,4.31,11.29,1.34,8.04-14.2-.95-13.12,6.1,3.61,5.74.68,11.19-3.17,15.98-5.91,6.09-15.69,1.02-23.05,4.56-4.74,1.46-4.35,7.92-10.13,10.85-3.99,1.91-8.01-3.29-12.27-1.27-4.38,2.53-8.63-2.76-12.8.06-4.55,3.22-8.6-4.25-12.82.22-.6.44-1.86,1.27-2.58.34-.17-2.72,1.48-4.57,3.07-5.94,4.52-3.9,7.78-8.81,11.49-13.36,1.93-2.36,4.07-4.56,5.21-7.54,5.26-5.22,12.19-9.44,17.61-14.82,3.38-1.41,1.76-7.96,5.79-7.92,6.17,1.4,8.61-4.51,14.12-5.85Z"/>
        <path class="cls-26" d="m1905.57,1107.96c-.97.78-1.86,1.27-3.13,1.4-2.21,1.37-4.04,3.19-6.7,3.66-2.28-.26-4.27,0-5.76,1.57-7.08,6.6-19.24,8.39-27.87,4.69-1.44-1.72-3.29-1.88-5.21-1.24-7.62,2.07-29.03,3.95-32.08-5.12-.55-2.05-2.01-2.81-4.21-1.68-13.62,8.77-14.24-12.52-23.19-2.57-1.9,2.43-4.16-.49-6.24-.52-1.19-.06-2.27-.18-3.25-.93-5.68-5.51-12.65-9.01-16.21-16.43-2.33-3.66-6.44-7.11-5.42-12.04,7.47-3.59,6.44,6.8,13.14,6.08,5.46-.27,3.91,6.46,9.41,9.14,1.73.68,6.2-3.1,7.44-4.64,1.25-3.06,6.13-1.61,6.11,1.35-.17,5.96,4.5,6.52,8.45,8.22,6.64,3.58,10.51-2.18,16-1.73,1.77,1.65,5.09-1.74,5.57,1.25,1.36,2.89.83,9.44,5.38,8.46,4.77-.5,6.53-4.61,9.67-7.31,1.24-.55,2.06-1.41,2.43-2.75,1.91-3.7,8.08-3.84,11.75-2.52,2.99,1.36,3.92.97,5.03-2.16,1.32-2.77,7.86-7.83,10.58-4.22-.58,4.31-5.9.68-7.67,6.7-2.16,4.19-.1,7.99-.26,11.93-.09,2.3,1.91,4.23,4.09,4.99,5.53,2.3,8.95-4.82,14.12-5.76,2.09-1.05,4.7.66,7.1,1.03,3.39.94,9.08-2.45,6.77-6.03-4.31-4.43-.59-9.78-1.85-14.5-1.35-1.63-1.11-3.35-.28-5.29,4.21-2,6.94,3.34,10.83,1.24,1.98-.94,4.12-1.28,6.51-1.4,11.15,2.8-.76,20.3-5.73,24.68-1.68.89-3.55,1.33-5.31,2.47Z"/>
        <path class="cls-32" d="m1756.49,1042.15c3.41,1.82,4.13,6,9.1,4.27,3.74.2,9.16-4.94,11.42-1.38.62.83,1.12,1.61,2.29,1.64,1.35.25,1.7,2.07,2.85,2.76,1.73,2.5,5.27-8.36,4.19-9.43-.45-2.23-1.49-4.62-1.27-6.87.55-1.38.35-2.57-.27-3.9-.73-1.54-.52-1.82,1.34-2.24,1.68-.49,3.22-2.98,4.39-.35.53.97.34,1.86.08,2.87-1.51,4,3.85,4.26,5.5,2.48,1.4-1.81,1.89-4.49,4.83-3.94,2.36.05,3.42-4.14,5.45-.78,1.08,1.57,4.32,1.82,3.58,4.22-2,7.35,5.89,10.28,1.61,16.61-2.25-.36-4.03,1.4-6.27,1.27-2.01-.11-2.17.12-2.04,2.1-.5,2.11-4.09,3.26-.38,5.12,1.24.49,2.47.69,3.34,2.02.69,1.06,2.2.43,3.35.52,4.93.87,1.53,3.66,1.35,6.29,3.11,1.19,4.97-2.06,7.51-3.11,1.31-.97,2.68.96,1.47,1.92-1.79,1.32-7.18,9.13-1.66,7.43,1.32-.54,4.28-1.28,4.86.44.13,1.95,8.22,1.56,10.33,2.33,2.63.63,2.29,4.92,5.6,3.16,4.89-2.28,2.3,5.56,7.28,3.78,5.57-.39,4.71.18,5.69-5.1,2.04-1.42,3.88,2.15,6.62,1.91.36,2.98-1.12,7.23-4.67,6.52-3.88-1.74-10.08,1.49-12.34-2.74-1.46-3.99-5.94,2.65-7.64-1.43-4.62-9.62-11.85.57-14.05-3.71-3.54-4.97-11.33-5.54-13.7-12.16-2.69-4.94-8.59-.04-11.6,2.51-.93.57-.86,1.42-.7,2.4,1.3,4.02-5.74,10.03-7.9,5.23-1.11-7.09-9.65-7.27-15.18-5.38-12.73,1.85-5.82-18.25-14.73-22.64.21-1.34-.67-3.81.39-4.64Z"/>
        <path class="cls-32" d="m1883.53,1044.06c.48-.11.95-.09,1.07.27,1.19,3.27,4.36,2.41,6.9,1.87.23.99-.51,2.6,1.37,2.6.89,0,1.67-.08,1.68-1.24.07-.86-.17-2,.93-2.3,3.16,1.65-2.2,5.81,2.11,7.36,1.84,1.52,1.02,5.1,3.16,6.28,13.49,9.72-1.6-15.47,3.78-18.7,6.73-4.86,2.54-12.59-.81-18.33-1.04-1.7-4.58-2.7-2.53-5,3.36-2.08,1.06-5.62,2.51-8.58.73-2.15,2.6-3.93,1.94-6.54-.15-1.05,1.63-2.03,2.16-.64.99,1.85,3.55,1.11,4.8,2.76,1.91,2.22,2.42-1.14,4.07-1.35,3.51.5,3.7-5.1,7.11-3.67.8.26,1.61.49,2.39.24,3.81-1.34,6.42,4.15,9.21-.3,4.14,5.63,3.57,14.5,4.86,21.27.04,3.05-.6,4.2-3.69,4.36-3.63.18-7.21.34-10.43,2.44-1.31.86-2.94.95-4.47.35-3.31-2.07-1.95,8.71-2.18,10.66,1.23,5.55-6.44,4.42-7.88,8.69-.83,1.5-.83,3.16.74,4.41,7.61,6.35,1.88,19.89-8.09,17.87-5.23,1.15-7.74,6.67-14.11,2.63-.45-.93-.12-1.56.28-2.19,4.84-6.73-1.99-10.61-6.25-14.95-2.45-2.71.59-6.68-.63-10.25Z"/>
        <path class="cls-24" d="m1927.59,973.45c.16.59.05,1.18.29,1.46,1.72,2.04.48,4.3,1.53,6.6-2.44,1.26-4.32-4.16-6.14-5.5-1.85-2.61-5.78-1.65-6.45-5.47-.39-1.47-1.93-1.92-3.19-.44-2.88,2.27-7.7.33-10.57,3.24-4.93,2.54-6.65,7.98-10.28,11.71-2.24,1.3-2.87,3.94-4.54,5.69-2.61,1.93-4.4,4.1-4.97,7.63-.33,2.04-2.27,4.01-3.53,5.98-8.95,9.99.43,23.75-9.42,22.15-2.93-.36-5.86.21-8.85-.81-4.02-.97-7.44,5.2-11.83,3.09-4.41-.12-8.85-5.64-12.84-2.81-2.99,3.2-6.46-.2-10.01.05-10.83.7-8.95-18.39-21.83-11.3-2.75-2.81,4.22-4.2-.12-7.68-.83-.8-1.55-1.79-1.63-3.24.98-1.76,2.14-3.1,4.09-3.8,14.89,7.37,3.68,7.02,14.28,13.77.16,2.49,1.76,2.82,3.76,3.13,4.61,1.67,5.39,9.49,11.19,4.27,8.98-7.97,11.05,6.96,18.13-1.33,3.58-3.33,4.59-3.43,8.76-.82,3.43,2.79,8.44,1.55,6.54-3.43-1.32-5.66,5.41-9.76,2.19-15.49-1.37-3.32,4.7-2.87,3.79-8.16,4.61-6.47-6.35-15.75-1.87-21.62,3.04-2.2,2.81-7.36,7.82-5.84,1.18.3,1.91-.91,2.36-1.92,1.37-3.02,4.73-4.2,6.37-6.98.33-.56,1.14-.5,1.78-.43,3.1.25,5.4-3.16,8.42-.65,12.49,6.84,18.41,4.1,26.76,18.94Z"/>
        <path class="cls-25" d="m1804.45,1014.6c4.19-2.55,8.63-3.5,11.51,1.34,1.12,1.92,3.33,2.81,3.45,5.31.14,1.99,1.96,2.69,3.53,3.39,3.16,1.27,6.63.19,9.72,2.07,1.16.61,2.67-.12,3.64-1.19,4.64-4.87,13.66,7.14,19.04,1.58,1.46-1.56,3.83-.92,5.25-2.57.38-.44,1.55.2,2.24.59.72.41,1.42,1.01,2.25.75,3.13-1.13,10.81,2.24,9.73-3.6-.84-2.77.19-5.64-.84-8.34-.26-.68.23-1.23.71-1.65,2.45-2.02,1.71-5.67,4.05-7.83.8-.97,1.85-1.75,1.71-3.24-.06-.63.52-.9.97-1.21,3.12-1.7.26-5.64,3.46-7.33,3.72-1.68,4.2-6.22,7.59-8.25,2.96-3,4.38-7.32,8.05-10.02,1.76-2.42,4.64-2.59,7.13-3.59,1.01-.74,1.86-1.1,3.11-.21,2.27,1.64,2.3-3.19,4.38-2.39,4.25.78,1.4,4.52,4.94,4.95,4.45.85,5.54,6.25,9.21,8.55.76.97,1.54,1.8,1.78,3.12-3.62-.68-4.06,4.78-9.49,3.35-2.02-.84-6.31.75-6.28-2.44.77-3.31-2.05-8.84-5.84-6.63-5.6,2.73-8.39-4.57-13.94,5.66-.97,2.61-5.13,4.17-3.09,7.41,1.22,2.9.83,7.43-3.19,6.49-.52-.07-1.23-.15-1.51.38-.52,1.89-3.67,3.19-3.16,5.04,2.42,3.77,6.86,5.54,9.18,9.46,3.66,4.55-4.36,5.84-7.43,4.86-.33.54-.19.85.03,1.16,1.41,1.95,1.61,3.87.32,6.05-2.15,2.6,1.6,11.92-4.53,7.43-3.09-4.81-8.15-1.53-11.81-4.38-2.23-1.69-4.7.88-7.09-.39-.43-.19-.89-.1-1.32.08-.97.4-1.91.24-2.92-.02-5.37-2.12-4.92,7.72-10.51,3.96-1.05-.49-1.97-1.09-3.32-.59-2.54,1.02-4.41-3.43-6.84-2.3-3.48,3.59-9.19-.04-12.37,3.8-2.22,3.46-7.69-1.84-8.21,3.54-.99,5.05-7.13-1.29-5.85-4.57.72-3.4.29-4.37-2.95-5.62-3-.88-3.05-4.67-6.3-5,.08-2.36,1.31-4.46,1.83-6.94Z"/>
        <path class="cls-23" d="m1914.87,1062.04c.65-3.48.25-8.28-2.61-10.31-.81-.38-1.87-.5-1.85-1.68-.88-3.48,2.16-7.96,6.11-7.9,1.25.12,2.72-2.51,2.36-4.02-.87-2.53.05-5.01.14-7.49-.73-1.74.08-3.33.23-4.96,8.37,3.4,6.78-2.67,16.64-1.98,3.64-.02,3.82-.38,3.45-4.11.32-2.66-1.38-5.46-.76-7.76,2.69,1.33,2.09,5.12,2.34,7.75.26,1.39,1.56,2.02,1.59,3.41,2.89,6.56,3.75,13.88.12,20.22-.98,5.11-1.74,10.06-4.93,14.39-1.5,2.48-2.43,5.69-6.41,4.99-5.54,2.92-10.86,1.19-16.42-.55Z"/>
        <path class="cls-21" d="m1804.6,1014.25c.45,9.26-7.3,11.29-11.36,2.85-1.1-2-3.57.54-5.3-1.15-4.47-2.46-11.9,4.74-14.78-.05-1.79-2.41-5.21,2.18-5.41,4.39-.62,4.72-2.17,9.3-1.9,14.16.11,1.95-.28,2.31-2.13,2.33-2.05.03-4.05,1.26-6.32.14-.18-.5-.16-.91-.09-1.52,6.42-5.93,4.02-14.96,8.78-21.34,1.56-3.13.75-11.03,6.71-8.24,3.57,1.84,4.59,1.3,4.98-2.85.75-5.4,6.2-7.29,9.48-2.81,3.69.61,7.06,2.79,10.94,2.39,1.76-.18,3.42-.19,5.16.83.52,3.42,6.35,5.05,2.73,8.22-.66.72-1.56,1.29-1.49,2.66Z"/>
        <path class="cls-27" d="m1823.79,938.51c-.17.5-.21,1-.59,1.04-6.12,1.8-4.88,6.46-13.18,5.09-1.17-.03-1.71.51-1.59,1.64.15,1.39-.87,2.27-1.32,3.37-2.74,4.82-7.84,7.14-11.56,11.08-3.04,2.75-8.13,4.02-8.95,8.56-4.85,6.42-9.58,13.33-15.75,18.72-3.16,2.97-3.54,7.57-9.51,7.15-1.78-6.94,9.71-14.97,12.02-21.7,1.52-3.08,4.54-5.37,5.3-8.82,1.09-5.93,5.93-8.85,9.43-13.28,4.55-1.19,5.61-6.61,9.7-8.12,8.44-1.56,17.4-6.75,25.98-4.73Z"/>
        <path class="cls-9" d="m1914.63,1062.06c3.52.72,7,1.01,10.52,1.04,2.07,1.17,3.71.73,5.11-1.17,1.05-1.78,2.55,1.15,3.57.04,2.62-2.44,3.35-5.82,5.43-8.63,1.1-1.35,1.77-2.91,1.64-4.76-.16-2.3.39-4.47,1.44-6.53.85-3.05,3.15-5.9,2.08-9.2-.33-1.46-1.22-2.88-.46-4.61,2.81,2.11,2.72,6.21,3.37,9.42-.84,1.49.71,2.42.6,3.88-.04,3.25-.8,6.4-.45,9.74-3.74,5.1-4.3,11.37-9.37,15.59-5.73,5.03-7.86,12.18-11.52,18.76-1.94.51-3.67,1.24-5.69.39-.66-2.11-1.09-4.12-3.8-4.51-3.63-2.53-1.33-8.37-.36-12.01,1.04-2.25-1.66-2.48-2.99-3.63-.13-1.4-.28-2.67.88-3.8Z"/>
        <path class="cls-8" d="m1796.53,1109.5c1.3-4.22,7.34-6.55,9.65-2.48,1.35,3.9,5.19,4.46,8.26,6.02,2.07.69,2.95-2.66,5.26-2.16,2.54-.72,3.69-2.65,5.18.51,1.46,1.41.95,4.22,2.98,4.89,9.91,3.63,20.81,3.02,30.87.66,1.53-.03,2.92.08,3.68,1.68,5.2,3.15,12.95,1.78,18.82.32,5.82-.47,8.18-8.11,14.27-6.49.71,1-.4,1.7-1.29,1.8-2.21,2.15-5.24,2.96-7.72,4.74-3.26.14-6.36,1.86-9.25,3.28-3.02.59-6.1,1.03-9.19,1.28-13.05,1.37-26.91,4.02-39.26-1.74-11.35-2.57-22.67-4.68-32.26-12.32Z"/>
        <path class="cls-35" d="m1917.58,962.21c-5.1-3.68-11.23-4.84-16.01-9.05-3.39-3.52-8.79-3.41-12.35-6.58-3.3-3.11-4.94,2.18-7.96,3.1-2.78-2.19,2.24-5.19-1.36-6.9-5.68-2.93-12.78-6.17-19.11-4.11-8,4.04-15.96-2.71-23.82,1.15-.89-.19-1.45.58-2.28.08,14.46-10.21,32.84-5.33,48.4-1.76,2.72-.12,4.47,2.82,7.21,2.72,8.83,2.9,15.35,10.15,23.26,14.82,1.44.8,11.66,9.14,6.07,8.06-.55-.58-1.12-1.15-2.04-1.53Z"/>
        <path class="cls-24" d="m1778.28,1002.87c1.1,2.96-2.22,6.77-4.98,4.16-2.34-3.06-5.48-.18-5.68,3.24.67,2.42-.55,3.98-2.08,5.61-3.19,5.88-1.07,15.76-8,19.3-.49-8.19-.15-16.33-.3-24.8,3.12-4.64,3.88-10.08,9.58-12.61,2.18.57,4.01,1.88,6.3.98.68-.27,1.4.44,1.65,1.14.58,1.63,1.89,2.31,3.5,2.98Z"/>
        <path class="cls-9" d="m1755.86,1046.78c7.85.53,2.98,24.51,14.71,22.19,2.15,1.42,3.09,3.27,2.69,5.87-2.37,1.55-5.27.46-6.69,3.78-.29,5.73,3.89,8.8,6.58,13.15,3.11,7.06,10.62,9.36,15.07,15.17-4.81,3.16-13.7-5.24-15.34-9.77-3.75-3.22-4.36-7.58-5.7-11.99-5.27-12.26-12.52-24.76-11.33-38.4Z"/>
        <path class="cls-31" d="m1788.05,951.22c-.75,4.76-7.82,6.97-8.38,12.39-4.6,11.31-14.08,21.12-19.59,31.34.13-8.23,20.27-41.39,27.97-43.72Z"/>
        <path class="cls-8" d="m1926.47,1085.34c.82,4.82-1.46,8.62-3.02,12.89.19.41.26.66.07,1.08-1.45,1-2.84,1.87-4.34,2.72-1.67-.43-5.89,4.05-5.75.75.1-.69.61-1.24,1.14-1.99.16-.7.03-1.38.45-1.7,3.98-3.56,4.25-8.26,5.62-13.03,1.97.08,3.71-.99,5.83-.73Z"/>
        <path class="cls-6" d="m1796.2,1109.31c6.41,3.12,12.23,6.49,18.97,8.85,5.09,1.85,10.53.9,15.31,3.76,10.77,4.51,22.69,2.01,33.92,1.92-9.82,3.4-20.92,2.1-31.04.74-4.15-1.52-7.68-3.82-12.21-3.86-11.1-.73-20.11-8.12-30.07-12.45,1.83-.84,3.19.87,5.12,1.04Z"/>
        <path class="cls-35" d="m1759.83,995.01c2.36-.13,5.83-2.14,7.7-1.41,2.68,5.01-7.67,8.18-7.91,14.19-.28.94-.55,2.21-2.17,2.33-.4-5.14.56-10.22,2.38-15.1Z"/>
        <path class="cls-34" d="m1919.7,963.91c1.5-.79,2.54.56,3.12,1.87,1.38.72,2.56,2.26,2.8,3.77-2.65.85-4.02-3.94-5.92-5.64Z"/>
        <path class="cls-27" d="m1832.3,939.69c-.73,2.31-4.4-.6-5.86-1.4,2-.09,4.2-.71,5.86,1.4Z"/>
        <path class="cls-9" d="m1914.53,1100.65c.46,1.13-1.76,2.61-.03,3.19-.54,1.42-2.01,1.23-3.41,1.63.91-1.63,1.66-3.52,3.44-4.82Z"/>
        <path class="cls-9" d="m1905.61,1108.08c1.03-1.76,2.84-2.35,5.05-2.59-.97,1.84-3.19,1.67-5.05,2.59Z"/>
        <path class="cls-11" d="m1895.24,1114.11c-.04-.43.12-.81.34-1.35,1.04-.5,2.01-.85,3.19-1.2-.65,1.3-1.61,2.46-3.53,2.55Z"/>
        <path class="cls-6" d="m1877.3,1122.39c.48-1.94,2.35-1.64,4.04-2.08-.68,1.62-2.52,1.31-4.04,2.08Z"/>
        <path class="cls-11" d="m1899.62,1111.47c0-1.43,1.13-1.74,2.43-2.09-.13,1.26-.84,2.08-2.43,2.09Z"/>
        <path class="cls-6" d="m1867.98,1123.72c.65-1.15,1.76-.61,2.96-.71-.43,1.61-1.69,1-2.96.71Z"/>
        <path class="cls-6" d="m1889.27,1117.47c.25-1.42,1.57-1.29,2.83-1.64-.34,1.22-1.43,1.52-2.83,1.64Z"/>
        <path class="cls-10" d="m1758.31,1064.76c1.45.3,1.28,1.64,1.53,2.95-1.04-.51-1.49-1.53-1.53-2.95Z"/>
        <path class="cls-6" d="m1787.3,1107.86c.05-1.01,1.79-.86,2.1,0-.61.38-1.28.46-2.1,0Z"/>
        <path class="cls-6" d="m1892.51,1115.79c-.08-.82.31-1.38,1.36-1.51.05.79-.3,1.39-1.36,1.51Z"/>
        <path class="cls-6" d="m1886.53,1119.09c.3-.44.16-1.58,1.37-1.19-.15.69-.54,1.1-1.37,1.19Z"/>
        <path class="cls-10" d="m1756.55,1037.98c.63.35.71.83.17,1.45-.68-.34-.72-.82-.17-1.45Z"/>
        <path class="cls-6" d="m1873.94,1123.06c.21-.63.7-.65,1.38-.62,0,.88-.43,1.24-1.38.62Z"/>
        <path class="cls-11" d="m1919.21,1102.13c-.08-.75.39-1.01,1.24-1.02,0,.62-.41.98-1.24,1.02Z"/>
        <path class="cls-10" d="m1756.63,1042.07c-.09.19-.19.19-.43.19-.71-.46-.57-.8.16-1.1.18.22.22.47.26.92Z"/>
        <path class="cls-35" d="m1823.85,938.65c-.51-.44.33-1.32.85-.64-.09.43-.35.59-.85.64Z"/>
        <path class="cls-10" d="m1756.7,1059.82c.49-.07.9.11.94.86-.49.07-.89-.12-.94-.86Z"/>
        <path class="cls-28" d="m1883.57,1043.71c2.96,5.23-2.09,7.63,1.59,10.69,5.28,5.24,7.48,3.99,7.73,12.43.09.79-.53,1.3-1.01,1.84-2.09,1.83-2.67,5.07-3.79,7.62-3.18,2.12-7.25.89-10.32-.81-2.21-1.12-1.98-6.85-4.99-5.25-4.2,2.77-9.6,3.65-12.95,8.12-.42.19-.67.2-1.09.02-2.86,1.17-3.97-1.4-6.51-2.28-1-2.39,1.83-4.29.39-6.46-1.43-2.84.71-6.16-1.79-8.72-.73-1.41-2.28-3.14-1-4.68.9-.77.14-2.39,1.15-2.89,2.59-.49,4.62-2.66,7.48-2.39,1.17.11,2.01-.57,1.55-1.87-.13-2.82,3.54-4.01,1.15-7.27-1.49-1.41-.67-4.59,1.61-3.44.94.49,1.7,1.36,2.94,1.17,4.12-.97-2.52-3.94.55-5.83,3.33-3.12,7.1,2.33,10.87,2.56,3.98.98,5.45,3.75,6.45,7.45Z"/>
        <path class="cls-13" d="m1767.15,998.16c-.23-1.41.64-2.62.38-4.2,9.75-8.22,8.06,2.75,15.66-2.05,4.18-2.51,7.93,3.17,12.59.18,3.96-2.01,8.24,3.41,11.77,1.55.61-1.15,1.67-1.59,2.67-2.19,2.22-1.22,2.39-4.14,3.92-6.04,1.58-3.38,5-2.71,7.9-3.77,6.45-2.53,15.66,2.95,19.59-4.81,1.42-3.04,4.92-6.29,3.35-9.83-.53-2.24-3.28-5.17-1.29-7.2.75-.74,1.41-1.11,2.31-.28.16.15.61.24.73.13,1.99-1.77,3.96-.16,5.89.09,1.88.63,5.26-1.04,3.85-3.23-1.15-2.26-.52-4.96-1.26-7.4-1.63-1.81-3.43-3.54-4.41-5.93-3.68-5.65-11.99-.71-14-3.21,6.28-5.8,14.33,1.63,21.68-1.32,7.6-3.34,16.81.09,23.34,4.51,1.05.76.74,1.76.15,2.66-3.69,4.73,7.23,8.63-2.72,11.99-1.33.41-2.61.85-3.45,2.02-4.44,7.02-16.25-1.29-19.31,5.22-1.02,2.93-3.45,3.69-6.53,3.58.75,1.41,2.1,1.84,2.75,2.92,2.8,2.99-.91,6.85-3.9,4.1-1.82-1.69-2.71-.9-3.73.79-5.22,7.75-16.01,10.13-24.76,10.77-8.24-1.25-2.36,10.94-10.32,11.48-2.5.71-4.32,3.24-6.32,4.78-3.47-1.13-7.22,1.35-10.09-.83-1.6-1.24-4.06-.67-5.98-1.3-.9,0-1.6-.57-1.87-1.37-1.66-4.37-6.86-.56-7.28,2.84-4.58,1.64-3.22-5.28-6.53-3.22-2.08,1.53-2.9-.74-4.78-1.43Z"/>
        <path class="cls-30" d="m1877.48,1075.1c1.5.37,2.84.87,4.35,1.44.87,1.13.15,1.86-.55,2.36-3.81,2.5,3.32,9.08-4.01,9.29-2.56-2.22-4.4.28-6.87.87-3.89.3-2.13,4.67-4.69,6.23-3.85,2.76-2.41-3.06-13.01-.29-3.05.37-1.42,4.15-3.99,4.78-2.12.34-2.48,1.87-3.12,3.58-2.51,1-3.69,4.38-7.05,3.88-1.95,1.23-4.46.99-4.93-1.82-.25-2.71-1.93-4.98-1.94-7.69-1.69-.39-2.72,2.19-4.44.35-2.8-1.9-6.03,1.97-8.92,2.53-2.83,1.54-5.16-1.23-8.05-1.12-2.21-.17-4-1.74-5.83-2.75-4.65-1.16-.55-6.65-4.48-8.27-1.68-.72-2.36-.49-2.97,1.33-.21.64-.4,1.28-1.05,1.47-2.27.65-3.79,2.39-5.58,3.73-2.8,1.18-6.76-5.04-7.57-7.62-1.13-3.97-6.01-.13-7.82-3.03-2.93-3.48-2.58-6.53-8.28-5.55-.05-4,2.92-3.87,6.06-3.82,5.43.12,4.76,9.63,11.16,6.55,9.13-.71,8.11,8.3,15.97-4.91,1.1-1.61,2.43-2.01,4.13-.68,2.04,1.6,5.04,1.96,6.35,4.44,1.07,2.02,2.62,3.36,4.48,4.54,3.3,2.63,7.52-.55,10.83,2.23,7.95,5.95,12.01-.25,19.14,1.38,2.36.86,4.87.63,7.28.31,2.13-.29,4.12-.38,6.08.66,3.61.96,9.23-3.85,12.98-5.2.52-.34,1.43-.4,1.42-1.1-.08-3.68,3.1-5.36,4.92-8.09Z"/>
        <path class="cls-22" d="m1877.07,1088.26c2.9.12,4.16-3.73,2.33-5.79-2.23-2.98,1.86-3.16,2.59-5.67,1.88-.3,3.78.12,5.8-.71,1.71-1.17,2.99-.41,4.45.52,1.78,2.72,7.12.51,7.34,4.18-1.63,6.05,2.6,4.27,1.11,8.1-4.04,11.81,6.43,11.29.25,16.58-1.79,3.96-8.76,1.94-11.9.75-.91-.64-2.09-.05-2.89.87-.91,1.06-1.91,1.93-3.48,1.72-.89-.12-1.18.64-1.59,1.25-3.52,5.63-13.34,1.42-12.64-4.53,1.04-3.24-2.63-6.08-.1-9.01,2.24-9.63,1.15-3.76,8.72-8.25Z"/>
        <path class="cls-23" d="m1899.68,1080.98c-.29-1.13-.91-1.64-2.21-1.64-1.39-1.46-3.29-1.24-4.95-2.05-1.5-.34-2.54-1.66-4.29-1.22-.37-1.88-.02-3.55,1.79-4.82,4.29,2.24,9.83.46,11.86-3.55,5.92,2.45,10.59-3.73,14.76-.99,3.63,2.47-2.1,5.78-.42,9.15.26,2.01-1.25,3.67.65,5.46-4.13-.62-8.48,4.65-11.89,1.1-1.36-1.42-3.39-.78-5.3-1.44Z"/>
        <path class="cls-23" d="m1877.58,1074.81c.45,3.51-5.37,4.43-4.09,8.15.36.85.08,1.72-.71,1.67-3.2.29-5.18,3.03-8.33,3.59-2.37.24-3.62,4.06-6.13,2.11-4.69-2.51-9.89,1.05-14.81-1.49-3.12-1.84-5.74,2.73-8.61,1.74-6.7.81-9.56-5-14.96-3.88-3.59,1.1-6.73-2.02-9.29-3.81-.48-4.14-4.3-4.22-6.9-6.2-4.58-4.67-5.64,11.28-13.17,7.46-10.01-6.16-2.51,1.37-12.39-2.35-2.48-1.61-.49-5-5.11-6.68.12-2.35-1.34-3.95-2.21-5.96,6.06-4.8,8.01,1.7,10.28-2.46.97,3.43,5.67,2.59,5.46,6.24-1.08,5.9,5.69,1.73,6.77-1.04.92-1.89-2.16-3.88.29-5.07,3.76-2.23,7.26-7.16,12.34-4.17,2.74,7.13,3.3,4.48,8.38,9.25,1.51,2.71,5.8.81,6.05,3.95-.23,4.28,4.87-1.28,9.24-.23,6.86,1.5,2.47,8.46,9.33,4.45,4.29-2.86,1.75,5.37,7.45,3.21,6.83-.93,9.9,4.6,12.09-4.82.27-.2.51-.2.93-.21,3.29-3.42,5.2-1.67,7.98,1.15,4.79,2.59-.11-9.68,8.38-7.82.66,1.11,1.16,2.09,1.73,3.24Z"/>
        <path class="cls-23" d="m1764.24,1065.5c-2.38-.37-2.46-2.58-2.59-4.27.22-3.25-2.24-5.54-2.29-8.67.15-1.59-.64-2.96-1.07-4.63,4.12,2.1,4.07,13.32,5.95,17.57Z"/>
        <path class="cls-34" d="m1807.48,1000.37c-.71-4.1,7.92-.76,6.93-8.41-.39-2.94,2.32-6.98,5.66-5.55,7.59.07,16.02-3.01,22.3-7.49,1.96-.99,3.4-8.11,5.87-4.72,4.04,4.33,7.21-.8,2.43-3.77-1.48-.35-2.98-2.7-.65-2.86,2.16.61,4.95-.1,5.78-2.42,2.6-8.31,14.38,1.11,19.11-5.47,1.22-2.39,3.82-2.29,6.02-3.13,5.59-3.89-3.63-5.39,4.04-10.76,3.43-3.52,6.74,3.32,10.85,3.23,5.6,1.9,9.36,7.02,15.06,8.79,1.96.83,4.06,1.52,5.44,3.54-5.25-2.04-11.29-2.63-15.87-6.28-1.65-1.18-3.03-1.37-4.63-.03-1.69,2.34-4.64-.81-5.36,1.7-1.16,2.75-4.85,3.22-5.76,6.46-1.09,2.3-1.6,2.48-4.05,1.98-2.29-.47-2.3-.47-3.09,1.9-1.17,3.24-5.81,4.43-3.42,8.34,1.81,3.57,1.44,8.18,3.94,11.37.8.77.87,1.65,0,2.35-1.35,1.1-1.7,2.48-1.52,4.12,1.2,4.81-5.95,3.43-3.42,7.25,2.33,4.34-2.12,8.93-2.99,12.81,1.74,2.12-.23,4.59.72,6.82.34.81-.4,1.39-1.3,1.1-6.6.82-8.97-6.81-13.91-1.45-1.32,1.22-2.39,2.74-4.23,3.33-4.41,1.73-6.71-6.16-11.34-3.26-13.67,10.16-7.93-3.07-17.43-2.5-1.28.34-1.51-.01-1.37-1.4.84-4.68-5.47-1.61-5.61-7.57-.28-5.12-5.76-4.73-8.19-8.03Z"/>
        <path class="cls-34" d="m1917.52,962.27c.89-.19,1.79-.09,2.08,1.27-.94.2-1.48-.44-2.08-1.27Z"/>
        <path class="cls-32" d="m1876.01,1071.48c-5.61,1.31-4.25.86-5.43,5.97.47,2.74-1.34,4.94-3.71,2.5-2.04-2.67-4.03-4.03-7.02-1.73,1.63-5.16,8.52-5.21,12.15-8.61,1.59-.9,4.46-.38,4.01,1.86Z"/>
        <path class="cls-26" d="m1892.4,1077.36c1.84-.31,3.66-.27,4.84,1.78-1.64-.37-3.97.18-4.84-1.78Z"/>
        <path class="cls-35" d="m1833.13,992.26c.87-2.85,3.66-4.26,5.9-5.93,4.79-2.57,2.18,5.26,2.65,7.58.21,3.81.84,7.74,1.94,11.37,1.4,2.45.85,4.88-.19,7.29-2.04,2.76-6.45,2.54-9.35,4.32-5.41.8-14.37-9.22-9.76-14.1,2.09-.99,2.03-4.01,4.36-4.62,3.03-.61,2.96-3.63,4.46-5.91Z"/>
      </g>
      <g class="cls-5">
        <path class="cls-29" d="m72.78,51.69c.99-.51,1.7-1.51,2.81-1.72,1.91.95,3.5,4.97,5.83,2.92,3.64-2.46,8.04-6.5,12.6-5.77,3.61,1.08-.93,3.01,5.06,6.34,2.74,1.37,3.53,4.31,5.36,6.39.67,1.11-.32,2.51-.37,3.72-1.64,3.88,3.53,3.61,2.84,7.08-.35,1.54-.37,3.04,0,4.59,1.21,3.68-4.3,3.81-3.99,7.25.03,3.3,4.16-1.03,5.47,2.77,1.17,2.28,4.27,1.1,5.69,3.3,1.35,1.36,2.56,2.94,4.54,3.56,1.03.32,1.32,1.31,1.39,2.28.17,2.54,2.31,4.17,2.96,6.51,1.61,2.11,5.02-1.34,6.88,3.09.48.95,1.29,1.85,2.07,2.43,2.82,2.09,2.91,5.81,5.23,8.21,1.72,1.38.04,4.43,1.4,5.89.71.39,1.1-.28,1.52-.67,1.16-1.07,2.44-1.89,3.98-2.29,1.12-.29,1.79-1.08,2.34-2.07,1.62-4.47,4.99,6.19,7.07.67,1.58-3-1.01-8.09,1.93-10.11,1.77-.59,3.94-1.08,5.66.71,1.25,1.31,2.49.59,3.23-.52,3.1-4.62,7.69-2.98,11.86-2.9,2.9.24,2.75,4.37,5.39,5.33,5.04,4.02-2.39,6.72-1.03,8.62,3.25,7.05,7.58,3.54,7.54,6.63-.87,3.76-2.72,6.75-5.36,9.31-2.42.55-3.23.2-3.7-1.89-.47-2.12-2.18-3.35-3.21-5.05-.21-.35-.67-.52-1.07-.46-2.01.28-3.54-1.13-5.38-1.48-1.84-.64-1.78-4.39-2.2-6.41-2.37,2.15-5.09,1.42-7.22,3.35-1.05,1.05-2.18,1.73-3.74,1.59-1.99-.68-1.3,7.33-6.54,11.81-.84.98-2.03,1.54-3.26,1.27-7.9-1.95-7.45,9.91-13.79,10.16-1.3-.42-1.2-1.59-1.35-2.66-.62-2.22.94-3.77,1.61-5.65-.04-2.15.96-3.55,3.04-4.25-2.3.46-2.92-.01-2.75-2.24-.45-2.26-2.76-3.13-1.48-5.98,2.23-3.33,1.6-6.57.29-9.87-.61-1.54-1.5-6.58-3.65-3.49-.38,2.41-3.18,1.97-3.49-.26-.15-.49-.15-1.16-.89-1.15-.56,0-.76.51-.94.94-.75,2.5-3.06,2.27-4.98,3.19-.93.66-1.78.49-2.54-.26-8.88-7.79-8.04,5.43-15.89,8.01-3.53,2.33-4.41,2.91-7.24-.38-.94-.96-1.42-2-.64-3.25.75-1.2.32-2.02-.73-2.7-2.25-1.55.24-4.19-1.91-6.6-1-1.98-3.01-3.48-2.74-6.1.08-.71-.81-1.19-1.43-1.6-4.01-3.48,2.93-3.64,5.19-4.02-1.07-1.51-2.95-.78-4.21-1.96-4.12-3.3,4.47-2.23,1.2-5.72-1-1.92-1.61-4.57-1.04-6.53,5.21-4.92,8.95,5.28,12.46.23,1.21-2.09,1.71-4.6,3.97-5.94,1.56-1.01,2.21-3.46,1.56-5.2-.05-.13-.07-.32-.18-.35-2-.41-3.23-2.75-5.62-2.18-1.34.32-2.51.09-3.42-1.09-2.74-3.44,1.67-3.33,1.89-5.66-.19-.8-2.47-1.87-3.01-1.06-1.57,2.1-3.93,3.43-5.32,5.73-.74,1.89-8.6,5.22-8.32,1.82-.42-2.31.95-6.02-1.59-7.17-4.07-2-9.44-6.24-5.64-11.08Z"/>
        <path class="cls-16" d="m163.91,41.22c1.48,1.38,1.4,3.56,2.65,5.15.72,1,1.81,1.63,2.49,2.63,2.48,3.83,7.2,6.46,4.22,11.81.38,3.63-2.63,5.38-4.36,7.83-3.93,4.6-6.23-8.52-9.73-4.55-1.54,4.79-6.03,5.73-10.59,5.82-6.28-.46-8.06-8.43-13.58-10.93-3.09-2-6.58,1.3-10.99-.58-2.99-1.36-1.95-6.12-5.13-7.58-3.53-1.28-2.55-6.22-6.14-7.25-4-1.05-1.69-6.91-6.24-7.18-.54-.13-1.61-.46-1.42-1.3,1.46-1.39,3.3-1.34,4.84-1.08,4.37.71,8.72.22,13.07.16,2.26-.03,4.54.14,6.77-.64,5.48.5,11.18,2.42,16.82,2.94,2.41,1.25,5.36-2.8,7.26-.49,2.14,4.18,6.67,2.75,10.05,5.23Z"/>
        <path class="cls-26" d="m106.02,168.23c-.91-.18-1.61-.45-2.29-1.11-1.83-.6-3.74-.77-5.28-2.06-.94-1.42-2.04-2.42-3.64-2.53-7.13-.88-13.94-6.93-15.96-13.6.29-1.64-.5-2.77-1.78-3.55-4.81-3.34-16.09-14.61-12.39-20.68.9-1.29.64-2.49-1.06-3.19-11.48-3.56.32-14.06-9.6-14.4-2.29.08-1.71-2.6-2.68-3.79-.54-.71-.98-1.38-1.02-2.29.42-5.85-.91-11.49,1.61-17.05.97-3.07.97-7.05,4.26-8.82,5.61,2.53-.8,6.9,2.81,10.37,2.76,2.97-1.8,5.3-.71,9.7.44,1.31,4.72,2.04,6.19,2.02,2.33-.75,3.84,2.72,2.15,4.12-3.47,2.74-1.56,5.67-.64,8.72,1.13,5.48,6.25,4.93,8.61,8.27-.1,1.79,3.41,2.07,1.94,3.76-1,2.15-4.97,4.97-2.24,7.09,2.56,2.47,5.74,1.51,8.76,2.01.91.44,1.79.5,2.72.07,3.01-.68,6.04,2.76,7.04,5.48.65,2.35,1.32,2.69,3.63,1.83,2.2-.57,8.2.73,7.44,4-2.73,1.72-3.2-3.03-7.47-1.16-3.41.77-4.59,3.75-6.9,5.54-1.35,1.05-1.49,3.1-.89,4.7,1.33,4.24,7.01,2.79,10.01,5.28,1.59.69,1.86,2.99,2.8,4.52,1.08,2.37,5.72,3.99,6.66.97.46-4.56,5.28-5,7.36-7.97.28-1.55,1.37-2.23,2.87-2.68,3.15,1.44,1.41,5.53,4.46,6.75,1.48.68,2.69,1.73,3.9,3.03,3.73,7.68-11.9,9.25-16.76,8.51-1.31-.53-2.45-1.38-3.94-1.84Z"/>
        <path class="cls-32" d="m72.33,52.13c.59,2.8-1.44,5.21,1.92,7.21,1.67,2.22,7.18,2.85,6.23,5.83-.18.75-.38,1.4.16,2.08.51.89-.36,1.95-.21,2.93-.6,2.18,7.27-1,7.35-2.12,1.05-1.32,1.91-3.05,3.3-4,1.04-.35,1.63-1.03,2.09-2.01.53-1.15.79-1.16,1.91-.31,1.08.72,3.23.41,2.29,2.33-.3.76-.89,1.08-1.59,1.41-2.99,1.05-.58,4.22,1.21,4.31,1.69-.07,3.45-1.07,4.55.87,1.09,1.37,3.99-.03,3.04,2.73-.38,1.36,1.03,3.32-.69,4.05-5.13,2.37-3.03,8.25-8.68,8.83-.86-1.45-2.72-1.63-3.71-2.96-.89-1.19-1.1-1.18-2.17-.16-1.44.72-3.8-.77-3.09,2.23.31.94.79,1.73.44,2.86-.27.89.81,1.45,1.3,2.15,1.86,3.22-1.35,2.61-2.93,3.77.81,2.33,3.54,1.84,5.35,2.79,1.18.28.73,1.98-.39,1.75-1.6-.39-8.61.28-5.02,2.6.94.49,2.77,1.82,2.07,2.97-1.05,1.01,3.03,5.41,3.6,6.98.9,1.79-1.7,3.64.87,4.69,3.63,1.69-2.06,3.96,1.33,5.94,2.88,2.98,2.14,2.76,5.61.8,1.78.48.63,3.23,2.07,4.67-1.52,1.63-4.64,2.81-5.93.45-.87-3.04-5.65-5.01-4.33-8.32,1.57-2.74-4.34-2.11-2.83-5.02,3.26-7.22-5.97-6.46-4.59-9.75,1.13-4.38-2.25-9.08.37-13.58,1.52-3.89-4.07-4.9-6.96-5.4-.77-.26-1.21.19-1.7.74-1.67,2.65-8.44,1.52-6.74-2,3.5-4.01-.47-8.95-4.18-11.19-7.12-6.35,7.6-12.01,5.84-19.17.86-.52,1.85-2.2,2.83-1.99Z"/>
        <path class="cls-32" d="m131.83,125.23c.29.22.5.49.36.73-1.29,2.24.71,3.63,2.23,4.81-.45.6-1.72.95-.82,2.01.42.5.84.91,1.5.36.52-.37,1.05-1.05,1.75-.57.57,2.58-4.35,1.52-3.18,4.71.01,1.77-2.41,3.02-2.06,4.79.91,12.3,8.03-8.29,12.43-6.77,5.98,1.51,8.37-4.56,10.03-9.2.47-1.4-.65-3.89,1.63-3.83,2.78.92,3.7-2.08,6.07-2.67,1.57-.61,3.48-.4,4.64-2.02.53-.59,1.93-.04,1.4.92-.58,1.44,1.06,2.55.72,4.04-.35,2.15,1.8.83,2.71,1.67,1.39,2.24,4.66-.33,5.47,2.29.23.58.48,1.15,1,1.47,2.58,1.53.7,5.63,4.56,5.09-1.23,5.04-6.54,8.94-9.77,12.9-1.72,1.48-2.68,1.66-4.23-.02-1.84-1.98-3.63-3.94-6.36-4.76-1.11-.34-1.94-1.22-2.33-2.37-.4-2.87-5.88,3.05-7.1,3.84-2.57,3.35-5.58-1.55-8.69-.34-1.25.25-2.19,1.04-2.15,2.52.02,7.35-10.41,10.55-14.02,3.92-3.15-2.42-7.48-1.22-8.22-6.77.32-.7.83-.81,1.38-.89,6.13-.46,5.08-6.19,5.51-10.68.37-2.69,4.08-2.85,5.53-5.25Z"/>
        <path class="cls-24" d="m192.97,116.6c-.26.37-.65.59-.69.86-.34,1.95-2.22,2.32-3.02,4.02-1.88-.78.3-4.44.2-6.11.6-2.29-1.82-4.07.03-6.28.65-.92.17-2.01-1.27-2.02-2.67-.55-3.86-4.22-6.88-4.47-3.79-1.59-7.71.02-11.56-.26-1.81-.65-3.6.25-5.4.14-2.34-.56-4.43-.54-6.7.81-1.32.79-3.36.62-5.08.85-9.94-.32-13.29,11.57-17.08,5.21-1.19-1.84-2.91-3.23-3.76-5.42-1.37-2.74-6.5-1.75-7.4-5.25-2.04-2.57-1.01-7.72-4.53-8.64-3.25-.17-2.97-3.77-4.81-5.66-5.57-5.82,6.19-13.86-3.99-17.8.28-2.9,4.4.4,4.3-3.73.06-.86.28-1.73,1.06-2.47,1.47-.28,2.78-.26,4.11.51,2.91,11.97-2.23,5.44-1.02,14.69-1.34,1.28-.77,2.34.01,3.63,1.25,3.41-2.82,7.59,2.91,8.4,8.81,1.3,1.32,9.6,9.4,9.67,3.6.44,4.14.97,4.64,4.58.05,3.28,3.14,5.54,5.07,2.08,2.59-3.45,8.13-1.58,9.85-6.14,1.23-2.36,3.87,1.3,6.45-1.74,5.88-.46,5.92-11.12,11.39-11.37,2.7.68,5.52-1.91,7.05,1.66.39.82,1.43.65,2.22.43,2.37-.66,4.64.68,7.01.29.47-.08.83.41,1.09.81,1.33,1.88,4.37,1.56,4.38,4.47,2.06,10.36,6.45,12.42,2,24.24Z"/>
        <path class="cls-25" d="m110.86,66.24c3.45,1.17,6.1,3.23,4.73,7.18-.56,1.55-.01,3.23-1.37,4.5-1.07,1.03-.6,2.4-.24,3.62.79,2.4,3.06,3.86,3.45,6.51.21.96,1.34,1.46,2.41,1.5,4.98.32,2.45,11.17,8.18,11.57,1.58.08,2.35,1.74,3.96,1.76.43,0,.62.98.73,1.55.11.61.1,1.29.65,1.63,2.14,1.24,3.88,7.21,6.68,3.81,1.17-1.8,3.29-2.58,4.34-4.46.26-.47.81-.46,1.28-.39,2.32.42,4.04-1.73,6.38-1.43.94,0,1.88.22,2.65-.57.33-.34.76-.13,1.15-.03,2.45.97,3.33-2.54,5.82-1.53,2.73,1.32,5.54-.58,8.31.38,3.12.25,6.25-1,9.53-.2,2.22-.15,3.68,1.4,5.44,2.34.9.22,1.51.54,1.6,1.67.15,2.07,2.91-.21,3.45,1.35,1.58,2.79-1.9,2.95-.45,5.17,1.64,2.93-.91,6.13-.47,9.31-.19.89-.29,1.73-.92,2.5-1.34-2.38-4.66-.03-6.43-3.8-.49-1.55-3.44-3.23-1.61-4.74,2.25-1.14,4.05-5.38.98-6.48-4.22-1.88-1.4-6.94-9.86-5.22-1.95.69-4.82-.92-5.69,1.78-1.07,2.07-3.82,4.02-5.21,1.28-.21-.33-.5-.77-.93-.68-1.32.61-3.56-.56-4.37.61-.99,3.17.12,6.54-1,9.72-.84,4.25-5.39.31-6.31-1.9-.47.07-.57.3-.64.57-.43,1.73-1.43,2.76-3.29,3.07-2.5.02-6.01,6.59-6.38.97,1.26-4.05-3.02-5.36-3.15-8.8-.1-2.07-2.75-2.25-3.16-4.22-.1-.34-.37-.55-.68-.71-.69-.36-1.05-.97-1.38-1.67-1.35-4.06-6.73.88-7.27-4.08-.22-.83-.32-1.64-1.25-2.17-1.79-.96-.16-4.14-1.95-4.98-3.7-.27-4.36-5.24-8.06-5.22-3.03.38-2.62-5.25-5.93-2.98-3.34,1.84-2.67-4.67-.19-5.5,2.28-1.22,2.62-1.92,1.79-4.36-.93-2.13,1.2-3.96-.16-5.96,1.38-1.08,3.16-1.38,4.82-2.27Z"/>
        <path class="cls-23" d="m136.55,151.62c2.28-1.29,4.83-3.81,4.61-6.4-.17-.64-.61-1.3.07-1.85,1.56-2.16,5.55-2.57,7.4-.29.52.77,2.72.35,3.41-.57,1.02-1.7,2.87-2.36,4.32-3.49.64-1.25,1.93-1.54,2.93-2.24,2.06,6.37,4.75,2.58,9.06,8.51,1.75,2.06,2.04,1.99,3.98,0,1.66-1.09,2.44-3.39,4.05-4.13.53,2.16-1.91,3.63-3.29,5.03-.67.81-.41,1.85-1.18,2.53-2.35,4.77-6.1,8.75-11.43,9.71-3.37,1.88-6.55,3.81-10.53,4.06-2.12.33-4.4,1.33-5.89-1.27-4.3-1.75-5.86-5.61-7.52-9.6Z"/>
        <path class="cls-21" d="m111.13,66.16c-5.05,4.67-9.9,1.23-7.03-5.09.61-1.58-2.01-1.77-1.87-3.56-.73-3.72-8.37-4.5-7.02-8.42.51-2.16-3.73-1.92-5.07-.98-2.98,1.9-6.32,3.2-8.95,5.67-1.05.99-1.44.94-2.34-.1-.99-1.15-2.65-1.7-3.09-3.53.2-.34.44-.52.82-.77,6.43.82,10.42-4.85,16.32-5.19,2.52-.61,6.63-4.83,7.88-.12.65,2.91,1.45,3.23,3.99,1.47,3.43-2.15,7.1.05,6.12,4.05,1.41,2.39,1.78,5.34,3.86,7.36.94.91,1.74,1.85,1.99,3.33-1.69,1.92.15,6.02-3.37,5.47-.72-.03-1.48-.27-2.22.42Z"/>
        <path class="cls-27" d="m163.33,40.95c-.36.14-.67.36-.87.16-3.94-2.62-6,.31-9.18-5.06-.54-.68-1.1-.73-1.69-.12-.72.75-1.7.58-2.55.86-4.05.74-7.79-1.05-11.81-1.29-3.01-.42-6.16-2.7-9.13-1-5.96.31-12.14.91-18.15-.02-3.2-.38-5.99,1.59-8.6-1.99,3.09-4.32,13.14-1.62,18.07-3.52,2.47-.61,5.21.02,7.54-1.19,3.89-2.21,7.85-.85,12.05-.97,2.85,2.02,6.43.03,9.24,1.64,4.91,4.06,12.13,6.67,15.07,12.51Z"/>
        <path class="cls-9" d="m136.43,151.49c1.27,2.35,2.77,4.46,4.42,6.48.32,1.73,1.36,2.45,3.1,2.35,1.51-.25.56,2,1.68,2.05,2.64.32,4.91-.87,7.5-1.03,1.29-.02,2.5-.38,3.49-1.34,1.23-1.19,2.73-1.91,4.4-2.3,2.14-.98,4.86-1.02,6.22-3.21.67-.88,1.05-2.07,2.4-2.46.14,2.6-2.23,4.51-3.75,6.41-1.25.24-1.04,1.56-1.92,2.19-1.87,1.53-4.02,2.6-5.75,4.39-4.68.31-8.51,2.98-13.33,2.11-5.59-.86-10.67,1.34-16.16,2.4-1.21-.86-2.45-1.5-2.93-3.05.89-1.38,1.82-2.59.75-4.31-.29-3.27,4.12-4.75,6.66-5.93,1.77-.48.62-2.13.64-3.43.73-.74,1.38-1.43,2.58-1.31Z"/>
        <path class="cls-8" d="m53.15,107c3.02-1.27,7.22,1.05,6.01,4.3-1.57,2.63-.06,5.08.51,7.57.6,1.5,2.92.41,3.73,1.96,1.62,1.1,3.27.83,2.18,3.19-.1,1.5-1.95,2.55-1.36,4.03,2.66,7.37,8.2,13.27,14.35,17.86.75.86,1.34,1.7.8,2.89.69,4.46,5.17,8.21,8.79,10.85,3.04,3.09,8.51.78,10.49,5.02-.23.88-1.16.58-1.64.13-2.27-.23-4.18-1.57-6.38-2.13-1.63-1.79-4.09-2.73-6.27-3.7-1.78-1.43-3.49-2.97-5.11-4.61-7-6.76-15.12-13.38-17.73-23.14-3.96-7.68-8.15-15.11-8.38-24.21Z"/>
        <path class="cls-35" d="m194.58,105.56c-.34-4.65-2.61-8.69-2.49-13.42.38-3.61-2.25-6.62-2.15-10.16.2-3.36-3.6-1.77-5.56-3.05-.08-2.62,4.02-1.2,3.28-4.06-1.04-4.63-2.59-10.21-6.78-12.82-6.11-2.62-6.07-10.36-12.01-12.99-.32-.6-1.02-.55-1.13-1.26,12.7,3.35,18.69,16.12,24.08,26.67,1.36,1.49.53,3.89,1.89,5.4,2.56,6.4,1.55,13.57,2.67,20.28.24,1.2.37,10.99-1.69,7.29.07-.59.12-1.18-.11-1.89Z"/>
        <path class="cls-24" d="m105.05,45.78c-1.16,2.04-4.91,1.97-4.74-.84.62-2.79-2.51-3.2-4.55-1.68-1.05,1.54-2.53,1.58-4.18,1.49-4.86.99-9.46,6.91-14.78,4.66,4.42-4.19,9.21-7.87,13.95-12,4.12-.44,7.58-2.6,11.74-.57.72,1.51.84,3.18,2.45,4.05.48.26.42,1.01.14,1.48-.65,1.11-.41,2.18-.02,3.41Z"/>
        <path class="cls-9" d="m69.4,53.97c3.44,4.71-12.51,13.38-5.6,18.94.22,1.9-.38,3.32-2.05,4.33-2.01-.61-2.78-2.78-5.34-2-3.4,2.56-3.15,6.4-4.33,10.01-2.53,5.14-.25,10.5-1.44,15.8-4.09-1.23-3.55-10.29-1.76-13.38.04-3.67,2.23-6.09,4.1-8.96,4.45-8.84,8.1-18.93,16.42-24.75Z"/>
        <path class="cls-11" d="m128.8,169.46c6.32-3.08,13.37-3.07,20.27-2.71,3.06.09,5.96-3.15,8.92-1.72.29,1.12-1.12.96-1.68,1.55-.99.79-1.91,1.35-2.79,2.28-.62.11-1.05.32-1.5.77-6.37.2-12.43,1.79-18.59,2.67-4.22.82-9.6,5.66-13.48,1.47.77-1.37,2.16-1.03,3.23-1.49,1.89-.8,3.65-1.85,5.63-2.81Z"/>
        <path class="cls-10" d="m123.96,175.43c8.47-3.77,18.39-6.27,27.84-5.82-7.78,5.18-18.58,8.65-27.84,5.82Z"/>
        <path class="cls-31" d="m139.06,26.7c-3.07,1.84-7.69-1.12-11.04,1.14-8.62,2.78-18.72,2.07-27.15,3.81,4.74-3.85,33.19-8.22,38.19-4.95Z"/>
        <path class="cls-8" d="m128.85,169.32c-2.35,2.76-5.59,3.28-8.77,4.43-.14.31-.25.46-.58.55-1.26-.35-2.42-.72-3.62-1.17-.55-1.15-5.11-1.41-3.17-2.91.44-.27,1-.24,1.67-.3.48-.24.8-.64,1.18-.55,3.92.57,6.72-1.52,10.08-3.02.89,1.15,2.34,1.64,3.19,2.97Z"/>
        <path class="cls-6" d="m53.1,106.72c1.28,5.13,2.14,10.04,4.02,15,1.38,3.77,4.51,6.41,5.17,10.49,2.57,8.27,9.68,13.85,15.08,20.19-6.61-3.96-11.17-10.89-15.22-17.28-1.12-3.08-1.49-6.19-3.63-8.78-4.88-6.66-4.98-15.3-7.26-23.03,1.35.64,1.03,2.23,1.85,3.41Z"/>
        <path class="cls-35" d="m100.72,31.54c1.2,1.28,4,2.29,4.47,3.7-1.57,3.91-8.31-.46-11.83,2.27-.67.29-1.52.74-2.36-.12,2.73-2.68,6.08-4.56,9.72-5.85Z"/>
        <path class="cls-6" d="m175.5,144.12c-.62-1.18.65-1.72,1.04-2.78,1.63-1.33,2.04-3.03,3.71-4.31-.6,2.26-2.84,5.04-4.75,7.09Z"/>
        <path class="cls-34" d="m194.63,107.57c1.16.48.9,1.71.43,2.67.25,1.13-.06,2.53-.81,3.39-1.75-1.1.33-4.16.38-6.05Z"/>
        <path class="cls-27" d="m166.72,46.35c-1.66.69-1.75-2.79-2-4,1,1.09,2.4,2.05,2,4Z"/>
        <path class="cls-9" d="m114.45,169.83c-.42.8-2.32.24-1.83,1.5-1.06.37-1.66-.56-2.55-1.16,1.36-.26,2.79-.74,4.38-.34Z"/>
        <path class="cls-9" d="m105.97,168.31c1.49-.25,2.69.5,3.88,1.63-1.51.33-2.47-1.02-3.88-1.63Z"/>
        <path class="cls-11" d="m97.6,165.29c.22-.23.52-.32.93-.45.78.35,1.44.74,2.2,1.24-1.05.25-2.17.26-3.13-.79Z"/>
        <path class="cls-6" d="m181,136.27c-.27-1.25,1.18-2.66,2-3.62.01,1.44-1.11,2.38-2,3.62Z"/>
        <path class="cls-35" d="m193.78,113.5c1.13.68-.14,2.35-.72,3.15-.49-1.1.36-2.01.72-3.15Z"/>
        <path class="cls-6" d="m84.34,159.05c1.33-.65,2.05.56,3.11,1.3-1.24.39-1.95-.81-3.11-1.3Z"/>
        <path class="cls-10" d="m119.45,174.4c.04-.21.18-.31.42-.48.95.32,1.8.71,2.75,1.21-.86,1.01-2.14-.32-3.17-.73Z"/>
        <path class="cls-9" d="m170.5,151.4c-.43-1.08.38-1.71,1.21-2.5.89.89-.87,1.55-1.21,2.5Z"/>
        <path class="cls-11" d="m101.19,166.53c.81-.68,1.53-.19,2.35.38-.78.52-1.58.51-2.35-.38Z"/>
        <path class="cls-6" d="m79.15,154.38c.96-.18,1.19.71,1.82,1.35-1.12.52-1.37-.48-1.82-1.35Z"/>
        <path class="cls-6" d="m161.89,162.12c.45-.56.92-1.18,1.83-1.41-.09.98-.63,1.57-1.83,1.41Z"/>
        <path class="cls-6" d="m92.85,163.5c.93-.54,1.48.28,2.28.83-.86.39-1.55-.09-2.28-.83Z"/>
        <path class="cls-10" d="m60.35,63.94c.52.97-.32,1.51-.95,2.28-.2-.84.16-1.58.95-2.28Z"/>
        <path class="cls-6" d="m164.57,160.09c-.23-1.05.04-1.47,1.1-1.64-.29.54-.42,1.2-1.1,1.64Z"/>
        <path class="cls-9" d="m172.5,148.15c-.56-.62-.39-1.19.36-1.76.17.54.22,1.16-.36,1.76Z"/>
        <path class="cls-6" d="m49.68,100.97c.6-.46,1.34.61,1.01,1.19-.5-.16-.87-.51-1.01-1.19Z"/>
        <path class="cls-6" d="m95.35,164.54c.43-.44.93-.48,1.5.05-.42.41-.93.5-1.5-.05Z"/>
        <path class="cls-10" d="m156.33,166.69c-.11-.69.18-.96.94-.63-.15.35-.4.63-.94.63Z"/>
        <path class="cls-6" d="m166.75,157.69c-.4-.49-.27-.87.48-1.01.23.46-.03.72-.48,1.01Z"/>
        <path class="cls-6" d="m90.62,162.72c.4-.04.97-.66,1.33.22-.47.25-.88.22-1.33-.22Z"/>
        <path class="cls-10" d="m74.73,50.17c.1.52-.13.8-.75.79-.13-.55.12-.8.75-.79Z"/>
        <path class="cls-6" d="m82.36,157.46c.46-.18.7.08,1.01.49-.5.42-.91.35-1.01-.49Z"/>
        <path class="cls-35" d="m195.15,110.26c-.28-.36-.23-.78.21-1.23.42.39.31.79-.21,1.23Z"/>
        <path class="cls-35" d="m194.87,112.51c-.42-.38-.3-.76.2-1.18.28.35.23.75-.2,1.18Z"/>
        <path class="cls-11" d="m115.84,173.21c.39-.4.76-.26,1.17.22-.35.3-.75.24-1.17-.22Z"/>
        <path class="cls-10" d="m72.45,52.16c-.15.04-.2-.01-.31-.15-.08-.62.18-.71.71-.43-.04.21-.16.35-.4.59Z"/>
        <path class="cls-35" d="m163.28,41.05c0-.5.91-.44.77.17-.29.15-.5.09-.77-.17Z"/>
        <path class="cls-6" d="m160.02,163.58c-.15-.38-.06-.61.45-.57.14.38.02.58-.45.57Z"/>
        <path class="cls-10" d="m154.41,168.13c-.36-.42-.48-.84.44-.55-.05.2-.19.33-.44.55Z"/>
        <path class="cls-10" d="m62.39,60.67c.27.24.37.56-.04.95-.28-.25-.36-.57.04-.95Z"/>
        <path class="cls-10" d="m152.63,169.23c-.11-.58.15-.66.67-.36-.08.26-.28.4-.67.36Z"/>
        <path class="cls-28" d="m132.05,125.09c-1.56,4.18-5.33,2.45-5.32,6-.46,5.5,1.3,6.15-3.38,10.32-.41.43-.99.32-1.53.3-2.04-.32-4.15.9-6.14,1.48-2.72-.8-3.96-3.7-4.46-6.25-.42-1.79,2.95-4.39.6-5.34-3.58-1.07-6.65-3.72-10.79-3.48-.31-.14-.44-.29-.54-.61-2.03-1.07-1.1-2.93-1.81-4.79.88-1.71,3.31-1.01,3.86-2.86.93-2.17,3.84-2.53,4.1-5.18.45-1.09.7-2.79,2.18-2.8.86.15,1.42-1.06,2.19-.73,1.51,1.24,3.71,1.36,4.92,3.11.49.72,1.28.87,1.8,0,1.54-1.42,3.97.1,4.68-2.81.09-1.52,2.29-2.57,2.73-.73.17.76.04,1.62.74,2.23,2.52,1.88,1.04-3.31,3.58-2.47,3.36.41,2.06,5.15,3.73,7.4,1.34,2.73.47,4.89-1.16,7.22Z"/>
        <path class="cls-13" d="m102.42,37.2c.69-.8,1.79-.89,2.57-1.79,9.32,1.62,2.28,5.89,8.63,7.92,3.42,1.18,1.98,6.02,5.9,7.24,3.03,1.29,1.99,6.31,4.73,7.43.94-.2,1.7.19,2.52.47,1.75.68,3.49-.62,5.3-.65,2.68-.71,3.93,1.55,5.91,2.69,4.51,2.46,5.79,10.31,12.07,8.84,2.4-.64,5.92-.2,7.18-2.79,1.02-1.37,1.38-4.33,3.48-4.17.78.07,1.3.27,1.26,1.18,0,.16.16.46.28.48,1.96.29,1.98,2.18,2.76,3.39.54,1.37,3.1,2.49,3.67.65.73-1.73,2.57-2.66,3.61-4.24.25-1.79.38-3.64,1.27-5.33,1.46-4.79-5.31-7.15-4.85-9.49,6.29.8,5.91,8.92,11.09,11.69,5.52,2.73,7.96,9.6,8.57,15.41.07.96-.65,1.26-1.44,1.35-4.45.16-1.46,8.22-8.11,4.17-.87-.56-1.73-1.08-2.8-1-6.11.82-7.02-9.85-12.17-8.48-2.15.82-3.74-.2-5.15-2-.44,1.1-.05,2.07-.35,2.95-.36,3.01-4.32,2.75-4.19-.26.09-1.84-.78-1.97-2.23-1.74-6.89.73-13.39-4.27-17.93-8.94-3.22-5.28-7.34,3.88-11.45-.39-1.6-1.08-3.9-.91-5.73-1.31-1.01-2.51-4.21-3.46-4.34-6.13-.06-1.5-1.55-2.62-2.11-4.02-.43-.52-.44-1.18-.12-1.71,1.69-3.03-2.95-4.17-5.09-2.78-3.11-1.82,1.46-4.35-1.29-5.24-1.86-.45-.96-2-1.47-3.4Z"/>
        <path class="cls-30" d="m111.31,136.6c.5,1.03.86,2.03,1.26,3.16-.23,1.04-.99.98-1.6.82-3.24-.97-3.58,6.22-7.19,2.15.04-2.51-2.26-2.36-3.77-3.49-2.02-2.07-3.67,1.02-5.77.31-3.4-.87.59-2.83-6.04-7.53-1.67-1.56-3.03,1.17-4.62,0-1.2-1.04-2.25-.52-3.52-.07-1.76-.95-4.25-.01-5.57-2.15-1.63-.52-2.69-2.07-1.32-3.67,1.42-1.43,1.91-3.47,3.45-4.77-.59-1.14-2.55-.5-2.31-2.36-.26-2.5-4-2.48-5.69-3.87-2.22-.88-1.76-3.52-3.2-5.11-.96-1.34-.92-3.1-1.22-4.63-1.56-3.19,3.52-3.48,2.56-6.49-.39-1.3-.85-1.58-2.17-1.05-.47.18-.92.39-1.34.1-1.45-.98-3.17-1.02-4.78-1.39-2-1.02-.36-6.24.72-7.94,1.71-2.53-2.79-3.48-2-5.89.58-3.33,2.48-4.58-.79-7.36,2.25-1.93,3.59-.18,5.06,1.62,2.52,3.15-3.21,7.3,1.6,9.46,4.76,4.85-.85,8.57,10.41,6.73,1.44-.14,2.3.42,2.35,2.02.06,1.92,1.29,3.8.51,5.73-.64,1.57-.66,3.09-.45,4.71.08,3.13,3.9,4.01,3.9,7.22.41,7.35,5.87,6.71,8.34,11.54.64,1.75,1.96,3.07,3.3,4.28,1.18,1.07,2.18,2.16,2.52,3.77,1.17,2.51,6.59,3.41,9.15,4.9.44.13.91.63,1.3.28,2.05-1.8,4.53-.8,6.94-1.06Z"/>
        <path class="cls-22" d="m103.63,142.64c1.31,1.71,4.1.59,4.4-1.43.63-2.69,2.68-.45,4.46-1.23,1.07.92,1.73,2.21,3.17,2.95,1.48.41,1.66,1.51,1.83,2.78-.7,2.31,3.1,4.29,1.12,6.16-4.22,1.96-1.19,3.52-4.08,4.49-8.64,3.34-3.35,9.04-9.3,8.05-3.1.87-5.28-4.05-6.1-6.41-.07-.82-.97-1.21-1.87-1.22-1.04-.01-2.01-.16-2.64-1.16-.36-.56-.93-.37-1.47-.31-4.88.68-7.17-6.9-3.45-9.35,2.34-.95,2.2-4.39,5.08-4.35,6.54-3.32,2.69-1.14,8.85,1.02Z"/>
        <path class="cls-23" d="m118.55,152.02c.51-.7.5-1.3-.12-2.04.17-1.49-.86-2.46-1.19-3.79-.53-1.01-.27-2.24-1.35-3.02.89-1.1,2.01-1.7,3.59-1.28.77,3.51,4.42,5.8,7.67,5.05,1.43,4.53,7.17,4.24,7.6,7.92.33,3.24-4.28,1.57-5.4,4.12-1.02,1.1-2.68,1.04-2.79,2.97-1.62-2.64-6.69-2.6-6.3-6.23.16-1.45-1.17-2.3-1.71-3.7Z"/>
        <path class="cls-23" d="m111.52,136.51c-1.78,1.93-5.08-.94-6.58,1.56-.31.61-.94.87-1.29.39-1.69-1.68-4.19-1.5-6.01-3.02-1.27-1.23-4.03-.12-4.12-2.47-.81-3.86-5.32-5.12-6.21-9.13-.44-2.65-4.29-1.96-5.09-4.07-3.65-3.43-1.72-7.82-4.93-10.35-2.34-1.51-2.06-4.79-2.27-7.09,2.12-2.25.35-4.46.23-6.88.47-4.83-9.1,2.17-10.52-3.92-1.28-8.63-1.97-.77-4.57-8.16-.27-2.17,2.61-2.66,1.36-6.09,1.39-1.06,1.61-2.64,2.34-4.1,5.62,1.16,2.86,5.37,6.3,4.67-1.49,2.19,1.23,4.46-.94,6.08-3.87,2.2,1.73,4.06,3.82,3.35,1.52-.38,1.17-3.08,3.02-2.25,3.06,1.07,7.53.71,8.25,5.02-2.75,4.96-.97,4.01-1.26,9.17-.82,2.15,2.31,3.68.64,5.32-2.54,1.91,3.05,2.16,4.54,5.14,2.42,4.61-3.63,5.43,1.92,7.42,3.67,1.07-2.22,3.56,1.73,5.77,3.79,3.43,2.11,7.82,8.5,4.57.24.05.36.19.56.43,3.51.24,3.43,2.15,3.15,5.08.81,3.96,5.45-4.68,8.44,1.04-.31.9-.63,1.65-1.01,2.53Z"/>
        <path class="cls-23" d="m62.76,67.66c-.92-1.53.29-2.63,1.19-3.51,1.96-1.42,2.08-3.92,3.84-5.44.97-.68,1.38-1.77,2.12-2.81.77,3.34-5.63,8.66-7.15,11.76Z"/>
        <path class="cls-34" d="m120.39,61.18c1.99-2.36,4.2,4.14,8.08-.07,1.49-1.62,5.07-2.01,5.85.57,3.58,4.34,9.35,7.67,14.89,9.1,1.5.64,6.23-1.94,5.48,1.08-.54,4.36,3.89,3.72,3.3-.41-.5-1.01.12-2.98,1.32-1.73.68,1.52,2.42,2.77,4.13,2.13,5.96-2.49,6.23,8.7,12.22,8.25,1.94-.44,3.12,1.08,4.65,1.93,4.87,1.32,1.33-4.63,8.04-2.84,3.64.27,1.33,5.41,3.34,7.7,1.59,4.09.48,8.67,2.19,12.75.47,1.51,1.07,3.03.58,4.78-1.34-3.95-3.89-7.67-4-12.02-.12-1.5-.67-2.37-2.19-2.65-2.14.15-1.75-3.03-3.53-2.24-2.11.65-4.14-1.22-6.42-.2-1.83.48-2.17.28-3.06-1.36-.83-1.52-.83-1.53-2.56-.85-2.4.88-5.29-1.19-6.37,2.04-1.17,2.73-3.96,4.72-4.58,7.66-.05.82-.52,1.28-1.33,1.13-1.27-.24-2.22.22-3.07,1.1-2.16,2.97-4.79-1.75-5.75,1.51-1.36,3.39-6.09,3.05-8.71,4.41-.38,2-2.72,2.06-3.53,3.66-.3.58-.98.44-1.24-.21-3.61-3.36-.41-8.34-5.81-8.6-1.32-.17-2.69-.05-3.91-.82-3.08-1.68.3-6.75-3.56-8-12.29-2.93-2.04-5.97-6.89-11.1-.8-.56-.71-.86.14-1.45,3.06-1.75-1.69-3.88,1.63-6.8,2.78-2.6-.06-5.53.66-8.48Z"/>
        <path class="cls-34" d="m194.52,105.55c.54.42.9.97.27,1.79-.57-.44-.46-1.05-.27-1.79Z"/>
        <path class="cls-32" d="m112.66,134.04c-3.42-2.57-2.52-2-5.98-.24-1.33,1.57-3.44,1.59-3.19-.91.55-2.44.37-4.22-2.36-4.81,3.71-1.53,7.02,2.36,10.68,2.8,1.27.48,2.34,2.35.85,3.17Z"/>
        <path class="cls-26" d="m117.14,146.16c1.06.9,1.9,1.95,1.29,3.6-.57-1.11-1.99-2.17-1.29-3.6Z"/>
        <path class="cls-35" d="m137.23,71.89c2.03-.86,4.17.05,6.19.52,3.74,1.5-1.95,3.75-3.05,5.12-2.07,1.94-4,4.17-5.54,6.52-.72,1.96-2.37,2.81-4.24,3.37-2.54.15-4.52-2.46-6.92-3.26-3.03-2.69-1.61-12.56,3.36-12.28,1.56.71,3.25-.76,4.71.27,1.79,1.43,3.47-.05,5.48-.28Z"/>
      </g>
      <g class="cls-3">
        <path class="cls-38" d="m1735.59,901.35h2.95c-1.58,5.52,3.67,4.21,2.95,8.86-3.22-1.73-9.33-5-5.91-8.86Z"/>
        <path class="cls-45" d="m1738.55,901.35c.46-2.01,3.7-1.23,5.91-1.48-.12,2.34.71,5.63-1.47,5.91-.59,3.53,6.72-.82,4.43,4.42-11.1-2.23-5.66,12.06-11.82,14.77-2.73-.23-.91-5-2.95-5.91.04-5.95-3.37-8.44-7.38-10.34.54-2.51-1.15-2.78-2.95-2.95,5.74-3.4,6.88-3.26,13.29-4.43-3.43,3.86,2.69,7.13,5.91,8.86.71-4.65-4.53-3.34-2.95-8.86Z"/>
        <path class="cls-38" d="m1744.45,899.87c10.51-1.15,11.94,6.77,16.25,11.82v1.47c-1.32,1.15-3.34,1.59-5.91,1.48-3.04-2.93-1.39-2.93-4.43,0-.65-2.19-1.89.59-4.43,0h-4.43c-.13,4.02,2.46,2.97,0,5.9.27,1.26-.58,1.39-1.47,1.48,2.22,2.21,4.42,4.44,5.91,7.39-9.14-1.35-3.74,9.57-5.91,11.81-1.74.23-4.19-.25-4.43,1.48-1.48,0-1.76,1.19-2.95,1.48h-7.38c1.98-7.4-8.55-2.28-5.91-10.34v-1.48c1.31,1.15,3.33,1.59,5.91,1.48,4.63,1.63,4.16.95,5.91-2.95,3.89.45,3.81-3.08,4.43-5.9,6.15-2.71.72-17,11.82-14.77,2.29-5.25-5.02-.89-4.43-4.42,2.19-.28,1.35-3.57,1.47-5.91Z"/>
        <path class="cls-36" d="m1754.79,914.64c2.57.11,4.59-.33,5.91-1.48-.21,1.74-2.63,3.35,0,4.43-1.49,4.16-6.27-.41-8.86,0,.02-1.96,2.59-1.35,2.95-2.95Z"/>
        <path class="cls-49" d="m1741.5,920.55c2.29,1.65,3.08,4.8,7.38,4.43.15-4.58-4.64-4.21-2.95-10.34,2.54.59,3.78-2.19,4.43,0-.88,4.21,1.83,6.55,0,14.77.35,2.1,2.43,2.49,2.95,4.42,1.72-.25,1.6-2.33,1.47-4.42-4.27-1.66,2.27-1.6,1.48,1.47.27,3.23-1.21,4.7-4.43,4.43.08-2.54-1.14-3.79-2.95-4.43-.04-1.44-1.81-1.15-2.95-1.47-1.49-2.95-3.69-5.17-5.91-7.39.9-.09,1.75-.22,1.47-1.48Z"/>
        <path class="cls-38" d="m1719.35,908.74c1.48,1.96,1.39,5.49,4.43,5.91,1.77,4.06,3.21,6.17,1.48,10.34h-1.48c-2.93-2.46-1.88.13-5.91,0-.07-2.52,1.1-3.82,2.95-4.43-.22-2.73-5-.9-5.9-2.95.66-3.77,2.07-6.79,4.43-8.86Z"/>
        <path class="cls-43" d="m1723.78,914.64c-3.03-.42-2.94-3.95-4.43-5.91.65-1.31,1.29-2.64,2.95-2.95,1.8.16,3.5.44,2.95,2.95-.17,5.09,6.08,3.77,5.91,8.86h-4.43c.55-2.51-1.15-2.79-2.95-2.95Z"/>
        <path class="cls-41" d="m1725.26,908.74c4.01,1.9,7.43,4.39,7.38,10.34h-2.95c-1.81,1.65-3.03,1.28-2.96-1.48h4.43c.17-5.09-6.08-3.77-5.91-8.86Z"/>
        <path class="cls-39" d="m1760.7,913.16v-1.47c6.08.82,7.76,6.02,7.38,13.29h-1.48c-1.25-3.17-3.64-5.23-8.86-4.43,3.75.68,4.18,4.68,5.91,7.39,1.72.25,1.6,2.33,1.48,4.43-4.64-1.67-3.9.43-7.38-1.48h-1.48c.79-3.07-5.75-3.13-1.48-1.47.13,2.09.25,4.18-1.47,4.42-.52-1.93-2.6-2.32-2.95-4.42,1.83-8.22-.88-10.56,0-14.77,3.04-2.93,1.39-2.93,4.43,0-.36,1.6-2.93,1-2.95,2.95,2.59-.41,7.37,4.16,8.86,0-2.63-1.08-.21-2.69,0-4.43Z"/>
        <path class="cls-45" d="m1723.78,924.98h1.48c1.73-4.17.29-6.27-1.48-10.34,1.8.16,3.5.44,2.95,2.95-.08,2.76,1.14,3.13,2.96,1.48,1.9,3.48-.19,2.75,1.48,7.39-2.38.41-2.54-1.4-4.43-1.48-1.3,4.75,4.87,2.03,4.43,5.9-1.75,3.91-1.28,4.59-5.91,2.95v-4.42c-3.37-.42-5.55.36-5.91,2.95v1.48c-3.98,1.02-2.86-3.05-4.43-4.42,1.8-.17,3.49-.44,2.95-2.95,2.21-.25,5.45.52,5.91-1.48Z"/>
        <path class="cls-48" d="m1711.97,929.41c1.46-3.47,2.59-7.26,2.95-11.82.9,2.05,5.68.22,5.9,2.95-1.85.61-3.02,1.91-2.95,4.43,4.03.13,2.97-2.46,5.91,0-.46,2-3.7,1.23-5.91,1.48.54,2.51-1.15,2.78-2.95,2.95h-2.95Z"/>
        <path class="cls-49" d="m1763.65,927.93c-1.08-6.47,2.93,1.19,2.95-2.95h1.48c2.45,5.53-1.81,15.46-5.91,19.2v-4.43c-2.18,1.7-3.72,1.7-5.91,0-.69-6.08,3.71,1.16,5.91-2.95,0-.82-1.19-1.68-1.47,0-1.98-.98-2.75-3.16-2.95-5.91,3.48,1.9,2.74-.19,7.38,1.48.12-2.09.24-4.18-1.48-4.43Z"/>
        <path class="cls-46" d="m1756.27,939.75c2.19,1.7,3.72,1.7,5.91,0v4.43c-1.94.52-2.32,2.6-4.43,2.95-1.24-1.72-1.95-3.96-1.48-7.38Z"/>
        <path class="cls-50" d="m1748.88,930.88c1.82.65,3.03,1.9,2.95,4.43,3.22.27,4.7-1.21,4.43-4.43h1.48c.2,2.75.97,4.94,2.95,5.91.28-1.68,1.48-.82,1.47,0-2.19,4.11-6.59-3.12-5.91,2.95-.47,3.42.24,5.66,1.48,7.38-1.2.28-1.47,1.48-2.96,1.48,2.76-2.62-1.2-3.75,0-8.86-5.56,2.16-2.98,3.91-2.95,10.34-2.79.33-3.26-1.67-5.91-1.48,0-1.48,1.2-1.76,1.48-2.95-2.59-2.33-7.87-1.98-11.82-2.95.24-1.73,2.69-1.24,4.43-1.48,2.82-.62,6.35-.53,5.91-4.42,2.63-1.08.21-2.68,0-4.43,1.72.24,2.63-.33,2.95-1.48Z"/>
        <path class="cls-44" d="m1719.35,933.84c-2.65,8.06,7.89,2.95,5.91,10.34h7.38c2.59,9.16,7.54-2.06,10.34,5.91-5.12-1.18-5.68,2.19-10.34,1.47-13.76-.51-19.14-9.41-20.67-22.14h2.95c1.57,1.37.46,5.44,4.43,4.42Z"/>
        <path class="cls-45" d="m1735.59,942.7c3.95.98,9.22.62,11.82,2.95-.28,1.2-1.48,1.48-1.48,2.95,2.65-.19,3.11,1.81,5.91,1.48-.38,3.07-6.48.4-7.38,2.95,0-1.48-1.19-1.76-1.47-2.95-2.8-7.97-7.75,3.25-10.34-5.91,1.19-.29,1.47-1.48,2.95-1.48Z"/>
        <path class="cls-46" d="m1731.16,930.88c.44-3.88-5.73-1.16-4.43-5.9,1.89.08,2.05,1.89,4.43,1.48-1.67-4.64.43-3.9-1.48-7.39h2.95c2.04.91.22,5.68,2.95,5.91-.62,2.82-.54,6.35-4.43,5.9Z"/>
        <path class="cls-46" d="m1719.35,932.36c.35-2.59,2.54-3.37,5.91-2.95v4.42c-2.57.11-4.59-.33-5.91-1.48Z"/>
        <path class="cls-45" d="m1748.88,930.88c-.32,1.15-1.24,1.72-2.95,1.48-2.08-5.47-8.44,7.46,0,4.43.45,3.89-3.08,3.81-5.91,4.42,2.16-2.24-3.23-13.16,5.91-11.81,1.15.33,2.91.03,2.95,1.47Z"/>
        <path class="cls-42" d="m1745.93,932.36c.21,1.75,2.63,3.35,0,4.43-8.44,3.03-2.08-9.9,0-4.43Z"/>
        <path class="cls-37" d="m1751.84,950.08c-.03-6.42-2.61-8.18,2.95-10.34-1.2,5.11,2.76,6.23,0,8.86-1.19.28-1.47,1.48-2.95,1.48Z"/>
        <path class="cls-40" d="m1742.98,950.08c.28,1.19,1.48,1.47,1.47,2.95h-11.81v-1.48c4.66.72,5.22-2.65,10.34-1.47Z"/>
        <path class="cls-47" d="m1763.65,927.93c-1.73-2.71-2.15-6.71-5.91-7.39,5.22-.79,7.61,1.26,8.86,4.43-.02,4.14-4.03-3.51-2.95,2.95Z"/>
        <path class="cls-39" d="m1741.5,920.55c2.46-2.93-.13-1.88,0-5.9h4.43c-1.69,6.12,3.11,5.75,2.95,10.34-4.31.37-5.09-2.78-7.38-4.43Z"/>
      </g>
      <g class="cls-4">
        <path class="cls-19" d="m250.12,5.07c1.09.34,1.76,1.44,2.94,1.64,1.85,1.1,3.11,3,5.25,3.51.99.48,1.72,1.6,2.72,2.15,1.14,1.12,2.76,2.04,3.2,3.67-1.1.66-2.03-2.16-3.74-1.91-.11,0-.25-.06-.29-.15-.57-1.22-2.01-.91-2.88-1.64-.37-.31-.97-.19-1.48-.17-1.21.03-1.63-.42-1.57-1.6-.12-.79-.38-3.29-1.59-2.06-2.25,2.16-.23,2.77-1.36,3.69-.66.53-2-2.07-2.12-.65-.11,1.24,1.95,1.51,1.03,2.76-.31.48-.19,1.11-.55,1.64-.77.32-1.78.83-2.34,0-.79-1.25-1.21,2.15-2.63,2.55-1.72,1.04,1.34,2.32,2.25,1.39,1.56-.8,1.5-2.51,2.6-3.84,1.92.26,1.62,3.02,3.67,2.8.36-.03.72.13,1.01.37,1.07.75-.53,1.61.03,2.59.81,2.03.59,4.05.23,6.1.43.76.13,1.47-.15,2.18-.34.6-.25,1.87-1.3,1.35-.94-.04-1.02,2.11-.41,2.67.65.76.62,1.65.48,2.47-.57,1.24.84,3.24-.8,3.75-.31.09-.71.14-.72.58,0,.8.98.81,1.34,1.39,1.37,1.44,1.65-3.35,3.57,1.73.16.91,1.14,1.35,2.02,1.2,1.43.63,1.73-.77,2.46-1.38.73-1.94,2.09-3.21,3.76-4.3.23-.19.51-.22.8-.21.87-.16,2.55-.34,2.55-1.44.18-2.46.83-4.88,1.02-7.31,1.4.81,1.46,2.76,1.62,4.19-.86.83-.67,1.91-.84,2.86-.31,1.75-1.44,3.26-1.74,5.05-.19.66-.54,1.01-1.25.99-1.47.2-2.26,1.9-3.48,2.66-.57.46-.84.98-.6,1.77.56,2.56-4.23,5.32-6.47,4.02-.28-.03-.49-.19-.49-.48-.19-1.38-2.8-.88-1.59-3.05.26-.47.07-.6-.3-.72-3.79-2.57-2.6,1.18-4.53.02-1.62-1.1-1.94,2.81-4.13.66-1.91-1.39-3.22-3.44-5.25-4.69-.9-.66-1.55-2.27-2.87-1.18-1.97,1.85-1.8.03-3.29-.78-1.33-.63-1.73-2.3-3.1-2.99-.97-.72-1.05-1.68-.38-2.65.19-.27.39-.39.7-.26,2.83.92,2.28-2.89.92-1.74-4.33,3.34-6.23-2.26-8.99-4.34-.55-.29-.8-.85-.69-1.51.04-.22.07-.46-.05-.66-.84-1.36-.75-2.87-.54-4.33.38-2.4,1.16-5.13,3.27-6.6.41-.21.62-.53.63-1.01.08-2.66,2.05-4.54,3.5-6.57.72-1.05,1.03-1.11,2.21-.67.61.23,1.21.43,1.71.87.92.72,1.63-1.06,2.7-.38.72.16.35-1.14.45-1.59-.08-1.24.59-2.23,1.79-2.15,2.59-.07,5.07-1.16,7.65-.38,1.37.25,3.23-.74,4.48.14Z"/>
        <path class="cls-12" d="m269.1,30.01c.07.73-.81,1.05-.35,1.79.32.63-.05,1.15-.53,1.54-1.01.69-1.51-.73-2.36-1.03-.12.34-.05.75-.45.94-.5.48.72,1.28-.31,2.31-.9,1.21-.49,5.3-2.88,3.68-.99-.38-1.35-.11-1.27.95.25,1.84-2.18,1.07-1.96,2.88-.2,2.88-3.38.41-2-1.4.08-.11.16-.23.08-.47-1.2.48-1.88-.52-2.7-1.05-2.34-1.4,2.22-3.93-.04-4.21-1.65-.32,1.45-7.16,1.52-8.64.44-1.34-.48-2.62-.53-3.94.01-.39-.19-.69-.39-1-.47-.75-.41-1.14.3-1.62.86-.6.59-2.19-.48-2.24-3.97-.48-2.2-.2-3.98-2.98-1.17-1.13.86-2.36,1.64-3.12,1.8-1.05,3.88.11,5.57.98,1.73.89,3.85,1.31,5.21,2.85,2.24.95-.28,2.41.91,4.93,0,1.6,1.47,3.37.56,4.83-.25.32-.24.61.06.89,1.9,3.45,1.7-.57,3.28,1.62.76.15,1.15.73,1.13,1.51Z"/>
        <path class="cls-17" d="m249.37,4.77c-.75.68-2-.11-2.93.44-1.93-.22-3.82-.55-5.77-.04-1.32.77-3.04-.3-4.04,1.08-.7.43.46,3.72-.78,3.13-.78-.4-.96-.37-1.61.22-1.04,1.08-1.73-.86-2.87-.75-.41-.02-.58-.63-1.03-.47-1.93,1.8-3.97,4.24-4.46,6.94,0,.83.05,1.39-.79,1.73-1.34.61-1.5,2.03-2.24,3.1-.43.48-.74.99-.44,1.68.24.47-.33.82-.42,1.21-.16,1.38-.25,2.9.22,4.19.95.58-.19,1.68.68,2.32,1.29.73,2.15,1.71,2.75,3.04.97,1.4,2.78,2.55,4.49,2.44.08,0,.21.02.24-.02.38-.48,1.06-.48,1.48-.9.32-.34.97-.83,1.18-.14.38,1.09.75.95,0,2.02-.04.14-.15.31-.28.28-.66-.12-1.38.42-1.99-.24-.26.31-.23.72-.55.96-.21.16-.19.45-.04.7.33.89,1.1,1.41,1.93,1.86.25.07.29.38.42.6,1.03,2.25,1.87.8,2.74,2.95.4.48,1.31-.09,1.64-.49.58-.86,2.49-.67,2.6.48.04.37.34.49.65.56.78.06.74,1.18,1.59,1.03.19-.03.28.16.33.33.21.84.81,1.31,1.56,1.61.37.15.55.32.68.73.41.86,1.41,1.39,2.35,1.55,1.64.25,1.24-2.96,3.39-.83.15,0,.19-.07.23-.15.42-1.13,1.74-1.72,2.68-.96.16.85,2.66.66,1.52,1.65-.81.74-.08,1.96.93,2.02.63.13.65.16.61.77-.17.92.95.23,1.34.78.85.69,1.4-.51,2.25-.32.83-.12,1.29-1.13,2.08-1.47,1.82-1.08-.11-3.16,1.36-4.05,1.44-.94,2.36-3.1,4.26-2.9.22.03.4-.1.44-.31.54-1.57.8-3.21,1.78-4.59.17-.26.14-.53.09-.81-.07-.39-.15-.78.19-1.1.36-.74-.47-1.28.75-1.84.89,1.22.46,2.9.77,4.31-.29.9-1.82.6-1.49,1.81.21,1.44-.33,2.62-1.2,3.7-.71,1.4-1.18,2.94-1.98,4.31-.38.78-1.5.8-2.13,1.42-1.28.86-2.17,2.3-3.35,3.23-.68.66-1.43.31-2.21.44-1.13.67-5.18-.31-5.58-1.66-1.87-3.68.55-3.53-3.84-2.7-.5-.08-.58.27-.43.65.76,1.86.08,3.42-2.09,3.26-1.22.23-2.17-1.52-1.07-2.32.37-.26.25-.54-.13-.68-.7-.33-1.57-.37-2.19-.85-.54-.51-1.08-.92-1.9-.88-1.38-.33-.76-1.36-2.85-1.53-.61-.7-1.63-.75-2.26-1.41-1.37-.72-3.23-.47-3.93-2.23-.46-.81-1.08-1.51-1.66-2.22-1-.37-1.8-.94-2.21-1.99-.39-.47-1.76-.22-1.43-1.27.51-2.33-1.58-.92-1.88-2.57-.05-1.5-2.69-1.34-2.29-2.93.79-1.83-1.97-2-1.83-3.76.07-.47-.62-.66-.56-1.08.27-1.56-1.59-2.2-.53-4.01.16-1.03,1.04-1.87.99-2.89-.09-.67-.24-1.34.28-1.92.1-.11.08-.26.02-.4-.67-1.92,3.21-3.46,3.81-5.74.26-.9-.86-1.54-.06-2.48.26-.63.92-.49,1.36-.98.39-.47.89-.59,1.38-.94,1.77-.1,3.6-3.16,5.38-1.44.55-3.36,8.13-3.97,10.89-3.92.81-.1,1.48.53,2.28.26.32-.08.48.21.79.25.42-.06.61.43.99.4.36.03.83.4.95.73Z"/>
        <path class="cls-27" d="m261.82,53.43c-.04,2.09-2.59,2.33-3.7,3.7-1.2,1.12-2.94.53-4.25,1.37-4.01,2.56-4.29-.65-7.34-.41-.18.06-.38-.23-.45-.45-.5-1.37-1.49,1.05-2.18-.59-.61-.61-.41-1.75-1.16-2.14-1.29-.32-2.35-1.15-3.61-1.57-.93-.31-1.61-1.19-2.57-1.54-2.19-.45-4.31-.83-6.25-2.03-.88-.45-.71-1.9-1.9-1.97-1.13-.02-.79-1.59-1.87-1.69-.85-.18-1.4-.7-1.67-1.5-1.48-4.2-5.81-.72-5.57-3.73,1.34-2.43-1.13-4.32.6-5.67.67-.49.44-2.37-.23-2.91-1.67-1.6-4.63-.43-5.93-2.48-.3-.88-1.15-1.48-.83-2.45.39-1.2.37-2.48.86-3.72,1.1-1.78,2.62-3.22,3.33-5.25,0-.43.46-.54.51-.94,2.2-1.95,4.18-6.28,7.06-6.87.77,3.32-2.16,4.75-3.56,7.16-.33.79-.7,1.53-1.49,1.98-.94.44.85,1.83.74,2.73-.05,1.48-1.25,2.59-.53,4.26.31.78-.52,1.29-.41,2.07-.21,1.55,1.69.29,1.99,1.53,2.15,2.04-.12,2.68,1.7,3.98,1.94,1.04,2.3,3.91,1.56,5.77-.39.58.03,1.32.82,1.4.82.08,1.18.47,1.34,1.22.75,1.56,2.44,2.67,3.53,4.07.89.85,1.66,2.01,2.86,2.43,1.05.02,1.92.8,3,.69.26-.03.5.11.69.28.69.64,1.72.68,2.39,1.38.27.28.75.15,1.13.26,4.85,1.43,6.77,3.88,12.2,1.97,3.07.1,5.41,3.2,8.26,0,.27-.21.46-.51.9-.34Z"/>
        <path class="cls-20" d="m261.9,53.48c-1.77.63-3.19,3.19-5.49,1.52-.75-.41-1.7-.16-2.35-.82-.36-.33-.77-.33-1.26-.26-1.55.06-3.03,1.27-4.54.63-.54-.27-1.48.06-2.12-.19-1.11-.05-1.6-1.26-2.65-1.28-1.05-.42-2.2-.76-3.28-1.16-.51-.06-1.03.08-1.37-.42-.16-.16-.25-.43-.49-.44-1.17-.09-1.75-1.28-2.98-1.03-.17-.05-.41.1-.55-.08-.34-.41-.79-.41-1.27-.46-2.48-.48-4.3-4.4-6.29-5.55-.74-.04-.48-2.46-1.34-2.18-.99.18-2.22-1.12-1.38-1.97.57-.96.16-2.26-.11-3.29.41-1.71-2.17-1.67-2.3-3.35-.09-.35-.21-.59.11-.89.51-.92-1.19-1.32-1.2-2.28-.12-.37-.57-.09-.83-.06-.98.17-1.11-.71-.97-1.44-.1-.38,0-.64.3-.89.68-.55-.49-1.27-.1-2.01.22-.72-.22-1.6.5-2.13.71-.81-.11-2.1-.68-2.84-.52-.51-.48-.68.14-1.01,1.66-.92,1.54-3.22,3.31-4.09.58-.36.64-1.13,1.17-1.59,1.16-.76.01-3.85,1.44-3.58-.47,1.88,1.11,1.9.28,2.68-.47.34-.72.78-.75,1.35-.38,1.51-4.54,2.73-2.71,4.55-.93.39-.82,1.15-.64,1.89.21.7-.14,1.26-.59,1.71.11.86-.64,1.46-.65,2.29-.34,1.51,1.33,1.56.86,2.67-.53.76.7.54.51,1.31-.26,1.59,1.64,1.71,2.03,3.03.24.78-.93,1.32.16,1.81.38.28.7.63,1.22.68,1,.46.25,2.31,1.8,2.03.89-.11.98,1.38.73,2.01-.16.26,0,.42.23.52.82.12,1.52.26,1.63,1.23.09.53.54.72.98.78,1.31.4,1.87,1.95,2.66,2.98.61,1.19,1.88,1.35,3.08,1.49.75.66,1.77.87,2.5,1.54.19.18.37.4.63.33,1.52-.45,1.66,2.01,3.19,1.38.26-.1.47.08.58.25.74,1.38,2.68.89,3.45,1.95.21.75-1.02.53-.82,1.26-.04.77.49,1.46,1.35,1.3.73-.18,2.11,0,2.13-1.03.44-.83-1.27-3.28.33-2.92,1.13.5,2.4-1.47,3.12-.2.8,3.31.72,3.89,4.14,4.63,1.21.74,1.95-.43,3.06-.05,1.78.24,2.34-2.34,3.8-2.71.11.42-.26.54-.43.85-.32.33-.59.7-.85,1.09-.11.17-.17.51-.43.46Z"/>
        <path class="cls-7" d="m260.22,56.56c-5.75,10.99-20.73,8.17-30.2,4.03-6.49-2.87-11.02-8.48-14.79-14.3-3.59-4.06-3.89-9.75-2.7-14.84.87.22.2,2.23,1.46,2.92.84.58-.32,1.38.12,2.1.27.56.59,1.09.34,1.75,1.13,2.38,2.91,4.64,3.64,7.26,1.04,1.57,2.52,1.64,2.92,4.11.42,2.58,2.46,1.08,3.04,2.78.43,1.86,2.48,1.55,3.45,2.77,3.11,4.15,8.64,5.17,13.41,6.18,6.77,1.89,14.02-1.24,19.3-4.75Z"/>
        <path class="cls-33" d="m257.71,58.18c-.15.77-3.36,1.97-4.19,2.2-2.14.62-4.17,1.34-6.38,1.64-5.99-.04-13.18-1.27-18.01-4.83-.78-.78-1.6-1.58-2.24-2.47-.73.16-1.07-.62-1.69-.69-1.46-.1-.92-2.34-2.31-2.44-1.76.13-2.03-1.76-2.51-3.01.17-1.24-1.37-1.54-2.02-2.35-.4-.33-.61-.72-.63-1.23-.03-1-.92-1.6-1.18-2.55-.29-.9-1.37-1.53-1.33-2.56.03-.45-.2-.71-.57-.94-.56-.34-.59-.46-.33-1.09.28-.88-1.15-1.66-.31-2.53.79-.99-1.58-.56-1.33-4.57,4.63,1.67,2.94,2.19,4.89,5.36.39.44.11,1.07-.21,1.57-.6.92-.57,1.3.22,2,.89,1.13-.13,2.89,1.81,3.33,2.98.89,3.49,1.83,4.9,4.35.92,1.8,2.58,3.05,3.6,4.79.23.47.6.89,1.18,1.01,1.11.15-.41,2.75,2.21,3.63,1.21.03,1.72,1.15,2.72,1.53,1.84.68,3.91.55,5.7,1.24,3.11,1.16,6.73,1.9,10.03,1.1,2.89-.22,5.25-1.94,7.99-2.49Z"/>
        <path class="cls-31" d="m257.76,58.23c-3.49,1.31-7.07,3.11-10.88,3.05-.87-.42-1.73.26-2.53-.04-1.3-.98-3.11-.39-4.49-1.33-.65-.3-1.25-.76-2.05-.43-1.01-.08-2.04-.66-3.1-.67-.65-.14-1.32-.42-1.8-.84-.34-.76-1.02-.86-1.72-.88-4.04-2.47-.62-3.54-2.28-3.67-1.77-.78-1.97-3.2-3.78-4.09-.31-.19-.36-.56-.44-.88-.05-.64-.59-.91-1.01-1.24.19-.89-.98-1.2-.87-2.06.02-.17-.18-.27-.31-.38-1.78-1.46-5.4-1.3-4.75-4.4.06-.73-1.06-.47-1-1.17.07-.5-.28-1.09.3-1.48.67-.52.64-1.64-.13-2.05-.41-.26-.52-.57-.43-1.06.22-2.37-2.64-2.8-4.03-4.04-.14-1.2-.26-2.33-.1-3.57,1.02-.42.05,2.02,1.53,2.72,1.51,2.67,3.52,1.15,4.54,3.35,2.41,3.39-.31,1.73.52,4.34,1.25,1.61-1.82,5.04,1.25,5.28,5.78-.92,3.18,2.49,5.81,3.8,1.66.29-.27,1.59,1,1.82,3.54.5,0,3.12,2.35,3.22.48.06.77.29.94.72.28,1.07,1.42.68,2.15,1.2.98.85,2.73.51,3.23,1.87.83,2.27,2.98.83,4.42,1.8.53.41,1.21.45,1.86.43,1.74-.18,2.27,1.91,3.94,1.97.84-.02,1.49.78,2.32.62,3.63-.25,7.32-1.23,10.29-3.37.52-.43.97-1.06,1.84-.86.01.22-.02.4-.07.64-.14.05-.26.02-.44,0-.67.6-1.31,1.18-2.08,1.69Z"/>
        <path class="cls-15" d="m260.42,55.91c-1.83.37-2.77,2.37-4.76,2.55-2.23,1.5-4.86,1.59-7.45,1.91-.84.28-1.31-.64-2.11-.59-1.86.1-2.31-2.13-4.13-2.02-.82.02-1.69,0-2.34-.72-.28-.31-.67-.27-1.02-.13-.91.38-2.97-.25-3.06-1.26-.19-1.54-2.07-1-3.02-1.91-.76-.65-2.09-.07-2.4-1.3-.26-.7-.27-.7-1-.68-2.75-.36,1.7-2.92-2.59-3.33-1.26-.28,1.08-1.65-.53-1.66-.78-.14-1.57-1.2-1.42-1.98.05-.25.03-.49-.14-.62-1.14-1.56-2.33-1.69-4.13-1.28-2.01.39-2.02-2.09-1.32-3.37.77-1.12-1.17-2.69-.27-3.72.37-.28.96-.9.37-1.27-.76-.57-.75-1.67-1.49-2.3-1.17-.61-2.52-.24-3.27-1.83,1.07.51,2.25.49,3.38.77.3.24.64.16.96.14.44.43,1.06.62,1.47,1.05.47.46.22,1.19.35,1.77.21.64-.07,1.06-.58,1.42-1.17.66.15,1.99.06,2.99.18,1.08-.69,2-.4,3.02.24.81,1.49.5,2.14.36.7-.22,1.45.47,2.05.74,1.26.64,1.05,2.44,2.31,3.03,2.26.29.98,1.55,2.24,1.83,2.17.29.58,1.9,3.74,2.78,1.64,1.18,3.71.54,5.36,1.64.88.17,1.14,1.16,2.06,1.31,1.18.11,2.04,1.14,3.09,1.35,1.19-.25.72,1.43,1.27,1.9.52.16.35,1.49,1.01.85,1.79-1.66.92.77,2.09.59,1.69-.62,1.05-.04,2.14.77,2.13.98,3.65.19,5.54-.88,3.29.02,3.61-1.55,6.24-2.85.28.29-.21.7-.42.9Z"/>
        <path class="cls-20" d="m263.65,51.04c.48-1.6,3.46-1.46,3.29-3.35-.08-1.03,1.38-1.19,1.02-2.3-.04-.61.65-.95.94-1.44.42-.81.97-1.88.76-2.77-.25-.68.13-1.73.98-1.65.16,0,.34-.18.55-.32.54.26.17.68.19,1.11-.03,1.83-1.08,3.41-2.05,4.76-.44,1.02-1.24,1.99-1.13,3.27-.11.28-.39.41-.44.76-.31.29-.65.5-.98.75-.1.08-.27.18-.39.27-.64.05-1.14.71-1.78.71-.29.15-.61.35-.95.18Z"/>
        <path class="cls-15" d="m246.62,3.33c-.08.44-.38.49-.74.31-1.49-.63-3.14-.14-4.7-.22-1.01.32-2.08.35-3.11.51-1.26,1.01-4.45,1.05-4.24,3.08-.29,1.27-.92-.64-1.71-.44,5.57-3.91,7.67-4.7,14.51-3.24Z"/>
        <path class="cls-27" d="m268.25,48.38c-1.35-.22.9-2.14.58-3.07,0-.41.48-.74.83-.99.42-.3.67-.64.7-1.15-.08-.24.37-.68.55-.3-.07.43-.14.83-.23,1.29-.17.17-.22.35-.37.5-.12.78-.8,1.05-.88,1.86-.18.76-.64,1.33-1.18,1.87Z"/>
        <path class="cls-15" d="m213.93,29.7c-1.97-.36-.58-1.75-1.51-2.76-.4-.72.56-3.01,1.33-3.35.29.44.1.86-.07,1.26-.35.6.03,1.27-.33,1.87-.75,1.18.19,1.92.57,2.98Z"/>
        <path class="cls-33" d="m224.85,10.29c.01.1-.04.18-.13.28-2.53,1.16-4,3.81-5.9,5.76-.27.49-.41,1.01-1.11,1.08,1.05-1.85,5.06-7.11,7.14-7.12Z"/>
        <path class="cls-15" d="m264.45,16.15c2.09,1.64,3.06,5.74,3.71,8.37-.68.19-.56-.42-.78-.8-.5-2.73-2.11-5.06-2.93-7.57Z"/>
        <path class="cls-15" d="m259.81,11.42c-.77-.08-1.11-1.04-1.93-1.16-1.41-.49-3.14-1.55-3.51-3.09.56.09.73.57.98.95,1,1.86,3.58,1.3,4.46,3.29Z"/>
        <path class="cls-17" d="m267.41,23.65c.5.17.12.85.74.94.65,1.31.56,2.89.63,4.34-.17-.01-.29-.08-.5-.22-.44-1.69-1.14-3.45-.86-5.06Z"/>
        <path class="cls-15" d="m264.21,16.05c-.7-1.62-2.34-2.28-3.18-3.61.7-.28,4.32,3.7,3.18,3.61Z"/>
        <path class="cls-15" d="m268.76,29.02c-.27-1.21-.28-2.41-.41-3.65.89.74.49,3.41.79,4.67-.22-.28-.47-.57-.38-1.02Z"/>
        <path class="cls-33" d="m217.09,18.36c.44.41-1.43,3.42-2.06,3.54.59-1.21,1.33-2.33,2.06-3.54Z"/>
        <path class="cls-31" d="m271.42,40.37c-.36-.32.03-.72-.15-1.14-.38-.68-.06-1.37-.17-2.08.33.04.32.35.3.57-.12.92.54,1.78.02,2.65Z"/>
        <path class="cls-15" d="m251.74,5.84c.74-.49,2.17.64,2.68,1.25-.52.25-.85-.11-1.27-.4-.51-.29-1.09-.31-1.41-.86Z"/>
        <path class="cls-17" d="m251.7,5.76c.35.46,1.61.36,1.44,1.04-.68-.06-1.65-.24-1.78-1.06.13-.02.2,0,.33.02Z"/>
        <path class="cls-31" d="m271.18,36.39c-.55-.22-.52-1.33-.48-1.88.49.49.45,1.16.48,1.88Z"/>
        <path class="cls-15" d="m263.63,51.1c.28-.12.53-.19.85-.25-.19.58-.8.74-1.29,1.11-.07-.36.29-.52.44-.86Z"/>
        <path class="cls-31" d="m230.89,7.05c-.26.42-.69.65-1.23.8.22-.48.58-.81,1.23-.8Z"/>
        <path class="cls-15" d="m249.41,4.83c-.12-.24-.46-.2-.49-.52.49.06.95.22,1.24.74-.23-.03-.46-.12-.76-.23Z"/>
        <path class="cls-31" d="m270.97,42.86c-.11.01-.14-.03-.18-.12.07-.34.03-.67.28-.97.26.35.1.7-.1,1.09Z"/>
        <path class="cls-15" d="m266.83,49.88c.08-.41.4-.6.85-.69-.07.43-.4.6-.85.69Z"/>
        <path class="cls-15" d="m261.02,12.31c-.36-.01-.73-.07-.9-.55.4-.05.72.1.9.55Z"/>
        <path class="cls-15" d="m265.32,50.63c.11-.49.53-.49.99-.49-.2.32-.58.39-.99.49Z"/>
        <path class="cls-33" d="m227.34,8.84c-.01.29-.23.42-.52.55,0-.28.08-.55.52-.55Z"/>
        <path class="cls-31" d="m228.08,8.45c0,.26-.14.42-.47.42,0-.26.15-.41.47-.42Z"/>
        <path class="cls-31" d="m270.33,44.68c-.03-.19-.04-.41.28-.46.03.19.04.4-.28.46Z"/>
        <path class="cls-33" d="m262.08,53.5c-.07-.16.08-.55.32-.5,0,.24,0,.46-.32.5Z"/>
        <path class="cls-33" d="m269.22,47.06c-.04-.15-.03-.31.14-.46.22.2.19.36-.14.46Z"/>
        <path class="cls-31" d="m270.76,34.07c-.26,0-.32-.16-.24-.45.24.02.29.19.24.45Z"/>
        <path class="cls-15" d="m247.47,3.6c-.19.21-.36.19-.45-.13.15-.05.31-.04.45.13Z"/>
        <path class="cls-7" d="m212.41,30.58c.1-.01.18.03.29.12,0,.12,0,.2-.03.33-.25,0-.32-.16-.26-.45Z"/>
        <path class="cls-15" d="m251.38,5.68s.03.11.02.15c-.19-.01-.41,0-.46-.31.16-.06.28.02.44.16Z"/>
        <path class="cls-15" d="m262.46,53.01s-.11.03-.15.02c0-.19,0-.4.31-.45.05.15-.02.27-.15.43Z"/>
        <path class="cls-33" d="m268.7,47.97c0-.17-.01-.38.3-.44.05.2-.06.34-.3.44Z"/>
        <path class="cls-15" d="m268.4,24.93c-.15,0-.26-.08-.25-.3.15,0,.27.06.25.3Z"/>
        <path class="cls-33" d="m260.89,55.35c-.04-.08-.03-.15-.01-.28.08-.05.15-.03.28-.02.03.16-.03.29-.27.3Z"/>
        <path class="cls-15" d="m266.43,50.15c-.01-.15.05-.27.28-.28.02.15-.05.27-.28.28Z"/>
        <path class="cls-15" d="m248.41,3.99c-.05.23-.15.37-.29,0,.08-.04.16-.03.29,0Z"/>
        <path class="cls-33" d="m212.37,29.88c.15,0,.34.04.15.29-.13-.05-.16-.13-.15-.29Z"/>
        <path class="cls-33" d="m217.52,17.72c.03.15-.02.27-.25.3-.04-.15.02-.28.25-.3Z"/>
        <path class="cls-15" d="m269.02,30.6c-.02-.07-.01-.1.02-.18.07-.03.14.1.11.16-.03.03-.07.04-.13.02Z"/>
        <path class="cls-14" d="m268.92,30.56c.06,0,.14.02.18.03.1,1.03.13,1.99-.14,3-.18.47.15,1.07-.12,1.49-1.13,1.2.41,3.63-1.59,4.03-.7.02-1.14.75-1.89.42-.1-.03-.27-.02-.32.04-.45.59-1.28.69-1.68,1.35-.17.29-.39.51-.78.56-1.11.72-.86,2.68-2.25,3.37-.5.35-.68,1.45-1.41.75-.67-.69-.98.66-1.67-.17-.35-.4-.85-.8-1.05-1.28.23-.89-.58-1.33-.9-1.97-.29-.6-.72-.54-1.04.06-.36.77-.81.82-1.38.5-.21-.94-1.5-.74-1.58-1.76-.09-.36,0-.6.39-.7,2.44-.18.31-2.31,1.27-3.69.23-.45-.23-.92-.04-1.4-.23-1.43-1.58-1.45-.6-3.39.21-1.6,1.06.15,1.45-.6,0-.73.53-1.27.64-1.97.45-1.05-.54-1.12-.17-1.83.85-1.8.42-3.98-.26-5.78-.64-.87,1.2-1.61.17-2.24-.8-.77-2.23.16-2.64-1.02-.26-.43-.39-1.07-.76-1.37-.53-.12-.72-.58-1.07-.95.12-.77.07-1.59.63-2.24.33-.85-1.51-.81-1.21-1.83.03-.17-.1-.37-.16-.56-.33-.85.79-.61,1.12-.22.41.23.68,1.07,1.19.92,1.07-1.09-1.16-.89,1.17-3.69.16-.4,1.14-.55,1.53-.33.69.45-.39,1.35.58,1.7.21.08.06.41.03.63-.61,2.65,2.47.78,3.59,2.14.27.28.65.36,1.02.29,1.11-.35.69,1.55,1.87,1.13,1.49,0,1.92,2.16,3.42,2.1.15,1.43,1.43,2.62,1.22,3.98-.38,1-.01,1.81.69,2.51.32.32.52.65.45,1.12-.13,1.85,1.03,3.3,1.47,5.06-.35.33-.58-.13-.69-.42-.78-1.49-1.05,1-1.84.4-3.64-4.14.41-1.28-1.53-5.59-.33-.5-.29-.78-.08-1.3-.49-.53-.22-1.37-.76-1.89-.6-.83,1.59-2.72-.02-3.33-1.09-.57-1.72-1.78-3.06-1.95-.28-.05-.57-.06-.74-.34-.42-.83-1.47-.14-1.93-.73-.48-.55-1.25-.98-1.94-1.03-.32.07-.6-.04-.89-.17-1.19-.55-2.35-.01-3.18,1-.34.65-1.59,1.05-.89,1.86.66.52.99,1.07,1.01,1.9.33,1.9,3.62.16,4.12,1.96.68,2.26-1.86,1.61-.84,3.07.88.72.07,1.86.85,2.57.39.61-.04,1.51.27,2.2.03.1.07.26.02.33-.46.55-.24,1.36-.72,1.9-.41,1.3-.39,2.74-1.12,3.98-.27.63-.05,1.31-.35,1.95-.34.71.37.72.88.55,1.11.11-.1,1.85-.51,2.27-.84.62-.43,1.92.43,2.31.78.16,1.15,1.37,2,.74.21-.06.46-.23.63-.03.21.23.06.5-.13.67-.85.74-.33,2.8.85,2.56.87-.1.49-1.3.73-1.93.21-1.23,2.28-.45,1.8-2.11.02-.41-.2-1.14.36-1.21,1.58-.5,2.77,2.09,2.92-.99-.06-.17.07-.33.22-.42.86-.64-.48-.99.97-2.37.82-.92-1.06-1.77.3-2.15.53-.22-.05-.4-.1-.69.26-.26.97-.52,1.09,0,.27.56,1.25,1.42,1.77.82.46-.44.61-.97.37-1.34q-.45-.7.36-1.22Z"/>
        <path class="cls-14" d="m246.15,28.75c.07.41.41.89.02,1.16-.43.17-.68.46-.75.93-.08.35-.66.43-.8.71-.34.92-1.25,1.21-1.92,1.75-.52.37-1.03,1.88-1.77,1.01-.3-.43-.75-1.07-1.32-.59-.74.42-1.05-1.15-2.17-.16-1.1.91-1.56-1.13-2.69-1.15-.65-.31-1.64-.71-1.46-1.6.04-.15.08-.32-.07-.51-.78.99-1.58,2-3.01,1.65-1.11-.09-2.94-.24-3.17-1.57.26-.87-.4-2.08.61-2.58.4-.37.28-1.08.64-1.52,1.28-2.64,4.72-.89,6.76-2.17,1.21-1.05,2.71-1.52,4.14-2.14.64-.22,1.16.67,1.72.91,1.1.62.25-1.22,1.19-1.53.19-.14.26-.35.36-.55.3-.64.77-.49,1.14,0,1.42.69.04,2.2.83,3.25.22.38.3.69.05,1.08-.51.86.67,1.56,1.23,2.11.57.26.34.94.47,1.5Z"/>
        <path class="cls-14" d="m232.13,10.77c.61.77,2.12,1.05,2.95.61.33-.28.61-.28.94.06.42.37,1.15.22,1.5.74-.58,1.35-2.18,1.54-2.06,3.28-.23,1.25-.94.13-1.57,1.94-.57.81,1.28,2.89-.58,2.93-.94-.03-2.12-1.09-2.89-.18-.55.51-3.01,3.82-3.51,2.7-.61-1.19-1.47.66-2.2-.31-1.37-1.41,1.04-2.35,1.33-3.73.34-.53,2.04-.66,1.39-1.65-.79-1.35-.6-2.92.53-3.98.92-1.01,2.69-.67,3.15-2.24.25-.52.36-.54,1.01-.18Z"/>
        <path class="cls-14" d="m249.53,15.99c-.01,1.23-1.4,1.99-1.09,3.34.05.32-.07.59-.46.49-1.09-.15-1.61,1.23-2.8.5-.7-.27-1.85-.91-1.03-1.72,2.29-.84,2.16-4.58,3.22-2.96.56,1.1,1.21.06,2.16.36Z"/>
        <path class="cls-14" d="m246.69,7.92c1.14-.98.17-1.3,1.99-.92,1.37.03.52,1.37.5,2.16,0,.42-.51.61-.73.96-.16.26-.52.1-.79.05-1.35-.54-3.17-.06-4.09-1.43-.18-.33-.14-.5.22-.52.66-.04,1.31-.33,1.98-.1.31.11.61.05.92-.21Z"/>
        <path class="cls-14" d="m239.51,9.71c1.2.06.37-1,1.02-1.55.64-.56.78.31,1.16.66.49.47.48.91-.11,1.18-.97.45-.11,1.53-1.36,2.14-.46.29-.93-.27-1.43-.28-.43-.1-.48-.23-.16-.55.72-.44-.12-1.53.88-1.6Z"/>
        <path class="cls-18" d="m253.12,6.91c0-.13,0-.2.03-.33.42.05.68.48,1.21.51.02.35.28.55.42.87-.61-.17-1.19-.47-1.65-1.04Z"/>
        <path class="cls-17" d="m233.73,37.84c.54-.53.87.15.72.66-.34.39-.85,0-.72-.66Z"/>
        <path class="cls-14" d="m250.2,10.04c-.16-.21-.25-.44-.03-.52.44-.13.62.88.03.52Z"/>
        <path class="cls-14" d="m265.23,41.61c-.25-.01-.23-.14-.15-.28.18-.14.31.1.15.28Z"/>
        <path class="cls-14" d="m258.93,36.82c1.32-.16-.37,1.4-.33,1.97-.04.36-.31.35-.58.27-.85-.35.78-1.55.91-2.24Z"/>
        <path class="cls-20" d="m222.8,37.85c.73.11.49,1.1,1.19,1.37.54.32-.21.94-.57.54-.45-1.37-1.11-.21-1.58-.95-.17-.56.44-.97.96-.96Z"/>
        <path class="cls-17" d="m244.58,51.28c.29.12.76-.05.68.36-.07.33-.46.17-.73.14-.81,0-.84-.76.05-.5Z"/>
        <path class="cls-33" d="m257.81,58.23c.45-.7,1.14-1.2,1.9-1.69-.35.81-1.02,1.34-1.9,1.69Z"/>
        <path class="cls-19" d="m268.28,28.66c-.59-.42-.37-1.43-1.01-1.92-.38-.54-.17-1.31-.63-1.86-.48-.67.46-1.71-.49-2.2-.72-.48-1.1-1.85-.73-2.62.38-1.21-1.07-2.04-.85-3.4,2.57,3.47,3.02,7.9,3.71,12.01Z"/>
        <path class="cls-12" d="m236.37,32.29c-.46-1.25-2.01-.08-1.69-1.57.27-.54.26-1.04.15-1.61.42-1.01,1-2.14,1.1-3.2-.37-1.46,1.11-1.65,2.02-2.26.33-.31.75-.1,1.13-.09,1.47-.25,2.42,1.71,2.79,2.84,0,.24.32.37.53.21.98-.67,1.54.48,2.16,1,.93.84.5,1.71-.16,2.54-.48,1.3-1.64,1.57-2.78,1.88-3.34-1.19-3.27.54-5.25.25Z"/>
      </g>
    </g>
  </g>
</svg>