<?xml version="1.0" encoding="UTF-8"?>
<svg id="_レイヤー_16" data-name="レイヤー 16" xmlns="http://www.w3.org/2000/svg" viewBox="0 0 1920 284.01">
  <defs>
    <style>
      .cls-1 {
        fill: none;
        opacity: .8;
      }

      .cls-2 {
        fill: #f7eef4;
      }

      .cls-3 {
        fill: #efd3e4;
      }

      .cls-4 {
        fill: #f5e4ec;
      }

      .cls-5 {
        fill: #e7c1da;
      }

      .cls-6 {
        fill: #ebc5db;
      }

      .cls-7 {
        fill: #f2d9e7;
      }

      .cls-8 {
        fill: #edcde0;
      }

      .cls-9 {
        fill: #dcb0d0;
      }

      .cls-10 {
        fill: #e0bad6;
      }

      .cls-11 {
        fill: #e2b5d3;
      }

      .cls-12 {
        fill: #f8ca99;
      }

      .cls-12, .cls-13, .cls-14, .cls-15, .cls-16, .cls-17, .cls-18, .cls-19, .cls-20, .cls-21, .cls-22 {
        fill-rule: evenodd;
      }

      .cls-13 {
        fill: #f8ca8f;
      }

      .cls-14 {
        fill: #f8d994;
      }

      .cls-15 {
        fill: #f7d184;
      }

      .cls-16 {
        fill: #f7c5a4;
      }

      .cls-17 {
        fill: #f9da99;
      }

      .cls-18 {
        fill: #f8dd9d;
      }

      .cls-19 {
        fill: #f8d08a;
      }

      .cls-20 {
        fill: #f8d192;
      }

      .cls-21 {
        fill: #f9d68c;
      }

      .cls-22 {
        fill: #f9d690;
      }
    </style>
  </defs>
  <g class="cls-1">
    <path class="cls-8" d="m135.19,74.28c-3.69,1.58-7.52-.15-11.32.1-1.07-1.07.55-3.04-1.09-3.51-1.44-.83-3.81-.08-4.51-1.84-1.16-2.17-2.54-4.2-4.05-6.14-1.17-1.27-3.28-1.34-4.1-3.07-.53-.79-1.07-1.18-2.06-1.02-3.24.49.05-3.87-3.08-5.03-1.01-.27-1.27-1.67-.11-1.89.55-.22.98-.97,1.64-.63.71.47-.4,1.7.96,1.63,1.07.09,1.36.51.99,1.52-.52,1.19,1.04,1.19,1.63,1.85,1.59,1.07,2.73-1.84,5.05-.32,1.18.61,1.93.21,2.75-.45,1.2-.96,1.6-.91,2.45.45.62,1.01,1.9.14,2.83.13.79-.14.83-.84.69-1.38-.55-1.31.02-3.29-1.3-4.13-1.33-.45-.57-2.27.69-2.09,1.83.02,1.83.02,2.09-1.77.51-2.95-3.52-2.91-3.4-5.18-.58,1.4-2.25,1.87-2.56,3.33-.65,1.84-2.01-.34-2.07-1.36-.39-1.38-2.19-.22-3.2-1.07-.33,4.74-1.85,1.9-3.18,3.26-.08.93,1.51.8,1.66,1.81.29.7.26,1.33-.51,1.65-1.32.48.04,2.32-1.38,2.77-2.52.75-1.89-2.34-3.08-3.58.85-1.88-.57-3.44-.78-5.17-.23-1.33-3.04-1.52-1.9-3.18,1.22-2.34-1.04-5.05.97-7.19.54-1.29.14-3,1.52-3.97,1.28-1.38-2.12-4.68,1.27-5.3,3.23-.19,3.47-3.81,5.58-5.52,2.83-1.88,5.97-3.47,9.3-4.4.87-.3,1.37-.76,1.45-1.68.1-3.66,4.31-3.4,6.3-5.74,5.6-2.66,12.69-.95,18.26,1.08.68.29,1.29.6,2.07.56,1.14.06,2.17,1.05,3.1,1.64,1.23.4,1.61,1.61,2.29,2.56.26.53.71.87,1.01,1.39.27.79.55,1.54,1.11,2.19,1.38,1.87,1.88,4.11,2.85,6.13.45,1.23,1.81,1.86,1.92,3.11-1.76,1.1-3.37-2.95-3.85-4.25-.56-2.36-2.2-4.52-3.4-6.56-.79-1.08-2.42.02-3.43.32-1.21.61-2.16,0-2.17-1.36-1.52-3.17-6.66-4.03-9.92-4.28-.25-.03-.55.03-.72.21-.87.89-2.32,1.07-2.83,2.42-.55,1.17-2.3-.62-3.65.18-.9.43-2.14-.46-2.44,1.11-.12.75-.66,1.39-.44,2.28.61,3.37-3.83-.5-4.31,2.13-.18.62-.91,1.06-.55,1.88.48,2.38,6.52,1.36,4.35,4.49-3.31,1.4-3.29,4.47-5.69,5.13-.86.17-1.12.75-1.18,1.48.09,2.16,3.68-.17,5.11.43,1.94,2.67-1.43,2.35-.69,4.64.17,1.48-1.62,2.71-.39,4.21,1.74,2.2-1.24,2.83-.14,4.71,1.35,2.47.41,5.33-.03,7.91-.17.61-.02,1.16.27,1.68.86,1.58-.1,3.38.49,5.04.27,1.26-.81,2.34-.39,3.63.13.58-.1,1.07-.48,1.5-.57.63-.67,1.18.02,1.88,1.8,1.36-.76,4.13,1.42,3.69,3.04.21,1.85,3.52,5.07,4.1.46.19,1.02.2,1.23.85Z"/>
    <path class="cls-3" d="m153.64,8.74c-.99.06-1.58-1.04-2.59-.62-1.3-.14-2.58-1.35-3.97-1.63-3.98-.55-7.94-2.04-12.03-.97-.97-.42-1.93.23-2.85.32-.7,1.09-2.18,1.18-2.9,2.24-.62.93-1.97.13-2.55,1.17-2.11.97-.52,4.19-2.92,4.59-2.25.86-4.69,1.22-6.57,2.9-.28.23-.63.48-.96.5-1.44.09-2.04,1.29-2.9,2.13-.84.77-.77,2.19-1.86,2.74-.17.07-.27.34-.36.53-.55,1.62-2.25.59-3.26,1.48-.59.65-.79,1.23-.34,1.98,1.7,4.03-1.01,2.01-1.08,5.37.24,1.5-1.61,2.27-1.06,3.7.12.48.2.91,0,1.38-.16,1,.86,1.92.06,2.92-.31.59-1.09,1.76,0,1.99.41.04,2.04,1.46,1.83,1.82-.23,1.64,1.61,3,.65,4.76-.74,1.29,1.85.66.92,2.28-.88,1.52,2.94,2.07,2.32.02-.2-.6-.29-1.32.55-1.43,1.56-.18.47-2.18-.56-2.34-.8-.23-.88-.41-.67-.94.5-1.58,2.01.1,2.86-.83-.08-.69.76-1.2.37-1.95-.24-.46.21-1.31.68-.8.86,1.32,3.14-.65,3.18,1.38.02.97,1.44,3.19,1.55,1.04.32-1.37,2.18-1.87,2.65-3.33.09-.16.16-.43.52-.43-.52,3,.98,1.5,2.98,4.16.92.89.1,2.24.16,3.34-.08,1.05-1.61.65-2.35.51-.76-.25-1.57,1.22-.72,1.46,1.31.22,1.2,1.29,1.35,2.17-.11,1.05.68,1.9.44,2.96.04,1.58-1.76.87-2.75,1.38-1.81.74-1.36-3.05-3.19-1.11-3.38,2.64-1.56-.27-5.84.41-.67.21-.85,1.53-1.82.9-.85-.48-1.58-1.17-2.56-1.42-.27-.07-.28-.31-.17-.53.64-.68.87-2.08-.48-1.82-.29.02-.63.4-.87-.03-.61-.67.4-1.34-.08-1.69-.82-.27-.99,1.06-1.94.89-.62.27.09,1.38.68,1.23.6-.04.84.21.92.78.6,1.19,1.53,1.67.59,3.11-.28,1.02.57,1.3,1.39,1.14.78-.72,1.25.31,1.89.32.34,1.41,1.21,1.44,2,2.41.63.62,1.86.18,2.3,1.22.97,1.09,1.84,2.3,2.37,3.61,1.29.53,1.27,1.92,1.91,2.87.63,1.69,2.62.18,3.72,1.5.25.29.7.12,1.05.16,1.19-.04.19,2.56.45,3.63-.23.1-.47.1-.79.09-1.88-2.35-4.21-.98-4.94-2.67-.49-1.17-1.24-1.9-2.62-1.93-.8-.02-1.56-.64-2.43-.25-1.3-.66-2.91-1.45-3.74-2.83-1.55-1.31-3.79-1.63-4.36-4.06-.41-.69-1.65-2.89-2.48-2.86-2.05.04-2.37-2.44-1.99-3.95.43-1.27-2.87-.55-1.23-3.83.34-1.17,1.23-2.77,2.78-2.17.93.69,2.85-1.14,1.6-1.66-.49-.26-.6-.59-.32-1.07.47-.88-.41-1.87.14-2.77.3-.74.03-1.24-.57-1.69-1.94-1.05.89-2.41,0-3.95-.34-.59.06-1.39-.14-1.94-.98-1.03-.19-2.23-.34-3.34-.1-.77.52-1.17,1.16-1.41,2.03-.57,0-2.64,1.39-3.69.62-.67.8-1.42.65-2.32-.89-4.82,5.01-3.53,4.88-7.26,0-1.39,2.13-.82,2.02-2.35,0-.77.71-.85,1.31-.79,1.59.42,1.08-1.29,2.25-1.16,1.95.34,3.06-1.72,4.8-1.86,4.61.05,2.6-2.61,3.46-5.58.93-2.68,12.78-2.69,15.61-2.71,2.82.48,12.89,1.99,13.76,4.48Z"/>
    <path class="cls-5" d="m135.26,74.36c-.87-.94-2.31-.46-3.09-1.55-.79-.17-1.15-.5-1.02-1.45-.06-.7-1.87-2.44-2.69-1.57-.82.49-1.18-.84-.8-1.38.5-1.08.26-2.12-.72-2.86-.48-.36-.6-.73-.24-1.18.73-.9,1.27-1.81.82-3.04.34-1.29.85-2.53.29-3.88-.28-1.34.62-2.63-.34-3.9-.36-.55-.56-1.26-.11-1.95.43-1.94.66-4.02.59-6.04-2.32-4.42.59-2.85-.04-5.28-.93-1.85-1.41-2.5-.15-4.35.44-1.04-.66-2.24.66-3,1.47-.7-.03-1.66.56-2.69,2.69-1.21.04-3.67,3.19-5.11,1.66-1.81,2.49.4,3.04-.39.11-.31-.16-.42-.42-.51-4.96-2.71,3.1-5.58,3.6-8.28-.11-2.03,2.31-1.79,3.07-3.32,2.46-3.77,4.91-3.05,7.85-.18,2.2,1.85.04,2.08-1.57,1.2-1.21-.5.46,1.77-.24,2.59-.48.9.84,2.4-.39,2.86-1.97.75-1.42-1.97-3.32-1.78-.66-.03-1.25-.55-2.03-.63-.83-.7.32-1.13.14-1.73-1.15.63-1.4,1.24-.93,2.38.07.81-.49,1.33-.66,2-.16,3.51,5.93,3.67.38,7.14-2.17.27-3.07,2.7-5.42,2.36-1.56,0-1.79.2-1.95,1.7.03,1.05-.48,1.99-.66,2.96.5,1.58-.63,2.31-1.59,3.13-3.28,1.93-.92,4.56,1.88,5.18,1.13.22,1.76,1.31,1.65,2.52-1.76.66-3.87.05-3.93,2.59-.3,1.65-1,3.15-.24,4.8.27,1.72-.71,3.41-.43,5.19.12,1.95,2.63,2.97,4.41,2.75,2.01.1,2.29,1.65,4.9,1.26.31.73-.22,1.12-.56,1.56-1.07,1.22,1.46,2.44,2.58,2.06,1.85-.14,3.35.4,4.45,1.85,3.66,2.5,6.49-3.05,9.94-3.31,2.24-.35,2.51-4.19,4.59-5.56,1.27-.83.95-3.13,2.71-3.14.38.54-.25,1.02-.44,1.51-.12.64-.29,1.15-.81,1.54-1.77,3.3-4.42,5.92-7.05,8.58-2.94,2.79-6.4,4.56-10.21,5.69-1.62.14-3.11.08-4.51,1.19-1.3.82-3.18,1.12-4.75,1.47Z"/>
    <path class="cls-7" d="m153.65,8.84c-1.38-1.88-4.1-1.77-6.04-2.86-1.45-.47-3.05-.09-4.47-.83-.55-.3-1.21-.28-1.81-.29-1.28-.79-2.73.17-4.03-.39-1.74.28-3.58.3-5.29.24-1.59.35-3.14.99-4.78,1.01-4-.15-2.67,3.53-3.06,6.1-.14.77-1.36.38-1.85.9-1.48.61-1.98-.7-3.2,1.12-1.32.11-2.16,1.6-3.44.75-.33.11-.2.43-.28.64-.24,1.05-1.04.58-1.87.59-1.66-.27,0,1.67-1.33,1.79-1.7.64-1.52.46-1.41,2.15-.62.73-.96,1.78-2.07,1.97-1.85.35-3.58,2.45-2.88,4.24.8,1.88-1.92,2.56-1.08,4.3.4.79-.03,1.55-.87,1.87-.63.17-1.54.63-1.28,1.44.63.82-.75,1.68-.06,2.33,1.12.69,0,1.78.53,2.7.71,1.07-.11,1.99-.71,2.8-.39,1.17,2.27,1.25,1.42,2.71-1.01,1.31.76,2.31-.5,3.48,1.64.91,1.47,1.17.07,2.37q-.61.56-1.37.15c-.76-.41-1.94.11-2.1.97-.28,1.12-1.47,2.05-.6,3.23.23.92,2.17-.06,1.55,1.2-.52.97-.28,1.92-.04,2.87.24,1.78,2.65.39,2.98,2.12.07.21.08.45.27.59,1.17.79,1.38,2.16,1.97,3.28.98.35,1.6,1.4,2.73,1.45.36.02.73.1.73.5.19,1.61,2.02,1.62,2.89,2.68.31.32.68.51,1.05.15.8-.64,1.45.63,2.32.4,1.37-.21,1.98.79,2.51,1.86.75,2.08,3.15-.1,4.63,2.88-1.41.34-2.42-.8-3.61-1.21-.97.12-1.55-.63-2.44-.68-6.65-2.6-10.45-4.1-14.83-10.22-3.11-4.13-7.01-10.82-3.27-15.6.63-.89.78-1.81.5-2.8-.66-2.67,1.37-5.26-.54-7.77-.84-.98-.29-2.26.2-3.4.77-1.8,2.38-3.24,2.3-5.44.13-.89.57-2.65,1.74-2.58.62.04.85-.31.91-.84.48-2.18,2.69-3.49,3.26-5.7.52-1.88,2.43-2.22,3.62-3.45.61-1.15,2.16-.7,2.78-1.75.9-1.68,3.36-.55,4.09-2.49.66-1.11,2.31-1.08,3.42-1.51,1.5-.75,1.44-3.22,3.38-3.77,10.63-2.65,26.47-2.7,33.68,6.82,1.4,2.13,2.69,4.34,3.96,6.55.64,1.95,1.25,4.03,3,5.33.48.36,1.02.76.94,1.57-.66.74-1.3-.48-2.05-.48-.67-1.1-1.79-1.8-2.02-3.03-.97-2.08-1.35-4.34-2.85-6.17-.11-.23-.45-.37-.44-.66-.22-.49-.62-.96-.66-1.52-.11-.26-.45-.38-.44-.68-.16-.31-.63-.5-.66-.88-.87-1.25-1.89-2.32-3.23-3.1Z"/>
    <path class="cls-4" d="m165.87,25.54c.05-.91-.63-1.29-1.14-1.7-1.83-1.34-2.28-3.42-2.96-5.41-1.08-1.94-2.29-3.8-3.42-5.7-6.19-9.73-21.18-9.42-31.37-8.1-1.25.18-2.84.52-3.61,1.52-.21.51-.45.96-.98,1.24-.29.15-.34.51-.21.88.18.49,0,.77-.56.76-5.73.84-2.81,2.65-5.78,2.9-2.48-.01-1.63,1.95-3.55,1.94-.81-.06-1.16.68-1.58,1.2-.27.34-.54.63-.93.7-1.09.19-1.57,1.1-2.22,1.81,0,1.33-1.27,2.04-1.55,3.24-.75,1.12-1.98,1.83-1.96,3.37-.09.74-.13.73-.86.65-1.92-.05-1.49,3.08-2.01,4.34-.08.97-1.16,1.21-1.31,2.17-.2.56-.16,1.25-.87,1.54-1.52,4.15,1.96,2.78.55,6.8.87,1.28-.91,2.2-.13,3.48,1.25,2.64-1.57,4.55-2.1,6.87.65,6.57,4.35,12.32,9.23,16.58,2.53,3.6,7.14,3.02,10.22,5.68-2.49.08-5.05-1.04-7.17-2.5-2.38-.86-4.39-2.91-5.71-5.05-2.89-2.92-5.09-6.26-6.56-10.09-.05-.35-.05-.65-.06-1.04-.67-.86-.63-1.87-.87-2.87-.97-2.89-.29-5.51-.07-8.43-.18-2.65.55-5.2.28-7.83.35-3.59,2.24-6.73,2.78-10.29.12-.66.35-1.21.96-1.49.7-.32,1.09-.9,1.23-1.58.22-1.55,1.58-2.21,2.46-3.35,1.18-1.01-1.04-2.88,1.08-3.33,3.5-.76,4.77-4.67,8.19-5.54.28-.05.48-.21.54-.48.29-1.01,2.23-2.76,2.92-1.31.42.86,1-.18,1.29-.58,1.24-1.71,3.7-.5,5.26-1.89,3.35-1.82,7.49-2,11.22-2.27,5.47-.87,10.67.25,15.72,2.64.85-.04,1.36.44,1.88.9,2.05,1.6,4.43,2.75,5.94,5,2.07,2.54,4.7,4.87,5.89,7.92.31,2.07,2.04,3.61,2.35,5.65.17,1.69,1.5,2.06,1.11,4.17-.82.31-.59-.37-.73-.83-.08-.81-.64-1.48-.8-2.3Z"/>
    <path class="cls-2" d="m150.29,5.01c-3.38-.9-6.86-2.01-10.32-2.88-3.86.73-7.87.37-11.67,1.36-1.24-.1-2.25.28-3.33.72-1.31.29-2.31,1.4-3.68,1.65-1.63.14-2.69-.26-3.48,1.56-1.47,2.05-.86-1.48-2.16-.46-.61.49-1.61.68-1.52,1.65.02.31-.06.69-.44.6-.97-.34-4.04,2.08-4.27,3.05-1.2,1.05-2.63,2.06-4.26,2.48-2.11.3.51,1.92-.55,2.82-.75.67-1.18,1.67-2.14,2.12-.25.12-.42.3-.39.6-.03.72-.58,2.44-1.31,2.56-.87.28-1.09.58-1.1,1.49-.24,1.34-.67,2.64-1.05,3.97-1.11,1.82-1.18,3.86-1.71,5.89-.28,1.16.42,2.31.03,3.45-.81,2.91.16,5.97-.95,8.85-.27,1.37.66,2.59.38,4.08-.39.05-.46-.22-.43-.53-.9-4.95-1.98-10.05-1.37-15.13-.7-5,.31-10.21,3.07-14.44,1.43-2.35,3.08-5.36,5.74-6.45,2.09-1.29,2.95-4.08,5.21-5.11,1.99-2.27,4.37-4.14,6.79-5.98,6.8-1.85,13.95-3.33,21.08-2.85,4.62,1.38,9.9,2.04,13.84,4.92Z"/>
    <path class="cls-10" d="m163.08,54.45c-1.63.28-1.17,2.45-2.54,3.21-1.87,1.47-2.25,3.78-3.86,5.4-.26.23-.53.41-.88.35-3.23.03-4.9,4.26-8.46,3.81-1.12.22-1.37.15-1.92-.87-.65-1.01-2.8-1.73-4.02-1.61-.89-.16.12-1.58-1.62-2.94-.96-1.08-.35-2.94,1.02-3.5.7,1.59.57,3.47,2.9,3.52,2.34.54,3.79,1.4,5.89-.43,1.93-.86.27-3.4,2.2-4.39,1.11-.57,1.08-2.52,2.67-2.1.43.15.61.67,1.18.46,1.43-.15,2.64,2.79,3.05,1.44.28-1.04,1.81-1.05,1.71-2.23-.05-.68.26-.96.92-1.07,1.7-.28,2.63-2.07,1.91-3.61-.19-.41-.35-.84-.18-1.26.81-1.36-.88-2.94.28-4.05.41-.35.44-.76.15-1.16-1.39-3.47,2.3-6.58,3.03-9.88,2.65-1.38,1.98,4.7,1.82,6.1-.54,2.58-1.26,5.27-2.68,7.52-.52.71-.17,1.55-.26,2.36-.98,1.48-.64,4.15-2.31,4.96Z"/>
    <path class="cls-6" d="m167.88,33.52c-2.22.65-1.36-1.35-3.01-1.62-.78-.14-1.27-.6-1.24-1.41.04-1.32-.91-2.47-.55-3.85-.05-1.05-2.1-.46-2.26-2.16-.29-1.08-1.47-1.63-1.43-2.87-.1-1.06-.72-1.8-1.66-2.4-.45-1.08.71-1.14,1.05-1.8,1.68,1.42,1.23,3.85,2.74,5.48,1.11.91.46,2.21,2.28,1.92.65-.14.83.4,1.29.68.77.47,1.5.89,1.57,1.86-.34,2.69,1.64.52,1.21,6.16Z"/>
    <path class="cls-7" d="m136.36,74.13c-.19-.53,2.2-.88,2.7-1.11,1.23-.09,1.84-1.67,3.17-1.49,4.77.07,8.6-2.88,12.37-5.49-.43,1.74-2.75,2.32-3.97,3.45-4.17,2.88-9.32,4.34-14.27,4.64Z"/>
    <path class="cls-7" d="m167.87,33.67c-.04-.19-.03-.29-.02-.47,1.25.42.64,3.06,1.06,4.15.37,2.23-1.14,4.02-1.3,6.17-.1.61-.17,1.23-.83,1.64-.4-.3-.08-.61.02-.87.59-1.78,1.02-3.62,1.37-5.46-.04-1.71.01-3.48-.31-5.17Z"/>
    <path class="cls-2" d="m109.54,69.85c1.4.43,2.71,1.56,4.21,1.66.63-.04,1.1.23,1.47.8-2.01-.12-4.43-.91-5.68-2.47Z"/>
    <path class="cls-8" d="m167.44,29.35c-1.11-.4-1.21-.6-.98-1.85.14-.14.24-.17.43-.1.16.48-.15.99.42,1.35.15.15.21.37.13.6Z"/>
    <path class="cls-7" d="m154.97,65.8c.28-.88.99-1.43,1.82-1.95-.27.89-.98,1.44-1.82,1.95Z"/>
    <path class="cls-7" d="m164.65,51.78c-.04-.66-.08-1.95.66-2.19.03.76-.21,1.49-.66,2.19Z"/>
    <path class="cls-4" d="m167.41,29.51c0-.18,0-.28,0-.46.85.45.67,1.24.49,2.07-.48-.4-.12-1.06-.49-1.61Z"/>
    <path class="cls-2" d="m106.91,68.31c.55.07,1.03.31,1.3.94-.57-.03-1.07-.26-1.3-.94Z"/>
    <path class="cls-7" d="m165.46,48.89c-.32-.54-.44-1.12.11-1.69.04.54,0,1.09-.11,1.69Z"/>
    <path class="cls-7" d="m125.38,74.43c.45-.39.95-.44,1.46.04-.45.09-.93.18-1.46-.04Z"/>
    <path class="cls-2" d="m105.37,66.77c.56,0,.87.37,1.08.95-.55-.02-.87-.38-1.08-.95Z"/>
    <path class="cls-7" d="m165.74,46.96c-.01-.39.03-.8.47-1.09.1.43.01.82-.47,1.09Z"/>
    <path class="cls-2" d="m96.61,52.52c.58,0,.44.54.64.95-.53-.02-.59-.44-.64-.95Z"/>
    <path class="cls-2" d="m96.39,51.2c.51,0,.49.33.28.75-.33-.13-.27-.41-.28-.75Z"/>
    <path class="cls-7" d="m163.73,53.94c-.08-.35-.02-.69.47-.85.16.4-.14.6-.47.85Z"/>
    <path class="cls-7" d="m163.02,54.5c.16-.15.33-.23.56-.31.12.4-.17.6-.49.86-.07-.13-.07-.3-.07-.55Z"/>
    <path class="cls-7" d="m162.64,55.92c-.44-.38-.06-.48.28-.63.11.25,0,.45-.28.63Z"/>
    <path class="cls-2" d="m97.26,54.71c.32-.06.44.13.43.51-.32.06-.44-.13-.43-.51Z"/>
    <path class="cls-2" d="m103.83,64.8c.23.02.39.18.43.51-.31.05-.44-.14-.43-.51Z"/>
    <path class="cls-2" d="m102.31,63.26c.19-.05.37,0,.42.3-.19.05-.36,0-.42-.3Z"/>
    <path class="cls-6" d="m147.29,14.35c-1.12-.75-.74-1.49.5-1,.51.11,2.8,1.34,2.1,0-.54-.77-1.6-1.14-2.25-1.68-.28-.98-1.17-.9-1.87-1.23-.8-.39-1.58-.2-2.24.24-.44,1.02-1.63,1.41-2.06,2.43-.49,1.38-2.97.86-2.79,2.64.16,1.28-.8,1.97-1.82,2.38-.04.98-.97.95-1.5,1.37-1.12,1.07-2.56,2.32-1.51,3.92.29.97,2.18.05,1.76,1.45-.52,1.67-1.77-1.21-2.72.01-.63.49-1.19,1.06-1.92,1.43-.26.13-.47.42-.33.74.15,1.51.06,3.1-1.74,3.42-.91-.11-1.63.34-2.41.49-.73.14-1.52-.17-2.2.35-.18.14-.42.01-.58-.16-1.4-4.12,2.22-1.98,2.57-4.05,1.08-1.14,1.63-2.78,3.31-3.36,1.03-.1,1.93-2.23.49-2.4-1.04-.11-1.89-.71-2.89-.94-2.3-.95-1.15-3.2-.09-4.65.1-.16.34-.19.5-.14.65.21,1.4.04,1.99.44.72.48,1.74-.3,1.26-1.05-.69-1.24.55-1.98.61-3.14-.04-.56.32-.78.75-.61.72.29,1.35.01,2.02-.12,2-.75,2.43.95,3.11.21.43-.43.11-1.43.93-1.44,1.46-.34,2.14-2.18,3.96-1.39.61.19,1.28.35,2.02.13.62-.18,1.2.41,1.78.68,1.96.56,3.77,1.52,5.35,2.89.54.55-.7,1.33.25,1.82.49.32,1.09.44,1.54.06,1.14-.66,3.39-1.62,4.01,0,.34,1.14,1.41,1.87,1.68,2.95-.12.19-.3.26-.39.15-1.93-2.14-4.63,1.05-6.46-1.36.87.86,2.43,2.31,3.47,1.11.52-.64,2.22-.81,2.57.06.08.39-.23.48-.51.59-1.87.92-3.73,2.52-5.94,2.1-2.06-.67-2.57-3.88-4.3-5.36Z"/>
    <path class="cls-5" d="m155.16,18.97c0-.21.02-.44.09-.47.82-.26,1.37-1.07,2.28-1.15.14-.01.3-.03.32-.22-.54-1.08-2.25-.3-2.7.85-1.47-.54-2.95-1.02-3.72-2.58,3.67,2.34,2.36.42,6.14.91.54.03.63.7,1.2.82.08,0,.08.12.08.17.26,1.35-1.13.53-1.09,1.72-.85.08-1.73.89-2.59-.06Z"/>
    <path class="cls-3" d="m159.08,15.91c1.25.48,2.2,2.83,2.18,4.22-.18.06-.4,0-.4-.2,0-1.63-1.25-2.62-1.78-4.02Z"/>
    <path class="cls-3" d="m161.27,20.73c.55,0,.59.43.65.94-.55,0-.59-.43-.65-.94Z"/>
    <path class="cls-3" d="m157.98,13.93c.54,0,.59.43.65.94-.58.02-.44-.54-.65-.94Z"/>
    <path class="cls-3" d="m154.04,9.11c.33-.06.56.08.64.51-.33.06-.56-.08-.64-.51Z"/>
    <path class="cls-3" d="m156.89,12.18c.33-.06.56.09.64.51-.33.06-.56-.09-.64-.51Z"/>
    <path class="cls-3" d="m158.64,15.24c.19-.05.36,0,.42.3-.19.05-.36,0-.42-.3Z"/>
    <path class="cls-3" d="m157.55,13.05c.19-.05.36,0,.42.3-.19.05-.36,0-.42-.3Z"/>
    <path class="cls-3" d="m156.45,11.51c.19-.05.36,0,.42.3-.19.05-.36,0-.42-.3Z"/>
    <path class="cls-11" d="m155.04,18.9c1.44.83,1.56-.39,2.64.19,1.52.35,1.98,1.64,2.05,2.93.52,1.19,1.39,2.2,1.91,3.4.57.52,2.32.12,1.76,1.46-.23.78-.08,1.44.26,2.09.53.8-.29,2.5,1,2.61,2.77.11,1.9,3.89.6,5.27-1.07.25-1.71-.1-1.82-1.13-.2-1.94-2.91-.86-3.61-2.72-.98-2.14-1.87,1.39-3.34.1-1.78-1.43-1.94,1.71-3.59,1.85-1.89,1.23,4.19.74,1.8,2.92-.51.46-.77.9-.67,1.59.25,1.08-1.24,1.41-1.4.25-.63-1.63-1.01-1.82-2.67-1.27-1.28.57-1.35-1.57-2.68-1.03-.79.2-.64-.79-.01-.93,1.44-.82,1.45-.89.27-2.05-1.73-1.89,2.06-3.19,1.51-5.23-.11-.75.97-.71,1.23-.17.5.64.12,1.51.69,2.09,1.18-1.99-1.8-3.03-3.03-4.01-1.48-.9-3.36.87-2.3,2.26.2.26.53.51.47.84.59,6,1.48,4.42-4.46,5.77-.57-.86-3.23-1.85-2.09-2.88.67-.48.43-.86-.06-1.29-1.3-.76-.83-3.41.94-2.61.99.69,1.64-.15,1.07-1.1-.18-.61-.75-.98-.89-1.67.39-1.16,2.08-1.11,2.16-2.23-.11-.55-.16-1.26-.77-1.49-.72-.25-.96-.81-1.28-1.39-1.37-.86-.85-2.27-.08-3.41.35-1.73,1.49-1.82,2.82-.92.2.19.46.16.72.13,1.75-.23,1.09,1.02,1.77,1.73,1.33.29,1.67-.07,1.23-1.35-.45-1.16.58-1.9.03-3.11,1.98.72,2.45,3.72,4.08,5.06.67.27,1.57-.34,2.33-.09.52.04.81-.48,1.4-.45Z"/>
    <path class="cls-11" d="m140.95,58.41c-.91-.05-1.3,1.69-1.6,2.5-2.26,1.45-3.66-1.79-5.95-.84-.35.17-.73-.06-1.01-.28-1.13-.78-2.81-1.08-2.68-2.77-.33-2.14,1.02-4.15.2-6.17-.57-1.77.7-3.3.65-5.09.52-1.46,2.48-1.44,3.87-1.42,1.67-1.41,4.5-.15,5.23-2.63.16-.47.14-1.09.86-1.07,1.97.03,1.87,2.19,2.79,3.66.39-.82.65-1.39-.21-1.85-2.21-1.13.41-3.57-1.4-4.95-1.45-3.09,3.49,1.28,3.34,2.11.19,1.33.45,2.68.23,4.03-.81,2.52,3.62,2.43,1.4,4.21-.19.19-.42.4-.3.65.4.9.03,1.88.34,2.8.37,1.12.09,1.7-.95,2.38-.25.16-.56.3-.5.64.2,1.67-2.7,3.94-4.3,4.09Z"/>
    <path class="cls-10" d="m141.59,36.36c-.11.53.13.83.44,1.12,1.96,1.33-1.09,3.9,1.44,4.84.74.28.62.76.44,1.39-.2.32-.07.93-.58.95-.59.03-.4-.58-.55-.91-.3-.7-.73-1.34-.88-2.11-.08-.42-1.13-.89-1.56-.79-.27.06-.32.26-.33.49-.11,1.61-1.65,2.58-3.25,2.41-1.05-.36-1.26,1.03-2.16.61-.16-1.56-1.04-2.39-2.57-2.44-4.38-2.06-3.37-4.18.09-6.56.39-.29.53-.6.37-1.02-.59-1.19.67-2.06.52-3.23-.03-2.85,1.19-2.57,3.52-2.65,1.73-.24,2.2-2.37,4.06-2.1.8.8,2.01,2.32,1.17,3.36-.85.69-1.61-1.08-2.34-.3-.29.38-.64.8-.36,1.38.29.89,2.29,1.56.89,2.38-1.72.93,2.13,1.44,1.66,3.18Z"/>
    <path class="cls-11" d="m139.34,61.07c.75-.02.72,1.2,1.46,1.4,1.08.51-.06,1.37.49,2.17-.79.9-1.98-.33-2.73-.74-1.31-.92.53-1.76.78-2.83Z"/>
    <path class="cls-6" d="m145.39,12.51c-.89.06-.73,1.14-1.47,1.42-.38.21-.81-.12-1.26.02-.29.09-.24-.36-.24-.59-.05-1.21,1.65.2,1.75-1.37-.04-1.18,2.01.25,1.23.53Z"/>
    <path class="cls-6" d="m141.54,16.41c-.32.26-.19.73-.6.92-1.5-.46.13-2.66,1.38-2.95.18.84-.49,1.32-.78,2.02Z"/>
    <path class="cls-3" d="m166.3,26.28c-.5.16-1.41-.41-1.36-.96.58.02,1.47.17,1.36.96Z"/>
    <path class="cls-8" d="m164.98,25.18c0,.17,0,.27,0,.44-.31-.09-.56-.3-.65-.73.43-.47.51-.06.65.29Z"/>
    <path class="cls-7" d="m166.95,27.38c-.09.07-.19.07-.35.07-.07-.1-.07-.2-.07-.37.2-.06.37,0,.43.3Z"/>
    <path class="cls-9" d="m141.61,36.44c-.08-.17-.08-.34-.08-.58,5.93-2.13,4.88,1.1,4.33-5.16.39-1.24-1.49-1.09-.76-2.81.71-2.11,3.45-1.34,4.53.08.2.25.46.44.78.58,1.37.52,1.65,2.49.36,3.17-.16,0-.26-.14-.24-.3-.04-.71-.22-1.45-.34-2.14-.29-.8-1.44-.49-.75.28.11.15.26.4.13.49-.7.45-.54,1.54-1.4,1.86-.34.13-.44.39-.55.74-1.09,1.82,2.65,2.23.42,3.82-.38.22-.96.13-1.17.64.15.19.28.1.41.06,1.68-.94,1.32,1.85,2.74.94.42-.13.87-.7,1.28-.44.6.41,1.4.71,1.51,1.61.09.36.08,1.05.6,1.01.57-.16.41-1.01.28-1.45-.29-.59.21-.81.68-.97.77-.54.86-1.43-.21-1.56-.64-.36-2.01,0-2.1-.96-.02-.89,1.17-.63,1.69-1.1.17-.08.39-.18.39-.35,0-.76.63-1.01,1.07-1.41,1.11-1.33,1.79,2.06,2.98-.05,1.43-2.23,2.05,2.35,4.57,1.79,1.9.05-.14,2.41,2.36,2.63.12.46.06.87-.33,1.19-.9,1.28-1.85,3.65-1.08,5.14.56.84.53.93-.23,1.57-1.03,1.05.88,2.54-.17,3.85-.2.35-.13.78.18,1.12,1.14,1.12-.51,4.23-2.09,4.03-1.31-.23-.07,1.63-1.31,2.07-.57.32-1.15.56-1.22,1.34-.01.15-.18.34-.32.41-.31.15-.7.22-.77-.25-.09-.64-.44-.95-1.01-1.13-.4-.13-.49-.77-1.13-.69-.37-.04-.63-.16-.91-.39-1.79-.5-1.69,1.91-3.2,2.47-1.35.82.21,2.94-1.22,3.67-1.45.79-3.17,2.38-4.84,1.31-1.11-.82-2.62,0-3.54-1.05-.78-.84-1.24-1.79-1.06-3.06,1.34-.72,4.25-2.38,4.05-4.06-.21-.51-.08-.75.51-.91,1.01-.27,1.41-1.15,1-2.14-.56-.83.19-1.68-.34-2.49-.68-1.41.64-1.02,1.08-1.78-.06-.94-2.49-.74-2.32-3.03.31-1.65.26-3.75-.44-5.19-1.22-.52-1.61-1.98-2.82-2.41Z"/>
    <path class="cls-11" d="m154.7,55.15c.3-.09.61-.07.83.3-.42.47-.65.21-.83-.3Z"/>
    <path class="cls-10" d="m141.25,31.96c-1.01.27-.37-1.1.19-1.17.51.17.4.98-.19,1.17Z"/>
    <path class="cls-11" d="m151.8,50.43c.85-.99,2.06-.01,2.01,1.04-.05.29-.71,1.3-1.09,1.14-.39-.69-1.45-1.28-.92-2.17Z"/>
    <path class="cls-11" d="m148.44,27.97c-.09.48-.37.38-.62.24-.38-.4.37-.74.62-.24Z"/>
  </g>
  <g class="cls-1">
    <path class="cls-15" d="m123.33,124.98c8.7,15.11,27.3,31.95,25.92,45.27-20.95-12.7-24.37-5.39-46.04-8.12-2.45-15.1,32.65-7.01,15.07-27.86-1.24-3.62.11-6.75,5.05-9.29Z"/>
    <path class="cls-22" d="m101.29,134.67c2.73,3.88.09,6.8,1.53,10.43-2.39,2.98-7.54,5.46-5.02,9.31-9.53,9.13-13.72-11.88-22.43-7.34-2.72-3.89-5.43-7.75-8.13-11.61,13.1-10.2,21.87,4.15,34.06-.78Z"/>
    <path class="cls-21" d="m29.31,196.57c21.75,7.38,29.74,18.79,36.4,43.73-7.72,5.32-12.32-7.12-20.9,3.09-.89-1.27-1.8-2.57-2.71-3.86-17.58-15.12,4.38-25.34-16.26-23.22-2.71-3.86-5.41-7.73-8.13-11.61,2.59-1.81,5.16-3.61,7.75-5.43,1.28-.9,2.58-1.81,3.85-2.7Z"/>
    <path class="cls-19" d="m11.52,162.91c-7.52,9.99,4.21,23.35,13.94,36.36-2.59,1.81-5.16,3.61-7.75,5.43-8.11-11.58-16.24-23.19-24.36-34.8,6.08-2.44,11.25.32,18.17-6.99Z"/>
    <path class="cls-22" d="m161.26,179.15c2.39,13.99-12.02,25.02-6.96,39.47-7.47,3.82-13.48-.49-18.58-10.06-11.08-9.87-1.29-16.07-12.38-25.93-11.73,15.31-2.92,26.7,10.05,39.07-1.3.91-2.57,1.8-3.86,2.71-2.69-3.87-6.34-2.38-9.27-5.02,4.41-5.65-2.79-3.13-5.42-7.74-2.43,7.49-11.84,13.74-7.36,22.45-11.66,2-22.26-1.89-31.72-12.39,8.95-5.18,10.09-11.78,3.47-19.74-11.21-9.04-10.83,11.04-19.34,13.54,21.52.57,14.48,21.31.8,34.06-6.77-10.01-6.19-2.69-10.46,1.56-1.81-2.59-3.61-5.16-5.43-7.75,8.58-10.21,13.18,2.23,20.9-3.09-6.66-24.94-14.65-36.35-36.4-43.73,1.3-.91,2.58-1.81,3.88-2.71,4.23,1.68,8.43,3.46,12,8.91,6.74-4.47,8.03-9.89,6.2-15.86,7.48-3.46,4.38,16.95,19.73,3.49-14.49-.03-7.2-4.51-18.58-10.09,8.18-11.37-12.84-6.37-6.98-18.16,7.48-3.83,13.5.49,18.57,10.05,27.53,16,18.53,26.73,34.06,56.87,4.8-23.77,23.8-35.86-9.28-62.67,16.86.49,35.72,26.46,47.21,1.54,3.61,5.16,7.22,10.32,10.84,15.48-15.14,4.21-12.66,5.14-10.07,18.55,2.7,3.9,6.36,2.43,9.29,5.04-2.98-18.26,7.53-14.52,15.09-27.86Z"/>
    <path class="cls-21" d="m123.33,124.98c14.43,9.7,45.67,34.34,37.93,54.17-7.56,13.34-18.07,9.6-15.09,27.86-2.93-2.62-6.59-1.14-9.29-5.04-2.58-13.41-5.06-14.34,10.07-18.55-3.61-5.16-7.22-10.32-10.84-15.48-11.5,24.92-30.35-1.05-47.21-1.54,33.08,26.81,14.08,38.9,9.28,62.67-15.53-30.14-6.53-40.87-34.06-56.87,1.3-.91,2.58-1.81,3.88-2.71,8.17,5.09,16.4,9.65,23.99,17.8,6.8-3.74-9.91-30.77-17.4-16.62-2-7.14-1.12-13.76-3.09-20.88,1.28-.9,2.58-1.81,3.86-2.71,8.71-4.54,12.9,16.47,22.43,7.34-2.52-3.84,2.63-6.33,5.02-9.31,5.16-3.61,10.32-7.23,15.47-10.83,17.58,20.85-17.52,12.76-15.07,27.86,21.67,2.73,25.09-4.58,46.04,8.12,1.37-13.32-17.22-30.16-25.92-45.27Z"/>
    <path class="cls-20" d="m102.05,111.07c-4.05,8.63-16.06,21.2-.75,23.59-12.18,4.92-20.96-9.42-34.06.78-1.81-2.59-3.61-5.16-5.43-7.75-12.67,7.72-6.6,36.04-24.39,22.83-2.71-3.86-5.4-7.72-8.11-11.58,15.31-12.28,18.64-5.48,27.09-18.97,16.54,4.83,22.57-16.33,42.92-12.79l2.72,3.89Z"/>
    <path class="cls-19" d="m67.24,135.45c2.71,3.86,5.41,7.73,8.13,11.61-1.28.9-2.58,1.81-3.86,2.71-3.61-5.16-7.24-10.34-10.85-15.5-7.65,5.44,2.48,14.01-10.06,18.6,4.94,10.42,12.98,3.46,17.41,16.62-1.3.91-2.58,1.81-3.88,2.71-5.07-9.56-11.09-13.88-18.57-10.05-3.27-7.02-8.31-4.11-11.98-8.92,1.28-.9,2.58-1.81,3.85-2.7,17.78,13.21,11.72-15.12,24.39-22.83,1.81,2.59,3.61,5.16,5.43,7.75Z"/>
    <path class="cls-14" d="m50.23,251.14c4.27-4.26,3.68-11.57,10.46-1.56,13.68-12.75,20.72-33.49-.8-34.06,8.51-2.5,8.14-22.58,19.34-13.54,6.63,7.96,5.48,14.55-3.47,19.74,9.46,10.49,20.06,14.39,31.72,12.39-4.47-8.71,4.94-14.96,7.36-22.45,2.63,4.61,9.83,2.09,5.42,7.74-9.6,7.36-8.59,16.56-11.22,25.16-10.76,3.33-19.73-3.56-29.02-8.52-7.89,9.02-14.18,35.72-29.8,15.11Z"/>
    <path class="cls-21" d="m52.54,180.31c11.38,5.58,4.09,10.06,18.58,10.09-15.35,13.46-12.25-6.95-19.73-3.49,1.82,5.97.54,11.39-6.2,15.86-3.56-5.45-7.77-7.23-12-8.91,4.1-3.8-1.66-9.34-4.24-14.28,3.88-2.71,7.75-5.43,11.61-8.13,3.49,5.72,7.02,11.38,11.98,8.87Z"/>
    <path class="cls-13" d="m62.59,104.11c13.44-5.7,26.57-9.58,36.74,3.08-20.34-3.54-26.38,17.62-42.92,12.79-1.66-5.97-.62-11.42,6.18-15.87Z"/>
    <path class="cls-14" d="m135.73,208.56c-7,5.55,6.28,14.65-3.47,19.74-2.15,1.5-6.58-.07-2.72-3.89,1.3-.91,2.57-1.8,3.86-2.71-12.97-12.38-21.79-23.76-10.05-39.07,11.09,9.86,1.3,16.06,12.38,25.93Z"/>
    <path class="cls-17" d="m135.73,208.56c5.09,9.57,11.11,13.88,18.58,10.06.59,8,2.78,16.31-7.35,22.44-1.3.91-2.57,1.8-3.86,2.71-4.37-7.29-10.46-4.85-14.69-12.76-7.78,8.75-15.73,21.29-30.95,21.67-11.14,5.94,18.8,19.13-.78,23.6-22.85,14.26-39.73-5.32-59.2-10.44,19.62-12.52-12.47-18.3,4.64-26.31.91,1.3,1.81,2.59,2.71,3.86,1.81,2.59,3.61,5.16,5.43,7.75,15.62,20.61,21.9-6.09,29.8-15.11,9.29,4.96,18.26,11.86,29.02,8.52,2.63-8.6,1.63-17.8,11.22-25.16,2.93,2.64,6.58,1.15,9.27,5.02-3.86,3.82.57,5.39,2.72,3.89,9.75-5.08-3.53-14.19,3.47-19.74Z"/>
    <path class="cls-15" d="m71.51,149.77c1.97,7.12,1.09,13.75,3.09,20.88,7.48-14.15,24.19,12.88,17.4,16.62-7.6-8.14-15.83-12.71-23.99-17.8-4.43-13.15-12.47-6.19-17.41-16.62,12.54-4.58,2.41-13.15,10.06-18.6,3.61,5.16,7.24,10.34,10.85,15.5Z"/>
    <path class="cls-18" d="m146.95,241.06c-10.02,18.09-30,34.12-50.3,35.22,19.58-4.47-10.35-17.66.78-23.6,15.23-.38,23.18-12.92,30.95-21.67,4.23,7.91,10.32,5.48,14.69,12.76,1.3-.91,2.57-1.8,3.86-2.71Z"/>
    <path class="cls-22" d="m13.84,207.4c1.28-.9,2.58-1.81,3.86-2.71,2.72,3.89,5.43,7.75,8.13,11.61-21.63-4.09,13.73,36.61-12.38,31.71-.89-1.27-1.8-2.57-2.71-3.86,15.44-7.43,3.74-19.66-4.65-31.34,2.58-1.81,5.16-3.61,7.74-5.42Z"/>
    <path class="cls-12" d="m62.59,104.11c-6.79,4.45-7.83,9.91-6.18,15.87-8.45,13.49-11.78,6.69-27.09,18.97-11.17,5.55-22.62,12.86-32.51,11.21-4.03-30,43.94-38.83,65.77-46.06Z"/>
    <path class="cls-20" d="m33.57,153.23c3.67,4.81,8.71,1.9,11.98,8.92-5.86,11.8,15.16,6.8,6.98,18.16-4.97,2.51-8.49-3.15-11.98-8.87-3.86,2.71-7.74,5.42-11.61,8.13,2.58,4.95,8.34,10.49,4.24,14.28-1.3.91-2.58,1.81-3.88,2.71s-2.57,1.8-3.85,2.7c-9.73-13-21.46-26.37-13.94-36.36,6.45-4.52,12.9-9.03,19.35-13.55.91,1.3,1.81,2.59,2.71,3.86Z"/>
    <path class="cls-13" d="m-6.66,169.9c-5.48-5.5-1.02-9.24-4.26-14.33,2.58-1.81,5.16-3.61,7.73-5.41,9.89,1.65,21.34-5.66,32.51-11.21,2.71,3.86,5.4,7.72,8.11,11.58-1.27.89-2.57,1.8-3.85,2.7-.89-1.27-1.8-2.57-2.71-3.86-6.45,4.52-12.9,9.03-19.35,13.55-6.93,7.31-12.1,4.54-18.17,6.99Z"/>
    <path class="cls-13" d="m6.1,212.82c-3.64,1.48-6.57-1.16-10.43,1.55-7.3-6.92-4.52-12.09-6.98-18.16,9.27-1.22,18.49-2.21,25.15,11.2-2.58,1.81-5.16,3.61-7.74,5.42Z"/>
    <path class="cls-21" d="m-4.33,214.37c3.86-2.71,6.79-.07,10.43-1.55,8.4,11.68,20.1,23.91,4.65,31.34-3.32-9.62-22.58-22.06-15.09-29.79Z"/>
    <path class="cls-14" d="m13.46,248.02c26.1,4.89-9.25-35.81,12.38-31.71,20.63-2.12-1.33,8.09,16.26,23.22-17.11,8.02,14.98,13.8-4.64,26.31-6.91-12.03-17.06-5.77-23.99-17.82Z"/>
    <path class="cls-19" d="m102.05,111.07c8.06-.73,15.15,3.91,21.29,13.9-4.93,2.54-6.29,5.67-5.05,9.29-5.15,3.6-10.31,7.22-15.47,10.83-1.44-3.63,1.21-6.55-1.53-10.43-15.31-2.39-3.3-14.96.75-23.59Z"/>
    <path class="cls-16" d="m-6.66,169.9c8.12,11.6,16.26,23.22,24.36,34.8-1.28.9-2.58,1.81-3.86,2.71-6.66-13.41-15.88-12.42-25.15-11.2-8.02-14.99-5.15-28.03.39-40.63,3.24,5.08-1.22,8.83,4.26,14.33Z"/>
  </g>
</svg>