<?xml version="1.0" encoding="UTF-8"?>
<svg xmlns="http://www.w3.org/2000/svg" viewBox="0 0 1920 781.22">
  <defs>
    <style>
      .cls-1 {
        opacity: .8;
      }

      .cls-1, .cls-2, .cls-3 {
        fill: none;
      }

      .cls-2 {
        isolation: isolate;
      }

      .cls-4 {
        fill: #eef2d5;
      }

      .cls-5 {
        fill: #ebf5fa;
      }

      .cls-6 {
        fill: #f0f0b1;
      }

      .cls-7 {
        fill: #e3edc0;
      }

      .cls-8 {
        fill: #edf4e5;
      }

      .cls-9 {
        fill: #f1f4cb;
      }

      .cls-10 {
        fill: #97d2ed;
      }

      .cls-11 {
        fill: #bae0df;
      }

      .cls-12 {
        fill: #a0d6ed;
      }

      .cls-13 {
        fill: #cde6f0;
      }

      .cls-14 {
        fill: #b2dddf;
      }

      .cls-15 {
        fill: #b2dded;
      }

      .cls-16 {
        fill: #a7d6f3;
      }

      .cls-17 {
        fill: #a9d9ec;
      }

      .cls-18 {
        fill: #bbe0ee;
      }

      .cls-19 {
        fill: #bbdeca;
      }

      .cls-20 {
        fill: #d9e69c;
      }

      .cls-21 {
        fill: #d6e7b2;
      }

      .cls-22 {
        fill: #c4e2d2;
      }

      .cls-23 {
        fill: #c8e3c6;
      }

      .cls-24 {
        fill: #dee9a5;
      }

      .cls-25 {
        fill: #c3e3ef;
      }

      .cls-26 {
        fill: #c3dfac;
      }

      .cls-27 {
        fill: #c4e0ba;
      }

      .cls-28 {
        fill: #d9e7ab;
      }

      .cls-29 {
        fill: #d8ebf3;
      }

      .cls-30 {
        fill: #cae2b5;
      }

      .cls-31 {
        fill: #e0eff6;
      }

      .cls-32 {
        fill: #c7e5e2;
      }

      .cls-33 {
        fill: #d5ebe9;
      }

      .cls-3 {
        mix-blend-mode: multiply;
        opacity: .85;
      }

      .cls-34 {
        fill: #82cbd1;
      }

      .cls-34, .cls-35, .cls-36, .cls-37, .cls-38, .cls-39, .cls-40, .cls-41, .cls-42, .cls-43, .cls-44, .cls-45, .cls-46, .cls-47, .cls-48, .cls-49, .cls-50, .cls-51, .cls-52 {
        fill-rule: evenodd;
      }

      .cls-35 {
        fill: #95d2d8;
      }

      .cls-36 {
        fill: #a1d6db;
      }

      .cls-37 {
        fill: #c7e6e6;
      }

      .cls-38 {
        fill: #c6e6f2;
      }

      .cls-39 {
        fill: #c4e4df;
      }

      .cls-40 {
        fill: #a9dadb;
      }

      .cls-41 {
        fill: #a9dae4;
      }

      .cls-42 {
        fill: #acdad7;
      }

      .cls-43 {
        fill: #acdbdf;
      }

      .cls-44 {
        fill: #b9e0e2;
      }

      .cls-45 {
        fill: #b9dfdd;
      }

      .cls-46 {
        fill: #91d0d5;
      }

      .cls-47 {
        fill: #9bd4d6;
      }

      .cls-48 {
        fill: #9bd3ca;
      }

      .cls-49 {
        fill: #9ed6dd;
      }

      .cls-50 {
        fill: #92d1d4;
      }

      .cls-51 {
        fill: #b4dedd;
      }

      .cls-52 {
        fill: #a0d6d6;
      }
    </style>
  </defs>
  <g class="cls-2">
    <g id="_レイヤー_16" data-name="レイヤー 16">
      <g>
        <path class="cls-17" d="m1788.87,777.96c-2.26.94-4.85.07-7.08,1.35-4.53.73-9.2-.64-13.41,1.47-2.29.58-5-.25-7.4.22-3.41-.27-7.32.46-10.28-1.62.89-2.59,6.3.75,8.74-2.01.18-.15.49-.24.69-.15,2.6,1.21,4.54-1.27,6.95-1.27,1.03,0,1.85-1.03,2.66-1.75,1.93-1.72,3.25-1.56,4.77.46,1.28,1.13,5.13,4.86,5.43,1.19.71-6.62-3.43-4.85-2.83-7.9.35-1.77,6.12.64,4.36-1.84-1.52-2.17-5.27.21-5.48-3.1-.16-1.21-1.21-2.07-1.34-3.44.82-1.58,1.77-3.8,3.83-3.22,3.01.96-.97-5.18.81-7.78,1.39-4.06-5.37-1.95-5.59.82-1.45,3.45,1,6.17,1.01,9.85-3.5,2.21-6.8-2.72-9.84.46-.54.54-1.35.78-2.16.78-2.77.24-1.35-3.36-3.6-4.2-4.11-2.2-6.51-5.81-8.76-9.67-1.75-.66-2.23-2.23-2.74-3.77-.27-1.46-2.16-3.39.28-3.99,1.59-1.22-1.22-4.86-3-4.93-2.11-.36-3.27-1.84-4.16-3.38-.78-2.8-5.81-4.15-3.83-7.24.38-.57.98-1.21.38-1.95-1.09-1.32-2.71.02-4.1-.44-4.23-.48,1.89,7.75-8.21,2.06-1.51-1.28-3.71-.65-4.95.81-3.2.94-1.77,3.64-2.13,5.65,1.48,4.18,1,8.12-.26,12.2-.12.62-.52,1.06-1.01,1.44-1.21,1.46-3.7,4.06-2.19,5.87,3.08,4.28,5.34,9.13,8.36,13.37-3.4.6-6.19-2.51-8.4-4.64.26-2.53-1.53-4.04-2.55-5.84-1.9-3.29-2.13-7.31-4.09-10.65-.6-1.34-.51-2.39.69-3.34,2.13-2.35,1.1-6.21,2.04-9.12.31-1.54.02-2.76-1.44-3.72-4.43-3.42-.38-14.52,5.07-15.45.5-.35,1.06-.36,1.47.12,2.21,2,5.79-2.4,6.79,2.8.22,1.14.71,1.07,1.48.76,9.74-1,2.63-5.49,7.38-6.24,4.15-.43-.68-7.27,5.86-6.75,5.03-.35,10,1.21,15.03.48,2.39-.15,5.65,1.59,6.32-2.01.68-5.74,2.91-2.52,6.45-3.23,3.04-.79,5.99,1.4,9.18.63,2.57-.16,4.02,1.3,4.26,3.82.07.71-.09,1.18-.8,1.38-5.89,2.39.25,7.86.88,4.11,2.49-11.4,13.29-4.84,20.68-5.24,1.3-.27,2.48.29,3.21,1.52.25.41.51.86.99,1.01,3.24,1.07,5.17,3.66,6.82,6.34,2.67,4.44,5.15,9.98,3.71,15.28-.39.9-.28,1.72.36,2.52,3.52,4.47,2.89,10.24,3.3,15.55.28,2.71-.16,3.24-2.69,4.13-1.31.46-2.57.95-3.99.92-2.5.08-1.2,3.97-3.89,4.33-1.4.73.98,2.34,1.45,3.21,1.84,1.92,2.09,4.46.02,5.97-4.14,3.68-6.7,8.85-11.99,11.13-2.59,1.48-4.27,5.64-7.53,5.92Z"/>
        <path class="cls-10" d="m1723.58,763.2c-1.1-1.1-.11-2.83-1.88-3.4-1.38-.59-1.49-1.95-1.25-3.25.7-2.51,3.48-.88,5.28-1.57-.28-.72-.95-1.29-.56-2.16.16-1.46-2.94-1.1-2.67-4.21-.2-3.22-6.47-9.34-.33-9.98,2.14-.74,2.36-1.68.78-3.3-2.94-2.67,2.1-4.76-.74-7.4-3.62-4.98,4.98-5.31,5.2-.46.02.29.06.61.51.87,1.3-2.43,3.79-1.74,5.86-2,5.76-.92,1.76,9.47,5.85,6.83,3.13-1.74,7.47,13.71,9.37,16.22,1.12,2.81,4.39,3.64,6.28,5.71.52.66,1.26.86,2.01,1.1,1.8.59,2.25,1.31,1.73,3.07-.59,2.17,2.03,4.39,3.87,3,7.16-4.67,3.88-2.69,10.61-.59,3.46.24,1.83,5.05,1.61,7.35-1.51,4.19-6.51,5.15-10.46,6.05-4.06.91-8.1,3.13-12.44,2.5-4.98,1.52-2.86-4.33-8.26-6.82-2.21-2.61-7.03-3.49-7.54-7.13-.03-.87-.44-1.33-1.32-1.36-7.84-3.05-2,3.28-7.58,1.85-1.45.79-2.87.39-3.92-.93Z"/>
        <path class="cls-15" d="m1790.51,777.42c.3-2.15,3.43-2.57,4.19-4.75,3.45-2.29,7.01-4.34,9.5-7.86,1.1-3.07,5.39-3.68,5.14-7.31.56-1.67-5.87-5.45-3.02-6.19,1.82-.41,2.08-.71,2.33-2.56.22-3.21,4.01-.97,5.71-2.72.7-.53,1.8.24,2.32-.64.69-5.59.67-12.39-2.23-17.47-1.15-1.36-2-2.2-1.07-3.92,1.34-2.84-.34-5.39-.59-8.15.05-1.37-.15-2.64-1.58-3.35-1.04-.43-.59-1.79-.97-2.57-1.64-2.48-3.58-5.1-6.1-6.55-2.36.36-2-3.01-4.3-2.85-3.11.57-5.86.15-8.68-1.2-3.52-.96-8.04-.36-10.7,2.18-.14.11-.38.25-.37.37.03,1.32-1.08,2.24-1.18,3.51-.06.99-.44,2.69-1.74,1.84-2.12-1.26-2.52-.52-2.76-3.3-.14-.28-.18-.71.06-.84,1.24-.71,1.67-2.58,3.57-2.34,0-.86-.61-1.5-.42-2.33.13-.56-.31-1-.88-1.2-1.76-.99-3.72-.8-5.71-.39-.49.23-1.01-.22-1.51-.4-4.78-2.28-4.16,1.25-8.54-1.07-1.32-.24-2.01,1.95-2.02,3.06.23,2.21-3.15,4.5-4.9,2.79-.57-.55-1.23-.34-1.83-.03-1.36.98-2.82-.91-4.02.5-.27.3-.68.12-.99-.1-1.5-1.07-3.13-1.03-4.77-.48-.81.27-1.35.23-2.12-.26-1.86-.84-4.21-.34-5.98.68-3.02,1.85,2.04,6.55-4.41,6.01-.23.21-.22.38-.17.56.86,2.43-.49,5.2-3.06,5.26-1.44-1.17-5.26,2.58-4.76-.62.31-2.32-2.57-3.32-4.29-2.04-1.2.65-1.28.64-2.05-.43-.98-1.75-1.86.92-3.26.57-2.33.04-1.59,2.75-3.25,3.61-1.19,1.33-.56,3.62-1.39,5.26-1.49,4.27,4.51,5.02,3.34,8.49-1.06,3.5.39,8.31-2.99,10.59-.4.25-.52.72-.28,1.12,1.27,3.3,3.1,6.35,3.39,9.95.08.67.49,1.06.97,1.44.65.53,1.31,1.07,1.19,2.06.43,1.71,2.53,1.45,1.3,4.03-3.13-.76-4.74-4.12-7.18-5.99-.76-1.88,2.15-3.49-.05-5.01-2.31-2.07-3.06-4.75-3.12-7.7-.76-3.27-2.09-6.43-2.69-9.77-.44-1.8,1.36-3.37,1.55-5.25.92-3.18.39-6.73,1.04-9.88.21-2.01,1.91-2.47,3.01-3.75.92-2.65,8.9-6.61,11.41-4.96,8.11,3.45,3.96,6.53,9.99-.86.93-.57.57-1.23-.18-1.65-3.81-2-4.83-5.49-1.05-8.21,1.68-2.05,5.63-.5,4.94,2.33-.25.93.33,1.23,1.14.94,1.6-.43,3.08-1.55,4.75-1.61,1.58.1,3.03.04,4.32-1.18,2.72-1.35,3.11,1.19,6.76-1.42,1.97.3,3.69-1.01,5.64-.8,3.23-.69,5.93-3.66,9.49-1.74,1.87.7,3.85.99,5.77,1.34,2.14-.76,4.23-.93,6.34.22,1.29.23,3.17-2.06,4.08.12,2.36,4.5,3.84-.66,6.61,1.62,2.14,2.37,6.24-1.51,7.77,1.65,1.22,4.07,5.98.56,8.16,3.64.54.86,1.92.23,2.41.99,1.7,2.92,5.62,1.42,6.37,5.83,1.14,1.9.87,4.48,2.35,6.1,1.06.97,2.24,1.87,2.18,3.54-.01.32.22.53.51.67,3.72,2.22-.5,10.07,1.65,14.62.8,1.83,3.53,1.34,3.5,3.99.44,1.4-.83,2.06-.88,3.48,0,1.31-.66,2.19-.97,3.44-2.76,2.59-1.56,10.11-6.82,9.74,3.72,6.25-7.86,17.65-12.45,21.37-1.18,1.27-3.15,1.17-4.09,2.7-.42.57-1.08.31-1.65.68-.6.67-1.6.14-2.16.71-.62.44-1.91.47-2.56.1Z"/>
        <path class="cls-25" d="m1703.33,714.88c-2.8-3.48,1.04-7.36.99-11.13.42-3.47,4.07-4.9,5.07-8.08,3.05-9.68,7.9-4.83,12.57-9.4.22-.35.93-.15,1.35.12,2.7,1.56,1-3.77,4.37-2.03,1.83.16,3.08,2.3,4.85,1.91,2.55-1.24,5.42-1.34,8.06-2.39,1.95-.77,4.26-.27,6.33-1.01,4.21-2.27,8.2-4.56,13.01-5.25,2.05-.48,3.77,2.14,5.81.61,1.88-1.53,3.48,1.51,5.38.2,1.64-.88,3.25-.78,4.8.17,8.19,4.83,10.49-6.8,14.22-1.55,1.14,5.81,7.79,5.51,6.79,10.1-.42,1.71,2.54,4.48,4.36,4.45,4.93.33,8.15-5.65,13.11-4.07,1.7,1.03,3.91.83,4.71,2.87,1.01,2.49,2.81,4.57,3.7,7.27.65,4.43.13,8.87,1.75,13.16.6.69,0,1.51.46,2.24-.91,6.21,1.77,16.02-2.12,20.94-5.82-4.38-2.98-10.74-4.01-16.6-.55-1.73-.95-3.47-.28-5.29.94-2-3.91-1.81-4.96-3.45-1.95-2.5-1.51-5.96-4.98-7.7-1.58-.84-.91-2.83-2.17-3.94-1.78-2.84-3.16,1.85-5.35.22-6.32-.38-3.48-4.55-8.24-4.18-4.61.95-9.14-3.24-10.47-7.3-.16-1.48-1.87-2.12-3.27-1.17-1.47,1-2.58.86-3.87-.15-3.38-1.53-7.66-1.03-11.37-1.81-2.62-.17-5.47-1.01-8.02-.06-1.74,1.42-4.24,1.32-5.86,2.99-.38.4-.97.52-1.51.49-2.01-.1-3.74,1.25-5.8,1.02-.82-.09-1.44.79-2.21,1.13-9.91,4.31-16.39,2.95-22.66,13.53-5.15,4.05-13.25,2.2-13.53,11.33-.15.7-.05,1.46-1.01,1.8Z"/>
        <path class="cls-18" d="m1703.12,714.91c2.04-3.46.84-9.6,6.89-10.02,1.79-.35,3-2.07,4.96-1.88,1.05.05,1.72-.53,2.41-1.31,2.46-2.23,3.21-6.23,6.56-7.26,1.26-.3,2.34-2.14,3.73-2.59,1.89-1.43,4.35-.13,6.1-1.54,2.29-.76,4.64-1.78,6.96-2.61.92-.6,1.56-1.55,2.82-1.2.47.04,1,.37,1.4.06,2.04-1.46,4.62-.31,6.3-2.41.35-.16.53-.72,1.01-.63,1.12.22,1.86-.41,2.71-.99,4.72-2.62,13.08,1.29,17.91.45,1.26-.96,4.17,3.37,5.18,1.72,1.38-1.65,5.17-1.22,4.96,1.33.38,2.36,2.84,3.92,4.69,5.22,1.68,3.36,5.84-.24,8.35,2.33.62.45,1.15.67,1.05,1.61.42,2.2,3.77.52,5.1,2.08.7.44,1.06-.64,1.44-1.03,1.38-1.63,2.79-.37,3.57,1.03.68.48.88,1.05.73,1.86-.35,1.83,2.54,1.4,2.92,3.15.63,1.48,2.55,2.32,2.11,4.17-.06,2.3,3.07,3.28,5.01,3.72,1.56.13,1.72.45,1.16,1.85-1.45,3.79,1.91,7.38.19,11.23-.46,1.38.5,2.74.26,4.2-.86,2.85,5.26,6.32,2.55,7.83-1.8-3.72-4.42-1.59-4.13-4,.29-1.2.11-2.26-.62-3.23-1.46-2.99,3.67-10.7-1.81-11.16.99-1.91-.24-3-1.54-3.98-1.31-.86-1.51-2.25-1.38-3.62-1.36-1.25-.95-3.26-2.08-4.64-1.51-2.95-4.31-.73-5.08-3.19-.17-1.97-1.89.08-2.63-1.43-1.75-2.97-5.03-.54-7.49-2.17-1.47-.95-.28-3.44-2.75-2.75-1,.07-2.02-.07-2.93.57-2.27.61-3.58-3.42-5.73-.84-1.32,1.4-3.5-.92-3.95-2.29-.1-.64-.57-.7-1.09-.53-1.51.94-2.85,1.67-4.36.23-.88-.76-1.86-.43-2.67.07-2.7,1.15-5.73-.63-8.44-1.22-2.62-1.11-4.93.37-7.08,1.78-2.13-.06-4.09,1.01-6.21.91-.56-.03-1.15-.16-1.49.33-1.86,2.83-5.48-1.01-7.11,2.12-.29.51-.88.5-1.29.38-3.11-1.25-5.61,2.22-8.33,1.55-1.37-.93.93-2.27-.39-3.18-1-1.3-2.8-1.72-4-.28-.95,1.3-3.45,2.9-2.07,4.61.43,1.96,6.58,3.62,3.47,5.23-2.54.73-1.91,5.71-4.84,4.62-5.85-4.31-6.51-5.38-13.13-1.89-3,.45-2.61,3.38-4.94,4.28-3.24,2.06-.62,7.05-2.48,9.65-.76-.54-.31-1.24-.45-1.98.08-.98,0-1.96-.11-2.94-.06-.44-.42-1.07.08-1.35Z"/>
        <path class="cls-5" d="m1701.64,707.56c-5.68-25.87,22.71-41.83,43.87-48.06,14.56-4.22,29.68-1.26,43.83,3.1,11.45,1.71,19.74,10.61,24.79,20.58-1.72.84-3.38-3.38-6.39-2.77-2.18.2-1.37-2.69-3.08-3.28-1.21-.54-2.47-.97-2.97-2.4-5.11-2.33-11.13-3.61-15.92-6.88-3.86-1.14-6.37.78-10.42-2.7-4.24-3.65-5.51,1.61-8.79-.38-3.25-2.46-6.19.86-9.45.21-10.79-2.52-21.24,3.41-30.42,8.3-13.67,6.21-21.23,21.27-25.05,34.27Z"/>
        <path class="cls-31" d="m1703.53,701.46c-.81-1.46,2.79-7.85,3.83-9.36,2.66-3.95,4.99-7.92,8.2-11.44,9.85-8.17,23.31-16.02,36.1-16.83,2.34.19,4.78.38,7.05.97.97-1.26,2.6-.45,3.7-1.19,2.51-1.84,4.71,2.56,7.13.81,2.7-2.62,5.74.1,8.24,1.48,1.43,2.26,4.37.64,6.53,1.08,1.1-.01,1.98.35,2.72,1.14,1.42,1.6,3.71,1.35,5.42,2.55,1.71,1.08,4.34.61,5.69,2.35.56.77,1.31.89,2.23.75,1.37-.21,1.61-.06,2.04,1.34.75,1.82,4.16,1.14,3.98,3.72.07,2.69,3.35-1.25,8.45,5.64-9.87,3.63-7.82.46-15.36-2.05-1.24-.18-1.66-1.59-1.81-2.85-.28-2.34-.84-2.9-3.1-2.96-3.01-.62-3.76-4.9-7.54-2.97-6.11,2.63-8.23,1.8-13.99-.39-3.97-1.68-8.41-1.45-12.46-2.91-1.03-.45-2.21-.63-3.32-.03-2.02,1.28-3.1-5.06-8.6-2.89-2.01,1.61-4.4.48-6.56,1.23-3.95,1.42-7.15,4.46-11.03,5.8-6.68,2.37-13.63,6.12-17.91,11.97-4.43,4.34-5.93,10.37-9.64,15.05Z"/>
        <path class="cls-29" d="m1703.39,701.45c3.9-6.94,7.29-14.79,13.62-19.92,2-.52,2.47-2.79,4.19-3.4,3.47-.19,5.62-3.64,9.18-3.99,1.47-.41,3.09-.47,3.94-2.1,1.76-1.26,4.25-1.71,5.99-3.17,1.25-.66,2.73-1.13,4.1-1.09,1.6.79,2.85.02,4.02-.93,10-1.51,5.88,4.95,8.77,2.87,3.97-1.15,7.62,2.52,11.8,1.51.76-.12,1.35.42,1.94.84.95.98,2.21.68,3.36.64.91,1.73,3.25.61,4.25,2.17.19.3.66.19,1.02.19,4.91-.05,10.62-5.29,13.82.68.91,1.27,2.39-.69,3.24.54.58.91,1.95,1.4,1.55,2.84-.38,1.77,1.2,3.56,3.02,3.19,1.02-.14,1.63.21,2.16,1.14,2.89,4.18,8.16.96,12.14,1.07,1.87,1.77,3.62,3.46,5.07,5.71-1.1,2.09-2.87-3.24-6.24-2.34-6.13-2.3-7.34,2.94-12.04.75-8.6-2.23-1.87-3.26-6.8-6.39-4.26-.91-3.95-10.75-9.29-6.92-8.2,9.45-8.62.3-14.73,1.77-3.12,1.8-1.74-2.98-4.13-1.6-6.49,4.05-4.27-5.11-8.27-2.05-.87.57-1.67.58-2.53.1-1.93-1.35-3.26.85-5.16.99-2.77-.04-5.17,2.92-7.85,1.38-4.48-2.58-6.02,2.73-9.71,3.13-1.43.06-2.6.93-3.63,1.84-2.6,2.68-6.34-.02-9.15,2.18-1.35,1.19-3.51.76-4.65,2.17-5.6,5.39-10.29,12.08-12.22,19.65-.26,1.41-.13,3.07-1.83,3.93-.33-.35-.51-.68-.77-1.14.16-.26.39-.4.74-.6.27-1.89.53-3.73,1.08-5.62Z"/>
        <path class="cls-13" d="m1702.22,708.91c2.5-3.11,1.28-7.68,4.29-10.71,1.6-5.52,5.77-9.27,9.56-13.35,1-1.61,3.01-.75,4.26-1.93,2.9-2.71,6.7.31,9.54-2.37,1.3-1.16,2.78-2.31,4.8-2.04.88.12,1.47-.49,1.85-1.2.97-1.88,5.21-3.67,6.73-2.14,2.42,2.26,4.76-1.2,7.57-1.02,2.14.01,3.51-2.76,5.71-1.17,1.38.79,1.4.77,2.57-.25,5-3.19,1.22,7.11,8.82,1.89,2.44-1.27.49,4.18,3.15,1.99,1.47-.85,4.22-.18,5.04,1.29.27.48.63.84,1.07.82,4.01.99,6.14-.44,8.53-3.58,2.76-3.4,6.17.64,6.79,3.7.27,2.89,5.6,2.8,5.55,5.71-.23.97-.34,2.79,1.14,2.59,2.03-.11,3.51,1.7,5.59,1.71,2.76-.6,4.45-3.06,7.87-1.49-2.46.64-4.35,2.27-6.58,3.38-.82.02-1.26.62-1.76,1.1-1.3-.09-2.58.45-3.85.29-1.41-.11-2.01-1.65-3.01-2.42-1.22-.77-1.35-1.83-1-3.13,1.01-2.69-2.97-3.05-4.21-4.81-1.76-1.52-1.62-4.21-3.49-5.5-1.5-1-3.14,1.23-4,2.35-.84,1.33-3.01,1.22-4.38,1.6-2.95.69-5.06-2.55-7.94-1.79-4.1,2.64-3.72-1.2-6.17.08-3.94,2.5-3.55-2.32-9.94.58-4.3.32-6.82,4.21-11.02,4.67-1.67.93-3.45-.34-5.17.67-2.08,1.43-4.92.93-6.9,2.04-1.61,2.04-3.14-1.36-4.69-1.37-1.07.45-2.61-1.96-2.83,0-.65,5.17-2.56.01-4.23,1.92-1.91,3.33-1.67,1.52-4.55,1.68-4.83,1.33-6.23,4.71-7.85,9.04-5.41,4.49-3.78,7.5-6.29,13.24-.86-.09-.61-1.44-.55-2.04Z"/>
        <path class="cls-18" d="m1703.61,721.31c1.41,3.28-3.66,7.14-.79,9.99,1.54,1.57-.62,3.84,1.48,5.16.9.95.24,2.46.44,3.64.43,1.9.99,4.41,2.56,5.57,1.35.77,2.16,3,.66,4.04-.28.22-.31.76-.46,1.27-1.24.32-1.21-.88-1.84-1.57-2.46-3.04-2.92-7.07-3.18-10.6-.69-2.27-.7-4.95-2.64-6.9-.2-.62.08-1.21-.33-1.86.11-.89.38-1.71.59-2.57.06-.26.19-.67.27-.98.99-.96.89-2.73,1.93-3.61.26-.65.52-1.42,1.31-1.59Z"/>
        <path class="cls-13" d="m1796.98,775.99c-.47-.83-.05-1.33.77-1.52,3.3-1.01,5.33-4.09,8-6.09,1.22-1.92,2.92-3.43,4.39-5.11.68-3.38,5.84-7.83,2.72-10.86-1.27-2.47,2.39-.21,3.41-1.63-3.75,14.04-6.1,18.23-19.29,25.22Z"/>
        <path class="cls-25" d="m1699.74,731.98c2.52-1.5,1.47,4.74,3.27,5.82.58.66.23,1.87,0,2.77-.27,1.07-.22,1.97.44,2.85.46.29.33,1.63-.49,1.26-.49-.8-.9-1.54-1.39-2.43.04-.51-.12-.87-.08-1.34-.88-1.45-.14-2.82-1.11-4.25-.75-1.49-.77-3.06-.64-4.68Z"/>
        <path class="cls-13" d="m1814.27,687.95c3.72-2.13,3.36,2.07,6.26,2.46,1.65.62,3.21,5.69,2.42,7.31-1.08-.31-1.36-1.27-1.62-2.16-.25-1.46-1.79-2.04-2.03-3.5-.39-2.96-2.96-2.88-5.03-4.1Z"/>
        <path class="cls-31" d="m1823.06,734.72c-.16-.14-.19-.35-.17-.64,2.55-5.37,1.32-11.73,1.75-17.51-.22-1.17-.72-2.23.34-3.29.83,4.46,1.48,18.58-1.91,21.45Z"/>
        <path class="cls-13" d="m1750.21,779.49c-5.68.2-12.89-5.19-17.56-8.59.85-1.25,1.5-.08,2.38.23,4.56,3.78,10.4,5.38,15.18,8.36Z"/>
        <path class="cls-13" d="m1764.31,780.87c1.36-.93,3.25.18,4.74-.75,2.98-1.14,7.25-1.78,9.98.24-1.04.63-1.98.07-2.91-.22-4.19-1.66-7.64,2.8-11.81.73Z"/>
        <path class="cls-15" d="m1735.07,771.3c-1.05.42-1.37-1.22-2.49-.52-2.86-1.26-4.88-3.97-6.99-6.24.29-.21.58-.27,1.13-.33,3.04,2.16,6.61,4.07,8.35,7.09Z"/>
        <path class="cls-13" d="m1750.74,779.34c3.37,1.68,6.96.53,10.17,1.55-.76,1.43-12.14-.13-10.17-1.55Z"/>
        <path class="cls-13" d="m1725.49,764.36c2.1,1.61,3.76,3.55,5.68,5.42-2.47,0-5.48-4.91-7.7-6.56.74.16,1.56.29,2.02,1.14Z"/>
        <path class="cls-31" d="m1824.67,710.84c-1.28-.07-2.36-7.57-1.49-8.61.7,2.8,1.02,5.63,1.49,8.61Z"/>
        <path class="cls-29" d="m1705.56,749.43c1.03.04.93,1.22,1.8,1.65,1.56.6,1.97,2.15,3.13,3.18-.6.39-1-.13-1.27-.51-1.07-1.68-3.33-2.17-3.67-4.32Z"/>
        <path class="cls-13" d="m1785.16,778.92c-.53,1.82-4.43,1.92-6.11,1.64.51-1.11,1.54-.98,2.62-1.1,1.23-.22,2.22-.99,3.48-.54Z"/>
        <path class="cls-15" d="m1785.34,778.98c-1.21-.28-3.14,1.62-3.8.27,1.2-.83,3.03-1.89,4.36-.7-.19.21-.32.29-.56.43Z"/>
        <path class="cls-29" d="m1711.41,755.63c1.2-.4,2.67,1.46,3.37,2.42-1.48-.12-2.34-1.28-3.37-2.42Z"/>
        <path class="cls-13" d="m1703.56,721.19c-.28.58-.61,1.04-1.04,1.57-.49-1.22.28-2.31.58-3.58.62.49.24,1.24.46,2.01Z"/>
        <path class="cls-29" d="m1817.61,748.31c-.15-1.04.25-2.01.92-2.99.31,1.08.16,2.13-.92,2.99Z"/>
        <path class="cls-13" d="m1790.37,777.37c.53.22,1.03-.3,1.5.18-.88.57-1.86.95-3.06.49.42-.26.92-.43,1.55-.66Z"/>
        <path class="cls-29" d="m1702.86,744.74c.16-.16.28-.15.47-.05.35.65.86,1.14.88,1.98-.91-.22-1.13-1.02-1.35-1.92Z"/>
        <path class="cls-13" d="m1700.02,727.57c.43.79.16,1.53-.44,2.31-.48-.8-.16-1.53.44-2.31Z"/>
        <path class="cls-13" d="m1761.09,781.07c.6-.47,1.3-.9,2.22-.34-.59.63-1.31.83-2.22.34Z"/>
        <path class="cls-13" d="m1701.46,724.27c.49.97-.19,1.52-.95,2.16-.12-.8.41-1.43.95-2.16Z"/>
        <path class="cls-31" d="m1820.98,740.5c-.37-.49-.2-1.01.1-1.61.39.47.62,1.02-.1,1.61Z"/>
        <path class="cls-29" d="m1820.3,742.16c-.37-.43-.34-.88.2-1.33.35.42.32.87-.2,1.33Z"/>
        <path class="cls-29" d="m1701.42,740.88c.3.27.62.61.18,1.14-.32-.27-.62-.61-.18-1.14Z"/>
        <path class="cls-31" d="m1702.81,715.13c.33.17.63,1.01.16,1.25-.31-.4-.64-.74-.16-1.25Z"/>
        <path class="cls-31" d="m1699.97,735.48c.27.2.48.47.39.94-.62-.03-.81-.33-.39-.94Z"/>
        <path class="cls-29" d="m1715.28,758.84c.43-.37.75-.18,1.02.41-.42.29-.73.09-1.02-.41Z"/>
        <path class="cls-13" d="m1795.23,776.71c.02-.61.32-.81.92-.4-.18.3-.45.5-.92.4Z"/>
        <path class="cls-5" d="m1815.55,684.43c-.14.16-.34.2-.64.2-.18-.19-.26-.33-.39-.58.42-.34.75-.17,1.04.38Z"/>
        <path class="cls-13" d="m1785.97,778.67c-.12,0-.2-.14-.24-.22.32-.24.67-.55,1.18-.13-.18.31-.49.35-.94.35Z"/>
        <path class="cls-13" d="m1702.86,716.46c0-.12.14-.2.22-.25.24.32.55.66.12,1.15-.3-.18-.34-.48-.34-.91Z"/>
        <path class="cls-31" d="m1699.58,733.27c.24.27.55.61.11,1.12-.35-.26-.37-.64-.11-1.12Z"/>
        <path class="cls-13" d="m1731.7,770.55c.25-.21.53-.23.82.13-.24.23-.53.27-.82-.13Z"/>
        <path class="cls-31" d="m1702.21,710.47c.18.07.26.2.41.45-.07.19-.2.27-.43.41-.27-.23-.34-.51.03-.86Z"/>
        <path class="cls-13" d="m1700.29,726.58c.23.23.29.51-.08.84-.24-.23-.3-.51.08-.84Z"/>
        <path class="cls-13" d="m1793.14,777.37c-.24-.44-.25-.81.49-.4-.08.17-.22.26-.49.4Z"/>
        <path class="cls-31" d="m1816.58,685.52c-.26.19-.62.41-.65-.27.27-.1.45,0,.65.27Z"/>
        <path class="cls-31" d="m1824.85,712.5c-.26-.2-.34-.48,0-.84.27.2.35.48,0,.84Z"/>
        <path class="cls-13" d="m1722.9,762.12c.14.08.16.15.21.31-.07.15-.36.03-.41-.1.02-.09.05-.16.19-.21Z"/>
        <path class="cls-12" d="m1723.11,762.06c-.1.08-.25.16-.33.2-1.58-1.54-2.95-3.09-3.88-5.1-.34-1.02-1.72-1.55-1.85-2.6.19-3.52-5.66-5.37-2.93-8.79,1.11-.99.83-2.8,2.52-3.29.2-.09.48-.34.47-.5-.07-1.58,1.15-2.89.89-4.51-.11-.71-.06-1.36.51-1.99.84-2.7-2.28-5.56-.95-8.61.34-1.27-.88-3.3,1.28-3.15,2.05.21.7-2.42,2.96-2.02,1.12.16,2.49.15,3.49.65.85,1.78,2.78,1.38,4.18,2,1.31.58,1.92-.11,1.63-1.52-.46-1.75.21-2.46,1.58-2.71,1.63,1.26,3.47-.85,5,.7.63.46.82.99.33,1.68-3.74,3.63,2.66,4.21,2.99,7.78.25,1.05,1.64,1.18,1.98,2.23,2.34,2.02,4.58.21,5.64,4.73,1.85,2.91-1.95,1.21-1.54,2.98.99,1.2.86,2.81,1.67,4.1.71,2.34,2.42,1.1,2.79,2.76,1.07,4.11,4.78,7.09,8.36,9.1,2.25.55.24,4.27,2.8,3.9,2.36.16,3.42-3.32,5.71-1.95,1.01.35,2.1,1.22,3.14,1.2,1.03-.53,1.97-.04,3.05.08.86,1.44,2.07,2.71,2.06,4.53.63,1.83,3.58-.75,4.49,1.34.19.32.68.47,1.04.69,1.71.93-.46,2.09-1.53,1.9-.99.19-2.58-.83-3.21.13-.26,3.25,3.11-.13,3.15,7.65.29.89-1.11,2.47-2.05,2.63-1.75.21-1.21-2.75-3.29-1.99-.45.15-.67-.59-.92-.99-2.65-5.17-5.11,2.12-8.81,1.42-.82-.09-1.57.3-2.07.92-1.34,2.1-3.25-1.59-4.62.72-2.43,2.04-6.1-.9-8.49,1.26-2.21-2.13-5.93-2.32-7.47-4.83-.75-2.16-2.47-2.99-4.58-3.15-.97-.08-1.76-.35-2.27-1.21-2.33-3.21-6.22-3.98-9.35-6.25.12-1.03,1.13-.59,1.7-.26,3.32,1.37.34-3.07,2.46-3.17,11.65,1.78,1.09,2.65,10.18,7.05,1.23.35,1.54.88,1.92,2.03,1.54.2,2.24,1.95,3.84,2.06,2.12.53,1.13,6.63,4.61,5.41,2.57-.57,5.26.55,7.67-1.01.52-.3,1.02-.68,1.67-.47,1.82.78,2.6-1.78,4.17-1.46,1.55.24,3.38-.12,4.58-.97.42-.56,1.03-.76,1.69-.93,2.7-.72,3.85-3.2,3.83-6-.34-1.53,1.15-3.9-1.1-4.27-1.8.06-3.08-.39-4.26-1.72-3.14-2.65-6.13,4.7-9.42,2.44-4.21-2.76.83-5.18-2.85-6.18-2.43.02-2.67-2.95-4.92-3.02-1.48-.45-2-2.53-3.47-3.23-.2-.12-.47-.34-.47-.51,0-1.54-1.47-2.56-1.44-4.1-1.11-2.69-3.13-5.02-3.62-8.05-.41-1.4-1.72-2.22-2.11-3.68-.42-1.62-1.59-.66-2.2.3-1.96,1.34-2.38-3.16-2.27-4.41.52-2.18-1.93-3.74-3.87-3.2-1.49.8-3.76-.65-4.3,1.54-.26.39-.44,1-1,.92-.66-.09-.78-.74-.72-1.28.37-2.37-3.3-5.04-4.9-3.02-1.27,1.36.98,2.8,1.46,4.16,1.35,2.31-3.11,3.87-.04,5.92.52.7,1.9,1.58,1.07,2.49-1.89,2.99-7.4.38-3.43,5.63.33.2.35.63.22.99-.53,2.22,2.14.96,1.67,5.2-.07,2.63,4.17,1.43,2.47,3.92-.55,1.09.64.58,1.11.99-.07.77-.87,2.18-1.79,1.49-1.22-.55-4-.6-4.03,1.08-.16,1.35.33,2.43,1.23,2.71q1.69.52,1.09,2.5Z"/>
        <path class="cls-12" d="m1762.86,733.75c-.68-.57-1.89-.9-1.62-1.87.46-.88.48-1.69-.05-2.55-.35-.68.49-1.62.34-2.26-.7-1.98.39-3.69.74-5.5.33-1.31-.9-4.5,1.51-4.08,1.07.29,2.69.72,2.98-.84.63-1.7,3.29.44,3.77-2.73.55-3,4.09-.29,5.98-1.82,1.49-.38,3.66-1.08,4.59.6.15.3.31.63.82.73-.09-2.7-.16-5.45,2.66-6.84,1.93-1.38,5.14-3.64,7.34-1.78.78,1.78,3.51,2.85,2.54,5.07-.16,1.15,1.02,2.15,1.04,3.37,1.53,6.07-6.51,7.95-8.08,12.82-.54,3.39-2.35,6.22-3.84,9.19-.74,1.23-2.82.51-4.06.87-2.65.5,1.27,2.33.16,4.13-.12.5.05.92.16,1.39.39,1.46-.59,1.87-1.85,1.57-3.28.83-3.08-3.54-5.82-4.18-.88-.31-1.43-.71-1.58-1.7-.34-2.11-3.24-1.65-4.91-1.77-1.3.36-1.86-1.07-2.83-1.82Z"/>
        <path class="cls-12" d="m1810.48,743.93c-2.05-.43-4.9,1.19-5.67,3.06-.15.92-.62,1.3-1.63,1.2-1.2-.04-2.19,1.22-3.47.86-.91-3,1.45-5.52-1.14-8.2-1.34-2.36,1.35-1.51-.09-5.33-.17-2.1-6.06-2.97-3.07-5.59,1.58-1.25,4.97-1.13,4.98-3.69.19-1.59-.32-10.38,2.04-9.24,2.64,1.1,1.5-3.09,4.02-2.52,4.18.43,1.52,5.27,2.94,7.93.17,1.33-2.42,3.88,0,4.61,3.14,1.12,5,3.95,4.6,7.24-.11,2.91-3.48,4.78-2.09,7.98.31,1.2.15,1.37-1.42,1.68Z"/>
        <path class="cls-12" d="m1774.83,759.27c-1.68-2.03-.44-5.18-2.81-6.95-.53-.46-.7-1.06.08-1.43,1.99-1.25.94-4.21,3.9-4.65,1.52-.52,4.27-1.06,4.06,1.4-2.6,4.52,2.75,10.45-1.2,9.26-2.42-1.03-2.06,1.55-4.03,2.38Z"/>
        <path class="cls-12" d="m1790.58,768.58c-.51,3.17,1.5,2.35-2,4.23-2.28,1.84-2.72-1.52-3.79-2.85-.56-.7.01-1.7-.12-2.58-.1-.65.72-.88,1.23-1.16,2.95-.96,5.25-4.26,8.65-3.27.74.29.92.61.36,1.15-1.02.97-1.69,2.33-3.11,2.88-.66.25-1.06.76-1.21,1.6Z"/>
        <path class="cls-12" d="m1799.86,755.79c-2.05,1.55.77,2.15.46,3.93-.28,1.79-1.71.56-2.8.5-1.44-.09-2.04-.83-1.44-2.07.97-2.07-1.93-2.65-.71-5.38.36-1.12,1.9-.84,2.71-1.51.83-.43,1.1-.29,1.02.68-.58,1.71,2.3,2.33.76,3.83Z"/>
        <path class="cls-16" d="m1781.44,779.06c.19.21.27.35.41.59-.76.5-1.77.16-2.67.83-.51-.55-1.22-.51-1.88-.85,1.24-.55,2.6-.86,4.14-.57Z"/>
        <path class="cls-15" d="m1770.7,701.83c-.16,1.62-1.64.95-2.08-.09.02-1.09,1.4-1.15,2.08.09Z"/>
        <path class="cls-12" d="m1781.91,769.93c.55.11,1.02.38.75.81-.54.83-2.22-.58-.75-.81Z"/>
        <path class="cls-12" d="m1713.98,738.91c.42-.32.56-.08.63.24-.1.48-.65.26-.63-.24Z"/>
        <path class="cls-12" d="m1730.86,738.09c-1.95,2.07-1.32-2.8-2.17-3.69-.42-.64.03-.99.57-1.23,1.88-.6.84,3.61,1.6,4.92Z"/>
        <path class="cls-18" d="m1788.58,686.81c-1.34.82-2.31-1.12-3.82-.6-1.31.21-.96-1.82.19-1.66,2.61,1.63,2.1-1.18,3.89-.62,1.05.67.61,2.2-.26,2.88Z"/>
        <path class="cls-15" d="m1734.49,694.74c-.64.19-1.18,1.13-1.61.34-.34-.63.52-.92,1-1.24,1.34-1.11,2.42.08.61.89Z"/>
        <path class="cls-31" d="m1703.29,701.53c.23,1.77-.22,3.53-.79,5.38-.54-1.8-.16-3.59.79-5.38Z"/>
        <path class="cls-17" d="m1726.77,764.29c1.54-.11,2.57,1.83,4.29,1.75,1.37.36,2.07,1.91,3.59,2.19,1.71.43,1.59,3.42,3.83,2.92,1.84-.2,4.34,1.51,4.79,3.29,1.04,2.51,4.56,1.87,6.06,4.4-8.98-2.15-15.79-8.79-22.55-14.56Z"/>
        <path class="cls-10" d="m1773.99,714.53c2.47,1.42,3.4-2.63,4.91.25.31,1.26,1,2.06,1.96,2.83.7,2.23,1.29,4.88,2.6,6.75,2.62,1.89.45,4.23-.19,6.48-.11.97-1.09,1.19-1.73,1.69-2.06,2.42-6.32.52-8.47-.82-.35-.39-1.03-.16-1.16.38-.68,2.45-3.18,1.34-4.91,1.32-2.67-.09-3.16-2.12-3.22-4.37-1-2.77.53-4.83,1.96-6.89,7.1-2.65,4.6-5.38,8.24-7.61Z"/>
      </g>
      <g class="cls-1">
        <path class="cls-35" d="m18.27,37.13h16.18c.22,5.17,5.18,5.6,4.05,12.14-7.72-7.59-7.34,2.39-20.23,0-1.57-5.78-4.86-6.83,0-12.14Z"/>
        <path class="cls-38" d="m46.59,53.33c9.69,1.59-2.25-18.43,12.13-12.15-.88,5.09-6.29,8.27,4.05,8.09v12.13c-7.05.31-12.58-.89-16.18-4.05v-4.03Z"/>
        <path class="cls-44" d="m135.58,101.86c-2.46-3.77-9.4-14.91,4.05-12.13h24.26c2.91,10.99-19.07-2.89-16.18,8.09-5.56-.18-8.88,1.9-12.14,4.04Z"/>
        <path class="cls-34" d="m30.4,122.09c2.44-8.34,6.26-15.32,20.23-12.12-4.03-5.41-10.93-7.95-12.13-16.2h4.03c19.33-3.14,7.09,25.29,20.23,28.32v4.05c-9.89,9.96-17.55-2.99-32.37,0v-4.05Z"/>
        <path class="cls-34" d="m70.85,118.06v-12.15h12.14v20.22c-4.06.01-4.82-3.28-8.09-4.05-.23-2.46-.61-4.78-4.05-4.03Z"/>
        <path class="cls-34" d="m54.67,146.38c.17,5.56-1.9,8.88-4.05,12.13-7.65.9-8.92-4.58-16.18-4.05.97-7.11,6.95-9.22,16.18-8.08h4.05Z"/>
        <path class="cls-44" d="m111.31,158.51c9.39,1.39,18.95,2.63,16.18,16.19h-12.13c10.51-10.65-6.54-3.2-4.05-16.19Z"/>
        <path class="cls-34" d="m115.37,198.96h24.26c2.99,13.78-14.91,6.67-16.18,16.19-7.12-.97-9.22-6.96-8.09-16.19Z"/>
        <path class="cls-42" d="m62.77,37.13V12.87c5.99-2.12,10.2-5.99,16.18-8.09,10.37.42,19.29,2.28,24.28,8.09-17.06-.69.07,6.21,0,12.12v12.15c-9.69,1.6,2.24-18.42-12.14-12.15-6.01-6.37-18.08-4.5-16.18,8.11v4.04h-12.14Z"/>
        <path class="cls-42" d="m127.49,16.91h24.28c3.39,4.69,5.33,10.85,4.04,20.22-7.05-.3-12.58.9-16.18,4.05h-4.05c-.05-8.03-11.03-5.14-8.09-16.2v-8.08Z"/>
        <path class="cls-45" d="m91.08,24.99c14.38-6.27,2.45,13.75,12.14,12.15h4.04c3.48,3.27,2.41,11.09,8.1,12.14-6.9,15.32-6.67-8.78-12.15-8.09-9.03,10.6,15.19,22.39,28.32,24.26,4.64-12.73-6.35-9.81-8.09-16.17,16.6-1.44,18.18,31,32.36,8.08-2.6,14.73,19.27,5,20.22,16.19-5.74-.34-11.45-.67-12.14,4.05-8.62-1.89-7.69,5.79-8.09,12.13h-16.18c2.47-3.77,9.42-14.93-4.05-12.13h-8.09v-12.15c-10.03-.58-19.63-.74-20.23,8.09-3.44-.75-3.81,1.59-4.04,4.05-16.99-5.98-9.21-15.65-4.05-28.32-.39-7.7-15.79,2.5-16.17,8.08-6.16,7.33-27.75-.76-24.28,16.19-.1,3.93-4.95,3.14-8.09,4.05-3.6,2.48-7.23,4.88-8.09,0,2.15-3.26,4.22-6.57,4.05-12.15v-8.09c3.59,3.16,9.13,4.36,16.18,4.05v-24.28h12.14c-2.23,8.97,7.72,5.76,8.09,12.14,4.74-.65,3.41-7.38,4.05-12.14,4.73-.65,3.4-7.37,4.04-12.15Z"/>
        <path class="cls-39" d="m155.81,53.33c-2.14-3.26-4.22-6.58-4.04-12.15,11.66,7.39,12.65,6.57,28.32,4.04,3.83-19.99-15.78-2.22-4.05-20.24,13.14,3.05,17.74,14.65,24.28,24.29-12.07,5.8-13.76-3.31-24.28,4.05-.52,25.56,28.39-3.46,28.32,20.21-.65,4.74-7.37,3.41-12.14,4.05-6.39-.34-15.42,1.94-16.18-4.05-.95-11.18-22.82-1.45-20.22-16.19v-4.03Z"/>
        <path class="cls-40" d="m14.22,24.99c21.31-1.06,33.45,7.01,32.37,28.34v4.03c-3.44.75-3.81-1.57-4.05-4.03v-16.2H-1.96c1.12-8.31,10.8-8.07,16.18-12.15Z"/>
        <path class="cls-52" d="m103.22,24.99h24.27c-2.95,11.05,8.03,8.16,8.09,16.2h4.05v4.04c-13.26-.23-15.46-11.5-32.37-8.09h-4.04v-12.15Z"/>
        <path class="cls-40" d="m87.04,37.13c-.64,4.77.7,11.49-4.05,12.14-.37-6.38-10.32-3.17-8.09-12.14v-4.04c5.74-.35,11.45-.68,12.14,4.04Z"/>
        <path class="cls-51" d="m204.36,73.54c.07-23.67-28.84,5.35-28.32-20.21,10.53-7.37,12.21,1.75,24.28-4.05,6.24,8.58,11.63,18.03,16.18,28.32-3.26-2.14-6.56-4.22-12.14-4.05Z"/>
        <path class="cls-45" d="m139.63,41.19c3.59-3.15,9.13-4.35,16.18-4.05,1.29-9.38-.65-15.53-4.04-20.22,9.46,1.34,16.71,4.87,24.26,8.08-11.72,18.02,7.89.25,4.05,20.24-15.67,2.53-16.66,3.35-28.32-4.04-.18,5.56,1.9,8.89,4.04,12.15-5.98-2.12-10.2-6-16.18-8.11v-4.04Z"/>
        <path class="cls-51" d="m83,57.36c.39-5.59,15.79-15.78,16.17-8.08-5.16,12.67-12.93,22.34,4.05,28.32-.65,4.74-7.37,3.41-12.14,4.05,3.72,9.76,10.47,16.48,20.23,20.21v28.32c-11.44,3.35-10.49-5.69-20.23-4.04v-4.05c6.92.19,10.47-3.01,12.14-8.08,2.79-10.89-8.36-7.82-12.14-12.15.46-17.97-7.92-7.32-20.23-16.17,1.43-5.32,7.13-6.36,8.09-12.14,12.75.63,7.87-16.4,16.19-20.21-4.71-.67-7.21.88-8.09,4.03h-4.05Z"/>
        <path class="cls-42" d="m107.26,37.13c16.91-3.41,19.11,7.87,32.37,8.09,5.98,2.1,10.2,5.99,16.18,8.11v4.03c-14.18,22.92-15.76-9.52-32.36-8.08h-8.09c-5.7-1.06-4.63-8.88-8.1-12.14Z"/>
        <path class="cls-39" d="m123.45,49.28c1.74,6.36,12.73,3.45,8.09,16.17-13.12-1.88-37.34-13.67-28.32-24.26,5.47-.69,5.24,23.41,12.15,8.09h8.09Z"/>
        <path class="cls-43" d="m18.27,49.28c2.45,11.76,19.38,16.84,24.26,4.05.24,2.46.61,4.78,4.05,4.03v8.09c-13.14,2.35-18.82-2.74-28.32-4.04,3.87-14.66-17.47-4.11-20.23-12.13-3.44.74-3.81-1.58-4.05-4.05.77-3.27,4.06-4.03,4.05-8.09h20.23c-4.86,5.31-1.57,6.37,0,12.14Z"/>
        <path class="cls-43" d="m58.71,73.54c-3.46-16.95,18.12-8.85,24.28-16.19h4.05c.89-3.15,3.39-4.69,8.09-4.03-8.32,3.81-3.44,20.84-16.19,20.21-10.06.44-12.52,7.58-20.23,0Z"/>
        <path class="cls-44" d="m18.27,61.41c9.49,1.3,15.17,6.39,28.32,4.04.17,5.57-1.9,8.89-4.05,12.15-7.94-9.73-20.21-9.32-24.26,4.05-3.33-2.96-4.9-12.18,0-20.24Z"/>
        <path class="cls-51" d="m18.27,61.41c-4.9,8.06-3.33,17.28,0,20.24,4.05-13.37,16.32-13.78,24.26-4.05.86,4.88,4.5,2.48,8.09,0-1.44,5.31-7.13,6.36-8.09,12.13-17.14,5.28-32.04-12.34-36.4,4.04H2.08c.5-10.11,7.72-12.66-4.04-16.17v-4.05c13.56,2.77,14.78-6.79,16.18-16.19-11.03-2.93-8.14,8.04-16.18,8.09v-16.17c2.76,8.02,24.1-2.53,20.23,12.13Z"/>
        <path class="cls-42" d="m6.13,93.77c4.36-16.37,19.26,1.24,36.4-4.04v4.04h-8.09c-10.75.05-23.11-1.52-28.32,4.05v-4.05Z"/>
        <path class="cls-46" d="m107.26,77.6c7.81-7.87,24.76-4.23,20.23,12.13h-12.13c-4.98-1.77-8.31-5.18-8.1-12.13Z"/>
        <path class="cls-42" d="m163.9,77.6c.69-4.72,6.4-4.4,12.14-4.05.76,5.99,9.79,3.71,16.18,4.05,2.15,3.26,4.24,6.56,4.05,12.13h-20.23c1.24-9.34-11.68-4.49-12.14-12.13Z"/>
        <path class="cls-43" d="m135.58,101.86c-6.52,1.14-6.96-3.81-12.13-4.04,3.52-5.93,6.05-12.83,16.18-12.13-.77-3.29-4.06-4.03-4.05-8.09,13.47-2.79,6.52,8.37,4.05,12.13-13.46-2.78-6.51,8.37-4.05,12.13Z"/>
        <path class="cls-45" d="m-22.19,101.86c.33-13.14,2.08-24.88,8.09-32.36,1.65,5.09,5.22,8.27,12.14,8.09,11.76,3.52,4.54,6.06,4.04,16.17-15.22-8.53-14.32,2.08-24.26,8.09Z"/>
        <path class="cls-44" d="m42.53,89.73c.96-5.78,6.65-6.82,8.09-12.13,3.14-.92,7.98-.12,8.09-4.05,7.71,7.58,10.17.44,20.23,0-.96,5.79-6.66,6.82-8.09,12.14v4.04c-3.59-3.15-9.13-4.35-16.18-4.04-6.54-1.14-6.96,3.83-12.14,4.04Z"/>
        <path class="cls-39" d="m216.5,77.6c9.04,1.75,1.64,19.93,4.05,28.32-15.98,2.19-24.08-12.87-24.28,8.09v4.05c-7.15-3.64-11.81-9.78-20.23-12.15-1.79-3.61-3.54-7.25-8.09-8.09.41-7.71,15.07,3.22,20.23,4.04,2.51-9.72,2.45-6.17,20.22-4.04,8.4-1.05,1.11-17.78,8.09-20.22Z"/>
        <path class="cls-37" d="m176.04,105.91c8.42,2.37,13.08,8.51,20.23,12.15v8.08c-14.78,1.31-16.08-10.88-20.23-20.22Z"/>
        <path class="cls-45" d="m216.5,77.6c-6.98,2.45.31,19.18-8.09,20.22-17.78-2.13-17.71-5.68-20.22,4.04-5.16-.82-19.82-11.75-20.23-4.04,4.54.84,6.29,4.48,8.09,8.09,4.15,9.34,5.45,21.53,20.23,20.22v-12.13c9.47,1.03,2.34,17.78,0,20.22h-4.05c-7.15-3.64-11.8-9.77-20.21-12.15-2.22-5.87,4.71-20.9-4.05-20.22-4.69-3.39-10.85-5.32-20.23-4.04-2.89-10.98,19.08,2.9,16.18-8.09h32.37c.18-5.57-1.9-8.88-4.05-12.13,4.77-.64,11.49.69,12.14-4.05,5.57-.17,8.88,1.91,12.14,4.05Z"/>
        <path class="cls-47" d="m6.13,97.82c5.21-5.57,17.57-4,28.32-4.05,5.12,18.94-7.74,3.37-24.28,4.05.45,10.08,7.58,12.52,0,20.24v8.08h-4.04c-.92-3.14-.12-7.98-4.05-8.08-6.68.06-2.25,11.21-8.09,12.12-14.61,3.84-5.64-15.94-8.09-24.27,11.85-2.07,22.81,12.85,20.23-8.09Z"/>
        <path class="cls-46" d="m70.85,118.06c-4.97-4.53-8.31-3.54-8.09,4.03-13.14-3.03-.9-31.45-20.23-28.32v-4.04c5.18-.21,5.6-5.18,12.14-4.04-4.15,13.59,12.58,6.3,20.23,8.08-.67,4.71.88,7.2,4.04,8.09h4.05v4.05h-12.14v12.15Z"/>
        <path class="cls-46" d="m10.17,118.06c7.58-7.71.45-10.16,0-20.24,16.55-.68,29.4,14.89,24.28-4.05h4.05c1.19,8.25,8.1,10.79,12.13,16.2-13.97-3.2-17.79,3.78-20.23,12.12-8.41-8.85-13.07,3.57-20.23-4.03Z"/>
        <path class="cls-43" d="m83,101.86h8.09c3.78,4.33,14.92,1.26,12.14,12.15-1.66,5.07-5.22,8.27-12.14,8.08.77-3.27,4.06-4.02,4.05-8.08-1.77-4.98-5.19-8.32-12.14-8.09v-4.05Z"/>
        <path class="cls-50" d="m83,105.91c6.95-.23,10.37,3.11,12.14,8.09-7.12.97-9.22,6.96-8.09,16.17h-8.1c.74-3.43-1.57-3.8-4.04-4.04v-4.05c3.27.77,4.03,4.06,8.09,4.05v-20.22Z"/>
        <path class="cls-46" d="m115.37,101.86c17.43-2.6,12.7,16.97,28.32,16.2-6.75,8.03.36,5.13,0,16.17-12.95-.54-17.81-9.17-16.19-24.27-8.97-2.23-5.76,7.72-12.13,8.09v-16.2Z"/>
        <path class="cls-34" d="m143.68,118.06h8.09v16.17c-9.69,2.45-18.45,5.82-32.37,4.05.35-5.75.67-11.47-4.03-12.15v-8.08c6.37-.37,3.16-10.33,12.13-8.09-1.62,15.09,3.24,23.73,16.19,24.27.36-11.04-6.75-8.14,0-16.17Z"/>
        <path class="cls-40" d="m74.9,134.23c7.16-.93,20.25,4.08,16.18-8.09,9.74-1.65,8.79,7.39,20.23,4.04v-28.32c-9.76-3.73-16.51-10.46-20.23-20.21,4.77-.64,11.49.69,12.14-4.05.23-2.46.6-4.8,4.04-4.05v4.05c-.21,6.95,3.12,10.36,8.1,12.13,12.83,8.32-11.44,8.08,0,12.13v24.28c-2.41,12.92,7.57,12.51,0,20.24-14.25,6.67-17.46-28.84-24.28-4.05-3.26,2.15-6.57,4.22-12.14,4.05-2.14-3.26-4.22-6.57-4.04-12.14Z"/>
        <path class="cls-50" d="m115.37,126.14c4.7.68,4.38,6.39,4.03,12.15,13.92,1.77,22.68-1.6,32.37-4.05v-16.17c4.74.64,3.41,7.37,4.04,12.12v4.05c-8.94.51-1.72,17.17-4.04,24.28-14.38,6.29-2.45-13.74-12.14-12.13.74-3.45-1.57-3.83-4.05-4.05-14.38-6.3-2.44,13.74-12.13,12.13h-8.09v-8.08c7.57-7.72-2.41-7.32,0-20.24Z"/>
        <path class="cls-42" d="m192.21,134.23h4.05c2.34-2.45,9.47-19.19,0-20.22.21-20.96,8.3-5.91,24.28-8.09v12.15c-5.5,8-8.16,18.81-20.23,20.22,5.35,5.81,18.5,10.18,8.09,20.22-8.24,8.12-7.93-1.79-16.19-4.05h-4.03c-10.8-10.43,9.31-4.25,4.03-20.22Z"/>
        <path class="cls-52" d="m74.9,122.09v4.05c2.47.24,4.78.61,4.04,4.04h8.1c-1.13-9.21.97-15.2,8.09-16.17.01,4.06-3.29,4.81-4.05,8.08v4.05c4.08,12.17-9.01,7.17-16.18,8.09h-12.14c2.49-3.61,4.88-7.23,0-8.09v-4.05c-.22-7.57,3.11-8.56,8.09-4.03,3.44-.75,3.82,1.57,4.05,4.03Z"/>
        <path class="cls-50" d="m62.77,126.14c4.88.87,2.49,4.48,0,8.09h-16.18c.77,3.27,4.05,4.04,4.04,8.09h-12.13c.77-3.27,4.05-4.03,4.03-8.09-1.79-11.68-30.57,3.59-32.37-8.09v-8.08c7.16,7.59,11.82-4.82,20.23,4.03v4.05c14.82-2.99,22.48,9.96,32.37,0Z"/>
        <path class="cls-37" d="m208.41,158.51c10.41-10.04-2.73-14.41-8.09-20.22,12.07-1.41,14.73-12.23,20.23-20.22-1.74,18.49-6.16,34.29-4.05,56.64-4.06.01-4.82-3.29-8.09-4.05v-12.13Z"/>
        <path class="cls-47" d="m91.08,142.32c6.83-24.79,10.03,10.72,24.28,4.05v8.08c-5.84-4.53-9.88-4.36-12.15,4.05-3.35,11.43,5.69,10.48,4.04,20.21-6.88-1.48-7.64,3.17-8.09,8.11h-12.13c3.54-7.13,13.53-12.52,0-16.19,1.14-6.52-3.83-6.96-4.05-12.13,5.31,1.43,6.35,7.12,12.14,8.09,7.25-8.75,7.1-18.57,4.03-28.32-3.43-.75-3.81,1.57-4.03,4.04h-4.05Z"/>
        <path class="cls-52" d="m-10.05,162.55c.49-10.29,5.89-15.68,16.18-16.17,5.16.9,5.3,12.07,0,12.13-.39-18.82-18.34-.88-12.14,12.13-3.15-.89-4.7-3.39-4.04-8.09Z"/>
        <path class="cls-40" d="m6.13,146.38c-10.29.49-15.68,5.88-16.18,16.17-5.92-3.53-15.67-3.21-12.14-16.17,7.25-.52,8.53,4.94,16.17,4.03-6.76-5.36-8.62-15.64-24.27-12.12-2.13-16.97,7.06-22.6,8.09-36.42,9.95-6.01,9.05-16.62,24.26-8.09h4.05v4.05c2.58,20.94-8.38,6.02-20.23,8.09,2.45,8.33-6.52,28.1,8.09,24.27,5.84-.92,1.41-12.06,8.09-12.12,3.93.09,3.14,4.94,4.05,8.08-1.49,6.88,3.15,7.64,8.09,8.09-1.43,5.31-7.12,6.37-8.09,12.14Z"/>
        <path class="cls-49" d="m62.77,134.23h12.14c-.18,5.57,1.9,8.89,4.04,12.14-9.9.44-.86,13.36,4.05,12.13.22,5.17,5.18,5.61,4.05,12.13-15.21,3.05-13.69-10.59-20.22-16.19,11.94-5.83-4.82-16.29-16.19-12.13.01-4.05-3.27-4.82-4.04-8.09h16.18Z"/>
        <path class="cls-47" d="m184.13,130.18c1.05,13.19-4.79,19.48-16.18,20.22-3.14-3.59-4.35-9.13-4.05-16.17,9.76,1.65,8.81-7.39,20.23-4.05Z"/>
        <path class="cls-51" d="m184.13,170.64c-5.25-5.38-5.33-15.04,4.05-16.19h4.03c-.33,6.42,1.95,15.44-4.03,16.19h-4.05Z"/>
        <path class="cls-41" d="m192.21,174.69v12.13c-12.96-3.53-12.64,6.23-16.18,12.13-10-3.48,1.2-28.16-8.09-32.36,3.61,3.14,9.13,4.35,16.18,4.04h4.05c-.74,3.43,1.57,3.81,4.03,4.05Z"/>
        <path class="cls-41" d="m50.63,142.32c11.37-4.16,28.13,6.3,16.19,12.13-8.98,2.23-5.77-7.72-12.14-8.08h-4.05v-4.05Z"/>
        <path class="cls-46" d="m54.67,146.38c6.37.36,3.17,10.32,12.14,8.08,6.54,5.6,5.01,19.24,20.22,16.19,13.53,3.66,3.54,9.05,0,16.19-15.42,1.94-8.24-18.73-28.33-12.13-.91-16.61-19.72-15.35-36.4-16.19.52-7.26-4.95-8.54-4.04-16.19h32.36v4.05c-9.23-1.14-15.21.97-16.18,8.08,7.25-.52,8.53,4.95,16.18,4.05,2.14-3.26,4.22-6.57,4.05-12.13Z"/>
        <path class="cls-35" d="m91.08,142.32h4.05c.22-2.47.6-4.79,4.03-4.04,3.07,9.74,3.22,19.57-4.03,28.32-5.79-.97-6.83-6.67-12.14-8.09-4.91,1.22-13.95-11.69-4.05-12.13,5.57.17,8.88-1.9,12.14-4.05Z"/>
        <path class="cls-47" d="m22.31,158.51c16.68.83,35.49-.43,36.4,16.19-.97-14.89-38.25-6.05-24.26,4.03-10.73,14.34-5.38-21.27-20.23-16.17.12-3.93,4.95-3.14,8.09-4.04Z"/>
        <path class="cls-40" d="m103.22,158.51c7.1,3.67,7.4,14.18,12.15,20.21,5.87,2.22,20.9-4.72,20.21,4.05-17-5.95-33.81,8.97-36.41,4.05.46-4.93,1.21-9.59,8.09-8.11,1.65-9.73-7.39-8.78-4.04-20.21Z"/>
        <path class="cls-49" d="m155.81,170.64c3.26-2.14,6.58-4.22,12.14-4.04,9.29,4.2-1.91,28.88,8.09,32.36,3.53-5.91,3.22-15.66,16.18-12.13v-12.13c3.61-3.15,9.14-4.35,16.19-4.05v16.19c-18.48-2.31-23.07,9.29-24.28,24.26-8.45,2.34-11.54,10.03-24.26,8.09,6.47-15.91-17.49-1.4-16.18-12.13-5.95-15.39,18.08-.8,12.13-16.19v-4.04c3.61,1.78,7.24,3.54,8.09,8.09,8.78.68,1.84-14.35,4.05-20.22-4.7-.67-7.2.88-8.09,4.03h-4.05v-8.08Z"/>
        <path class="cls-34" d="m6.13,174.69c5.94,9.53,8.54,7.52,4.04,20.22H-6.01v-24.28c-6.2-13.01,11.75-30.96,12.14-12.13v16.19Z"/>
        <path class="cls-47" d="m-6.01,194.92H10.17c4.51-12.7,1.9-10.69-4.04-20.22,3.26,2.13,6.57,4.22,12.14,4.03,3.33,11.44-5.7,10.49-4.05,20.24h-4.05c-5.48,1.25-3.35,10.14-4.04,16.19-5.93-3.52-12.82-6.05-12.14-16.19v-4.04Z"/>
        <path class="cls-49" d="m58.71,174.69c20.09-6.6,12.91,14.07,28.33,12.13h12.13c2.6,4.92,19.41-10.01,36.41-4.05h20.23c.74,3.45-1.58,3.83-4.04,4.05-23.37-1.52-37.58,4.88-48.55,24.26,6.97,3.83,6.62,14.96,20.23,12.14-9.42,7.77-21.81-3.5-36.41,4.04-6.9-2.54-6.67-12.22-12.14-16.19-4.81-11.61-8.48-21.47-4.05-32.37-4.11,2.64-4.18,9.31-12.14,8.11,3.23,7.56,6.76,14.82,8.1,24.26-3.95-.09-3.14-4.94-4.05-8.08-7.25-.52-8.53,4.94-16.18,4.04-8.23-9.55-16.53,5.05-8.09,12.13-3.14-.89-7.99-.11-8.1-4.04-.36-11.04,6.75-8.14,0-16.19,15.51.74,1.47-3.31,4.05-12.13,10.33-1.81,18.6-5.68,24.26-12.13Zm20.23,24.26c3.96,9.53,1.31,25.67,16.19,24.28-3.96-9.53-1.32-25.66-16.19-24.28Z"/>
        <path class="cls-41" d="m46.59,207.05c7.65.9,8.92-4.56,16.18-4.04.91,3.14.1,7.99,4.05,8.08-1.34-9.45-4.87-16.71-8.1-24.26,7.96,1.2,8.03-5.47,12.14-8.11-4.43,10.9-.75,20.76,4.05,32.37h-8.09c2.13,3.26,4.22,6.57,4.04,12.14h-4.04c-6.37-3.08-6.05-12.84-16.19-12.14-3.44.75-3.82-1.57-4.04-4.04Z"/>
        <path class="cls-43" d="m14.22,198.96c-1.65-9.74,7.38-8.79,4.05-20.24-5.57.19-8.88-1.9-12.14-4.03v-16.19c5.3-.06,5.16-11.23,0-12.13.96-5.78,6.65-6.83,8.09-12.14h28.32c.01,4.06-3.27,4.82-4.03,8.09h-20.23c-.92,7.64,4.56,8.92,4.04,16.19-3.14.9-7.97.11-8.09,4.04,14.85-5.1,9.51,30.52,20.23,16.17-13.98-10.08,23.29-18.92,24.26-4.03-5.67,6.45-13.94,10.33-24.26,12.13-2.58,8.82,11.46,12.87-4.05,12.13-5.98-4.68-10.18-4.68-16.18,0Z"/>
        <path class="cls-50" d="m30.4,215.14c-13.82,1.69-23.04-1.22-20.23-16.19h4.05c5.99-4.68,10.2-4.68,16.18,0,6.75,8.05-.36,5.15,0,16.19Z"/>
        <path class="cls-46" d="m95.14,223.24c-14.88,1.39-12.23-14.75-16.19-24.28,14.87-1.38,12.23,14.75,16.19,24.28Z"/>
        <path class="cls-46" d="m151.77,223.24c-5.4-4.05-12.22-6.67-16.19-12.14-5.82,2.27-9.86,6.31-12.13,12.14-13.61,2.82-13.26-8.32-20.23-12.14,10.97-19.38,25.18-25.79,48.55-24.26-.74,3.45,1.57,3.81,4.04,4.04,5.95,15.39-18.08.8-12.13,16.19-1.31,10.73,22.65-3.78,16.18,12.13-.12,3.93-4.95,3.14-8.09,4.05Zm-28.32-8.09c1.27-9.52,19.17-2.4,16.18-16.19h-24.26c-1.14,9.22.96,15.21,8.09,16.19Z"/>
        <path class="cls-46" d="m10.17,198.96c-2.81,14.96,6.41,17.87,20.23,16.19.12,3.93,4.96,3.15,8.1,4.04h8.09c-.74,3.45,1.57,3.81,4.04,4.05,1.48,6.88-3.16,7.63-8.09,8.09-15.07-2.46-26.49-8.57-36.4-16.19.69-6.05-1.45-14.94,4.04-16.19Z"/>
        <path class="cls-41" d="m87.04,227.28c14.6-7.55,26.99,3.73,36.41-4.04,2.26-5.83,6.3-9.87,12.13-12.14,3.98,5.48,10.8,8.09,16.19,12.14-18.91,6.71-35.05,16.2-60.69,16.17-.23-2.47-.6-4.79-4.04-4.03v-8.1Z"/>
        <path class="cls-48" d="m103.22,12.87c7.11,2.32,23.77-4.9,24.27,4.04v8.08h-24.27c.07-5.91-17.06-12.81,0-12.12Z"/>
        <path class="cls-51" d="m74.9,33.09c-1.9-12.61,10.17-14.47,16.18-8.11-.64,4.78.69,11.49-4.04,12.15-.69-4.72-6.39-4.39-12.14-4.04Z"/>
        <path class="cls-37" d="m46.59,53.33c1.08-21.33-11.06-29.4-32.37-28.34,17.73-3.84,31.86-11.28,44.5-20.21,2.46,9.67-5.07,29.35,4.05,32.36v12.14c-10.34.18-4.94-3.01-4.05-8.09-14.38-6.29-2.44,13.74-12.13,12.15Z"/>
        <path class="cls-39" d="m62.77,37.13c-9.12-3.01-1.59-22.69-4.05-32.36,2.46-2.33,19.2-9.47,20.23,0-5.98,2.1-10.19,5.98-16.18,8.09v24.26Z"/>
        <path class="cls-49" d="m18.27,49.28c12.89,2.39,12.51-7.59,20.23,0,1.13-6.55-3.83-6.97-4.05-12.14h8.09v16.2c-4.88,12.79-21.82,7.71-24.26-4.05Z"/>
        <path class="cls-40" d="m-1.96,65.45c8.04-.05,5.14-11.03,16.18-8.09-1.4,9.4-2.62,18.95-16.18,16.19-4.9-.84-2.49-4.48,0-8.09Z"/>
        <path class="cls-43" d="m54.67,85.69c7.05-.31,12.58.89,16.18,4.04,4.98,1.76,8.31,5.18,8.09,12.13-3.16-.89-4.71-3.39-4.04-8.09-7.65-1.78-24.38,5.51-20.23-8.08Z"/>
        <path class="cls-52" d="m163.9,89.73h-8.09c.39-6.35-.53-14.02,8.09-12.13.46,7.64,13.38,2.79,12.14,12.13h-12.14Z"/>
        <path class="cls-45" d="m78.94,101.86c.22-6.95-3.11-10.37-8.09-12.13v-4.04c12.31,8.85,20.69-1.79,20.23,16.17h-12.14Z"/>
        <path class="cls-52" d="m115.37,101.86c-11.44-4.05,12.83-3.81,0-12.13h12.13c4.53-16.36-12.42-20-20.23-12.13v-4.05c.6-8.83,10.2-8.67,20.23-8.09v12.15h8.09c-.01,4.06,3.29,4.8,4.05,8.09-10.12-.7-12.66,6.2-16.18,12.13,5.17.23,5.6,5.18,12.13,4.04,1,5.1,8.05,4.09,8.1,0,11.71,2.28-6.21,6.32-4.05,12.15,15.89,3.76,10.21-14.07,28.32-8.09,1.95,12.74-12.41,9.15-8.09,24.27h-4.05c-.63-4.75.7-11.48-4.04-12.12h-8.09c-15.62.77-10.89-18.8-28.32-16.2Z"/>
        <path class="cls-40" d="m147.72,97.82c9.38-1.28,15.54.65,20.23,4.04v4.05c-18.1-5.98-12.42,11.85-28.32,8.09-2.16-5.82,15.76-9.86,4.05-12.15-.05,4.09-7.1,5.1-8.1,0,3.26-2.14,6.58-4.22,12.14-4.04Z"/>
        <path class="cls-52" d="m10.17,126.14c1.8,11.68,30.58-3.59,32.37,8.09H14.22c-4.94-.45-9.57-1.21-8.09-8.09h4.04Z"/>
        <path class="cls-36" d="m139.63,146.38c9.69-1.6-2.24,18.42,12.14,12.13,2.32-7.11-4.9-23.77,4.04-24.28v28.32c-10.03-.59-19.63-.76-20.23,8.09-5.1-7.17-4.22-17.11,4.05-24.27Z"/>
        <path class="cls-43" d="m167.95,166.6c-5.56-.18-8.88,1.9-12.14,4.04-9.92-10.55-27.93,7.47-12.13,12.13h-8.1c.69-8.77-14.34-1.83-20.21-4.05-4.74-6.04-5.04-16.54-12.15-20.21,2.27-8.41,6.3-8.58,12.15-4.05h8.09c9.69,1.6-2.25-18.43,12.13-12.13,2.48.23,4.79.61,4.05,4.05-8.27,7.15-9.16,17.1-4.05,24.27.6-8.85,10.2-8.69,20.23-8.09v-32.37h4.05c-4.33-15.12,10.04-11.53,8.09-24.27v-4.05c8.76-.68,1.83,14.35,4.05,20.22,8.41,2.38,13.07,8.51,20.21,12.15,5.28,15.97-14.84,9.79-4.03,20.22-9.38,1.14-9.31,10.8-4.05,16.19-7.05.31-12.57-.9-16.18-4.04Zm-4.05-32.37c-.3,7.05.92,12.58,4.05,16.17,11.38-.75,17.23-7.03,16.18-20.22-11.42-3.34-10.47,5.7-20.23,4.05Zm-48.53,40.46h12.13c2.78-13.56-6.79-14.79-16.18-16.19-2.49,12.99,14.56,5.54,4.05,16.19Z"/>
        <path class="cls-40" d="m192.21,154.46c8.26,2.26,7.95,12.17,16.19,4.05v12.13c-7.05-.3-12.58.9-16.19,4.05-2.46-.24-4.78-.62-4.03-4.05,5.99-.75,3.71-9.77,4.03-16.19Z"/>
        <path class="cls-44" d="m155.81,178.72v4.05h-12.13c-15.8-4.66,2.21-22.68,12.13-12.13v8.08Z"/>
        <path class="cls-50" d="m155.81,178.72h4.05c.89-3.15,3.39-4.69,8.09-4.03-2.22,5.87,4.73,20.9-4.05,20.22-.84-4.55-4.48-6.31-8.09-8.09v4.04c-2.47-.23-4.78-.59-4.04-4.04,2.46-.23,4.78-.61,4.04-4.05v-4.05Z"/>
        <path class="cls-43" d="m38.5,219.18c-8.44-7.08-.15-21.69,8.09-12.13.22,2.47.6,4.79,4.04,4.04-.77,3.28-4.05,4.04-4.04,8.09h-8.09Z"/>
        <path class="cls-51" d="m50.63,223.24c-2.47-.24-4.78-.61-4.04-4.05-.01-4.05,3.27-4.81,4.04-8.09,10.14-.7,9.82,9.07,16.19,12.14h-16.19Z"/>
        <path class="cls-36" d="m70.85,223.24c-1.22,10.67,8.45,10.43,16.19,12.15,3.44-.76,3.81,1.56,4.04,4.03-19.37.49-36.62-1.14-48.55-8.08,4.94-.46,9.58-1.21,8.09-8.09h20.22Z"/>
        <path class="cls-43" d="m87.04,235.38c-7.74-1.71-17.41-1.47-16.19-12.15.18-5.57-1.9-8.89-4.04-12.14h8.09c5.47,3.97,5.23,13.64,12.14,16.19v8.1Z"/>
        <path class="cls-41" d="m184.13,211.09c1.21-14.97,5.79-26.57,24.28-24.26v-16.19c3.27.76,4.03,4.06,8.09,4.05-2.58,20.34-16.62,29.22-32.37,36.4Z"/>
      </g>
      <g class="cls-3">
        <path class="cls-27" d="m216.09,242.79c.46-.24.79-.7,1.3-.8.88.44,1.62,2.3,2.7,1.35,1.68-1.14,3.72-3.01,5.84-2.67,1.67.5-.43,1.4,2.34,2.94,1.27.63,1.63,2,2.48,2.96.31.51-.15,1.16-.17,1.72-.76,1.8,1.64,1.67,1.32,3.28-.16.71-.17,1.41,0,2.13.56,1.7-1.99,1.76-1.85,3.36.01,1.53,1.93-.48,2.54,1.28.54,1.06,1.98.51,2.64,1.53.63.63,1.19,1.36,2.1,1.65.48.15.61.61.64,1.06.08,1.18,1.07,1.93,1.37,3.01.74.98,2.32-.62,3.18,1.43.22.44.6.85.96,1.12,1.31.97,1.35,2.69,2.42,3.8.8.64.02,2.05.65,2.73.33.18.51-.13.7-.31.54-.5,1.13-.88,1.85-1.06.52-.13.83-.5,1.08-.96.75-2.07,2.31,2.87,3.27.31.73-1.39-.47-3.75.89-4.68.82-.28,1.83-.5,2.62.33.58.61,1.15.27,1.5-.24,1.43-2.14,3.56-1.38,5.49-1.34,1.34.11,1.27,2.02,2.5,2.47,2.34,1.86-1.1,3.11-.48,3.99,1.51,3.26,3.51,1.64,3.49,3.07-.4,1.74-1.26,3.13-2.48,4.31-1.12.26-1.5.09-1.71-.87-.22-.98-1.01-1.55-1.49-2.34-.1-.16-.31-.24-.5-.22-.93.13-1.64-.53-2.49-.68-.85-.29-.82-2.03-1.02-2.97-1.1,1-2.36.66-3.34,1.55-.49.49-1.01.8-1.73.74-.92-.31-.6,3.39-3.03,5.47-.39.46-.94.71-1.51.59-3.66-.9-3.45,4.59-6.39,4.71-.6-.19-.55-.73-.63-1.23-.29-1.03.43-1.75.74-2.62-.02-1,.45-1.65,1.41-1.97-1.07.21-1.35,0-1.28-1.04-.21-1.05-1.28-1.45-.69-2.77,1.03-1.54.74-3.04.13-4.57-.28-.72-.69-3.05-1.69-1.62-.17,1.11-1.47.91-1.62-.12-.07-.23-.07-.54-.41-.53-.26,0-.35.24-.43.44-.35,1.16-1.42,1.05-2.31,1.48-.43.31-.82.23-1.18-.12-4.11-3.61-3.73,2.52-7.36,3.71-1.63,1.08-2.05,1.35-3.36-.17-.44-.45-.66-.93-.3-1.51.35-.56.15-.94-.34-1.25-1.04-.72.11-1.94-.89-3.06-.46-.92-1.4-1.61-1.27-2.82.04-.33-.37-.55-.66-.74-1.86-1.61,1.36-1.69,2.4-1.86-.5-.7-1.37-.36-1.95-.91-1.91-1.53,2.07-1.03.56-2.65-.46-.89-.74-2.12-.48-3.02,2.41-2.28,4.14,2.44,5.77.11.56-.97.79-2.13,1.84-2.75.72-.47,1.02-1.6.72-2.41-.02-.06-.03-.15-.08-.16-.92-.19-1.5-1.27-2.6-1.01-.62.15-1.16.04-1.59-.51-1.27-1.59.77-1.54.88-2.62-.09-.37-1.15-.87-1.39-.49-.73.97-1.82,1.59-2.47,2.65-.34.88-3.98,2.42-3.86.84-.19-1.07.44-2.79-.74-3.32-1.89-.93-4.37-2.89-2.61-5.13Z"/>
        <path class="cls-14" d="m258.31,237.94c.68.64.65,1.65,1.23,2.38.33.46.84.76,1.15,1.22,1.15,1.78,3.34,2.99,1.96,5.47.18,1.68-1.22,2.49-2.02,3.63-1.82,2.13-2.89-3.95-4.51-2.11-.71,2.22-2.8,2.65-4.91,2.7-2.91-.21-3.73-3.91-6.29-5.06-1.43-.93-3.05.6-5.09-.27-1.38-.63-.9-2.83-2.37-3.51-1.63-.59-1.18-2.88-2.84-3.36-1.85-.48-.78-3.2-2.89-3.33-.25-.06-.74-.21-.66-.6.68-.64,1.53-.62,2.24-.5,2.03.33,4.04.1,6.05.07,1.05-.01,2.1.06,3.14-.3,2.54.23,5.18,1.12,7.79,1.36,1.12.58,2.48-1.3,3.36-.22.99,1.93,3.09,1.27,4.66,2.42Z"/>
        <path class="cls-24" d="m231.49,296.78c-.42-.08-.75-.21-1.06-.52-.85-.28-1.73-.36-2.44-.96-.44-.66-.95-1.12-1.69-1.17-3.3-.41-6.46-3.21-7.39-6.3.13-.76-.23-1.28-.82-1.65-2.23-1.55-7.45-6.77-5.74-9.58.42-.6.3-1.15-.49-1.48-5.32-1.65.15-6.51-4.45-6.67-1.06.04-.79-1.2-1.24-1.76-.25-.33-.45-.64-.47-1.06.2-2.71-.42-5.32.74-7.9.45-1.42.45-3.27,1.97-4.09,2.6,1.17-.37,3.2,1.3,4.8,1.28,1.38-.84,2.46-.33,4.49.2.61,2.19.95,2.87.93,1.08-.35,1.78,1.26.99,1.91-1.61,1.27-.72,2.62-.3,4.04.52,2.54,2.9,2.28,3.99,3.83-.04.83,1.58.96.9,1.74-.46,1-2.3,2.3-1.04,3.28,1.19,1.14,2.66.7,4.06.93.42.21.83.23,1.26.03,1.39-.31,2.8,1.28,3.26,2.54.3,1.09.61,1.25,1.68.85,1.02-.26,3.8.34,3.45,1.85-1.26.8-1.48-1.4-3.46-.54-1.58.36-2.13,1.74-3.2,2.57-.63.48-.69,1.44-.41,2.18.62,1.96,3.25,1.29,4.64,2.44.74.32.86,1.38,1.3,2.1.5,1.1,2.65,1.85,3.08.45.21-2.11,2.44-2.32,3.41-3.69.13-.72.64-1.03,1.33-1.24,1.46.67.65,2.56,2.07,3.13.68.31,1.25.8,1.81,1.41,1.73,3.56-5.51,4.28-7.76,3.94-.6-.25-1.14-.64-1.82-.85Z"/>
        <path class="cls-30" d="m215.89,242.99c.27,1.3-.67,2.41.89,3.34.77,1.03,3.32,1.32,2.88,2.7-.08.35-.18.65.07.97.23.41-.17.9-.1,1.36-.28,1.01,3.37-.46,3.41-.98.49-.61.89-1.41,1.53-1.85.48-.16.76-.48.97-.93.24-.53.36-.54.89-.14.5.33,1.5.19,1.06,1.08-.14.35-.41.5-.74.65-1.39.49-.27,1.96.56,2,.78-.03,1.6-.49,2.11.4.51.63,1.85-.01,1.41,1.26-.17.63.48,1.54-.32,1.87-2.38,1.1-1.4,3.82-4.02,4.09-.4-.67-1.26-.75-1.72-1.37-.41-.55-.51-.54-1-.07-.67.33-1.76-.36-1.43,1.03.14.43.36.8.21,1.32-.13.41.37.67.6,1,.86,1.49-.62,1.21-1.36,1.74.37,1.08,1.64.85,2.48,1.29.55.13.34.92-.18.81-.74-.18-3.99.13-2.32,1.2.43.23,1.28.84.96,1.38-.48.47,1.4,2.51,1.67,3.23.42.83-.79,1.69.4,2.17,1.68.78-.95,1.83.61,2.75,1.33,1.38.99,1.28,2.6.37.82.22.29,1.5.96,2.16-.71.75-2.15,1.3-2.75.21-.4-1.41-2.62-2.32-2.01-3.85.73-1.27-2.01-.98-1.31-2.33,1.51-3.34-2.77-2.99-2.13-4.52.53-2.03-1.04-4.21.17-6.29.71-1.8-1.89-2.27-3.22-2.5-.35-.12-.56.09-.79.34-.77,1.23-3.91.71-3.12-.92,1.62-1.86-.22-4.15-1.94-5.19-3.3-2.94,3.52-5.56,2.71-8.88.4-.24.86-1.02,1.31-.92Z"/>
        <path class="cls-30" d="m243.45,276.86c.14.1.23.23.17.34-.6,1.04.33,1.68,1.03,2.23-.21.28-.8.44-.38.93.2.23.39.42.7.17.24-.17.49-.49.81-.26.26,1.2-2.02.71-1.47,2.18,0,.82-1.12,1.4-.95,2.22.42,5.7,3.72-3.84,5.76-3.13,2.77.7,3.88-2.11,4.65-4.26.22-.65-.3-1.8.76-1.77,1.29.42,1.71-.96,2.81-1.23.73-.28,1.61-.18,2.15-.93.24-.27.89-.02.65.43-.27.67.49,1.18.33,1.87-.16.99.83.39,1.25.77.64,1.04,2.16-.15,2.54,1.06.11.27.22.53.46.68,1.19.71.33,2.61,2.11,2.36-.57,2.33-3.03,4.14-4.53,5.98-.79.68-1.24.77-1.96,0-.85-.92-1.68-1.82-2.95-2.2-.52-.16-.9-.56-1.08-1.1-.19-1.33-2.72,1.41-3.29,1.78-1.19,1.55-2.59-.72-4.03-.16-.58.11-1.01.48-1,1.17,0,3.41-4.82,4.89-6.49,1.82-1.46-1.12-3.47-.56-3.81-3.13.15-.33.38-.38.64-.41,2.84-.21,2.35-2.87,2.55-4.95.17-1.24,1.89-1.32,2.56-2.43Z"/>
        <path class="cls-22" d="m271.77,272.86c-.12.17-.3.27-.32.4-.16.9-1.03,1.08-1.4,1.86-.87-.36.14-2.06.09-2.83.28-1.06-.84-1.89.02-2.91.3-.43.08-.93-.59-.94-1.24-.26-1.79-1.96-3.19-2.07-1.76-.74-3.57.01-5.35-.12-.84-.3-1.67.11-2.5.06-1.09-.26-2.05-.25-3.11.38-.61.36-1.56.29-2.36.39-4.61-.15-6.16,5.36-7.91,2.41-.55-.85-1.35-1.5-1.74-2.51-.63-1.27-3.01-.81-3.43-2.43-.94-1.19-.47-3.58-2.1-4-1.5-.08-1.38-1.74-2.23-2.62-2.58-2.7,2.87-6.42-1.85-8.25.13-1.35,2.04.18,1.99-1.73.03-.4.13-.8.49-1.15.68-.13,1.29-.12,1.91.24,1.35,5.55-1.03,2.52-.47,6.8-.62.59-.35,1.09,0,1.68.58,1.58-1.31,3.51,1.35,3.89,4.08.6.61,4.45,4.36,4.48,1.67.2,1.92.45,2.15,2.12.02,1.52,1.45,2.56,2.35.97,1.2-1.6,3.76-.73,4.56-2.84.57-1.09,1.79.6,2.99-.8,2.72-.21,2.74-5.15,5.28-5.27,1.25.31,2.56-.89,3.27.77.18.38.66.3,1.03.2,1.1-.31,2.15.32,3.25.13.22-.04.38.19.51.37.62.87,2.02.72,2.03,2.07.96,4.8,2.99,5.75.92,11.23Z"/>
        <path class="cls-23" d="m233.74,249.53c1.6.54,2.83,1.5,2.19,3.33-.26.72,0,1.5-.63,2.08-.5.48-.28,1.11-.11,1.68.37,1.11,1.42,1.79,1.6,3.02.1.44.62.68,1.12.7,2.31.15,1.14,5.17,3.79,5.36.73.04,1.09.81,1.84.81.2,0,.29.45.34.72.05.28.05.6.3.76.99.57,1.8,3.34,3.1,1.77.54-.83,1.53-1.2,2.01-2.06.12-.22.37-.21.59-.18,1.07.2,1.87-.8,2.96-.66.43,0,.87.1,1.23-.27.15-.16.35-.06.53-.01,1.14.45,1.54-1.18,2.69-.71,1.26.61,2.57-.27,3.85.18,1.44.12,2.89-.46,4.42-.09,1.03-.07,1.71.65,2.52,1.08.42.1.7.25.74.77.07.96,1.35-.1,1.6.62.73,1.29-.88,1.37-.21,2.39.76,1.36-.42,2.84-.22,4.31-.09.41-.13.8-.43,1.16-.62-1.1-2.16-.01-2.98-1.76-.23-.72-1.59-1.5-.74-2.19,1.04-.53,1.87-2.49.46-3-1.96-.87-.65-3.22-4.57-2.42-.9.32-2.23-.43-2.63.82-.49.96-1.77,1.86-2.41.59-.1-.15-.23-.36-.43-.31-.61.28-1.65-.26-2.03.28-.46,1.47.06,3.03-.46,4.5-.39,1.97-2.5.14-2.92-.88-.22.03-.27.14-.3.26-.2.8-.66,1.28-1.52,1.42-1.16,0-2.78,3.05-2.96.45.58-1.88-1.4-2.48-1.46-4.08-.05-.96-1.27-1.04-1.46-1.95-.05-.16-.17-.26-.31-.33-.32-.17-.48-.45-.64-.77-.63-1.88-3.12.41-3.37-1.89-.1-.39-.15-.76-.58-1.01-.83-.44-.07-1.92-.9-2.31-1.71-.12-2.02-2.43-3.73-2.42-1.4.18-1.21-2.43-2.75-1.38-1.55.85-1.24-2.16-.09-2.55,1.05-.56,1.21-.89.83-2.02-.43-.98.56-1.84-.07-2.76.64-.5,1.46-.64,2.23-1.05Z"/>
        <path class="cls-21" d="m245.64,289.08c1.06-.6,2.24-1.76,2.14-2.96-.08-.3-.28-.6.03-.86.72-1,2.57-1.19,3.43-.14.24.36,1.26.16,1.58-.27.47-.79,1.33-1.09,2-1.62.3-.58.9-.71,1.36-1.04.95,2.95,2.2,1.2,4.2,3.94.81.96.94.92,1.85,0,.77-.5,1.13-1.57,1.88-1.91.25,1-.89,1.68-1.52,2.33-.31.38-.19.86-.55,1.17-1.09,2.21-2.83,4.05-5.3,4.5-1.56.87-3.03,1.76-4.88,1.88-.98.15-2.04.62-2.73-.59-1.99-.81-2.71-2.6-3.48-4.45Z"/>
        <path class="cls-19" d="m233.86,249.49c-2.34,2.16-4.58.57-3.26-2.36.28-.73-.93-.82-.87-1.65-.34-1.72-3.88-2.08-3.25-3.9.24-1-1.73-.89-2.35-.46-1.38.88-2.93,1.48-4.15,2.63-.49.46-.67.44-1.08-.05-.46-.53-1.23-.79-1.43-1.63.09-.16.2-.24.38-.36,2.98.38,4.82-2.25,7.56-2.4,1.17-.28,3.07-2.24,3.65-.05.3,1.35.67,1.49,1.85.68,1.59-.99,3.29.02,2.83,1.88.65,1.11.82,2.48,1.79,3.41.44.42.81.86.92,1.54-.78.89.07,2.79-1.56,2.53-.34-.02-.68-.13-1.03.2Z"/>
        <path class="cls-25" d="m258.04,237.81c-.17.06-.31.17-.4.08-1.83-1.21-2.78.14-4.25-2.35-.25-.31-.51-.34-.78-.06-.33.35-.79.27-1.18.4-1.87.34-3.61-.49-5.47-.6-1.4-.19-2.85-1.25-4.23-.46-2.76.14-5.63.42-8.41-.01-1.48-.18-2.78.74-3.98-.92,1.43-2,6.09-.75,8.37-1.63,1.15-.28,2.41,0,3.49-.55,1.8-1.02,3.64-.39,5.58-.45,1.32.94,2.98.02,4.28.76,2.27,1.88,5.62,3.09,6.98,5.79Z"/>
        <path class="cls-7" d="m245.58,289.02c.59,1.09,1.28,2.07,2.05,3,.15.8.63,1.14,1.44,1.09.7-.12.26.92.78.95,1.22.15,2.27-.4,3.47-.48.6,0,1.16-.18,1.61-.62.57-.55,1.26-.88,2.04-1.07.99-.45,2.25-.47,2.88-1.48.31-.41.49-.96,1.11-1.14.07,1.21-1.03,2.09-1.74,2.97-.58.11-.48.72-.89,1.01-.86.71-1.86,1.2-2.66,2.03-2.17.14-3.94,1.38-6.17.98-2.59-.4-4.94.62-7.48,1.11-.56-.4-1.14-.69-1.36-1.41.41-.64.85-1.2.35-1.99-.13-1.51,1.91-2.2,3.08-2.75.82-.22.29-.99.3-1.59.34-.34.64-.66,1.2-.61Z"/>
        <path class="cls-6" d="m207,268.41c1.4-.59,3.35.49,2.79,1.99-.73,1.22-.03,2.35.24,3.51.28.7,1.35.19,1.73.91.75.51,1.51.39,1.01,1.48-.05.7-.9,1.18-.63,1.87,1.23,3.41,3.8,6.15,6.65,8.27.35.4.62.79.37,1.34.32,2.07,2.39,3.8,4.07,5.02,1.41,1.43,3.94.36,4.86,2.32-.11.41-.54.27-.76.06-1.05-.11-1.94-.73-2.95-.99-.76-.83-1.89-1.26-2.91-1.71-.82-.66-1.62-1.38-2.37-2.14-3.24-3.13-7-6.2-8.21-10.72-1.83-3.56-3.78-7-3.88-11.21Z"/>
        <path class="cls-33" d="m272.52,267.74c-.16-2.15-1.21-4.03-1.15-6.21.18-1.67-1.04-3.07-1-4.71.09-1.56-1.67-.82-2.57-1.41-.04-1.21,1.86-.56,1.52-1.88-.48-2.14-1.2-4.73-3.14-5.94-2.83-1.21-2.81-4.8-5.57-6.02-.15-.28-.47-.25-.52-.58,5.88,1.55,8.66,7.47,11.15,12.35.63.69.25,1.8.88,2.5,1.19,2.97.72,6.28,1.24,9.4.11.56.17,5.09-.78,3.38.03-.27.05-.55-.05-.87Z"/>
        <path class="cls-22" d="m231.04,240.05c-.54.94-2.27.91-2.19-.39.29-1.29-1.16-1.48-2.11-.78-.49.71-1.17.73-1.94.69-2.25.46-4.38,3.2-6.85,2.16,2.05-1.94,4.27-3.65,6.46-5.56,1.91-.2,3.51-1.21,5.44-.26.33.7.39,1.47,1.13,1.88.22.12.19.47.06.69-.3.51-.19,1.01-.01,1.58Z"/>
        <path class="cls-7" d="m214.53,243.85c1.59,2.18-5.79,6.2-2.59,8.78.1.88-.18,1.54-.95,2.01-.93-.28-1.29-1.29-2.47-.92-1.57,1.19-1.46,2.97-2.01,4.64-1.17,2.38-.12,4.86-.66,7.32-1.89-.57-1.65-4.77-.82-6.2.02-1.7,1.03-2.82,1.9-4.15,2.06-4.1,3.75-8.77,7.61-11.47Z"/>
        <path class="cls-9" d="m242.04,297.34c2.93-1.42,6.19-1.42,9.39-1.26,1.42.04,2.76-1.46,4.13-.8.13.52-.52.44-.78.72-.46.36-.89.62-1.29,1.05-.29.05-.49.15-.7.35-2.95.09-5.76.83-8.61,1.24-1.95.38-4.45,2.62-6.24.68.36-.64,1-.48,1.5-.69.88-.37,1.69-.86,2.61-1.3Z"/>
        <path class="cls-8" d="m239.8,300.11c3.92-1.74,8.52-2.91,12.9-2.69-3.61,2.4-8.61,4.01-12.9,2.69Z"/>
        <path class="cls-29" d="m246.8,231.21c-1.42.85-3.56-.52-5.11.53-3.99,1.29-8.67.96-12.58,1.76,2.19-1.79,15.37-3.81,17.69-2.29Z"/>
        <path class="cls-6" d="m242.07,297.28c-1.09,1.28-2.59,1.52-4.06,2.05-.07.14-.12.21-.27.26-.58-.16-1.12-.33-1.68-.54-.26-.53-2.37-.65-1.47-1.35.2-.13.46-.11.78-.14.22-.11.37-.3.55-.26,1.82.26,3.11-.71,4.67-1.4.41.53,1.08.76,1.48,1.37Z"/>
        <path class="cls-4" d="m206.98,268.28c.59,2.38.99,4.65,1.86,6.95.64,1.75,2.09,2.97,2.39,4.86,1.19,3.83,4.49,6.42,6.99,9.35-3.06-1.84-5.17-5.04-7.05-8.01-.52-1.43-.69-2.87-1.68-4.07-2.26-3.08-2.31-7.09-3.37-10.67.62.3.47,1.03.86,1.58Z"/>
        <path class="cls-33" d="m229.04,233.45c.56.59,1.85,1.06,2.07,1.71-.73,1.81-3.85-.21-5.48,1.05-.31.13-.7.34-1.09-.06,1.26-1.24,2.81-2.11,4.5-2.71Z"/>
        <path class="cls-4" d="m263.68,285.6c-.29-.55.3-.8.48-1.29.76-.62.94-1.4,1.72-2-.28,1.05-1.32,2.33-2.2,3.29Z"/>
        <path class="cls-32" d="m272.54,268.67c.54.22.41.79.2,1.23.11.52-.03,1.17-.37,1.57-.81-.51.15-1.93.18-2.8Z"/>
        <path class="cls-25" d="m259.61,240.31c-.77.32-.81-1.29-.92-1.85.47.5,1.11.95.92,1.85Z"/>
        <path class="cls-7" d="m235.4,297.52c-.2.37-1.08.11-.85.7-.49.17-.77-.26-1.18-.54.63-.12,1.29-.34,2.03-.16Z"/>
        <path class="cls-7" d="m231.47,296.81c.69-.12,1.25.23,1.8.76-.7.15-1.15-.47-1.8-.76Z"/>
        <path class="cls-9" d="m227.59,295.41c.1-.11.24-.15.43-.21.36.16.67.34,1.02.57-.49.12-1,.12-1.45-.37Z"/>
        <path class="cls-4" d="m266.23,281.97c-.13-.58.55-1.23.93-1.68,0,.67-.51,1.1-.93,1.68Z"/>
        <path class="cls-33" d="m272.14,271.42c.52.31-.07,1.09-.33,1.46-.22-.51.17-.93.33-1.46Z"/>
        <path class="cls-4" d="m221.45,292.52c.62-.3.95.26,1.44.6-.58.18-.9-.38-1.44-.6Z"/>
        <path class="cls-8" d="m237.71,299.63c.02-.1.08-.14.19-.22.44.15.83.33,1.27.56-.4.47-.99-.15-1.47-.34Z"/>
        <path class="cls-7" d="m261.36,288.98c-.2-.5.18-.79.56-1.16.41.41-.4.72-.56,1.16Z"/>
        <path class="cls-9" d="m229.26,295.98c.38-.32.71-.09,1.09.18-.36.24-.73.24-1.09-.18Z"/>
        <path class="cls-4" d="m219.04,290.36c.45-.08.55.33.84.62-.52.24-.64-.22-.84-.62Z"/>
        <path class="cls-4" d="m257.37,293.94c.21-.26.43-.55.85-.66-.04.45-.29.73-.85.66Z"/>
        <path class="cls-4" d="m225.39,294.58c.43-.25.69.13,1.06.38-.4.18-.72-.04-1.06-.38Z"/>
        <path class="cls-8" d="m210.34,248.46c.24.45-.15.7-.44,1.06-.09-.39.07-.73.44-1.06Z"/>
        <path class="cls-4" d="m258.62,293c-.1-.49.02-.68.51-.76-.14.25-.19.56-.51.76Z"/>
        <path class="cls-7" d="m262.29,287.47c-.26-.29-.18-.55.17-.82.08.25.1.54-.17.82Z"/>
        <path class="cls-4" d="m205.4,265.62c.28-.21.62.28.47.55-.23-.08-.4-.23-.47-.55Z"/>
        <path class="cls-4" d="m226.55,295.06c.2-.2.43-.22.7.02-.2.19-.43.23-.7-.02Z"/>
        <path class="cls-8" d="m254.8,296.06c-.05-.32.08-.45.44-.29-.07.16-.19.29-.44.29Z"/>
        <path class="cls-4" d="m259.63,291.89c-.19-.23-.12-.4.22-.47.11.21-.01.33-.22.47Z"/>
        <path class="cls-4" d="m224.36,294.22c.18-.02.45-.31.62.1-.22.11-.41.1-.62-.1Z"/>
        <path class="cls-8" d="m217,242.08c.05.24-.06.37-.35.37-.06-.25.06-.37.35-.37Z"/>
        <path class="cls-4" d="m220.53,291.78c.21-.08.33.04.47.23-.23.2-.42.16-.47-.23Z"/>
        <path class="cls-33" d="m272.78,269.92c-.13-.17-.11-.36.1-.57.2.18.14.36-.1.57Z"/>
        <path class="cls-33" d="m272.65,270.96c-.19-.17-.14-.35.09-.55.13.16.11.35-.09.55Z"/>
        <path class="cls-9" d="m236.04,299.08c.18-.19.35-.12.54.1-.16.14-.35.11-.54-.1Z"/>
        <path class="cls-8" d="m215.94,243.01c-.07.02-.09,0-.14-.07-.04-.29.08-.33.33-.2-.02.1-.08.16-.18.27Z"/>
        <path class="cls-33" d="m258.02,237.86c0-.23.42-.2.36.08-.13.07-.23.04-.36-.08Z"/>
        <path class="cls-4" d="m256.51,294.62c-.07-.18-.03-.28.21-.26.07.17,0,.27-.21.26Z"/>
        <path class="cls-8" d="m253.91,296.73c-.17-.2-.22-.39.21-.25-.02.09-.09.15-.21.25Z"/>
        <path class="cls-8" d="m211.28,246.95c.13.11.17.26-.02.44-.13-.11-.17-.26.02-.44Z"/>
        <path class="cls-8" d="m253.08,297.24c-.05-.27.07-.31.31-.17-.04.12-.13.19-.31.17Z"/>
        <path class="cls-26" d="m243.55,276.79c-.72,1.93-2.47,1.13-2.46,2.78-.21,2.55.6,2.85-1.56,4.78-.19.2-.46.15-.71.14-.94-.15-1.92.42-2.84.68-1.26-.37-1.83-1.71-2.07-2.9-.19-.83,1.37-2.03.28-2.47-1.66-.49-3.08-1.72-5-1.61-.14-.07-.2-.13-.25-.28-.94-.49-.51-1.36-.84-2.22.41-.79,1.53-.47,1.79-1.32.43-1,1.78-1.17,1.9-2.4.21-.5.32-1.29,1.01-1.3.4.07.66-.49,1.02-.34.7.57,1.72.63,2.28,1.44.23.33.59.4.83,0,.71-.66,1.84.05,2.17-1.3.04-.7,1.06-1.19,1.26-.34.08.35.02.75.34,1.03,1.17.87.48-1.53,1.66-1.14,1.56.19.95,2.39,1.73,3.43.62,1.26.22,2.26-.54,3.34Z"/>
        <path class="cls-11" d="m229.82,236.08c.32-.37.83-.41,1.19-.83,4.32.75,1.06,2.73,4,3.67,1.58.55.92,2.79,2.73,3.35,1.4.6.92,2.92,2.19,3.44.44-.09.79.09,1.17.22.81.32,1.62-.29,2.45-.3,1.24-.33,1.82.72,2.74,1.25,2.09,1.14,2.68,4.77,5.59,4.09,1.11-.3,2.74-.09,3.33-1.29.47-.64.64-2,1.61-1.93.36.03.6.13.58.55,0,.07.07.21.13.22.91.13.92,1.01,1.28,1.57.25.63,1.44,1.16,1.7.3.34-.8,1.19-1.23,1.67-1.97.12-.83.18-1.68.59-2.47.67-2.22-2.46-3.31-2.25-4.39,2.92.37,2.74,4.13,5.14,5.41,2.56,1.26,3.69,4.45,3.97,7.14.03.44-.3.58-.67.63-2.06.07-.67,3.81-3.76,1.93-.4-.26-.8-.5-1.3-.46-2.83.38-3.25-4.56-5.64-3.93-1,.38-1.73-.09-2.39-.93-.21.51-.02.96-.16,1.37-.17,1.4-2,1.27-1.94-.12.04-.85-.36-.91-1.03-.81-3.19.34-6.2-1.98-8.3-4.14-1.49-2.45-3.4,1.8-5.3-.18-.74-.5-1.81-.42-2.66-.61-.47-1.16-1.95-1.6-2.01-2.84-.03-.69-.72-1.22-.98-1.86-.2-.24-.2-.55-.05-.79.78-1.4-1.37-1.93-2.36-1.29-1.44-.84.68-2.02-.6-2.43-.86-.21-.45-.93-.68-1.57Z"/>
        <path class="cls-28" d="m233.94,282.12c.23.48.4.94.58,1.46-.11.48-.46.45-.74.38-1.5-.45-1.66,2.88-3.33,1,.02-1.16-1.05-1.1-1.75-1.62-.94-.96-1.7.47-2.67.14-1.58-.4.27-1.31-2.8-3.49-.77-.72-1.4.54-2.14,0-.56-.48-1.04-.24-1.63-.03-.82-.44-1.97,0-2.58-1-.75-.24-1.25-.96-.61-1.7.66-.66.88-1.61,1.6-2.21-.27-.53-1.18-.23-1.07-1.09-.12-1.16-1.85-1.15-2.64-1.79-1.03-.41-.82-1.63-1.48-2.37-.44-.62-.43-1.44-.56-2.14-.72-1.48,1.63-1.61,1.19-3.01-.18-.6-.39-.73-1.01-.49-.22.09-.43.18-.62.05-.67-.45-1.47-.47-2.21-.65-.93-.47-.17-2.89.33-3.68.79-1.17-1.29-1.61-.93-2.73.27-1.54,1.15-2.12-.37-3.41,1.04-.89,1.66-.09,2.34.75,1.17,1.46-1.48,3.38.74,4.38,2.2,2.24-.39,3.97,4.82,3.12.67-.07,1.07.2,1.09.94.03.89.6,1.76.24,2.65-.3.73-.31,1.43-.21,2.18.04,1.45,1.81,1.86,1.8,3.34.19,3.41,2.72,3.11,3.87,5.34.29.81.91,1.42,1.53,1.98.55.5,1.01,1,1.17,1.75.54,1.16,3.05,1.58,4.24,2.27.2.06.42.29.6.13.95-.84,2.1-.37,3.22-.49Z"/>
        <path class="cls-20" d="m230.38,284.92c.61.79,1.9.27,2.04-.66.29-1.25,1.24-.21,2.07-.57.49.43.8,1.02,1.47,1.37.68.19.77.7.85,1.29-.32,1.07,1.44,1.99.52,2.86-1.95.91-.55,1.63-1.89,2.08-4,1.55-1.55,4.19-4.31,3.73-1.44.4-2.44-1.88-2.83-2.97-.03-.38-.45-.56-.87-.57-.48,0-.93-.08-1.22-.54-.17-.26-.43-.17-.68-.14-2.26.32-3.32-3.2-1.6-4.33,1.08-.44,1.02-2.04,2.35-2.02,3.03-1.54,1.25-.53,4.1.47Z"/>
        <path class="cls-21" d="m237.3,289.26c.23-.32.23-.6-.06-.94.08-.69-.4-1.14-.55-1.76-.24-.47-.13-1.04-.63-1.4.41-.51.93-.79,1.66-.59.36,1.62,2.05,2.69,3.55,2.34.66,2.1,3.32,1.96,3.52,3.67.15,1.5-1.98.73-2.5,1.91-.47.51-1.24.48-1.29,1.38-.75-1.22-3.1-1.2-2.92-2.89.07-.67-.54-1.06-.79-1.71Z"/>
        <path class="cls-21" d="m234.04,282.08c-.82.89-2.35-.43-3.05.72-.14.28-.44.4-.6.18-.78-.78-1.94-.69-2.78-1.4-.59-.57-1.87-.06-1.91-1.15-.37-1.79-2.46-2.37-2.88-4.23-.21-1.23-1.99-.91-2.36-1.88-1.69-1.59-.8-3.62-2.28-4.79-1.08-.7-.96-2.22-1.05-3.29.98-1.04.16-2.07.11-3.19.22-2.24-4.21,1.01-4.87-1.82-.59-4-.91-.36-2.12-3.78-.12-1.01,1.21-1.23.63-2.82.64-.49.75-1.23,1.08-1.9,2.6.54,1.32,2.49,2.92,2.16-.69,1.01.57,2.07-.44,2.81-1.79,1.02.8,1.88,1.77,1.55.7-.18.54-1.42,1.4-1.04,1.42.5,3.49.33,3.82,2.33-1.27,2.3-.45,1.86-.58,4.25-.38.99,1.07,1.7.3,2.46-1.18.88,1.41,1,2.1,2.38,1.12,2.14-1.68,2.52.89,3.44,1.7.5-1.03,1.65.8,2.67,1.75,1.59.98,3.62,3.94,2.12.11.03.17.09.26.2,1.63.11,1.59,1,1.46,2.36.38,1.83,2.52-2.17,3.91.48-.15.42-.29.77-.47,1.17Z"/>
        <path class="cls-21" d="m211.45,250.19c-.43-.71.14-1.22.55-1.63.91-.66.96-1.81,1.78-2.52.45-.31.64-.82.98-1.3.36,1.55-2.61,4.01-3.31,5.45Z"/>
        <path class="cls-32" d="m238.15,247.18c.92-1.09,1.95,1.92,3.74-.03.69-.75,2.35-.93,2.71.26,1.66,2.01,4.33,3.55,6.9,4.21.7.3,2.89-.9,2.54.5-.25,2.02,1.8,1.72,1.53-.19-.23-.47.05-1.38.61-.8.32.71,1.12,1.28,1.91.99,2.76-1.15,2.88,4.03,5.66,3.82.9-.21,1.44.5,2.15.89,2.26.61.62-2.14,3.72-1.31,1.68.13.61,2.51,1.55,3.57.74,1.89.22,4.02,1.01,5.91.22.7.5,1.4.27,2.22-.62-1.83-1.8-3.55-1.85-5.57-.05-.7-.31-1.1-1.02-1.23-.99.07-.81-1.4-1.63-1.04-.98.3-1.92-.57-2.97-.09-.85.22-1.01.13-1.42-.63-.38-.71-.38-.71-1.18-.39-1.11.41-2.45-.55-2.95.94-.54,1.27-1.83,2.19-2.12,3.55-.02.38-.24.59-.62.52-.59-.11-1.03.1-1.42.51-1,1.38-2.22-.81-2.67.7-.63,1.57-2.82,1.42-4.03,2.04-.17.93-1.26.96-1.64,1.7-.14.27-.45.2-.58-.1-1.67-1.56-.19-3.87-2.69-3.98-.61-.08-1.25-.02-1.81-.38-1.43-.78.14-3.13-1.65-3.71-5.69-1.36-.94-2.76-3.19-5.14-.37-.26-.33-.4.07-.67,1.42-.81-.78-1.8.76-3.15,1.29-1.2-.03-2.56.31-3.93Z"/>
        <path class="cls-32" d="m272.49,267.74c.25.19.42.45.12.83-.26-.2-.21-.49-.12-.83Z"/>
        <path class="cls-30" d="m234.57,280.94c-1.58-1.19-1.17-.93-2.77-.11-.62.73-1.6.74-1.48-.42.25-1.13.17-1.95-1.09-2.23,1.72-.71,3.25,1.09,4.95,1.3.59.22,1.09,1.09.4,1.47Z"/>
        <path class="cls-24" d="m236.64,286.55c.49.42.88.9.6,1.67-.26-.51-.92-1.01-.6-1.67Z"/>
        <path class="cls-33" d="m245.95,252.14c.94-.4,1.93.02,2.87.24,1.73.7-.9,1.74-1.41,2.37-.96.9-1.85,1.93-2.57,3.02-.34.91-1.1,1.3-1.96,1.56-1.18.07-2.09-1.14-3.2-1.51-1.41-1.25-.75-5.82,1.56-5.69.72.33,1.5-.35,2.18.13.83.66,1.61-.02,2.54-.13Z"/>
      </g>
    </g>
  </g>
</svg>