<?xml version="1.0" encoding="UTF-8"?>
<svg id="_背景" data-name="背景" xmlns="http://www.w3.org/2000/svg" viewBox="0 0 375 70.41">
  <defs>
    <style>
      .cls-1 {
        fill: none;
        opacity: .7;
      }

      .cls-2 {
        fill: #f9cfb1;
      }

      .cls-3 {
        fill: #f4b4a9;
      }

      .cls-4 {
        fill: #f4afa5;
      }

      .cls-5 {
        fill: #f4afa3;
      }

      .cls-6 {
        fill: #f4afa2;
      }

      .cls-7 {
        fill: #f9d0b0;
      }

      .cls-8 {
        fill: #f9d0b6;
      }

      .cls-9 {
        fill: #f4b0aa;
      }

      .cls-10 {
        fill: #f4b2a5;
      }

      .cls-11 {
        fill: #f4b3a5;
      }

      .cls-12 {
        fill: #f4b39a;
      }

      .cls-13 {
        fill: #f4b0a4;
      }

      .cls-14 {
        fill: #f4b0a2;
      }

      .cls-15 {
        fill: #f4b0a8;
      }

      .cls-16 {
        fill: #f7c3a8;
      }

      .cls-17 {
        fill: #f7c8b7;
      }

      .cls-18 {
        fill: #f7c6b0;
      }

      .cls-19 {
        fill: #f7c8ac;
      }

      .cls-20 {
        fill: #f7c6b4;
      }

      .cls-21 {
        fill: #f8cbaf;
      }

      .cls-22 {
        fill: #f8cdae;
      }

      .cls-23 {
        fill: #f8cdb3;
      }

      .cls-24 {
        fill: #f3aaa7;
      }

      .cls-25 {
        fill: #f3aaa3;
      }

      .cls-26 {
        fill: #f3a89b;
      }

      .cls-27 {
        fill: #f3aa9e;
      }

      .cls-28 {
        fill: #f3ad9f;
      }

      .cls-29 {
        fill: #f3aea2;
      }

      .cls-30 {
        fill: #fadab7;
      }

      .cls-31 {
        fill: #f7c5aa;
      }

      .cls-32 {
        fill: #f7c2ac;
      }

      .cls-33 {
        fill: #f7c2a7;
      }

      .cls-34 {
        fill: #f7c4b1;
      }

      .cls-35 {
        fill: #f7c1a8;
      }

      .cls-36 {
        fill: #f7c5ae;
      }

      .cls-37 {
        fill: #f2a69d;
      }

      .cls-38 {
        fill: #f2a69a;
      }

      .cls-39 {
        fill: #f2a5a0;
      }

      .cls-40 {
        fill: #f0999a;
      }

      .cls-41 {
        fill: #f0989a;
      }

      .cls-42 {
        fill: #f09895;
      }

      .cls-43 {
        fill: #f09597;
      }

      .cls-44 {
        fill: #ed7f8b;
      }

      .cls-45 {
        fill: #ed8072;
      }

      .cls-46 {
        fill: #ed808e;
      }

      .cls-47 {
        fill: #f1a09e;
      }

      .cls-48 {
        fill: #f1a09f;
      }

      .cls-49 {
        fill: #f19f9b;
      }

      .cls-50 {
        fill: #f5b7a8;
      }

      .cls-51 {
        fill: #f5bbae;
      }

      .cls-52 {
        fill: #f5b8a7;
      }

      .cls-53 {
        fill: #f5b9ae;
      }

      .cls-54 {
        fill: #f5b8a6;
      }

      .cls-55 {
        fill: #f5b8ac;
      }

      .cls-56 {
        fill: #f5b9a9;
      }

      .cls-57 {
        fill: #f5b99e;
      }

      .cls-58 {
        fill: #f5b6a1;
      }

      .cls-59 {
        fill: #f6c2b2;
      }

      .cls-60 {
        fill: #f6c2b4;
      }

      .cls-61 {
        fill: #f6bfa7;
      }

      .cls-62 {
        fill: #f6c0aa;
      }

      .cls-63 {
        fill: #ef928f;
      }

      .cls-64 {
        fill: #ef9299;
      }

      .cls-65 {
        fill: #ef919a;
      }

      .cls-66 {
        fill: #ef9393;
      }

      .cls-67 {
        fill: #ef9398;
      }

      .cls-68 {
        fill: #ef8d92;
      }

      .cls-69 {
        fill: #ef8e92;
      }

      .cls-70 {
        fill: #ef8d8e;
      }

      .cls-71 {
        fill: #ef8f97;
      }

      .cls-72 {
        fill: #ef8f8a;
      }

      .cls-73 {
        fill: #f5baad;
      }

      .cls-74 {
        fill: #f5baab;
      }

      .cls-75 {
        fill: #f2a8a5;
      }

      .cls-76 {
        fill: #f2a8a1;
      }

      .cls-77 {
        fill: #f2a6a6;
      }

      .cls-78 {
        fill: #f2a69f;
      }

      .cls-79 {
        fill: #f2a6a3;
      }

      .cls-80 {
        fill: #f09a9d;
      }

      .cls-81 {
        fill: #f0978e;
      }

      .cls-82 {
        fill: #f0969d;
      }

      .cls-83 {
        fill: #f09899;
      }

      .cls-84 {
        fill: #ee8485;
      }

      .cls-85 {
        fill: #faf4c3;
      }

      .cls-86 {
        fill: #fbefc1;
      }

      .cls-87 {
        fill: #fbe0bb;
      }

      .cls-88 {
        fill: #fbe0b5;
      }

      .cls-89 {
        fill: #fbf0c0;
      }

      .cls-90 {
        fill: #fbe7bc;
      }

      .cls-91 {
        fill: #fbdab5;
      }

      .cls-92 {
        fill: #fbecc0;
      }

      .cls-93 {
        fill: #fae6be;
      }

      .cls-94 {
        fill: #faebc0;
      }

      .cls-95 {
        fill: #fadcb8;
      }

      .cls-96 {
        fill: #fae1b1;
      }

      .cls-97 {
        fill: #ee8995;
      }

      .cls-98 {
        fill: #ee8a8f;
      }

      .cls-99 {
        fill: #ee8780;
      }

      .cls-100 {
        fill: #f19ca1;
      }

      .cls-101 {
        fill: #f19c94;
      }
    </style>
  </defs>
  <g class="cls-1">
    <path class="cls-87" d="m380.76,42.82c.02.17.03.35.05.52-1.03,1.07-2.49,1.64-3.38,2.87-.15.11-.31.2-.48.26-.18.05-.36.07-.55.05-.18-.03-.35-.1-.5-.2-.45-.33-.52-.8-.39-1.61-.65.82-1.28,1.19-2.14,1.1-.9-.1-1.7.24-2.14,1.08-.52,1.02-1.22.95-1.91.31-.47-.44-1.57-.9-.14-1.7.43-.24-.24-1.13-.15-1.77.17-1.22-.31-2.29-.91-3.31-.85-1.45-2.01-1.61-3.07-.31-.85,1.04-1.68,1.36-2.83.57-.31-.21-.66-.43-.96-.02-.2.28-.14.61.12.83.68.56,1.04,1.19.61,2.08-.11.24.06.45.19.66.94,1.51.65,2.32-1.08,2.45-1.22.09-1.55.33-1.34,1.61.18,1.07-1.41,1.93-2.91,1.84-.62-.04-1.13-.5-1.91-.39.39,1.44-.07,2.22-1.67,2.41-.88.1-1.65.71-1.56,1.91.05.68-.21,1.34-.93,1.66-1.31.2-1.94.62-.95,2.01.8,1.14.3,1.96-1.14,1.95-1.18,0-2.25-.38-2.96-1.43,0-.19.02-.43.17-.5,2.44-1.04,3.2-3.25,3.82-5.54.19-.71.5-1.28,1.26-1.39,1.68-.24,1.36-1.22.85-2.26-.13-.27-.34-.51-.47-.79-.21-.43-.56-.88-.15-1.35.43-.47.99-.48,1.52-.19,1.21.67,2.69.82,3.69,1.99-.29-1.43-1.71-2.62-.76-4.21.18-.3.4-.57.64-.81.17-.17.37-.32.59-.43.31-.15.7-.23.66-.72-.07-.48-.31-.92-.4-1.39-.18-.98.13-1.53,1.23-1.39,1.68-.14,2.12-1.56,2.58-2.75.68-1.75.57-1.78,2.21-1.05.74.33,1.34.76,1.87,1.42.76.96,1.23.81,1.58-.34.6-1.97,2.37-2.55,4.08-1.34.59.41,1.09.97,1.96,1.19.15-1.06.57-1.91,1.65-2.49-1.91-.43-4.09.11-4.73-2.28-.47-1.76-.07-2.72,1.43-3.73,1.09.35,1.32.97.54,1.85-.34.39-.64.81-.29,1.29.41.56,1.04.82,1.7.99.19.05.46-.04.47-.19.08-1.18.58-2.34.54-3.45-.02-.76-1.26-.98-2.08-1.2-.35-.09-.73.05-1.09,0-.84-.8-.66-2.15-1.58-2.9-.56-1.44-.27-2.51.85-2.86,1.39-.44,1.87.57,2.21,1.59.91,2.7,2.94,4.06,5.55,4.75.81.21,1.57.56,1.6,1.52.04,1.1-.91,1.14-1.67,1.33-.41.11-.85.1-1.27.2-.55.14-.77.57-.4.95,1.08,1.1.96,2.74,1.93,3.91.91,1.1.58,1.64-.96,2.05-1.74-.19-3.38,1.44-2.97,2.95.16.6.38,1.19,1.1,1.26.72.07.87-.5,1.03-1.03.07-.23.15-.46.34-.62.59-.14.79-.64,1.07-1.09.48-.79,1.17-1.16,2.11-.78-.2,1.2.19,2.9,1.02,4.38Z"/>
    <path class="cls-30" d="m379.6,38.47c-.94.24-1.76.47-1.88,1.74-.1,1.07-.7.31-1.1.09-.02-.06-.05-.12-.07-.18-.03-.26,0-.52,0-.78,0-.12.02-.25.04-.37.03-.17.09-.34.13-.51.01-.11.03-.22.05-.33,0-.11.02-.22.06-.33,0,0,.09-.14.09-.14.21-.11.41-.28.63-.33.71-.17.63-.63.43-1.11-.06-.16-.23-.31-.39-.38-1.05-.51-.83-1.5-.96-2.38-.14-.9-1.33-1.08-1.43-2.05-.07-.67.1-1.13.83-1.09.74.04,1.45-.09,2.17-.22.42-.07.91-.06.94-.65.02-.49-.28-.81-.68-1-.56-.27-1.16-.4-1.78-.3-.68.11-.93-.13-1.34-.75-.61-.92-1.45-2.03-3.11-1.41.57-1.28-.28-2.22-.57-3.28-.16-.6-.46-1.19-1.28-1.01-.68.15-1.26,1.09-1.13,1.8.04.23.13.46.2.69-.09.02-.18.04-.26.06-.81-.08-1.6-.22-2.29-.68-.95-.63-1.45-1.62-2.09-2.51-.38-.53-.68-1.18-1.42-1.34-.79-.19-1.4-.77-2.19-.97-1.15-.21-1.87-1.17-2.88-1.62-.18-.07-.34-.16-.51-.26-1.17-.69-2.02-1.76-3.03-2.63-.96-.82-.67-1.61.6-1.88.66-.14,1.31-.27,1.9-.61.48-.28.97-.25,1.31.21.67.88,1.68,1.43,2.31,2.35.54.79,1.22,1.31,2.19,1.51,1.2.25,1.99,1.15,2.77,2.01.83,1.12,1.97,1.95,3.03,3.23.03-1.94-1.4-2.28-2.41-2.98-1.88-1.33-2.88-3.33-3.86-5.28-.42-.83-.67-2.05.55-2.76,1.41-.56,2.28-.06,2.89,1.31.67,1.52,1.54,2.81,3.48,3.11,1.28.2,2.86,2.7,2.64,4.01-.18,1.03.26,1.75.67,2.55.1.66-.08,1.36.2,1.99.22.49.45,1.03,1.09,1.12.19.03.35-.12.41-.3.21-.64-.14-1.04-.62-1.38-.39-.28-.88-.45-1.04-.97.05-.93.83-.84,1.36-.84,1.27,0,2.19-.54,2.88-1.56.49.49.62,1.17.92,1.76-.99,2.37-.8,2.9,1.52,4.35.27.17.44.39.51.7.75,1.64.65,3.44.96,5.16-.62,1.1-.41,2.13.27,3.11.23.5.27,1.02.14,1.56.02.14-.02.23-.1.29-.09.05-.14.07-.17.05-.69-.74-1.49-1.36-2.39-1.63.08,1.23.42,2.46,2.07,2.75,0,.29-.14.53-.32.75-.24.31-.52.56-.94.58Z"/>
    <path class="cls-85" d="m372.81,62.62c-.59.82-1.32,1.5-2.18,2.02-.57-.11-1.1,0-1.55.37-1.68,1.39-3.53,2.3-5.78,2.23-.5-.02-.98.23-1.33.57-2.09,2.01-4.66,1.71-7.19,1.48-.75-.07-1.94.22-1.89-1.14.05-1.23.6-2.12,2.04-2.03.55.14.98.49,1.4.84.26.22.51.46.68.76.06.13-.02.32.05.4.17.17-.06.06.09-.13-.02-.08-.03-.15-.05-.23-.03-.16-.07-.31-.11-.47-.33-.3.44-.9-.39-1.14-1.04-.29-1.63-1.03-1.55-2.18.04-.63-.36-.81-.89-.94-.93-.24-1.64-.78-2.05-1.67.47-1.15,2.06-1.48,3.42-.63.67.42,1.26.97,1.88,1.48.66.55,1.18,1.54,2.02.13.29-.49.97.06,1.52.06-.98-.87-2.3-1.52-2.07-3.06.19-1.28,1.65-1.78,2.16-3.08-1.12-.4-2.38-.48-3.12-1.6-.46-.7-1.42-1.24-.82-2.2.53-.84,1.42-.45,2.18-.23,1.3.39,2.61.71,3.93.97.89.17,1.49.61,1.42,1.6-.11,1.48.56,2.93-.12,4.45-.36.81-.07,1.76,1.07,1.96.93.16,2.01.62,2.36-.87.09-.37.29-.67.72-.75.91-.16,3.85,1.99,4.14,3.03Z"/>
    <path class="cls-92" d="m380.94,44.9c.44,3.09.32,5.95-2.04,8.47-1.03,1.1-1.84,2.59-2.18,4.18-.18.83-.84,1.33-1.31,1.97-.18-.04-.4-.1-.46-.27-.99-2.54-3.52-3.15-5.46-4.54-1.65-1.18-3.62-2.02-4.8-3.8-.06-.17-.07-.35-.02-.53.35-.36.74-.33,1.17-.14.39.18.79.87,1.22.24.32-.46-.24-.88-.41-1.32-.39-1-1.62-1.85-.53-3.13.69-.81,1.41-1.07,2.11-.14,1.26,1.69,3.39,2.24,4.74,3.91.8,1,2.4.48,3.94.24-1.75-.62-3.1-1.42-4.44-2.22-.54-.32-1.09-.79-.7-1.48.33-.58.82-.93,1.68-.75.98.21,1.96.38,2.89.76h0c.17-.01.35-.03.52-.05h0c.38-.06.76-.22.9-.56.7-1.69,1.88-1.42,3.16-.84Z"/>
    <path class="cls-89" d="m357.07,68.19c-.28-.24-.56-.47-.85-.71-.1-1.18-.98-1.67-1.87-2.13.24.28.47.55.46.95-1.24.27-1.53,1.19-1.59,2.43,1.63-.22,3.22.99,4.87-.04.28-.18.58,0,.87.07.83.23,1.32-.03,1.98-.74.73-.78,1.69-2.03,3.19-1.16.15.08.44.16.51.09,1.13-1.25,3.2-.74,4.18-2.36.57-.94.83-.83,1.8.07-.32.38-.63.75-.95,1.13-.17,0-.34.05-.51.05-.16.19-.32.37-.48.56-.17,0-.34.05-.51.05-.08.09-.16.19-.24.28-.17,0-.34.03-.52.05h0c-.3,0-.46.32-.76.33-.08.09-.16.19-.24.28-.17,0-.34.05-.51.05-.08.09-.16.19-.24.28-.17,0-.34.05-.51.05-.08.09-.16.19-.24.28-.17,0-.34.05-.52.05-.08.09-.16.19-.24.28-.17,0-.34.05-.52.05-.08.09-.16.19-.24.28-.17,0-.34.05-.52.05-.25.11-.5.22-.76.33-.44.08-.84.28-1.28.37h0c-.17.01-.35.03-.52.05h0c-.17,0-.35.04-.52.05-3,.88-6.06.98-9.15.72-1.03-.09-2.04.3-3.08.08-.27-.23-.53-.46-.72-.76-.42-.67-1.12-.95-1.82-1.13-1.46-.38-1.71-1.46-1.56-2.68.22-1.74,1.4-2.24,2.89-1.3.67.42,1.25.97,1.76,1.58.73.86,1.33.63,1.89-.18.12-.13.27-.22.43-.3.61-.12,1.11.37,1.86.27-.03-.51-.64-.98-.27-1.53.73-.22-.11-.44,0-.66-.16-.66-.78-1.11-.83-1.81.2-.51.55-.7,1.08-.52.85.6,1.44,1.62,2.81,1.3.64-.15.57.57.52,1.08-.15,1.71.34,2.2,2.34,2.14-.5.59-.85,1.17-.4,1.83-.12,0-.2.05-.23.13-.03.08-.03.13,0,.15,0,.11-.03.19-.1.23s-.12.06-.13.05Z"/>
    <path class="cls-21" d="m377.13,19.05c-.25,1.54-.33,1.63-1.73,1.86-.84.14-1.72.03-2.54.36h0c-1.02-.73-1.76-1.54-1.05-2.92.22-.42-.06-.82-.32-1.18-.51-.68-1.01-1.37-1.52-2.06-.24-.33-.59-.5-.96-.38-1.06.33-1.63-.34-2.1-1.06-.55-.86-1.31-1.57-1.53-2.67-.26-1.27-1.32-.71-2.11-.67-.89-.04-1.54-.63-2.29-.99-.91-.61-1.34-1.74-2.68-1.98-.79-.14-1.53-1.19-1.16-2.2.52-1.42-.07-1.76-1.32-1.76-.43,0-.85-.1-1.1-.53.15-.67.38-1.33.11-2.02.74-.13,1.41.23,2.12.32,1.66.39,2.54,2.08,4.17,2.54,1.59,1.65,3.55,2.69,5.64,3.57.84.35,1.63.81,1.91,1.79-.38.69.09,1.25.27,1.86.42,1.33.71,2.68,1.75,3.76.86.89,1.55,1.9,2.96,1.91.45,0,.84.27.94.74.11.53-.31.73-.69.95-.49.27-1.4.37-.89,1.22.4.66,1.2.49,1.86.31.82-.23,1.21-1.25,2.18-1.25.03.16.05.33.08.49Z"/>
    <path class="cls-92" d="m372.81,62.62c-.56-.79-1.02-1.59-2.23-1.65-.63-.03-1.22-.73-1.81-1.11-.15.09-.28.13-.34.22-.36.59.34,1.84-.64,1.85-1.21,0-2.75.23-3.6-.88-.63-.82-.33-2.01,0-2.97.21-.6.95-1.06-.14-1.55-.39-.18-.12-.67-.04-1.01.38-1.6.38-1.56-1.28-1.92-1.23-.27-2.48-.49-3.64-1.02-.22-.46-.63-.87-.35-1.46.76-.54,1.63-.09,2.51-.25-.58-.45-1.57-.41-1.4-1.46.11-.68.54-1.08,1.15-1.3.8-.28,1.61-.37,2.13.45.45.72,1.48.96,1.55,1.96h0c-.13.49-.67.15-.93.47.98.9,1.82,1.96,3.15,2.41.17.06.41.12.47.26,1.29,2.89,4.47,3.76,6.38,5.98.27.32.67.54.71,1.02-.55.66-1.11,1.32-1.66,1.98Z"/>
    <path class="cls-90" d="m350.33,65.9c-.05.18-.06.37-.15.53-.68,1.22-1.41,1.33-2.18.22-.58-.84-1.32-1.46-2.12-2.01-.9-.62-1.19-.39-1.8.59-.4.64-.07,1.17-.09,1.75-.03.95.75.73,1.24.98.78.38,1.88.41,2.01,1.61-.38.64-.82.2-1.21.03-1.1-.47-2.17-.51-3.23.1-.63.32-1.23.01-1.84-.11-.91-.7-1.86-1.34-2.64-2.21-.65-.72-.77-1.36.02-2.03.22-.17.47-.29.72-.38.71-.32,1.54-.52.9-1.66-.41-.73.08-1.12.83-1.19,1.17-.02,2.23,1.25,3.49.31.16-.08.32-.12.49-.13,1.32-.13,1.63,1.05,2.48,1.98-.15-.87-.6-1.27-.95-1.73-1.02-1.32-.87-2,.66-2.99.28.07.47.23.59.49,0,1.76.95,3.09,2.03,4.32.41.47.92.81.74,1.53Z"/>
    <path class="cls-63" d="m311.96,40.47c-.47-2.34-.59-4.68.12-7.01.31-1.01-.2-2-.1-3.04.15-1.51.38-2.84,1.79-3.77,1.43-.95,1.78-2.54,2.07-4.11.46-.02.82-.09.66-.71-.14-.54-.03-1.06.36-1.49.34-.34.73-.52,1.22-.42.16.09.27.22.32.4-.31,1.76-.01,3.58-.63,5.32-.16.45.28.89.58,1.28.44.56.74,1.24.14,1.8-.58.54-1.1-.09-1.6-.38-.26-.15-.51-.34-.81-.41-2.07-.89-2,.95-2.54,2,0,.16.02.31.04.47.07.23.16.45.26.67.28.61.14,1.2-.05,1.79-.15.47-.02,1.07-.23,1.43-.76,1.3,2.01,2.11.55,3.17-1.4,1.01-.43,2.28-.87,3.33-.04.08-.08.16-.12.24-.12.14-.27.21-.46.21-.32-.17-.59-.39-.71-.75Z"/>
    <path class="cls-52" d="m329.06,64.87c-.1-.06-.2-.13-.3-.21-.44.05-.63-.5-1.07-.45-.1-.06-.2-.13-.3-.2-.32-.02-.51-.19-.58-.49h0c-.06-.57-1.29-.68-.71-1.38.42-.51,1.13-.1,1.66.21.63.36,1.11.93,1.77,1.25.51.25,1.15.41,1.55.07.45-.38-.31-.8-.28-1.27-.03-.6.36-.91.81-1.18.97-.06,1.92-.26,2.88-.46.42.18.54.62.82.93.57.63,1.02.45,1.37-.25,1.51.24,1.92,1.71,2.82,2.63.35.36-.2.97-.74.96-1.61,0-2.68.8-3.46,2.11-.23.13-.47.2-.74.13-.3-.13-.5-.48-.89-.43h0c-.3,0-.49-.19-.7-.36-.95-.66-2-1.11-3.12-1.39h0c-.29.02-.5-.25-.79-.22Z"/>
    <path class="cls-70" d="m318.05,20.04c-.33.2-.67.41-1,.61-.67-.01.08-1.01-.67-.97.12-.72-.06-1.49.42-2.14,1.19.12,1.94-.3,2-1.59.1-.14.23-.24.38-.33.48-.15.95-.34,1.47-.38.5-.07,1.1.64,1.46-.06.28-.54-.15-1.03-.53-1.44-.33-.36-.71-.7-.3-1.25.43-.57.92-.35,1.47-.22,1.08.26,1.73,1.03,2.37,1.84,2.2,1.05,2.37,1.54,1.36,3.73-.62.86-1.92.82-2.28,2.32-.21.87-2.09.08-2.54-.7-.97-1.65-1.82-1.06-2.83-.24-.13.2-.25.4-.37.61-.1.13-.23.2-.39.21Z"/>
    <path class="cls-85" d="m374.47,60.64c-.47-.35-1.09-.44-1.44-1.06-.35-.63-.98-1.1-1.69-1.36-.54-.2-.97-.49-1.25-1.01-.11-.21-.29-.55-.45-.55-1.69-.03-2.06-1.17-2.23-2.53-.01-.11-.26-.25-.42-.28-1.87-.27-2.69-2.01-4.08-2.94-.19-.13-.37-.36-.22-.63.19-.32.51-.29.81-.19.39.14.68.55,1.17.4.82.64,1.33,1.75,2.59,1.74.05,0,.12.05.15.1.99,1.73,3.06,1.98,4.41,3.2.23.2.46.54.71.55,1.99.1,2.18,1.74,2.72,3.08.05.11.1.22.15.33-.32.38-.63.75-.95,1.13Z"/>
    <path class="cls-54" d="m337.4,1.61c.86-.89,2.09-.33,3.06-.79,1.19.28,2.43,1.46,3.51-.2,1.62.54,2.61,1.81,3.6,3.07-1.97.87-3.58,2.77-6.07,2.13-1.34-.35-2.06.27-2.44,1.48-.9.68-1.82,1.65-2.61-.11.2-.96,1.35-1.51,1.02-2.76-.13-.51.72-.72,1.27-.79.68-.09,1.33-.21,1.52-1.04-1.15.2-2.13-.02-2.85-.99Z"/>
    <path class="cls-35" d="m377.05,18.56c-.27.25-.66.44-.79.75-.61,1.48-1.88,1.13-2.98,1.08-.63-.02-1.14-.51-1.18-1.21-.03-.62.38-.97.96-1.19.44-.17,1.34.19,1.19-.68-.1-.58-.8-.38-1.27-.28-.26.06-.5.02-.69-.15-1.49-1.33-3.11-2.58-3.35-4.78-.05-.44-.47-.73-.38-1.2,1.2.03,1.46.98,1.69,1.85.31,1.13.8.75,1.36.26.27.32.48.77.83.95,2.03,1.05,3.17,2.97,4.62,4.59Z"/>
    <path class="cls-81" d="m318.79,55.29c-1.17-1.03-2.06-2.22-2.42-3.8-.21-.91-1-1.55-1.34-2.4-.66-1.64-1.34-3.3-1.76-5.02-.21-.85-.68-1.56-.86-2.39-.02-.3.1-.49.42-.51h0c.53-.05.92.2,1.27.56.37.42.67.92.66,1.47-.01,1.15.39,1.83,1.62,1.91.53.04,1.09.51.75.98-1.33,1.84-.1,3.33.5,4.92.31.67.64,1.33,1.25,1.8.84.64.9,1.4.37,2.26-.13.13-.29.21-.47.23Z"/>
    <path class="cls-32" d="m330.89,62.1c.53.57.76,1.37,1.54,1.74-.56.58-1.15.2-1.66.42-.74.32-1.38-.02-1.98-.53-.72-.61-1.34-1.43-2.43-1.48-.16.54.65.72.45,1.25,0,0-.14-.1-.14-.1l-.13-.11c-1.91-.96-3.02-2.9-4.87-3.96-.71-.41-.35-1.17.26-1.64.93-.21,1.37.41,1.78,1.07.08.15.14.31.21.47.23.55.6.91,1.25.85,1.06-.27,2-.2,2.79.74.74.89,2.08.59,2.94,1.3Z"/>
    <path class="cls-7" d="m322.12,57.63c-.61,1.35-.59,1.32.65,2.09.61.38,1.26.81,1.64,1.39.59.88,1.39,1.49,2.14,2.18-.06,0-.14.03-.18,0-3.08-2.14-6.3-4.15-7.58-8,.08-.08.15-.16.23-.24,1.06-.44,2.07-.26,3.06.25.6.44.6,1.03.43,1.67-.05.17-.12.33-.21.48-.06.07-.12.13-.18.19Z"/>
    <path class="cls-38" d="m337.4,1.61c.58.2,1.18.35,1.73.61.53.26.76.21.82-.41.03-.29.33-.32.58-.25.28.07.37.31.37.56.03,1.21-.62,1.9-1.84,1.9-.45,0-.88.01-1.21.31-.41.37.12.63.18.95.09.49-.06.86-.49,1.07-.39.2-.72.46-.99.81-.07-.03-.14-.07-.22-.1-.25-.58.26-1.23-.2-1.78-.22-.5-.92-.65-.96-1.29.61-.74,1.79-.95,1.95-2.1.08-.09.17-.18.25-.28Z"/>
    <path class="cls-42" d="m319.24,15.75c-.08.09-.16.18-.23.28-.35.01-.53-.18-.59-.51.79-.91,1.58-1.82,2.38-2.72.35-.4.61-.92,1.23-.98.58-.02,1.17-.15,1.73.12.31.14.57.34.82.56.19.16.35.35.48.56.07.15.12.3.13.46-.06.39-.08.81-.55.97-.31-1.34-1.55-1.54-2.53-2.03-.25-.12-.48-.05-.63.19-.17.26-.07.48.18.59,1.41.65,1.07,1.8.9,2.97-.81-.07-1.46-.34-2.03-.83-.6-.47-.83.32-1.28.37Z"/>
    <path class="cls-33" d="m354.85.84c1.18,1.1,1.18,1.11-.1,1.85-.45.36-.95.31-1.45.14-.55-.26-1.11-.62-1.43.28-.07.16-.15.31-.24.46-.61.8-1.09,1.75-2.27,1.84-.19-.02-.35-.11-.48-.24-.33-.75-.62-1.51-.3-2.34,1.49-.92,2.79-2.35,4.88-1.62.39.14-.11-.36.05-.54.48-.2.92-.15,1.33.17Z"/>
    <path class="cls-88" d="m334.46,67.02c.18-.01.36-.02.53-.04,1.03.14,1.94.23,2.13-1.25.08-.63.83-.83,1.52-.62.04.07.08.15.13.22-.74.65-.73,1.11.04,1.89.74.75,1.94,1.14,2.17,2.36-1.3.05-2.46-.32-3.6-.96-.99-.56-2.09-.9-3.14-1.34-.04-.14-.02-.22.06-.25.08-.03.13-.04.17-.01Z"/>
    <path class="cls-12" d="m348.75,2.96c-.24.72.73,1.33.18,2.07-1.09.35-.99-.72-1.41-1.18-.61-.47-1.18-1.03-1.85-1.4-.46-.25-.79-.46-.86-1.01-.07-.54-.55-.55-.94-.67-.31-.14-.41-.3-.06-.52.33-.19.68-.23,1.04-.11,1.23.3,2.32.88,3.39,1.54.47.3.62.73.52,1.26Z"/>
    <path class="cls-57" d="m348.75,2.96c-.18-.35-.28-.74-.61-.99.64-.43.21-1.76,1.42-1.71h0c.61.11,1.23.05,1.85.1.72.01,1.45-.08,2.11.31.15.1.29.23.46.29.4.15.95.26.7.81-.25.55-.73.17-1.09,0-1.05-.5-1.98-.74-2.87.42-.42.55-1.45.1-1.96.77Z"/>
    <path class="cls-72" d="m326.93,7.78c.9-.71,2.03-.87,3.05-1.3.5.1,1.03-.14,1.5.16.23.48-.02.84-.29,1.19-.79,1.1-1.87,1.71-3.21,1.85-.37-.02-.66-.2-.9-.46-.11-.13-.19-.29-.25-.45-.08-.34-.09-.68.11-.99Z"/>
    <path class="cls-58" d="m371.6,13.01c-.24.42.28,1.24-.58,1.31-.74.06-1.06-.4-1.1-1.14-.06-.97-.57-1.72-1.36-2.28-.17-.32-.35-.62-.5-.95-.29-.64.03-.88.63-.9.81.61,1.22,1.5,1.72,2.34.34.57.79,1.08,1.2,1.61Z"/>
    <path class="cls-33" d="m349.56.25c-.22.17-.59.25-.44.63.41,1.04-.34,1-.98,1.08-1.24-.35-2.34-.94-3.3-1.81,1.57.05,3.16-.43,4.72.1Z"/>
    <path class="cls-101" d="m330.84,7.66c.25-.32.59-.6.43-1.08.64-.81,1.66-.89,2.51-1.3.17-.17.34-.34.51-.51.29-.05.42-.3.6-.49.09-.11.21-.15.35-.14.5.17,1.19.12,1.13.95-.02.92-.73,1.38-1.42,1.45-1.42.15-2.51.84-3.57,1.68-.3-.07-.51-.23-.54-.55Z"/>
    <path class="cls-96" d="m342.81,69.7c-.36-.36-.28-.72.19-.75,1.21-.08,2.51-.61,3.57.49.18.19.44.17.68.12.23.2.4.42.33.75,0,0,0,0,0,0-.17.01-.34.03-.51.05h0c-.17.01-.34.03-.51.05-1.24-.24-2.57-.02-3.73-.71Z"/>
    <path class="cls-33" d="m361.13,3.7c-.69.62-1.36.65-1.73-.28-.33-.83-.83-1.28-1.7-1.39-.46-.06-.79-.32-.73-.86,1.77-.12,2.93.95,4.09,2.05.02.16.05.33.07.49h0Z"/>
    <path class="cls-84" d="m318.42,15.52c.2.17.39.34.59.51.1,2.23-.09,2.35-2.22,1.52.22-.93.56-1.77,1.63-2.02Z"/>
    <path class="cls-99" d="m316.38,19.68c.28-.2.41-.6.97-.59,0,.54-.55,1.01-.3,1.56-.38.51-.32.99.02,1.5.31.47.05.86-.34,1.05-.59.28-.61-.4-.89-.65-.18-1.02.11-1.96.54-2.87Z"/>
    <path class="cls-91" d="m343.8.26c.02.17.04.34.06.52-.14.36.35.93-.26,1.11-.55.16-1.15.54-1.74.09-.48-.37-.94-.77-1.41-1.16,1.13-.09,2.26-.22,3.35-.56Z"/>
    <path class="cls-72" d="m323.97,9.61c.52-.81,1.28-1.27,2.18-1.54.33.18.69.32.85.71v.03c-.32,1.49-1.42,1.94-2.76,2.07-.59-.32-.32-.81-.27-1.27Z"/>
    <path class="cls-78" d="m323.97,9.61c.15.33.17.67.06,1.01.1.33.52.53.4.95-.13.38-.38.61-.79.65-.53-.16-1.17.08-1.62-.41.65-.73,1.29-1.47,1.94-2.2Z"/>
    <path class="cls-54" d="m335.24,4.14c-.08.09-.16.18-.24.27-.18.07-.27,0-.25-.19.73-.85,1.27-1.89,2.39-2.33.19,1-.04,1.55-.93,1.88-.32.12-.71.08-.97.38Z"/>
    <path class="cls-37" d="m333.78,5.28c-.7.7-1.68.85-2.51,1.3-.45.22-.89.2-1.3-.11,1.3-.29,2.42-1.18,3.81-1.19Z"/>
    <path class="cls-32" d="m329.84,65.08c1.27-.05,2.33.46,3.25,1.28.04.14.02.22-.06.25-.08.03-.13.03-.17,0-1-.53-2.1-.87-3.03-1.54Z"/>
    <path class="cls-45" d="m327.01,8.77c-.37-.13-.94-.02-.85-.71.11-.07.22-.14.32-.21.14-.07.28-.09.43-.08,0,0,.02,0,.02,0,.17.32.2.65.08.99Z"/>
    <path class="cls-33" d="m351.41.36c-.63.26-1.26.38-1.85-.1.63-.24,1.25-.31,1.85.1Z"/>
    <path class="cls-85" d="m360.85,69.42c.34-.41.77-.53,1.28-.37-.34.41-.77.53-1.28.37Z"/>
    <path class="cls-49" d="m312.83,41.17c-.14.17-.28.34-.42.51-.22-.38-.45-.75-.45-1.21.29.23.58.47.87.7Z"/>
    <path class="cls-32" d="m327.69,64.2c.48-.14.76.19,1.07.45-.47.13-.76-.18-1.07-.45Z"/>
    <path class="cls-38" d="m334.75,4.22c.09.06.17.13.25.19-.19.23-.4.4-.72.36.15-.18.31-.37.46-.55Z"/>
    <path class="cls-7" d="m326.81,63.51c.19.16.39.33.58.49-.42.1-.62-.05-.58-.49Z"/>
    <path class="cls-23" d="m334.46,67.02c-.07.09-.15.18-.23.26-.19-.15-.38-.3-.57-.45.31-.13.56,0,.8.19Z"/>
    <path class="cls-23" d="m332.87,66.62c.08-.09.15-.17.23-.26.19.16.38.31.57.47-.31.12-.56,0-.79-.21Z"/>
    <path class="cls-32" d="m329.06,64.87c.31-.11.56.02.79.22-.31.11-.56-.01-.79-.22Z"/>
    <path class="cls-85" d="m366.66,67.08c.2-.23.43-.4.76-.33-.2.23-.43.39-.76.33Z"/>
    <path class="cls-89" d="m346.54,70.41c.17-.02.34-.03.51-.05-.17.02-.34.03-.51.05Z"/>
    <path class="cls-89" d="m347.06,70.37c.17-.01.34-.03.51-.05-.17.01-.34.03-.51.05Z"/>
    <path class="cls-85" d="m365.15,67.74c.17-.02.34-.03.51-.05-.17.02-.34.03-.51.05Z"/>
    <path class="cls-85" d="m365.91,67.41c.17-.02.34-.03.51-.05-.17.02-.34.03-.51.05Z"/>
    <path class="cls-85" d="m363.64,68.4c.17-.02.34-.03.52-.05-.17.02-.34.03-.52.05Z"/>
    <path class="cls-85" d="m364.39,68.07l.52-.05c-.17.02-.34.03-.52.05Z"/>
    <path class="cls-85" d="m367.42,66.76c.17-.02.34-.03.52-.05-.17.02-.34.03-.52.05Z"/>
    <path class="cls-85" d="m368.18,66.43c.17-.02.34-.03.51-.05-.17.02-.34.03-.51.05Z"/>
    <path class="cls-85" d="m369.17,65.82c.17-.02.34-.04.51-.05-.17.02-.34.04-.51.05Z"/>
    <path class="cls-21" d="m361.13,3.71c-.02-.16-.05-.33-.07-.49.02.16.05.33.07.49Z"/>
    <path class="cls-85" d="m362.88,68.72c.17-.02.34-.03.52-.05-.17.02-.34.03-.52.05Z"/>
    <path class="cls-85" d="m359.81,69.52c.17-.02.35-.03.52-.05-.17.02-.35.03-.52.05Z"/>
    <path class="cls-72" d="m326.91,7.78c-.14.03-.29.05-.43.08.12-.14.27-.16.43-.08Z"/>
    <path class="cls-85" d="m360.33,69.47c.17-.02.35-.03.52-.05-.17.02-.35.03-.52.05Z"/>
    <path class="cls-93" d="m364.69,50.51c-.58-.76-1.68-.91-2.05-1.98-.19-.54-.98-.24-1.5-.06-.49.16-.89.41-.92,1.01-.02.35.04.62.46.6.32-.02.61.01.86.22.39.31.87.67.62,1.2-.31.64-.7.03-1.06-.08-.78-.23-1.57-.08-2.36-.12-.63.23-1.51-.84-1.91.24-.34.9-.11,1.81.77,2.42.2.14.37.32.56.47.45.35.56.79.29,1.29-.3.56-.84.49-1.28.31-.96-.39-1.85-.92-2.62-1.63-.43-.4-.75-.99-1.49-.84-.2,2.63-.37,2.81-2.24,2.36-.02-.08-.05-.17-.07-.25.29-.71.83-1.32.42-2.22-.21-.46,1.35-1.8,2.11-1.88.47-.05.98.12,1.4-.24.26-.44-.19-.66-.3-.99-.13-.4-.43-.8,0-1.18.46-.39.92-.25,1.33.1.96.81,1.96.54,2.93.09.66-.3,1.08-.64.58-1.55-.58-1.06-.04-1.63,1.2-1.42.46.07.84-.11,1.25-.2.51-.1.96-.39.92-.97-.04-.56-.57-.54-.99-.59-.18-.02-.37-.03-.47-.23-.22-.43.14-.67.36-.94.47-.59.57-.97-.25-1.41-1.09-.59-.98-1.73.12-2.35.42-.24.64,0,.92.29,1.15,1.2,1.42,1.16,2.37-.23,1.01-1.49,3.12-1.4,3.87.25.56,1.24,1.39,2.44,1.02,3.99-.15.65-.02,1.43.55,2.04-.49.09-.81-.35-1.21-.02-.08.08-.09.19.03.29.32.28.63.58.97.84.42.33.7.35.91-.29.3-.92,1.75-1.79,2.58-1.53,1.01.31,1.5-.03,1.68-1,.06-.33.2-.61.58-.57.53.06.48.52.43.85-.09.64-.52,1.31.33,1.76-.95.5-1.67-.66-2.62-.37-.19.06-.46-.17-.69-.18-.48-.03-.83.22-1,.66-.21.54.18.83.57.98,1.58.61,2.84,1.9,4.61,2.11.24.03.62.12.71.63-1.59.67-3.23.73-4.91.43-.38-.07-.67-.34-.84-.67-.95-1.91-3.02-2.59-4.4-4.02-.33-.34-.7-.46-1.02.11-.2.36-.52.64-.81.99.57.96,1.18,1.9,1.69,2.88.2.38.59.91-.03,1.29-.56.34-1.19.53-1.6-.18-.34-.6-.72-.79-1.34-.49Z"/>
    <path class="cls-8" d="m356.02,44.2c-.63,1.01-.17,1.87.4,2.69.17.25.45.41.66.63.57.57.17,1-.25,1.38-.43.39-1,.16-1.06-.2-.21-1.23-1.26-1.16-2.04-1.46-.53-.2-.95-.55-1.43-.79-.29-.14-.61-.05-.84.18-.24.24-.01.44.11.63.27.4.58.78.83,1.19.6,1,.55,1.79-.13,2.49-.21.22-.39.32-.75.3-1.2-.04-1.56.29-1.39,1.42.12.76-.01,1.13-.59,1.67-.63.59-1.15,1.48-1.33,2.33-.22.99-.67,1.18-1.51,1.08-.4-.05-.71.14-.97.42-.05.05-.09.1-.13.15,0,.14.01.28.01.42-.01.16-.04.3-.09.45-.54.89-1.13,1.77-1.94,2.41-.63.49-1.41.78-2.2.2-.06-.16-.08-.33-.05-.5.32-.86.63-1.73,1.55-2.17.14-.08.28-.14.42-.21.2-.11.4-.23.57-.39.16-.18.31-.36.46-.54.59-1.16.24-2.79-1.06-3.68-1.03-.71-.89-1.06.03-1.64,1.31-.82,1.46-2.48,2.46-3.55,1.13-.93,2.21-.94,3.2.22.32.38.65.55,1.02.03.29-.4.68-.75.07-1.21-.24-.18-.41-.45-.61-.68-.59-.64-1.25-1.27-.77-2.24.53-1.06,1.47-.56,2.28-.54.14-.04.29-.07.43-.1.2-.06.38-.16.52-.32.22-.31.26-.67.32-1.03.07-.56.26-1.04.73-1.42,1.3-1.07,2.23-.76,2.69.9.13.48.39.92.4,1.43Z"/>
    <path class="cls-30" d="m371.09,27.96c-.47.69-1.15,1.18-1.27,2.16-.35,2.92,2.4,3.75,4.82,2.8.21.84.66,1.67-.76,1.86-.54.07-.66.48-.65.95,0,.42.04.85.06,1.36-1.33,0-2.09-.9-2.96-1.59-.28-.23-.6-.66-.92-.51-.68.32-1.41.28-2.09.49-.24.07-.23.38-.22.64,0,.36,0,.74-.08,1.09-.22,1.02-.86,1.29-1.73.76-.16-.09-.37-.2-.42-.35-.44-1.54-2.02-1.52-3.18-2.53-.09,1.51-.66,2.56-1.36,3.62-.56.85-1.11,1.22-2.06,1.1-.49-1.31-.47-2.28,1.23-2.7.97-.24.73-1.58,1.35-2.23.36-.5.68-.99.68-1.66,0-2.32.8-3.39,2.94-2.94,2.24.47,3.62.04,4.58-1.99.17-.36.64-.56,1.02-.77.17-.09.35-.13.53-.13.19.04.34.15.45.31.02.09.04.18.07.27Z"/>
    <path class="cls-94" d="m370.76,27.2c.32-.4.67-.75,1.24-.53.85.33,1.72.63,2.42,1.22.52.44.79,1,.02,1.47-.65.4-.82.91-.38,1.52.41.59-.03,1.04-.19,1.54-.04.14-.24.28-.39.34-.63.23-2.99-1.27-2.99-1.95,0-.47-.04-1.12.47-1.29,1.37-.47.44-1.02.13-1.57,0,0,0,0,0,0,0-.24-.17-.38-.31-.54,0-.07-.01-.14-.02-.21Z"/>
    <path class="cls-8" d="m361.25,35.1c-.41.41-.51.93-.59,1.49-.09.62-.45,1.31-1.14,1.19-1.34-.23-1.28.42-1.07,1.34.05.2-.12.45-.18.68-.67-.4-.93-.15-.8.55.13.7.75,1.29.51,2.09-.09,0-.18.01-.28.02-1.05-.22-1.19-1.74-2.48-1.71-.36,0-.4-.54-.41-.92-.06-2.41,4.03-5.42,6.45-4.74Z"/>
    <path class="cls-93" d="m347.47,60.13l-.57-.47c-.78-.02-1.25-.41-1.41-1.18h0c0-.11.03-.19.1-.24.07-.05.11-.06.13-.05,0,0,0,0,0,0,.96.32,1.76,1.08,2.86,1.06.49,0,1.03.16,1.27-.43.21-.53-.32-.72-.59-1.03-.78-.9-.71-1.55.18-2.31.53-.45.89-.14,1.29.17h0c-.04.38-.65.53-.51.89.23.61.81.33,1.27.32,1.59-.05,2.53,1.01,1.73,2.16-.57.82-1.72,1.15-2.02,2.38-.11.45-1.13.33-1.66-.02-.68-.45-1.74-.26-2.08-1.26Z"/>
    <path class="cls-93" d="m376.62,40.3c0,.36.1.75-.01,1.08-.19.54-.26,1.23-1.11,1.24-.86.01-1.42-.4-1.71-1.13-.23-.56-.3-1.18-.43-1.78-.12-.53.25-.72.61-.99.52-.39,1.16-.58,1.51-1.27.54-1.08.63-1.04,1.45.21h0c0,.18.03.35.05.52h0c.03.29-.24.51-.19.8h0c-.02.44-.15.88-.15,1.32h0Z"/>
    <path class="cls-16" d="m356.02,44.2c-.45-.3-.7-.74-.89-1.23.01-.18.07-.35.17-.51.33-.52-.28-1.58.71-1.63.84-.05.73.96,1.06,1.5.08.4-.39.63-.33,1.03-.24.28-.47.56-.71.85Z"/>
    <path class="cls-30" d="m369.45,24.18c1.15.7,1.19,1.88,1.31,3.03,0,0,0,0,0,0,.04.14.02.23-.06.26-.08.04-.14.04-.17.02h0c-1.56-.7-1.8-1.46-1.07-3.31h0Z"/>
    <path class="cls-8" d="m357.97,42.46c.05.81-.35.57-.76.33.02-.08.05-.15.07-.23.21-.14.45-.1.69-.1h0Z"/>
    <path class="cls-8" d="m356.73,43.35c-.13-.31,0-.57.19-.8.17,0,.26.07.28.24,0,0,0,0,0,0-.16.19-.32.38-.47.56Z"/>
    <path class="cls-2" d="m349.21,5.27c1.15-.41,1.64-1.51,2.42-2.3.42-.04.86.2.82.53-.21,1.67.99,1.97,2.14,2.35.42.14.78.37.97.77.45.91,1.28,1.23,2.18,1.47.88.23,1.79.38,2.45,1.09.44.48.57-.15.86-.24.95.13,1.53.83,2.21,1.38-.91.71-.54,1.85-.25,2.42.84,1.64,2.01,3.11,3.09,4.62.11.16.44.17.67.24-.06.64-.45.75-.99.61-.71-.58-1.35-1.53-2.14-1.67-1.77-.31-2.69-1.41-3.77-2.65-.59-.67-1.39-1.23-1.92-2.22-.78.99-1.67,1.34-2.78,1.08-.22-.05-.51.03-.59.3-.11.33.05.66.31.79,1.38.7,2.16,2.1,3.44,2.93-1.1,1.26-1.73-.44-2.71-.43.54,1.07,1.05,2.15-1.09,2.06.54.68,1.29.88,1.73,1.42.47.58,1,1.21.51,1.95-.46.69-1.14,1.12-2.02.57-.13-.11-.24-.22-.35-.34-.27-.2-.54-.23-.8.02-.15.15-.11.42.06.4,1.76-.21,1.76,1.76,2.89,2.31.82.55,1.68.93,2.69,1,.98.07,1.88.58,1.81,1.65-.06,1.02-1.06,1.18-1.92,1.32-1.29.21-2.33-.54-3.61-.91.42.64.53,1.32.86,1.91.17.31.47.47.75.65.15.11.27.24.38.39.36.87-.04,1.41-.82,1.72-.94.37-1.92.54-2.73-.23-.75-.71-1.46-1.45-2.28-2.08-.49-.38-.62-.93-.41-1.47.28-.7.13-1.44.33-2.14.32-.68-.08-1.08-.54-1.52-.5-.48-1.19-.81-1.42-1.55.33-1.05-.17-1.44-1.12-1.82-1.06-.42-1.25-1.45-.82-2.45.44-1,1.23-1.05,2.13-.39.05-1.05.21-2.01-.47-2.85-.07-.15-.12-.31-.13-.48.14-.48.68-.67.81-1.16.06-.15.15-.29.24-.42.55-.51,1.09-1.03,1.74-1.41.16-.06.33-.09.5-.1.84.09,1.29-.39,1.39-1.12.09-.64-.51-1.01-1-1.15-1.57-.46-2.08-1.34-1.43-2.87.12-.27.15-.61-.11-.85-.15-.13-.35-.11-.51-.02-.4.22-.43.57-.26.94.39.88.16,1.6-.67,2-.85.42-1.36-.23-1.81-.82-.45-.58-1.08-.99-1.48-1.62-.09-.15-.16-.32-.21-.49-.02-.09-.03-.18-.04-.26-.01-.18,0-.36.04-.53.03-.08.07-.16.1-.24.86-.9,1.78-.04,2.67-.1Z"/>
    <path class="cls-18" d="m352.12,26.48c-.44.8.25,1.82-.55,2.58-.2.19-.02.56.3.74.97.55,1.74,1.29,2.39,2.21.46.65,2.58.34,2.99-.37.25-.43,0-.82-.33-1.13,1.49-1.14,3.21-1.03,4.92-.85.72.08,1.41.33,2.06-.2.78-.81,1.76-.61,2.92-.39-.44-1.01-.93-1.87.02-2.71.43-.38-.07-.89-.22-1.33-.25-.75-.33-1.45.68-1.71.63.52,1.63.11,2.17.86.08,1.19-.24,2.52,1.07,3.31-.82.94-1.99,1.58-2.28,2.97-.13.62-1.8,1.03-2.61.49-1.16-.77-2.13-.07-3.15.1-.64.11-1.06.8-.68,1.44.65,1.11.11,1.84-.56,2.61-3.33.89-6.48,2.68-5.95,5.45.86-.22,1.62-.18,1.81.99.05.34.56.61.85.91-.25.11-.5.22-.75.33-.09-.08-.19-.16-.28-.24-.27-.5-.35-1.13-.93-1.57-.51.65-.17,1.56-.86,1.99-.28-.42.43-1.16-.42-1.37-.58-.15-1.82.6-2.03,1.22-.1.28-.07.6-.11.9-1.3-.09-1.8-.97-1.9-2.08-.09-1.03.78-1.26,1.55-1.51,1.9-.12,2.27-.68,1.13-2.14-.94-1.21-1.2-2.79-2.47-3.83-1.07-.88-2.08-1.67-3.53-1.65-1-.55-2.1-.95-2.7-2.02-.49-.63-1.15-1.09-1.65-1.72-1.35-1.67-1.02-2.48,1.16-2.88,1.65.81,3.21,1.7,3.7,3.7.28,1.16,1.21.77,1.33.16.24-1.19,1.53-1.64,1.65-2.87.07-.74.61-1.02,1.28-.41Z"/>
    <path class="cls-2" d="m367.28,23.32c-.49.55-.75,1.09-.17,1.78.59.7,1.12,1.39-.28,1.92-.57.22-.44.85.13,1.11.56.25.81.61.52,1.14-.33.61-.9.6-1.41.23-.79-.56-1.36-.31-1.88.38-.85,0-1.2-.55-1.32-1.26-.38-2.25-1.95-3.11-3.96-3.47-.61-.11-1.23-.14-1.58-.75-.2-.39-.12-.84-.25-1.25-.44-1.38.18-1.94,1.55-1.93.06-.68-1.37-1.06-.53-1.76.69-.57,1.51-.1,2.16.42.14.11.26.25.39.39.55.6,1.14,1.23,2.03.97,1.04-.3.67-1.3.83-2.03.53-.13.71.24.99.58.96,1.15,1.45,2.67,2.77,3.54Z"/>
    <path class="cls-19" d="m363.52,19.2c.63.68.67,1.4.12,2.14-.74.99-2.13.74-3.2-.58q-.81-.99-2.37-1.1c.45.85,1.9,1.13,1.33,2.41-.05.02-.11.07-.16.07-.57-.01-.91-.95-1.62-.42-.74.56,0,1.08.07,1.62.04.33-.09.59-.27.84-.43,0-.59-.3-.75-.63-.23.49.21,1.19-.48,1.53-.32-.28-.83-.51-.91-.85-.26-1.03-.64-1.61-1.84-1.23-.32.1-.7-.23-.81-.6-.14-.49.36-.54.62-.76.33-.28.7-.55,1.12-.55.67,0,.37.41.23.73.71.8,1.39.32,1.86-.19.46-.5-.04-1.02-.39-1.42-.44-.52-1.06-.79-1.68-1.05-.47-.2-.86-.61-.66-1.15.21-.56.72-.24,1.11-.17.18.03.33.15.51.2.19.06.39-.02.45-.19.05-.15.05-.4-.04-.5-.25-.25-.63-.39-.82-.67-.26-.39-.19-.84.22-1.13.34-.25.64-.17.94.17.59.67,1.11,1.53,2.25,1.08h0c.99.55,1.46,2.11,3.01,1.57.47-.13.77.17,1.09.43.32.26.61.56,1.08.43Z"/>
    <path class="cls-22" d="m365.79,18.22c.35-.18.74-.28.99-.61.35.24.66.61,1.05.71.92.23,1.21,1,1.54,1.68.25.51.51,1.35-.04,1.67-.64.37-1.04-.38-1.33-.89-.35-.6-.92-.97-1.41-1.42-.35-.32-.82-.56-.79-1.15Z"/>
    <path class="cls-21" d="m372.86,21.26c.39.41.94.54,1.43.77.8.37.87,1.1.88,1.84,0,.47-.28.8-.71.96-.46.17-.79-.03-1.1-.39-1.17-1.33-1.25-1.79-.49-3.17h0Z"/>
    <path class="cls-2" d="m361.35,18.34c-1.76.54-2.03.42-2.68-1.14-.07-.16-.22-.29-.33-.43.62-.14.96.33,1.35.66.5.42,1,.8,1.67.91Z"/>
    <path class="cls-86" d="m347.47,60.13c.77.49,1.82.25,2.5,1.03.14.16.58.12.88.08.41-.05.72-.24.43-.72-.15-.26-.39-.48-.5-.76-.12-.29-.06-.61.2-.84.3-.26.6-.15.79.1.28.36.62.79,1,.3.38-.48.37-1.18.11-1.74-.19-.42-.62-.63-1.07-.3-.53.39-1.02.19-1.56.04-.4-.11-.87.03-.85-.63.02-.54.11-.99.79-.98.18,0,.36-.04.54-.06.39.34.79.12,1.21.06.66-.1.77-.47.65-1.03-.14-.63-.58-1.23-.11-2.07.82.53,1.9.32,2.49,1.59.33.72,1.57,1.03,2.42,1.48.25.13.61.21.78-.17.13-.29.15-.61-.08-.85-.29-.31-.61-.61-.95-.85-.65-.46-.93-1.02-.9-1.85.02-.54-.23-1.06.45-1.39.58-.28,1.05-.18,1.49.25.17.17.37.31.56.47.41.34.53.77.37,1.28-.62-.04-1.39-.68-1.8.15-.34.68.44,1.02.84,1.46.73.81,1.39,1.68,2.72,1.28.43-.13.84.14.98.63.12.42-.06.73-.45.88-.9.35-.99,1.44-1.89,1.89-.7.36-.3,1.26.14,1.76.55.64,1.17,1.25,2.02,1.53.32.11.57.33.48.66-.14.51-.58.34-.9.24-.52-.15-1.01-.37-1.5-.55-.25.19-.17.46-.24.68-.34,1.04-1.01,1.24-1.46.35-.6-1.18-1.89-1.44-2.65-2.42-.53-.69-1.72-.26-2.59-.49-.35-.09-.4.37-.51.64-.35.18-.74.28-.99.61-.1.79-.74.84-1.3.94-.1,1.01,1.55,1.61.58,2.79-.08.09-.16.19-.24.28-.08-.16-.11-.43-.23-.48-1.65-.62-1.72-2.49-2.8-3.55-.63-.62-.3-1.2.18-1.74Z"/>
    <path class="cls-86" d="m354.81,66.29c-.44-.46-1.09-.73-1.4-1.39,2.19-.01,3.19.93,2.82,2.57-.47-.39-.94-.79-1.41-1.18Z"/>
    <path class="cls-86" d="m357.07,68.19c.08-.09.16-.19.24-.28.11.26.03.35-.24.28Z"/>
    <path class="cls-86" d="m357.31,67.9c-.11-.25-.03-.35.24-.28-.08.09-.16.19-.24.28Z"/>
    <path class="cls-85" d="m350.57,65.61c.1-.37.13-.82-.17-1.03-.95-.65-.73-1.83-1.39-2.66.84.21,1.58.78,2.28-.04.39.54,1.52.69.94,1.75.02.17.17.33.05.52-.34.89.46,1.23,1,1.72-1.12.89-1.93.47-2.7-.26Z"/>
    <path class="cls-86" d="m352.27,64.16l-.05-.52q.39.37.05.52Z"/>
    <path class="cls-30" d="m361.05,8.95c.02.18.02.36.06.54.08.35.31.77-.14.96-.44.18-.6-.26-.78-.56-.4-.66-.94-1.04-1.75-1.14-.71-.09-1.4-.37-2.09-.6-.23-.07-.57-.18-.62-.34-.44-1.62-1.97-1.67-3.14-2.24-.52-.26-.96-.49-.51-1.21.36-.57.05-1.04-.46-1.39,0,0,0,0,0,0,.35-1.2,1.18-.34,1.79-.42.44.05.88.1,1.32.15.54.46,1.16.24,1.76.25,1.44.02,1.9.69,1.17,1.94-.44.74-.06,1.08.27,1.59.35.54.53,1.07,1.34.49.37-.26.83.14.93.61.12.57.34,1.04.83,1.37Z"/>
    <path class="cls-87" d="m345.49,58.47l1.41,1.18q-1.17,1.62.14,3c.71.75.93,1.61.79,2.82-.65-.65-1.37-1.07-1.6-1.67-.33-.89-1.03-1.03-1.7-1.34-.02-.24,0-.47.04-.7-.05.23-.07.46-.04.7-.32.95-.77,1.3-1.77.65-.56-.37-1.39-.3-1.92-.85,0-.07,0-.14,0-.22.06-.13.15-.24.27-.32.07,0,.14-.02.21-.03,1.23.13,2.22-.07,2.79-1.42.28-.66,1.12-1.05,1.37-1.82Z"/>
    <path class="cls-88" d="m340.85,62.28c-.31.22-.92.25-.6.87.21.4.91.56.67,1.16-.21.54-.85.62-1.29.94-.08.06-.23.03-.35.04,0-.09,0-.18-.01-.27.44-.56.2-1.09,0-1.68-.33-.95-.13-1.68,1.1-1.68.27.11.45.3.48.6h0Z"/>
    <path class="cls-88" d="m339.28,65.3c-.17.02-.35.03-.52.05,0,0,0,0,0,0,.15-.33.32-.35.52-.05h0Z"/>
    <path class="cls-48" d="m316.09,27.54c.73-.14,1.05.5,1.55.81.19.12.39.35.62.15.25-.22.3-.57.12-.83-.23-.35-.59-.61-.82-.97-.38-.6-.85-1.17-.16-1.94.47-.53.07-1.44.63-2.03.08-.09.04-.44-.05-.5-1.47-.94-.3-1.4.35-1.94.58-1.25,1.55-.79,2.21-.28.75.58,1.67,1.17,2.05,2.02.86,1.96,2.24,2.28,4.08,1.69.17.06.33.16.46.28.58.61.81,1.39,1.01,2.17.11.38.4.58.73.77.6.35,1.56.67.91,1.57-.52.71-1.34.76-2.3.39-1.89-.74-3.15-2.34-4.87-3.28-.14-.08-.24-.26-.51-.09.51.9,1.09,1.77,2.06,2.22,1.24.58,1.47,1.49,1.08,2.69-.07,1.16-.56,1.55-1.62.88-.14-.09-.26-.4-.32-.36-2.2,1.34-1.91-.7-2.37-1.73.2-.66.86-.61,1.49-.93-1.07-.63-2.24-.8-3.5-1.63.89.91,1.16,1.65.72,2.53-.16.32-.33.64-.17,1.05.38,1,.38,1.85-.96,2.03-1.24.16-2.4-.72-2.51-1.87-.04-.42.18-.83.1-1.21-.54-.34-1.59.94-1.61-.61.38-.59.98-.82,1.6-1.02Z"/>
    <path class="cls-83" d="m326.77,23.99c-.29.07-.6.09-.86.21-1.48.68-2.6.42-3.17-1.02-.34-.86-.82-1.45-1.58-1.87-.21-.12-.42-.21-.51-.47-.5-1.29-1.39-.98-2.32-.57-.09-.08-.19-.16-.28-.24.08-.09.16-.19.23-.28-.03-.17,0-.35-.04-.52.2-1.03,1.18-.88,1.85-1.2q1.14-.55,1.42.56c.16.65,1.79,1.67,2.42,1.49.4-.11.42-.43.18-.7-.84-.95-.06-1.14.62-1.23.53-.07,1.1.1,1.5-.41.62.66.07.93-.4,1.23-.13.06-.27.11-.4.18-.17.19-.14.4-.11.63.09,1-.23,2.24,1.4,2.29,1.36.18,2.69.22,3.69-.96.14.11.25.24.32.4.03.08.06.16.1.24.06.17.11.34.15.51.1.55.13,1.07-.37,1.47-.39.24-.82.27-1.26.29-.86,0-1.71-.63-2.58-.04Z"/>
    <path class="cls-49" d="m313.06,40.89c-.21-.4-.05-.84-.11-1.25-.27-1.89-.29-1.88,1.4-2.76-1.62-1.24-1.45-2.84-.86-4.48.21-.59.22-1.05-.24-1.48-.01-.17-.03-.34-.04-.51h0c0-.14.04-.24.12-.32.08-.08.14-.11.15-.09,1.55.69,2.16,2,1.35,3.24-.71,1.09-.52,1.87.34,2.74.68.69,1.39,1.39,1.9,2.24.24.41.56.88.15,1.35-.37.42-.81.15-1.17-.06-.4-.23-.7-.04-1.02.13-.64.3-1,.99-1.69,1.24-.09,0-.18,0-.27.01Z"/>
    <path class="cls-82" d="m313.44,30.13c-.08.09-.16.19-.24.28-.26-1.4.58-2.38,1.38-3.3.65-.75.9.6,1.5.43-.38.52-.83.97-1.47,1.18-.52.37-.29,1.35-1.18,1.41Z"/>
    <path class="cls-49" d="m313.96,42.12c-.38-.32-.75-.63-1.13-.95.08-.09.15-.19.23-.28,0,0,.01,0,.01,0,.68.13,1.31.3.89,1.23Z"/>
    <path class="cls-82" d="m313.2,30.41c.01.17.03.34.04.51-.01-.17-.03-.34-.04-.51Z"/>
    <path class="cls-59" d="m334.43,60.75c-.8.99-1.77,1-2.83.51-.07-.04-.14-.08-.21-.13-.77-.85-1.8-.88-2.83-.9-.16-.04-.3-.11-.44-.21-.5-.61-.86-1.37-1.75-1.54-1.56-.66-2.2-2.14-3.08-3.41-.16-.56-.27-1.12.29-1.54.41.01.61.38.91.56.79.46,1.68.22,2.13-.36.44-.57-.32-1.06-.76-1.47-.58-.54-1.25-.99-1.77-1.59-.73-.84-.79-1.78-.22-2.71.57-.93,1.33-.65,2.07-.22.64.37.84.15.91-.53.14-1.24.98-1.08,1.5-.45.72.87,2.44,1.38,1.47,3.08-.48.18-.78-.24-1.17-.36.27.28.61.38.98.42,1.36.82,3.21,1.17,3.02,3.42-.07.91.66.3,1.04.35.54.14.91.43.96,1.02-.04.17-.12.3-.34.27.16.12.28-.08.44-.06,1.26-.64,1.38-1.49.31-2.18-.39-.25-1.01-.06-1.24-.64.46-.92-.32-2.05.51-2.9.17-.03.35-.02.52.03.22.1.5.22.57.44.76,2.39,2.77,3.11,4.89,3.66.69.18.8.67.9,1.22.19,1.09-.17,2.16-.05,3.28.09.83-.75.84-1.36.61-.91-.34-1.2-1.13-1.31-2.03-.05-.45-.26-.82-.78-.87-.26-.03-.5.08-.61.31-.26.51.1.83.45,1.05,1.33.84.99,2.08.86,3.28-.67.65-.92.08-1.15-.43-.18-.38-.17-.82-.39-1.2-.24-.42-.62-.64-1.05-.45-.51.23-.11.59-.02.9.17.55.67,1.05.23,1.68-.17.03-.34.03-.5-.03-1.28-.79-1.84-2.37-3.48-3.16.14.75.69.87.91,1.23.33.43.26,1.12.89,1.36.15.07.28.16.39.27.04.07.09.13.13.2,0,.08.02.16.03.24Z"/>
    <path class="cls-23" d="m336,60.61c-.26-.66-.37-1.48-.83-1.95-.76-.77-.14-.96.34-1.12,1.18-.4,1.75.03,2.04,1.3.11.49-.32,1.36.75,1.31,1.1.4,2.53-.07,3.25,1.28-.08.1-.16.19-.24.29,0,0,0,0,0,0-.34.09-.69.15-1.04.09-.95.28-.98.97-.68,1.7.29.7.2,1.27-.33,1.79-.17.02-.35.03-.52.05-1.61.24-1.67.35-1.47,2.59-.89-.07-1.55-.63-2.3-.94.11-.14.29-.27.33-.43.42-1.54,1.52-1.91,2.95-1.84.36.02.97.14.98-.52,0-.51-.39-.77-.87-.75-.77.02-.9-.34-.85-1.03.04-.55-.26-.94-.92-.81-.08,0-.16,0-.24,0-.42-.22-.55-.55-.37-.99Z"/>
    <path class="cls-27" d="m330.89,62.1c-1.42-.01-2.79-.05-3.71-1.44-.61-.91-1.46-.05-2.19-.14-.65-.18-1.12-.58-1.41-1.18h0c.57-1.8,1.88-1.14,3.06-.93.88.18.91,1.29,1.71,1.56h0c.95.76,2.61-.27,3.25,1.28h0c-.06.43-.3.71-.71.85Z"/>
    <path class="cls-29" d="m332.98,59.04c-.39-.43-.98-.5-1.43-.8-.34-.22-.45-.6-.26-.97.15-.31.49-.35.8-.29.54.1,1.04.22,1.42.73.69.93,1.47,1.78,2.22,2.66.19.49.1,1.17.89,1.23,0,0,0,0,0,0,.5.6.4,1.04-.41,1.04-1.21,0-1.57-.9-1.77-1.9,0,0,0,0,0,0,0-.18-.09-.26-.28-.24-.1-.08-.19-.16-.29-.24-.79-.05-.67-.77-.89-1.23Z"/>
    <path class="cls-78" d="m330.46,21.3c-.53,0-.75.22-.69.78.11,1.05-.06,1.23-.87.73-.76-.48-1.54-.17-2.27-.38,1.05-1.82.96-2.05-1.36-3.55.46-.26,1.15-.32.94-1.13-.13-.41.18-.67.3-1,.37-1.02.03-1.53-1.11-1.83-.28-.07-.52-.29-.77-.44.11-.37.14-.78.42-1.08.52-.37,1.03-.03,1.57.04-.55-.72-1.18-1.39-.75-2.4.44-.37.87-.77,1.41-.14.05,1.1.63,1.72,1.65,2.13,1.31.52,2.39,1.41,3.2,2.6.14.5.15,1.23-.45,1.12-1.17-.22-2.66.21-3.11-.75.71.78,1.31,2.29,2.24,3.61.48.68.72,1.32-.35,1.69Z"/>
    <path class="cls-84" d="m319.24,15.75c.13-.32.21-.66.39-.94.16-.26.49-.37.76-.21.29.17.21.5.13.78-.34.41-.68.83-1.28.37Z"/>
    <path class="cls-84" d="m320.84,16.47c-.1.05-.2.1-.3.15-.05-.1-.16-.22-.13-.29.03-.07.18-.11.28-.16.05.1.1.2.15.3Z"/>
    <path class="cls-63" d="m318.24,19.24c.01.17.03.34.04.52-.01-.17-.03-.34-.04-.52Z"/>
    <path class="cls-54" d="m336.55,7.16c.2.6.64.69,1.17.52.41-.13.8-.31,1.19-.47.26-.2.54-.25.86-.19.43.11.7.43,1.01.73,1.35,1.32,2.39,1.4,4.01.38,1.89-1.19,2.07-1.18,3.54.37.59.62,1.01,1.04,2.14.71,1.13-.33,2.47.38,3.4,1.23.8.73-.07,1.83-1.66,2.14h0c-.59.64-1.64.77-1.94,1.73h0c.13.76-.9.53-.95,1.13h0c-.02.2-.13.31-.32.33-.8-1.2-.14-3.2,1.28-3.83.31-.14.77.03.93-.64-1.27-.28-2.36-.97-3.47-1.66-.34-.21-1.46-1.01-1.26.59.06.51-.48.77-.91.64-1.41-.42-2.44.51-3.63.9-.38.26-.79.48-1.24.59-.29.06-.57.04-.85-.03-2.43-.46-3.9-2.39-3.71-4.91.01-.18.23-.26.42-.3h0Z"/>
    <path class="cls-36" d="m339.43,7.17c-.17.01-.35.03-.52.04-.04-1.64.86-2.32,2.4-1.9,1.34.37,2.66.34,3.66-.78.54-.6,1.02-1,1.85-.58.17.09.46-.07.7-.11.37.09.69.21.73.68.03.39.4.4.68.5.09.08.19.16.28.24-.84.41-1.77-.29-2.6.23-.4.16-.53.63-.74.82-.99.89-1.34,2.51-2.67,2.84-.75.19-1.83-.21-2.3-1.14-.33-.65-.82-.84-1.48-.84Z"/>
    <path class="cls-75" d="m313.96,42.12c.05-.66-.54-.86-.89-1.23.56-.5.77-1.39,1.7-1.46.01.09.03.17.04.26-.42,1.61.53,2.86,1.53,3.67,1.08.87,1.55,1.96,2.14,3.06.15.27.25.74.04.86-1.64.93-.62,2.22-.52,3.38.03.17.03.35,0,.52-.06.17-.17.3-.32.39-.19-.02-.3-.12-.32-.31-.41-.8-.79-1.62-1.22-2.41-.67-1.22.18-2.05.75-2.9-.11-.18-.15-.32-.24-.36-.61-.27-1.32.12-1.92-.39-.65-.56-.24-1.25-.35-1.87-.07-.41-.29-.8-.44-1.19Z"/>
    <path class="cls-26" d="m317.38,51.24c.1.08.19.16.29.24.34-.05.6.1.83.33.24.3.53.53.93.6.43.1.78.32,1.07.65.37.5.96.73,1.4,1.13.44.41,1,.87.04,1.35-.94-.38-1.97-.21-2.92-.5.21-.8.53-1.54-.61-2.05-.6-.27-.91-1.04-1.04-1.76Z"/>
    <path class="cls-73" d="m321.94,55.54c.36-.53.19-.88-.37-1.08-.68-.25-1.33-.51-1.42-1.36.02-.47-.74-.58-.54-1.14,2.12-.12,2.93,1.48,3.84,2.94.71.43,1.1,1.15,1.51,1.81.49.77,1.11,1.25,1.92,1.56.05.14.02.24-.06.27-.09.04-.14.04-.18.01-1.06.11-2.28-.38-3.07.79-.25-.77-.87-1.22-1.46-1.7h0c0-.18-.02-.35-.04-.52.1-.54.4-1.09-.14-1.57Z"/>
    <path class="cls-73" d="m323.58,59.34c.47.39.94.79,1.41,1.18-.82.02-1.29-.38-1.41-1.18Z"/>
    <path class="cls-32" d="m322.08,57.12c.01.17.03.34.04.52-.01-.17-.03-.34-.04-.52Z"/>
    <path class="cls-37" d="m336.55,7.16c-.11.21-.31.5-.13.66.79.73,1.13,1.5.88,2.65-.17.78.4,1.39,1.35,1.16.61-.15,1.05.08,1.47.47-.04,1.12-.84,1.36-1.73,1.48-.97-.26-1.95-.52-2.84.25-.67-.23-1.04-.69-1.05-1.41.08-.51.52-.82.7-1.27.5-1.26.09-1.78-1.28-1.56-1.27.21-2.15-.16-2.51-1.46.52-1.24,1.36-1.98,2.8-1.88.94.06,1.58-.53,2.17-1.16.49.37.79.78.3,1.37-.17.2-.18.45-.13.7Z"/>
    <path class="cls-10" d="m325.92,11.24c.06,1.05.95,1.69,1.52,2.59-1.04.35-1.64-.36-2.38-.42h0c-.04-.34-.22-.49-.56-.48-.28-.24-.57-.48-.85-.71.24-.28.47-.56.71-.85.43-1.06.97-.93,1.56-.13Z"/>
    <path class="cls-78" d="m324.5,12.93c.43-.13.61.03.56.47-.19-.16-.37-.32-.56-.47Z"/>
    <path class="cls-2" d="m353.43,2.55c-.54.39-1.31-.21-1.79.42.37-1.33.53-1.36,1.79-.42Z"/>
    <path class="cls-40" d="m331.4,8.14c.33.27.66.55.98.82.46.39.9.46,1.5.21,1.72-.71,2.21-.3,1.98,1.5-.1.78-.38,1.42-1.22,1.63-1,.27-1.6-.33-2.17-.99-.47-.55-.92-1.13-1.77-1.35-.42.75.48,1.58-.15,2.25-.92.63-.25,1.05.19,1.52.59.62,1.55.96,1.52,2.04-.07.05-.13.11-.2.16-1.35-1.01-2.42-2.37-4.22-2.77-1.06-.24-1.21-1.12-.67-2.3-.08-.6.23-1.02.67-1.37,1.05-.51,2.26-.77,2.98-1.83.19.16.37.31.56.47Z"/>
    <path class="cls-80" d="m327.86,9.49c.16.65-.38.95-.67,1.37-.48-.07-.86.22-1.28.38-.54-.15-1.1-.57-1.56.13-.23-.2-.39-.43-.32-.75,1.25-.19,2.18-.89,2.98-1.82.28.23.56.46.85.69Z"/>
    <path class="cls-87" d="m367.51,41.48c.26.25.21.63.23.99.02.42-.44.78-.18,1.22.25.43.32.8-.25,1-.6.22-1.21.8-1.84.19-.6-.59-1.21-1.23-1.59-1.96-.34-.65.36-1.09.79-1.47.43-.39,2.4-.33,2.84.04Z"/>
    <path class="cls-95" d="m365.82,49.55c-.29.32-.74.31-1.14.22-.55-.12-1-.45-1.17-1.03-.05-.16,0-.36.03-.54.11-.55-.39-1.3.41-1.6.67-.25.91.34,1.23.8.73,1.05.97,1.69.64,2.15Z"/>
    <path class="cls-51" d="m341.56,61.43c-.28-.21-.57-.56-.93-.42-1.06.41-1.65-.31-2.33-.86-.07-.36-.23-.72-.21-1.07.06-.91-.05-1.61-1.07-1.99-.57-.21-.95-.8-.59-1.51.32-.64.92-.81,1.55-.71.68.11,1.03.53,1.08,1.26.14,1.78.23,1.85,1.96,1.97-.56-.74-.63-1.42-.26-2.2.19-.4.05-.96.04-1.44-.02-.66-.22-1.16-.98-.67-.49.32-.74.19-1.01-.27-.36-.6-.89-.96-1.64-1.02-.97-.08-1.56-.66-1.64-1.65-.05-.6-.31-1.04-.78-1.38.44-.67,1.09-.24,1.64-.31.23.07-.06-.05.18.03q2.28.78,3.57-1.05c.67.06,1.08.67,1.83.68,1.61.02,1.87.64,1,2-.19.3-.53.51-.56.91,1.78-1.45,1.74-2.16-.2-3.44-.76-.51-1.46-1.1-1.52-2.13,1.3-1.22,1.71.4,2.45.7-.08-.12.1.19.05.12-1-1.57-1.14-2.59,1.25-2.66,2.72-.08,3.63,2.12,5.02,3.73.25.29.15.7-.15,1-.32.31-.69.31-.97,0-.9-.99-1.62-.31-2.36.21-.34.71-.69,1.42-1.03,2.13-.46.96-1.07,1.75-2.61,2.18,1.41.23,2.42.5,2.11,1.87-.01.05.04.11.06.16.21.49,1.13.28,1.02,1.1-.1.79-.65,1.29-1.1,1.85-.76-.31-1.5-.35-2.21.2.38.24.97-.16,1.22.41-1.01.43-1.33,1.45-1.9,2.26Z"/>
    <path class="cls-34" d="m346,49.26c.66-.96,1.4-1.36,2.41-.43.24.22.58.23.79-.1.22-.33.05-.66-.22-.78-.9-.42-1.3-1.23-1.69-2.03-.28-.57-.71-.81-1.28-.89-.6-.09-1.21-.16-1.81-.26-.42-.07-.9-.26-1.16.22-.25.46-.14.97.17,1.39.29.41.73.64,1.17.87.23.13.3.38.15.63-.16.27-.42.23-.62.07-.63-.49-1.24-1-1.85-1.51-.41-.35-.81-.57-1.28-.12-.25.02-.59,0-.64-.21-.35-1.64-1.63-2.93-1.75-4.65.66-.53,1.22-1.02,1.51-1.97.32-1.08,1.18-2.06,2.67-1.45.22.09-.05-.03.17.07.77.32,1.83-.65,2.35.36.51.99-.65,1.43-1.03,2.14-.33.61-.17,1.07.59,1.17.24.03.49.08.73.06,2.71-.27,4.46,1.45,6.27,3.03-.44.48-.93.52-1.49.23-.42-.22-.88-.25-1.11.23-.22.45-.32,1,.19,1.33.69.44.92,1.28,1.64,1.7.34.2.64.68-.19.81-.36.06-.3.49-.42.76-.42,1-.66,1.05-1.3.29q-1.29-1.53-2.96-.93Z"/>
    <path class="cls-74" d="m351.63,44.84c-.58-.51-1.43-.18-2.05-.7-.44-.37-1.16-.39-.8-1.31.15-.37-.32-.73-.7-.48-.91.58-1.71.48-2.56-.1-.18-.12-.48-.07-.72-.07-1.41.02-1.48-.06-1.51-1.38-.01-.47,0-.86.59-.94.31-.04.56-.22.76-.48.19-.25.35-.53.2-.84-.18-.38-.51-.22-.79-.12-.51.17-.99.58-1.55.17-.46-.34-.95-.71-1.41-.07-.44.6-1.33,1-1,2,.09.29.18.58.27.87-.61.57-1.29-.66-1.83.14-.72-1.2.51-1.68.9-2.47.1-.15.27-.33.23-.48-.72-2.65,1.29-2.82,2.97-3.27,1.74-.47,2.75.96,4.07,1.59.1.15.16.31.19.48-.51.71-.43,1.33.3,1.84.54.39,1.16.92,1.77.31,1.16-1.16,2.19-.49,3.26.08.21.19.35.41.35.69-2.01,1.08-2.05,1.52-.24,3.16.09.08.19.16.28.24-.11.37-.14.78-.43,1.08-.17,0-.35.02-.52.05h0Z"/>
    <path class="cls-5" d="m343.46,59.17c-.52-.18-.93.07-1.35.32-.22.13-.47.06-.63-.16-.21-.28-.19-.71,0-.83.62-.35,1.29-.66,1.98-.81.57-.13.81.4.99.87-.16.19-.32.38-.47.56-.17,0-.35.02-.52.05h0Z"/>
    <path class="cls-34" d="m351.63,44.84c.17-.02.35-.03.52-.05-.17.02-.35.03-.52.05Z"/>
    <path class="cls-51" d="m343.46,59.17c.17-.02.34-.03.52-.05-.17.02-.34.03-.52.05Z"/>
    <path class="cls-87" d="m345.73,58.19c-.08.09-.16.19-.23.28-.08-.13-.06-.24.06-.29.05-.02.12,0,.18,0Z"/>
    <path class="cls-87" d="m370.53,27.49c.08-.09.16-.19.23-.28.23.2.39.43.32.75l-.56-.47Z"/>
    <path class="cls-56" d="m352.12,26.48q-1.05.14-.73,1.65c-.45.37-1.91-.16-1.17,1.33.15.29-1.6,1.64-2.02,1.61-.41-.03-.82-.28-.77-.64.26-2.08-1.49-2.75-2.63-3.84-.18-.17-.37-.32-.56-.48-.07-.61-.26-1.17-.7-1.63-.18-.29-.28-.6-.3-.94.04-.59.2-1.2.93-1.05.9.18,1.73.6,2.18,1.49.3.58.26,1.25.46,1.97-.14-1.99,1.74-1.81,2.62-2.67.19-.01.31.07.35.26,1.03.29,1.5,1.35,2.46,1.79.38.17.17.78-.11,1.15Z"/>
    <path class="cls-62" d="m356.18,25.08c.24-.83-.18-1.65-.12-2.5,1.32-.11.77,1.2,1.35,1.6.29.23.59.59.95.5,1.51-.4,2.55.67,3.72,1.2.91.42,1.13,1.57,1.22,2.5.07.73.43,1.09.9,1.49-.53.57-1.26.68-1.85.37-1.5-.79-2.9.13-4.35.11-.35,0-.71.1-1.07.16h0c-.29.03-.51-.25-.8-.19-.63-1.06-.65-2.46-1.73-3.43.96.34,1.99.55,2.85,1.06.78.46,1.53.34,2.29.28.5-.04,1.26-.24,1.22-.88-.04-.71-.74-1.29-1.39-1.18-1.32.22-2.17-.57-3.17-1.09Z"/>
    <path class="cls-31" d="m339.43,7.17c.85-.26,1.57-.14,1.88.79.28.81,1.02.84,1.62.93.73.12,1.26-.7.95-1.34-.13-.27-.4-.52-.15-.81.43-.5.55.23.85.25.3.02.6.02,1.05.03-.07-.65-.78-1.27-.13-1.83.45-.39.77.06,1.1.29h0c0,.17.03.35.05.52h0c0,.17.04.35.05.52.72.65,1.55,1.17,2.04,2.07.24.45.7.76,1.21.31.43-.38.78-.82.21-1.39-.34-.34-.86-.74-.27-1.18.5-.38,1-.96,1.77-.78.24.06.44.22.48.49.02.18,0,.36-.01.54q-.06,2.19,1.59,3.42c1.01.75,1.06.92.53,1.88q-.66,1.19-2.03.7c.17-.08.35-.14.49-.24.55-.39,1.2-.82,1.09-1.55-.1-.71-.88-.76-1.46-.89-.76-.17-1.49-.98-2.32-.11-.17.18-.47.02-.67-.12-.2-.14-.38-.31-.58-.45-.74-.52-1.28-1.58-2.19-1.51-.75.06-1.51.72-2.16,1.25-.75.61-1.34.55-2.27.28-1.27-.37-1.8-1.44-2.73-2.1Z"/>
    <path class="cls-61" d="m349.77,23.55c-.1-.08-.19-.16-.29-.24-.58-1.06-1.95-.64-2.69-1.41-.1-.13-.18-.27-.22-.43-.04-.32,0-.65,0-.97,0-.16,0-.32,0-.48,0-.25.05-.49.15-.72.11-.23.27-.42.46-.59.98-.76,2.23-1.34,1.89-2.95.08-.09.16-.19.24-.28.77.52,1.22,1.19,1.01,2.16-.1.43-.1.84.17,1.22.18.26.31.56-.09.75-.3.14-.59.04-.85-.14-.34-.23-.37-1.07-1.06-.61-.4.27-.75.66-.55,1.23.19.53.04,1.31.96,1.31.12,0,.25,0,.36.03,1.23.43,1.34.87.51,2.12Z"/>
    <path class="cls-61" d="m350.27,14.34c-.15-.39-.32-.99.2-1.01.73-.02,1.04-.8,1.74-.73-.5.74-1.22,1.24-1.94,1.74Z"/>
    <path class="cls-61" d="m349.32,15.47c-.19-.8.73-.66.95-1.12.55,1.1-.52.84-.95,1.12Z"/>
    <path class="cls-56" d="m353.48,24.61c-.1.05-.2.1-.3.15-.05-.1-.16-.22-.13-.29.03-.08.18-.11.28-.16.05.1.1.2.15.3Z"/>
    <path class="cls-18" d="m356.12,30.32c.31-.12.56,0,.8.19-.31.13-.56,0-.8-.19Z"/>
    <path class="cls-36" d="m346.66,6.02c-.02-.17-.03-.35-.05-.52.02.17.03.35.05.52Z"/>
    <path class="cls-36" d="m346.71,6.54c-.02-.17-.03-.35-.05-.52.02.17.03.35.05.52Z"/>
    <path class="cls-55" d="m352.54,40.31l-.56-.47c-1.12-1.04-2.13-2.31-3.97-1.75-.6.18-1.09.05-1.22-.67-.09-.08-.19-.16-.28-.24.36-1.06,2.25-1.19,1.71-2.81-.03-.23-.06-.47-.09-.7-.07-.39-.34-.7-.46-1.07,0-.08,0-.16,0-.24.3-.03.66.03.89-.11.65-.41.9-.1,1.31.4.53.65,1.26,1.16,1.9,1.72.46.4.98.74.84,1.5-.16.91.93,1.06,1.22,1.84.19.53.69.93.52,1.65-.09.39.04.83.08,1.28-.72.43-1.24-.33-1.88-.32Z"/>
    <path class="cls-11" d="m343.82,24.33c.62.49,1.26.97.42,1.79-.29.08-.59.13-.86.25-.94.43-.9.72-.42,1.6.53.98,1.72,1.25,2.16,2.26-.7,1.73-1.04,1.89-2.35.7-.74-.67-1.9-.07-2.42-1.04-.08-.16-.09-.33-.05-.5.3-.44.1-.75-.21-1.1-.46-.52-.22-1.01,0-1.63.58-1.62,1.2-2.89,3.27-2.07.08.03.27-.21.45-.27Z"/>
    <path class="cls-55" d="m340.35,29.6c.28.22.61.62.91.49,1.14-.52,1.78-.26,2.09.99.08.31.6.39.92.09.3-.29.56-.62.84-.93.21.43.35.93.9,1.05.68.16,1.13.67,1.64,1.08,0,0,0,0,0,0-.35.61-.86.28-1.27.15-1.12-.35-1.99-.22-2.97.6-1.27,1.07-2.18.06-2.93-.98.5-1.05-.86-1.76-.51-2.78.19-.03.32.04.37.24Z"/>
    <path class="cls-62" d="m354.59,21.81c-.14.11-.26.26-.42.32-.15.06-.47.08-.49.03-.15-.35.16-.38.38-.41.17-.02.35.03.53.05h0Z"/>
    <path class="cls-90" d="m344.5,62.51c-.15-.27-.25-.38-.25-.49-.02-.36-.04-.75.38-.92.09-.03.28.02.33.09.22.37.05.7-.19.99-.08.1-.16.19-.27.32Z"/>
    <path class="cls-8" d="m340.29,61.8c.33-.18.68-.21,1.04-.09-.16.19-.32.37-.48.56-.19-.16-.38-.31-.56-.47Z"/>
    <path class="cls-75" d="m313.44,30.13c.58-.32.27-1.37,1.18-1.41.1.5.42.32.69.2.44-.2.57-.83,1.2-.83.58.53.22,1.15.02,1.67-.26.67-.22,1.29.36,1.62.61.35,1.31.74,2.09.42.43-.18.47-.53.32-.91-.18-.44-.75-.9-.39-1.33,1.05-1.26.31-2.19-.55-3.1,1.45-.16,2.46.87,3.75.96.45.03.84.49,1.1.92.09.14.14.37.09.52-.09.26-.38.35-.6.22-.63-.35-1.18-.15-1.74.14-.04.07-.08.14-.12.22-.5,1.37.28,2.64.29,3.97,1.45-.4,2.43.22,3.14,1.43.1.13.18.28.25.43.09.23.14.47.18.71.04.23.08.47.14.7.2.92,1.33,1.16,1.52,2.09.09.72,0,1.39-.78,1.65-1.03.34-1.24-.76-2.04-1.25-.03,1.01.38,1.63,1.17,1.86,1.32.38,1.79,1.36,2.06,2.55-.03.18-.12.32-.25.44-.45.28-1.94.12-.51,1.19.25.19.51.4.56.69.11.69.9,1.42.35,2.03-.74.81-1.22-.3-1.84-.53-.63-.24-1.16-.67-1.8-.87-.71-.39-1.99,0-1.95-1.44.01-.36-.33-.25-.55-.26-.25-.01-.47-.09-.71-.16-1.23-.35-.13-2.62-2.33-2.51-1.19.06-2.19-1.54-2.95-2.72h0c.7-1.27,1.45-.73,2.25.24-.36-1.74-1.49-2.61-2.4-3.6-.75-.81-1.16-2.11-.42-2.77.79-.71.76-1.24.17-1.97-.32-.39-.15-1.16-.93-1.21Z"/>
    <path class="cls-67" d="m330.41,23.66c.34-.41.39-.85.15-1.32,0-.17-.03-.35-.05-.52h0c.2-.86.89-1.15,1.61-1.42.17-.04.34-.06.51-.07.18,0,.35.03.51.08.16.08.29.18.4.32.03.08.07.16.1.23-.02.08-.03.16-.05.25-.43.63-1.22,1.09-.98,2.04,1.09,1.6,1.58,1.57,2.78.26.9-.98,1.71-2.37,3.46-1.97.81,1.89-.48,2.43-1.86,2.9.04.15.07.3.11.46.02.46.37,1.2-.23,1.28-2.55.34-.77,1.44-.46,2.28.03.18,0,.35-.08.51-.06.07-.12.13-.18.2-.15.1-.32.12-.5.09-1.24-1.15-2.26-.27-3.19.44-1.44,1.1-4.77,1.58-5.96.72.21-.66.76-.92,1.33-1.16,1.1-.06,1.9-.76,2.75-1.3-.11-.23-.35-.22-.53-.3-.69-.61-1.91-.35-2.31-1.42-.24-.68-.47-1.35-.71-2.03.08-.03.16-.05.25-.08,1.59.41,2.61,1.99,4.36,2.07.23.01.44.21.69.09-2.27-.55-2.51-.87-1.94-2.64Z"/>
    <path class="cls-41" d="m327.76,26.26c.78.72,1.88.77,2.73,1.33.29-.05.57,0,.8.19.07.25.03.55-.22.59-.9.18-1.67.59-2.38,1.15-.21.16-.45-.04-.66-.15-1.14-.24-1.96.44-2.82.99-.16.05-.32.08-.49.08-.05-.25-.04-.49.12-.7.52-.72.16-1.21-.51-1.39-1.4-.38-1.85-1.71-2.77-2.56-.34-.32-.39-.81-.04-1.16.41-.42.82-.1,1.09.22.48.55.88,1.17,1.75,1.03.76,1.13,1.58,2.16,3.1,2.21.71,1.39,1.48.39,2.26.12-.21-.84-.89-.85-1.45-1-.57-.15-.63-.49-.5-.97Z"/>
    <path class="cls-43" d="m324.72,30.45c.08-.09.16-.19.24-.28.47-.02.94-.06,1.18.49.02.19,0,.37-.05.56-.22,1.06-.15,2.24-1.11,3.03-.52.42-1.06.83-1.41-.12-.4-1.1-1.78-.44-2.26-1.33-.36-.67-.24-1.48-.75-2.15-.36-.47-.36-1.13.4-1.44h0c.39.3.69.66.77,1.17.06.37.2.76.64.74.62-.02.53-.51.52-.93,0-.1.1-.19.2-.36.63.22.34,1,.78,1.3.27.19.57.32.83.14.28-.21.16-.54.03-.82Z"/>
    <path class="cls-13" d="m321.65,22.12c.34.3.61.76.25,1.21-.66.8-1.14-.2-1.72-.3-.37-.06-.33-.44-.15-.72.38-.57,1.02-.66,1.62-.18Z"/>
    <path class="cls-67" d="m326.77,23.99c.13-.46.19-1.01.9-.78.57.18,1.13.37,1.69.55-.49,1.54-1.57.14-2.31.47,0,0,0,0,0,0-.09-.08-.19-.16-.28-.24Z"/>
    <path class="cls-40" d="m332.5,20.61c-.7.35-1.51.51-1.99,1.22-.02-.17-.03-.35-.05-.52.31-.39.71-.85.16-1.26-.75-.56-1.05-1.32-1.29-2.15-.14-.49-.46-.87-.87-1.16-.76-.54-.55-1.1-.02-1.8.45.66.69,1.73,1.83.97.47-.31.56.26.81.47.61.51.85.1,1.01-.45,0,0,0,0,0,0,1.7.26,1.6,2.06,2.54,2.97.21.71.62,1.18,1.42,1.21.63.02,1.1.29.97,1.01-.14.77-.67,1.17-1.45,1.09-.84-.08-1.49-.52-2-1.18-.09-.08-.19-.16-.28-.24-.02-.42-.14-.8-.36-1.16-.46.25-.26.69-.44.98Z"/>
    <path class="cls-14" d="m325.28,18.88c.67.59,1.04-.34,1.58-.34.65.35.13,1.03.44,1.48.33.46,1.02.89.64,1.52-.25.41-.86.6-1.32.89-1.16.04-1.53-.21-1.74-1.17-.13-.55.1-1.05.19-1.58-.02-.29-.25-.63.2-.8h0Z"/>
    <path class="cls-98" d="m327.06,24.22c.29-.3.6-.37.99-.17.51.26.95.1,1.32-.3.34-.17.68-.2,1.04-.09.05,1.94.21,2.1,2.06,1.98.3-.02.62-.16.77.21.16.38.01.71-.26.99-.23.24-.52.36-.81.16-1.35-.95-3.39-.63-4.32-2.38-.12-.22-.52-.28-.8-.41Z"/>
    <path class="cls-48" d="m323.63,21.32c-.67.12-1.18.07-1.53-.43-.07-.1,0-.35.06-.49.09-.17.27-.23.43-.07.32.3.64.61,1.03.98Z"/>
    <path class="cls-78" d="m325.28,18.88c-.07.27-.13.54-.2.8-.22-.24-.65-.41-.51-.79.15-.4.46-.12.7,0Z"/>
    <path class="cls-40" d="m330.51,21.83c.02.17.03.35.05.52-.02-.17-.03-.35-.05-.52Z"/>
    <path class="cls-9" d="m326.42,43.91c.08-.1.16-.19.24-.29.07-.78.67-.8,1.19-.72.98.16,1.76-.17,2.51-.73.44-.24.92-.27,1.4-.33.14-.03.29-.05.43-.08.37-.1.55-.42.77-.7.13-.1.27-.17.43-.2,1.1-.11,1.48.88,2.38,1.8.17-2.29-1.13-4.85,1.86-5.76.79.77,1.46,1.67,2.51,2.14-.5.85-1.6,1.33-1.61,2.5.24.58.18,1.3,1.06,1.5.55.12.6.69.49,1.2-.17.83-.07,1.56.7,2.07.84.68,1.45,1.6,2.47,2.12.75.38,1.34,2.5.84,2.72-.88.39-1.18,1.7-2.5,1.53.21-.92.38-1.72,1.19-2.24.4-.26.52-.72.27-1.13-.25-.42-.61-.23-.95-.03-1.22.7-1.37-.57-1.93-1.08-.95.1-2.05.71-2.43-.87-.1-.4-.67-.53-.84-.17-.17.36-1.56.21-.53,1.14.25.22.17.68-.03,1.02-.46.67-1.05-.07-1.56.14-.09-.08-.19-.16-.28-.23-1.43-.19-1.75-1.33-2.02-2.45-.17-.71-.37-1.43-1.21-1.26-1.95.38-3.36-.65-4.82-1.61Z"/>
    <path class="cls-73" d="m326.42,43.91c1.79-.2,1.46-.57,2.32,1.38,1-.81,2.13-.09,3.24-.3.46-.09.93.37.86.97-.16,1.46.63,2.42,1.64,3.28-.12.21-.31.46-.15.67.68.9.29,1.59-.37,2.24-.11.54-.04,1.12-.38,1.61-.13.46-.19,1.03-.87.92-.56-.09-.55-.59-.55-1,0-.42.1-.84.1-1.26,0-.36-.04-.9-.45-.87-1.25.08-1.4-1.22-2.23-1.62h0c.32-.44.42-.92.04-1.34-.64-.7-1.34-1.35-2.01-2.01-.17.13-.33.2-.33.27-.02.58.49,1.27-.14,1.71-.65.45-1.1-.22-1.59-.54-.85-.55-1.12-.44-1.48.48-.34.86-.14,1.54.57,2.12.76.62,1.52,1.24,2.25,1.9.62.56.67,1.43.16,2.09-.17.22-.38.32-.6.1-.36-.35-.6-.12-.95.07-1,.55-1.01.51-1.49-.56-.1-.22-.26-.4-.4-.61-.17-.06-.43-.05-.51-.17-1.31-1.83-3.05-3.34-4.09-5.37.5-.36.93.02,1.38.15.79.23,1.38.08,1.44-.84.08-1.13.76-1.26,1.66-1.09,1.05-.02,1.49.95,2.26,1.4.32.18.66.43.97.08.24-.27.03-.58-.16-.82-.43-.56-.28-1.46-1.45-1.58-.96-.1-.03-1.11-.4-1.64.75-.33,1.19.23,1.72.21Z"/>
    <path class="cls-20" d="m319.18,47.94c.35,1.17,1.37,1.67,2.3,2.2.53.3.91.45.71,1.21-.19.71.14,1.33.9,1.58.33.11.53.27.51.64-.05.44-.1.88-.15,1.32-.4-.12-.81-.18-1.01-.66-.53-1.29-1.7-1.73-2.9-2.14-.08.04-.16.09-.24.13-.28.05-.54,0-.75-.21-.22-.27-.61-.4-.66-.82h0c-.33-.78.09-1.66-.66-2.46-.51-.55.5-.7.89-.97.22-.14.46-.23.73-.18.17.07.28.19.33.36Z"/>
    <path class="cls-8" d="m333.56,53.75c-.21-.62-.33-1.21.38-1.61.3,0,.62.05.9-.03.61-.19,1.01.04,1.07.62.07.66.7.99.81,1.73-.77.16-1.16,1.6-2.27.52h0c.05-.66-.53-.86-.89-1.23Z"/>
    <path class="cls-52" d="m331.6,61.25c-.45-.26-.67-.88-1.48-.4-.72.43-1.2-.53-1.77-.89,1.34-.22,2.73-.56,3.25,1.28Z"/>
    <path class="cls-73" d="m329.56,49.92c-.52.21-1.06.34-1.59.04-.36-.21-.48-.58-.32-.95.15-.34.5-.22.81-.19.67.08.88.59,1.1,1.1h0Z"/>
    <path class="cls-52" d="m326.65,58.55c.08-.1.16-.19.24-.29,1.06.08,1.09,1.03,1.46,1.71-1.1.17-1.12-.96-1.69-1.42Z"/>
    <path class="cls-52" d="m332.98,59.04c.3.41.6.82.89,1.23q-.98.11-.89-1.23Z"/>
    <path class="cls-52" d="m336.6,61.6c-.98.09-.99-.53-.89-1.23.09.08.19.16.28.24.17.35.28.74.61.99Z"/>
    <path class="cls-73" d="m334.46,54.98c-.11.17-.05.54-.36.49-.26-.04-.33-.35-.21-.55.18-.29.38-.04.56.06h0Z"/>
    <path class="cls-52" d="m334.16,60.51c.23-.08.32,0,.28.24-.09-.08-.18-.16-.28-.24Z"/>
    <path class="cls-76" d="m349.08,15.75c.17.46.36.91.5,1.37.07.23.05.64-.15.65-.97.04-1.27,1.14-2.15,1.28-.34.08-.71.24-.84-.29.28-.98,1.58-1.28,1.62-2.42-.21-.75-.54-1.43-.16-2.28.33-.73-.12-1.44-.67-1.95-.55-.52-.99.01-1.44.29-.64.39-1.29.32-1.91-.02-.6-.34-1.28-.38-1.93-.55-.17-.08-.26-.21-.29-.39.83-.71,2.16-.46,2.84-1.49.11-.16.36-.02.47.13.3.43.66.87,1.15.34.42-.45-.44-.66-.36-1.13,1.16-.74,2.15-.4,3.11.48.57.52,1.08,1.09,2.07.68.56-.23,1.05.39.96,1.01-.08.55-.24,1.28-1.12,1.03-.22-.06-.5-.34-.64-.14-.45.65-.85,1.33-1.19,2.04-.22.44-.31.95.14,1.36Z"/>
    <path class="cls-24" d="m341.64,11.43c.09.08.19.16.28.24.45.19.91.37,1.35.57,1.47.65,1.51,1.1.29,2.33-1.39.25-2-.75-2.66-1.66-.16-.27-.25-.56-.26-.87.33-.2.66-.41,1-.61Z"/>
    <path class="cls-66" d="m340.64,12.04c.19.16.38.32.57.47-.46.83-1.45,1.09-1.98,1.86-.54.44-1.09.87-1.84.89-.57-.13-1.08-.44-.99-1.06.14-1.01,1.15-.6,1.74-.89.8-.19,1.55-.44,1.99-1.21.17-.02.35-.04.52-.05Z"/>
    <path class="cls-3" d="m319.18,47.94c-.09-.08-.19-.16-.28-.24-.17.02-.35.02-.52.04-.37.47-1.76.69-.3,1.61.23.15-.11,1.2-.18,1.84-.64-1.01-.41-2.36-1.39-3.05.29-.7.72-.42,1.04-.49.69-.16.93-.48.52-1.17-.44-.73-.82-1.5-1.23-2.24-.19-.34-.46-.6-.88-.39-.85.44-1.03-.01-.83-.69.15-.54.1-.88-.3-1.29-1.09-1.13-1.06-1.15-.06-2.44.67.38,1.43.59,1.81,1.41.19.4.68.69,1.07.97.5.35,1.01.46,1.35-.24.14-.29.3-.56.67-.33.33.2.29.52.1.79-.28.39-.24.77-.14,1.21.28,1.23.42,1.34,1.72.97.31-.09.59-.23.8.09.25.35-.07.51-.29.71-.51.48-.23.81.3.81.52,0,.95.07,1.32.44-.61.26-1.47.11-1.17,1.37.22.92-.56,1.36-1.56,1.2-.64-.11-1.12-.47-1.58-.88Z"/>
    <path class="cls-3" d="m317.9,51.2c.28.24.56.47.85.71,0,.07-.02.15-.03.22-.07.02-.14.04-.21.06-.28-.24-.56-.48-.84-.71.08-.09.15-.19.23-.28Z"/>
    <path class="cls-3" d="m319.55,52.1c.3.27.69.49.6,1-.3-.29-.71-.32-1.08-.43,0-.07-.02-.14-.02-.21.1-.21.26-.33.5-.35h0Z"/>
    <path class="cls-3" d="m319.07,52.67c-.43.13-.62-.03-.57-.48,0,0,0,0,0,0,.32,0,.52.15.56.47h0Z"/>
    <path class="cls-25" d="m330.45,12.15c.26-.69-.32-1.11-.49-1.67-.11-.34-.19-.74.08-1.03.3-.32.69-.12,1.01,0,.63.24,1.24.67,1.53,1.23.46.91,1.26,1.25,2.07,1.63.21.63.65,1.08,1.17,1.47.5.58,1.09,1.08,1.43,1.79.05.18.06.35.05.54-.03.19-.09.36-.19.51-.33.4-.76.51-1.26.44-1.46-.31-2.39-1.29-3.12-2.5-.09-.15-.15-.31-.19-.48.1-1.25-.68-1.42-1.66-1.35-.25-.11-.41-.29-.43-.57Z"/>
    <path class="cls-40" d="m337.04,15.76c-.12-.84-1.18-1.1-1.22-1.99.05-.18.07-.37.15-.53.57-1.04.57-1.03,1.52-.26.18.15.43.22.65.33-.14.11-.27.26-.43.34q-1.22.55-.19,1.55c0,.07,0,.14,0,.22-.09.21-.24.35-.49.35Z"/>
    <path class="cls-66" d="m330.45,12.15c.19.16.37.32.56.48.74.26,2.08-.19,1.7,1.42h0c.6,1.41,1.67,2.32,3.07,2.88-.03.94.06,1.96-1.35,1.95-.53-.4-1.72-.4-.98-1.59-.6-.31-1-.81-1.36-1.35-.36-1.26-1.64-1.65-2.42-2.51-.61-.68-.55-1.12.29-1.44.12-.05.33.11.49.17Z"/>
    <path class="cls-59" d="m336.32,49.32c-.17-.81-.5-1.54-1.2-2.04.4-.35.98.79,1.12-.26.09-.66.47-.79,1.02-.68.54.1,1.07.19,1.06.96-.02,1.2.43.98,1.14.41.51-.41.69,0,.68.49-.06.41-.04.86-.19,1.24-.3.76-1.18,1.17-1.9.81-.58-.29-1.27-.41-1.74-.92Z"/>
    <path class="cls-4" d="m337.85,50.68c.3.4.12.71-.16.96-.47.43-.98.47-1.4-.05-.24-.29-.29-.74.07-.96.48-.29,1.02-.32,1.49.04Z"/>
    <path class="cls-15" d="m340.13,39.04c-.11-.03-.23-.07-.34-.09-.52-.05-1.1.03-1.54-.18-.59-.28-.04-1-.33-1.45-.1-.15-.22-.28-.33-.41-.07-.05-.14-.1-.21-.15-.56-.53-.47-1.04.03-1.56.54-.57,1.13-1.1,1.36-1.89.15-.5.04-1.08.46-1.5.56-.28,1.08-.39,1.35.38.46.13.91.22,1.22.68.41.59,1.14.46,1.37.01.82-1.62,2.06-1.08,3.28-.81.4.09.74.45,1.2.29.36.37.94.57.89,1.23-.92.2-1.66-.66-2.6-.46q.64.96,2.64.98c.26.46.11.91.02,1.38-.13.67-.29,1.27-1.18,1.23-.37-.02-.67.18-.92.46-.77-.77-2-.67-2.79-1.56-.35-.4-1.23.25-1.87.38-.43.09-.3.84-.87.77-.45-.05-.3-.82-.88-.77-.28,1.02.52,2.03.03,3.05Z"/>
    <path class="cls-18" d="m346.79,37.41c.39.31.79.67,1.27.19.78-.78,1.41-.38,2.06.19.5.44.99.83,1.72.93,1.11.15.39.71.14,1.13-.4-.14-.79-.29-1.19-.43-.6-.2-1.14-.35-1.43.51-.22.63-.8.72-1.35.38-.6-.37-1.24-.6-1.7-1.26-.82-1.19-.9-1.13.49-1.63Z"/>
    <path class="cls-39" d="m346.48,18.86c.26.06.53.12.79.19-.16.19-.31.38-.47.57,0,.17.02.35.04.52h0c-.1,1.09-.97,1.05-1.73,1.24-1.1.28-2.17.66-1.62,2.19.11.25.22.51.32.76-.03.24-.06.48-.08.72-.06.6-.33.75-.84.41-.05-.03-.09-.08-.15-.11-.5-.26-.83-1.12-1.52-.63-.56.4.17.85.21,1.3.04.45-.2.6-.56.79-1.06.58-1.05.91-.05,1.53.05.03.12.04.17.06.29.1.64.24.55.6-.13.48-.65.13-.95.32-1.35-.27-2.52-1.25-4-.94-.73-.83-.19-1.49.41-1.96.93-.74,1.2.77,1.93.66-.97-.5-1.8-1.23-2.15-2.4h0c1.27-.68,2.48-1.51,3.96-1.68.1-.13.2-.25.3-.38.46-.41.7-.91.69-1.53.44-1.65,2.2-.87,3.1-1.69.62.03,1.13-.28,1.66-.54Z"/>
    <path class="cls-6" d="m343.49,23.57c-.3-.34-1.09-.77-.75-1.02.64-.48.68-1.6,1.68-1.61.9-.01,1.83.11,2.42-.8.25.47.2.91-.14,1.32h0c.58.71,1.47.47,2.2.7.63.19,1.02.45.58,1.16-.12.51.49,1.05-.03,1.54-.4.06-.56-.19-.77-.43-.49-.55-.87-.33-1.04.27-.15.53-.15,1.1-.31,1.62-.1.34-.38.68-.82.59-.42-.09-.55-.45-.53-.85,0-.12.07-.24.09-.36.17-1.59-.53-2.65-2-2.9-.52-.09-.45.47-.59.77Z"/>
    <path class="cls-6" d="m346.85,20.13c-.01-.17-.03-.35-.04-.52.01.17.03.35.04.52Z"/>
    <path class="cls-37" d="m348.6,34.12c-1.7.85-2.71.65-3.32-.66-.13-.27-.29-.59-.02-.82.16-.13.46-.19.67-.14.93.22,1.87.46,2.63,1.11.01.17.03.35.04.52Z"/>
    <path class="cls-50" d="m336.58,28.36c.69-.69,1.36-.7,2.24-.21.63.35,1.23.71,1.77,1.17-.08.09-.16.19-.24.28-.09-.08-.19-.16-.28-.23-.7.24-1.47-.23-2.29.33.46.8,1.39,1.35,1.47,2.37-.07.44.27.92-.14,1.32-.06.06-.12.11-.17.17-.37.27-.75.29-1.14.07-.21-.14-.37-.33-.49-.56-.33-.88-.69-1.74-1.54-2.26-.14-.1-.24-.23-.32-.38-.17-.92,1.16-.94,1.07-1.81.02-.08.04-.16.06-.24Z"/>
    <path class="cls-18" d="m341.56,27.94c-.09-.05-.18-.1-.28-.15.08-.06.15-.14.24-.18.04-.02.13.02.16.06.08.13.03.23-.12.27Z"/>
    <path class="cls-17" d="m339.25,32.06c-.89-.44-1.08-1.57-2.1-1.98-.47-.19.07-.87.52-1.05.84-.34,1.65-.13,2.4.34-.04.42.21.7.52.9.97.66.62,1.29,0,1.92-.41-.34-.85-.39-1.32-.14Z"/>
    <path class="cls-41" d="m325.8,30.88c.08-.09.16-.19.24-.28.16-.13.34-.14.52-.05,1.76.49,3.32-.67,5.03-.64.57.01.7-.57.72-1.09.01-.38.33-.62.6-.42.53.4.79.53,1.12-.23.18-.42.77-.32,1.1.02.29.3.49.68.74,1.02-.16.43-1.27.75-.15,1.32h0c.59.08.78.5.45.89-1.56,1.84-2.32,4.29-4.35,5.77-1.25-.39-.87-1.25-.61-2.08.8-.52,1.64-1,2.11-2.16-.99.36-1.66-1.12-2.68-.19-.26.94.27,1.8.29,2.7.04,1.72-.49,2.06-2.05,1.36-.5-.22-.96-.55-1.55-.53-.97-.18-1.9.36-2.87.19-.02-.17-.03-.34-.05-.52-.03-.17-.02-.35-.05-.52h0c-.04-.45.31-.62.59-.83,1.33-1.01,1.99-2.17.84-3.74Z"/>
    <path class="cls-100" d="m330.72,42.23c-.77.93-1.59,1.68-2.93,1.04-.43-.2-.82.03-1.13.36-.34-.27-.67-.55-.73-1.02-.1-.74-.55-.94-1.25-1.07-1.16-.22-1.81-1.25-1.72-2.41.02-.3-.04-.67.34-.76.4-.1.71.12.9.47.12.22.21.44.31.67.15.34.28.69.76.67.6-.03.62-.51.71-.91.04-.17-.01-.36-.02-.54,0-.35.14-.63.41-.84.49-.21,1.06-.12,1.52-.44.17,0,.32.03.47.11.56.94,1.81,1.22,2.1,2.55.17.78,1.49.44,2.23.78.17.07.27.2.3.37h0c-.05.44-.28.73-.71.85h0c-.54-.14-1.05-.08-1.56.14Z"/>
    <path class="cls-53" d="m318.35,36.86c-.46.22-.22,1.3-1.04,1.18-.63-.09-.85-.81-1.25-1.26-.6-.69-1.21-1.37-1.54-2.23-.1-.27-.18-.62.09-.85.29-.24.61-.12.79.16.26.4.73.43,1.03.72.65.63,1.27.92,1.97.03.27-.34.66-.22.96.07.32.32.24.66,0,.98-.3.38-.63.75-1,1.2Z"/>
    <path class="cls-48" d="m325.8,30.88c.37.31.74.62,1.1.94.5.45.49,1.16.07,1.43-.96.64-1.29,2.01-2.6,2.2-.18-.15-.44-.27-.53-.47-.54-1.28-1.63-1.36-2.77-1.34-.11-.46-.07-.86.43-1.08.2.14.38.37.59.4.92.14,1.76.36,1.85,1.6,1.09-.9,1.83-1.64,1.45-2.93-.06-.2.26-.51.41-.76Z"/>
    <path class="cls-47" d="m320.89,35.6c.12-.14.23-.29.35-.42.21-.23.46-.43.79-.34.38.1.39.47.35.74-.11.69.14,1.32.18,1.99.04.54-.16,1.01-.67,1.18-.48.16-.76-.24-1.02-.59-.86-1.17-.86-1.54,0-2.55Z"/>
    <path class="cls-48" d="m326.68,37.87c-.24.28-.47.56-.71.84-.16-.34-.4-.58-.77-.74-.63-.27-.93-.78-.73-1.49.87-.59,1.81-.77,2.83-.51.16-.03.3.02.41.13.16.26.34.52.46.8.05.24.07.46-.21.58h0c-.43.12-.91.06-1.27.38Z"/>
    <path class="cls-47" d="m321.5,32.56c-.11.37-.14.78-.43,1.08-.21.21-.36.57-.7.53-.44-.05-.3-.43-.28-.72.03-.3-.06-.65.21-.86.69-.53.4-.97.02-1.55-.68-1.02-.61-1.12.63-1.85-.28.36-.46.81-.16,1.16.56.65.4,1.49.71,2.2Z"/>
    <path class="cls-48" d="m324.37,35.45c.02.17.03.35.05.52-.02-.17-.03-.35-.05-.52Z"/>
    <path class="cls-97" d="m334.43,18.86c.83-.26.83-1.24,1.43-1.69.08-.01.16-.03.24-.04.46-.13.96-.22.99-.85h0c0-.3.16-.49.4-.63,1.33.77.17,1.8.24,2.66.53.43,1.11-.08,1.6.21.31.44.05.99.3,1.44.16.64.15,1.23-.51,1.61-.09.01-.18.02-.26.04-.06-.01-.13-.05-.18-.04-1.01.26-3.01,1.79-3.2,2.7-.12.58-.36.67-.81.71-1.3.12-2.05-.4-2.47-1.75.78-.24,1.53,1.07,2.17.25.54-.7-.58-1.22-.71-1.91-.03-.18-.07-.36-.08-.54,0,0,0,0,0-.01.71-.18,1.03.53,1.6.71.99.32,1.3.09,1.5-1.19-2.05.18-2.32-.03-2.25-1.69Z"/>
    <path class="cls-41" d="m341.08,23c.21.55.25,1-.57.84-.44-.09-.96-.78-1.28-.23-.6,1.03-1.7.6-2.46,1.07-.27-.29-.75-.49-.48-1.01.17-.33.46-.24.77-.18,1.34.26,1.34.25,1.51-1.22.03-.22.18-.43.28-.64,0,0,0,0,0,0,1.08-.13.93-.82.69-1.55-.09-.14-.17-.28-.22-.44-.05-.27,0-.5.21-.7.67-.39,1.17-.12,1.59.42.4.61.09,1.53.85,1.99.56,1.02-.47,1.17-.9,1.65h0Z"/>
    <path class="cls-44" d="m333.58,21.04c.47.56.91,1.14,1.41,1.67.35.38.39.72.07,1.13-.37.47-.82.84-1.4.52-.53-.29-.97-.73-1.45-1.11-.42-1.29.45-1.76,1.38-2.21Z"/>
    <path class="cls-41" d="m336.78,24.68c.62,1.11,1.86,1.64,2.68,2.63-.5.43-.83.04-1.05-.08-1.34-.74-1.33-.77-1.8.59-.06.16-.02.36-.02.54,0,0,0,0,0,0,.03.13,0,.22-.08.26-.08.04-.14.05-.16.02-.23-.2-.45-.42-.7-.59-.64-.44-.9-1-.57-1.73.38-.87,1.06-.59,1.7-.38,0-.43.01-.85.02-1.26Z"/>
    <path class="cls-69" d="m326.56,30.55c-.17.02-.35.03-.52.05-.37-.11-.78-.14-1.08-.43.29-.39.78-.57,1.1-.9.75-.76,1.35-.55,1.97.11-.34.58-1.03.71-1.47,1.18Z"/>
    <path class="cls-77" d="m332.5,20.61c-.21-.21-.41-.44-.4-.76,0-.52.21-1,.76-1.04.65-.05.68.52.75,1,.05.37-.06.7-.3.99-.1-.07-.19-.15-.28-.22-.17.02-.35,0-.52.04h0Z"/>
    <path class="cls-79" d="m336.33,28.64c.08-.09.16-.19.24-.28.28.64.17,1.16-.5,1.47-.31.14-.45.36-.36.7-.96.12-.95-.64-1.15-1.21.42-.59.89.16,1.3-.11,0,0,0,0,0,0,.13,0,.21-.04.23-.12.03-.08.03-.14,0-.16.08-.09.15-.19.23-.28Z"/>
    <path class="cls-48" d="m331.29,27.78c-.31.13-.57,0-.8-.19.36-.31.71-.61.8.19Z"/>
    <path class="cls-41" d="m336.1,28.93c.11.25.03.35-.24.28.08-.09.16-.19.24-.28Z"/>
    <path class="cls-40" d="m332.5,20.61c.17-.01.34-.03.52-.04-.17.01-.34.03-.52.04Z"/>
    <path class="cls-79" d="m332.99,41.24c-.09-.08-.19-.16-.28-.24.29-1.13.84-2.31-.9-2.84-.31-.09-.73-.53-.22-.99.85-1.7,2.61-2.8,3.1-4.75.12-.46.57-.76,1.01-1,.46-.26.28-.59.02-.89,1.25.45,1.57.89,1.79,2.46-2.07.39-1.71.36-1.48,2.74.15,1.54,1.35.46,1.56,1.18h0c0,.83-.8,1-1.25,1.47-.32.33-.72.46-.39,1.16.6,1.25.7,2.59-.35,3.8-.94-.6-.89-2.47-2.61-2.09Z"/>
    <path class="cls-79" d="m330.72,42.23c.46-.68.98-.73,1.56-.14-.5.23-1.02.27-1.56.14Z"/>
    <path class="cls-79" d="m332.28,42.09c.24-.28.47-.56.71-.85.12.59-.11.87-.71.85Z"/>
    <path class="cls-28" d="m331.76,50.15c-.37.38-.69.53-1,.18-.38-.42-.35-.89.09-1.25.37-.3.81-.3,1.12.08.37.45-.07.75-.21.99Z"/>
    <path class="cls-73" d="m319.07,52.66c-.19-.16-.38-.31-.56-.47.08-.09.16-.19.24-.28.27.06.53.13.8.19-.16.19-.31.37-.47.56Z"/>
    <path class="cls-73" d="m318.38,47.75c.17-.01.35-.03.52-.04-.17.01-.35.03-.52.04Z"/>
    <path class="cls-64" d="m341.04,19.6c-.46-.43-.95-.72-1.6-.38.02.17,0,.35.04.52h0c.04.15.02.23-.06.27-.08.04-.14.04-.17.01-.55-.51-.2-.91.14-1.32,0-.18.07-.32.23-.42.24-.11.49-.16.75-.16.34-.04.78.16.98-.27.12-.26-.1-.46-.34-.54-1.65-.5-1.78-1.93-2.02-3.28.53-.81,1.23-1.37,2.22-1.5.58.84,1.08,1.77,2.26,1.9.54-.16.83-.63,1.19-1.01.93-.98,1.71-.86,2.36.3.07.24.1.5.13.75-.06,1.05,1.13,1.12,1.46,1.87-.08,1.37-1.27,1.82-2.13,2.55-.43,1.3-.46,1.31-1.52.65-1.3.52-2.59,1.06-3.92.08Z"/>
    <path class="cls-47" d="m346.82,13.86c-.98-.93-.95-.9-1.93-.16-.42.31-.81.76-1.42.72.87-1.27.88-1.32-.47-1.66-.65-.16-.85-.59-1.07-1.08.73-.3,1.38-.27,2.04.25.7.55,1.38.72,1.94-.3.38-.68.99-.5,1.56-.1.56.39.55,1.06.86,1.56.36.58.26,1-.14,1.47-.65.76.56,1.12.41,1.78-.43-.2-.89-.37-1.29-.62-.47-.3-.9-.67-.46-1.31.07,0,.14,0,.2,0,.14.03.26-.02.29-.16.06-.26-.16-.27-.33-.31-.07-.02-.14-.04-.2-.06Z"/>
    <path class="cls-46" d="m339.64,18.41c-.08.09-.16.18-.24.28-.85.27-1.7.57-2.66.05.42-1.02,1.53-1.8.84-3.02-.16-.16,0-.35-.05-.52h0c.34-.57,1.03-.72,1.47-1.18.35.96,1.47,1.55,1.09,2.8.64-.03,1.11-.19,1.46-.04.62.25.58.9.46,1.44-.16.7-.65.57-1.14.34-.22-.1-.47-.13-.71-.2-.17.01-.34.03-.51.05Z"/>
    <path class="cls-60" d="m320.39,45.56c.36.41,1.04.7.57,1.22-.5.56-1.13.18-1.62-.19-.43-.32-.64-.81-.26-1.26.58-.68.92.13,1.3.23Z"/>
    <path class="cls-40" d="m332.71,14.04c-.23-.45-.11-1.31-1.11-.73-.34.2-.6-.27-.58-.69.44-.46.94-.58,1.47-.18.6.45.66.99.22,1.6Z"/>
    <path class="cls-40" d="m335.86,17.17c-1.36-.72-2.92-1.26-3.15-3.13,1.04,1.06,1.9,2.32,3.39,2.84.02.12,0,.21-.09.25-.08.04-.13.06-.15.04h0Z"/>
    <path class="cls-66" d="m335.86,17.17c.08-.1.16-.19.24-.29.35-.17.74-.27.99-.6-.03.82-.26,1.36-1.23.89Z"/>
    <path class="cls-66" d="m337.52,15.19c.02.17.03.35.05.52-.16.19-.32.38-.47.56-.02-.17-.03-.35-.05-.52.16-.19.32-.38.48-.57Z"/>
    <path class="cls-9" d="m337.58,36.91c-.97-.37-1.3.72-1.99.93-.51-.35-.15-.7-.02-.98.31-.68.32-1.13-.39-1.64-.43-.3-.77-.99.07-1.48.59-.34.09-1.04.41-1.55.76-.09,1.03,1.04,1.86.79.19.16.38.32.56.47.06.11.05.21-.02.3.08.3.23.05.35.04.25-.13.41-.4.71-.43,0,0,0,0,0,0,.09.92-.62,1.46-1.18,1.88-.71.54-.53,1.04-.35,1.65Z"/>
    <path class="cls-67" d="m341.04,19.6c1.31.03,2.62.23,3.92-.08-.48.61-1.08,1.01-1.9.89-.75-.11-.97.33-1.08.94-.37.34-.74.5-.89-.16-.12-.52-.19-1.05-.05-1.59Z"/>
    <path class="cls-61" d="m346.7,21.46c-.05.02-.15.07-.16.06-.08-.1-.02-.12.16-.06h0Z"/>
    <path class="cls-79" d="m337.84,33.75c.08-.09.15-.19.23-.28.35-.03.69-.06,1.04-.09-.24.28-.47.56-.71.85-.32,0-.53-.13-.56-.47Z"/>
    <path class="cls-65" d="m331.59,37.17c-.04.66.47.73.91.92,1.87.81,1.88.86.55,2.49-.11.14-.23.28-.35.42-.9.55-1.77-.33-2.71-.08-.27.07-.36-.54-.23-.91.11-.33.38-.85-.15-.85-1.19-.01-1.03-1.2-1.67-1.67-.02-.17-.03-.35-.05-.52,0-.3-.33-.46-.33-.75-.09-.08-.19-.16-.28-.24.17-.17.48-.41.6-.25.59.79,1.71.5,2.31,1.31.13-.96.66-1.78-.08-2.72-.28-.35-.01-1.14,0-1.73,1.43.33,1.06,1.56,1.27,2.51-.13.71-.07,1.4.18,2.08Z"/>
    <path class="cls-68" d="m331.41,35.1c-.43-.34-.81-.72-.69-1.32.11-.56-.19-.88-.57-1.18-.08-.33,0-.61.3-.79.43-.26.88-.2,1.18.14.7.79,1.43.72,2.23.03,0,1.86-1.06,3.13-2.44,3.13Z"/>
    <path class="cls-71" d="m326.84,38.71c.92.15,1.08,1.06,1.6,1.6.28.28.47.61,0,.88-.37.22-.81.44-1.14,0-.56-.73-1.03-1.51-.47-2.48Z"/>
    <path class="cls-75" d="m326.68,37.87c.18-.98.32-1.02,1.27-.37-.35,1-.37,1.01-1.27.37Z"/>
    <path class="cls-75" d="m326.09,37.24c-.09.01-.27.04-.27.03-.05-.23-.14-.47-.1-.68.05-.28.26-.2.36-.03.13.21.14.45,0,.68Z"/>
    <path class="cls-41" d="m327.58,36.22c.23.2.4.43.33.75-.23-.2-.4-.43-.33-.75Z"/>
    <path class="cls-67" d="m339.25,20.01c.08-.09.16-.19.24-.28.32.28.56.66.57,1.06.02.81-.32,1.24-1.2.82.43-.46.72-.96.38-1.6Z"/>
    <path class="cls-67" d="m341.08,23c-.22.18-.45.44-.73.12-.13-.15-.03-.37.12-.47.41-.28.45.16.61.34h0Z"/>
    <path class="cls-67" d="m339.49,19.73c-.01-.17-.03-.34-.04-.52.01.17.03.34.04.52Z"/>
    <path class="cls-47" d="m346.86,14.37c-.01-.17-.03-.35-.04-.52,0,0,0,0,0,0,.31.15.32.32.04.52h0Z"/>
    <path class="cls-97" d="m339.64,18.41c.17-.02.34-.03.51-.05-.17.02-.34.03-.51.05Z"/>
    <path class="cls-76" d="m346.87,14.38c-.01-.17-.03-.35-.04-.52.28-.28.5-.74,1.02-.46.12.07.27.32.23.43-.14.44-.31.92-.87.94-.11,0-.22-.25-.33-.39Z"/>
    <path class="cls-50" d="m337.84,33.75c.19.16.37.32.56.47-.26.13-.54.2-.83.12-.22-.06-.52-.2-.46-.42.1-.34.45-.23.73-.17Z"/>
  </g>
</svg>