<?xml version="1.0" encoding="UTF-8"?>
<svg id="CONTENTS" xmlns="http://www.w3.org/2000/svg" viewBox="0 0 1054.24 31.08">
  <defs>
    <style>
      .cls-1 {
        fill: #79a194;
      }

      .cls-1, .cls-2, .cls-3, .cls-4, .cls-5, .cls-6, .cls-7, .cls-8 {
        opacity: .49;
      }

      .cls-2 {
        fill: #a29e76;
      }

      .cls-3 {
        fill: #38a2b1;
      }

      .cls-4 {
        fill: #da8f31;
      }

      .cls-5 {
        fill: #c09856;
      }

      .cls-6 {
        fill: #00a1ce;
      }

      .cls-7 {
        fill: #ef8200;
      }

      .cls-8 {
        fill: #009fe8;
      }
    </style>
  </defs>
  <g>
    <path class="cls-8" d="m1043.7,19.61c-2.25-2.48-2.06-6.3.41-8.55,2.48-2.25,6.3-2.06,8.55.41,2.25,2.48,2.06,6.3-.41,8.55-2.48,2.25-6.3,2.06-8.55-.41Z"/>
    <path class="cls-6" d="m973.59,20.52c-2.75-3.03-2.53-7.71.5-10.47,3.03-2.75,7.71-2.53,10.47.5,2.75,3.03,2.53,7.71-.5,10.47-3.03,2.75-7.71,2.53-10.47-.5Z"/>
    <path class="cls-3" d="m903.48,21.43c-3.25-3.58-2.99-9.13.6-12.38,3.58-3.25,9.13-2.99,12.38.6,3.25,3.58,2.99,9.13-.6,12.38-3.58,3.25-9.13,2.99-12.38-.6Z"/>
    <path class="cls-1" d="m833.38,22.34c-3.76-4.14-3.45-10.54.69-14.29,4.14-3.76,10.54-3.45,14.29.69,3.76,4.14,3.45,10.54-.69,14.29-4.14,3.76-10.54,3.45-14.29-.69Z"/>
    <path class="cls-2" d="m763.27,23.25c-4.26-4.69-3.91-11.95.78-16.21,4.69-4.26,11.95-3.91,16.21.78,4.26,4.69,3.91,11.95-.78,16.21-4.69,4.26-11.95,3.91-16.21-.78Z"/>
    <path class="cls-5" d="m693.16,24.17c-4.76-5.25-4.37-13.36.87-18.12,5.25-4.76,13.36-4.37,18.12.87,4.76,5.25,4.37,13.36-.87,18.12-5.25,4.76-13.36,4.37-18.12-.87Z"/>
    <path class="cls-4" d="m623.05,25.08c-5.27-5.8-4.84-14.77.96-20.04,5.8-5.27,14.77-4.84,20.04.96,5.27,5.8,4.84,14.77-.96,20.04-5.8,5.27-14.77,4.84-20.04-.96Z"/>
    <path class="cls-7" d="m552.94,25.99c-5.77-6.35-5.3-16.18,1.06-21.95,6.35-5.77,16.18-5.3,21.95,1.06,5.77,6.35,5.3,16.18-1.06,21.95-6.35,5.77-16.18,5.3-21.95-1.06Z"/>
  </g>
  <g>
    <path class="cls-8" d="m10.54,19.61c2.25-2.48,2.06-6.3-.41-8.55-2.48-2.25-6.3-2.06-8.55.41-2.25,2.48-2.06,6.3.41,8.55,2.48,2.25,6.3,2.06,8.55-.41Z"/>
    <path class="cls-6" d="m80.64,20.52c2.75-3.03,2.53-7.71-.5-10.47-3.03-2.75-7.71-2.53-10.47.5s-2.53,7.71.5,10.47c3.03,2.75,7.71,2.53,10.47-.5Z"/>
    <path class="cls-3" d="m150.75,21.43c3.25-3.58,2.99-9.13-.6-12.38-3.58-3.25-9.13-2.99-12.38.6-3.25,3.58-2.99,9.13.6,12.38,3.58,3.25,9.13,2.99,12.38-.6Z"/>
    <path class="cls-1" d="m220.86,22.34c3.76-4.14,3.45-10.54-.69-14.29-4.14-3.76-10.54-3.45-14.29.69-3.76,4.14-3.45,10.54.69,14.29,4.14,3.76,10.54,3.45,14.29-.69Z"/>
    <path class="cls-2" d="m290.97,23.25c4.26-4.69,3.91-11.95-.78-16.21-4.69-4.26-11.95-3.91-16.21.78-4.26,4.69-3.91,11.95.78,16.21,4.69,4.26,11.95,3.91,16.21-.78Z"/>
    <path class="cls-5" d="m361.08,24.17c4.76-5.25,4.37-13.36-.87-18.12-5.25-4.76-13.36-4.37-18.12.87-4.76,5.25-4.37,13.36.87,18.12,5.25,4.76,13.36,4.37,18.12-.87Z"/>
    <path class="cls-4" d="m431.19,25.08c5.27-5.8,4.84-14.77-.96-20.04-5.8-5.27-14.77-4.84-20.04.96-5.27,5.8-4.84,14.77.96,20.04,5.8,5.27,14.77,4.84,20.04-.96Z"/>
    <circle class="cls-7" cx="489.79" cy="15.54" r="15.54" transform="translate(.27 37.98) rotate(-4.44)"/>
  </g>
</svg>