<?xml version="1.0" encoding="UTF-8"?>
<svg id="_デザイン" data-name="デザイン" xmlns="http://www.w3.org/2000/svg" viewBox="0 0 263.56 7.77">
  <defs>
    <style>
      .cls-1 {
        fill: #79a194;
      }

      .cls-1, .cls-2, .cls-3, .cls-4, .cls-5, .cls-6, .cls-7, .cls-8 {
        opacity: .49;
      }

      .cls-2 {
        fill: #a29e76;
      }

      .cls-3 {
        fill: #38a2b1;
      }

      .cls-4 {
        fill: #da8f31;
      }

      .cls-5 {
        fill: #c09856;
      }

      .cls-6 {
        fill: #00a1ce;
      }

      .cls-7 {
        fill: #ef8200;
      }

      .cls-8 {
        fill: #009fe8;
      }
    </style>
  </defs>
  <g>
    <path class="cls-8" d="m260.93,4.9c-.56-.62-.52-1.58.1-2.14.62-.56,1.58-.52,2.14.1.56.62.52,1.58-.1,2.14-.62.56-1.58.52-2.14-.1Z"/>
    <path class="cls-6" d="m243.4,5.13c-.69-.76-.63-1.93.13-2.62s1.93-.63,2.62.13.63,1.93-.13,2.62-1.93.63-2.62-.13Z"/>
    <path class="cls-3" d="m225.87,5.36c-.81-.9-.75-2.28.15-3.1.9-.81,2.28-.75,3.1.15.81.9.75,2.28-.15,3.1-.9.81-2.28.75-3.1-.15Z"/>
    <path class="cls-1" d="m208.34,5.59c-.94-1.03-.86-2.63.17-3.57,1.03-.94,2.63-.86,3.57.17.94,1.03.86,2.63-.17,3.57-1.03.94-2.63.86-3.57-.17Z"/>
    <path class="cls-2" d="m190.82,5.81c-1.07-1.17-.98-2.99.2-4.05,1.17-1.07,2.99-.98,4.05.2s.98,2.99-.2,4.05c-1.17,1.07-2.99.98-4.05-.2Z"/>
    <path class="cls-5" d="m173.29,6.04c-1.19-1.31-1.09-3.34.22-4.53,1.31-1.19,3.34-1.09,4.53.22,1.19,1.31,1.09,3.34-.22,4.53s-3.34,1.09-4.53-.22Z"/>
    <path class="cls-4" d="m155.76,6.27c-1.32-1.45-1.21-3.69.24-5.01,1.45-1.32,3.69-1.21,5.01.24,1.32,1.45,1.21,3.69-.24,5.01-1.45,1.32-3.69,1.21-5.01-.24Z"/>
    <path class="cls-7" d="m138.24,6.5c-1.44-1.59-1.32-4.05.26-5.49,1.59-1.44,4.05-1.32,5.49.26,1.44,1.59,1.32,4.05-.26,5.49-1.59,1.44-4.05,1.32-5.49-.26Z"/>
  </g>
  <g>
    <path class="cls-8" d="m2.63,4.9c.56-.62.52-1.58-.1-2.14-.62-.56-1.58-.52-2.14.1-.56.62-.52,1.58.1,2.14.62.56,1.58.52,2.14-.1Z"/>
    <path class="cls-6" d="m20.16,5.13c.69-.76.63-1.93-.13-2.62s-1.93-.63-2.62.13-.63,1.93.13,2.62,1.93.63,2.62-.13Z"/>
    <path class="cls-3" d="m37.69,5.36c.81-.9.75-2.28-.15-3.1-.9-.81-2.28-.75-3.1.15-.81.9-.75,2.28.15,3.1.9.81,2.28.75,3.1-.15Z"/>
    <path class="cls-1" d="m55.22,5.59c.94-1.03.86-2.63-.17-3.57s-2.63-.86-3.57.17c-.94,1.03-.86,2.63.17,3.57,1.03.94,2.63.86,3.57-.17Z"/>
    <path class="cls-2" d="m72.74,5.81c1.07-1.17.98-2.99-.2-4.05-1.17-1.07-2.99-.98-4.05.2-1.07,1.17-.98,2.99.2,4.05,1.17,1.07,2.99.98,4.05-.2Z"/>
    <path class="cls-5" d="m90.27,6.04c1.19-1.31,1.09-3.34-.22-4.53-1.31-1.19-3.34-1.09-4.53.22s-1.09,3.34.22,4.53,3.34,1.09,4.53-.22Z"/>
    <path class="cls-4" d="m107.8,6.27c1.32-1.45,1.21-3.69-.24-5.01-1.45-1.32-3.69-1.21-5.01.24-1.32,1.45-1.21,3.69.24,5.01,1.45,1.32,3.69,1.21,5.01-.24Z"/>
    <circle class="cls-7" cx="122.45" cy="3.89" r="3.89" transform="translate(.07 9.49) rotate(-4.44)"/>
  </g>
</svg>