<?xml version="1.0" encoding="UTF-8"?>
<svg id="_ライン" data-name="ライン" xmlns="http://www.w3.org/2000/svg" viewBox="0 0 24 826.35">
  <defs>
    <style>
      .cls-1 {
        fill: #8cc359;
      }
    </style>
  </defs>
  <circle class="cls-1" cx="12" cy="11.63" r="11.63"/>
  <g>
    <g>
      <path class="cls-1" d="m9.87,32.16c-.03-.21-.07-.24-.1-.08-.2-.29-.38-.09-.52,3.18l.17,3.3-.14,1.03v-2.75c-.14,1.53-.02,2.54.05,3.66-.07.26-.12.7-.15,1.35l.27,3.26c-.11.37-.22-1.48-.28.66.12,1.52.25-1.4.33,1.1-.13,1.55-.24,1.06-.13,2.91-.07.25-.12-.14-.15-.88.09,1.65.03,4.33.18,5.19-.16,1.61.04,5.52-.23,5.32.05.41.15,1.98.19,3.36-.06-.12-.15.24-.11-.86-.04,1.01-.04,1.91-.03,2.73-.02,1.75,0,4.47-.2,4.01.19,1.4.18,4.27.2,7.11l-.03.2.04.11c.01,1.24.03,2.47.08,3.55-.03-.21-.07-.61-.06-.93,0,.44-.02.79-.03,1.12-.06.51-.12.82-.13-.56-.14,3.3,0,1.51.07,1.85-.03.48-.06.91-.08,1.48.15.19.23,1.51.3,2.9-.02.36-.05.72-.11.83.07.47.1-.16.12-.53.02.36.04.67.06,1.01-.1.39-.11.99-.09,1.76-.12-.07-.19-2.15-.35-1.6.19-.1.19,4.33.35,3.51-.03.38-.05.62-.06.85-.05-.8-.03-1.52-.14.19.04.2.04.5.06.75-.02.21-.06.41-.13.78.15.2.16.67.16,1.3-.04,1.26-.12,2.62-.09,3.67,0,0,0,.04,0,.04-.03,0-.06.06-.11.23,0,.19.03.3.06.42,0,.27,0,.68.02,1.41-.09,1.42-.19-1.28-.19-1.28,0,3.07.22,1.47.35,2.14.06,3.68-.17,1.67-.28,2.91.05,2.02.21,3.65.24,5.17,0,.24,0,.48-.01.72-.02.13-.04.24-.07-.06.03.42.04.96.05,1.49-.02,1.37-.04,2.74-.06,3.75l-.04-.09c.1.26.14,1.06.17,2.02,0,.29.02.56.02.83.01.77.02,1.59.03,2.39h0s0,0,0,0c0,.28,0,.58.01.85-.05-.04-.07-.18-.11-.31.03-.18.06-.41.09-.52-.11.26-.15-2.12-.15.13-.03-.26-.05-.55-.08-1.06v2.17c.08.51.11,1.2.14,2.61l-.02-.06c0-.46,0-.91-.11-.35l-.05-.15c0,.13,0,.26,0,.37-.01.06-.02.07-.03.14-.06,4.38.1,4.92.04,9.28.1.87.15.09.24.49-.02.8.02.98.06,1.19,0,.34.02.72.02,1.01-.06.21-.07.83-.15.66-.01-.34.05-1.18,0-1.7-.02,1.53-.09,3.38-.18,3.99.05-.09.1.07.13.45-.1.8-.18,1.55-.13,3.03,0,.11-.02.14-.03.32.09.7,0,2.54.18,2.59,0,.85-.08,1-.13,1.33.06,1.02.05,3.89.1,5.07-.08,1.4-.02,1.86.05,2.37l-.02.59c.03.06.03-.19.04-.43.04.31.07.68.07,1.41l-.21.43c.02,3.38.1,7.06.15,10.79h-.02c.03,1.14.04,2.38.06,3.6-.05-.33-.11-.88-.17.15.03,2.33.03,4.79.02,7.25l-.12-.16c.02,1.32.05.41.12.25-.03,4.18-.1,8.4-.18,12.21l.18,2.34c0,.1-.01.15-.02.23l-.16-.59c-.24,5.91.43,10.65.02,15.16.14,1.56.1-3.22.26-1.82-.02,2.73-.31,5.56-.31,6.41-.11,3.73.3,3.48.22,7.38.03-.2.07-.31.12-.32-.01,1.57-.02,3.14-.02,4.74-.05-.04-.1-.26-.12-.86,0-.66.02-.97.04-.93-.03-.88-.06-2.05-.14-.96l.07.36c-.07,1.35-.06,5.09-.18,4.21.07,2.06.12.88.15-.65-.1,3.5,0,5.45-.07,9.06.04-.57.12-1.1.12-.53-.03,1.71-.02,2.52,0,3-.02.67-.03,1.42-.06,2.05.06.29.09.9.09,1.68-.05-.01-.08-.06-.03,2.02-.07,2.19-.19.47-.25-.4.14,3.28-.09,6.11-.11,7.99l-.06-1.72c.04,1.03.03,1.88.04,2.74l.14-.99c-.02,1.01-.02,1.87-.08,1.85.06.65.14.26.22.29-.03.81-.06,1.88-.09,3.45,0,.16,0,.29.01.44-.05.08-.09-.07-.1-1.45.02.69.02,1.55,0,2.56-.02.14-.04-.15-.05-.43-.17,4.07.22,1.86.22,6.08-.11-.54-.2.98-.18,1.66,0-1.15.08-1.05.16-.42v.08s.03,1.87.03,1.87c0-.36.03-.72.05-1,0,.08.01.13.02.22-.06,1.97,0,2.62.04,3.38-.06,1.67-.15,3.04-.2,3.07l.15,6.88c-.08-.16-.1-1.3-.15-2.22.19,3.68-.2.66-.02,4.03,0-.04,0,.02.01,0,.07,2.52-.15,3.14-.04,6.26.04-.26.06-.45.08-.57,0,1.01.01,2.02.02,2.92l-.13-.53c-.04,5.09.05,10.74.04,16.45.06-2.05.29-1.57.31.11l-.2.67c.03.24.05.26.06.19-.02.23-.04.46-.06.68.03-.03.04.3.04.75-.05-.19-.09-.52-.11-.96l.06,2.59c-.06.16-.09-.46-.17-.61.12,1.06-.2,4.47,0,6.01l-.06.15c0,5.71.06,8.31.06,12.96.17.09.13,1.91.27,3.3-.06,3.42-.2,7.21-.18,11.33.08,2.89.14.84.24,2.15-.16.22-.15,4.33-.26,2.19.02,4.94.03,6.31.15,12.56.06-.67.09-1.43.15-1.04.03,1.14-.07,2.58-.14,2.42l-.02-.3c.23,7.02-.47,16.2-.15,21.79l-.02-.31.17,5.79c-.03,2.67-.12-1.6-.21.38.25,6.26-.05,9.88.12,15.02-.46,4,.02,14.14-.28,19.53l.11-.31c.11,1.39-.06,1.68-.09,2.71.08-.14.1-1.52.16-.65.12,11.77-.15,24.3-.24,36.38-.01,1.97.1,2.68.2,3.35-.03.19-.06.48-.09,1.15.13-.47.19,1.15.14,3.12l-.15-1.14c.06,2.15.09,4.32.1,6.51l-.03-.36c.02.74.03,1.86.03,3.12.02,5.95-.03,11.93.1,17.65-.05-.52-.11-.53-.11-1.38-.15,1.85,0,6.8.12,6.84-.01,1.36-.11.31-.17,1.15-.08,1.84.19,4.63.05,5.62-.02.16-.05-.51-.06-.86.07,1.2-.01,5.6.15,4.45-.03,1.27-.02,2.48-.01,3.65,0,.31,0,.64,0,.94.02,1.52.03,2.96-.02,4.29.19,1.7-.09,5.61.18,6.13-.15-.11-.2,1.56-.19,3.46-.03,1.09-.06,2.19-.07,3.01l-.04-.09c-.02,3.75.04,6.9.12,10,.02,3.1.26,5.94-.05,7.74.03,1.62.06,3.16.09,4.73-.04,2.48-.05,5.46-.06,8.42,0,0-.01-.06-.02-.04,0,.23.01.42.02.66-.01,2.43-.03,4.85-.09,6.92.05-.98.21.18.23,1.32-.05,1.52.18,4.2-.06,3.95v-.54c-.24,1.13-.18,4.25-.18,6.68l.26.34c0,.41,0,.83,0,1.23-.33,6.38.19,15.73-.21,18.97.08,1.55.08,3.45.16,4.99l-.17-.1c-.05,4.25-.07,6.37-.04,11.63l-.12-1.08c-.01,2.97.49,3.79.5,6.51l-.26.81c0,5.19-.23,10.4,0,15.53-.04-.09-.11-.25-.12-1.09,0,2.43-.18,9.41.17,8.56-.23.04-.03,5.34.07,8.14l-.17-.44c.21,2.37.27,2.45.33,5.76-.02.77-.14.67-.09-.37-.09,2.59.16,2.05.06,5.19l-.11-1.19c-.02,2.68.04,2.48.17,3.95.02.42.02.93.02,1.48h0c0,.06,0,.1,0,.13-.01,1.67-.1,3.56-.22,3.85.09.36.22,1.85.17,3.42-.06.21-.09-.38-.11-.66-.12,4.47.19,6.68.02,9.74-.06.05-.08.25-.1.51,0-3.56.02-6.41.03-6.14-.15-.02-.19,2.84-.4.54.12,2.32.37,6.28.29,9.08-.02.13-.03.26-.05.36l-.02-.29c-.02.65,0,1.23.03,1.78-.03.88-.05,1.45-.05,2.31-.13.31-.07,3.29-.08,4.71.17-.1.14,1.77.28.04-.01.23-.02-.27-.03-1.23,0-.21,0-.47-.02-.61v.09c.01-.94,0-2.17,0-3.56.09,1.15.16,2.33.06,3.9.11.75.22,1.57.28,2.03-.24,1.93-.37,5.69-.52,6.21.09,4.38.05,10.3.37,13.1.04,1.25-.09,1.42-.15,1.88-.03-.73-.02-1.57-.07-1.97.08,2.5.02,7.37.25,7.99-.11,3.12-.21-1.79-.17,2.52l-.07-.58c-.36,8.42.56,13.84.09,23.17.03-.64.04-.97.08-1.1-.21,10.68.17,22.1-.16,32.61-.07,2.99.08,3.34.18,5.19l-.18.62.21,3.17c.15,4.47-.46,7.62-.17,13.29l.12-.71c-.03,2.01.07,6.43-.07,6.06.02.2.13.68.06,1.46l-.1.04.16,5c-.07,3.84-.38-.67-.41,4.94.03,2.09.27,5.99.34,5.22,0-.84.06-2.14.16-2.18l.05,1.92c.05.07.1.17.14.26v.1c.03.21.07.25.11.09.19.29.59.29.73-2.97l-.17-3.31.14-1.01v2.74c.14-1.53.02-2.54-.05-3.66.07-.25.12-.71.15-1.35l-.27-3.26c.11-.37.22,1.49.28-.66-.12-1.52-.25,1.4-.33-1.1.13-1.55.24-1.07.13-2.92.07-.25.12.16.15.88-.09-1.65-.03-4.33-.18-5.19.16-1.6-.03-5.52.23-5.32-.05-.41-.15-1.98-.19-3.36.06.11.15-.25.12.85.04-1.01.04-1.91.03-2.72.02-1.74,0-4.47.2-4-.2-1.41-.18-4.27-.2-7.12l.03-.19-.04-.11c-.01-1.25-.03-2.47-.07-3.55.02.21.07.6.05.92,0-.43.02-.78.03-1.1.06-.51.12-.82.13.56.14-3.31,0-1.51-.07-1.86.03-.48.06-.9.08-1.47-.15-.19-.23-1.52-.3-2.91.02-.36.05-.72.11-.83-.07-.46-.1.16-.12.55-.02-.36-.04-.68-.06-1.02.1-.38.11-1,.09-1.77.12.09.19,2.15.35,1.6-.19.1-.19-4.32-.35-3.51.03-.38.04-.61.06-.84.05.79.03,1.51.14-.21-.04-.19-.04-.49-.06-.75.02-.21.06-.4.13-.78-.15-.19-.16-.67-.16-1.3.04-1.25.12-2.61.09-3.67,0,0,0-.02,0-.04.03,0,.07-.06.12-.23,0-.19-.03-.29-.06-.41,0-.28,0-.68-.03-1.41.09-1.43.19,1.27.19,1.27,0-3.06-.22-1.47-.35-2.14-.06-3.68.17-1.67.28-2.89-.05-2.04-.42-3.86-.45-5.39,0-.24,0-.48.01-.71.02-.13.04-.25.07.04-.03-.41-.04-.96-.05-1.48.02-1.37.04-2.74.07-3.75l.04.09c-.1-.26-.14-1.06-.17-2.02,0-.29-.01-.56-.02-.83-.01-.78-.02-1.59-.03-2.39v-.02s0,0,0,.01c0-.28,0-.58-.01-.84.05.03.07.17.11.3-.03.19-.06.41-.09.53.11-.26.15,2.12.15-.13.03.27.06.56.08,1.06v-2.17c-.07-.52-.11-1.2-.14-2.61l.02.04c0,.46,0,.91.1.36l.05.14c0-.11,0-.25,0-.36,0-.06.02-.06.03-.15.06-4.37-.1-4.92-.04-9.28-.1-.86-.15-.08-.24-.48.02-.8-.02-.99-.06-1.2,0-.34-.02-.73-.02-1.01.07-.21.07-.83.15-.67.01.34-.05,1.2,0,1.71.02-1.52.09-3.38.18-3.99-.05.09-.1-.08-.13-.44.1-.8.18-1.55.13-3.04,0-.1.02-.13.03-.31-.09-.7,0-2.55-.18-2.59,0-.86.08-1.01.13-1.34-.06-1.03-.05-3.89-.1-5.07.08-1.4.02-1.87-.05-2.37l.02-.59c-.03-.06-.03.19-.04.43-.04-.31-.07-.68-.07-1.41l.21-.43c-.02-3.38-.1-7.06-.15-10.79h.02c-.03-1.14-.04-2.39-.05-3.61.05.34.11.9.17-.14-.04-2.34-.03-4.8-.02-7.26l.12.16c-.02-1.32-.05-.41-.12-.26.03-4.17.1-8.39.18-12.2l-.18-2.34c0-.11.01-.15.02-.25l.16.6c.24-5.91-.43-10.65-.02-15.16-.14-1.55-.1,3.21-.26,1.82.03-2.71.31-5.56.31-6.4.11-3.73-.3-3.47-.22-7.38-.03.19-.07.31-.12.31,0-1.57.02-3.14.02-4.74.05.05.1.26.12.86,0,.66-.02.97-.04.94.03.88.06,2.04.14.95l-.07-.35c.07-1.35.06-5.09.18-4.22-.07-2.05-.12-.87-.16.65.1-3.5,0-5.44.07-9.04-.04.57-.13,1.09-.13.53.03-1.72.02-2.52,0-3,.02-.68.03-1.43.06-2.07-.07-.27-.09-.9-.09-1.68.05.02.08.07.03-2.01.07-2.2.19-.47.25.4-.14-3.27.09-6.12.11-7.99l.06,1.72c-.04-1.03-.03-1.87-.04-2.73l-.14.99c.02-1.01.02-1.87.08-1.85-.06-.64-.14-.25-.22-.29.03-.8.06-1.87.09-3.44,0-.16,0-.29-.01-.43.05-.08.09.06.1,1.43-.02-.68-.02-1.53,0-2.54.02-.16.04.14.05.42.17-4.07-.22-1.87-.22-6.08.11.53.2-.98.18-1.66,0,1.15-.08,1.06-.16.43l.02-.09-.05-1.86c0,.35-.02.73-.05,1,0-.08-.01-.13-.02-.23.06-1.96,0-2.62-.04-3.38.06-1.68.14-3.04.2-3.08l-.15-6.87c.07.15.1,1.31.15,2.22-.19-3.67.2-.66.03-4.03,0,.04,0-.01-.01,0-.07-2.52.15-3.14.04-6.26-.04.26-.06.44-.08.57,0-1.01-.01-2.02-.02-2.92l.13.54c.04-5.09-.05-10.74-.05-16.46-.06,2.05-.29,1.57-.31-.1l.2-.67c-.03-.26-.05-.26-.06-.2.02-.24.04-.47.06-.68-.02.03-.04-.3-.04-.75.04.19.09.51.11.96l-.07-2.59c.06-.16.09.46.17.6-.12-1.05.2-4.46,0-6.01l.06-.15c0-5.7-.06-8.3-.06-12.95-.17-.09-.13-1.91-.27-3.31.06-3.42.2-7.21.19-11.34-.08-2.88-.14-.84-.24-2.14.16-.21.14-4.33.25-2.19-.02-4.94-.03-6.31-.14-12.57-.07.68-.09,1.45-.15,1.05-.03-1.13.07-2.58.14-2.43v.31c-.21-7.03.48-16.2.17-21.8l.02.31-.16-5.79c.03-2.67.11,1.61.21-.38-.25-6.25.05-9.88-.12-15.01.46-4.01-.02-14.15.28-19.54l-.11.31c-.11-1.38.06-1.67.09-2.7-.09.14-.1,1.51-.16.64-.12-11.76.14-24.3.24-36.37.01-1.97-.1-2.68-.2-3.36.03-.19.06-.48.09-1.15-.13.48-.19-1.15-.14-3.11l.15,1.14c-.06-2.16-.09-4.34-.11-6.52l.03.36c-.02-.75-.03-1.87-.03-3.13-.02-5.94.04-11.92-.1-17.65.05.52.11.54.11,1.38.14-1.85,0-6.8-.12-6.84.01-1.35.11-.31.17-1.15.09-1.85-.19-4.63-.05-5.62.02-.16.05.51.06.86-.07-1.2.01-5.61-.15-4.45.03-1.27.02-2.48.01-3.66,0-.31,0-.63,0-.93-.02-1.52-.03-2.96.02-4.3-.19-1.7.09-5.6-.18-6.14.15.13.2-1.55.19-3.45.03-1.1.06-2.19.08-3.01l.04.07c.02-3.75-.04-6.88-.12-9.98-.02-3.11-.26-5.94.05-7.76-.04-1.62-.06-3.15-.09-4.72.04-2.48.05-5.45.06-8.42,0,0,.01.05.02.05,0-.24-.01-.42-.02-.66.01-2.44.03-4.84.09-6.93-.05.99-.21-.17-.23-1.32.05-1.51-.18-4.2.06-3.95v.54c.24-1.13.18-4.25.18-6.68l-.26-.34v-1.24c.33-6.38-.19-15.72.21-18.97-.08-1.54-.08-3.43-.15-4.97l.17.1c.05-4.25.07-6.38.03-11.64l.12,1.08c.01-2.96-.49-3.77-.5-6.51l.26-.8c0-5.18.23-10.4,0-15.53.04.09.11.24.12,1.1,0-2.44.18-9.42-.17-8.56.23-.05.03-5.34-.07-8.14l.17.45c-.21-2.39-.27-2.47-.33-5.76.02-.78.14-.67.09.37.09-2.6-.16-2.05-.06-5.19l.11,1.18c.02-2.67-.04-2.47-.17-3.95-.02-.41-.02-.92-.02-1.47,0,0,0,0,0,0,0-.04,0-.09,0-.13.01-1.66.1-3.56.22-3.85-.09-.37-.22-1.85-.17-3.41.06-.21.09.36.11.66.12-4.46-.19-6.68-.02-9.73.06-.06.09-.26.1-.51,0,3.55-.02,6.41-.03,6.13.16.02.19-2.85.4-.53-.11-2.32-.37-6.29-.29-9.08.02-.13.03-.26.05-.36l.02.29c.02-.64,0-1.23-.02-1.77.03-.9.05-1.45.05-2.32.13-.31.07-3.28.08-4.71-.17.09-.14-1.77-.28-.04.01-.23.02.27.03,1.23,0,.22,0,.46.02.61v-.1c-.01.94,0,2.17,0,3.56-.09-1.15-.16-2.34-.06-3.9-.11-.75-.22-1.57-.27-2.03.24-1.94.37-5.69.52-6.2-.09-4.4-.05-10.31-.37-13.1-.04-1.25.09-1.41.14-1.87.03.72.03,1.57.07,1.96-.08-2.49-.03-7.36-.25-7.98.1-3.12.21,1.77.17-2.52l.07.58c.36-8.41-.56-13.85-.09-23.17-.03.64-.04.97-.08,1.09.21-10.67-.17-22.1.16-32.6.07-3-.07-3.35-.18-5.19l.18-.62-.21-3.17c-.15-4.47.46-7.62.17-13.29l-.12.7c.03-2.02-.07-6.42.08-6.06-.02-.21-.13-.68-.06-1.45l.1-.05-.16-4.99c.07-3.84.38.67.41-4.94-.03-2.09-.27-5.99-.34-5.22,0,.84-.06,2.14-.16,2.19l-.05-1.92c-.05-.06-.1-.16-.14-.26v-.1Zm-1.03,663.83l.02.11c-.03-.09-.06-.2-.09-.39-.02-.95.01-1.27.05-1.4,0,.44.01.97.02,1.67Zm1.67-532.31l-.02-.11c.03.09.06.2.09.39.02.95-.01,1.27-.05,1.4,0-.45-.01-.97-.02-1.67Zm-.86-41.15c-.05-.78-.09-1.75-.09-2.72.03.74.06.95.09.97.03.76.05,1.36,0,1.75Zm-.3,11.32s0,0,0,.04c0,.01,0,.02,0,.04v-.08Zm-.09,19.42c-.02-.39-.03-.8-.03-1.19.02.09.04.06.08-.23v-.38s.02.24.02.24c.01.29,0,.59.02.88,0,.38-.02.84-.04,1.4-.01-.12-.02-.34-.03-.53,0-.26,0-.49,0-.76l-.02.56Zm.13,21.11c.01.32.02.68.04.96,0,.19,0,.39-.02.59,0,.05,0,.09,0,.13,0,.11-.02.21-.02.31,0-.58,0-1.28,0-2Zm-.5,293.3l.11-1.77c0,.58-.02,1.25-.06,2.17l-.05-.39Zm.81,271.2c-.03-.75-.05-1.35,0-1.75.05.79.09,1.75.09,2.72-.03-.74-.06-.95-.09-.98Zm.3-13.07s0,0,0-.03v-.05.08Zm.09-19.41c.02.38.03.8.03,1.17-.02-.08-.04-.06-.08.24v.39s-.02-.25-.02-.25c-.01-.29,0-.59-.02-.88,0-.4.02-.86.04-1.41.01.13.02.34.03.54,0,.26,0,.49,0,.76l.02-.56Zm-.13-21.12c-.01-.31-.02-.67-.04-.95,0-.19,0-.4.02-.61,0-.04,0-.08,0-.13,0-.11.02-.21.02-.31,0,.58,0,1.28,0,1.99Zm.5-293.3l-.11,1.77c0-.57.02-1.24.06-2.16l.05.39Z"/>
      <path class="cls-1" d="m9.21,222.61c0-.53-.03-.76-.04-.77.02.48.03.9.04.77Z"/>
      <path class="cls-1" d="m9.08,121.91v-.57c-.02-.16-.05-.31-.08-.46l.08,1.03Z"/>
      <path class="cls-1" d="m8.79,256.39v-.1c-.02-.57-.01-.24,0,.1Z"/>
      <path class="cls-1" d="m10.55,339.73c-.06.57-.1,1.18-.12,1.81.01.13.03.28.05.38l.07-2.19Z"/>
      <path class="cls-1" d="m9,697.46c0,.14.01.21.01.38.01-.19.03-.38.04-.56l-.05-.34v.51Z"/>
      <path class="cls-1" d="m9.32,151.73c0,.09-.02.09-.02.14v.13c0-.1,0-.2.02-.26Z"/>
      <path class="cls-1" d="m9.12,94.66c-.03-1.98-.1.04-.13-.07.06,1.27.08,1.57.13.07Z"/>
      <polygon class="cls-1" points="8.87 202.46 8.93 205.03 8.89 203.14 8.87 202.46"/>
      <polygon class="cls-1" points="8.79 582.72 8.84 585 8.86 583.93 8.79 582.72"/>
      <path class="cls-1" d="m10.13,637.07c0,.53.03.76.05.78-.02-.48-.03-.9-.05-.78Z"/>
      <path class="cls-1" d="m10.26,737.77v.58c.02.16.05.31.08.46l-.08-1.03Z"/>
      <path class="cls-1" d="m10,32.15v.38c.04.05.07.09.1.11l-.1-.48Z"/>
      <path class="cls-1" d="m10.55,603.3v.1c.02.57.01.24,0-.1Z"/>
      <path class="cls-1" d="m8.79,519.97c.06-.58.1-1.18.12-1.82-.01-.13-.02-.28-.05-.37l-.07,2.19Z"/>
      <path class="cls-1" d="m10.34,162.23c0-.14-.01-.22-.01-.39-.01.21-.03.39-.04.56l.05.34v-.51Z"/>
      <path class="cls-1" d="m10.03,707.96c0-.09.01-.09.02-.14v-.13c0,.1-.01.2-.02.26Z"/>
      <path class="cls-1" d="m10.43,765.23c.03,1.99.1-.04.14.08-.06-1.27-.08-1.57-.14-.08Z"/>
      <polygon class="cls-1" points="10.47 657.22 10.41 654.65 10.45 656.55 10.47 657.22"/>
      <polygon class="cls-1" points="10.55 276.97 10.5 274.69 10.49 275.76 10.55 276.97"/>
    </g>
    <g>
      <path class="cls-1" d="m14.36,32.16c-.03-.21-.07-.24-.1-.08-.2-.29-.38-.09-.52,3.18l.17,3.3-.14,1.03v-2.75c-.14,1.53-.02,2.54.05,3.66-.07.26-.12.7-.15,1.35l.27,3.26c-.11.37-.22-1.48-.28.66.12,1.52.25-1.4.33,1.1-.13,1.55-.24,1.06-.13,2.91-.07.25-.12-.14-.15-.88.09,1.65.03,4.33.18,5.19-.16,1.61.04,5.52-.23,5.32.05.41.15,1.98.19,3.36-.06-.12-.15.24-.11-.86-.04,1.01-.04,1.91-.03,2.73-.02,1.75,0,4.47-.2,4.01.19,1.4.18,4.27.2,7.11l-.03.2.04.11c.01,1.24.03,2.47.08,3.55-.03-.21-.07-.61-.06-.93,0,.44-.02.79-.03,1.12-.06.51-.12.82-.13-.56-.14,3.3,0,1.51.07,1.85-.03.48-.06.91-.08,1.48.15.19.23,1.51.3,2.9-.02.36-.05.72-.11.83.07.47.1-.16.12-.53.02.36.04.67.06,1.01-.1.39-.11.99-.09,1.76-.12-.07-.19-2.15-.35-1.6.19-.1.19,4.33.35,3.51-.03.38-.05.62-.06.85-.05-.8-.03-1.52-.14.19.04.2.04.5.06.75-.02.21-.06.41-.13.78.15.2.16.67.16,1.3-.04,1.26-.12,2.62-.09,3.67,0,0,0,.04,0,.04-.03,0-.06.06-.11.23,0,.19.03.3.06.42,0,.27,0,.68.02,1.41-.09,1.42-.19-1.28-.19-1.28,0,3.07.22,1.47.35,2.14.06,3.68-.17,1.67-.28,2.91.05,2.02.21,3.65.24,5.17,0,.24,0,.48-.01.72-.02.13-.04.24-.07-.06.03.42.04.96.05,1.49-.02,1.37-.04,2.74-.06,3.75l-.04-.09c.1.26.14,1.06.17,2.02,0,.29.02.56.02.83.01.77.02,1.59.03,2.39h0s0,0,0,0c0,.28,0,.58.01.85-.05-.04-.07-.18-.11-.31.03-.18.06-.41.09-.52-.11.26-.15-2.12-.15.13-.03-.26-.05-.55-.08-1.06v2.17c.08.51.11,1.2.14,2.61l-.02-.06c0-.46,0-.91-.11-.35l-.05-.15c0,.13,0,.26,0,.37-.01.06-.02.07-.03.14-.06,4.38.1,4.92.04,9.28.1.87.15.09.24.49-.02.8.02.98.06,1.19,0,.34.02.72.02,1.01-.06.21-.07.83-.15.66-.01-.34.05-1.18,0-1.7-.02,1.53-.09,3.38-.18,3.99.05-.09.1.07.13.45-.1.8-.18,1.55-.13,3.03,0,.11-.02.14-.03.32.09.7,0,2.54.18,2.59,0,.85-.08,1-.13,1.33.06,1.02.05,3.89.1,5.07-.08,1.4-.02,1.86.05,2.37l-.02.59c.03.06.03-.19.04-.43.04.31.07.68.07,1.41l-.21.43c.02,3.38.1,7.06.15,10.79h-.02c.03,1.14.04,2.38.06,3.6-.05-.33-.11-.88-.17.15.03,2.33.03,4.79.02,7.25l-.12-.16c.02,1.32.05.41.12.25-.03,4.18-.1,8.4-.18,12.21l.18,2.34c0,.1-.01.15-.02.23l-.16-.59c-.24,5.91.43,10.65.02,15.16.14,1.56.1-3.22.26-1.82-.02,2.73-.31,5.56-.31,6.41-.11,3.73.3,3.48.22,7.38.03-.2.07-.31.12-.32-.01,1.57-.02,3.14-.02,4.74-.05-.04-.1-.26-.12-.86,0-.66.02-.97.04-.93-.03-.88-.06-2.05-.14-.96l.07.36c-.07,1.35-.06,5.09-.18,4.21.07,2.06.12.88.15-.65-.1,3.5,0,5.45-.07,9.06.04-.57.12-1.1.12-.53-.03,1.71-.02,2.52,0,3-.02.67-.03,1.42-.06,2.05.06.29.09.9.09,1.68-.05-.01-.08-.06-.03,2.02-.07,2.19-.19.47-.25-.4.14,3.28-.09,6.11-.11,7.99l-.06-1.72c.04,1.03.03,1.88.04,2.74l.14-.99c-.02,1.01-.02,1.87-.08,1.85.06.65.14.26.22.29-.03.81-.06,1.88-.09,3.45,0,.16,0,.29.01.44-.05.08-.09-.07-.1-1.45.02.69.02,1.55,0,2.56-.02.14-.04-.15-.05-.43-.17,4.07.22,1.86.22,6.08-.11-.54-.2.98-.18,1.66,0-1.15.08-1.05.16-.42l-.02.08.05,1.87c0-.36.03-.72.05-1,0,.08.01.13.02.22-.06,1.97,0,2.62.04,3.38-.06,1.67-.15,3.04-.2,3.07l.15,6.88c-.08-.16-.1-1.3-.15-2.22.19,3.68-.2.66-.02,4.03,0-.04,0,.02.01,0,.07,2.52-.15,3.14-.04,6.26.04-.26.06-.45.08-.57,0,1.01.01,2.02.02,2.92l-.13-.53c-.04,5.09.05,10.74.04,16.45.06-2.05.29-1.57.31.11l-.2.67c.03.24.05.26.06.19-.02.23-.04.46-.06.68.03-.03.04.3.04.75-.05-.19-.09-.52-.11-.96l.06,2.59c-.06.16-.09-.46-.16-.61.12,1.06-.2,4.47,0,6.01l-.06.15c0,5.71.06,8.31.06,12.96.17.09.13,1.91.27,3.3-.06,3.42-.2,7.21-.18,11.33.08,2.89.14.84.24,2.15-.16.22-.15,4.33-.26,2.19.02,4.94.03,6.31.15,12.56.06-.67.09-1.43.15-1.04.03,1.14-.07,2.58-.14,2.42l-.02-.3c.23,7.02-.47,16.2-.15,21.79l-.02-.31.17,5.79c-.03,2.67-.12-1.6-.21.38.25,6.26-.05,9.88.12,15.02-.46,4,.02,14.14-.28,19.53l.11-.31c.11,1.39-.06,1.68-.09,2.71.08-.14.1-1.52.16-.65.12,11.77-.15,24.3-.24,36.38-.01,1.97.1,2.68.2,3.35-.03.19-.06.48-.09,1.15.13-.47.19,1.15.14,3.12l-.15-1.14c.06,2.15.09,4.32.1,6.51l-.03-.36c.02.74.03,1.86.03,3.12.02,5.95-.03,11.93.1,17.65-.05-.52-.11-.53-.11-1.38-.15,1.85,0,6.8.12,6.84-.01,1.36-.11.31-.17,1.15-.08,1.84.19,4.63.04,5.62-.02.16-.05-.51-.06-.86.07,1.2-.01,5.6.15,4.45-.03,1.27-.02,2.48-.01,3.65,0,.31,0,.64,0,.94.02,1.52.03,2.96-.02,4.29.19,1.7-.09,5.61.18,6.13-.15-.11-.2,1.56-.19,3.46-.03,1.09-.06,2.19-.07,3.01l-.04-.09c-.02,3.75.04,6.9.12,10,.02,3.1.26,5.94-.05,7.74.03,1.62.06,3.16.09,4.73-.04,2.48-.05,5.46-.06,8.42,0,0-.01-.06-.02-.04,0,.23.01.42.02.66-.02,2.43-.03,4.85-.09,6.92.05-.98.21.18.23,1.32-.05,1.52.18,4.2-.06,3.95v-.54c-.24,1.13-.18,4.25-.18,6.68l.26.34c0,.41,0,.83,0,1.23-.33,6.38.19,15.73-.21,18.97.08,1.55.08,3.45.16,4.99l-.17-.1c-.05,4.25-.07,6.37-.04,11.63l-.12-1.08c-.01,2.97.49,3.79.5,6.51l-.26.81c0,5.19-.23,10.4,0,15.53-.04-.09-.11-.25-.12-1.09,0,2.43-.18,9.41.17,8.56-.23.04-.03,5.34.07,8.14l-.17-.44c.21,2.37.27,2.45.33,5.76-.02.77-.14.67-.09-.37-.09,2.59.16,2.05.06,5.19l-.11-1.19c-.02,2.68.04,2.48.17,3.95.02.42.02.93.02,1.48h0c0,.06,0,.1,0,.13-.01,1.67-.1,3.56-.22,3.85.09.36.22,1.85.17,3.42-.06.21-.09-.38-.11-.66-.12,4.47.19,6.68.02,9.74-.06.05-.08.25-.1.51,0-3.56.02-6.41.03-6.14-.15-.02-.19,2.84-.4.54.12,2.32.37,6.28.29,9.08-.02.13-.03.26-.05.36l-.02-.29c-.02.65,0,1.23.03,1.78-.03.88-.05,1.45-.05,2.31-.13.31-.07,3.29-.08,4.71.17-.1.14,1.77.28.04-.01.23-.02-.27-.03-1.23,0-.21,0-.47-.02-.61v.09c.01-.94,0-2.17,0-3.56.09,1.15.16,2.33.06,3.9.11.75.22,1.57.28,2.03-.24,1.93-.37,5.69-.52,6.21.09,4.38.05,10.3.37,13.1.04,1.25-.09,1.42-.15,1.88-.03-.73-.02-1.57-.07-1.97.08,2.5.02,7.37.25,7.99-.11,3.12-.21-1.79-.17,2.52l-.07-.58c-.36,8.42.56,13.84.09,23.17.03-.64.04-.97.08-1.1-.21,10.68.17,22.1-.16,32.61-.07,2.99.08,3.34.18,5.19l-.18.62.21,3.17c.15,4.47-.46,7.62-.17,13.29l.12-.71c-.03,2.01.07,6.43-.08,6.06.02.2.13.68.06,1.46l-.1.04.16,5c-.07,3.84-.38-.67-.41,4.94.03,2.09.27,5.99.34,5.22,0-.84.06-2.14.16-2.18l.05,1.92c.05.07.1.17.14.26v.1c.03.21.07.25.11.09.19.29.59.29.73-2.97l-.17-3.31.14-1.01v2.74c.14-1.53.02-2.54-.05-3.66.07-.25.12-.71.15-1.35l-.27-3.26c.11-.37.22,1.49.28-.66-.12-1.52-.25,1.4-.33-1.1.13-1.55.24-1.07.13-2.92.07-.25.12.16.15.88-.09-1.65-.03-4.33-.18-5.19.16-1.6-.03-5.52.23-5.32-.05-.41-.15-1.98-.19-3.36.06.11.15-.25.12.85.04-1.01.04-1.91.03-2.72.02-1.74,0-4.47.2-4-.2-1.41-.18-4.27-.2-7.12l.03-.19-.04-.11c-.01-1.25-.03-2.47-.07-3.55.02.21.07.6.05.92,0-.43.02-.78.03-1.1.06-.51.12-.82.13.56.14-3.31,0-1.51-.07-1.86.03-.48.06-.9.08-1.47-.15-.19-.23-1.52-.3-2.91.02-.36.05-.72.11-.83-.07-.46-.1.16-.12.55-.02-.36-.04-.68-.06-1.02.1-.38.11-1,.09-1.77.12.09.19,2.15.35,1.6-.19.1-.19-4.32-.35-3.51.03-.38.04-.61.06-.84.05.79.03,1.51.14-.21-.04-.19-.04-.49-.06-.75.02-.21.06-.4.13-.78-.15-.19-.16-.67-.16-1.3.04-1.25.12-2.61.09-3.67,0,0,0-.02,0-.04.03,0,.07-.06.12-.23,0-.19-.03-.29-.06-.41,0-.28,0-.68-.03-1.41.09-1.43.19,1.27.19,1.27,0-3.06-.22-1.47-.35-2.14-.06-3.68.17-1.67.28-2.89-.05-2.04-.42-3.86-.45-5.39,0-.24,0-.48.01-.71.02-.13.04-.25.07.04-.03-.41-.04-.96-.05-1.48.02-1.37.04-2.74.07-3.75l.04.09c-.1-.26-.14-1.06-.17-2.02,0-.29-.01-.56-.02-.83-.01-.78-.02-1.59-.03-2.39v-.02s0,0,0,.01c0-.28,0-.58-.01-.84.05.03.07.17.11.3-.03.19-.06.41-.09.53.11-.26.15,2.12.15-.13.03.27.06.56.08,1.06v-2.17c-.07-.52-.11-1.2-.14-2.61l.02.04c0,.46,0,.91.11.36l.05.14c0-.11,0-.25,0-.36,0-.06.02-.06.03-.15.06-4.37-.1-4.92-.04-9.28-.1-.86-.15-.08-.24-.48.02-.8-.02-.99-.06-1.2,0-.34-.02-.73-.02-1.01.07-.21.07-.83.15-.67.01.34-.05,1.2,0,1.71.02-1.52.09-3.38.18-3.99-.05.09-.1-.08-.13-.44.1-.8.18-1.55.13-3.04,0-.1.02-.13.03-.31-.09-.7,0-2.55-.18-2.59,0-.86.08-1.01.13-1.34-.06-1.03-.05-3.89-.1-5.07.08-1.4.02-1.87-.05-2.37l.02-.59c-.03-.06-.03.19-.04.43-.04-.31-.07-.68-.07-1.41l.21-.43c-.02-3.38-.1-7.06-.15-10.79h.02c-.03-1.14-.04-2.39-.05-3.61.05.34.11.9.17-.14-.04-2.34-.03-4.8-.02-7.26l.12.16c-.02-1.32-.05-.41-.12-.26.03-4.17.1-8.39.18-12.2l-.18-2.34c0-.11.01-.15.02-.25l.16.6c.24-5.91-.43-10.65-.02-15.16-.14-1.55-.1,3.21-.26,1.82.03-2.71.31-5.56.31-6.4.11-3.73-.3-3.47-.22-7.38-.03.19-.07.31-.12.31,0-1.57.02-3.14.02-4.74.05.05.1.26.12.86,0,.66-.02.97-.04.94.03.88.06,2.04.13.95l-.07-.35c.07-1.35.06-5.09.18-4.22-.07-2.05-.12-.87-.16.65.1-3.5,0-5.44.07-9.04-.04.57-.13,1.09-.13.53.03-1.72.02-2.52,0-3,.02-.68.03-1.43.06-2.07-.07-.27-.09-.9-.09-1.68.05.02.08.07.03-2.01.07-2.2.19-.47.25.4-.14-3.27.09-6.12.11-7.99l.06,1.72c-.04-1.03-.03-1.87-.04-2.73l-.14.99c.02-1.01.02-1.87.08-1.85-.06-.64-.14-.25-.22-.29.03-.8.06-1.87.09-3.44,0-.16,0-.29-.01-.43.05-.08.09.06.1,1.43-.02-.68-.02-1.53,0-2.54.02-.16.04.14.05.42.17-4.07-.22-1.87-.22-6.08.11.53.2-.98.18-1.66,0,1.15-.08,1.06-.16.43l.02-.09-.05-1.86c0,.35-.02.73-.05,1,0-.08-.01-.13-.02-.23.06-1.96,0-2.62-.04-3.38.06-1.68.14-3.04.2-3.08l-.15-6.87c.07.15.1,1.31.15,2.22-.19-3.67.2-.66.03-4.03,0,.04,0-.01-.01,0-.07-2.52.15-3.14.04-6.26-.04.26-.06.44-.08.57,0-1.01-.01-2.02-.02-2.92l.13.54c.04-5.09-.05-10.74-.05-16.46-.06,2.05-.29,1.57-.31-.1l.2-.67c-.03-.26-.05-.26-.06-.2.02-.24.04-.47.06-.68-.02.03-.04-.3-.04-.75.04.19.09.51.11.96l-.07-2.59c.06-.16.09.46.16.6-.12-1.05.2-4.46,0-6.01l.06-.15c0-5.7-.06-8.3-.06-12.95-.17-.09-.13-1.91-.27-3.31.06-3.42.2-7.21.19-11.34-.08-2.88-.14-.84-.24-2.14.16-.21.14-4.33.25-2.19-.02-4.94-.03-6.31-.14-12.57-.07.68-.09,1.45-.15,1.05-.03-1.13.07-2.58.14-2.43v.31c-.21-7.03.48-16.2.17-21.8l.02.31-.16-5.79c.03-2.67.11,1.61.21-.38-.25-6.25.05-9.88-.12-15.01.46-4.01-.02-14.15.28-19.54l-.11.31c-.11-1.38.06-1.67.09-2.7-.09.14-.1,1.51-.16.64-.12-11.76.14-24.3.24-36.37.01-1.97-.1-2.68-.2-3.36.03-.19.06-.48.09-1.15-.13.48-.19-1.15-.14-3.11l.15,1.14c-.06-2.16-.09-4.34-.11-6.52l.03.36c-.02-.75-.03-1.87-.03-3.13-.02-5.94.04-11.92-.1-17.65.05.52.11.54.11,1.38.14-1.85,0-6.8-.12-6.84.01-1.35.1-.31.17-1.15.09-1.85-.19-4.63-.05-5.62.02-.16.05.51.06.86-.07-1.2.01-5.61-.15-4.45.03-1.27.02-2.48.01-3.66,0-.31,0-.63,0-.93-.02-1.52-.03-2.96.02-4.3-.19-1.7.09-5.6-.18-6.14.15.13.2-1.55.19-3.45.03-1.1.06-2.19.08-3.01l.04.07c.02-3.75-.04-6.88-.12-9.98-.02-3.11-.26-5.94.05-7.76-.04-1.62-.06-3.15-.09-4.72.04-2.48.05-5.45.06-8.42,0,0,.01.05.02.05,0-.24-.01-.42-.02-.66.01-2.44.03-4.84.09-6.93-.05.99-.21-.17-.23-1.32.05-1.51-.18-4.2.06-3.95v.54c.24-1.13.18-4.25.18-6.68l-.26-.34v-1.24c.33-6.38-.19-15.72.21-18.97-.08-1.54-.08-3.43-.15-4.97l.17.1c.05-4.25.07-6.38.03-11.64l.12,1.08c.01-2.96-.49-3.77-.5-6.51l.26-.8c0-5.18.23-10.4,0-15.53.04.09.11.24.12,1.1,0-2.44.18-9.42-.17-8.56.23-.05.03-5.34-.07-8.14l.17.45c-.21-2.39-.27-2.47-.33-5.76.02-.78.13-.67.09.37.09-2.6-.16-2.05-.06-5.19l.11,1.18c.02-2.67-.04-2.47-.17-3.95-.02-.41-.02-.92-.02-1.47,0,0,0,0,0,0,0-.04,0-.09,0-.13.01-1.66.1-3.56.22-3.85-.09-.37-.22-1.85-.17-3.41.06-.21.09.36.11.66.12-4.46-.19-6.68-.02-9.73.06-.06.09-.26.1-.51,0,3.55-.02,6.41-.03,6.13.16.02.19-2.85.4-.53-.11-2.32-.37-6.29-.29-9.08.02-.13.03-.26.05-.36l.02.29c.02-.64,0-1.23-.02-1.77.03-.9.05-1.45.05-2.32.13-.31.07-3.28.08-4.71-.17.09-.14-1.77-.28-.04.01-.23.02.27.03,1.23,0,.22,0,.46.02.61v-.1c-.01.94,0,2.17,0,3.56-.09-1.15-.16-2.34-.06-3.9-.11-.75-.22-1.57-.27-2.03.24-1.94.37-5.69.52-6.2-.09-4.4-.05-10.31-.37-13.1-.04-1.25.09-1.41.14-1.87.03.72.03,1.57.07,1.96-.08-2.49-.03-7.36-.25-7.98.1-3.12.21,1.77.17-2.52l.07.58c.36-8.41-.56-13.85-.09-23.17-.03.64-.04.97-.08,1.09.21-10.67-.17-22.1.16-32.6.07-3-.08-3.35-.18-5.19l.18-.62-.21-3.17c-.15-4.47.46-7.62.17-13.29l-.12.7c.03-2.02-.07-6.42.08-6.06-.02-.21-.13-.68-.06-1.45l.1-.05-.16-4.99c.07-3.84.38.67.41-4.94-.03-2.09-.27-5.99-.34-5.22,0,.84-.06,2.14-.16,2.19l-.05-1.92c-.05-.06-.1-.16-.14-.26v-.1Zm-1.03,663.83l.02.11c-.03-.09-.06-.2-.09-.39-.02-.95.01-1.27.05-1.4,0,.44.01.97.02,1.67Zm1.67-532.31l-.02-.11c.03.09.06.2.09.39.02.95-.01,1.27-.05,1.4,0-.45-.01-.97-.02-1.67Zm-.86-41.15c-.05-.78-.09-1.75-.09-2.72.03.74.06.95.09.97.03.76.05,1.36,0,1.75Zm-.3,11.32s0,0,0,.04c0,.01,0,.02,0,.04v-.08Zm-.09,19.42c-.02-.39-.03-.8-.03-1.19.02.09.04.06.08-.23v-.38s.02.24.02.24c.01.29,0,.59.02.88,0,.38-.02.84-.04,1.4-.01-.12-.02-.34-.03-.53,0-.26,0-.49,0-.76l-.02.56Zm.13,21.11c.01.32.02.68.04.96,0,.19,0,.39-.02.59,0,.05,0,.09,0,.13,0,.11-.02.21-.02.31,0-.58,0-1.28,0-2Zm-.5,293.3l.11-1.77c0,.58-.02,1.25-.06,2.17l-.05-.39Zm.81,271.2c-.03-.75-.05-1.35,0-1.75.05.79.09,1.75.09,2.72-.03-.74-.06-.95-.09-.98Zm.3-13.07s0,0,0-.03v-.05.08Zm.09-19.41c.02.38.03.8.03,1.17-.02-.08-.04-.06-.08.24v.39s-.02-.25-.02-.25c-.01-.29,0-.59-.02-.88,0-.4.02-.86.04-1.41.01.13.02.34.03.54,0,.26,0,.49,0,.76l.02-.56Zm-.13-21.12c-.01-.31-.02-.67-.04-.95,0-.19,0-.4.02-.61,0-.04,0-.08,0-.13,0-.11.02-.21.02-.31,0,.58,0,1.28,0,1.99Zm.5-293.3l-.11,1.77c0-.57.02-1.24.06-2.16l.05.39Z"/>
      <path class="cls-1" d="m13.7,222.61c0-.53-.03-.76-.04-.77.02.48.03.9.04.77Z"/>
      <path class="cls-1" d="m13.57,121.91v-.57c-.02-.16-.05-.31-.08-.46l.08,1.03Z"/>
      <path class="cls-1" d="m13.29,256.39v-.1c-.02-.57-.01-.24,0,.1Z"/>
      <path class="cls-1" d="m15.04,339.73c-.06.57-.1,1.18-.12,1.81.01.13.03.28.04.38l.07-2.19Z"/>
      <path class="cls-1" d="m13.49,697.46c0,.14.01.21.01.38.01-.19.03-.38.04-.56l-.05-.34v.51Z"/>
      <path class="cls-1" d="m13.81,151.73c0,.09-.02.09-.02.14v.13c0-.1,0-.2.02-.26Z"/>
      <path class="cls-1" d="m13.61,94.66c-.03-1.98-.1.04-.14-.07.06,1.27.08,1.57.14.07Z"/>
      <polygon class="cls-1" points="13.36 202.46 13.42 205.03 13.39 203.14 13.36 202.46"/>
      <polygon class="cls-1" points="13.28 582.72 13.33 585 13.35 583.93 13.28 582.72"/>
      <path class="cls-1" d="m14.62,637.07c0,.53.03.76.05.78-.02-.48-.03-.9-.05-.78Z"/>
      <path class="cls-1" d="m14.75,737.77v.58c.02.16.05.31.08.46l-.08-1.03Z"/>
      <path class="cls-1" d="m14.5,32.15v.38c.04.05.07.09.1.11l-.1-.48Z"/>
      <path class="cls-1" d="m15.04,603.3v.1c.02.57.01.24,0-.1Z"/>
      <path class="cls-1" d="m13.29,519.97c.06-.58.1-1.18.12-1.82-.01-.13-.02-.28-.05-.37l-.07,2.19Z"/>
      <path class="cls-1" d="m14.84,162.23c0-.14-.01-.22-.01-.39-.01.21-.03.39-.04.56l.05.34v-.51Z"/>
      <path class="cls-1" d="m14.52,707.96c0-.09.01-.09.02-.14v-.13c0,.1-.01.2-.02.26Z"/>
      <path class="cls-1" d="m14.93,765.23c.03,1.99.1-.04.13.08-.06-1.27-.08-1.57-.13-.08Z"/>
      <polygon class="cls-1" points="14.97 657.22 14.9 654.65 14.94 656.55 14.97 657.22"/>
      <polygon class="cls-1" points="15.04 276.97 14.99 274.69 14.98 275.76 15.04 276.97"/>
    </g>
  </g>
</svg>