<?xml version="1.0" encoding="UTF-8"?>
<svg id="_ライン" data-name="ライン" xmlns="http://www.w3.org/2000/svg" viewBox="0 0 12 538.25">
  <defs>
    <style>
      .cls-1 {
        fill: #8cc359;
      }
    </style>
  </defs>
  <circle class="cls-1" cx="6" cy="5.81" r="5.81"/>
  <g>
    <g>
      <path class="cls-1" d="m4.61,16.11c-.02-.14-.05-.16-.07-.05-.13-.19-.25-.06-.34,2.09l.11,2.17-.09.67v-1.81c-.09,1.01-.01,1.67.04,2.41-.05.17-.08.46-.1.88l.18,2.14c-.07.24-.14-.97-.18.43.08,1,.16-.92.22.72-.09,1.02-.15.7-.08,1.91-.05.16-.08-.09-.1-.58.06,1.08.02,2.84.12,3.41-.11,1.06.02,3.63-.15,3.49.03.27.1,1.3.13,2.2-.04-.08-.1.16-.08-.56-.03.66-.03,1.25-.02,1.79-.01,1.15,0,2.94-.13,2.63.13.92.12,2.81.13,4.67l-.02.13.02.07c0,.81.02,1.62.05,2.33-.02-.14-.05-.4-.04-.61,0,.29-.01.52-.02.73-.04.33-.08.54-.08-.36-.09,2.17,0,.99.05,1.21-.02.31-.04.6-.06.97.1.13.15.99.2,1.9-.02.24-.03.47-.07.55.05.31.07-.11.08-.35.01.23.03.44.04.66-.07.25-.07.65-.06,1.16-.08-.05-.12-1.41-.23-1.05.13-.07.12,2.84.23,2.3-.02.25-.03.41-.04.56-.03-.53-.02-1-.09.13.03.13.03.33.04.49-.02.14-.04.27-.09.52.1.13.11.44.1.85-.03.83-.08,1.72-.06,2.41,0,0,0,.02,0,.02-.02,0-.04.04-.07.15,0,.13.02.2.04.28,0,.18,0,.45.02.93-.06.93-.13-.84-.13-.84,0,2.02.14.96.23,1.4.04,2.41-.11,1.1-.19,1.91.03,1.33.14,2.4.16,3.4,0,.15,0,.31,0,.47-.01.08-.03.16-.05-.04.02.28.03.63.03.98-.01.9-.03,1.8-.04,2.46l-.03-.06c.06.17.09.7.11,1.33,0,.19.01.37.01.55,0,.5.01,1.04.02,1.57h0s0,0,0,0c0,.18,0,.38,0,.56-.03-.02-.05-.12-.07-.21.02-.12.04-.27.06-.34-.07.17-.1-1.39-.1.08-.02-.17-.03-.36-.05-.7v1.43c.05.34.07.79.09,1.72v-.04c0-.3-.01-.59-.08-.23l-.03-.1c0,.08,0,.17,0,.24,0,.04,0,.05-.02.09-.04,2.88.07,3.23.02,6.1.07.57.1.06.16.32-.01.52.01.64.04.78,0,.22,0,.47,0,.66-.04.14-.04.54-.1.44,0-.22.03-.78,0-1.12-.01,1.01-.06,2.22-.12,2.62.03-.06.06.05.09.29-.06.52-.12,1.02-.09,1.99,0,.07-.01.09-.02.21.06.46,0,1.67.12,1.7,0,.56-.06.66-.09.87.04.67.03,2.55.07,3.33-.05.92-.01,1.22.03,1.55v.39s0-.12.01-.29c.02.2.05.45.05.93l-.14.29c.01,2.22.06,4.64.1,7.09h-.02c.02.75.03,1.56.04,2.36-.04-.22-.07-.58-.11.1.02,1.53.02,3.14.01,4.76l-.08-.1c.01.87.03.27.08.16-.02,2.75-.07,5.52-.12,8.01l.12,1.54c0,.07,0,.1-.01.15l-.11-.39c-.16,3.88.28,6.99.01,9.96.09,1.02.06-2.11.17-1.2-.02,1.79-.21,3.65-.21,4.21-.07,2.45.2,2.28.15,4.85.02-.13.05-.21.08-.21,0,1.03-.01,2.06-.01,3.11-.03-.03-.07-.17-.08-.56,0-.43.01-.64.03-.61-.02-.58-.04-1.34-.09-.63l.05.23c-.05.89-.04,3.34-.12,2.76.05,1.35.08.58.1-.43-.07,2.3,0,3.58-.04,5.95.03-.37.08-.72.08-.35-.02,1.12-.01,1.65,0,1.97-.01.44-.02.94-.04,1.35.04.19.06.59.06,1.1-.03,0-.05-.04-.02,1.32-.05,1.44-.13.31-.16-.26.09,2.15-.06,4.01-.07,5.24l-.04-1.13c.02.67.02,1.24.02,1.8l.09-.65c-.02.66-.02,1.23-.06,1.22.04.43.09.17.14.19-.02.53-.04,1.24-.06,2.26,0,.11,0,.19,0,.29-.03.05-.06-.05-.07-.95.02.45.02,1.02,0,1.68-.01.09-.03-.1-.03-.28-.11,2.67.14,1.22.14,3.99-.07-.36-.13.64-.12,1.09,0-.76.05-.69.11-.28v.05s.02,1.23.02,1.23c0-.23.02-.47.03-.65,0,.05,0,.08.01.14-.04,1.29,0,1.72.02,2.22-.04,1.1-.1,2-.13,2.02l.1,4.51c-.05-.1-.07-.86-.1-1.46.12,2.41-.13.44-.02,2.65,0-.02,0,.01,0,0,.04,1.66-.1,2.06-.03,4.11.03-.17.04-.29.05-.37,0,.66,0,1.33.02,1.92l-.08-.35c-.02,3.34.03,7.05.03,10.8.04-1.35.19-1.03.2.07l-.13.44c.02.16.03.17.04.13-.01.15-.03.3-.04.45.02-.02.02.2.03.49-.03-.13-.06-.34-.07-.63l.04,1.7c-.04.1-.06-.3-.11-.4.08.7-.13,2.93,0,3.94l-.04.1c0,3.75.04,5.46.04,8.51.11.06.09,1.25.18,2.17-.04,2.25-.13,4.73-.12,7.44.05,1.9.09.55.16,1.41-.1.15-.1,2.84-.17,1.44.01,3.25.02,4.15.1,8.25.04-.44.06-.94.1-.68.02.75-.04,1.69-.09,1.59v-.2c.14,4.61-.32,10.63-.11,14.31v-.2s.1,3.8.1,3.8c-.02,1.75-.08-1.05-.14.25.17,4.11-.03,6.48.08,9.86-.3,2.63.01,9.29-.18,12.82l.07-.2c.07.91-.04,1.1-.06,1.78.05-.09.06-1,.1-.43.08,7.73-.1,15.96-.16,23.89,0,1.29.06,1.76.13,2.2-.02.12-.04.32-.06.76.09-.31.12.76.09,2.05l-.1-.75c.04,1.41.06,2.84.07,4.28l-.02-.23c.01.49.02,1.22.02,2.05.01,3.91-.02,7.84.07,11.59-.03-.34-.07-.35-.07-.9-.1,1.22,0,4.46.08,4.49,0,.89-.07.21-.11.76-.05,1.21.13,3.04.03,3.69-.02.1-.03-.34-.04-.56.05.79,0,3.68.1,2.92-.02.83-.01,1.63,0,2.4,0,.21,0,.42,0,.62.01,1,.02,1.94-.01,2.82.12,1.11-.06,3.68.12,4.02-.1-.07-.13,1.02-.13,2.27-.02.72-.04,1.44-.05,1.98l-.02-.06c-.02,2.46.03,4.53.08,6.56.02,2.04.17,3.9-.03,5.09.02,1.07.04,2.07.06,3.11-.03,1.63-.03,3.58-.04,5.53,0,0,0-.04-.01-.03,0,.15,0,.28.01.43,0,1.6-.02,3.18-.06,4.54.03-.64.14.12.15.87-.04,1,.12,2.76-.04,2.6v-.36c-.16.74-.12,2.79-.12,4.38l.17.22c0,.27,0,.54,0,.81-.22,4.19.13,10.33-.14,12.46.05,1.02.05,2.26.1,3.28l-.11-.07c-.03,2.79-.05,4.18-.02,7.64l-.08-.71c0,1.95.32,2.49.33,4.28l-.17.53c0,3.41-.15,6.83,0,10.2-.02-.06-.07-.16-.08-.72,0,1.6-.12,6.18.11,5.62-.15.03-.02,3.51.05,5.34l-.11-.29c.14,1.56.18,1.61.22,3.78-.02.51-.09.44-.06-.24-.06,1.7.1,1.35.04,3.41l-.07-.78c-.01,1.76.03,1.63.11,2.6,0,.28.01.61.01.97h0s0,.07,0,.09c0,1.1-.07,2.33-.14,2.53.06.24.14,1.22.11,2.25-.04.14-.06-.25-.07-.44-.08,2.93.13,4.39.01,6.4-.04.03-.06.16-.07.33,0-2.34.01-4.21.02-4.03-.1-.01-.12,1.87-.26.36.08,1.53.24,4.13.19,5.96-.01.08-.02.17-.04.24v-.19c-.02.43-.01.8,0,1.17-.02.58-.03.95-.03,1.52-.08.21-.05,2.16-.05,3.09.11-.07.09,1.17.19.02,0,.15-.01-.18-.02-.8,0-.14,0-.31-.01-.4v.06c0-.62,0-1.42,0-2.33.06.75.1,1.53.04,2.56.07.49.14,1.03.18,1.33-.16,1.27-.24,3.74-.34,4.08.06,2.88.03,6.77.24,8.6.03.82-.06.93-.1,1.24-.02-.48-.02-1.03-.05-1.3.05,1.64.02,4.84.16,5.25-.07,2.05-.13-1.17-.11,1.65l-.05-.38c-.24,5.53.37,9.09.06,15.21.02-.42.03-.64.05-.72-.14,7.01.11,14.51-.11,21.41-.04,1.96.05,2.19.12,3.41l-.12.41.14,2.08c.1,2.94-.3,5-.11,8.73l.08-.46c-.02,1.32.04,4.22-.05,3.98.01.13.08.44.04.96l-.06.02.11,3.28c-.05,2.52-.25-.44-.27,3.25.02,1.37.18,3.93.22,3.43,0-.55.04-1.4.1-1.43l.03,1.26s.06.11.09.17v.07c.02.14.05.16.07.06.13.19.39.19.48-1.95l-.11-2.18.09-.66v1.8c.09-1.01.02-1.67-.04-2.4.05-.16.08-.46.1-.88l-.18-2.14c.07-.24.14.98.18-.44-.08-1-.16.92-.22-.72.09-1.02.15-.7.08-1.92.05-.16.08.1.1.58-.06-1.09-.02-2.84-.12-3.41.11-1.05-.02-3.63.15-3.49-.03-.27-.1-1.3-.13-2.2.04.07.1-.16.08.56.02-.66.03-1.25.02-1.79.01-1.14,0-2.94.13-2.63-.13-.93-.12-2.81-.13-4.68l.02-.13-.02-.07c0-.82-.02-1.62-.05-2.33.02.14.05.39.03.6,0-.29.01-.51.02-.73.04-.34.08-.54.09.37.09-2.18,0-.99-.05-1.22.02-.31.04-.59.05-.96-.1-.13-.15-1-.2-1.91.02-.24.03-.47.07-.55-.05-.3-.06.11-.08.36-.01-.24-.03-.44-.04-.67.07-.25.07-.65.06-1.16.08.06.12,1.41.23,1.05-.13.07-.12-2.84-.23-2.3.02-.25.03-.4.04-.55.03.52.02.99.09-.14-.02-.13-.03-.32-.04-.49.02-.14.04-.26.09-.51-.1-.13-.11-.44-.1-.86.02-.82.08-1.72.06-2.41,0,0,0-.01,0-.02.02,0,.04-.04.08-.15,0-.13-.02-.19-.04-.27,0-.18,0-.44-.02-.93.06-.94.13.83.13.83,0-2.01-.14-.96-.23-1.4-.04-2.41.11-1.09.19-1.9-.03-1.34-.27-2.54-.29-3.54,0-.15,0-.32,0-.47.01-.09.03-.16.05.03-.02-.27-.03-.63-.03-.97.01-.9.03-1.8.04-2.46l.02.06c-.06-.17-.09-.69-.11-1.33,0-.19,0-.37-.01-.54,0-.51-.02-1.04-.02-1.57h0s0-.01,0,0c0-.18,0-.38,0-.55.03.02.05.11.07.2-.02.12-.04.27-.06.35.07-.17.1,1.39.1-.09.02.18.04.37.05.7v-1.42c-.05-.34-.07-.79-.09-1.71v.03c0,.3.01.6.08.23l.03.09c0-.07,0-.16,0-.24,0-.04,0-.04.02-.1.04-2.87-.07-3.23-.02-6.09-.06-.57-.1-.05-.16-.32.01-.52-.01-.65-.04-.79,0-.22-.01-.48-.01-.66.04-.14.04-.54.1-.44,0,.22-.03.79,0,1.12.01-1,.06-2.22.12-2.62-.03.06-.06-.05-.09-.29.06-.52.12-1.02.09-1.99,0-.07.01-.09.02-.21-.06-.46,0-1.68-.12-1.7,0-.56.06-.66.09-.88-.04-.67-.03-2.55-.07-3.33.05-.92.01-1.23-.03-1.56v-.39s0,.13-.01.29c-.03-.21-.05-.45-.05-.93l.14-.29c-.02-2.22-.06-4.64-.1-7.09h.02c-.02-.75-.03-1.57-.03-2.37.03.22.07.59.11-.09-.02-1.53-.02-3.15-.01-4.77l.08.11c-.01-.87-.03-.27-.08-.17.02-2.74.07-5.51.12-8.01l-.12-1.53c0-.07,0-.1.01-.16l.11.39c.16-3.88-.28-6.99-.01-9.96-.09-1.02-.06,2.11-.17,1.19.02-1.78.21-3.65.21-4.2.07-2.45-.2-2.28-.15-4.84-.02.13-.05.2-.08.21,0-1.03.01-2.06.01-3.11.03.03.07.17.08.56,0,.43,0,.64-.03.62.02.58.04,1.34.09.62l-.05-.23c.05-.88.04-3.34.12-2.77-.05-1.34-.08-.57-.1.43.07-2.3,0-3.57.04-5.94-.03.37-.08.72-.08.35.02-1.13.02-1.66,0-1.97.01-.45.02-.94.04-1.36-.04-.18-.06-.59-.06-1.1.04.01.06.05.02-1.32.05-1.45.13-.31.17.26-.09-2.15.06-4.02.07-5.24l.04,1.13c-.02-.67-.02-1.23-.02-1.79l-.09.65c.02-.66.02-1.23.06-1.22-.04-.42-.09-.16-.14-.19.02-.53.04-1.23.06-2.26,0-.1,0-.19,0-.29.03-.05.06.04.07.94-.01-.45-.01-1.01,0-1.67.02-.1.03.09.03.28.11-2.67-.14-1.23-.14-3.99.07.35.13-.64.12-1.09,0,.76-.05.7-.11.28v-.06s-.02-1.22-.02-1.22c0,.23-.02.48-.03.66,0-.05,0-.09-.01-.15.04-1.29,0-1.72-.02-2.22.04-1.1.09-1.99.13-2.02l-.1-4.51c.05.1.07.86.1,1.45-.12-2.41.13-.44.02-2.64,0,.02,0,0,0,0-.04-1.66.1-2.06.03-4.11-.02.17-.04.29-.05.37,0-.66,0-1.33-.02-1.92l.08.36c.02-3.34-.03-7.06-.03-10.81-.04,1.35-.19,1.03-.2-.07l.13-.44c-.02-.17-.03-.17-.04-.13.01-.16.03-.31.04-.45-.02.02-.02-.2-.03-.49.03.13.06.33.07.63l-.04-1.7c.04-.11.06.3.11.39-.08-.69.13-2.93,0-3.94l.04-.1c0-3.74-.04-5.45-.04-8.5-.11-.06-.08-1.25-.18-2.17.04-2.25.13-4.73.12-7.44-.05-1.89-.09-.55-.16-1.41.1-.14.09-2.84.17-1.44-.01-3.25-.02-4.14-.09-8.25-.04.45-.06.95-.1.69-.02-.74.04-1.69.09-1.6v.21c-.14-4.61.32-10.64.11-14.32v.21s-.1-3.8-.1-3.8c.02-1.75.08,1.06.14-.25-.17-4.1.03-6.49-.08-9.86.3-2.63-.01-9.29.18-12.83l-.07.21c-.07-.91.04-1.1.06-1.77-.06.09-.07.99-.1.42-.08-7.72.09-15.96.16-23.88,0-1.3-.06-1.76-.13-2.2.02-.12.04-.32.06-.76-.09.31-.12-.76-.09-2.04l.1.75c-.04-1.42-.06-2.85-.07-4.28l.02.23c-.01-.49-.02-1.23-.02-2.05-.01-3.9.02-7.83-.07-11.59.03.34.07.36.07.91.09-1.21,0-4.46-.08-4.49,0-.89.07-.21.11-.75.06-1.22-.12-3.04-.03-3.69.02-.11.03.34.04.56-.05-.79,0-3.68-.1-2.92.02-.83.01-1.63,0-2.4,0-.2,0-.42,0-.61-.01-1-.02-1.94.01-2.82-.12-1.11.06-3.68-.12-4.03.1.08.13-1.02.13-2.26.02-.72.04-1.44.05-1.97l.02.05c.01-2.46-.03-4.52-.08-6.55-.01-2.04-.17-3.9.03-5.1-.02-1.07-.04-2.07-.06-3.1.03-1.63.03-3.58.04-5.53,0,0,0,.03.01.03,0-.16,0-.28-.01-.43,0-1.6.02-3.18.06-4.55-.03.65-.14-.11-.15-.87.04-.99-.12-2.76.04-2.59v.36c.15-.74.12-2.79.12-4.38l-.17-.22v-.81c.22-4.19-.13-10.32.13-12.46-.05-1.01-.05-2.26-.1-3.27l.11.07c.03-2.79.05-4.19.02-7.64l.08.71c0-1.94-.32-2.47-.33-4.27l.17-.53c0-3.4.15-6.83,0-10.2.02.06.07.16.08.72,0-1.6.12-6.19-.11-5.62.15-.03.02-3.51-.05-5.35l.11.29c-.14-1.57-.18-1.62-.22-3.78.01-.51.09-.44.06.24.06-1.71-.1-1.35-.04-3.41l.07.77c.01-1.75-.03-1.62-.11-2.6-.01-.27-.01-.6-.01-.96,0,0,0,0,0,0,0-.03,0-.06,0-.08,0-1.09.07-2.34.14-2.53-.06-.24-.14-1.21-.11-2.24.04-.14.06.24.07.43.08-2.93-.13-4.39-.01-6.39.04-.04.06-.17.07-.33,0,2.33-.01,4.21-.02,4.03.1.01.12-1.87.26-.35-.08-1.52-.24-4.13-.19-5.97,0-.08.02-.17.04-.23v.19c.02-.42.01-.8,0-1.17.02-.59.03-.95.03-1.52.08-.21.05-2.16.05-3.09-.11.06-.09-1.17-.19-.02,0-.15.01.18.02.8,0,.15,0,.3.01.4v-.07c0,.62,0,1.43,0,2.34-.06-.75-.1-1.53-.04-2.56-.07-.49-.14-1.03-.18-1.33.16-1.27.24-3.74.34-4.07-.06-2.89-.04-6.77-.24-8.6-.03-.82.06-.93.09-1.23.02.47.02,1.03.05,1.29-.05-1.64-.02-4.83-.16-5.24.07-2.05.13,1.16.11-1.66l.05.38c.24-5.53-.37-9.09-.06-15.21-.02.42-.03.64-.05.72.14-7-.11-14.51.11-21.4.04-1.97-.05-2.2-.12-3.41l.12-.41-.14-2.08c-.1-2.94.3-5.01.11-8.73l-.08.46c.02-1.32-.04-4.22.05-3.98-.01-.14-.08-.44-.04-.95l.06-.03-.11-3.28c.05-2.52.25.44.27-3.25-.02-1.37-.18-3.93-.22-3.43,0,.55-.04,1.4-.1,1.44l-.03-1.26s-.06-.11-.09-.17v-.07Zm-.68,435.88v.08c0-.06-.03-.13-.04-.25-.02-.63,0-.83.03-.92,0,.29,0,.64.01,1.09Zm1.09-349.52l-.02-.07c.02.06.04.13.06.25.02.62,0,.83-.03.92,0-.29,0-.64-.01-1.1Zm-.57-27.02c-.03-.51-.06-1.15-.06-1.79.02.49.04.63.06.64.02.5.03.89,0,1.15Zm-.2,7.43s0,0,0,.03c0,0,0,.01,0,.02v-.05Zm-.06,12.75c0-.26-.02-.52-.02-.78.01.06.03.04.05-.15v-.25s.01.16.01.16c0,.19,0,.39,0,.58,0,.25-.01.55-.02.92,0-.08-.01-.22-.02-.35,0-.17,0-.32,0-.5v.37Zm.08,13.86c0,.21.01.45.02.63,0,.12,0,.26-.01.39,0,.03,0,.06,0,.09,0,.08-.01.14-.02.21,0-.38,0-.84,0-1.31Zm-.33,192.59l.07-1.17c0,.38-.01.82-.04,1.42l-.03-.26Zm.53,178.08c-.02-.49-.03-.89,0-1.15.03.52.06,1.15.06,1.79-.02-.49-.04-.63-.06-.64Zm.2-8.59s0,0,0-.02v-.03.05Zm.06-12.74c.01.25.02.52.02.77-.01-.05-.03-.04-.05.16v.25s-.01-.16-.01-.16c0-.19,0-.39,0-.58,0-.26.01-.56.02-.93,0,.08.01.22.02.36,0,.17,0,.32,0,.5v-.36Zm-.08-13.87c0-.21-.01-.44-.02-.62,0-.13,0-.26.01-.4,0-.03,0-.05,0-.08,0-.07,0-.14.02-.21,0,.38,0,.84,0,1.31Zm.33-192.58l-.07,1.16c0-.37.01-.81.04-1.42l.03.26Z"/>
      <path class="cls-1" d="m4.18,141.16c0-.35-.02-.5-.03-.51,0,.32.02.59.03.51Z"/>
      <path class="cls-1" d="m4.1,75.04v-.37c-.02-.11-.03-.21-.06-.3l.06.68Z"/>
      <path class="cls-1" d="m4.26,538.37v-.25s-.05-.07-.07-.07l.07.32Z"/>
      <path class="cls-1" d="m3.91,163.35v-.07c-.01-.37,0-.16,0,.07Z"/>
      <path class="cls-1" d="m5.06,218.07c-.04.37-.06.77-.08,1.19,0,.08.02.19.03.25l.05-1.44Z"/>
      <path class="cls-1" d="m4.04,452.96c0,.09,0,.14,0,.25,0-.13.02-.25.03-.36l-.03-.22v.34Z"/>
      <path class="cls-1" d="m4.25,94.62c0,.06,0,.06-.01.09v.08c0-.07,0-.13.01-.17Z"/>
      <path class="cls-1" d="m4.12,57.15c-.02-1.3-.06.02-.09-.05.04.83.05,1.03.09.05Z"/>
      <polygon class="cls-1" points="3.96 127.93 4 129.62 3.97 128.38 3.96 127.93"/>
      <polygon class="cls-1" points="3.91 377.61 3.94 379.11 3.95 378.41 3.91 377.61"/>
      <path class="cls-1" d="m4.79,413.3c0,.35.02.5.03.51,0-.32-.02-.59-.03-.51Z"/>
      <path class="cls-1" d="m4.87,479.43v.38c.02.1.03.21.05.3l-.05-.68Z"/>
      <path class="cls-1" d="m4.7,16.1v.25s.05.06.07.07l-.07-.32Z"/>
      <path class="cls-1" d="m5.06,391.13v.07c.01.37,0,.16,0-.07Z"/>
      <path class="cls-1" d="m3.91,336.41c.04-.38.06-.78.08-1.19,0-.08-.02-.19-.03-.24l-.05,1.44Z"/>
      <path class="cls-1" d="m4.93,101.51c0-.09,0-.15,0-.26,0,.14-.02.26-.03.37l.04.22v-.34Z"/>
      <path class="cls-1" d="m4.72,459.85c0-.06,0-.06.01-.09v-.08c0,.07,0,.13-.01.17Z"/>
      <path class="cls-1" d="m4.98,497.46c.02,1.31.06-.02.09.05-.04-.83-.05-1.03-.09-.05Z"/>
      <polygon class="cls-1" points="5.01 426.53 4.97 424.85 4.99 426.09 5.01 426.53"/>
      <polygon class="cls-1" points="5.06 176.86 5.03 175.36 5.02 176.06 5.06 176.86"/>
    </g>
    <g>
      <path class="cls-1" d="m7.56,16.11c-.02-.14-.05-.16-.07-.05-.13-.19-.25-.06-.34,2.09l.11,2.17-.09.67v-1.81c-.09,1.01-.01,1.67.04,2.41-.05.17-.08.46-.1.88l.18,2.14c-.07.24-.14-.97-.18.43.08,1,.16-.92.22.72-.09,1.02-.15.7-.08,1.91-.05.16-.08-.09-.1-.58.06,1.08.02,2.84.12,3.41-.11,1.06.02,3.63-.15,3.49.03.27.1,1.3.13,2.2-.04-.08-.1.16-.08-.56-.03.66-.03,1.25-.02,1.79-.01,1.15,0,2.94-.13,2.63.13.92.12,2.81.13,4.67l-.02.13.02.07c0,.81.02,1.62.05,2.33-.02-.14-.05-.4-.04-.61,0,.29-.01.52-.02.73-.04.33-.08.54-.08-.36-.09,2.17,0,.99.05,1.21-.02.31-.04.6-.06.97.1.13.15.99.2,1.9-.02.24-.03.47-.07.55.05.31.07-.11.08-.35.01.23.03.44.04.66-.07.25-.07.65-.06,1.16-.08-.05-.12-1.41-.23-1.05.13-.07.12,2.84.23,2.3-.02.25-.03.41-.04.56-.03-.53-.02-1-.09.13.03.13.03.33.04.49-.02.14-.04.27-.09.52.1.13.11.44.1.85-.03.83-.08,1.72-.06,2.41,0,0,0,.02,0,.02-.02,0-.04.04-.07.15,0,.13.02.2.04.28,0,.18,0,.45.02.93-.06.93-.13-.84-.13-.84,0,2.02.14.96.23,1.4.04,2.41-.11,1.1-.19,1.91.03,1.33.14,2.4.16,3.4,0,.15,0,.31,0,.47-.01.08-.03.16-.05-.04.02.28.03.63.03.98-.01.9-.03,1.8-.04,2.46l-.03-.06c.06.17.09.7.11,1.33,0,.19.01.37.01.55,0,.5.01,1.04.02,1.57h0s0,0,0,0c0,.18,0,.38,0,.56-.03-.02-.05-.12-.07-.21.02-.12.04-.27.06-.34-.07.17-.1-1.39-.1.08-.02-.17-.03-.36-.05-.7v1.43c.05.34.07.79.09,1.72v-.04c0-.3-.01-.59-.08-.23l-.03-.1c0,.08,0,.17,0,.24,0,.04,0,.05-.02.09-.04,2.88.07,3.23.02,6.1.07.57.1.06.16.32-.01.52.01.64.04.78,0,.22,0,.47,0,.66-.04.14-.04.54-.1.44,0-.22.03-.78,0-1.12-.01,1.01-.06,2.22-.12,2.62.03-.06.06.05.09.29-.06.52-.12,1.02-.09,1.99,0,.07-.01.09-.02.21.06.46,0,1.67.12,1.7,0,.56-.06.66-.09.87.04.67.03,2.55.07,3.33-.05.92-.01,1.22.03,1.55v.39s0-.12.01-.29c.02.2.05.45.05.93l-.14.29c.01,2.22.06,4.64.1,7.09h-.02c.02.75.03,1.56.04,2.36-.04-.22-.07-.58-.11.1.02,1.53.02,3.14.01,4.76l-.08-.1c.01.87.03.27.08.16-.02,2.75-.07,5.52-.12,8.01l.12,1.54c0,.07,0,.1-.01.15l-.11-.39c-.16,3.88.28,6.99.01,9.96.09,1.02.06-2.11.17-1.2-.02,1.79-.21,3.65-.21,4.21-.07,2.45.2,2.28.15,4.85.02-.13.05-.21.08-.21,0,1.03-.01,2.06-.01,3.11-.03-.03-.07-.17-.08-.56,0-.43.01-.64.03-.61-.02-.58-.04-1.34-.09-.63l.05.23c-.05.89-.04,3.34-.12,2.76.05,1.35.08.58.1-.43-.07,2.3,0,3.58-.04,5.95.03-.37.08-.72.08-.35-.02,1.12-.01,1.65,0,1.97-.01.44-.02.94-.04,1.35.04.19.06.59.06,1.1-.03,0-.05-.04-.02,1.32-.05,1.44-.13.31-.16-.26.09,2.15-.06,4.01-.07,5.24l-.04-1.13c.02.67.02,1.24.02,1.8l.09-.65c-.02.66-.02,1.23-.06,1.22.04.43.09.17.14.19-.02.53-.04,1.24-.06,2.26,0,.11,0,.19,0,.29-.03.05-.06-.05-.07-.95.02.45.02,1.02,0,1.68-.01.09-.03-.1-.03-.28-.11,2.67.14,1.22.14,3.99-.07-.36-.13.64-.12,1.09,0-.76.05-.69.11-.28v.05s.02,1.23.02,1.23c0-.23.02-.47.03-.65,0,.05,0,.08.01.14-.04,1.29,0,1.72.02,2.22-.04,1.1-.1,2-.13,2.02l.1,4.51c-.05-.1-.07-.86-.1-1.46.12,2.41-.13.44-.02,2.65,0-.02,0,.01,0,0,.04,1.66-.1,2.06-.03,4.11.03-.17.04-.29.05-.37,0,.66,0,1.33.02,1.92l-.08-.35c-.02,3.34.03,7.05.03,10.8.04-1.35.19-1.03.2.07l-.13.44c.02.16.03.17.04.13-.01.15-.03.3-.04.45.02-.02.02.2.03.49-.03-.13-.06-.34-.07-.63l.04,1.7c-.04.1-.06-.3-.11-.4.08.7-.13,2.93,0,3.94l-.04.1c0,3.75.04,5.46.04,8.51.11.06.09,1.25.18,2.17-.04,2.25-.13,4.73-.12,7.44.05,1.9.09.55.16,1.41-.1.15-.1,2.84-.17,1.44.01,3.25.02,4.15.1,8.25.04-.44.06-.94.1-.68.02.75-.04,1.69-.09,1.59v-.2c.14,4.61-.32,10.63-.11,14.31v-.2s.1,3.8.1,3.8c-.02,1.75-.08-1.05-.14.25.17,4.11-.03,6.48.08,9.86-.3,2.63.01,9.29-.18,12.82l.07-.2c.07.91-.04,1.1-.06,1.78.05-.09.06-1,.1-.43.08,7.73-.1,15.96-.16,23.89,0,1.29.06,1.76.13,2.2-.02.12-.04.32-.06.76.09-.31.12.76.09,2.05l-.1-.75c.04,1.41.06,2.84.07,4.28l-.02-.23c.01.49.02,1.22.02,2.05.01,3.91-.02,7.84.07,11.59-.03-.34-.07-.35-.07-.9-.1,1.22,0,4.46.08,4.49,0,.89-.07.21-.11.76-.05,1.21.13,3.04.03,3.69-.02.1-.03-.34-.04-.56.05.79,0,3.68.1,2.92-.02.83-.01,1.63,0,2.4,0,.21,0,.42,0,.62.01,1,.02,1.94-.01,2.82.12,1.11-.06,3.68.12,4.02-.1-.07-.13,1.02-.13,2.27-.02.72-.04,1.44-.05,1.98l-.02-.06c-.02,2.46.03,4.53.08,6.56.02,2.04.17,3.9-.03,5.09.02,1.07.04,2.07.06,3.11-.03,1.63-.03,3.58-.04,5.53,0,0,0-.04-.01-.03,0,.15,0,.28.01.43,0,1.6-.02,3.18-.06,4.54.03-.64.14.12.15.87-.04,1,.12,2.76-.04,2.6v-.36c-.16.74-.12,2.79-.12,4.38l.17.22c0,.27,0,.54,0,.81-.22,4.19.13,10.33-.14,12.46.05,1.02.05,2.26.1,3.28l-.11-.07c-.03,2.79-.05,4.18-.02,7.64l-.08-.71c0,1.95.32,2.49.33,4.28l-.17.53c0,3.41-.15,6.83,0,10.2-.02-.06-.07-.16-.08-.72,0,1.6-.12,6.18.11,5.62-.15.03-.02,3.51.05,5.34l-.11-.29c.14,1.56.18,1.61.22,3.78-.02.51-.09.44-.06-.24-.06,1.7.1,1.35.04,3.41l-.07-.78c-.01,1.76.03,1.63.11,2.6,0,.28.01.61.01.97h0s0,.07,0,.09c0,1.1-.07,2.33-.14,2.53.06.24.14,1.22.11,2.25-.04.14-.06-.25-.07-.44-.08,2.93.13,4.39.01,6.4-.04.03-.06.16-.07.33,0-2.34.01-4.21.02-4.03-.1-.01-.12,1.87-.26.36.08,1.53.24,4.13.19,5.96-.01.08-.02.17-.04.24v-.19c-.02.43-.01.8,0,1.17-.02.58-.03.95-.03,1.52-.08.21-.05,2.16-.05,3.09.11-.07.09,1.17.19.02,0,.15-.01-.18-.02-.8,0-.14,0-.31-.01-.4v.06c0-.62,0-1.42,0-2.33.06.75.1,1.53.04,2.56.07.49.14,1.03.18,1.33-.16,1.27-.24,3.74-.34,4.08.06,2.88.03,6.77.24,8.6.03.82-.06.93-.1,1.24-.02-.48-.02-1.03-.05-1.3.05,1.64.02,4.84.16,5.25-.07,2.05-.13-1.17-.11,1.65l-.05-.38c-.24,5.53.37,9.09.06,15.21.02-.42.03-.64.05-.72-.14,7.01.11,14.51-.11,21.41-.04,1.96.05,2.19.12,3.41l-.12.41.14,2.08c.1,2.94-.3,5-.11,8.73l.08-.46c-.02,1.32.04,4.22-.05,3.98.01.13.08.44.04.96l-.06.02.11,3.28c-.05,2.52-.25-.44-.27,3.25.02,1.37.18,3.93.22,3.43,0-.55.04-1.4.1-1.43l.03,1.26s.06.11.09.17v.07c.02.14.05.16.07.06.13.19.39.19.48-1.95l-.11-2.18.09-.66v1.8c.09-1.01.02-1.67-.04-2.4.05-.16.08-.46.1-.88l-.18-2.14c.07-.24.14.98.18-.44-.08-1-.16.92-.22-.72.09-1.02.15-.7.08-1.92.05-.16.08.1.1.58-.06-1.09-.02-2.84-.12-3.41.11-1.05-.02-3.63.15-3.49-.03-.27-.1-1.3-.13-2.2.04.07.1-.16.08.56.02-.66.03-1.25.02-1.79.01-1.14,0-2.94.13-2.63-.13-.93-.12-2.81-.13-4.68l.02-.13-.02-.07c0-.82-.02-1.62-.05-2.33.02.14.05.39.03.6,0-.29.01-.51.02-.73.04-.34.08-.54.09.37.09-2.18,0-.99-.05-1.22.02-.31.04-.59.05-.96-.1-.13-.15-1-.2-1.91.02-.24.03-.47.07-.55-.05-.3-.06.11-.08.36-.01-.24-.03-.44-.04-.67.07-.25.07-.65.06-1.16.08.06.12,1.41.23,1.05-.13.07-.12-2.84-.23-2.3.02-.25.03-.4.04-.55.03.52.02.99.09-.14-.02-.13-.03-.32-.04-.49.02-.14.04-.26.09-.51-.1-.13-.11-.44-.1-.86.02-.82.08-1.72.06-2.41,0,0,0-.01,0-.02.02,0,.04-.04.08-.15,0-.13-.02-.19-.04-.27,0-.18,0-.44-.02-.93.06-.94.13.83.13.83,0-2.01-.14-.96-.23-1.4-.04-2.41.11-1.09.19-1.9-.03-1.34-.27-2.54-.29-3.54,0-.15,0-.32,0-.47.01-.09.03-.16.05.03-.02-.27-.03-.63-.03-.97.01-.9.03-1.8.04-2.46l.02.06c-.06-.17-.09-.69-.11-1.33,0-.19,0-.37-.01-.54,0-.51-.02-1.04-.02-1.57h0s0-.01,0,0c0-.18,0-.38,0-.55.03.02.05.11.07.2-.02.12-.04.27-.06.35.07-.17.1,1.39.1-.09.02.18.04.37.05.7v-1.42c-.05-.34-.07-.79-.09-1.71v.03c0,.3.01.6.08.23l.03.09c0-.07,0-.16,0-.24,0-.04,0-.04.02-.1.04-2.87-.07-3.23-.02-6.09-.06-.57-.1-.05-.16-.32.01-.52-.01-.65-.04-.79,0-.22-.01-.48-.01-.66.04-.14.04-.54.1-.44,0,.22-.03.79,0,1.12.01-1,.06-2.22.12-2.62-.03.06-.06-.05-.09-.29.06-.52.12-1.02.09-1.99,0-.07.01-.09.02-.21-.06-.46,0-1.68-.12-1.7,0-.56.06-.66.09-.88-.04-.67-.03-2.55-.07-3.33.05-.92.01-1.23-.03-1.56v-.39s0,.13-.01.29c-.03-.21-.05-.45-.05-.93l.14-.29c-.02-2.22-.06-4.64-.1-7.09h.02c-.02-.75-.03-1.57-.03-2.37.03.22.07.59.11-.09-.02-1.53-.02-3.15-.01-4.77l.08.11c-.01-.87-.03-.27-.08-.17.02-2.74.07-5.51.12-8.01l-.12-1.53c0-.07,0-.1.01-.16l.11.39c.16-3.88-.28-6.99-.01-9.96-.09-1.02-.06,2.11-.17,1.19.02-1.78.21-3.65.21-4.2.07-2.45-.2-2.28-.15-4.84-.02.13-.05.2-.08.21,0-1.03.01-2.06.01-3.11.03.03.07.17.08.56,0,.43,0,.64-.03.62.02.58.04,1.34.09.62l-.05-.23c.05-.88.04-3.34.12-2.77-.05-1.34-.08-.57-.1.43.07-2.3,0-3.57.04-5.94-.03.37-.08.72-.08.35.02-1.13.02-1.66,0-1.97.01-.45.02-.94.04-1.36-.04-.18-.06-.59-.06-1.1.04.01.06.05.02-1.32.05-1.45.13-.31.17.26-.09-2.15.06-4.02.07-5.24l.04,1.13c-.02-.67-.02-1.23-.02-1.79l-.09.65c.02-.66.02-1.23.06-1.22-.04-.42-.09-.16-.14-.19.02-.53.04-1.23.06-2.26,0-.1,0-.19,0-.29.03-.05.06.04.07.94-.01-.45-.01-1.01,0-1.67.02-.1.03.09.03.28.11-2.67-.14-1.23-.14-3.99.07.35.13-.64.12-1.09,0,.76-.05.7-.11.28v-.06s-.02-1.22-.02-1.22c0,.23-.02.48-.03.66,0-.05,0-.09-.01-.15.04-1.29,0-1.72-.02-2.22.04-1.1.09-1.99.13-2.02l-.1-4.51c.05.1.07.86.1,1.45-.12-2.41.13-.44.02-2.64,0,.02,0,0,0,0-.04-1.66.1-2.06.03-4.11-.02.17-.04.29-.05.37,0-.66,0-1.33-.02-1.92l.08.36c.02-3.34-.03-7.06-.03-10.81-.04,1.35-.19,1.03-.2-.07l.13-.44c-.02-.17-.03-.17-.04-.13.01-.16.02-.31.04-.45-.02.02-.02-.2-.03-.49.03.13.06.33.07.63l-.04-1.7c.04-.11.06.3.11.39-.08-.69.13-2.93,0-3.94l.04-.1c0-3.74-.04-5.45-.04-8.5-.11-.06-.08-1.25-.18-2.17.04-2.25.13-4.73.12-7.44-.05-1.89-.09-.55-.16-1.41.1-.14.09-2.84.17-1.44-.01-3.25-.02-4.14-.09-8.25-.04.45-.06.95-.1.69-.02-.74.04-1.69.09-1.6v.21c-.14-4.61.32-10.64.11-14.32v.21s-.1-3.8-.1-3.8c.02-1.75.08,1.06.14-.25-.17-4.1.03-6.49-.08-9.86.3-2.63-.01-9.29.18-12.83l-.07.21c-.07-.91.04-1.1.06-1.77-.06.09-.07.99-.1.42-.08-7.72.09-15.96.16-23.88,0-1.3-.06-1.76-.13-2.2.02-.12.04-.32.06-.76-.09.31-.12-.76-.09-2.04l.1.75c-.04-1.42-.06-2.85-.07-4.28l.02.23c-.01-.49-.02-1.23-.02-2.05-.01-3.9.02-7.83-.07-11.59.03.34.07.36.07.91.09-1.21,0-4.46-.08-4.49,0-.89.07-.21.11-.75.06-1.22-.12-3.04-.03-3.69.02-.11.03.34.04.56-.05-.79,0-3.68-.1-2.92.02-.83.01-1.63,0-2.4,0-.2,0-.42,0-.61-.01-1-.02-1.94.01-2.82-.12-1.11.06-3.68-.12-4.03.1.08.13-1.02.13-2.26.02-.72.04-1.44.05-1.97l.02.05c.01-2.46-.03-4.52-.08-6.55-.01-2.04-.17-3.9.03-5.1-.02-1.07-.04-2.07-.06-3.1.03-1.63.03-3.58.04-5.53,0,0,0,.03.01.03,0-.16,0-.28-.01-.43,0-1.6.02-3.18.06-4.55-.03.65-.14-.11-.15-.87.04-.99-.12-2.76.04-2.59v.36c.15-.74.12-2.79.12-4.38l-.17-.22v-.81c.22-4.19-.13-10.32.13-12.46-.05-1.01-.05-2.26-.1-3.27l.11.07c.03-2.79.05-4.19.02-7.64l.08.71c0-1.94-.32-2.47-.33-4.27l.17-.53c0-3.4.15-6.83,0-10.2.02.06.07.16.08.72,0-1.6.12-6.19-.11-5.62.15-.03.02-3.51-.05-5.35l.11.29c-.14-1.57-.18-1.62-.22-3.78.01-.51.09-.44.06.24.06-1.71-.1-1.35-.04-3.41l.07.77c.01-1.75-.03-1.62-.11-2.6-.01-.27-.01-.6-.01-.96,0,0,0,0,0,0,0-.03,0-.06,0-.08,0-1.09.07-2.34.14-2.53-.06-.24-.14-1.21-.11-2.24.04-.14.06.24.07.43.08-2.93-.13-4.39-.01-6.39.04-.04.06-.17.07-.33,0,2.33-.01,4.21-.02,4.03.1.01.12-1.87.26-.35-.07-1.52-.24-4.13-.19-5.97,0-.08.02-.17.04-.23v.19c.02-.42.01-.8,0-1.17.02-.59.03-.95.03-1.52.08-.21.05-2.16.05-3.09-.11.06-.09-1.17-.19-.02,0-.15.01.18.02.8,0,.15,0,.3.01.4v-.07c0,.62,0,1.43,0,2.34-.06-.75-.1-1.53-.04-2.56-.07-.49-.14-1.03-.18-1.33.16-1.27.24-3.74.34-4.07-.06-2.89-.04-6.77-.24-8.6-.03-.82.06-.93.09-1.23.02.47.02,1.03.05,1.29-.05-1.64-.02-4.83-.16-5.24.07-2.05.13,1.16.11-1.66l.05.38c.24-5.53-.37-9.09-.06-15.21-.02.42-.03.64-.05.72.14-7-.11-14.51.11-21.4.04-1.97-.05-2.2-.12-3.41l.12-.41-.14-2.08c-.1-2.94.3-5.01.11-8.73l-.08.46c.02-1.32-.04-4.22.05-3.98-.01-.14-.08-.44-.04-.95l.06-.03-.11-3.28c.05-2.52.25.44.27-3.25-.02-1.37-.18-3.93-.22-3.43,0,.55-.04,1.4-.1,1.44l-.03-1.26s-.06-.11-.09-.17v-.07Zm-.68,435.88v.08c0-.06-.03-.13-.04-.25-.02-.63,0-.83.03-.92,0,.29,0,.64.01,1.09Zm1.09-349.52l-.02-.07c.02.06.04.13.06.25.02.62,0,.83-.03.92,0-.29,0-.64-.01-1.1Zm-.57-27.02c-.03-.51-.06-1.15-.06-1.79.02.49.04.63.06.64.02.5.03.89,0,1.15Zm-.2,7.43s0,0,0,.03c0,0,0,.01,0,.02v-.05Zm-.06,12.75c0-.26-.02-.52-.02-.78.01.06.03.04.05-.15v-.25s.01.16.01.16c0,.19,0,.39,0,.58,0,.25-.01.55-.03.92,0-.08-.01-.22-.02-.35,0-.17,0-.32,0-.5v.37Zm.08,13.86c0,.21.01.45.02.63,0,.12,0,.26-.01.39,0,.03,0,.06,0,.09,0,.08-.01.14-.02.21,0-.38,0-.84,0-1.31Zm-.33,192.59l.07-1.17c0,.38-.01.82-.04,1.42l-.03-.26Zm.53,178.08c-.02-.49-.03-.89,0-1.15.03.52.06,1.15.06,1.79-.02-.49-.04-.63-.06-.64Zm.2-8.59s0,0,0-.02v-.03.05Zm.06-12.74c.01.25.02.52.02.77-.01-.05-.03-.04-.05.16v.25s-.01-.16-.01-.16c0-.19,0-.39,0-.58,0-.26.01-.56.02-.93,0,.08.01.22.02.36,0,.17,0,.32,0,.5v-.36Zm-.08-13.87c0-.21-.01-.44-.03-.62,0-.13,0-.26.01-.4,0-.03,0-.05,0-.08,0-.07,0-.14.02-.21,0,.38,0,.84,0,1.31Zm.33-192.58l-.07,1.16c0-.37.01-.81.04-1.42l.03.26Z"/>
      <path class="cls-1" d="m7.13,141.16c0-.35-.02-.5-.03-.51,0,.32.02.59.03.51Z"/>
      <path class="cls-1" d="m7.05,75.04v-.37c-.02-.11-.03-.21-.06-.3l.06.68Z"/>
      <path class="cls-1" d="m7.21,538.37v-.25s-.05-.07-.07-.07l.07.32Z"/>
      <path class="cls-1" d="m6.86,163.35v-.07c-.01-.37,0-.16,0,.07Z"/>
      <path class="cls-1" d="m8.01,218.07c-.04.37-.06.77-.08,1.19,0,.08.02.19.03.25l.05-1.44Z"/>
      <path class="cls-1" d="m6.99,452.96c0,.09,0,.14,0,.25,0-.13.02-.25.03-.36l-.03-.22v.34Z"/>
      <path class="cls-1" d="m7.2,94.62c0,.06,0,.06-.01.09v.08c0-.07,0-.13.01-.17Z"/>
      <path class="cls-1" d="m7.07,57.15c-.02-1.3-.06.02-.09-.05.04.83.05,1.03.09.05Z"/>
      <polygon class="cls-1" points="6.91 127.93 6.95 129.62 6.92 128.38 6.91 127.93"/>
      <polygon class="cls-1" points="6.86 377.61 6.89 379.11 6.9 378.41 6.86 377.61"/>
      <path class="cls-1" d="m7.74,413.3c0,.35.02.5.03.51,0-.32-.02-.59-.03-.51Z"/>
      <path class="cls-1" d="m7.82,479.43v.38c.02.1.03.21.05.3l-.05-.68Z"/>
      <path class="cls-1" d="m7.65,16.1v.25s.05.06.07.07l-.07-.32Z"/>
      <path class="cls-1" d="m8.01,391.13v.07c.01.37,0,.16,0-.07Z"/>
      <path class="cls-1" d="m6.86,336.41c.04-.38.06-.78.08-1.19,0-.08-.02-.19-.03-.24l-.05,1.44Z"/>
      <path class="cls-1" d="m7.88,101.51c0-.09,0-.15,0-.26,0,.14-.02.26-.03.37l.04.22v-.34Z"/>
      <path class="cls-1" d="m7.67,459.85c0-.06,0-.06.01-.09v-.08c0,.07,0,.13-.01.17Z"/>
      <path class="cls-1" d="m7.93,497.46c.02,1.31.06-.02.09.05-.04-.83-.05-1.03-.09-.05Z"/>
      <polygon class="cls-1" points="7.96 426.53 7.92 424.85 7.94 426.09 7.96 426.53"/>
      <polygon class="cls-1" points="8.01 176.86 7.98 175.36 7.97 176.06 8.01 176.86"/>
    </g>
  </g>
</svg>