<?xml version="1.0" encoding="UTF-8"?>
<svg id="_ライン" data-name="ライン" xmlns="http://www.w3.org/2000/svg" viewBox="0 0 12 817.81">
  <defs>
    <style>
      .cls-1 {
        fill: #f8d388;
      }
    </style>
  </defs>
  <ellipse class="cls-1" cx="6" cy="5.85" rx="5.81" ry="5.85"/>
  <g>
    <g>
      <path class="cls-1" d="m3.72,15.53c-.03-.2-.08-.23-.11-.08-.21-.28-.41-.09-.57,3.06l.18,3.18-.15.99v-2.65c-.15,1.47-.02,2.45.06,3.53-.08.25-.14.67-.17,1.3l.29,3.13c-.12.36-.24-1.43-.31.64.13,1.47.27-1.35.36,1.06-.14,1.49-.26,1.02-.14,2.81-.08.24-.13-.14-.16-.84.09,1.58.04,4.16.2,4.99-.17,1.55.04,5.32-.25,5.12.06.4.16,1.91.21,3.23-.06-.12-.16.23-.12-.82-.04.97-.04,1.84-.03,2.63-.02,1.68,0,4.31-.22,3.86.21,1.35.2,4.11.22,6.84l-.04.19.04.1c.01,1.19.03,2.37.08,3.42-.03-.2-.08-.58-.06-.89,0,.43-.02.76-.03,1.08-.06.49-.13.79-.14-.54-.15,3.18-.01,1.45.08,1.78-.03.46-.07.88-.09,1.42.16.18.25,1.45.32,2.79-.03.35-.05.69-.11.8.08.45.11-.16.13-.51.02.34.05.64.07.97-.11.37-.12.95-.09,1.69-.13-.07-.2-2.07-.38-1.54.21-.1.2,4.17.38,3.37-.03.36-.05.6-.06.82-.05-.77-.04-1.47-.15.19.04.19.05.48.07.72-.03.21-.06.4-.15.76.17.19.18.64.17,1.25-.04,1.21-.13,2.52-.1,3.53,0,0,0,.03,0,.03-.03,0-.07.06-.12.22,0,.18.03.29.07.4,0,.26,0,.66.03,1.36-.1,1.37-.21-1.23-.21-1.23,0,2.96.24,1.41.38,2.06.06,3.54-.18,1.61-.31,2.8.06,1.95.23,3.51.26,4.98,0,.23,0,.46-.01.69-.02.12-.04.23-.08-.06.03.4.04.93.06,1.43-.02,1.32-.04,2.64-.07,3.61l-.04-.09c.11.25.15,1.02.18,1.95,0,.27.02.54.02.8.01.74.02,1.53.04,2.3h0s0,0,0,0c0,.27,0,.56.01.82-.05-.03-.08-.17-.12-.3.04-.17.07-.39.1-.5-.12.25-.17-2.04-.17.12-.03-.25-.06-.53-.09-1.02v2.09c.08.49.12,1.15.15,2.52l-.02-.05c0-.44,0-.87-.11-.34l-.05-.14c0,.12,0,.25,0,.36-.01.05-.02.07-.03.14-.07,4.22.11,4.74.04,8.94.11.84.17.08.27.47-.02.77.02.94.07,1.14,0,.33.02.69.02.97-.07.21-.07.8-.16.64-.01-.33.05-1.14,0-1.64-.02,1.47-.1,3.25-.2,3.84.05-.09.1.07.14.43-.11.77-.19,1.49-.14,2.92-.01.1-.02.14-.03.31.09.67,0,2.45.2,2.5,0,.82-.09.97-.14,1.28.06.98.06,3.74.11,4.88-.08,1.34-.02,1.79.05,2.28l-.02.57c.03.05.03-.18.04-.42.04.29.08.66.08,1.36l-.23.42c.02,3.26.11,6.8.17,10.39h-.03c.03,1.1.05,2.29.06,3.46-.06-.32-.12-.85-.18.14.04,2.24.04,4.61.02,6.98l-.13-.15c.02,1.28.06.39.13.24-.03,4.03-.11,8.09-.2,11.75l.19,2.26c0,.1-.01.14-.02.23l-.18-.57c-.26,5.69.46,10.25.02,14.59.16,1.5.11-3.1.29-1.76-.03,2.63-.34,5.36-.34,6.17-.12,3.59.32,3.35.24,7.11.03-.19.08-.3.13-.31-.01,1.52-.02,3.02-.02,4.56-.06-.04-.11-.25-.13-.82,0-.63.02-.93.04-.9-.03-.85-.06-1.97-.15-.93l.08.34c-.08,1.3-.07,4.9-.2,4.05.08,1.98.13.85.17-.62-.11,3.37,0,5.25-.07,8.72.04-.55.14-1.06.14-.51-.03,1.65-.02,2.42,0,2.89-.02.64-.03,1.37-.07,1.97.07.27.1.87.1,1.62-.06-.01-.09-.06-.03,1.94-.08,2.11-.21.45-.27-.38.15,3.15-.1,5.88-.12,7.69l-.06-1.66c.04.99.04,1.81.04,2.63l.15-.95c-.03.97-.03,1.8-.09,1.78.07.62.15.25.24.27-.03.78-.06,1.81-.1,3.32,0,.16,0,.28.01.43-.05.08-.1-.07-.11-1.39.03.67.03,1.49,0,2.46-.02.14-.04-.14-.06-.41-.18,3.92.24,1.79.24,5.85-.12-.52-.22.94-.2,1.6,0-1.11.09-1.01.18-.4l-.02.08.05,1.8c0-.34.03-.69.06-.96,0,.08.02.12.02.21-.06,1.89,0,2.52.04,3.26-.06,1.61-.16,2.93-.22,2.96l.17,6.62c-.08-.15-.11-1.26-.16-2.14.21,3.54-.21.64-.03,3.88,0-.03.01.02.01,0,.07,2.43-.16,3.02-.05,6.03.04-.25.07-.43.09-.55,0,.97.01,1.95.03,2.81l-.14-.51c-.04,4.9.06,10.34.05,15.84.07-1.97.31-1.52.33.1l-.22.64c.03.23.05.25.07.19-.02.23-.04.45-.07.66.03-.03.04.29.05.72-.05-.19-.09-.5-.12-.92l.07,2.5c-.06.15-.1-.44-.18-.59.13,1.02-.22,4.3.01,5.78l-.06.14c0,5.49.06,8,.07,12.48.19.08.14,1.84.29,3.18-.06,3.29-.21,6.94-.2,10.91.09,2.78.16.81.27,2.07-.17.21-.16,4.16-.28,2.11.02,4.76.03,6.08.16,12.09.07-.64.1-1.38.16-1,.03,1.1-.07,2.48-.15,2.33l-.02-.29c.25,6.76-.51,15.59-.16,20.97l-.02-.29.18,5.57c-.03,2.57-.13-1.54-.23.36.28,6.02-.05,9.51.13,14.46-.5,3.85.02,13.61-.3,18.8l.12-.29c.12,1.34-.07,1.62-.09,2.61.09-.14.11-1.46.17-.62.13,11.33-.16,23.39-.26,35.02-.01,1.89.11,2.58.22,3.22-.03.18-.07.47-.1,1.11.14-.45.2,1.11.15,3l-.16-1.1c.06,2.07.09,4.16.11,6.27l-.03-.34c.02.71.03,1.79.04,3,.02,5.73-.04,11.49.11,16.99-.05-.5-.12-.51-.12-1.32-.16,1.78,0,6.54.13,6.58-.01,1.31-.12.3-.18,1.11-.09,1.77.21,4.46.05,5.4-.03.15-.05-.49-.06-.82.08,1.16-.02,5.39.17,4.28-.03,1.22-.02,2.39-.01,3.51,0,.3,0,.62,0,.91.02,1.46.04,2.85-.02,4.13.21,1.63-.09,5.4.2,5.9-.16-.11-.21,1.5-.21,3.33-.04,1.05-.06,2.11-.08,2.9l-.04-.08c-.03,3.61.04,6.64.13,9.62.03,2.98.28,5.72-.05,7.45.04,1.56.07,3.04.1,4.55-.05,2.39-.06,5.25-.07,8.11,0,0-.01-.06-.02-.04,0,.23.01.4.02.63-.02,2.34-.04,4.66-.1,6.66.05-.94.23.17.26,1.28-.06,1.46.2,4.04-.07,3.81v-.52c-.26,1.08-.19,4.09-.2,6.43l.28.32c0,.4,0,.8,0,1.19-.36,6.14.21,15.14-.23,18.26.08,1.49.08,3.32.17,4.8l-.19-.1c-.05,4.09-.08,6.13-.04,11.19l-.13-1.04c-.02,2.86.54,3.65.55,6.27l-.28.78c0,4.99-.25,10.01,0,14.95-.04-.09-.12-.24-.13-1.05-.01,2.34-.2,9.06.19,8.24-.25.04-.03,5.14.08,7.83l-.18-.43c.23,2.28.3,2.36.36,5.54-.03.74-.15.64-.1-.36-.1,2.5.17,1.98.07,5l-.12-1.15c-.02,2.58.05,2.39.18,3.81.02.41.02.89.02,1.42h0c0,.05,0,.1,0,.13-.02,1.61-.11,3.42-.24,3.7.1.35.24,1.78.19,3.29-.06.2-.1-.36-.12-.64-.13,4.3.21,6.43.02,9.38-.06.05-.09.24-.11.49,0-3.43.02-6.17.03-5.91-.17-.02-.2,2.74-.44.52.13,2.24.4,6.05.32,8.74-.02.12-.03.25-.06.35l-.02-.28c-.02.62,0,1.18.03,1.72-.03.85-.05,1.4-.06,2.22-.14.3-.08,3.17-.09,4.53.19-.1.15,1.71.31.03-.01.22-.02-.26-.03-1.18,0-.21,0-.45-.02-.58l.02.09c0-.91,0-2.09-.01-3.42.1,1.1.17,2.24.07,3.75.12.72.24,1.51.3,1.95-.26,1.86-.41,5.48-.57,5.97.1,4.22.06,9.92.4,12.61.05,1.21-.1,1.36-.16,1.81-.03-.7-.03-1.51-.08-1.9.09,2.41.03,7.1.27,7.7-.11,3-.22-1.72-.19,2.42l-.08-.56c-.4,8.11.61,13.33.1,22.3.03-.62.04-.93.09-1.06-.23,10.28.19,21.27-.18,31.39-.07,2.87.08,3.22.2,5l-.2.6.23,3.05c.16,4.31-.5,7.33-.18,12.79l.13-.68c-.03,1.93.07,6.19-.08,5.83.02.19.14.65.07,1.41l-.1.03.17,4.81c-.08,3.7-.41,34.61-.44,40.01.04,2.01.3,5.77.37,5.03,0-.81.07-2.06.17-2.1l.05,1.85c.05.07.11.16.16.25v.1c.03.21.08.24.12.08.21.28.64.27.8-2.86l-.18-3.19.15-.97v2.63c.15-1.47.03-2.45-.06-3.52.08-.24.14-35.93.17-36.55l-.29-3.13c.12-.36.24,1.43.31-.64-.14-1.47-.27,1.34-.36-1.06.14-1.49.26-1.03.14-2.81.08-.24.13.15.16.85-.09-1.59-.04-4.16-.2-5,.17-1.54-.04-5.32.25-5.12-.05-.4-.16-1.91-.21-3.23.07.11.16-.24.13.82.04-.97.04-1.84.03-2.62.02-1.67,0-4.31.22-3.85-.21-1.36-.2-4.11-.22-6.86l.04-.19-.04-.1c-.01-1.2-.03-2.38-.08-3.42.03.21.08.58.06.88,0-.42.02-.75.03-1.06.06-.49.13-.79.14.54.15-3.19,0-1.45-.08-1.79.03-.46.06-.87.09-1.41-.16-.18-.25-1.46-.32-2.8.03-.35.05-.69.11-.8-.08-.44-.11.16-.13.53-.02-.35-.04-.65-.07-.98.11-.36.12-.96.09-1.7.13.08.21,2.07.39,1.54-.21.1-.2-4.16-.38-3.37.03-.36.05-.59.07-.81.05.76.03,1.45.15-.2-.04-.18-.05-.47-.07-.72.03-.21.06-.38.15-.75-.17-.19-.18-.64-.17-1.26.04-1.21.13-2.52.1-3.53,0,0,0-.02,0-.03.03,0,.07-.05.13-.22,0-.19-.04-.28-.07-.4,0-.27,0-.65-.03-1.36.1-1.37.21,1.22.21,1.22.01-2.95-.24-1.41-.38-2.06-.07-3.54.18-1.6.31-2.78-.05-1.96-.46-3.72-.49-5.19,0-.23,0-.47.01-.69.02-.13.04-.24.08.04-.03-.39-.04-.92-.06-1.42.02-1.32.04-2.63.07-3.61l.04.09c-.11-.25-.15-1.02-.18-1.95,0-.28-.02-.54-.02-.8-.01-.75-.03-1.53-.04-2.3v-.02s0,0,0,.01c0-.27,0-.56-.01-.81.05.03.08.16.12.29-.03.18-.07.4-.1.51.12-.25.17,2.04.17-.13.03.26.06.54.09,1.02v-2.09c-.08-.5-.12-1.15-.15-2.51l.02.04c0,.45,0,.88.11.34l.05.14c0-.11,0-.24,0-.35,0-.05.02-.06.03-.14.07-4.21-.11-4.73-.04-8.93-.11-.83-.17-.08-.27-.47.02-.77-.02-.95-.06-1.15,0-.33-.02-.7-.02-.97.07-.21.07-.8.16-.64.01.33-.05,1.15,0,1.65.02-1.47.1-3.25.2-3.84-.05.08-.11-.08-.15-.43.11-.77.2-1.49.15-2.92,0-.1.02-.13.03-.3-.09-.67,0-2.46-.2-2.5,0-.82.09-.97.15-1.29-.06-.99-.05-3.74-.11-4.88.08-1.35.02-1.8-.05-2.28l.02-.57c-.03-.05-.04.19-.04.42-.04-.3-.08-.66-.08-1.36l.23-.42c-.03-3.26-.11-6.8-.17-10.39h.03c-.03-1.1-.04-2.3-.06-3.47.06.33.12.86.18-.14-.04-2.25-.04-4.62-.02-6.99l.13.16c-.02-1.28-.06-.39-.13-.25.03-4.01.11-8.08.2-11.74l-.19-2.25c0-.11.01-.14.02-.24l.18.58c.26-5.69-.46-10.25-.02-14.59-.16-1.5-.11,3.09-.29,1.75.03-2.61.34-5.35.34-6.16.12-3.59-.32-3.34-.24-7.1-.03.19-.08.29-.13.3.01-1.52.02-3.02.02-4.56.06.05.11.25.13.82,0,.63-.02.93-.04.91.03.85.06,1.96.15.91l-.08-.34c.08-1.3.07-4.9.2-4.06-.08-1.97-.13-.84-.17.62.11-3.37,0-5.24.07-8.7-.04.55-.14,1.05-.14.51.03-1.65.03-2.43,0-2.89.02-.66.03-1.38.06-1.99-.07-.26-.1-.86-.1-1.62.06.02.09.07.03-1.93.08-2.12.21-.45.27.38-.15-3.15.09-5.89.12-7.69l.06,1.65c-.04-.99-.04-1.8-.04-2.63l-.15.95c.03-.97.03-1.8.09-1.78-.06-.62-.15-.24-.24-.28.03-.77.06-1.8.1-3.31,0-.15-.01-.27-.01-.42.05-.08.1.06.11,1.38-.02-.66-.02-1.47,0-2.45.03-.15.04.13.06.41.18-3.92-.24-1.8-.24-5.85.12.51.22-.94.19-1.6,0,1.11-.09,1.02-.18.41l.02-.09-.05-1.79c0,.34-.03.7-.06.97,0-.08-.01-.13-.02-.22.07-1.89,0-2.52-.04-3.26.06-1.62.16-2.92.22-2.96l-.16-6.61c.08.14.11,1.26.16,2.13-.21-3.53.22-.64.03-3.87,0,.03,0-.01-.01,0-.07-2.43.16-3.02.05-6.02-.04.25-.07.42-.09.55,0-.97-.01-1.95-.03-2.81l.14.52c.04-4.9-.06-10.34-.05-15.84-.07,1.97-.31,1.52-.33-.1l.22-.64c-.03-.25-.05-.25-.07-.19.02-.23.04-.45.07-.66-.03.03-.04-.29-.05-.72.05.18.09.49.12.93l-.07-2.5c.07-.16.1.44.18.58-.13-1.01.22-4.29-.01-5.78l.07-.14c0-5.49-.07-7.99-.07-12.46-.19-.09-.14-1.84-.29-3.18.06-3.29.21-6.94.2-10.91-.09-2.77-.16-.81-.27-2.06.17-.21.16-4.16.28-2.11-.02-4.76-.03-6.08-.16-12.1-.07.66-.1,1.39-.16,1.01-.03-1.09.07-2.48.15-2.34l.02.3c-.25-6.76.51-15.6.17-20.99l.02.3-.18-5.57c.03-2.57.12,1.55.23-.36-.28-6.01.05-9.51-.13-14.45.5-3.86-.02-13.62.3-18.81l-.12.3c-.12-1.33.07-1.61.1-2.6-.09.14-.11,1.45-.17.62-.13-11.32.16-23.39.26-35.01.02-1.9-.11-2.58-.22-3.23.03-.18.07-.47.1-1.11-.14.46-.2-1.11-.15-3l.16,1.1c-.07-2.08-.1-4.18-.12-6.28l.03.34c-.02-.72-.03-1.8-.04-3.01-.02-5.72.04-11.47-.11-16.99.05.5.12.52.12,1.33.16-1.78,0-6.54-.13-6.58.01-1.3.11-.3.18-1.1.09-1.78-.21-4.46-.05-5.41.03-.16.05.49.07.82-.08-1.16.01-5.4-.17-4.28.03-1.22.02-2.39.01-3.52,0-.29,0-.61-.01-.89-.02-1.46-.04-2.85.02-4.14-.21-1.63.09-5.39-.2-5.91.16.12.22-1.49.21-3.32.04-1.06.07-2.11.08-2.89l.04.07c.02-3.61-.05-6.62-.13-9.61-.02-2.99-.28-5.72.05-7.47-.04-1.56-.07-3.03-.1-4.55.05-2.39.06-5.25.07-8.11,0,0,.01.05.02.05,0-.23-.01-.4-.02-.63.02-2.35.04-4.66.1-6.67-.06.95-.23-.16-.26-1.27.06-1.45-.2-4.04.07-3.8v.52c.26-1.09.19-4.09.2-6.43l-.29-.33v-1.19c.36-6.14-.21-15.13.22-18.26-.08-1.48-.08-3.31-.17-4.79l.19.1c.05-4.09.08-6.15.04-11.21l.13,1.04c.02-2.85-.54-3.63-.54-6.26l.28-.77c0-4.99.25-10.01,0-14.95.04.09.12.23.13,1.06,0-2.35.2-9.07-.19-8.24.25-.05.03-5.14-.08-7.84l.18.43c-.23-2.3-.3-2.37-.36-5.55.02-.75.15-.64.1.36.1-2.5-.17-1.98-.07-4.99l.12,1.13c.02-2.57-.05-2.37-.18-3.81-.02-.39-.02-.88-.02-1.41,0,0,0,0,0,0,0-.04,0-.09,0-.12.02-1.6.11-3.43.24-3.7-.1-.36-.24-1.78-.19-3.29.06-.21.1.35.12.63.13-4.29-.21-6.43-.02-9.37.06-.05.09-.25.11-.49,0,3.42-.02,6.17-.03,5.9.17.02.2-2.74.44-.51-.12-2.24-.4-6.06-.32-8.74.02-.12.03-.25.06-.34l.02.27c.02-.62,0-1.18-.03-1.71.03-.86.05-1.4.05-2.23.14-.3.08-3.16.09-4.53-.19.09-.15-1.71-.31-.03.01-.22.02.26.03,1.18,0,.21,0,.45.02.59l-.02-.1c0,.91,0,2.09,0,3.43-.09-1.1-.17-2.25-.07-3.76-.12-.72-.24-1.51-.3-1.95.26-1.87.41-5.48.57-5.97-.1-4.23-.06-9.92-.4-12.61-.05-1.21.1-1.36.16-1.8.03.69.03,1.51.08,1.89-.09-2.4-.03-7.08-.27-7.68.11-3,.22,1.71.19-2.43l.08.56c.4-8.1-.61-13.33-.1-22.3-.03.62-.05.93-.09,1.05.23-10.27-.18-21.27.18-31.38.07-2.89-.08-3.22-.2-5l.2-.6-.23-3.05c-.16-4.31.5-7.34.19-12.79l-.14.67c.03-1.94-.07-6.18.08-5.83-.02-.2-.14-.65-.07-1.4l.11-.05-.18-4.8c.08-3.7.41.64.44-4.76-.04-2.01-.3-5.77-.37-5.03,0,.81-.07,2.06-.17,2.11l-.05-1.85c-.05-.06-.11-.16-.16-.25v-.1Zm-1.12,638.98l.02.11c-.04-.08-.07-.19-.09-.37-.03-.92.01-1.22.05-1.34,0,.43.01.93.02,1.6Zm1.81-512.37l-.03-.1c.04.09.07.19.09.37.03.91-.01,1.22-.05,1.34,0-.43-.01-.93-.02-1.61Zm-.94-39.61c-.05-.75-.1-1.69-.1-2.62.03.71.07.92.1.93.03.73.05,1.31,0,1.69Zm-.33,10.9s0,0,0,.04c0,.01,0,.02,0,.03v-.08Zm-.1,18.7c-.02-.38-.03-.77-.04-1.15.02.08.05.06.09-.22v-.36s.02.23.02.23c.01.28,0,.57.02.85,0,.37-.02.81-.04,1.34-.02-.12-.02-.33-.04-.51,0-.25,0-.47,0-.73l-.02.54Zm.14,20.31c.01.31.02.66.04.93,0,.18,0,.38-.02.57,0,.05,0,.09,0,.13,0,.11-.02.21-.03.3,0-.56,0-1.23,0-1.93Zm-.54,282.32l.12-1.71c0,.56-.02,1.21-.06,2.09l-.06-.38Zm.89,261.05c-.03-.72-.05-1.3,0-1.68.06.76.1,1.69.1,2.62-.03-.71-.07-.92-.1-.94Zm.33-12.59s0,0,0-.03v-.05.08Zm.1-18.68c.02.37.03.77.04,1.12-.02-.08-.05-.05-.08.23l-.02.37v-.24c-.02-.28-.02-.57-.03-.84,0-.38.02-.82.04-1.36.01.12.02.33.03.52,0,.25,0,.47,0,.73l.02-.53Zm-.14-20.33c-.01-.3-.02-.64-.04-.91,0-.19,0-.38.02-.58,0-.04,0-.08,0-.12,0-.1.02-.21.03-.3,0,.56,0,1.23,0,1.92Zm.54-282.31l-.12,1.7c0-.55.02-1.19.06-2.08l.05.38Z"/>
      <path class="cls-1" d="m3.01,198.85c0-.51-.03-.73-.05-.74.02.47.03.86.05.74Z"/>
      <path class="cls-1" d="m2.87,101.92v-.55c-.03-.16-.06-.3-.09-.45l.09.99Z"/>
      <path class="cls-1" d="m3.15,816.38v-.36s-.08-.1-.11-.1l.11.47Z"/>
      <path class="cls-1" d="m2.56,231.36v-.1c-.02-.55-.01-.23,0,.1Z"/>
      <path class="cls-1" d="m4.47,311.58c-.07.55-.1,1.13-.13,1.74.01.12.03.27.05.36l.08-2.11Z"/>
      <path class="cls-1" d="m2.78,655.92c0,.14.01.21.01.37.02-.18.03-.37.04-.53l-.06-.33v.49Z"/>
      <path class="cls-1" d="m3.13,130.62c-.01.08-.02.08-.02.13v.12c0-.1.01-.19.02-.25Z"/>
      <path class="cls-1" d="m2.91,75.68c-.04-1.91-.11.03-.15-.07.07,1.22.09,1.51.15.07Z"/>
      <polygon class="cls-1" points="2.64 179.45 2.7 181.92 2.67 180.1 2.64 179.45"/>
      <polygon class="cls-1" points="2.55 545.47 2.61 547.66 2.62 546.63 2.55 545.47"/>
      <path class="cls-1" d="m4.01,597.78c0,.51.03.73.05.75-.02-.47-.03-.86-.05-.75Z"/>
      <path class="cls-1" d="m4.15,694.72v.56c.03.15.06.3.09.44l-.09-.99Z"/>
      <path class="cls-1" d="m3.88,15.52v.36s.08.09.11.1l-.11-.47Z"/>
      <path class="cls-1" d="m4.47,565.28v.1c.02.55.01.23,0-.1Z"/>
      <path class="cls-1" d="m2.56,485.07c.07-.56.1-1.14.13-1.75-.01-.12-.03-.27-.05-.36l-.08,2.11Z"/>
      <path class="cls-1" d="m4.25,140.72c0-.13-.01-.21-.01-.38-.02.2-.03.38-.04.54l.06.33v-.49Z"/>
      <path class="cls-1" d="m3.9,666.02c0-.09.02-.09.02-.13v-.12c0,.1-.01.19-.02.25Z"/>
      <path class="cls-1" d="m4.34,721.15c.04,1.91.11-.03.15.08-.07-1.22-.09-1.51-.15-.08Z"/>
      <polygon class="cls-1" points="4.39 617.18 4.32 614.71 4.36 616.54 4.39 617.18"/>
      <polygon class="cls-1" points="4.47 251.17 4.41 248.97 4.4 250.01 4.47 251.17"/>
    </g>
    <g>
      <path class="cls-1" d="m8.62,15.53c-.03-.2-.08-.23-.11-.08-.21-.28-.41-.09-.57,3.06l.18,3.18-.15.99v-2.65c-.15,1.47-.02,2.45.06,3.53-.08.25-.14.67-.17,1.3l.29,3.13c-.12.36-.24-1.43-.31.64.13,1.47.27-1.35.36,1.06-.14,1.49-.26,1.02-.14,2.81-.08.24-.13-.14-.16-.84.09,1.58.04,4.16.2,4.99-.17,1.55.04,5.32-.25,5.12.06.4.16,1.91.21,3.23-.06-.12-.16.23-.12-.82-.04.97-.04,1.84-.03,2.63-.02,1.68,0,4.31-.22,3.86.21,1.35.2,4.11.22,6.84l-.04.19.04.1c.01,1.19.03,2.37.08,3.42-.03-.2-.08-.58-.06-.89,0,.43-.02.76-.03,1.08-.06.49-.13.79-.14-.54-.15,3.18-.01,1.45.08,1.78-.03.46-.07.88-.09,1.42.16.18.25,1.45.32,2.79-.03.35-.05.69-.11.8.08.45.11-.16.13-.51.02.34.05.64.07.97-.11.37-.12.95-.09,1.69-.13-.07-.2-2.07-.38-1.54.21-.1.2,4.17.38,3.37-.03.36-.05.6-.06.82-.05-.77-.04-1.47-.15.19.04.19.05.48.07.72-.03.21-.06.4-.15.76.17.19.18.64.17,1.25-.04,1.21-.13,2.52-.1,3.53,0,0,0,.03,0,.03-.03,0-.07.06-.12.22,0,.18.03.29.07.4,0,.26,0,.66.03,1.36-.1,1.37-.21-1.23-.21-1.23,0,2.96.24,1.41.38,2.06.06,3.54-.18,1.61-.31,2.8.06,1.95.23,3.51.26,4.98,0,.23,0,.46-.01.69-.02.12-.04.23-.08-.06.03.4.04.93.06,1.43-.02,1.32-.04,2.64-.07,3.61l-.04-.09c.11.25.15,1.02.18,1.95,0,.27.02.54.02.8.01.74.02,1.53.04,2.3h0s0,0,0,0c0,.27,0,.56.01.82-.05-.03-.08-.17-.12-.3.04-.17.07-.39.1-.5-.12.25-.17-2.04-.17.12-.03-.25-.06-.53-.09-1.02v2.09c.08.49.12,1.15.15,2.52l-.02-.05c0-.44,0-.87-.11-.34l-.05-.14c0,.12,0,.25,0,.36-.01.05-.02.07-.03.14-.07,4.22.11,4.74.04,8.94.11.84.17.08.27.47-.02.77.02.94.07,1.14,0,.33.02.69.02.97-.07.21-.07.8-.16.64-.01-.33.05-1.14,0-1.64-.02,1.47-.1,3.25-.2,3.84.05-.09.1.07.14.43-.11.77-.19,1.49-.14,2.92-.01.1-.02.14-.03.31.09.67,0,2.45.2,2.5,0,.82-.09.97-.14,1.28.06.98.06,3.74.11,4.88-.08,1.34-.02,1.79.05,2.28l-.02.57c.03.05.03-.18.04-.42.04.29.08.66.08,1.36l-.23.42c.02,3.26.11,6.8.17,10.39h-.03c.03,1.1.05,2.29.06,3.46-.06-.32-.12-.85-.18.14.04,2.24.04,4.61.02,6.98l-.13-.15c.02,1.28.06.39.13.24-.03,4.03-.11,8.09-.2,11.75l.19,2.26c0,.1-.01.14-.02.23l-.18-.57c-.26,5.69.46,10.25.02,14.59.16,1.5.11-3.1.29-1.76-.03,2.63-.34,5.36-.34,6.17-.12,3.59.32,3.35.24,7.11.03-.19.08-.3.13-.31-.01,1.52-.02,3.02-.02,4.56-.06-.04-.11-.25-.13-.82,0-.63.02-.93.04-.9-.03-.85-.06-1.97-.15-.93l.08.34c-.08,1.3-.07,4.9-.2,4.05.08,1.98.13.85.17-.62-.11,3.37,0,5.25-.07,8.72.04-.55.14-1.06.14-.51-.03,1.65-.02,2.42,0,2.89-.02.64-.03,1.37-.07,1.97.07.27.1.87.1,1.62-.06-.01-.09-.06-.03,1.94-.08,2.11-.21.45-.27-.38.15,3.15-.1,5.88-.12,7.69l-.06-1.66c.04.99.04,1.81.04,2.63l.15-.95c-.03.97-.03,1.8-.09,1.78.07.62.15.25.24.27-.03.78-.06,1.81-.1,3.32,0,.16,0,.28.01.43-.05.08-.1-.07-.11-1.39.03.67.03,1.49,0,2.46-.02.14-.04-.14-.06-.41-.18,3.92.24,1.79.24,5.85-.12-.52-.22.94-.2,1.6,0-1.11.09-1.01.18-.4l-.02.08.05,1.8c0-.34.03-.69.06-.96,0,.08.02.12.02.21-.06,1.89,0,2.52.04,3.26-.06,1.61-.16,2.93-.22,2.96l.17,6.62c-.08-.15-.11-1.26-.16-2.14.21,3.54-.21.64-.03,3.88,0-.03.01.02.01,0,.07,2.43-.16,3.02-.05,6.03.04-.25.07-.43.09-.55,0,.97.01,1.95.03,2.81l-.14-.51c-.04,4.9.06,10.34.05,15.84.07-1.97.31-1.52.33.1l-.22.64c.03.23.05.25.07.19-.02.23-.04.45-.07.66.03-.03.04.29.05.72-.05-.19-.09-.5-.12-.92l.07,2.5c-.06.15-.1-.44-.18-.59.13,1.02-.22,4.3.01,5.78l-.06.14c0,5.49.06,8,.07,12.48.19.08.14,1.84.29,3.18-.06,3.29-.21,6.94-.2,10.91.09,2.78.16.81.27,2.07-.17.21-.16,4.16-.28,2.11.02,4.76.03,6.08.16,12.09.07-.64.1-1.38.16-1,.03,1.1-.07,2.48-.15,2.33l-.02-.29c.25,6.76-.51,15.59-.16,20.97l-.02-.29.18,5.57c-.03,2.57-.13-1.54-.23.36.28,6.02-.05,9.51.13,14.46-.5,3.85.02,13.61-.3,18.8l.12-.29c.12,1.34-.07,1.62-.09,2.61.09-.14.11-1.46.17-.62.13,11.33-.16,23.39-.26,35.02-.01,1.89.11,2.58.22,3.22-.03.18-.07.47-.1,1.11.14-.45.2,1.11.15,3l-.16-1.1c.06,2.07.09,4.16.11,6.27l-.03-.34c.02.71.03,1.79.04,3,.02,5.73-.04,11.49.11,16.99-.05-.5-.12-.51-.12-1.32-.16,1.78,0,6.54.13,6.58-.01,1.31-.12.3-.18,1.11-.09,1.77.21,4.46.05,5.4-.03.15-.05-.49-.06-.82.08,1.16-.02,5.39.17,4.28-.03,1.22-.02,2.39-.01,3.51,0,.3,0,.62,0,.91.02,1.46.04,2.85-.02,4.13.21,1.63-.09,5.4.2,5.9-.16-.11-.21,1.5-.21,3.33-.04,1.05-.06,2.11-.08,2.9l-.04-.08c-.03,3.61.04,6.64.13,9.62.03,2.98.28,5.72-.05,7.45.04,1.56.07,3.04.1,4.55-.05,2.39-.06,5.25-.07,8.11,0,0-.01-.06-.02-.04,0,.23.01.4.02.63-.02,2.34-.04,4.66-.1,6.66.05-.94.23.17.26,1.28-.06,1.46.2,4.04-.07,3.81v-.52c-.26,1.08-.19,4.09-.2,6.43l.28.32c0,.4,0,.8,0,1.19-.36,6.14.21,15.14-.23,18.26.08,1.49.08,3.32.17,4.8l-.19-.1c-.05,4.09-.08,6.13-.04,11.19l-.13-1.04c-.02,2.86.54,3.65.55,6.27l-.28.78c0,4.99-.25,10.01,0,14.95-.04-.09-.12-.24-.13-1.05-.01,2.34-.2,9.06.19,8.24-.25.04-.03,5.14.08,7.83l-.18-.43c.23,2.28.3,2.36.36,5.54-.03.74-.15.64-.1-.36-.1,2.5.17,1.98.07,5l-.12-1.15c-.02,2.58.05,2.39.18,3.81.02.41.02.89.02,1.42h0c0,.05,0,.1,0,.13-.02,1.61-.11,3.42-.24,3.7.1.35.24,1.78.19,3.29-.06.2-.1-.36-.12-.64-.13,4.3.21,6.43.02,9.38-.06.05-.09.24-.11.49,0-3.43.02-6.17.03-5.91-.17-.02-.2,2.74-.44.52.13,2.24.4,6.05.32,8.74-.02.12-.03.25-.06.35l-.02-.28c-.02.62,0,1.18.03,1.72-.03.85-.05,1.4-.06,2.22-.14.3-.08,3.17-.09,4.53.19-.1.15,1.71.31.03-.01.22-.02-.26-.03-1.18,0-.21,0-.45-.02-.58l.02.09c0-.91,0-2.09-.01-3.42.1,1.1.17,2.24.07,3.75.12.72.24,1.51.3,1.95-.26,1.86-.41,5.48-.57,5.97.1,4.22.06,9.92.4,12.61.05,1.21-.1,1.36-.16,1.81-.03-.7-.03-1.51-.08-1.9.09,2.41.03,7.1.27,7.7-.11,3-.22-1.72-.19,2.42l-.08-.56c-.4,8.11.61,13.33.1,22.3.03-.62.04-.93.09-1.06-.23,10.28.19,21.27-.18,31.39-.07,2.87.08,3.22.2,5l-.2.6.23,3.05c.16,4.31-.5,7.33-.18,12.79l.13-.68c-.03,1.93.07,6.19-.08,5.83.02.19.14.65.07,1.41l-.1.03.17,4.81c-.08,3.7-.41,34.61-.44,40.01.04,2.01.3,5.77.37,5.03,0-.81.07-2.06.17-2.1l.05,1.85c.05.07.11.16.16.25v.1c.03.21.08.24.12.08.21.28.64.27.8-2.86l-.18-3.19.15-.97v2.63c.15-1.47.03-2.45-.06-3.52.08-.24.14-35.93.17-36.55l-.29-3.13c.12-.36.24,1.43.31-.64-.14-1.47-.27,1.34-.36-1.06.14-1.49.26-1.03.14-2.81.08-.24.13.15.16.85-.09-1.59-.04-4.16-.2-5,.17-1.54-.04-5.32.25-5.12-.05-.4-.16-1.91-.21-3.23.07.11.16-.24.13.82.04-.97.04-1.84.03-2.62.02-1.67,0-4.31.22-3.85-.21-1.36-.2-4.11-.22-6.86l.04-.19-.04-.1c-.01-1.2-.03-2.38-.08-3.42.03.21.08.58.06.88,0-.42.02-.75.03-1.06.06-.49.13-.79.14.54.15-3.19,0-1.45-.08-1.79.03-.46.06-.87.09-1.41-.16-.18-.25-1.46-.32-2.8.03-.35.05-.69.11-.8-.08-.44-.11.16-.13.53-.02-.35-.04-.65-.07-.98.11-.36.12-.96.09-1.7.13.08.21,2.07.39,1.54-.21.1-.2-4.16-.38-3.37.03-.36.05-.59.07-.81.05.76.03,1.45.15-.2-.04-.18-.05-.47-.07-.72.03-.21.06-.38.15-.75-.17-.19-.18-.64-.17-1.26.04-1.21.13-2.52.1-3.53,0,0,0-.02,0-.03.03,0,.07-.05.13-.22,0-.19-.04-.28-.07-.4,0-.27,0-.65-.03-1.36.1-1.37.21,1.22.21,1.22.01-2.95-.24-1.41-.38-2.06-.07-3.54.18-1.6.31-2.78-.05-1.96-.46-3.72-.49-5.19,0-.23,0-.47.01-.69.02-.13.04-.24.08.04-.03-.39-.04-.92-.06-1.42.02-1.32.04-2.63.07-3.61l.04.09c-.11-.25-.15-1.02-.18-1.95,0-.28-.02-.54-.02-.8-.01-.75-.03-1.53-.04-2.3v-.02s0,0,0,.01c0-.27,0-.56-.01-.81.05.03.08.16.12.29-.03.18-.07.4-.1.51.12-.25.17,2.04.17-.13.03.26.06.54.09,1.02v-2.09c-.08-.5-.12-1.15-.15-2.51l.02.04c0,.45,0,.88.11.34l.05.14c0-.11,0-.24,0-.35,0-.05.02-.06.03-.14.07-4.21-.11-4.73-.04-8.93-.11-.83-.17-.08-.27-.47.02-.77-.02-.95-.06-1.15,0-.33-.02-.7-.02-.97.07-.21.07-.8.16-.64.01.33-.05,1.15,0,1.65.02-1.47.1-3.25.2-3.84-.05.08-.11-.08-.15-.43.11-.77.2-1.49.15-2.92,0-.1.02-.13.03-.3-.09-.67,0-2.46-.2-2.5,0-.82.09-.97.15-1.29-.06-.99-.05-3.74-.11-4.88.08-1.35.02-1.8-.05-2.28l.02-.57c-.03-.05-.04.19-.04.42-.04-.3-.08-.66-.08-1.36l.23-.42c-.03-3.26-.11-6.8-.17-10.39h.03c-.03-1.1-.04-2.3-.06-3.47.06.33.12.86.18-.14-.04-2.25-.04-4.62-.02-6.99l.13.16c-.02-1.28-.06-.39-.13-.25.03-4.01.11-8.08.2-11.74l-.19-2.25c0-.11.01-.14.02-.24l.18.58c.26-5.69-.46-10.25-.02-14.59-.16-1.5-.11,3.09-.29,1.75.03-2.61.34-5.35.34-6.16.12-3.59-.32-3.34-.24-7.1-.03.19-.08.29-.13.3.01-1.52.02-3.02.02-4.56.06.05.11.25.13.82,0,.63-.02.93-.04.91.03.85.06,1.96.15.91l-.08-.34c.08-1.3.07-4.9.2-4.06-.08-1.97-.13-.84-.17.62.11-3.37,0-5.24.07-8.7-.04.55-.14,1.05-.14.51.03-1.65.03-2.43,0-2.89.02-.66.03-1.38.06-1.99-.07-.26-.1-.86-.1-1.62.06.02.09.07.03-1.93.08-2.12.21-.45.27.38-.15-3.15.09-5.89.12-7.69l.06,1.65c-.04-.99-.04-1.8-.04-2.63l-.15.95c.03-.97.03-1.8.09-1.78-.06-.62-.15-.24-.24-.28.03-.77.06-1.8.1-3.31,0-.15-.01-.27-.01-.42.05-.08.1.06.11,1.38-.02-.66-.02-1.47,0-2.45.03-.15.04.13.06.41.18-3.92-.24-1.8-.24-5.85.12.51.22-.94.19-1.6,0,1.11-.09,1.02-.18.41l.02-.09-.05-1.79c0,.34-.03.7-.06.97,0-.08-.01-.13-.02-.22.07-1.89,0-2.52-.04-3.26.06-1.62.16-2.92.22-2.96l-.16-6.61c.08.14.11,1.26.16,2.13-.21-3.53.22-.64.03-3.87,0,.03,0-.01-.01,0-.07-2.43.16-3.02.05-6.02-.04.25-.07.42-.09.55,0-.97-.01-1.95-.03-2.81l.14.52c.04-4.9-.06-10.34-.05-15.84-.07,1.97-.31,1.52-.33-.1l.22-.64c-.03-.25-.05-.25-.07-.19.02-.23.04-.45.07-.66-.03.03-.04-.29-.05-.72.05.18.09.49.12.93l-.07-2.5c.07-.16.1.44.18.58-.13-1.01.22-4.29-.01-5.78l.07-.14c0-5.49-.07-7.99-.07-12.46-.19-.09-.14-1.84-.29-3.18.06-3.29.21-6.94.2-10.91-.09-2.77-.16-.81-.27-2.06.17-.21.16-4.16.28-2.11-.02-4.76-.03-6.08-.16-12.1-.07.66-.1,1.39-.16,1.01-.03-1.09.07-2.48.15-2.34l.02.3c-.25-6.76.51-15.6.17-20.99l.02.3-.18-5.57c.03-2.57.12,1.55.23-.36-.28-6.01.05-9.51-.13-14.45.5-3.86-.02-13.62.3-18.81l-.12.3c-.12-1.33.07-1.61.1-2.6-.09.14-.11,1.45-.17.62-.13-11.32.16-23.39.26-35.01.02-1.9-.11-2.58-.22-3.23.03-.18.07-.47.1-1.11-.14.46-.2-1.11-.15-3l.16,1.1c-.07-2.08-.1-4.18-.12-6.28l.03.34c-.02-.72-.03-1.8-.04-3.01-.02-5.72.04-11.47-.11-16.99.05.5.12.52.12,1.33.16-1.78,0-6.54-.13-6.58.01-1.3.11-.3.18-1.1.09-1.78-.21-4.46-.05-5.41.03-.16.05.49.07.82-.08-1.16.01-5.4-.17-4.28.03-1.22.02-2.39.01-3.52,0-.29,0-.61-.01-.89-.02-1.46-.04-2.85.02-4.14-.21-1.63.09-5.39-.2-5.91.16.12.22-1.49.21-3.32.04-1.06.07-2.11.08-2.89l.04.07c.02-3.61-.05-6.62-.13-9.61-.02-2.99-.28-5.72.05-7.47-.04-1.56-.07-3.03-.1-4.55.05-2.39.06-5.25.07-8.11,0,0,.01.05.02.05,0-.23-.01-.4-.02-.63.02-2.35.04-4.66.1-6.67-.06.95-.23-.16-.26-1.27.06-1.45-.2-4.04.07-3.8v.52c.26-1.09.19-4.09.2-6.43l-.29-.33v-1.19c.36-6.14-.21-15.13.22-18.26-.08-1.48-.08-3.31-.17-4.79l.19.1c.05-4.09.08-6.15.04-11.21l.13,1.04c.02-2.85-.54-3.63-.54-6.26l.28-.77c0-4.99.25-10.01,0-14.95.04.09.12.23.13,1.06,0-2.35.2-9.07-.19-8.24.25-.05.03-5.14-.08-7.84l.18.43c-.23-2.3-.3-2.37-.36-5.55.02-.75.15-.64.1.36.1-2.5-.17-1.98-.07-4.99l.12,1.13c.02-2.57-.05-2.37-.18-3.81-.02-.39-.02-.88-.02-1.41,0,0,0,0,0,0,0-.04,0-.09,0-.12.02-1.6.11-3.43.24-3.7-.1-.36-.24-1.78-.19-3.29.06-.21.1.35.12.63.13-4.29-.21-6.43-.02-9.37.06-.05.09-.25.11-.49,0,3.42-.02,6.17-.03,5.9.17.02.2-2.74.44-.51-.12-2.24-.4-6.06-.32-8.74.02-.12.03-.25.06-.34l.02.27c.02-.62,0-1.18-.03-1.71.03-.86.05-1.4.05-2.23.14-.3.08-3.16.09-4.53-.19.09-.15-1.71-.31-.03.01-.22.02.26.03,1.18,0,.21,0,.45.02.59l-.02-.1c0,.91,0,2.09,0,3.43-.09-1.1-.17-2.25-.07-3.76-.12-.72-.24-1.51-.3-1.95.26-1.87.41-5.48.57-5.97-.1-4.23-.06-9.92-.4-12.61-.05-1.21.1-1.36.16-1.8.03.69.03,1.51.08,1.89-.09-2.4-.03-7.08-.27-7.68.11-3,.22,1.71.19-2.43l.08.56c.4-8.1-.61-13.33-.1-22.3-.03.62-.05.93-.09,1.05.23-10.27-.18-21.27.18-31.38.07-2.89-.08-3.22-.2-5l.2-.6-.23-3.05c-.16-4.31.5-7.34.19-12.79l-.14.67c.03-1.94-.07-6.18.08-5.83-.02-.2-.14-.65-.07-1.4l.11-.05-.18-4.8c.08-3.7.41.64.44-4.76-.04-2.01-.3-5.77-.37-5.03,0,.81-.07,2.06-.17,2.11l-.05-1.85c-.05-.06-.11-.16-.16-.25v-.1Zm-1.12,638.98l.02.11c-.04-.08-.07-.19-.09-.37-.03-.92.01-1.22.05-1.34,0,.43.01.93.02,1.6Zm1.81-512.37l-.03-.1c.04.09.07.19.09.37.03.91-.01,1.22-.05,1.34,0-.43-.01-.93-.02-1.61Zm-.94-39.61c-.05-.75-.1-1.69-.1-2.62.03.71.07.92.1.93.03.73.05,1.31,0,1.69Zm-.33,10.9s0,0,0,.04c0,.01,0,.02,0,.03v-.08Zm-.1,18.7c-.02-.38-.03-.77-.04-1.15.02.08.05.06.09-.22v-.36s.02.23.02.23c.01.28,0,.57.02.85,0,.37-.02.81-.04,1.34-.02-.12-.02-.33-.04-.51,0-.25,0-.47,0-.73l-.02.54Zm.14,20.31c.01.31.02.66.04.93,0,.18,0,.38-.02.57,0,.05,0,.09,0,.13,0,.11-.02.21-.03.3,0-.56,0-1.23,0-1.93Zm-.54,282.32l.12-1.71c0,.56-.02,1.21-.06,2.09l-.06-.38Zm.89,261.05c-.03-.72-.05-1.3,0-1.68.06.76.1,1.69.1,2.62-.03-.71-.07-.92-.1-.94Zm.33-12.59s0,0,0-.03v-.05.08Zm.1-18.68c.02.37.03.77.04,1.12-.02-.08-.05-.05-.08.23l-.02.37v-.24c-.02-.28-.02-.57-.03-.84,0-.38.02-.82.04-1.36.01.12.02.33.03.52,0,.25,0,.47,0,.73l.02-.53Zm-.14-20.33c-.01-.3-.02-.64-.04-.91,0-.19,0-.38.02-.58,0-.04,0-.08,0-.12,0-.1.02-.21.03-.3,0,.56,0,1.23,0,1.92Zm.54-282.31l-.12,1.7c0-.55.02-1.19.06-2.08l.05.38Z"/>
      <path class="cls-1" d="m7.9,198.85c0-.51-.03-.73-.05-.74.02.47.03.86.05.74Z"/>
      <path class="cls-1" d="m7.76,101.92v-.55c-.03-.16-.06-.3-.09-.45l.09.99Z"/>
      <path class="cls-1" d="m8.04,816.38v-.36s-.08-.1-.11-.1l.11.47Z"/>
      <path class="cls-1" d="m7.45,231.36v-.1c-.02-.55-.01-.23,0,.1Z"/>
      <path class="cls-1" d="m9.36,311.58c-.07.55-.1,1.13-.13,1.74.01.12.03.27.05.36l.08-2.11Z"/>
      <path class="cls-1" d="m7.67,655.92c0,.14.01.21.01.37.02-.18.03-.37.04-.53l-.06-.33v.49Z"/>
      <path class="cls-1" d="m8.02,130.62c-.01.08-.02.08-.02.13v.12c0-.1.01-.19.02-.25Z"/>
      <path class="cls-1" d="m7.8,75.68c-.04-1.91-.11.03-.15-.07.07,1.22.09,1.51.15.07Z"/>
      <polygon class="cls-1" points="7.53 179.45 7.6 181.92 7.56 180.1 7.53 179.45"/>
      <polygon class="cls-1" points="7.45 545.47 7.5 547.66 7.52 546.63 7.45 545.47"/>
      <path class="cls-1" d="m8.91,597.78c0,.51.03.73.05.75-.02-.47-.03-.86-.05-.75Z"/>
      <path class="cls-1" d="m9.05,694.72v.56c.03.15.06.3.09.44l-.09-.99Z"/>
      <path class="cls-1" d="m8.77,15.52v.36s.08.09.11.1l-.11-.47Z"/>
      <path class="cls-1" d="m9.36,565.28v.1c.02.55.01.23,0-.1Z"/>
      <path class="cls-1" d="m7.45,485.07c.07-.56.1-1.14.13-1.75-.01-.12-.03-.27-.05-.36l-.08,2.11Z"/>
      <path class="cls-1" d="m9.14,140.72c0-.13-.01-.21-.01-.38-.02.2-.03.38-.04.54l.06.33v-.49Z"/>
      <path class="cls-1" d="m8.79,666.02c0-.09.02-.09.02-.13v-.12c0,.1-.01.19-.02.25Z"/>
      <path class="cls-1" d="m9.24,721.15c.04,1.91.11-.03.15.08-.07-1.22-.09-1.51-.15-.08Z"/>
      <polygon class="cls-1" points="9.28 617.18 9.21 614.71 9.25 616.54 9.28 617.18"/>
      <polygon class="cls-1" points="9.36 251.17 9.31 248.97 9.29 250.01 9.36 251.17"/>
    </g>
  </g>
</svg>