<?xml version="1.0" encoding="UTF-8"?>
<svg id="TEXT" xmlns="http://www.w3.org/2000/svg" viewBox="0 0 145.08 228.15">
  <defs>
    <style>
      .cls-1 {
        fill: #f2f2f2;
      }

      .cls-2 {
        fill: #cbae62;
      }

      .cls-3 {
        fill: #231815;
      }

      .cls-4 {
        fill: none;
        stroke: #40210f;
        stroke-linecap: round;
        stroke-linejoin: round;
        stroke-width: 1.22px;
      }
    </style>
  </defs>
  <g>
    <path class="cls-1" d="m84.63,58.11l-13.72,4.99c-6.22-10.97-19.61-16.19-31.86-11.73-12.25,4.46-19.15,17.06-16.86,29.47l-13.72,4.99c-6.67,2.43-10.11,9.8-7.68,16.47l43.2,117.38c2.43,6.67,9.8,10.11,16.47,7.68l76.17-27.72c6.67-2.43,10.11-9.8,7.68-16.47l-43.2-117.38c-2.43-6.67-9.8-10.11-16.47-7.68Zm-35.57,20.77c-3.51,1.28-7.39-.53-8.67-4.04s.53-7.39,4.04-8.67c3.51-1.28,7.39.53,8.67,4.04,1.28,3.51-.53,7.39-4.04,8.67Z"/>
    <path class="cls-2" d="m49.9,81.18c-4.77,1.74-10.07-.73-11.8-5.5s.73-10.07,5.5-11.8,10.06.73,11.8,5.5c1.74,4.77-.73,10.06-5.5,11.8Zm-4.63-12.71c-2.24.81-3.4,3.3-2.58,5.54s3.3,3.4,5.54,2.58c2.24-.81,3.39-3.3,2.58-5.54s-3.3-3.4-5.54-2.58Z"/>
    <g>
      <path class="cls-4" d="m46.35,71.42c-.61-.54-1.1-1.02-1.95-1.89"/>
      <path class="cls-4" d="m32.63,54.27C18.69,36.14,2.43,8.01,20.83,1.31c20.71-7.54,30.71,47.58,25.52,70.11"/>
    </g>
  </g>
  <g>
    <path class="cls-2" d="m36.02,141.36s-.16.08-.18.09c-.51.19-1.01-.53-2.05-2.88,1.21-.23,2.85-.75,7.2-2.33,4.68-1.7,5.94-2.16,6.37-2.37.34-.15.4-.2.82-.51.14-.13.27-.2.41-.25.35-.13.69-.07,1.21.2.9.49,1.55,1,1.66,1.28.09.26.04.49-.12.89-.13.23-.17.48-.25,1.65-.32,4.01-1.3,6.75-3.42,9.51-.96,1.28-2.66,2.95-3.12,3.12-.33.12-.57.05-1.13-.28-.87-.5-1.25-.66-2.02-.75,2.38-1.76,4.32-3.98,5.45-6.27.85-1.74,1.24-3.73,1.17-6.01-8.82,3.34-10.43,4.01-11.98,4.92Zm4.62-11.08q2.43-.89,5.05-2.05c.09-.03.12-.04.28-.1.3-.11.51.08.78.77.1.28.2.54.3.76l.03.09c.31.84.3,1.11,0,1.22-.09.03-.29.08-.5.16-.46.12-2.23.71-2.96.97-3.51,1.28-5.99,2.23-7.33,2.85-.07.03-.14.05-.19.07-.61.22-.83-.09-1.92-2.66,1.59-.37,3.08-.86,6.44-2.08Z"/>
    <path class="cls-2" d="m57.85,125.98c.24-.59.36-.77.57-.84.45-.14,2.61.35,4.49.99,1.15.4,1.54.6,1.63.84.06.16-.13.95-.46,1.78-.3.77-.48,1.08-.67,1.14q-.16.06-1.45-.5c-.82-.36-2.39-.9-3.14-1.06q-1.01-.24-1.21-.27c-.12-.04-.19-.09-.22-.16-.08-.21.13-1.03.47-1.92Zm17-1.74c.2.19.31.34.36.48.08.23.05.43-.1.96-.67,2.15-1.56,4.01-3.05,6.38-1.67,2.67-3.22,4.61-5.54,6.97-1.49,1.5-1.57,1.58-1.76,1.94-.12.26-.2.34-.34.39-.21.08-.47-.04-1-.43-.72-.53-1.52-1.33-2.07-2.05,2.17-1.4,4.54-3.69,6.64-6.42,2.78-3.58,4.23-6.65,4.86-10.35.57.77.95,1.16,2,2.13Z"/>
    <path class="cls-2" d="m89.05,120.9c-.17-.55-.29-.87-.61-1.74-.08-.21-.31-.84-.72-1.91-1.56.96-4.32,2.47-4.88,2.68-.23.09-.44.03-.66-.21-.27-.3-.84-.78-1.2-1.04,0-.02-.27-.17-.81-.47,3.1-1.15,5.95-2.72,8.54-4.7,1.18-.91,1.84-1.57,2.7-2.62,1.36.54,2.59,1.31,2.74,1.7.08.21-.03.35-.32.51-.43.21-.68.38-1.2.78-1.07.84-1.26.99-2.34,1.73.36.9.41,1.04.86,2.28.41,1.12.46,1.26.71,1.96,3.47-1.31,6.01-2.32,6.74-2.66.08-.06.16-.08.23-.11.3-.11.46.1.82,1.1.54,1.5.54,1.55.19,1.68-.05.02-.81.24-1.08.31-1.01.29-2.4.77-6.18,2.14.57,2.44.61,4.65.13,6.68-.3,1.28-.99,2.96-1.62,3.98-.11.14-.18.22-.3.27q-.21.08-1.15-.11c-.58-.13-1.25-.15-2.22-.14,1.34-1.63,2.07-3.11,2.42-4.99.25-1.42.24-3.13-.09-4.6-4.33,1.63-6.08,2.35-7.11,2.93-.25.12-.33.17-.4.2-.21.08-.33.04-.44-.11-.36-.48-.85-1.46-1.31-2.57,1.05-.25,2.56-.75,5.58-1.85l.65-.24,2.33-.87Z"/>
    <path class="cls-2" d="m77.65,151.06c.56,1.54-.23,3.23-1.77,3.8-1.54.56-3.23-.23-3.79-1.77s.23-3.23,1.77-3.79,3.23.23,3.79,1.77Z"/>
    <path class="cls-2" d="m68.11,187.48c.42,1.15.74,1.9,1.06,2.55l-2.67.97c-.18-.86-.4-1.55-.81-2.67l-2.26-6.2q-.48-1.31-.87-2.54c-.23,1.27-.44,1.99-.88,3.05-.69-1.02-1.24-1.67-1.98-2.38,1.5-3.59,1.95-7.3,1.38-10.91l2.75-.23c.03,2.77-.03,4.14-.2,6.06l3.19,8.77c1.79-2.8,2.88-6.5,2.99-10.27l-2.41.88c-.77.28-1.62.64-2.37.99l-.91-2.5c.7-.18,1.63-.46,2.5-.78l3.27-1.19-.74-2.03c-.28-.77-.57-1.41-.92-2.08l2.67-.97c.17.76.34,1.38.63,2.18l.74,2.03,4.16-1.51c.96-.35,1.85-.73,2.52-1.08l.92,2.52c-.8.21-1.7.49-2.57.8l-3.3,1.2c1.38,1.46,2.37,2.29,4.26,3.56,1.39.92,3.04,1.67,5.2,2.34-.35.92-.52,1.56-.72,2.88-1.57-.67-2.37-1.07-3.45-1.71l.78,2.15c-.47.09-.99.25-1.67.5l-1.68.61.66,1.8c.31.87.65,1.64,1.02,2.38l-2.62.95c-.2-.83-.46-1.69-.75-2.51l-.65-1.78-1.57.57c-.63.23-1.14.44-1.58.68l-.77-2.1c-.49,1.34-.72,1.88-1.48,3.29-.83-.68-1.25-.97-2.01-1.36l1.11,3.06Zm4.48-9.07c-.44-1.22-.6-1.66-.93-2.71-.13,2.85-.36,4.18-1.09,6.46.55-.15.87-.24,1.52-.47l1.5-.54-1-2.74Zm4.97,1.29c.68-.25.91-.33,1.47-.61-1.89-1.19-3.37-2.43-5.15-4.27.39,1,.71,1.81,1.03,2.67l1.02,2.81,1.64-.6Z"/>
    <path class="cls-2" d="m98.52,163.73c.32.81.36.93.52,1.35l2.36-.86c.94-.34,1.35-.52,1.77-.73.13.51.32,1.1.52,1.64l1.1,3.02c.3.82.45,1.16.66,1.59-.72.21-1.12.33-1.76.56l-2.03.74c1.85,1.6,3.44,2.17,6.54,2.33-.23.96-.32,1.73-.29,2.78-2.89-.3-5.24-1.29-7.11-3.02-.19,2.6-1.21,4.75-3.23,6.78-.66-.66-1.27-1.08-2.02-1.41.05,1.44-.33,1.92-2.06,2.55-.49.18-.78.26-1.28.41-.35-.88-.67-1.48-1.18-2.08.71-.1,1.14-.2,1.59-.37.96-.35,1.01-.66.38-3.12l-.77.73c-.4-.88-1.17-2.13-1.72-2.83l.74-.59c.82,1.02,1.21,1.59,1.69,2.45-.31-1.15-.52-1.79-.99-3.15l-4.56,1.66c-.7.26-1.25.48-1.8.73-.14-.61-.33-1.19-.62-1.99l-2.81-7.72c-.41-1.12-.64-1.7-.94-2.3.67-.14,1.28-.33,2.31-.71l3.93-1.43c1.05-.38,1.49-.57,2.08-.89l.79,2.17c-.52.11-.97.25-1.74.53l-.75.27.53,1.45.44-.16c.61-.22,1-.39,1.46-.64l.22.61c1.69-1.99,2.8-4.17,3.15-6.26l2.36-.86c.8.61,1.49.97,2.63,1.4,1.45.56,2.45.78,4.5.93-.2.97-.27,1.74-.19,2.69-1-.14-1.34-.2-1.98-.34l.41,1.12c-.55.15-.98.28-1.59.5l-1.26.46Zm-12.65-.19l-1.66.6.53,1.45,1.66-.6-.53-1.45Zm1.16,3.18l-1.66.6.53,1.45,1.66-.6-.53-1.45Zm.32,8.52c.86,2.94,1.17,4.39,1.35,6.55l-1.9-.21c-.02-1.95-.39-3.91-1.1-6.14l1.65-.2Zm-.82-4.73l.55,1.5,1.66-.6-.55-1.5-1.66.6Zm2.27,3.97c.76,1.58,1.27,2.77,1.77,4.12.09.23.22.61.38,1.11l-1.39.77c-.35-1.17-.48-1.6-1.04-3.14-.39-1.08-.51-1.32-.9-2.19l1.19-.67Zm6.41-9.53c-.58.21-1.07.41-1.49.65l-.4-1.1c-.35.55-.51.77-1.08,1.48-.45-.58-.8-.9-1.58-1.44l.31.86c-.47.09-.92.23-1.53.45l-.44.16.53,1.45.42-.15c.68-.25,1.02-.4,1.47-.61l.69,1.89c-.52.11-.95.24-1.53.45l-.42.15.55,1.5.77-.28c.96-.35,1.35-.52,1.77-.75.12.41.28.93.62,1.92.83,2.35,1.5,4.99,1.69,6.61,1.89-1.8,2.86-3.77,2.93-5.99l-1.59.58c-.72.26-1.23.47-1.74.74-.12-.54-.25-.99-.5-1.67l-1.1-3.02c-.26-.72-.42-1.07-.66-1.59.51-.13.89-.24,1.8-.58l2.2-.8-.49-1.36-1.19.43Zm-5.08,8.89c.81,1.21,1.49,2.5,2.21,4.17l-1.06.78c-.96-2.35-1.26-2.96-2.1-4.32l.96-.64Zm9.17-12.63c-1.47-.47-2.27-.84-3.71-1.75-.43,1.51-.67,2.15-1.44,3.62l.35-.13,4.79-1.74Zm-3.56,7.17l.87,2.38,1.64-.6c-.2-.83-.34-1.36-.7-2.44l-1.8.66Zm3.95-1.44c.44,1.35.56,1.76.73,2.44l2.15-.78-.87-2.38-2.01.73Z"/>
  </g>
  <g>
    <path class="cls-3" d="m44.38,114.12l-4.91-1.78-.18.49,4.9,1.78c.06-.16.12-.33.18-.49Z"/>
    <path class="cls-3" d="m48.03,107.97l-4-3.35-.34.4,4,3.35c.11-.13.22-.27.34-.4Z"/>
    <path class="cls-3" d="m67.48,101.16l.91-5.14-.52-.09-.9,5.14c.17.03.34.06.51.09Z"/>
    <path class="cls-3" d="m74.17,103.7l2.61-4.52-.45-.26-2.61,4.52c.15.09.3.17.45.26Z"/>
    <path class="cls-3" d="m60.33,101.07l-.91-5.14-.51.09.91,5.14c.17-.03.34-.06.51-.09Z"/>
    <path class="cls-3" d="m53.57,103.44l-2.61-4.52-.45.26,2.61,4.52c.15-.09.3-.18.45-.26Z"/>
  </g>
</svg>