<?xml version="1.0" encoding="UTF-8"?>
<svg xmlns="http://www.w3.org/2000/svg" xmlns:xlink="http://www.w3.org/1999/xlink" viewBox="0 0 145.08 228.15">
  <defs>
    <style>
      .cls-1, .cls-2, .cls-3 {
        fill: none;
      }

      .cls-4 {
        fill: #f2f2f2;
      }

      .cls-5 {
        fill: #cbae62;
      }

      .cls-6 {
        fill: #231815;
      }

      .cls-2 {
        stroke: #40210f;
        stroke-linecap: round;
        stroke-linejoin: round;
        stroke-width: 1.22px;
      }

      .cls-3 {
        clip-path: url(#clippath);
      }
    </style>
    <clipPath id="clippath">
      <rect class="cls-1" x="170.25" y="228.71" width="567.39" height="454.3"/>
    </clipPath>
  </defs>
  <g id="CONTENTS">
    <g class="cls-3">
      <image width="2362" height="1575" transform="translate(-10.37 103.25) scale(.39)" xlink:href="../../../../../../../../../../../../Volumes/共有/ASAHI_DATA/036_永野/★データ受け渡し/彦根プロモーション/R5_HIKONE_LP_PC_202309/Links/DSC06928.jpg"/>
    </g>
  </g>
  <g id="_レイヤー_1" data-name="レイヤー 1">
    <g>
      <g>
        <path class="cls-4" d="m84.63,58.11l-13.72,4.99c-6.22-10.97-19.61-16.19-31.86-11.73s-19.15,17.06-16.86,29.47l-13.72,4.99c-6.67,2.43-10.11,9.8-7.68,16.47l43.2,117.38c2.43,6.67,9.8,10.11,16.47,7.68l76.17-27.72c6.67-2.43,10.11-9.8,7.68-16.47l-43.2-117.38c-2.43-6.67-9.8-10.11-16.47-7.68Zm-35.57,20.77c-3.51,1.28-7.39-.53-8.67-4.04-1.28-3.51.53-7.39,4.04-8.67,3.51-1.28,7.39.53,8.67,4.04s-.53,7.39-4.04,8.67Z"/>
        <path class="cls-5" d="m49.9,81.18c-4.77,1.74-10.07-.73-11.8-5.5s.73-10.07,5.5-11.8,10.06.73,11.8,5.5c1.74,4.77-.73,10.06-5.5,11.8Zm-4.63-12.71c-2.24.81-3.4,3.3-2.58,5.54s3.3,3.4,5.54,2.58,3.39-3.3,2.58-5.54-3.3-3.4-5.54-2.58Z"/>
        <g>
          <path class="cls-2" d="m46.35,71.42c-.61-.54-1.1-1.02-1.95-1.89"/>
          <path class="cls-2" d="m32.63,54.27C18.69,36.14,2.43,8.01,20.83,1.31c20.71-7.54,30.71,47.58,25.52,70.11"/>
        </g>
      </g>
      <g>
        <path class="cls-5" d="m69.98,152.76c-.47.09-.81.19-1.56.44,1.1,3.81,1.37,6.75.91,9.78,1.73,1.04,3.48,1.7,5.4,1.95-.28,1.11-.35,1.72-.35,3.04-2.01-.43-3.5-1.03-5.6-2.3-.56,2.09-1.39,3.68-2.73,5.36-.75-.76-1.15-1.06-2.3-1.73,1.5-1.69,2.31-3.17,2.83-5.24-1.51-1.31-2.58-2.58-3.65-4.34-.13.66-.25,1.07-.5,1.9-.79-.93-1.37-1.43-2.23-1.97.2-.47.25-.62.38-1.22-.46.11-1.01.29-1.83.58l-7.01,2.55c-.84.31-1.35.52-1.92.83l-.82-2.27c.64-.13,1.12-.27,2.01-.6l.49-.18-.69-1.9-.28.1c-.77.28-1.3.5-1.74.74l-.81-2.22c.61-.14.88-.21,1.81-.55l.28-.1-.09-.26c-.28-.77-.44-1.14-.72-1.62l2.43-.89c.07.4.18.78.51,1.69l.09.26,2.1-.77-.1-.28c-.3-.82-.49-1.28-.69-1.6l2.41-.88c.07.48.19.88.48,1.68l.1.28c.98-.36,1.21-.47,1.72-.73l.81,2.22c-.49.1-.92.23-1.79.54l.69,1.9q1.32-.51,1.93-.81l.71,1.94c.34-1.84.38-3.39.15-5.69-.15-1.43-.32-2.34-.6-3.09l2.74-.47c0,.21.02.34.22,1.99.05.56.07.93.12,1.73l3.62-1.32c1.01-.37,1.56-.59,2.18-.92l.89,2.43Zm-12.96,18.51c.41,1.12.77,1.97,1.07,2.58l-2.57.94c-.14-.69-.39-1.5-.8-2.65l-2.62-7.2c-.33-.91-.61-1.6-.83-2.08.59-.13,1.3-.37,2.11-.66l4.68-1.7c.89-.32,1.53-.59,2.02-.84.14.53.41,1.36.81,2.46l2.66,7.29c.56,1.54.14,2.2-1.94,2.96-.42.15-.75.27-1.29.44-.51-.95-.66-1.16-1.26-1.85.48-.12,1.09-.29,1.44-.42.61-.22.74-.37.63-.68l-.49-1.36-4.07,1.48.47,1.29Zm-3.31-12.72l2.1-.77-.69-1.9-2.1.77.69,1.9Zm5.12,5.05l-.38-1.03-4.07,1.48.38,1.03,4.07-1.48Zm1.09,2.99l-.39-1.08-4.07,1.48.39,1.08,4.07-1.48Zm3.47-11.56c-.01.48-.02.61-.03,1.23.47.91.8,1.46,1.56,2.53.87,1.22,1.34,1.79,2.13,2.51.16-1.52.07-2.73-.33-4.75-.2-1.06-.33-1.57-.64-2.49l-2.69.98Z"/>
        <path class="cls-5" d="m81.05,146.3c-.39,1.25-.72,2.01-1.42,3.22-.7-.46-1.34-.78-2.2-1.1,1.27-1.89,1.91-3.98,1.82-5.83l2.54-.45q-.06.34-.11.78c-.04.41-.05.52-.1.83l2.97-1.08c.91-.33,1.55-.62,2.15-.92l.57,1.57c.5-1.4.65-2.57.53-3.85l2.54-.45q-.11,1.23-.14,1.59l4.42-1.61c1.01-.37,1.75-.66,2.41-1.01l.84,2.31c-.75.19-1.34.38-2.37.76l-1.85.67c.55.41.98.81,1.54,1.32l-2.05,1.43c-.6-.71-1.06-1.17-1.9-1.88l-1.47.54c-.27.86-.44,1.4-.75,2.02l.33-.12c.09.39.16.66.35,1.25l6.62-2.41c1.15-.42,1.71-.68,2.33-1.01l.84,2.31c-.76.17-1.31.34-2.43.75l-6.62,2.41.42,1.15,5.07-1.85c1.14-.44,1.83-.72,2.08-.84.08.45.29,1.09.59,1.9l.77,2.1c.26.72.23,1.29-.13,1.69-.24.27-.76.54-1.58.84-.4.14-.97.33-1.59.5-.29-.66-.53-1.02-1.17-1.77.49-.1,1.09-.27,1.47-.4.49-.18.6-.32.49-.63l-.48-1.31-4.79,1.74.29.79c1.54.95,3.66,1.69,5.72,1.97,1.56.23,3.42.24,5.61.05-.5,1.19-.72,1.96-.8,2.81-1.85.01-3.77-.16-5.14-.46-.86-.19-1.5-.41-2.56-.79-.9-.36-1.21-.49-1.98-1,.25.62.42,1.01.64,1.62l.64,1.7c.49,1.28.63,1.6,1.04,2.27l-2.76,1c-.13-.8-.34-1.52-.67-2.43l-.62-1.63c-.11-.3-.31-.92-.52-1.58-.45,1.54-1.17,2.89-2.35,4.38-.88,1.09-1.96,2.25-3.08,3.24-.93-.75-1.21-.91-2.51-1.52,1.4-1.04,2.96-2.48,4.02-3.66.69-.81,1.31-1.7,1.91-2.76.52-.9.69-1.31,1.01-2.33l-.29-.79-4.37,1.59.72,1.96c.31.86.53,1.39.76,1.79l-2.52.92c-.11-.6-.32-1.24-.63-2.1l-.71-1.96c-.26-.72-.47-1.21-.76-1.79.55-.15,1.27-.38,1.99-.64l4.82-1.75-.42-1.15-6.13,2.23c-.94.34-1.67.66-2.34.99l-.84-2.31c.74-.16,1.43-.36,2.44-.73l6.13-2.23c-.25-.62-.36-.85-.54-1.18l1.5-.54c-.55-.28-1.04-.47-1.69-.65.17-.27.21-.37.34-.6-.57.18-.73.24-1.04.35l-1.29.47c.6.47.83.68,1.51,1.3l-1.99,1.44c-.76-.92-1.14-1.31-1.83-1.9l-1.19.43Z"/>
      </g>
      <g>
        <path class="cls-6" d="m52.78,139.11l-4.91-1.78-.18.49,4.9,1.78c.06-.16.12-.33.18-.49Z"/>
        <path class="cls-6" d="m56.43,132.95l-4-3.35-.34.4,4,3.35c.11-.13.22-.27.34-.4Z"/>
        <path class="cls-6" d="m75.89,126.15l.91-5.14-.52-.09-.9,5.14c.17.03.34.06.51.09Z"/>
        <path class="cls-6" d="m82.58,128.68l2.61-4.52-.45-.26-2.61,4.52c.15.09.3.17.45.26Z"/>
        <path class="cls-6" d="m68.73,126.06l-.91-5.14-.51.09.91,5.14c.17-.03.34-.06.51-.09Z"/>
        <path class="cls-6" d="m61.97,128.42l-2.61-4.52-.45.26,2.61,4.52c.15-.09.3-.18.45-.26Z"/>
      </g>
    </g>
  </g>
</svg>