<?xml version="1.0" encoding="UTF-8"?>
<svg id="CONTENTS" xmlns="http://www.w3.org/2000/svg" xmlns:xlink="http://www.w3.org/1999/xlink" viewBox="0 0 167.11 163.17">
  <defs>
    <style>
      .cls-1, .cls-2, .cls-3, .cls-4, .cls-5 {
        fill: none;
      }

      .cls-6 {
        fill: #231815;
      }

      .cls-2, .cls-3, .cls-4 {
        stroke: #231815;
        stroke-miterlimit: 10;
        stroke-width: 1.25px;
      }

      .cls-3 {
        stroke-dasharray: 0 0 2.58 2.58;
      }

      .cls-4 {
        stroke-dasharray: 0 0 2.59 2.59;
      }

      .cls-5 {
        clip-path: url(#clippath);
      }
    </style>
    <clipPath id="clippath">
      <rect class="cls-1" x="-299.13" y="3.28" width="275.99" height="182.17"/>
    </clipPath>
  </defs>
  <g class="cls-5">
    <image width="1772" height="1181" transform="translate(-328.22 -27.88) scale(.2)" xlink:href="../../../../../../../../../../../../Volumes/共有/ASAHI_DATA/036_永野/★データ受け渡し/彦根プロモーション/R5_HIKONE_LP_PC_202309/Links/伊沙羅チョークアート選モデルDSC06852.jpg"/>
  </g>
  <g>
    <line class="cls-2" x1="16.8" y1="16.76" x2="18.02" y2="16.48"/>
    <line class="cls-3" x1="20.53" y1="15.89" x2="79.47" y2="2.14"/>
    <line class="cls-2" x1="80.72" y1="1.85" x2="81.94" y2="1.56"/>
  </g>
  <g>
    <line class="cls-2" x1=".52" y1="123.15" x2="1.55" y2="123.86"/>
    <line class="cls-4" x1="3.68" y1="125.32" x2="53.79" y2="159.71"/>
    <line class="cls-2" x1="54.86" y1="160.44" x2="55.89" y2="161.15"/>
  </g>
  <g>
    <path class="cls-6" d="m42.35,51.93c-1.35.03-2.74-.06-4.17-.26-1.43-.2-2.77-.74-4.01-1.6-.32-.29-.6-.61-.83-.96-.24-.35-.44-.7-.63-1.05-.24-.85-.42-1.71-.55-2.58s-.2-1.77-.23-2.7h-.27l-1.75.09-.46-.23c-.09-.14-.16-.27-.2-.41-.05-.14-.05-.29-.02-.46l.23-.48c.27-.21.67-.33,1.21-.36.53-.03.97-.07,1.32-.11l.04-1.66c-.03-.21-.07-.44-.11-.69-.05-.25-.05-.5-.02-.74.03-.14.07-.26.11-.36.05-.11.1-.21.16-.32.12-.09.26-.16.41-.21s.3-.05.46-.02l.48.23c.15.55.26,1.12.32,1.73s.08,1.23.05,1.87l.57-.09c.53-.03,1.07-.06,1.62-.09.55-.03,1.1-.06,1.66-.09v-1.48l-.04-1.32c.03-.12.07-.24.11-.35.05-.11.1-.22.16-.31.14-.09.27-.16.41-.22.14-.05.28-.06.43-.01l.48.23c.18.5.27,1.05.25,1.65-.01.6,0,1.18.02,1.74h.71l.04-.04h1.93c.06-.5.08-1.04.07-1.62-.02-.58.08-1.09.3-1.55.12-.09.25-.16.4-.21.14-.04.29-.05.44-.02l.48.23c.18.26.26.57.25.92-.02.36-.02.69-.02,1.01l-.09,1.27c.39.08.86.11,1.41.09.55-.02.97.07,1.27.25.09.12.17.25.24.4.07.14.08.31.03.51l-.23.48c-.21.15-.53.23-.96.23h-1.05l-.82-.09c-.17.61-.27,1.19-.32,1.74-.04.55-.17,1.11-.39,1.67-.09.11-.2.17-.33.21-.13.03-.25.06-.38.09l-.04.09c-.18.14-.38.22-.6.25-.22.03-.46.05-.72.05-.47.03-.94.01-1.4-.06s-.88-.25-1.26-.56l-.14-.16c-.29-.47-.46-.98-.52-1.54s-.12-1.12-.18-1.69h-1.12c-.47.03-.92.07-1.36.11-.44.05-.9.09-1.37.14l-.04.66c.09.88.19,1.77.31,2.67.11.9.44,1.73.97,2.47l.09.04.27.27.52.43c1.03.44,2.12.74,3.25.9,1.14.16,2.22.19,3.25.1h3.43l.48.14c.09.15.16.28.2.39.05.11.05.24.02.41l-.23.48c-.23.21-.47.34-.72.39s-.5.07-.74.07h-2.55Zm-.61-7.58v-.39l.32-1.84h-1.77l-.8.04v.18l.34,1.91,1.68.14.23-.05Z"/>
    <path class="cls-6" d="m61.03,54.03l-.48-.23c-.21-.64-.32-1.31-.32-2.02s-.02-1.68-.05-2.91l-.05-.36.05-1.14-.09-1.73.23-.46.14-.18h-.05c-.15-.3-.35-.58-.6-.84-.25-.26-.43-.54-.54-.84h-.09l-1.21.09c0,.12-.03.24-.1.36-.07.12-.13.23-.19.32l-.27.32h-.09l-.3.5-.57.59.3.18c.21.45.33.94.34,1.46.02.52.02,1.05.02,1.59-.09.94-.2,1.82-.32,2.63-.12.81-.42,1.61-.91,2.4-.12.09-.25.16-.39.21s-.3.05-.5.02l-.48-.23c-.09-.12-.16-.25-.2-.39-.05-.14-.05-.28-.02-.43.47-.88.75-1.79.83-2.72.08-.93.14-1.91.17-2.95l-.11-.64h-.09l-.27.14v.09c-.56.3-1.13.64-1.71,1-.58.36-1.21.58-1.89.64l-.48-.23c-.09-.12-.16-.25-.21-.39s-.05-.28-.02-.43l.23-.46c.65-.3,1.3-.64,1.93-1,.64-.36,1.25-.77,1.84-1.23l.07-.09,1.16-1.14v-.14h-.18l-1.5.09c-.12-.03-.24-.07-.35-.11-.11-.05-.22-.1-.31-.16-.17-.27-.27-.56-.32-.86-.05-.3-.08-.61-.11-.91v-2.43l-.04-2.18c.03-.15.07-.31.11-.48.05-.17.12-.31.23-.43l.41-.36c.88-.21,1.77-.31,2.68-.29.91.01,1.82-.02,2.73-.11h2.12c.41.03.81.06,1.21.09.39.03.75.15,1.07.36.12.18.21.37.25.57.04.2.05.42.02.66l-.14,1.32v2.3l-.04.14.04.5c-.03.36-.08.73-.15,1.09-.07.36-.21.7-.42,1-.18.15-.41.23-.68.23h-.77v.09l.27.32.75.73.39.36c.41.3.83.58,1.26.82.43.24.87.49,1.31.73.18.03.34.09.49.18s.29.18.44.27c.09.12.16.25.22.39.05.14.06.3.01.48l-.23.46c-.12.09-.25.16-.4.21-.14.04-.29.05-.44.02-.64-.27-1.26-.58-1.88-.93-.61-.35-1.22-.69-1.83-1.02v.73l.04.04v3.57l.11.68v1.82l-.25.46c-.12.09-.25.16-.4.2-.14.05-.29.05-.44.02Zm-3.82-15.47v-1.18l-.05-.32h-.18l-2.21.04-.09.59.09.91h1.55l.89-.05Zm0,3.03v-1.23h-.75l-1.64.05v.96l.05.32h.61l1.73-.09Zm4.57-2.98v-.59l.09-1.05-.84-.04h-1.89l-.14.04v.23l.04,1.36,2.73.05Zm-.09,3.03v-.23l.09-.64-.09-.32-2.64-.09v1.18h1.93l.71.09Z"/>
    <path class="cls-6" d="m77.06,51.82c-.3-.06-.57-.2-.8-.41-.23-.21-.48-.39-.75-.55l-.14-.14-.41-.64h-.09c-.39-.52-.67-1.08-.82-1.68-.15-.61-.2-1.26-.14-1.96.12-.79.32-1.55.59-2.28.27-.73.61-1.42,1-2.09h-.59c-.82.09-1.63.17-2.43.25s-1.64.13-2.5.16c-.12-.03-.24-.07-.34-.11-.11-.04-.2-.1-.3-.16-.09-.12-.16-.25-.2-.39-.05-.14-.05-.28-.02-.43l.23-.45c1.38-.21,2.78-.38,4.19-.51,1.41-.13,2.83-.21,4.25-.24l.46.25c.09.12.17.25.23.39.06.14.08.3.04.48l-.23.46-.5.32-.05.09h-.09c-.58.82-1.05,1.69-1.43,2.62-.38.92-.55,1.92-.52,2.98.06.27.17.53.32.77.15.24.3.49.46.73h.09l.18.32.91.59v.09h.09c.09.12.16.25.21.39.05.14.05.28.02.43l-.23.46c-.09.09-.2.15-.32.18s-.24.06-.36.09Zm3.68-8.42l-.46-.23c-.18-.36-.38-.71-.59-1.05-.21-.33-.3-.73-.27-1.18l.23-.46c.12-.11.25-.18.39-.23.14-.05.28-.05.43-.02l.46.25c.12.36.3.72.52,1.07.23.35.34.74.34,1.16l-.23.45c-.12.09-.25.16-.39.21-.14.05-.28.05-.43.02Zm2.21-1.14l-.46-.23c-.18-.27-.36-.55-.53-.82-.17-.27-.26-.58-.26-.93l.25-.46c.12-.09.25-.16.39-.2.14-.05.28-.05.43-.02l.46.23c.18.27.36.55.52.83.17.28.25.59.25.92l-.23.46c-.12.09-.25.16-.39.2-.14.05-.28.05-.43.02Z"/>
    <path class="cls-6" d="m91.16,51.3c-.29-.03-.57-.11-.83-.25-.26-.14-.5-.3-.72-.5-.36-.49-.63-1-.81-1.55-.17-.55-.23-1.14-.17-1.77.12-.74.3-1.45.54-2.12.23-.67.53-1.32.88-1.96h-.34c-.33.09-.68.18-1.04.27-.36.09-.73.15-1.13.18l-.46-.23c-.09-.12-.16-.25-.2-.39-.05-.14-.05-.28-.02-.43l.23-.46c.79-.3,1.58-.54,2.39-.71.8-.17,1.65-.27,2.55-.32l.48.25c.09.12.16.26.21.41.04.15.05.32.02.5-.59.91-1.12,1.85-1.58,2.83-.46.98-.69,2.03-.69,3.15l.45,1.05.57.23c.41-.12.79-.29,1.15-.5.36-.21.69-.48.99-.82l.05-.09c.47-.42.88-.88,1.22-1.35.34-.48.63-.97.88-1.49.18-.33.33-.68.44-1.05.11-.36.26-.71.44-1.05.12-.09.25-.16.39-.21.14-.04.29-.05.46-.02l.59.32.93,1.32c.18.24.36.49.55.73.18.24.41.42.68.54.09.12.16.25.22.4.05.14.06.29.01.44l-.23.46c-.12.09-.25.16-.4.21-.14.04-.32.05-.51.02-.21-.06-.4-.16-.57-.3s-.33-.28-.5-.43c-.12-.15-.23-.31-.32-.49-.09-.17-.23-.31-.41-.4-.29.65-.64,1.27-1.06,1.84s-.89,1.14-1.42,1.68l-.14.04-.27.36c-.5.46-1.03.83-1.6,1.13-.57.3-1.19.46-1.88.49Z"/>
    <path class="cls-6" d="m110.77,51.48c-.76-.09-1.5-.24-2.23-.44-.73-.21-1.4-.57-2-1.08-.3-.3-.54-.64-.71-1-.17-.36-.27-.76-.3-1.18.09-.61.27-1.19.52-1.75s.55-1.1.89-1.62c-.39-.7-.77-1.4-1.14-2.12-.36-.71-.64-1.46-.82-2.25l.23-.46c.12-.09.25-.16.39-.2.14-.05.28-.05.43-.02l.46.23c.3.61.61,1.22.91,1.84s.59,1.24.86,1.84h.09c.55-.36,1.09-.72,1.64-1.07s1.17-.54,1.87-.57l.45.23c.09.12.16.25.21.39s.05.28.02.43l-.23.46c-.67.24-1.3.54-1.91.89s-1.2.77-1.77,1.25c-.36.39-.65.82-.86,1.27-.21.45-.35.94-.41,1.46l.27.5.09.04c.12.18.27.32.46.41.18.09.36.18.55.27.39.09.78.18,1.16.27s.78.15,1.21.18l1.09-.09.46.23c.09.12.16.25.2.39.05.14.05.28.02.43l-.23.48c-.27.18-.57.28-.89.3-.32.02-.64.04-.98.07Z"/>
    <path class="cls-6" d="m127.09,50.55l-.46-.23c-.12-.12-.2-.26-.25-.41-.04-.15-.05-.32-.02-.5l.23-.46c.39-.27.71-.61.93-1s.46-.79.71-1.18c.12-.33.21-.67.27-1.02.06-.35.08-.72.05-1.12-.06-.21-.15-.42-.27-.61-.12-.2-.27-.39-.46-.57-.27-.21-.58-.36-.91-.43-.33-.08-.68-.11-1.05-.11h-1.91c-.97.09-1.9.25-2.8.48s-1.82.43-2.78.61l-.46-.23c-.09-.12-.16-.25-.2-.39-.05-.14-.05-.28-.02-.43l.23-.46c.96-.36,1.94-.64,2.96-.84,1.02-.2,2.02-.37,3.03-.52h1.96c.61,0,1.18.08,1.73.25s1.05.43,1.5.8l.23.23c.42.42.72.91.88,1.46s.21,1.14.15,1.77c-.09.82-.33,1.58-.72,2.27s-.82,1.37-1.31,2l-.27.27-.14.14c-.12.09-.25.16-.39.21s-.28.05-.43.02Z"/>
    <path class="cls-6" d="m136.29,51.71c-.3-.03-.58-.11-.84-.25s-.51-.31-.75-.52c-.3-.35-.52-.73-.64-1.14-.12-.41-.2-.84-.23-1.3.09-.46.23-.89.41-1.32s.49-.8.91-1.14c.46-.42.97-.73,1.55-.91.58-.18,1.2-.26,1.87-.23l1.09.27c.15-1.46.25-2.92.29-4.38.05-1.46.19-2.91.43-4.33.12-.09.25-.16.39-.21.14-.04.28-.05.43-.02.73.55,1.46,1.08,2.21,1.59.74.52,1.47,1.1,2.18,1.75.3.36.53.77.68,1.21.15.44.21.92.18,1.43-.09.42-.23.83-.41,1.21-.18.38-.48.72-.89,1.02-.09.09-.2.16-.32.2-.12.05-.26.05-.41.02-.09-.03-.18-.09-.27-.18-.09-.09-.15-.18-.18-.27v-.36c.15-.24.35-.47.59-.68.24-.21.35-.47.32-.77-.03-.12-.05-.24-.05-.36s-.06-.21-.18-.27c-.39-.33-.82-.58-1.27-.73-.46-.15-.99-.34-1.62-.57-.23,1.71-.33,3.39-.3,5.03s-.29,3.18-.96,4.64l-.41.46h-.09v.09c-.42.38-.89.63-1.39.75-.5.12-1.02.21-1.57.27l-.18-.04-.59.04Z"/>
    <path class="cls-6" d="m50.14,81.19c-.12-.03-.24-.07-.34-.11-.11-.05-.21-.1-.3-.16-.09-.12-.16-.25-.21-.39-.05-.14-.05-.27-.02-.41.79-1.5,1.36-3.06,1.73-4.67.36-1.61.55-3.26.55-4.95-.06-.15-.1-.31-.11-.48-.02-.17,0-.33.02-.5l.23-.46c.44-.2.97-.33,1.59-.39s1.25-.11,1.89-.14l.04-.23c-.09-.53-.18-1.05-.27-1.57-.09-.51-.18-1.03-.27-1.55h-.82l-.46.05-.46-.23c-.09-.12-.16-.25-.21-.38-.04-.13-.05-.27-.02-.42l.23-.46c.58-.23,1.19-.35,1.84-.36.65-.01,1.3-.04,1.93-.07v-.66l-.14-1.02.23-.46c.12-.09.25-.16.39-.21.14-.04.28-.05.43-.02l.46.23c.18.33.3.67.36,1.02.06.35.08.72.04,1.11h.73l3-.09c.15.03.29.06.41.09.12.03.24.09.36.18.09.11.16.23.21.36.04.14.05.28.02.43l-.23.43c-.12.09-.25.15-.39.18s-.28.06-.43.09l-.96-.05c0,.58-.05,1.12-.16,1.64s-.2,1.04-.3,1.57h.23c.46-.06.91-.1,1.37-.11.46-.01.84-.02,1.16-.02.18.03.36.05.55.07s.33.08.46.2c.09.12.16.25.2.38.05.13.05.27.02.42l-.23.46c-.15.12-.32.19-.5.22-.18.02-.38.03-.59.03l-.93-.05c-1.52.12-3.04.23-4.57.32-1.53.09-3.06.2-4.57.32-.03,1.83-.24,3.64-.61,5.42-.38,1.78-1.02,3.48-1.91,5.08-.09.09-.2.15-.32.18-.12.03-.24.06-.36.09Zm5.53-7.01c-.12-.05-.23-.09-.33-.15-.1-.05-.19-.11-.26-.17-.09-.14-.15-.27-.18-.41-.03-.14-.02-.27.02-.41l.27-.43c1-.33,1.99-.72,2.97-1.17.98-.45,1.97-.83,2.99-1.15l.43.25c.08.14.13.27.16.41s.02.27-.02.41l-.27.43c-.89.55-1.83,1.02-2.81,1.41-.98.39-1.97.72-2.97.98Zm.05,3.16l-.43-.25c-.09-.12-.16-.25-.19-.4-.04-.14-.03-.29.01-.42l.25-.43c1.02-.38,2.05-.79,3.1-1.24s2.09-.85,3.11-1.22l.43.25c.09.12.16.25.19.4.04.14.03.28-.01.4l-.25.46-.41.21v.07c-.94.46-1.88.9-2.82,1.32-.94.42-1.93.71-2.98.87Zm.25,3.25c-.12-.03-.24-.07-.34-.11-.11-.05-.2-.1-.27-.16-.09-.14-.16-.27-.19-.4-.04-.13-.03-.26.01-.4l.25-.43c1.17-.29,2.3-.72,3.41-1.29,1.11-.57,2.22-1.1,3.34-1.6l.45.27c.08.14.13.27.17.4s.03.27-.01.42l-.25.43-.39.32c-1,.5-2,1.01-3.01,1.54s-2.07.86-3.17,1.01Zm3.03-12.28v-.18l-.05-.14c.12-.47.23-.96.32-1.46.09-.5.17-1.01.23-1.52h-.18l-2.59.09-.32-.04v.14c.18.52.3,1.05.36,1.59s.14,1.08.23,1.62h.5l1.5-.09Z"/>
    <path class="cls-6" d="m73.71,79.9l-.46-.23c-.18-.24-.28-.53-.31-.86-.02-.33-.03-.67-.03-1l.05-.04-.02-2.39.04-.05v-2.46l.02-.68h-.09l-1.91,2.02c-.21.15-.43.31-.66.48-.23.17-.49.24-.8.21l-.46-.23c-.09-.12-.16-.25-.2-.39-.05-.14-.05-.3-.02-.48l.23-.46c.71-.49,1.38-1.08,2-1.77.62-.7,1.09-1.44,1.41-2.23l-.36-.04-2,.21-.46-.23c-.09-.12-.16-.25-.21-.39-.04-.14-.05-.28-.02-.43l.23-.46c.52-.21,1.06-.34,1.64-.4.58-.05,1.16-.09,1.75-.12l-.02-1.41.02-2.62c.03-.12.07-.24.11-.34.04-.11.1-.2.16-.29.12-.09.25-.16.39-.22.14-.05.28-.06.43-.03l.46.23c.18.7.26,1.44.24,2.22-.02.78-.03,1.57-.01,2.35h.36l2-.11.46.23c.09.12.16.25.2.39.05.14.05.28.02.43l-.23.46c-.36.21-.77.32-1.21.33-.44,0-.87.03-1.3.06v.09l.46.32,1.02.68.55.43v.09h.09c.09.12.16.25.2.4.05.14.05.29.02.44l-.23.46c-.12.09-.25.16-.39.21-.14.04-.3.06-.48.04l-.45-.23v-.09c-.18-.09-.36-.22-.55-.39-.18-.17-.38-.26-.59-.29l-.07,1.64v2.5l-.05.05.02,2.43-.02.55.05.73-.23.46c-.12.09-.25.16-.39.21-.14.04-.28.06-.43.04Zm5.66.07c-.12-.03-.23-.06-.34-.1-.11-.04-.21-.09-.3-.15-.24-.36-.39-.77-.44-1.21-.05-.44-.06-.89-.03-1.36.09-.61.12-1.23.08-1.87-.04-.64-.03-1.27.03-1.91l-.07-2.71.07-1.77c-.06-.21-.09-.43-.09-.66v-.66c.02-.7.03-1.4.05-2.1.01-.71.14-1.36.36-1.97.33-.18.71-.28,1.11-.31.41-.02.81-.06,1.21-.12l3.75-.02.46.21c.12.12.2.27.23.43.03.17.04.34.02.52l-.09.41.02,4.84-.48,1.02c-.21.15-.47.24-.76.25-.3.02-.58.04-.85.07l-2.55.02-.64.09v.98l-.07,2.41c0,.55.01,1.08.03,1.62.02.53,0,1.08-.06,1.64h.09c.36-.29.72-.57,1.07-.84.35-.27.75-.42,1.21-.43l.46.23c.09.12.16.25.21.39.04.14.05.28.02.43l-.23.48-1.34.98-1.23.68v.09c-.15.09-.3.17-.43.25-.14.08-.3.13-.48.16Zm4.23-10.99v-1.27l-2.05.02-1.5.23v.55l.09.64h.09l.5-.09,2.46-.02.41-.04Zm-.02-3.05v-1.11l-2.46.02-1,.09-.04,1.25h.09l1.32-.23,2.09-.02Zm2.87,14.01c-.15-.02-.29-.06-.43-.14-.14-.08-.27-.16-.39-.25l-.14-.14v-.09l-.27-.14-.18-.16-.14-.14c-.82-1-1.51-2.09-2.06-3.28-.55-1.18-1.02-2.38-1.4-3.59l.23-.46c.12-.09.25-.16.39-.2.14-.05.28-.06.43-.05l.45.23c.12.21.22.44.3.68.08.24.17.47.27.68h.14l.61-.46.23-.23.84-.71c.21-.15.42-.3.61-.44.2-.14.43-.2.71-.17l.46.23c.09.14.16.27.21.41.04.14.05.28.02.43l-.23.46-.57.5-.41.23v.09l-.41.36-.23.23-1.11.71v.18c.26.49.52.95.78,1.4.27.45.55.91.85,1.38h.09l.14.14.46.41v.09h.09v.09l.34.18c.09.12.16.25.21.39.04.14.05.28.02.43l-.23.45c-.09.09-.2.15-.32.18s-.24.05-.36.07Z"/>
    <path class="cls-6" d="m93.71,78.55c-.12-.03-.24-.07-.34-.11-.11-.05-.21-.1-.3-.16-.09-.12-.16-.25-.21-.39-.04-.14-.05-.28-.02-.43l.23-.48c.36-.18.72-.36,1.08-.55s.69-.44.99-.77c.46-.58.76-1.2.91-1.87s.2-1.4.14-2.18c-.06-.3-.14-.59-.25-.87-.11-.27-.27-.51-.48-.73l-.36-.09c-.3,1.06-.72,2.08-1.26,3.05-.54.97-1.1,1.94-1.67,2.91-.12.09-.25.16-.39.2-.14.05-.29.05-.48.02l-.46-.23c-.09-.12-.16-.25-.2-.39-.05-.14-.05-.28-.02-.43.73-1.21,1.39-2.46,1.98-3.75s1.04-2.62,1.34-3.98h-.46l-1.91.04-.46-.23c-.09-.12-.16-.25-.21-.39-.04-.14-.05-.28-.02-.43l.23-.46c.49-.21.97-.31,1.46-.3.48.02,1-.01,1.55-.09v-.18c-.06-.39-.13-.78-.21-1.16-.08-.38-.14-.77-.21-1.16l.23-.46c.12-.09.25-.16.39-.21.14-.04.29-.05.46-.02l.46.23c.3.39.47.84.5,1.34.03.5.08.99.14,1.48h.68l1.27-.04.46.25c.09.12.16.25.21.39.04.14.05.28.02.43l-.23.46c-.36.21-.77.31-1.23.3-.46-.01-.89,0-1.32.02l-.09,1.05c.21.03.4.09.57.18s.33.2.48.32l.18.18.27.32c.21.33.38.68.5,1.05.12.36.23.74.32,1.14v1.91c-.06.64-.21,1.24-.46,1.8-.24.56-.55,1.1-.91,1.61h-.09l-.14.27-.36.39c-.36.24-.73.48-1.1.71-.37.23-.77.39-1.19.48Zm7.62,1.18l-.46-.18c-.2-.24-.3-.52-.32-.84-.01-.32-.04-.63-.07-.93.06-.86.09-1.73.1-2.59s.06-1.72.15-2.57h-.09v.05h-.09v.09h-.09l-.14.27c-.15.12-.31.23-.48.32s-.36.12-.57.09l-.46-.23c-.09-.12-.16-.25-.21-.39-.04-.14-.06-.28-.04-.43l.27-.55.32-.32.27-.27c.27-.21.55-.46.84-.74.29-.28.52-.57.71-.88.2-.44.44-.85.73-1.23s.55-.78.8-1.21h-.5l-1,.07-.27-.05c-.15.3-.31.6-.48.89-.17.29-.36.57-.57.84h-.09l-.09.14c-.11.12-.23.19-.36.21s-.28.02-.43.02l-.48-.23c-.09-.12-.16-.25-.2-.39-.05-.14-.05-.28-.02-.43l.23-.46h.09v-.09l.5-.68c.39-.79.77-1.58,1.13-2.38s.62-1.63.79-2.51c.12-.09.25-.16.39-.22.14-.05.28-.06.43-.03l.46.23c.14.15.23.33.27.55.04.21.05.42.02.64-.09.36-.21.72-.34,1.07-.14.35-.26.71-.39,1.07h.27l.55-.09,2.89-.02.05-.05h1.93l.45.25c.11.12.18.25.23.39.05.14.05.28.02.43l-.23.46c-.49.21-1.02.31-1.6.3-.58-.02-1.15,0-1.7.04-.03.33-.14.64-.32.91-.18.27-.35.55-.5.82-.23.18-.41.4-.54.66s-.28.49-.47.71l-.27.61c.12.12.19.25.21.39.01.14.02.28.02.43-.08.85-.14,1.7-.18,2.55-.05.85-.08,1.7-.09,2.55h.09l.46-.05.48.23c.09.12.16.25.21.4.04.14.05.29.02.44l-.23.46-.71.73-.32.36-.16.18c-.12.09-.25.16-.39.19-.14.04-.28.04-.43.01Zm7.19-.09c-.18-.03-.35-.09-.5-.18-.15-.09-.29-.21-.41-.36l-.36-.34-.14-.14c-1.02-1.21-1.84-2.53-2.47-3.96-.63-1.42-1.07-2.88-1.33-4.37l.2-.46c.12-.09.25-.16.39-.22.14-.05.28-.06.43-.03l.46.23c.17.24.28.51.34.8s.12.57.18.84h.09c.51-.44.98-.91,1.4-1.42s.87-.97,1.35-1.4l.55-.04.46.21c.09.12.16.25.21.39.04.14.05.28.02.43l-.23.46c-.17.12-.3.26-.41.42-.11.16-.21.31-.3.47l-1.66,1.75-.77.41v.09c.21.61.47,1.19.77,1.75.3.56.64,1.11,1.02,1.66l.09.05.41.57.14.14.14.14.18.18.61.66.04.55-.23.46c-.09.09-.2.16-.32.19s-.24.07-.36.1Z"/>
    <path class="cls-6" d="m122.61,77.96l-.46-.23c-.09-.12-.16-.25-.21-.4-.04-.14-.05-.31-.02-.49l.23-.46c.21-.27.41-.57.59-.89.18-.32.36-.64.55-.98.15-.39.27-.79.36-1.18.09-.39.12-.82.09-1.27-.03-.46-.15-.87-.36-1.23-.21-.36-.49-.71-.82-1.05-.39-.3-.83-.5-1.32-.59s-1-.14-1.55-.14c.06,1.09-.04,2.12-.29,3.07-.26.96-.67,1.86-1.25,2.71h-.09l-.14.27-.36.41-.27.27-.27.14v.09c-.33.27-.71.46-1.14.57s-.86.14-1.32.11c-.24-.06-.47-.14-.68-.25-.21-.11-.41-.24-.59-.39-.3-.36-.49-.78-.56-1.25-.07-.47-.1-.95-.1-1.43.06-.79.26-1.52.6-2.21.34-.68.77-1.33,1.29-1.93.61-.64,1.29-1.11,2.05-1.41.76-.3,1.55-.5,2.37-.59.79,0,1.56.05,2.32.16.76.11,1.46.34,2.09.71l.55.45v.09h.09l.46.5c.47.55.79,1.15.96,1.8.17.65.22,1.36.16,2.12-.12.85-.36,1.64-.72,2.37s-.78,1.45-1.26,2.16l-.14.14c-.12.09-.25.16-.39.2-.14.05-.28.05-.43.02Zm-6.78-3.3c.27-.21.51-.46.73-.73.21-.27.39-.55.55-.82.3-.58.52-1.18.66-1.82.14-.64.19-1.3.16-2h-.18c-.18.06-.36.12-.52.18-.17.06-.33.14-.48.23v.09l-1,.68c-.42.55-.77,1.13-1.02,1.75s-.36,1.3-.29,2.02l.14.55c.09.06.18.1.27.11.09.02.2.02.32.02l.68-.27Z"/>
    <path class="cls-6" d="m13.05,104.81c-.27-.06-.54-.16-.8-.31-.26-.14-.49-.32-.71-.54-.21-.24-.36-.52-.46-.84-.09-.32-.15-.64-.18-.98.09-.46.2-.89.32-1.3s.33-.8.64-1.16c.27-.27.57-.5.89-.68.32-.18.63-.38.93-.59l.55-.18v-.59l-.14-1.68h-.27c-.39,0-.77.03-1.14.09-.36.06-.73.12-1.09.18-.15-.03-.31-.07-.48-.11-.17-.04-.32-.11-.46-.2-.09-.12-.16-.25-.21-.39-.04-.14-.05-.28-.02-.43l.23-.46c.47-.15.96-.25,1.48-.29.52-.05,1.03-.08,1.55-.11v-.14c-.03-.3-.11-.59-.23-.85-.12-.27-.18-.56-.18-.9l.23-.46c.12-.09.25-.16.39-.21.14-.04.28-.05.43-.02l.46.23c.21.3.36.64.46,1.01.09.37.17.75.23,1.15h.36c.27-.06.57-.1.89-.11.32-.01.63-.02.93-.02l.45.23c.09.12.16.25.21.39s.05.28.02.43l-.23.46c-.3.21-.65.31-1.05.3-.39-.01-.77.02-1.14.11l-.04.64.14,1.32h.23c.36-.06.73-.11,1.09-.14.36-.03.74-.05,1.14-.05.46.09.89.23,1.32.41.42.18.83.41,1.23.68l.55.55c.36.39.61.84.74,1.34.13.5.18,1.04.15,1.62,0,.36-.03.71-.1,1.05-.07.33-.19.65-.38.96-.12.09-.25.17-.39.23s-.3.08-.48.05l-.46-.23c-.09-.12-.16-.25-.2-.39-.05-.14-.05-.3-.02-.48.12-.27.18-.57.18-.89s.01-.63.04-.93c-.03-.3-.11-.58-.25-.84-.14-.26-.34-.49-.61-.71-.33-.21-.68-.38-1.05-.5-.36-.12-.76-.17-1.18-.14l-1.46.18c.03.85-.05,1.65-.23,2.41-.18.76-.52,1.46-1,2.09l-.23.23c-.24.18-.49.32-.75.4-.26.08-.54.12-.84.12Zm.46-1.93c.3-.39.52-.81.64-1.25.12-.44.18-.92.18-1.43h-.09l-.68.36v.09l-.32.27h-.09c-.12.24-.22.49-.3.75-.08.26-.11.52-.11.8l.14.36.5.14.14-.09Zm8.94-6.19l-.48-.23c-.18-.18-.4-.33-.66-.46-.26-.12-.49-.26-.71-.41-.09-.12-.16-.25-.21-.39-.05-.14-.05-.28-.02-.43l.23-.46c.12-.09.25-.16.39-.21.14-.04.29-.05.48-.02l1.66.86c.12.15.22.31.3.48.08.17.1.36.07.57l-.23.46c-.12.09-.25.16-.39.2-.14.05-.28.05-.43.02Z"/>
    <path class="cls-6" d="m28.24,104.24l-.46-.23c-.09-.12-.16-.25-.19-.4-.04-.14-.04-.29-.01-.44l.23-.46c.91-.2,1.83-.32,2.77-.38s1.9-.07,2.87-.06l.16-1.32-.04-.14.04-.05.07-3.23.05-.48-1-.02-2.78.05-.46-.25c-.08-.12-.14-.25-.18-.39s-.05-.28-.02-.43l.25-.46c.67-.2,1.36-.3,2.09-.3s1.46,0,2.18.02l.02-1.14-.07-.86.02-2.02.25-.46c.12-.09.25-.16.39-.19s.29-.04.46-.01l.45.23c.2.68.29,1.41.27,2.17-.02.77-.02,1.53,0,2.29h.73l.05-.05,2.82.07c.18.03.36.05.52.07s.31.09.43.23c.09.12.16.25.19.39.04.14.04.28.01.43l-.23.46c-.17.11-.34.17-.52.21-.18.03-.36.04-.55.04l-.04-.04-2.64-.07-.86.04-.05.66-.07,3.62-.11.91,3.32.07c.51.08,1.04.11,1.58.1s1.04.09,1.49.28c.08.12.14.25.18.39.05.14.05.28.02.43l-.25.46c-.15.14-.32.22-.5.24s-.38.03-.59.03l-2.12-.14-4.94-.09c-.88.02-1.76.05-2.64.11-.88.06-1.75.09-2.62.09Z"/>
    <path class="cls-6" d="m46.96,107.17l-.46-.23c-.09-.12-.16-.25-.21-.39-.05-.14-.05-.28-.02-.43.85-1.42,1.52-2.91,2.02-4.45.5-1.54.86-3.11,1.07-4.72v-1.82c.03-.18.04-.38.04-.59s.08-.39.23-.55c.47-.24.97-.39,1.5-.43.53-.05,1.05-.1,1.57-.16v-.14l-.18-1.71h-.23c-.12.06-.24.09-.36.09s-.26-.01-.41-.05l-.45-.23c-.09-.12-.16-.25-.21-.39-.05-.14-.05-.28-.02-.43l.23-.46c.42-.27.9-.41,1.43-.41s1.05-.02,1.57-.05l.05-.14c-.12-.21-.24-.44-.34-.68-.11-.24-.14-.5-.11-.77l.23-.46c.12-.09.25-.16.39-.21.14-.04.28-.05.43-.02l.46.23c.15.3.3.62.46.96.15.33.26.68.32,1.05h1.73c.58,0,1.12.09,1.64.27.09.12.16.25.21.39s.05.28.02.43l-.23.45c-.18.15-.4.24-.66.27s-.51.04-.75.04c.03.3,0,.59-.09.85s-.17.54-.23.81c.61,0,1.21,0,1.8.02.59.02,1.15.13,1.66.34.09.12.16.25.2.39.05.14.05.28.02.43l-.23.46c-.12.09-.26.16-.41.21-.15.04-.3.07-.45.07-.42-.06-.87-.1-1.32-.11-.46-.01-.91-.02-1.37-.02-1.03.06-2.08.12-3.14.18-1.06.06-2.11.15-3.14.27-.06,2-.38,3.98-.94,5.92-.57,1.95-1.35,3.79-2.35,5.52-.12.12-.27.22-.43.29-.17.08-.34.1-.52.07Zm4.39-.68l-.46-.23c-.09-.12-.16-.25-.2-.39-.05-.14-.05-.28-.02-.43l.23-.46c.7-.24,1.46-.36,2.27-.34.82.01,1.62-.02,2.41-.11l.05-1.71h-.32l-1.59.14c-.12-.03-.23-.07-.34-.11s-.21-.1-.3-.16c-.09-.12-.16-.25-.2-.39-.05-.14-.05-.28-.02-.43l.23-.45c.36-.18.77-.27,1.21-.27s.87-.03,1.3-.09l.09-1.59h-.23c-.36,0-.72.03-1.07.09s-.69.14-1.02.23l-.36.59h-.09l-.59,1.05c-.12.12-.26.21-.41.27s-.32.08-.5.05l-.46-.23c-.09-.12-.16-.25-.21-.39-.04-.14-.05-.28-.02-.43.55-.79,1.02-1.62,1.41-2.5.39-.88.71-1.77.96-2.68.12-.09.25-.16.39-.21.14-.05.28-.05.43-.02l.46.23c.09.12.16.26.2.41.05.15.05.32.02.5l-.32,1.37h.14l1.23-.09c.03-.39.03-.79,0-1.18-.03-.39.05-.74.23-1.05.12-.09.25-.16.39-.21s.28-.05.43-.02l.46.23c.18.3.27.64.27,1.02v1.11c.39.06.8.08,1.21.05.41-.03.78.05,1.12.23.09.12.16.25.2.39.05.14.05.28.02.43l-.23.46c-.3.21-.66.3-1.07.27s-.81-.02-1.21.04l-.04,1.55h.18l1.14-.04.46.23c.09.12.16.25.2.39.05.14.05.28.02.43l-.23.46c-.24.18-.52.27-.84.27s-.63.02-.93.05l-.05,1.71c.7,0,1.39,0,2.07.02.68.02,1.33.14,1.93.39.09.12.16.25.22.39.05.14.06.3.03.48l-.25.46c-.12.09-.25.16-.39.21-.14.04-.28.05-.43.02-.27-.06-.55-.1-.84-.11-.29-.01-.57-.04-.84-.07h-3.23c-.7.09-1.41.14-2.14.14s-1.44.03-2.14.09Zm4.41-13.26v-.18l.41-1.66h-1.5l-.36.04v.57l.18,1.32h.09l1.18-.09Z"/>
    <path class="cls-6" d="m68.1,104.9l-.46-.23c-.33-.92-.58-1.88-.74-2.87-.16-.99-.24-1.99-.24-3.03s.1-2.04.31-3.03c.2-.99.55-1.92,1.04-2.8.12-.09.25-.16.39-.21.14-.05.28-.05.43-.02l.46.23c.09.12.16.25.21.39.04.14.05.3.02.48-.42.91-.71,1.86-.86,2.84-.15.99-.21,2.01-.18,3.07.03.79.12,1.54.27,2.25s.29,1.46.41,2.23l-.23.46c-.12.09-.25.16-.39.21-.14.04-.28.05-.43.02Zm5.55-8.03l-.46-.23c-.09-.14-.16-.27-.19-.41-.04-.14-.04-.29-.01-.46l.25-.43c.55-.29,1.16-.44,1.83-.46.67-.01,1.35-.02,2.01-.02.21.03.42.07.64.1.21.04.41.13.59.28.09.14.16.27.19.41.04.14.04.29.01.46l-.25.43c-.12.12-.26.19-.43.22-.17.02-.34.02-.52-.01l-.68-.11c-.49.02-.98.04-1.49.07-.51.03-1,.08-1.49.16Zm4.05,6.5c-.76-.09-1.5-.21-2.23-.36-.73-.15-1.39-.42-2-.82-.09-.12-.16-.25-.21-.39-.04-.14-.05-.28-.02-.43l.23-.46c.12-.09.25-.16.39-.21.14-.04.28-.05.43-.02.64.33,1.31.56,2.02.68s1.42.26,2.12.41c.09.12.16.25.2.39.05.14.05.28.02.43l-.23.45c-.09.09-.21.16-.34.21-.14.05-.27.08-.39.11Z"/>
    <path class="cls-6" d="m88.58,105.17c-.39-.06-.77-.15-1.14-.27-.36-.12-.7-.34-1-.66-.39-.52-.72-1.05-.98-1.62s-.45-1.16-.57-1.8c-.27-.03-.54-.08-.8-.14s-.49-.17-.71-.32c-.09-.12-.16-.25-.21-.39-.04-.14-.05-.28-.02-.43l.23-.46c.12-.09.25-.16.39-.21s.3-.05.48-.02l.46.14v-.73l-.05-1.41.09-.82h-.09l-.77.09-.46-.23c-.09-.12-.16-.25-.2-.39-.05-.14-.05-.28-.02-.43l.23-.46c.21-.15.46-.24.73-.27.27-.03.55-.06.82-.09.06-.58.21-1.13.43-1.67.23-.54.49-1.05.8-1.54.12-.09.25-.16.39-.2.14-.05.28-.05.43-.02l.45.23c.09.12.16.25.21.39.05.14.05.3.02.48-.18.36-.36.72-.52,1.08-.17.36-.3.73-.39,1.13.36.03.73.07,1.09.11.36.05.7.16,1,.34.09.12.16.25.2.39.05.14.05.29.02.48l-.23.46c-.12.09-.25.16-.39.2-.14.05-.28.05-.43.02-.24-.09-.49-.16-.75-.21-.26-.05-.52-.05-.8-.02l-.09,2.32.05.64h.32c.33-.12.67-.25,1.02-.39.35-.14.72-.21,1.11-.21l.46.23c.09.12.16.25.21.39.04.14.05.28.02.43l-.23.46c-.42.21-.86.39-1.3.55-.44.15-.9.26-1.39.32v.18c.12.39.27.78.46,1.16.18.38.39.74.64,1.07.18.09.37.17.57.25.2.08.42.1.66.07.39-.09.77-.26,1.12-.5.35-.24.67-.52.98-.82.33-.42.64-.86.93-1.3s.43-.93.43-1.48l-.05-.41.23-.46c.12-.09.26-.16.41-.21s.32-.05.5-.02l.48.23c.12.15.19.33.21.52.01.2.02.4.02.62-.06.82-.32,1.57-.76,2.25-.45.68-.96,1.33-1.54,1.93-.49.42-1.01.77-1.57,1.04-.56.27-1.17.4-1.84.4Z"/>
    <path class="cls-6" d="m100.15,104.49c-.29-.06-.56-.17-.81-.32-.25-.15-.47-.36-.65-.61-.27-.44-.46-.92-.57-1.43-.11-.52-.14-1.05-.09-1.59.11-.59.28-1.24.51-1.96.24-.71.47-1.33.69-1.87l-.23-.02c-.21.05-.41.11-.58.18-.17.08-.39.09-.65.05l-.43-.27c-.08-.12-.13-.25-.17-.4-.04-.14-.03-.28.01-.42l.27-.46c.64-.21,1.27-.41,1.91-.58.64-.17,1.3-.26,2-.26l.46.25c.08.14.13.27.16.41.03.14.02.3-.02.48-.59.87-1.12,1.87-1.59,3.01-.47,1.14-.58,2.28-.34,3.4l.14.48.5.18c.47-.12.92-.31,1.35-.56.43-.25.85-.56,1.24-.92.74-.76,1.41-1.58,2-2.47.59-.89,1.09-1.8,1.5-2.74.14-.08.27-.13.41-.17s.3-.03.48.01l.43.27c.15.32.26.66.33,1.01.07.36.21.69.42,1.01l.43.32-.02.07.09.02c.12.15.22.32.28.51.07.19.08.39.03.6l-.25.46c-.14.09-.27.15-.41.18-.14.03-.28.02-.43-.02l-.43-.25v-.09l-.09-.02-.84-.91c-.42.74-.91,1.45-1.44,2.12-.54.67-1.16,1.3-1.85,1.89-.56.41-1.15.77-1.75,1.07-.61.3-1.27.42-2,.36Zm11.92-6.3c-.3-.03-.58-.11-.84-.23-.26-.12-.49-.3-.71-.55-.18-.24-.35-.49-.51-.75-.16-.26-.24-.55-.24-.89.03-.3.09-.58.19-.84s.25-.49.47-.71c.3-.15.61-.29.93-.41s.66-.18,1.02-.18c.3,0,.58.04.84.14s.49.24.71.46c.27.27.45.59.52.96.08.36.1.74.07,1.14-.03.24-.09.46-.18.66s-.2.39-.32.57h-.09v.09c-.27.21-.57.36-.89.43-.32.08-.64.11-.98.11Zm.55-1.87c.12-.09.17-.21.16-.34-.02-.14-.02-.26-.02-.39-.09-.09-.2-.14-.32-.14s-.24-.01-.36-.05l-.46.23v.23c.06.12.13.24.21.34.08.11.17.17.29.2h.27l.23-.09Z"/>
    <path class="cls-6" d="m121.3,105.31l-.46-.23c-.09-.12-.16-.25-.2-.39-.05-.14-.05-.28-.02-.43l.36-.66c.18-.15.36-.32.52-.5.17-.18.33-.38.48-.59.06-.18.11-.36.16-.55.05-.18.05-.38.02-.59l-.27-.5c-.3-.15-.64-.23-1.02-.25-.38-.01-.75-.02-1.12-.02-.61.06-1.17.17-1.71.32-.53.15-1.1.24-1.71.27l-.45-.23c-.09-.12-.16-.25-.21-.39-.05-.14-.05-.28-.02-.43l.23-.46c.88-.3,1.76-.53,2.64-.68.88-.15,1.82-.21,2.82-.18.33.06.64.15.93.27s.57.29.84.5l.14.14c.27.33.47.71.59,1.11s.15.86.09,1.34c-.06.42-.2.81-.41,1.16-.21.35-.46.7-.73,1.05l-.18.18-.23.23-.18.18c-.12.12-.26.21-.41.27-.15.06-.32.08-.5.04Z"/>
    <path class="cls-6" d="m130.26,105.76l-.48-.23c-.12-.15-.21-.33-.25-.55-.05-.21-.05-.42-.02-.64.06-1.35.17-2.68.33-3.98.16-1.3.34-2.62.56-3.96h-.09l-.61.09-.46-.23c-.09-.12-.16-.25-.21-.39-.04-.14-.05-.28-.02-.43l.23-.46c.21-.18.47-.3.76-.36s.58-.12.85-.18c.09-.36.17-.74.23-1.12.06-.38.18-.73.36-1.07.12-.09.25-.16.39-.21.14-.04.28-.05.43-.02l.46.23c.09.12.16.25.2.39.05.14.05.28.02.43l-.14.73h.14c.24-.06.48-.13.71-.21s.46-.11.71-.11l.46.23c.09.12.16.25.2.39.05.14.05.3.02.48l-.23.46c-.39.18-.8.32-1.21.41s-.83.2-1.25.32c-.3,1.46-.54,2.92-.71,4.39-.17,1.47-.28,2.96-.34,4.46l.04.41-.27.5c-.12.09-.25.16-.39.2-.14.05-.28.05-.43.02Zm6.28-6.62l-.46-.23c-.09-.12-.16-.25-.21-.39-.04-.14-.05-.28-.02-.43l.23-.46c.55-.24,1.14-.4,1.77-.48s1.29-.11,1.96-.11c.15.03.3.06.43.09.14.03.26.09.39.18.12.12.2.26.25.41.04.15.05.32.02.5l-.23.46c-.12.09-.25.16-.39.21s-.28.05-.43.02c-.12-.06-.26-.09-.41-.09h-.46c-.42.03-.83.08-1.23.14-.39.06-.8.12-1.23.18Zm3.64,5.25c-.58-.18-1.16-.33-1.75-.43-.59-.11-1.14-.29-1.66-.57-.09-.14-.16-.27-.21-.41-.04-.14-.05-.28-.02-.43l.23-.46c.12-.09.25-.16.39-.21.14-.04.3-.05.48-.02.58.18,1.16.34,1.75.48.59.14,1.18.3,1.75.48.09.12.16.25.21.4.04.14.05.29.02.44l-.23.45c-.12.09-.27.16-.43.21s-.34.07-.52.07Z"/>
    <path class="cls-6" d="m146.64,98.26l-.43-.25c-.33-.58-.52-1.24-.57-1.98-.04-.74-.04-1.5.02-2.27.08-.42.14-.85.21-1.26s.22-.78.48-1.1c.14-.09.28-.16.42-.19.14-.04.29-.04.44.01l.43.25c.09.12.15.25.18.4.03.14.03.31,0,.49-.21.44-.34.92-.39,1.43-.04.52-.08,1.05-.09,1.62.03.42.11.81.23,1.15s.18.71.18,1.1l-.25.43c-.14.09-.27.16-.41.19-.14.04-.29.03-.46-.01Zm2.53,6.78l-.46-.23c-.09-.12-.16-.25-.21-.39s-.05-.3-.02-.48l.23-.46c.18-.23.37-.46.57-.71.2-.24.36-.5.48-.77.61-.88,1.05-1.65,1.34-2.3.29-.65.49-1.49.61-2.52v-1.91c-.03-.46-.08-.91-.16-1.36s-.14-.91-.2-1.37l.23-.48c.12-.09.25-.16.39-.21.14-.04.28-.05.43-.02l.46.23c.27.47.43.97.48,1.5.05.53.1,1.07.16,1.61v2.09c-.12,1.37-.41,2.51-.86,3.43-.46.93-1.08,1.97-1.87,3.14l-.27.36-.36.46h-.09l-.09.14c-.09.09-.2.15-.34.18-.14.03-.28.05-.43.05Z"/>
    <path class="cls-6" d="m159.5,105.72l-.73-.5c-.09-.12-.17-.25-.23-.39-.06-.14-.14-.3-.23-.48l.04-.27.09-.59.23-.46c.21-.12.45-.2.71-.25s.51-.08.75-.11c.18.03.35.07.5.11.15.05.29.13.41.25.15.21.24.46.27.73.03.27.06.55.09.82l-.23.46h-.09v.09c-.24.15-.49.3-.73.43-.24.14-.53.19-.86.16Zm.71-4.64l-.41-.07c-.11-.09-.19-.17-.26-.25s-.1-.19-.1-.34c.2-1.71.38-3.43.56-5.14.17-1.71.38-3.38.62-5,.09-.11.2-.19.33-.26s.27-.1.42-.1l.5.07c.12.08.22.16.29.25.07.09.11.21.12.36-.2,1.58-.39,3.21-.58,4.91-.19,1.7-.42,3.41-.69,5.14-.11.11-.22.19-.34.26-.12.07-.27.13-.46.17Z"/>
  </g>
</svg>