<?xml version="1.0" encoding="UTF-8"?>
<svg id="CONTENTS" xmlns="http://www.w3.org/2000/svg" viewBox="0 0 209.61 126.6">
  <defs>
    <style>
      .cls-1 {
        fill: #231815;
      }

      .cls-2 {
        fill: #fff;
        stroke: #3c3c3c;
        stroke-linecap: round;
        stroke-linejoin: round;
        stroke-width: 2.14px;
      }
    </style>
  </defs>
  <path class="cls-2" d="m31.56,116.99c5.84-21.88,32.03-9.38,46.15-5.78,29.94,7.63,58.5,19.87,90.13,11.51,23.7-6.25,43.57-25.48,40.36-53.64-3.7-32.57-59.18-50.55-83.76-56.95C88.5,2.79,15.48-18.21,2.11,43.95c-4.25,19.71,4.88,28.02,20.76,40.59,10.63,8.39,9.47,17.27,8.68,32.45Z"/>
  <g>
    <path class="cls-1" d="m44.9,29.48c-.22.85-.76,3.1-.9,3.75,0,.03-.01.05-.02.07-.03.12-.08.21-.16.24-.12.06-.68-.02-1.19-.15-.44-.11-.51-.18-.44-.45,0-.01,0-.03.01-.05.12-.35,1.19-4.3,1.61-5.92.82-3.16,1.03-4.07,1.1-4.88.97.31,1.4.48,1.77.67.13.06.18.15.15.26q-.02.08-.14.3c-.1.15-.17.32-.25.55,0,.03-.25.84-.71,2.45q.9.53,1.41.88c1.25.84,1.94,1.38,2.99,2.36.09.1.13.18.1.28-.04.14-.45.73-.78,1.09-.17.21-.26.26-.34.23-.06-.01-.12-.06-.19-.15-1.11-1.24-2.35-2.28-3.65-3.04l-.4,1.54Zm4.52-3.38c-.15-.57-.37-1.12-.67-1.65-.05-.1-.06-.1-.05-.15.02-.08.11-.15.42-.26.23-.1.35-.13.42-.11.12.03.22.17.47.63.33.61.53,1.12.5,1.24-.04.15-.78.48-.98.43-.05-.01-.09-.05-.11-.15Zm2.19-.53c-.21.08-.35.11-.42.1-.04,0-.06-.04-.11-.16-.19-.63-.4-1.13-.68-1.61-.03-.05-.05-.1-.04-.13.03-.11.68-.35.84-.31.07.02.14.08.25.24.32.51.72,1.42.67,1.58-.02.08-.14.15-.52.29Z"/>
    <path class="cls-1" d="m54.89,30.11s-.1-.01-.11-.01c-.3-.08-.31-.58-.03-2.02.64.29,1.58.57,4.13,1.23,2.74.71,3.48.9,3.75.94.21.04.25.04.55.03.11-.02.19,0,.27.01.21.05.35.19.5.48.26.52.41.97.36,1.13-.04.15-.13.24-.35.38-.13.07-.24.17-.65.7-1.44,1.78-2.79,2.75-4.68,3.36-.87.29-2.2.53-2.48.46-.19-.05-.28-.16-.44-.5-.25-.52-.37-.71-.71-1,1.69-.06,3.31-.47,4.58-1.18.96-.54,1.78-1.35,2.49-2.44-5.22-1.28-6.19-1.49-7.21-1.56Zm5.75-3.71q1.43.37,3.03.67c.05.01.07.02.16.04.18.05.21.2.12.62-.04.17-.08.32-.1.46,0,.03-.01.06-.01.06-.13.49-.22.62-.4.57-.05-.01-.16-.06-.28-.09-.25-.1-1.28-.39-1.7-.5-2.06-.53-3.53-.89-4.36-1.03-.04-.01-.08-.02-.11-.03-.36-.09-.36-.31-.04-1.87.86.34,1.72.59,3.69,1.1Z"/>
    <path class="cls-1" d="m73.27,36.53c-.45,1.73-.75,3.01-.94,3.96,0,.03-.02.08-.03.1-.04.15-.09.2-.23.17-.19,0-.77-.12-1.22-.24-.43-.11-.46-.15-.4-.38,0-.01.01-.04.02-.07.24-.69.67-2.24,1.12-3.97l.47-1.81c-1.09.36-1.61.52-2.51.72-1.12.27-1.66.35-1.84.3-.11-.03-.18-.09-.25-.23-.28-.56-.45-.79-.89-1.3,1.92-.19,3.05-.41,4.47-.86,1.75-.56,3.67-1.46,4.84-2.29.25-.17.36-.27.62-.53.71.8,1.18,1.54,1.12,1.8-.02.08-.09.14-.28.16-.28.04-.39.09-1.18.48-.74.38-1.46.71-2.09.96l-.78,3.02Z"/>
    <path class="cls-1" d="m86.57,35.49c-2.46-.64-4.21-1-4.68-.99-.02,0-.03,0-.04,0-.26-.07-.22-.54.1-1.96.64.28,1.52.54,3.55,1.06,1.84.48,4,.99,4.36,1.04.25.04.34.04.61.01.08,0,.1,0,.16.01.23.06.46.35.77.99.18.4.21.49.17.64-.03.1-.09.17-.22.27-.18.13-.2.17-.75,1.05-1.39,2.22-3.48,3.99-5.95,5.05-.99.42-1.89.7-2.1.64-.15-.04-.18-.06-.41-.46-.28-.47-.51-.75-.83-1.05,2.28-.48,3.59-1.04,5-2.1,1.26-.96,2.18-2.1,2.9-3.55q-1.08-.26-2.63-.65Z"/>
    <path class="cls-1" d="m94.4,40.35s-.1-.01-.11-.01c-.3-.08-.3-.58-.03-2.02.64.29,1.58.57,4.13,1.23,2.74.71,3.48.9,3.75.94.21.04.25.04.55.03.11-.02.19,0,.27.01.21.05.35.19.51.48.26.52.41.97.36,1.13-.04.15-.14.24-.35.38-.14.07-.24.17-.65.7-1.44,1.78-2.79,2.75-4.68,3.36-.87.29-2.2.53-2.48.46-.19-.05-.28-.16-.44-.5-.25-.52-.37-.71-.71-1,1.69-.06,3.31-.47,4.58-1.18.96-.54,1.79-1.35,2.49-2.44-5.22-1.28-6.19-1.49-7.21-1.56Zm5.75-3.71q1.43.37,3.03.67c.05.01.07.02.16.04.18.05.21.2.12.62-.04.17-.08.32-.1.46,0,.03-.01.05-.01.05-.13.49-.22.62-.4.57-.05-.01-.16-.06-.28-.09-.25-.1-1.28-.39-1.7-.5-2.06-.53-3.53-.89-4.36-1.03-.04-.01-.08-.02-.11-.03-.36-.09-.36-.31-.04-1.87.86.34,1.72.59,3.7,1.1Z"/>
    <path class="cls-1" d="m108.93,44.01c-.05.21-.11.26-.25.27-.15,0-.62-.07-1.13-.21-.38-.1-.44-.17-.36-.47t.13-.44c.18-.57.48-1.63.65-2.28.03-.1.23-1.07.3-1.39.46.16.52.18,1.28.39.08.02.42.12.84.25.74.21,1.61.45,2.55.69,2.51.65,3.22.8,3.59.78.15,0,.16,0,.21.01.21.05.4.28.69.78.27.47.36.74.32.9-.03.12-.06.16-.26.39-.15.17-.22.29-.47.87-.83,1.86-1.92,3.24-3.3,4.21-.93.67-2.23,1.25-3.47,1.59-.52.13-.72.17-.85.13-.12-.03-.18-.11-.42-.52-.25-.46-.46-.73-.71-.94,2.05-.3,3.61-.95,4.88-2.06,1.06-.93,1.84-2.13,2.45-3.8q-2.07-.59-3.05-.85c-1.11-.29-2.23-.56-3-.75l-.33,1.28-.29,1.16Z"/>
    <path class="cls-1" d="m124.72,47.75c2.51.65,3.96,1,5.37,1.26.04.01.12.03.18.05.41.11.41.12.12,1.22-.15.56-.21.65-.45.59,0,0-.04-.01-.05-.01-.89-.28-1.4-.41-5.37-1.44-1.45-.38-2.18-.55-3.46-.84-.1-.03-.21-.05-.4-.1-.44-.11-.51-.12-.78-.14-.07-.02-.13-.02-.16-.03-.15-.04-.23-.13-.22-.26,0-.36.13-1.08.3-1.71,1.08.4,2.05.68,4.92,1.42Z"/>
    <path class="cls-1" d="m136.81,54.68c-.95.97-2.02,1.37-2.96,1.12-1.43-.37-2.08-2.03-1.58-3.98.56-2.17,2.14-3.75,4.28-4.25,1.05-.26,2.09-.22,3.39.12,2.87.74,4.47,3.33,3.76,6.04-.62,2.4-2.25,3.82-4.78,4.21-.5.08-.89.09-1.07.05-.17-.04-.22-.12-.33-.42-.14-.42-.33-.75-.64-1.09,3.01,0,4.64-1,5.21-3.22.29-1.14.06-2.22-.63-3.05-.4-.45-.74-.69-1.47-1.01-1.13,2.79-2,4.26-3.21,5.48Zm-.72-5.37c-1.13.57-1.95,1.59-2.28,2.88-.27,1.06-.09,1.76.49,1.91.69.18,1.63-.59,2.57-2.08.6-.94.96-1.68,1.56-3.15-1.03-.05-1.57.06-2.34.45Z"/>
    <path class="cls-1" d="m152.2,53.51c.26.14.35.25.31.39q-.01.05-.14.21c-.12.16-.26.44-.45.89-.76,1.79-1.5,2.92-2.48,3.74-.78.65-1.89,1.19-2.79,1.37-.11.03-.23.03-.28.02-.12-.03-.19-.09-.26-.24-.19-.4-.45-.73-.85-1.13.88-.17,1.39-.33,1.97-.62,1.61-.8,2.7-2.3,3.28-4.51.08-.32.13-.51.17-.76.65.21,1.1.4,1.52.64Zm-.43-2.91c1.14.29,2.01.5,3.71.9.61.13.82.17,1.03.16.15,0,.19,0,.24.02.26.07.45.34.71.98.23.54.29.85.24,1.06-.04.15-.13.23-.31.29-.25.08-.31.11-.68.41-.67.56-1.44,1.05-2.53,1.63-.44.24-.59.29-.72.25-.1-.02-.16-.07-.21-.17-.23-.47-.47-.78-.9-1.17,1.22-.37,2.11-.87,3.26-1.85q-7.08-1.78-7.93-1.85c-.12,0-.16-.01-.19-.02-.21-.05-.3-.21-.29-.5,0-.39.06-.85.19-1.45.65.3,1.81.64,4.37,1.31Z"/>
    <path class="cls-1" d="m161.73,55.66c.25-.95.36-1.52.48-2.35.67.2,1.25.43,1.66.65.2.12.27.2.24.33-.01.05-.04.12-.14.27q-.24.36-1.87,6.54c2.22-.16,3.51-.42,5.27-1.12.93-.36,1.62-.71,2.42-1.19-.01.05-.03.11-.03.12-.12.48-.21.97-.24,1.56-.02.13-.02.19-.03.23-.06.23-.3.38-1.19.76-.92.4-2.3.87-3.3,1.09-.84.19-1.63.31-2.72.38-.33.03-.56.07-.76.15-.15.06-.25.08-.38.05-.37-.1-1.11-1.31-1.01-1.68.02-.07.05-.13.11-.25.11-.18.17-.37.31-.92l1.2-4.62Z"/>
    <path class="cls-1" d="m183.46,61.77c.03.16.04.26.01.34-.04.14-.12.22-.36.42-1.01.79-2.03,1.38-3.49,2.01-1.65.71-3,1.12-4.85,1.48-1.19.22-1.25.23-1.45.34-.14.08-.2.1-.28.07-.12-.03-.21-.17-.33-.53-.17-.48-.28-1.11-.31-1.63,1.47.04,3.32-.27,5.19-.87,2.46-.78,4.13-1.75,5.62-3.29.02.55.07.85.25,1.65Zm-8.54-4.67c.3-.2.41-.24.54-.21.26.08,1.11,1.01,1.79,1.91.41.56.53.78.49.92-.02.1-.37.4-.79.69-.39.26-.57.35-.68.32q-.1-.03-.52-.71c-.27-.44-.83-1.2-1.13-1.51q-.4-.44-.48-.52c-.04-.06-.06-.1-.05-.14.03-.12.39-.44.84-.75Z"/>
    <path class="cls-1" d="m50.13,48.48c.02.15.01.24,0,.32-.05.18-.14.27-.48.49-1.47.97-2.9,1.69-4.54,2.28-1.4.5-2.96.87-4.44,1.09-.44.06-.58.1-.77.2-.15.06-.2.08-.27.06-.26-.07-.53-.94-.66-2.13,1.39.11,3.12-.13,4.96-.68,1.14-.33,2.55-.92,3.61-1.49.94-.5,1.5-.92,2.58-1.82-.08.67-.08.86.02,1.69Zm-7.47-.27c-.27.25-.34.29-.45.26q-.1-.02-.58-.58c-.4-.44-.93-.88-1.83-1.48-.2-.14-.25-.21-.23-.31.02-.07.19-.27.5-.59.08-.1.16-.16.2-.22.22-.24.31-.3.42-.27.23.06,1.16.71,1.81,1.26.36.31.8.75.89.86.03.07.04.11.03.18-.04.14-.32.46-.77.88Zm2.01-2.35c-.24.17-.32.21-.41.19-.05-.01-.12-.06-.18-.16-.66-.96-1.33-1.69-2.12-2.26-.12-.09-.16-.16-.14-.24.01-.05.04-.09.14-.18.92-.83.96-.87,1.11-.83.27.07,1.27.92,1.92,1.64.54.61.66.77.63.91-.04.15-.5.62-.93.94Zm4.78.27c-.17-.64-.34-1.1-.66-1.65-.05-.09-.06-.12-.05-.14.02-.08.13-.16.4-.26.26-.09.36-.13.44-.11.11.03.22.17.47.63.3.59.52,1.12.48,1.24-.04.15-.78.48-.98.43-.05-.01-.07-.05-.11-.15Zm2.19-.53c-.21.08-.35.11-.42.1-.04-.01-.06-.03-.1-.16-.21-.7-.38-1.08-.68-1.61-.04-.06-.05-.1-.04-.11.03-.12.68-.37.84-.32.11.03.26.23.46.6.28.54.49,1.09.46,1.2-.02.1-.16.16-.52.3Z"/>
    <path class="cls-1" d="m60.54,48.03c.26-.37.4-.64.61-1.12,1.08.74,1.7,1.33,1.64,1.6-.02.07-.06.1-.18.19-.33.21-.62.47-.96.88-1.05,1.24-1.6,1.81-2.5,2.65.49.67.95,1.43,1.28,2.06.09.17.12.28.09.39-.04.14-.27.34-.76.65-.37.24-.57.34-.69.3-.07-.02-.13-.08-.2-.23-.58-1.15-.64-1.26-1.09-2.02-1.55,1.17-3.2,2.07-4.71,2.59-.49.18-.76.23-.91.19-.14-.04-.15-.04-.41-.46-.18-.27-.46-.6-.81-.94,2.14-.44,4.04-1.34,5.89-2.82-.51-.7-.78-1.02-1.75-2.08-.23-.24-.25-.27-.23-.37.04-.15.26-.34.83-.74.2-.14.32-.18.43-.15.18.05.94.9,1.99,2.21,1.01-.97,1.76-1.83,2.43-2.78Z"/>
    <path class="cls-1" d="m76.52,54.56c.03.16.04.26.01.34-.04.14-.11.22-.36.42-1.01.79-2.03,1.38-3.49,2.01-1.65.71-3,1.13-4.85,1.48-1.18.22-1.25.23-1.45.34-.14.08-.2.09-.28.07-.12-.03-.2-.17-.33-.53-.17-.48-.28-1.11-.31-1.63,1.47.04,3.32-.27,5.19-.87,2.46-.78,4.13-1.76,5.62-3.29.02.55.07.85.25,1.64Zm-8.54-4.67c.3-.2.41-.24.54-.21.26.08,1.12,1.01,1.79,1.91.41.56.53.78.49.92-.02.1-.37.4-.79.69-.39.26-.57.35-.68.32q-.1-.02-.52-.71c-.27-.44-.83-1.2-1.13-1.51q-.4-.44-.48-.52c-.04-.06-.06-.1-.05-.15.03-.12.39-.44.84-.75Z"/>
    <path class="cls-1" d="m83.11,59.81c-.22.84-.76,3.08-.9,3.74,0,.03-.01.05-.02.07-.03.12-.08.21-.16.24-.12.06-.68-.02-1.19-.15-.44-.11-.51-.18-.44-.45,0-.01,0-.03.01-.05.12-.35,1.19-4.29,1.61-5.92.82-3.16,1.02-4.05,1.1-4.88.97.32,1.4.48,1.77.66.13.08.18.16.15.27q-.02.07-.13.29c-.1.15-.17.34-.25.55,0,.03-.25.84-.71,2.45q.9.53,1.41.88c1.25.83,1.94,1.39,2.99,2.36.09.11.13.19.1.28-.04.14-.45.73-.78,1.09-.17.2-.26.26-.34.23-.05-.01-.11-.06-.19-.15-1.11-1.24-2.36-2.26-3.65-3.04l-.4,1.55Z"/>
    <path class="cls-1" d="m100.95,58.77c1.85.48,2.73,1.89,2.27,3.68-.46,1.77-2.02,2.49-4.16,1.94-.47-.12-.93-.3-1.09-.42-.1-.07-.14-.15-.13-.28.02-.48-.04-.96-.23-1.6.8.43,1.3.64,1.87.79,1.11.29,1.9-.05,2.13-.93.09-.34.08-.71,0-.94-.16-.41-.64-.76-1.25-.92-.78-.2-1.96-.14-4.47.25q.31,2.38.44,3.82c.17,1.7.29,3.22.26,3.35-.03.11-.13.16-.43.21-.44.08-.99.11-1.17.06-.14-.04-.14-.07-.15-.61-.03-2.47-.16-4.29-.47-6.55-1.17.21-1.73.36-2.09.56-.1.05-.19.07-.29.04-.18-.05-.31-.23-.47-.66-.17-.46-.23-.69-.35-1.19.94-.02,1.55-.07,2.98-.27-.29-1.82-.34-2.03-.69-2.86.97-.12,1.5-.14,1.82-.06.29.07.33.17.28.56-.06.39-.07.54,0,.97,0,.03.06.35.15,1.17,1.33-.18,1.8-.24,2.78-.29-.05-.04-.06-.06-.08-.12-.31-.72-.52-1.1-.99-1.77-.01-.06-.02-.09,0-.13q.02-.08.59-.37c.22-.12.54-.21.62-.19.07.02.13.06.2.14.67.85,1.1,1.57,1.04,1.81-.03.11-.56.46-.95.62.81-.01,1.49.06,2.07.21Z"/>
    <path class="cls-1" d="m107.98,63.68c0-.12.02-.19.04-.28l.58-2.22-.66-.17c-.67,1.41-1.56,2.28-3.03,2.98-.15-.55-.29-.87-.55-1.33,1.12-.41,1.74-.94,2.33-1.97l-.44-.11c-.36-.09-.68-.16-.99-.2l.36-1.39c.29.13.5.2.98.33l.6.16c.09-.24.13-.38.18-.57.06-.23.12-.5.14-.72l1.36.35c-.11.24-.12.29-.26.71-.06.22-.1.34-.19.55l.62.16c.44.11.75.18,1.03.22-.09.23-.18.52-.27.89l-.52,1.99c-.03.11,0,.16.12.19.15.04.16.03.45-1.11.29.25.34.28.51.41,1.08-.93,1.98-2.11,2.46-3.18l1.28.77c-.08.1-.19.24-.33.44-.21.31-.66.9-.93,1.27l1.21.31c.59-.65.99-1.21,1.4-1.96l1.32.68c-.66.9-.85,1.13-1.33,1.65l.47.12c.55.14,1,.23,1.33.27l-.36,1.4c-.27-.1-.71-.24-1.3-.4l-.51-.13-.37,1.41.55.14c.52.13.8.19,1.08.22l-.34,1.32c-.21-.1-.58-.21-1.06-.33l-.55-.14-.37,1.44.52.13c.51.13.84.2,1.1.23l-.34,1.32c-.22-.1-.6-.21-1.07-.34l-.52-.13-.4,1.55.74.19c.64.17.96.24,1.31.27l-.37,1.41c-.36-.15-.72-.26-1.3-.41l-3.35-.87-.16.63-1.44-.37c.14-.37.27-.78.43-1.37l1.65-6.38c-.11-.16-.11-.18-.33-.47-.23.73-.33.93-.56,1.1-.22.18-.57.21-1.02.09-.47-.12-.65-.21-.83-.42-.07.2-.1.31-.17.61l-.08.31.82.21c.63.16.91.22,1.23.25l-.36,1.4c-.33-.13-.64-.22-1.15-.36l-.63-.16c.37,1,.84,1.71,1.56,2.41-.39.3-.66.58-1.03,1.02-.54-.7-.87-1.29-1.17-2.15-.05.35-.11.66-.2,1l-.27,1.06c-.16.6-.22.91-.24,1.22l-1.44-.37c.12-.26.23-.58.37-1.13l.25-.97c.09-.36.17-.61.3-.98-.74.83-1.38,1.31-2.42,1.79q-.03-.29-.13-.78c-.1-.39-.12-.45-.26-.71,1.12-.37,2.09-1.01,2.87-1.88l-.75-.2c-.56-.15-.84-.2-1.2-.24l.37-1.41c.3.14.56.22,1.18.38l1.03.27.09-.33c.1-.37.15-.62.17-.89l1.19.31Zm2.7,6.24l1.29.33.4-1.55-1.29-.33-.4,1.55Zm.71-2.76l1.29.33.37-1.44-1.29-.33-.37,1.44Zm1.98-2.31l.37-1.41-1.29-.33-.37,1.41,1.29.33Z"/>
    <path class="cls-1" d="m119.29,72.02c-.58-.15-1.12-.27-1.41-.32.12-.35.25-.75.4-1.3l.71-2.76c.16-.62.25-1.03.3-1.37.34.1.73.22,1.34.38l6.35,1.65c.71.18,1.02.25,1.34.3-.14.37-.25.79-.42,1.44l-.67,2.59c-.13.51-.29,1.16-.32,1.41-.25-.09-.84-.26-1.38-.4l-.62-.16c.83.71,1.75,1.2,3.37,1.8-.49.38-.79.66-1.14,1.05-1.86-.85-2.57-1.33-3.83-2.56l.93-.46-3.72-.96.68.83c-1.65.48-2.43.56-4.57.44-.11-.55-.23-.88-.48-1.43,1.72.25,2.54.25,3.83.01l-.7-.18Zm.62-5.97c.09-.2.16-.38.24-.63l.11-.44c.04-.17.12-.39.19-.58-.63.28-.98.39-1.84.59-.07-.52-.14-.75-.42-1.34,1.1-.17,1.99-.45,2.89-.93.52-.26.94-.56,1.18-.81l1.23.91c-.08.04-.09.05-.17.1-.04.03-.11.07-.18.12t-.19.12c-.18.12-.6.36-.93.52l-.47,1.83c-.12.45-.16.67-.18.92l-1.47-.38Zm-.33,4.95l6.19,1.6.14-.52-6.19-1.6-.14.52Zm.37-1.44l6.19,1.6.13-.5-6.19-1.6-.13.5Zm.37-1.41l6.19,1.6.13-.5-6.19-1.6-.13.5Zm5.17-4.01c1.8.16,2.8.14,4-.11l.74,1.32c-1.85.17-3.11.15-5.03-.07l-.08.3c-.08.32.08.4,1.59.79,1.34.35,1.75.41,1.98.34.18-.07.28-.28.49-.97.47.34.75.5,1.24.7-.4,1.04-.65,1.37-1.12,1.5-.28.07-.56.07-1.07-.01-.28-.04-1.72-.37-2.14-.48-2.26-.59-2.69-.9-2.47-1.77l.51-1.98c.12-.45.17-.76.2-1.06l1.51.39c-.14.3-.19.49-.31.96l-.04.15Z"/>
    <path class="cls-1" d="m133.8,67.24c-.58.48-.94.71-1.72,1.11-.23-.47-.43-.78-.74-1.2.93-.37,1.44-.68,1.99-1.23.33-.31.57-.6.75-.93l1.34.63c-.08.09-.13.16-.17.21-.21.22-.25.27-.38.4l1.7.44c.56.15.95.22,1.29.26l-.28,1.07c.7-.43,1.29-1.03,1.67-1.63l1.24.69c-.09.11-.23.28-.44.52l2.4.62c.69.18,1.07.26,1.46.3l-.35,1.36c-.39-.14-.78-.28-1.37-.43l-1.01-.26c.14.48.17.54.27,1.05l-1.4.08c-.09-.67-.16-.96-.31-1.5l-.73-.19c-.39.32-.66.52-1.04.73-.09.17-.14.33-.23.66l3,.78c.63.16,1.06.26,1.43.3l-.34,1.3c-.37-.14-.87-.3-1.39-.44l-3-.78-.22.87,3.85,1c.69.18,1.16.27,1.54.31l-.35,1.36c-.43-.15-.89-.3-1.49-.46l-1.15-.3-.22.87,1.03.27c.6.16,1.1.26,1.55.33l-.35,1.34c-.42-.17-.88-.32-1.51-.48l-1.03-.27-.48,1.84c-.16.63-.46.92-.98.96-.29.03-.79-.06-1.61-.27-.29-.07-.49-.14-.96-.29.07-.6.05-.88-.03-1.47.6.24,1.03.38,1.62.54.47.12.59.09.66-.17l.39-1.5-4.29-1.11c.56.76.73,1.02,1.37,2.19l-1.41.6c-.45-1.04-.7-1.47-1.33-2.32l1.17-.52-1.6-.42c-.63-.16-1.12-.26-1.56-.32l.35-1.34c.43.15.9.31,1.5.46l6.12,1.59.22-.87-6.17-1.6c-.58-.15-1.12-.26-1.57-.33l.35-1.36c.36.15.83.3,1.5.48l3.53.91.22-.87-2.55-.66c-.63-.16-1.12-.26-1.47-.31l.34-1.3c.36.15.79.28,1.45.45l2.54.66c.09-.36.11-.54.13-.79l.96.25c-.22-.35-.3-.47-.57-.75.18-.08.23-.1.37-.17-.23-.07-.5-.16-.71-.21l-.67-.17c.11.41.15.57.23,1.04l-1.39.05c-.06-.78-.09-.96-.21-1.45l-.73-.19Z"/>
    <path class="cls-1" d="m143.45,76.72c.3-.16.39-.19.48-.17.18.05.84.86,1.3,1.6.52.81,1.05,1.93,1,2.12-.03.12-.07.14-.56.4-.65.35-.78.4-.87.37-.08-.02-.15-.1-.18-.25-.26-.98-1.07-2.38-1.88-3.27-.09-.11-.13-.18-.11-.26.02-.1.06-.13.81-.54Z"/>
    <path class="cls-1" d="m151.83,75.12c-.12,0-.18.01-.27.03-.08.02-.12.03-.19,0-.29-.07-.37-.67-.27-1.72.11.04.2.07.26.08.58.15,2.09.35,3.02.4.6-1.13.99-2,1.16-2.66.01-.05.03-.12.04-.24.57.22,1.1.49,1.45.74.2.14.28.29.24.43-.02.07-.04.11-.14.2q-.3.32-1.12,1.72c.34.04.72.11.95.17.56.15.97.37,1.23.67.44.54.51,1.42.19,2.67-.53,2.04-1.35,3.69-2.21,4.39-.6.49-1.25.63-2.06.42-.49-.13-.94-.32-1.06-.43q-.09-.1,0-.62c.05-.38.05-.72-.01-1.14.65.42.82.5,1.26.62.66.17,1.01-.07,1.6-1.09.39-.67.75-1.59,1.01-2.59.28-1.07.12-1.52-.61-1.71-.25-.06-.65-.14-.98-.17-.08.14-.1.15-.2.33-.75,1.3-1.93,2.97-3.01,4.27-1.11,1.31-1.37,1.56-1.55,1.52-.11-.03-.43-.32-.76-.68-.27-.27-.33-.38-.3-.49q.02-.07.81-.82c1.06-.97,2.64-3.01,3.33-4.26-1.07-.04-1.67-.05-1.8-.04Zm7.39.28c.03-.1.18-.19.66-.4.33-.13.49-.18.58-.16.08.02.14.08.27.3.61.99,1.09,2.23,1.3,3.25.06.34.09.55.07.63-.04.14-.09.17-.62.41-.33.15-.69.25-.8.22-.1-.03-.13-.08-.16-.33-.1-.74-.23-1.33-.42-1.93-.21-.64-.26-.74-.85-1.82-.03-.1-.04-.14-.03-.18Z"/>
    <path class="cls-1" d="m165.11,83.56q.39-1.5.57-2.14c-.88.58-1.5,1.06-1.85,1.42-.1.12-.22.18-.3.16-.14-.04-.39-.41-.7-1.02-.12-.27-.17-.41-.16-.47q.02-.1.9-.6c.74-.44,1.78-1.16,2.78-1.96.02-.08.1-.4.26-.94-.71-.05-1.63-.04-1.89.02-.16.03-.19.04-.25.02-.23-.06-.29-.65-.19-1.76.73.17,1.66.31,2.71.41.13-.49.32-1.19.42-1.57.11-.41.17-.75.18-1.04.85.28,1.26.44,1.62.64.19.11.25.21.21.36-.02.07-.06.13-.15.25-.21.24-.25.33-.64,1.39.28.29.5.72.46.89q-.03.12-.59.54c-.06.04-.22.19-.5.4q-.13.44-.15.53c1.64-.79,2.9-.98,4.25-.63,2.14.55,3.13,2.26,2.57,4.44-.43,1.67-1.53,2.72-3.32,3.17-.69.19-1.82.29-2.12.21-.08-.02-.17-.07-.2-.14t-.13-.33c-.15-.39-.34-.72-.57-.98,2.92-.03,4.25-.71,4.69-2.4.34-1.32-.22-2.37-1.46-2.69-.81-.21-1.62-.14-2.65.21q-.51.17-1.47.63-.02.11-.06.29c-.38,1.47-.41,1.59-1.08,4.49-.03.15-.05.26-.06.29-.07.26-.27.27-1.28,0-.36-.09-.37-.14-.27-.53l.43-1.59Z"/>
    <path class="cls-1" d="m38.29,63.85c.1-.4.23-.94.28-1.25.61.23,1.05.45,1.39.68.3.21.39.32.35.47q-.02.08-.11.21c-.3.42-.49.93-.81,2.18-.46,1.76-.63,2.88-.57,3.79.04.7.26,1.15.63,1.25.56.15,1.2-.39,2.1-1.78.08.77.12,1,.38,1.59.04.11.06.22.04.32-.06.22-.38.63-.76.96-.74.64-1.53.89-2.26.7-1.06-.27-1.63-1.33-1.69-3.15-.03-1.18.18-2.6.67-4.52l.37-1.44Zm8.11,2.33c.08.02.14.08.22.2.52.84.95,2.12,1.12,3.31.11.81.15,1.85.07,2.14-.04.14-.12.19-.45.26-.36.08-1.06.14-1.22.09-.12-.03-.16-.11-.14-.37.1-1.1.05-1.94-.15-2.94-.18-.89-.19-.94-.83-2.34.69-.28,1.2-.4,1.37-.36Z"/>
    <path class="cls-1" d="m51.46,67.26c.1-.4.23-.94.28-1.25.61.23,1.05.45,1.39.68.3.21.39.32.35.47q-.02.08-.11.21c-.3.42-.49.93-.81,2.18-.46,1.76-.63,2.88-.57,3.79.04.7.26,1.15.63,1.25.56.15,1.2-.39,2.1-1.78.08.77.12,1,.38,1.59.04.11.06.22.03.32-.06.22-.38.63-.76.96-.74.64-1.53.89-2.26.7-1.06-.27-1.63-1.33-1.69-3.15-.03-1.18.18-2.6.67-4.53l.37-1.44Zm8.11,2.33c.08.02.14.08.23.2.51.84.94,2.12,1.12,3.31.11.8.15,1.85.07,2.14-.04.14-.12.19-.45.26-.36.08-1.06.14-1.22.09-.12-.03-.16-.11-.14-.37.1-1.1.05-1.94-.15-2.94-.18-.89-.19-.94-.83-2.34.69-.28,1.2-.41,1.37-.36Z"/>
    <path class="cls-1" d="m67.17,72.87c-.92-.45-1.59-.93-2.01-1.41-.2-.23-.24-.31-.21-.44.04-.15.22-.4.8-1.07.56.6,1.24,1.1,2.06,1.5.44-.91.73-1.68.97-2.57.67.3,1.23.67,1.52.95.13.12.16.22.12.33-.01.05-.06.1-.16.22-.32.37-.34.41-.98,1.68.13.05.31.09.42.12.01,0,.06.01.1.03.33.07.58.14.7.17h.04c.12.04.15.11.1.29-.16.6-.33,1.09-.4,1.17-.06.06-.25.04-.82-.11-.26-.07-.46-.13-.84-.25q-.65,1.34-.97,2.05c.46.16.55.19.79.25l.77.19c.14.04.2.08.22.16.03.1-.04.55-.17,1.04-.06.25-.1.31-.19.33-.08,0-.38-.06-.9-.19-.25-.06-.61-.17-1.09-.33-.08.24-.12.41-.15.52-.33,1.26.11,1.99,1.4,2.33,1.44.37,2.49-.1,2.79-1.28.11-.43.12-.83,0-1.32-.14-.59-.32-.96-.85-1.65.05.01.1.03.12.03.22.06.7.11,1.14.13.23.02.32.02.38.04.21.05.32.19.5.6.43.93.54,1.82.32,2.67-.5,1.93-2.4,2.8-4.77,2.19-2.22-.58-3.05-1.98-2.46-4.23.05-.19.09-.34.18-.57-1.28-.64-1.85-1.5-1.6-2.48.13-.51.38-.84.86-1.12.05-.04.11-.04.17-.03.08.02.16.12.41.46.19.27.22.32.21.39q-.01.05-.13.16c-.08.08-.17.22-.19.3-.05.18.02.36.21.51.17.15.22.17.63.38l.93-2.13Z"/>
    <path class="cls-1" d="m80.7,81.13c-.95.97-2.02,1.37-2.95,1.12-1.43-.37-2.08-2.03-1.58-3.98.56-2.17,2.14-3.75,4.28-4.25,1.05-.26,2.09-.22,3.4.12,2.87.74,4.47,3.32,3.76,6.04-.62,2.4-2.25,3.82-4.78,4.21-.5.08-.89.09-1.07.05-.17-.04-.22-.12-.33-.42-.14-.42-.33-.75-.64-1.09,3.01,0,4.63-1,5.21-3.22.3-1.14.06-2.22-.63-3.05-.4-.45-.74-.69-1.47-1.01-1.13,2.79-2,4.25-3.21,5.48Zm-.72-5.37c-1.13.57-1.95,1.59-2.28,2.88-.27,1.06-.09,1.76.49,1.91.69.18,1.63-.59,2.57-2.08.6-.94.96-1.68,1.56-3.15-1.03-.05-1.57.06-2.34.45Z"/>
    <path class="cls-1" d="m90.72,80.1c-.12,0-.18.01-.27.03-.08.02-.12.03-.18.01-.3-.08-.39-.66-.29-1.71.11.03.21.05.26.07.58.15,2.09.35,3.01.4.6-1.12.99-2,1.15-2.64.01-.05.04-.14.05-.24.58.21,1.11.48,1.45.74.2.14.28.28.24.41-.02.07-.05.12-.14.21q-.3.3-1.12,1.7c.34.04.72.11.95.17.56.15.97.37,1.23.67.45.54.51,1.42.19,2.67-.53,2.04-1.36,3.7-2.21,4.41-.6.49-1.25.63-2.06.42-.49-.13-.94-.32-1.06-.43q-.09-.1,0-.62c.05-.38.06-.73,0-1.16.65.43.82.52,1.26.63.66.17,1.01-.07,1.6-1.11.39-.67.75-1.58,1.01-2.59.28-1.07.12-1.52-.61-1.71-.25-.06-.66-.13-.98-.17-.08.15-.1.17-.2.33-.75,1.31-1.93,2.97-3.01,4.27-1.11,1.31-1.37,1.56-1.55,1.52-.11-.03-.43-.32-.76-.68-.27-.27-.33-.38-.3-.49q.02-.07.81-.82c1.06-.97,2.63-2.99,3.33-4.26-1.08-.03-1.67-.05-1.81-.04Zm7.51.5c.03-.1.18-.19.66-.4.33-.13.49-.18.6-.15.18.05.62.87.99,1.82.3.81.57,1.92.51,2.15-.04.14-.09.17-.62.41-.33.15-.69.25-.8.22-.1-.03-.13-.08-.16-.33-.09-.73-.21-1.24-.42-1.93-.22-.69-.24-.72-.71-1.6-.04-.08-.05-.13-.04-.19Zm1.83-1.08c-.26.11-.43.14-.5.12-.04,0-.07-.05-.1-.13-.17-.54-.51-1.2-.82-1.65-.02-.03-.03-.06-.02-.09.01-.06.14-.13.42-.24.28-.1.35-.13.45-.1.22.06,1.11,1.59,1.05,1.81-.02.08-.16.15-.48.29Zm1.06-2.67c.23.06,1.1,1.53,1.04,1.76-.02.07-.12.13-.45.25-.3.13-.44.16-.49.15q-.07-.02-.24-.47c-.15-.38-.47-.96-.66-1.23-.03-.05-.05-.09-.04-.13.03-.11.7-.38.85-.34Z"/>
    <path class="cls-1" d="m104.14,80.91c.1-.4.23-.94.28-1.25.61.23,1.06.45,1.39.68.3.21.39.32.35.47q-.02.08-.11.21c-.3.42-.49.93-.81,2.17-.46,1.76-.63,2.88-.57,3.79.04.7.26,1.15.63,1.25.56.15,1.2-.39,2.1-1.78.08.77.12,1,.38,1.59.04.11.06.22.03.32-.06.22-.38.63-.76.96-.74.64-1.53.89-2.26.7-1.06-.27-1.63-1.33-1.69-3.15-.03-1.18.18-2.6.67-4.53l.37-1.44Zm8.11,2.33c.08.02.14.08.22.2.52.84.95,2.12,1.12,3.31.11.81.15,1.85.07,2.14-.04.14-.12.19-.45.26-.36.08-1.06.14-1.22.09-.12-.03-.16-.11-.14-.37.09-1.1.05-1.94-.15-2.94-.18-.89-.19-.94-.83-2.34.69-.28,1.2-.4,1.37-.36Z"/>
    <path class="cls-1" d="m119.15,87.12c1.85-.03,3.16.07,4.09.31,1.94.5,2.85,1.87,2.41,3.58-.27,1.03-.93,1.82-1.91,2.3-.65.31-1.55.49-2.69.53-.63.01-1.3-.03-1.57-.1-.17-.04-.24-.11-.26-.26-.07-.53-.2-.93-.41-1.29,3.1.47,4.89-.09,5.29-1.66.21-.8-.29-1.58-1.14-1.8-1.48-.38-3.23-.31-5.17.2-.16.03-.25.05-.3.04-.23-.06-.44-.85-.5-1.92.7.08.94.08,2.16.06Z"/>
    <path class="cls-1" d="m131.55,93.93c.03.07.03.11.02.17q-.02.08-.42.65c-.51.76-.86,1.4-1.06,1.92-.06.17-.13.23-.32.22-.21,0-.58-.06-.94-.16-.14-.04-.2-.08-.22-.17-.06-.29-.03-1.3.06-2.09.07-.67.2-1.35.38-2.05.41-1.58.98-3.03,2.17-5.59.2-.42.28-.62.43-1.03.61.25,1.02.48,1.36.79.18.16.24.27.2.4-.02.07-.06.13-.16.22-.81.81-2.1,3.64-2.67,5.84-.09.33-.21.85-.34,1.52.55-.76.8-1.11,1.27-1.69,0,.4.05.6.23,1.04Zm3.24-3.01c-.66-.17-.79-.23-.79-.4-.01-.13.06-.58.14-.9.03-.11.06-.22.13-.46.36.12.58.19,1.03.31.74.19,1.21.3,1.93.44.44-1.75.48-1.97.52-2.66.67.19,1.16.37,1.57.6.19.11.26.2.22.33-.02.07-.04.09-.11.19-.22.29-.43.81-.7,1.75.53.06.99.09,1.86.12.08,0,.1,0,.14,0,.08.02.11.07.12.18,0,.13-.1.66-.17.95-.08.33-.12.39-.27.41-.25.04-.88,0-2.08-.17-.25.95-.57,2.53-.7,3.45.77.59,1.28,1.06,1.77,1.64.31.39.37.49.34.6-.04.14-.4.54-.79.86-.22.19-.33.24-.42.21q-.1-.03-.33-.41c-.22-.38-.48-.68-.98-1.25-.01.05-.02.1-.03.11-.32,1.22-1.52,1.74-3.04,1.35-1.55-.4-2.35-1.49-2.03-2.72s1.6-1.88,2.99-1.53c.51.13.76.21,1.12.36q.22-1.08.66-2.92c-.6-.11-1.54-.33-2.09-.47Zm.08,4.33c-.69-.18-1.22.02-1.35.5-.11.44.24.82.9.99.73.19,1.2-.04,1.36-.66.05-.21.07-.35.08-.36-.32-.23-.62-.38-.99-.48Zm8.05-6.55c-.21.82-1.02,1.3-1.85,1.09-.84-.22-1.31-1.03-1.1-1.85s1.03-1.3,1.86-1.08c.82.21,1.3,1.03,1.09,1.85Zm-2.21-.57c-.1.4.14.81.54.92.4.1.83-.14.93-.54s-.15-.82-.55-.92c-.4-.1-.81.14-.92.54Z"/>
    <path class="cls-1" d="m143.66,91.15c.1-.4.23-.94.28-1.25.61.23,1.06.45,1.39.68.3.21.39.32.35.47q-.02.08-.11.21c-.3.42-.49.93-.81,2.18-.46,1.76-.63,2.88-.57,3.79.04.7.26,1.15.63,1.25.56.15,1.2-.39,2.1-1.78.08.77.12,1,.38,1.59.04.11.06.22.03.32-.06.22-.38.63-.76.96-.74.64-1.53.89-2.26.7-1.06-.27-1.63-1.33-1.69-3.15-.03-1.18.18-2.6.67-4.52l.37-1.44Zm8.11,2.33c.08.02.14.08.23.2.51.84.94,2.12,1.12,3.31.11.81.15,1.85.07,2.14-.04.14-.12.19-.45.26-.36.08-1.06.14-1.22.09-.12-.03-.16-.11-.14-.37.09-1.1.05-1.94-.15-2.94-.18-.89-.19-.94-.83-2.34.69-.28,1.2-.4,1.37-.36Z"/>
    <path class="cls-1" d="m156.54,99.84c-.69-1.91-.88-3.46-.55-4.71.34-1.32,1.28-2.41,2.39-2.79.58-.19,1.23-.21,1.87-.04.69.18,1.33.56,1.67,1,.27.36.38.64.41,1.07.68-.86,1.61-1.12,2.88-.79,1.02.26,1.62.74,2.06,1.59.44.89.52,1.88.25,2.93-.37,1.43-1.35,2.77-2.99,4.09-.96.78-1.69,1.26-3.41,2.32q-1.27.8-1.69,1.05c-1.37-2.35-2.42-4.44-2.89-5.73Zm6.11,3.02c1.78-1.21,2.82-2.2,3.57-3.32.38-.56.63-1.08.76-1.56.28-1.07.05-2.36-.53-3.08-.34-.4-.76-.64-1.43-.81-.52-.13-1-.14-1.39,0-.53.17-.99.62-1.18,1.1-.17.44-.26.55-.44.5-.21-.05-.23-.19-.14-.65.09-.45-.16-1.14-.53-1.53-.29-.31-.72-.54-1.27-.68-.91-.24-1.54-.11-2.23.43-.64.51-1.09,1.21-1.3,2.02-.31,1.18-.14,2.58.48,4.31.52,1.44,1.11,2.6,2.62,5.19,1.87-1.17,2.87-1.82,3.01-1.91Z"/>
  </g>
</svg>