<?xml version="1.0" encoding="UTF-8"?>
<svg id="CONTENTS" xmlns="http://www.w3.org/2000/svg" viewBox="0 0 495.29 95.61">
  <defs>
    <style>
      .cls-1, .cls-2, .cls-3 {
        fill: none;
        stroke: #231815;
        stroke-miterlimit: 10;
        stroke-width: 1.25px;
      }

      .cls-2 {
        stroke-dasharray: 0 0 2.58 2.58;
      }

      .cls-3 {
        stroke-dasharray: 0 0 2.42 2.42;
      }
    </style>
  </defs>
  <g>
    <path d="m56.69,48.88c-.4.04-.99.14-1.75.26l-4.98.81c.42,1.98.73,3.63.83,4.05.14.58.28,1.23.48,1.79l-1.63.3c-.1-.65-.16-1.25-.3-1.83-.08-.42-.4-2.06-.79-4.09-2.28.38-4.46.73-5.44.91-.75.14-1.29.24-1.71.36l-.34-1.57c.46-.02,1.19-.1,1.71-.16,1.01-.14,3.21-.48,5.51-.85l-.81-4.13c-1.9.3-3.67.58-4.44.71-.63.12-1.15.22-1.57.32l-.32-1.61c.48-.02.99-.06,1.63-.12.79-.08,2.56-.36,4.44-.65-.22-1.11-.4-1.92-.44-2.14-.1-.5-.24-.93-.36-1.33l1.59-.28c.02.38.12.91.18,1.35.02.2.2,1.03.42,2.18,1.96-.32,3.83-.63,4.7-.79.58-.1,1.03-.22,1.35-.32l.3,1.51c-.28.02-.83.12-1.35.2l-4.74.75.83,4.11c2.04-.34,3.97-.67,4.98-.85.77-.14,1.31-.26,1.71-.38l.3,1.49Z"/>
    <path d="m76.08,45.69c-.08.18-.2.4-.24.54-.52,1.96-1.41,4.05-2.9,5.67-2.08,2.28-4.56,3.41-7.08,4.11l-1.09-1.27c2.76-.56,5.26-1.83,6.98-3.65,1.23-1.29,2.06-3.05,2.42-4.56h-10.69c-.48,0-1.19.02-1.88.06v-1.49c.69.06,1.35.1,1.88.1h10.55c.42,0,.83-.04,1.03-.14l1.01.63Zm-12.7-5.12c.52.06,1.09.08,1.71.08h7.86c.61,0,1.27-.02,1.73-.08v1.47c-.46-.04-1.09-.06-1.77-.06h-7.82c-.59,0-1.19.02-1.71.06v-1.47Z"/>
    <path d="m96.38,48.88c-.4.04-.99.14-1.75.26l-4.98.81c.42,1.98.73,3.63.83,4.05.14.58.28,1.23.48,1.79l-1.63.3c-.1-.65-.16-1.25-.3-1.83-.08-.42-.4-2.06-.79-4.09-2.28.38-4.46.73-5.44.91-.75.14-1.29.24-1.71.36l-.34-1.57c.46-.02,1.19-.1,1.71-.16,1.01-.14,3.21-.48,5.51-.85l-.81-4.13c-1.9.3-3.67.58-4.44.71-.63.12-1.15.22-1.57.32l-.32-1.61c.48-.02.99-.06,1.63-.12.79-.08,2.56-.36,4.44-.65-.22-1.11-.4-1.92-.44-2.14-.1-.5-.24-.93-.36-1.33l1.59-.28c.02.38.12.91.18,1.35.02.2.2,1.03.42,2.18,1.96-.32,3.83-.63,4.7-.79.58-.1,1.03-.22,1.35-.32l.3,1.51c-.28.02-.83.12-1.35.2l-4.74.75.83,4.11c2.04-.34,3.97-.67,4.98-.85.77-.14,1.31-.26,1.71-.38l.3,1.49Z"/>
    <path d="m115.77,45.69c-.08.18-.2.4-.24.54-.52,1.96-1.41,4.05-2.9,5.67-2.08,2.28-4.56,3.41-7.08,4.11l-1.09-1.27c2.76-.56,5.26-1.83,6.98-3.65,1.23-1.29,2.06-3.05,2.42-4.56h-10.69c-.48,0-1.19.02-1.88.06v-1.49c.69.06,1.35.1,1.88.1h10.55c.42,0,.83-.04,1.03-.14l1.01.63Zm-12.7-5.12c.52.06,1.09.08,1.71.08h7.86c.61,0,1.27-.02,1.73-.08v1.47c-.46-.04-1.09-.06-1.77-.06h-7.82c-.59,0-1.19.02-1.71.06v-1.47Z"/>
    <path d="m133.92,43.41c-.42.24-.87.5-1.43.77-1.35.69-4.13,2.02-6.05,3.31-1.86,1.21-2.96,2.52-2.96,4.03,0,1.67,1.57,2.72,4.74,2.72,2.14,0,4.78-.28,6.27-.65l-.02,1.59c-1.43.26-3.75.48-6.19.48-3.65,0-6.27-1.11-6.27-3.97,0-1.98,1.25-3.59,3.41-5.08-.91-1.61-1.94-3.93-2.86-6.09l1.39-.58c.79,2.18,1.81,4.34,2.66,5.89,1.88-1.15,4.11-2.2,5.2-2.84.54-.32.93-.56,1.33-.87l.77,1.29Z"/>
    <path d="m157.08,53.84h-4.72v2.88h-1.21v-2.88h-4.66v-.97c-1.17.58-2.34,1.13-3.37,1.63l-.42-1.21.75-.3v-6.19h-1.57c-.08,4.4-.4,7.86-2.1,9.92-.2-.28-.6-.67-.89-.87,1.55-1.82,1.81-5,1.86-9.04h-1.69v-1.23h3.09v-6.7h1.15v6.7h3.25v1.23h-1.96v5.69l2.04-.85.24,1.03-.04.02h4.3v-1.53h-3.69v-5.77h3.69v-1.47h-3.97v-1.11h3.97v-1.57h1.21v1.57h3.97v1.11h-3.97v1.47h3.83v5.77h-3.83v1.53h4.72v1.15Zm-16.76-8.95c-.08-1.25-.54-3.13-1.05-4.6l.95-.22c.56,1.45,1.03,3.33,1.13,4.58l-1.03.24Zm6.05-4.56c-.48,1.53-1.09,3.41-1.63,4.58l-.87-.28c.5-1.23,1.07-3.23,1.37-4.6l1.13.3Zm1.55,2.04h-1.13v-2.98h9.96v2.98h-1.19v-1.9h-7.64v1.9Zm.62,5.44h2.62v-1.47h-2.62v1.47Zm2.62,2.42v-1.51h-2.62v1.51h2.62Zm1.21-3.89v1.47h2.7v-1.47h-2.7Zm2.7,2.38h-2.7v1.51h2.7v-1.51Z"/>
    <path d="m171.8,40.61c-.38.3-.97.81-1.27,1.07-1.37,1.21-4.25,3.49-5.71,4.72-1.21,1.03-1.23,1.35.08,2.42,1.84,1.47,5.46,4.48,7.36,6.41l-1.25,1.13c-.38-.44-.89-.93-1.29-1.35-1.07-1.17-4.4-4.01-6.25-5.51-1.84-1.53-1.61-2.38.12-3.85,1.47-1.23,4.5-3.61,5.83-4.98.36-.36.85-.89,1.05-1.25l1.33,1.19Z"/>
    <path d="m185.93,44.06c-1.03,5.16-3.47,8.79-6.39,10.71-.22-.3-.73-.81-1.05-1.03,2.64-1.63,4.82-4.62,5.79-8.67h-5.32v-1.29h5.83l.26-.06.87.34Zm10.22-1.31c-1.55,1.75-3.73,3.87-5.44,5.2,1.55,2.74,3.63,4.94,6.29,6.07-.32.28-.77.79-1.01,1.19-3.53-1.69-5.97-5.16-7.56-9.38v9c0,.97-.26,1.41-.89,1.65-.63.24-1.75.28-3.57.28-.08-.38-.34-1.05-.56-1.41,1.47.04,2.74.02,3.11.02.4-.02.56-.14.56-.54v-16.11h1.35v3.57c.44,1.63,1.01,3.17,1.73,4.62,1.63-1.39,3.61-3.43,4.82-5l1.17.83Z"/>
    <path d="m208.11,41.28c-.24.87-.54,1.83-.81,2.62h8.03v12.85h-1.33v-1.05h-12.91v1.05h-1.29v-12.85h6.15c.24-.79.48-1.77.63-2.62h-7.68v-1.25h17.4v1.25h-8.19Zm-7.02,13.19h2.98v-9.34h-2.98v9.34Zm8.59-9.34h-4.4v2.32h4.4v-2.32Zm0,3.41h-4.4v2.38h4.4v-2.38Zm-4.4,5.93h4.4v-2.46h-4.4v2.46Zm8.73-9.34h-3.11v9.34h3.11v-9.34Z"/>
    <path d="m227.2,54.38c.59-.04,1.19-.14,1.65-.24,2.52-.54,5.08-2.42,5.08-5.91,0-3.01-1.96-5.51-5.44-5.77-.24,1.87-.61,3.87-1.15,5.71-1.21,4.05-2.76,6.07-4.52,6.07-1.67,0-3.41-1.96-3.41-5.2,0-4.21,3.77-7.89,8.51-7.89s7.46,3.21,7.46,7.14-2.74,6.84-7.36,7.42l-.81-1.33Zm-1.27-6.53c.52-1.65.89-3.55,1.11-5.38-3.85.46-6.25,3.73-6.25,6.47,0,2.56,1.21,3.67,2.08,3.67s2.02-1.31,3.06-4.76Z"/>
    <path d="m248.67,51.66c1.29,2.34,3.87,3.51,7.76,3.91-.3.28-.65.83-.81,1.19-4.25-.56-6.9-2.04-8.29-5.1h-.2c-.99,2.62-3.17,4.25-8.27,5.08-.1-.34-.44-.89-.67-1.17,4.52-.65,6.53-1.9,7.5-3.91h-7.26v-1.19h7.7c.18-.6.28-1.23.38-1.92h-7.93v-1.21h8.01v-1.79h-6.23v-1.15h6.23v-1.71h-7.22v-1.21h4.15c-.34-.73-.95-1.67-1.59-2.36l1.11-.48c.77.73,1.47,1.79,1.79,2.52l-.67.32h6.07l-.73-.28c.58-.67,1.35-1.81,1.79-2.56l1.33.44c-.6.89-1.31,1.77-1.88,2.4h4.48v1.21h-7.3v1.71h6.41v1.15h-6.41v1.79h8.07v1.21h-8.11c-.1.69-.2,1.33-.34,1.92h8.67v1.19h-7.5Z"/>
    <path d="m263.85,39.92c-.1.6-.14,1.23-.18,1.84-.08,2.24-.24,6.92-.24,9.96,0,2.18,1.43,2.96,3.31,2.96,3.67,0,5.69-2.04,7.1-4.09l.99,1.23c-1.35,1.84-3.85,4.28-8.13,4.28-2.76,0-4.68-1.13-4.68-4.3,0-2.98.2-7.9.2-10.04,0-.69-.04-1.33-.16-1.86l1.79.02Z"/>
    <path d="m293.75,43.27c-1.23.32-2.54.62-3.75.81.67,1.55,1.77,3.91,2.66,5.57l-.85.85c-.79-.16-2.74-.44-3.99-.55l.14-1.15c.77.06,2.2.22,2.88.3-.6-1.27-1.63-3.43-2.22-4.82-2.56.32-5.4.32-8.37.06l-.04-1.43c2.86.38,5.57.36,7.85.12l-.69-1.55c-.34-.73-.5-1.09-.81-1.61l1.61-.3c.48,1.37.85,2.22,1.29,3.25,1.35-.22,2.7-.52,4.05-.97l.26,1.41Zm-11.13,5.97c-.34.75-.58,1.9-.58,2.5,0,1.79,1.27,2.84,4.23,2.84,2.56,0,3.73-.24,5.12-.54l-.02,1.47c-1.25.22-2.52.44-5.12.44-3.61,0-5.61-1.45-5.61-3.87,0-.85.22-1.9.54-2.98l1.45.14Z"/>
    <path d="m301.57,41.09c.14.3.48.91.67,1.25.36.65.75,1.47,1.19,2.32,2.34-1.03,5.04-2.12,7.08-2.12,2.68,0,4.32,1.51,4.32,3.63s-1.39,3.89-4.46,3.89c-1.09,0-2.2-.26-2.92-.54l.04-1.43c.73.36,1.73.65,2.8.65,2.28,0,3.11-1.25,3.11-2.64,0-1.21-.91-2.3-2.94-2.3-1.75,0-4.21.95-6.51,2,.28.58.54,1.15.79,1.71,1.11,2.5,2.28,6.05,2.98,8.21l-1.55.4c-.62-2.28-1.53-5.42-2.68-8.03l-.77-1.69c-1.53.73-2.92,1.45-3.83,1.86l-.69-1.49c.54-.14,1.21-.36,1.57-.52.65-.26,1.49-.63,2.4-1.03-.44-.91-.83-1.69-1.17-2.24-.22-.4-.6-.95-.91-1.33l1.47-.58Zm6.05,1.33c-.77-.75-1.71-1.65-2.56-2.28l1.01-.73c.65.5,1.81,1.43,2.56,2.2l-1.01.81Z"/>
    <path d="m321.04,47.27c-.73-.63-2.26-1.55-3.47-2.14l.73-.97c1.17.56,2.74,1.41,3.49,2.02l-.75,1.09Zm1.27,2.82c-.89,2.08-2.08,4.56-3.09,6.39l-1.15-.79c.93-1.55,2.26-4.15,3.23-6.39l1.01.79Zm-.3-7.97c-.71-.69-2.22-1.67-3.39-2.3l.77-.93c1.13.58,2.66,1.51,3.39,2.18l-.77,1.05Zm12.14,4.64c-.71,2.6-1.88,4.66-3.43,6.27,1.43,1.19,3.13,2.08,5.1,2.6-.3.26-.65.77-.85,1.13-2-.62-3.71-1.57-5.16-2.82-1.49,1.27-3.17,2.2-5,2.86-.18-.32-.58-.87-.85-1.09,1.83-.62,3.49-1.49,4.94-2.7-1.41-1.47-2.48-3.29-3.21-5.38h-.65c-.08,2.92-.6,6.55-2.58,9.12-.22-.24-.77-.56-1.09-.67,2.18-2.76,2.42-6.67,2.42-9.52v-4.98h4.82v-2.92h1.29v2.92h4.54l.24-.06.93.28c-.5,1.41-1.13,2.98-1.69,3.95l-1.13-.38c.36-.67.73-1.63,1.07-2.56h-3.97v3.61h3.21l.24-.04.81.38Zm-9.1-3.95v3.61h3.55v-3.61h-3.55Zm1.86,4.82c.65,1.73,1.63,3.27,2.88,4.54,1.19-1.21,2.14-2.72,2.74-4.54h-5.61Z"/>
    <path d="m355.26,45.15v1.21h-17.56v-1.21h5.14c-.16-.87-.67-2.16-1.25-3.09l1.25-.28c.62.93,1.17,2.22,1.31,3.07l-1.15.3h6.74l-.97-.28c.5-.87,1.11-2.22,1.45-3.15l1.41.34c-.52,1.07-1.11,2.28-1.63,3.09h5.26Zm-.99-3.45h-15.43v-1.19h6.94v-1.84h1.33v1.84h7.16v1.19Zm-13.65,6.47h11.96v8.53h-1.37v-.69h-9.28v.75h-1.31v-8.59Zm1.31,1.13v2.22h9.28v-2.22h-9.28Zm9.28,5.57v-2.28h-9.28v2.28h9.28Z"/>
    <path d="m361.63,40.43c-.12.32-.26.87-.34,1.23-.4,1.92-.97,5.34-.97,7.6,0,1.05.04,1.88.18,2.96.34-.93.79-2.16,1.13-2.98l.77.58c-.48,1.35-1.21,3.41-1.39,4.34-.06.26-.1.63-.08.85,0,.22.04.48.06.67l-1.29.1c-.4-1.41-.71-3.65-.71-6.31,0-2.88.65-6.25.91-7.89.06-.44.12-.89.12-1.29l1.61.14Zm4.48,9.48c-.2.71-.3,1.29-.3,1.83,0,.89.6,1.82,3.39,1.82,1.77,0,3.29-.16,4.86-.52l.04,1.51c-1.21.24-2.88.4-4.88.4-3.27,0-4.72-1.09-4.72-2.9,0-.69.14-1.47.32-2.26l1.29.12Zm7.36-7.95v1.47c-2.06.22-5.91.22-7.99,0v-1.45c2.08.36,6.05.28,7.99-.02Z"/>
    <path d="m380.35,46.04c-.32,2.62-.95,5.77-2.38,7.66l-1.17-.71c1.35-1.73,2.02-4.66,2.28-7.2l1.27.26Zm3.35-1.88v10c0,.91.2,1.09,1.33,1.09h3.83c1.21,0,1.41-.71,1.55-4.21.32.26.85.5,1.23.61-.18,3.71-.61,4.82-2.74,4.82h-3.97c-2.02,0-2.58-.52-2.58-2.34v-9.98h1.35Zm-.38-5.4c2.36.81,5.26,2.24,6.82,3.25l-.81,1.15c-1.55-1.11-4.44-2.56-6.82-3.39l.81-1.01Zm8.45,6.39c1.77,2.26,3.27,5.28,3.77,7.38l-1.29.6c-.48-2.08-1.94-5.16-3.65-7.4l1.17-.58Z"/>
    <path d="m401.08,46.92c0,3.01-.38,7.14-2.78,9.86-.2-.24-.67-.69-.93-.87,1.59-1.76,2.16-4.05,2.36-6.21-.83.5-1.65.99-2.44,1.43l-.48-1.15c.79-.36,1.86-.93,3.02-1.55.02-.52.02-1.03.02-1.51v-6.33h6.47v-1.9h1.35v1.9h7.44v1.15h-14.02v5.18Zm-2.68-.4c-.14-1.01-.67-2.62-1.27-3.87l1.01-.4c.61,1.23,1.19,2.8,1.33,3.79l-1.07.48Zm2.44,9.26c1.05-.61,1.75-1.75,2.06-2.88l1.01.36c-.36,1.23-.99,2.44-2.14,3.19l-.93-.67Zm7.72-14.02c1.73,1.47,4.28,2.6,6.61,3.15-.26.28-.54.73-.69,1.03-1.15-.32-2.42-.81-3.59-1.43v.81h-5.46v-.79c-1.11.6-2.36,1.15-3.63,1.55-.12-.28-.38-.73-.6-.99,2.5-.71,4.98-2,6.25-3.33h1.11Zm-.97,9.24c0,.5-.1.69-.44.83-.34.14-.87.14-1.67.14-.06-.24-.2-.54-.32-.75.54.02,1.03.02,1.19,0,.14,0,.2-.06.2-.2v-.85h-2.94v1.83h-1.03v-5.83h5v4.84Zm-3.97-4.05v.85h2.94v-.85h-2.94Zm2.94,2.48v-.87h-2.94v.87h2.94Zm3.41,6.13c.6,0,.69-.14.75-1.31.24.18.69.36,1.01.4-.12,1.55-.46,1.9-1.61,1.9h-3.09c-1.57,0-1.94-.28-1.94-1.47v-2.28h1.13v2.28c0,.4.12.48.91.48h2.84Zm.81-11.09c-1.03-.54-1.98-1.15-2.7-1.79-.65.6-1.55,1.21-2.56,1.79h5.26Zm-1.73,9.78c-.48-.55-1.47-1.31-2.32-1.79l.81-.61c.87.46,1.84,1.17,2.34,1.73l-.83.67Zm.89-3.89h-1.03v-4.09h1.03v4.09Zm3.33.52c0,.58-.08.83-.52.99-.44.18-1.09.18-2.16.18-.06-.3-.24-.66-.36-.93.79.02,1.47.02,1.69,0,.2-.02.26-.06.26-.24v-4.86h1.09v4.86Zm-1.17,1.88c1.13.85,2.4,2.08,2.98,3l-.97.67c-.58-.89-1.81-2.2-2.94-3.08l.93-.59Z"/>
    <path d="m432.65,43.27c-1.23.32-2.54.62-3.75.81.67,1.55,1.77,3.91,2.66,5.57l-.85.85c-.79-.16-2.74-.44-3.99-.55l.14-1.15c.77.06,2.2.22,2.88.3-.6-1.27-1.63-3.43-2.22-4.82-2.56.32-5.4.32-8.37.06l-.04-1.43c2.86.38,5.57.36,7.86.12l-.69-1.55c-.34-.73-.5-1.09-.81-1.61l1.61-.3c.48,1.37.85,2.22,1.29,3.25,1.35-.22,2.7-.52,4.05-.97l.26,1.41Zm-11.13,5.97c-.34.75-.58,1.9-.58,2.5,0,1.79,1.27,2.84,4.23,2.84,2.56,0,3.73-.24,5.12-.54l-.02,1.47c-1.25.22-2.52.44-5.12.44-3.61,0-5.61-1.45-5.61-3.87,0-.85.22-1.9.54-2.98l1.45.14Z"/>
    <path d="m454.99,53.58c-1.07,1.09-2.3,1.67-3.59,1.67s-2.14-.83-2.14-2.4c0-2.2.75-5.47.75-7.42,0-1.17-.6-1.63-1.63-1.63-1.61,0-4.01,1.82-5.85,3.83-.06.85-.08,1.69-.08,2.4,0,1.83-.02,2.96.06,4.68.02.34.06.79.1,1.15h-1.55c.02-.26.06-.79.06-1.11,0-1.9.02-2.82.04-4.92,0-.28.02-.67.04-1.13-.97,1.47-2.32,3.41-3.33,4.82l-.89-1.23c1.09-1.37,3.39-4.52,4.36-6.03.06-.67.1-1.37.14-2.02-.87.12-2.6.36-3.87.54l-.16-1.47c.42.02.79,0,1.21-.04.63-.04,1.86-.16,2.92-.34.06-.95.1-1.69.1-1.9,0-.44,0-.93-.08-1.41l1.71.06c-.1.46-.24,1.59-.4,3l.12-.04.56.63c-.24.36-.58.87-.85,1.33-.04.42-.06.83-.1,1.25,1.51-1.41,4.07-3.37,6.05-3.37,1.79,0,2.72,1.01,2.72,2.6,0,1.96-.75,5.43-.75,7.42,0,.67.32,1.23,1.07,1.23,1.03,0,2.1-.65,3.03-1.67l.24,1.53Z"/>
    <path d="m471.86,54.95c-1.15-1.05-2.84-2.28-4.86-2.98.02.54.04.97.04,1.29,0,1.31-.83,2.74-3.39,2.74-2.78,0-4.32-.99-4.32-2.86,0-1.75,1.71-2.94,4.52-2.94.6,0,1.17.04,1.73.14-.04-.93-.08-1.92-.1-2.78h-1.13c-1.37,0-3.53-.12-4.96-.28v-1.35c1.35.22,3.63.36,4.98.36h1.07v-2.98c-.32.02-.65.02-.99.02-1.39,0-3.51-.14-4.68-.3v-1.31c1.17.22,3.33.38,4.66.38h1.03v-1.35c0-.34-.04-.91-.08-1.15h1.51c-.04.34-.08.69-.1,1.29,0,.24-.02.65-.02,1.17,1.73-.08,3.39-.24,5.12-.52l.02,1.33c-1.61.16-3.29.32-5.14.4v2.97c1.86-.08,3.71-.26,5.52-.54v1.35c-1.88.24-3.63.38-5.5.46.04,1.05.1,2.14.14,3.09,2.62.73,4.64,2.2,5.75,3.09l-.81,1.23Zm-6.25-3.35c-.63-.12-1.27-.2-1.94-.2-1.96,0-3.02.75-3.02,1.69s.79,1.65,2.84,1.65c1.15,0,2.14-.34,2.14-1.75,0-.36-.02-.85-.02-1.39Z"/>
    <path d="m487.67,43.45c0,1.15.02,2.38.04,3.27.4.67.62,1.53.62,2.48,0,2.68-1.25,5.57-5.77,6.94l-1.23-1.19c2.7-.63,4.5-1.79,5.24-3.65-.48.42-1.09.61-1.79.61-1.69,0-3.21-1.17-3.21-3.25,0-1.9,1.57-3.37,3.39-3.37.54,0,.99.1,1.41.28l-.02-2.1c-3,.02-6.39.16-8.85.34l-.04-1.39c2.18-.04,5.87-.16,8.87-.2-.02-.6-.02-1.11-.04-1.41-.02-.38-.08-.95-.14-1.15h1.65c-.04.2-.1.89-.1,1.13-.02.34-.02.83-.02,1.41h.42c2.46,0,4.78,0,5.67.02v1.33c-1.09-.06-2.84-.1-5.69-.1h-.4Zm-.87,4.42c-.32-.97-1.01-1.37-1.84-1.37-1.07,0-2.06.83-2.06,2.14s.95,2.02,2.08,2.02c1.21,0,1.96-.95,1.82-2.8Z"/>
  </g>
  <g>
    <line class="cls-1" x1="4.23" y1="17.57" x2="5.45" y2="17.28"/>
    <line class="cls-2" x1="7.96" y1="16.7" x2="66.9" y2="2.94"/>
    <line class="cls-1" x1="68.15" y1="2.65" x2="69.37" y2="2.37"/>
  </g>
  <g>
    <line class="cls-1" x1="2.16" y1="72.18" x2="3.35" y2="72.57"/>
    <line class="cls-3" x1="5.65" y1="73.33" x2="64.29" y2="92.52"/>
    <line class="cls-1" x1="65.44" y1="92.89" x2="66.62" y2="93.28"/>
  </g>
</svg>