<?xml version="1.0" encoding="UTF-8"?>
<svg xmlns="http://www.w3.org/2000/svg" viewBox="0 0 642.34 144.39">
  <defs>
    <style>
      .cls-1 {
        fill: #84919e;
      }
    </style>
  </defs>
  <g id="CONTENTS">
    <g>
      <path class="cls-1" d="m202.86,115.1c-2.33-.83-4.48-2.42-6.45-4.77-1.97-2.35-2.95-5.59-2.95-9.73,0-2.42.55-4.96,1.66-7.63,1.11-2.67,2.76-4.92,4.94-6.76s4.83-2.76,7.92-2.76c1.05,0,2,.11,2.84.33.85.22,1.79.56,2.84,1.03.67.29,1.22.44,1.66.44.52,0,1.06-.19,1.62-.57.17-.15.36-.22.57-.22.26,0,.44.19.52.57.85,3.41,1.34,5.5,1.49,6.25l.09.48c0,.12-.1.22-.31.31-.09.06-.19.09-.31.09-.17,0-.34-.09-.48-.26-.99-1.43-1.91-2.6-2.76-3.52-.85-.92-1.91-1.71-3.19-2.36-1.28-.66-2.8-.98-4.55-.98-2.71,0-4.81,1.04-6.3,3.11-1.49,2.07-2.46,4.29-2.93,6.67-.47,2.38-.7,4.34-.7,5.88,0,3.38.66,6.13,1.97,8.24,1.31,2.12,2.81,3.62,4.48,4.53,1.68.9,3.08,1.36,4.22,1.36,1.92,0,3.4-.43,4.42-1.29,1.02-.86,1.68-1.9,1.97-3.13.29-1.05.44-2.06.44-3.02,0-.29-.03-.7-.09-1.22-.06-.47-.18-.88-.37-1.22-.19-.35-.6-.66-1.23-.92-.63-.26-1.54-.39-2.73-.39-.23,0-.35-.2-.35-.61,0-.2.02-.35.07-.44.04-.09.14-.13.28-.13h12.12c.23,0,.35.19.35.57,0,.41-.12.61-.35.61-1.02,0-1.88.23-2.58.7-.7.47-1.11,1.12-1.22,1.97-.06.41-.09,1.09-.09,2.06,0,1.75.03,3.44.09,5.07v.22c0,.47-.12.7-.35.7h-.39c-.82,0-1.6.09-2.34.26s-1.61.42-2.6.74c-1.11.35-2.03.6-2.78.77-.74.16-1.55.24-2.43.24-1.49,0-3.4-.42-5.73-1.25Z"/>
      <path class="cls-1" d="m262.24,114.49c-2.26-1.27-4.12-3.15-5.58-5.64-1.46-2.49-2.19-5.47-2.19-8.95s.73-6.41,2.19-8.9c1.46-2.49,3.32-4.37,5.58-5.64,2.26-1.27,4.56-1.9,6.89-1.9s4.62.63,6.87,1.9c2.25,1.27,4.1,3.15,5.56,5.64,1.46,2.49,2.19,5.46,2.19,8.9s-.73,6.45-2.19,8.95c-1.46,2.49-3.31,4.37-5.56,5.64-2.25,1.27-4.53,1.9-6.87,1.9s-4.63-.63-6.89-1.9Zm11.77-1.22c1.5-1.12,2.71-2.82,3.63-5.1s1.38-5.03,1.38-8.27-.46-5.98-1.38-8.22c-.92-2.25-2.13-3.94-3.63-5.07-1.5-1.14-3.13-1.71-4.88-1.71s-3.37.56-4.85,1.68c-1.49,1.12-2.69,2.81-3.61,5.07-.92,2.26-1.38,5.01-1.38,8.25s.46,5.99,1.38,8.27c.92,2.27,2.12,3.97,3.61,5.1,1.49,1.12,3.11,1.68,4.85,1.68s3.38-.56,4.88-1.68Z"/>
      <path class="cls-1" d="m342.18,114.79c.03.13.04.27.04.42,0,.38-.09.57-.26.57h-13.08c-.21,0-.31-.19-.31-.57,0-.2.02-.36.07-.46.04-.1.12-.15.24-.15,1.14,0,2.09-.17,2.87-.5.77-.33,1.16-.9,1.16-1.68,0-.38-.09-.8-.26-1.27l-2.06-5.9c-.17-.53-.52-.79-1.05-.79h-10.15c-.52,0-.88.25-1.05.74-.85,2.36-1.43,4.02-1.75,4.99-.23.7-.35,1.28-.35,1.75,0,1.78,1.41,2.67,4.24,2.67.12,0,.19.07.22.2.03.13.04.27.04.42,0,.38-.09.57-.26.57h-10.89c-.2,0-.31-.19-.31-.57,0-.41.1-.61.31-.61.9,0,1.79-.31,2.65-.92.86-.61,1.57-1.6,2.12-2.97.47-1.17,3.78-9.91,9.93-26.24.15-.41.45-.69.92-.83l1.05-.31c.23-.09.44-.13.61-.13s.29.03.35.09c.09.06.16.16.22.31l1.75,5.03c.99,2.83,2.24,6.42,3.74,10.78,1.5,4.36,2.84,8.16,4,11.39.58,1.49,1.28,2.49,2.08,3.02.8.53,1.79.79,2.95.79.12,0,.19.07.22.2Zm-22.66-12.66c0,.2.07.36.22.48.15.12.35.17.61.17h8.31c.55,0,.83-.23.83-.7l-.09-.35-4.2-12.07c-.12-.41-.27-.71-.46-.92-.19-.2-.31-.23-.37-.09-.9,2.42-2.49,6.78-4.77,13.08-.06.18-.09.31-.09.39Z"/>
      <path class="cls-1" d="m396.85,115.78h-23.44c-.12,0-.2-.05-.24-.15-.04-.1-.07-.25-.07-.46,0-.41.1-.61.31-.61h.66c1.28,0,2.23-.21,2.84-.63.61-.42.92-1.2.92-2.34v-23.53c0-1.14-.32-1.92-.96-2.36-.64-.44-1.57-.66-2.8-.66h-.66c-.21,0-.31-.2-.31-.61,0-.38.1-.57.31-.57h13.03c.15,0,.24.05.28.15.04.1.07.26.07.46,0,.38-.12.57-.35.57h-.61c-1.25,0-2.19.23-2.82.68-.63.45-.94,1.23-.94,2.34v23.71c0,1.02.3,1.71.9,2.06.6.35,1.57.57,2.91.66l1.01.04,1.62-.04c2.45-.09,4.49-.7,6.12-1.84,1.63-1.14,3.11-2.59,4.42-4.37.23-.32.39-.51.48-.57.06-.06.12-.09.17-.09.09,0,.22.04.39.13.23.12.35.26.35.44l-.04.22c-1.2,3.09-2.03,5.31-2.49,6.65-.17.5-.53.74-1.05.74Z"/>
      <path class="cls-1" d="m424.21,114c-.49-.49-.73-1.08-.73-1.77s.24-1.33.73-1.83c.49-.5,1.08-.75,1.77-.75s1.33.25,1.83.75c.5.5.75,1.11.75,1.83s-.25,1.29-.75,1.77c-.5.49-1.11.73-1.83.73s-1.29-.25-1.77-.73Zm5-7.16c-.09-.09-.14-.22-.14-.4,0-.21.08-.44.23-.69,1.36-2.44,2.54-4.65,3.53-6.63.99-1.98,2.06-4.21,3.22-6.67.9-1.95,1.65-3.52,2.24-4.69.59-1.17,1.22-2.27,1.89-3.3.41-.62.87-1.08,1.39-1.39s1.03-.46,1.54-.46c.67,0,1.24.25,1.72.75.48.5.71,1.12.71,1.87,0,.69-.23,1.41-.69,2.16-.49.8-1.04,1.59-1.64,2.37-.6.79-1.24,1.58-1.91,2.37-.67.8-1.12,1.34-1.35,1.62-1.85,2.21-3.5,4.25-4.96,6.11-1.45,1.86-3.02,4.03-4.69,6.5-.26.41-.51.62-.77.62-.13,0-.24-.04-.33-.14Z"/>
    </g>
  </g>
  <g id="_レイヤー_1" data-name="レイヤー 1">
    <g>
      <path class="cls-1" d="m21.49,142.19c-.39-.01-.72-.02-1.08-.03.41.05.83.07,1.08.03Z"/>
      <path class="cls-1" d="m135.02,48.61c.6-.03,1.1-.07,1.56-.13l-1.46.05s-.05.05-.09.08Z"/>
      <path class="cls-1" d="m514.69,49.33s-.02-.05,0-.08c-.21.04-.28.07,0,.08Z"/>
      <path class="cls-1" d="m472.56,47.2l.58-.03c.06-.08.12-.16.12-.24l-.71.27Z"/>
      <path class="cls-1" d="m55.06,142.74c-.07,0-.09,0-.15-.01-.88.05-.38.04.15.01Z"/>
      <path class="cls-1" d="m363.2,142.42c-3.49-.38,5.68-.49.43-.92.49.17-4.78.67-.43.92Z"/>
      <path class="cls-1" d="m134.08,48.56h-1.49c.68.02,1.14.02,1.49,0Z"/>
      <path class="cls-1" d="m131.61,142.29s.21.1.79.19c-.16-.07-.47-.13-.79-.19Z"/>
      <path class="cls-1" d="m193.45,141.87c-.17-.03-.38-.06-.57-.09-.31,0-.67.02-.99.02l1.56.06Z"/>
      <path class="cls-1" d="m609.32,49.12c-.68-.12-1.11-.25-1.44-.38.48.31-4.1.42,1.44.38Z"/>
      <path class="cls-1" d="m135.01,48.37c-.18.11-.45.16-.93.18.36,0,.7-.02,1.04-.02.09-.06.11-.13-.11-.16Z"/>
      <path class="cls-1" d="m557.09,138.72c.3-.02.63-.04,1.02-.08-.33.03-.68.05-1.02.08Z"/>
      <path class="cls-1" d="m638.26,138.31l-1.27-1.99-.83-1.14c.17.05.48.14,1.05,1.04-1.54-2.66-5.53-10.46-6-9.13.63-.31-3.36-5.85-5.45-8.8l.78.3c-2.15-2.35-2.37-2.37-4.66-5.9-.43-.87-.04-.89.5.29-1.41-2.93-1.77-2.05-3.53-5.58l1.07,1.17c-1.67-2.93-1.71-2.64-3.02-4.12-1.28-1.77-3.13-5.59-2.93-6.18-.51-.3-1.81-1.77-2.69-3.53.03-.29.51.29.74.59-.25-.48-.49-.93-.7-1.35.16-.29.32-.57.47-.83.23-.43.45-.83.66-1.23.39-.79.76-1.52,1.12-2.22.71-1.41,1.4-2.7,2.47-4.08.21-.01.42-.2.63-.46-2.29,3.88-4.15,6.99-4.01,6.69.45.16,2.38-2.94,1.54-.23,1.13-2.64,2.91-7.21,4.92-10.19.13-.13.26-.26.39-.35l-.13.33c.46-.68.79-1.33,1.06-1.95.65-.95,1.06-1.55,1.62-2.48.59-.23,2.32-3.52,3.25-5.08-.58-.05.71-2.06-.83-.3.18-.24-.11.32-.7,1.36-.12.24-.28.52-.33.68l.02-.12c-.59,1.03-1.37,2.37-2.25,3.9.47-1.33,1.01-2.7,2.31-4.32.15-.92.33-1.92.47-2.47,1.95-1.89,4.76-5.87,5.52-6.29,1.31-2.43,2.84-5.27,4.26-7.9,1.46-2.74,2.4-4.79,3.25-7.21.85-1.7,1.6-2.18,2.3-3.06h-.02s.03,0,.03,0c-.52,1.07-1.35,2.45-1.55,3.08.49-.9,1.08-1.99,1.72-3.16-1.45.02-2.98.04-4.48.06-1.31.03-2.6.06-3.76.08-1.74.07-3.09.18-3.45.4-4.82-.25,2.71-.52-3.91-.43l.9-.17c-13.02-.9-21.17,1.44-35.61.28,1,.07,1.5.11,1.7.2-16.46-.51-33.92.48-50.16-.33-4.61-.17-5.12.19-7.93.47l-1-.46-4.82.53c-6.83.39-11.83-1.13-20.48-.39l1.12.31c-3.11-.06-9.84.18-9.32-.17-.32.06-1.02.32-2.23.16l-.1-.24-7.63.42c-5.91-.18.93-.96-7.7-1.01-3.21.09-9.14.7-7.93.86,1.29.01,3.31.15,3.4.39l-2.93.13c-.53.71-2.79,1.44,4.41,1.94l5.02-.44,1.62.35-4.22.02c2.4.33,3.91.04,5.62-.16.4.18,1.11.31,2.11.38l4.93-.68c.6.28-2.21.55,1.1.71,2.31-.32-2.21-.62,1.61-.83,2.4.33,1.7.59,4.52.31.4.18-.2.3-1.31.38,2.51-.22,6.64-.09,7.93-.47,2.5.4,8.47-.11,8.22.57.79-.16,4.42-.53,6.72-.56-4.21.81,8.63.05,7.51.91,3.12-.73,11.26-.32,16.77-.73-.31.06-.91.18-1.4.14,3.11.06,4.01.28,6.01.42.4-.6,5.23-.74,7.84-1.11,3.81.58-2.31.71-1.12,1.26-.19-.49,6.62-.48,5.32-.89,2.92.36,2.51.17,4.01.67.51-.75,2.71-.13,5.12-.58,4.22.37,1.09.7,5.71.47,2.2.23-1.91.49-1.91.49,4.71.01,2.21-.55,3.21-.87,5.63-.16,2.6.42,4.52.71,3.51-.15,6.21-.67,8.83-.65.19.09.7.13.11.25,3.71-.45,11.02-.03,15.35-.59.32.05.48.1.56.14-.7-.28-.8-.57-.66-.77,2.11,0,3.92-.36,4.72.01-1.3-.01-1.41.14-2.01.25l2.21-.16c1.99.53-3.02.18-3.02.58,4.32-.17,9.35-.61,12.66-.46.69.52-7.74.17-3.32.64l-5.12-.2c3.91.82-3.11-.06.48.82,6.74.15,7.54-.27,14.26-.12,1.51-.29-.5-.43,1.01-.72,1.13-.06,2.1-.09,2.94-.09.52,0,.83.02,1.11.05.55.07.72.22.68.36-.44.37-.8.59-1,.73-.27.28.05-.24-.74,1.52-.36,1.44.12,2.21-2.37,5.61l.03-1.46c-2.79,4.61-.57,3-3.88,7.68.24-.96,1.91-3.72,1.42-3.05-2.39,2.95-.92,2.36-2.34,4.78l-.9.28c-2.69,4.99-5.67,10.52-8.65,16.05,0-.36.36-1.37-.58-.16-1.07,2-2.24,4.06-3.46,6.13-1.41,2.3-2.82,4.63-4.23,6.93.57,1.04,1.15,2.07,1.71,3.1.42.78.83,1.56,1.24,2.32.81,1.54,1.6,3.04,2.36,4.49l2.01,2.35c.34.59.41,1.18-.07.57,1.32,2.66.41.02,1.35,1.19.9,1.46.84,2.05.14,1.18,3.13,4.41,8.6,12.67,10.86,17.68l-.7-.88c1.99,3.82,3.55,3.84,5.11,7.49l-.49-.63c1.22,2.12,2.48,4.31,3.72,6.47-2.97,0-5.88-.02-8.62-.03-3.58-.05-6.91-.15-9.82-.38-1.66.65-11.34-.29-12.08.62-6.54-.45-4.66-.61-13.88-.91-2.46-.04-3.66.56-6.71.66l-.08-.47-4.13.49-2.2-.56-2.85.12c1.13.03,2.41.21,2.24.35-4.46.22-10.87-.33-10.97-.57l-10.55.4c.18-.15,1.25-.22,2.37-.3-4,.27-.36-.54-5.16-.13.69.11-.37.28-.49.37-2.57-.28-8.42-.28-12.76-.17l.83-.32c-7.82-.08-16.49.16-25.27.15,3.15.15,2.43.71-.15.77l-1.03-.5c-1.66.31,2.69.19-.72.57-3.28-.06-2.21-.57-.32-.73l-3.99.17c-.23-.15.7-.23.95-.42-1.64.31-6.88-.5-9.24.04l-.22-.15c-8.77.08-12.76.12-19.91.19-.14.43-2.94.33-5.07.68-5.25-.14-11.08-.47-17.41-.44-4.45.21-1.3.36-3.3.62-.32-.39-6.65-.35-3.37-.64-7.59.06-9.7.08-19.31.4,1.04.16,2.21.23,1.61.36-1.74.06-3.97-.16-3.72-.35l.46-.04c-10.78.59-24.89-1.14-33.48-.33l.48-.04-8.91.43c-4.1-.07,2.46-.3-.57-.54-9.61.65-15.18-.09-23.09.34-6.12-1.16-21.73.08-29.99-.65l.48.27c-2.14.26-2.59-.16-4.16-.22.23.21,2.32.24.99.39-18.1.33-37.35-.4-55.91-.64-6.78-.07-3.85,1.41-12.4.76l2.42-.51c-13.69.61-28-.02-41.4.5.8-.12.82-.27,2.13-.27-2.83-.36-10.47-.02-10.52.28-2.09-.04-.49-.27-1.77-.43-2.84-.21-7.13.47-8.64.11-.26-.06.8-.12,1.32-.15-1.85.18-8.62-.05-6.85.38-4.95-.2-9.47.17-13.43-.06,0-.02,0-.03,0-.04.14-.02.29-.04.38-.07l-.4-.02c-.01-.06-.02-.12-.04-.18-.28-.02-.55-.04-.94-.05-4.95-.03-9.48.16-13.78.31-1.32,0-2.7.03-3.95.08-1.21-.17-2.56-.23-3.51-.32l4.59.06c-1.3-.04-2.96-.06-4.62-.06-.67-.06-1.15-.15-1.2-.32-7.15-.07-11.13-.11-19.91-.19l-.22.15c-2.36-.53-7.61.27-9.24-.04.24.19,1.18.27.95.42l-3.99-.17c1.14.1,1.96.32,1.73.49-1.05.03-2.07.06-3.11.09-1.05-.2,1.72-.16.33-.42l-.9.44c-.3.01-.59.02-.88.03-1.92-.14-2.2-.6.61-.73-8.78,0-17.45-.23-25.27-.15l.83.32c-4.33-.12-10.19-.12-12.76.17-.12-.09-1.18-.27-.49-.37-4.8-.41-1.16.4-5.16.13,1.12.08,2.19.15,2.37.3l-10.55-.4c-.1.24-6.52.79-10.97.57-.17-.14,1.11-.32,2.25-.35l-2.85-.12-2.2.56-4.13-.49-.08.47c-3.04-.09-4.25-.69-6.71-.66-9.22.3-7.34.46-13.88.91-.74-.9-10.42.03-12.08-.62-2.91.22-6.24.33-9.82.38-2.4,0-4.95.02-7.54.03l1.21-2.25-1.57,2.16c.31-.88.09-.93-.07-.96-.01,0-.02-.02-.03-.03.56-.97,1.12-1.94,1.68-2.91.63-.99,1.55-2.4,2.24-3.13.31-.75.62-1.51,1.04-2.34.62-.71,1.28-1.42,1.98-2.52.12.21.2.48.39.31.24-1.56,3.67-6.58,4.1-8.51-.2.62.13.78.32.61l.22-1.3c.9-1.24,1.08-1.4,1.23-1.1,1.92-3.12-.3-.57.42-1.87.35-.54.7-1.06,1.04-1.59-.1.25,0,.22-.34.92.77-1.21,1.48-2.42,2.16-3.62.5-.73.98-1.41,1.4-2.01-.27.33-.41.39-.47.34.34-.61.68-1.22,1.01-1.82.18.09.01.83.57-.18l1.11-1.36.04-.91.94-1.09c-.07.2-.02.26.3-.02.82-1.52,1.66-3.06,2.51-4.62.9-1.7,1.81-3.42,2.71-5.13-.04-.06-.07-.12-.11-.17.04-.07.08-.15.12-.23-1.4-2.3-2.82-4.63-4.23-6.93-1.22-2.07-2.39-4.13-3.46-6.13-.73-.94-.67-.54-.61-.15-.38-.76-.81-1.53-1.33-2.23-.03-.05-.05-.09-.08-.14.49.61,1,.68.79.53-1.22-2.26-2.66-4.53-4.33-7.1-1.26-2.33-2.49-4.62-3.67-6.8l-.59-.18c-.31-.62-.66-1.28-1.06-2.01-.11-.62-.17-1.13-1.58-2.87-.1-.15-.1-.11-.03.02-.3-.52-.6-1.04-.88-1.53-.2-.63-.55-1.47-1.55-3.12v.61c-.57-.72-1.12-1.59-.98-.74-.32-.81-.71-1.56-1.07-2.34-.13-.6-.14-1.09-.3-1.69-.78-1.76-.46-1.24-.74-1.52-.2-.15-.56-.36-1-.73-.02-.09.08-.17.27-.25.96-.04,1.92-.09,2.86-.13.07,0,.13,0,.2,0,.44.01.9.03,1.41.06,1.51.29-.5.43,1.01.72,6.72-.15,7.52.26,14.26.12,3.34-.82-2.49-.12-.17-.68l5.12-.12c-.67-.35-1.11-.21-2.9-.49.08-.02.21-.03.31-.04l1.54.11c-.36-.07-.57-.15-.93-.2.5-.06,1.08-.11,1.72-.15.47.03.98.05,1.51.06-.34.09-.12.18.39.27-.05.16-.2.34-.65.52.08-.04.24-.09.56-.14,4.33.56,11.64.14,15.35.58-.59-.12-.09-.15.11-.24,2.62-.02,5.32.5,8.83.65,1.91-.29-1.11-.87,4.52-.71,1,.32-1.5.89,3.22.87,0,0-4.12-.27-1.92-.49,4.63.23,1.5-.11,5.71-.47,2.41.46,4.61-.16,5.12.58,1.28-.42,1.19-.35,2.94-.54.95.08,1.66.17,1.27.25.31-.04.58-.04.87-.05,1.65.14,4.37.26,4.25.57.55-.25-.43-.42-1.29-.58,1.27.05,2.68.08,4.59-.19.09.08.95.08,1.61.12.25.03.48.06.69.1.1.04.13.09,0,.16.26,0,.41-.02.58-.03.26.07.47.16.53.25,2-.14,2.9-.36,6.01-.42-.49.04-1.1-.08-1.41-.14,5.52.4,13.66,0,16.77.73-.97-.75,8.56-.28,8.35-.67,1.46.08,3.3.24,5.09.2.35.04.64.08.79.12-.24-.68,5.72-.17,8.22-.57.23.07.56.11.95.15-.09.01-.13.03-.23.04.14,0,.28-.02.41-.02,1.8.16,4.8.12,6.8.3-1.12-.08-1.71-.2-1.32-.38.29.03.53.05.76.07-.16.02-.31.04-.43.06.27-.01.57-.02.87-.03.62.04.98.02,1.32-.04,1.18-.04,2.41-.08,3.57-.13,0,.18-1.51.38.04.6,1.34-.06,1.66-.15,1.63-.24l.7.02s.04-.05.1-.07l-.8.04c-.07-.12-.67-.26-.56-.41.1,0,.19-.01.29-.02l2.27.31-.29.02c.12,0,.26,0,.39,0l2.31.32c1-.07,1.7-.19,2.11-.38,1.7.19,3.22.48,5.62.16l-4.23-.02,1.62-.35,5.02.44c1.75-.12,2.92-.25,3.71-.4l-.37.15,2.75-.13c.6-.12.27-.38-1.21-.37.64-.37-.17-.78-.47-1.18l-2.93-.13c.1-.24,2.11-.38,3.4-.39,1.21-.16-4.72-.77-7.93-.86-8.63.05-1.79.83-7.7,1.01l-7.63-.42-.1.24c-1.21.16-1.91-.11-2.23-.16.52.36-6.21.12-9.32.17l1.12-.31c-8.65-.74-13.65.78-20.48.39l-4.82-.53-1,.46c-2.82-.27-3.32-.64-7.93-.47-8.62.43-17.57.36-26.54.27-.11-.02-.19-.04-.16-.05-.22.02-.42.03-.59.05-7.69-.08-15.38-.16-22.87.07.2-.1.7-.13,1.7-.2-14.44,1.16-22.58-1.18-35.61-.28l.9.17c-6.62-.09.91.17-3.91.43-.36-.22-1.71-.33-3.45-.4-1.16-.02-2.45-.05-3.76-.08-1.5-.02-3.03-.04-4.48-.06.63,1.17,1.23,2.26,1.72,3.16-.2-.62-1.03-2.01-1.55-3.08h.03-.02c.7.88,1.44,1.36,2.3,3.06.86,2.42,1.8,4.46,3.25,7.21,1.42,2.63,2.95,5.48,4.26,7.9.77.42,3.57,4.41,5.52,6.29.14.55.33,1.56.47,2.47,1.29,1.63,1.84,3,2.31,4.32-.88-1.53-1.66-2.87-2.25-3.9l.02.12c-.06-.16-.22-.45-.34-.68-.59-1.05-.89-1.6-.7-1.36-1.54-1.77-.26.25-.83.3.94,1.56,2.66,4.85,3.25,5.08.56.93.98,1.54,1.63,2.48.27.62.6,1.27,1.06,1.95l-.13-.33c.13.08.27.22.39.35,2.01,2.98,3.79,7.55,4.92,10.19-.83-2.72,1.09.39,1.55.23.13.31-1.73-2.81-4.02-6.69.21.26.42.45.63.46,1.07,1.38,1.76,2.67,2.47,4.08.35.71.72,1.44,1.12,2.23.21.39.43.8.66,1.23.15.26.31.54.47.83-.22.42-.45.87-.7,1.35.24-.3.71-.88.74-.59-.88,1.77-2.19,3.24-2.69,3.53.2.59-1.66,4.41-2.93,6.18-1.31,1.47-1.35,1.18-3.02,4.12l1.07-1.17c-1.76,3.54-2.12,2.65-3.53,5.58.54-1.18.94-1.16.5-.29-2.29,3.53-2.51,3.55-4.65,5.9l.77-.3c-2.09,2.95-6.08,8.49-5.45,8.8-.46-1.33-4.45,6.47-5.99,9.13.56-.9.88-.99,1.05-1.04l-.83,1.14-1.28,1.99-2.61,4.26h2.88c.97.04,1.37.11.52.2,2.54-.08,3.21-.15,2.92-.21h1.29s2.99-.05,2.99-.05c2.93,0,4.94-.05,8.35.06-.39-.04-.76-.11-.98-.17,1-.01,2-.05,2.99-.05l.08-.04c3.09,0,2.32-.24,3.93-.38,2.3.37,3.83,1.07,7.22,1.05l-.55-.11c4.74-.25,8.86.25,11.6.31l-2.65.15c1.58-.09,2.88-.08,4.2-.08l-1.51-.36c1.55.06,2.87.06,2.84.22.85-.13.47-.29.38-.46.62-.01,1.25-.02,1.94-.03l-.12-.42c.28.02.58.03.92.04,1.3.08,2.63.15,4,.21-3.01.02,1.89.52-2.93.59,1.06-.06,2.36-.05,3.92,0,.23.05-.22.1-.65.13,6.25.43,2.87-.55,9.34-.54-.82.27,1.5.51,2.56.46-2.61,0-1.25-.45,1.14-.66,2.86.14,3.92.02,5.02-.07,3.78.07,7.69.11,11.21-.07,1.27.06,2.56.09,3.92,0,.18.02.3.04.42.05l.33.43h.44c.1.06.3.11.82.15,5.02-.35,5.44.37,10.71.08-1.52-.36-1.78-.28,1.93-.63l-4.4.13c.3-.05.56-.12.78-.19h-.83s.02-.06.03-.08l1.31-.13c-.38,0-.77.01-1.16.02.78-.23,3.94.17,5.89.06.16,0,.33.02.49.03l-.07.51c3.72.24,6.95.03,10.66-.13,4.87-.04,9.88-.04,14.15-.13.53.1,1.25.18,1.84.28-.13-.22,5.91.02,6.65-.58l3.61.4c2.09.05,3.58-.02,4.88-.14,5.98.26,11.72.53,18.9.47l-.13-.1c3.41-.11,9.96-.31,10.73-.89,1.17.02,2.34.02,3.55.01,2.29.11,4.41.27,6.58.41-.76.18-.53.48,1.54.37l-.71-.48c-.15.01-.28.02-.4.04-.02-.12-.05-.24-.07-.35,2.36.02,4.52.09,6.15.33,4.57-.07,10.08-.16,14.23-.22-.27.09-.02.15-.8.12,5.72.28,3.52-.86,10.03-.55,3.33.49-3.46.26-1.39.45.9.99,7.86-.14,12.25.44l-1.06.06c3.35.34,8.18-.37,13.65-.31,0,0-.27.09-.03.15,3.74-.51,10.83-.67,16.09-.82-1.64.39-2.39.21-1.4.6,2.36-.06-.69-.64,4.02-.75,1.53.22,4.93.4,5.39.82l-4.44.02c2.28.54,5.75-.02,8.09.07l-.3.24c6.81-.08,6.91-.68,14.23-.64l-.76-.18c4-.59,3.36.33,7.35-.11l1.21.6c2.64-.15,9.25-.58,13.98-.7-2.68.44-8.22.67-11.65.94,2.61,0,8.89-.05,10.26-.34-1.05.06-2.38.21-3.43.11,3.21-.47,7.43-.71,12.65-.7-.93,1.17,13.59.29,17.37,1.2,9.22-.43,18.3.18,29.04.11-3.81-.91,3.14-.02,2.48-.96,2.46-.06,3.42-.04,3.66.01l-.51-.04c.23.02.35.03.55.04h0s7.57.56,7.57.56c1.8.27-2.38.21-2.15.42,5.48.07,2.3.4,5.93.64-.75-.33,1.9-.48,5.03-.35l-4.4-.43c7.66-.5,6.62.78,14.34.29l-2.44.3c3.96-.18,14.61,0,18.49-.75.71.11,1.63.37-.11.43,9.46.11,21.07-.8,28.43-.33l-.72.23c1.77-.06,3.07-.43,5.28-.2-.11.09-.71.23.11.24.94-.08,4.69-.4,7.03-.27l-2,.26c9.23.3,14.17-.63,21.91-.78-.02.67,7.25.89,10.88,1l-.13.09c10.76.08,18.27-.56,28.22-.82,6.18.73,20.94.31,30.87.72-1.52-.12.25-.53,2.01-.59,2.33.14,6.44-.47,6.07.15h-.83c1.76.6,6.55.43,10.29.45l.61-.81c9.79,1.17,25.64-.43,30.98.62,2.36-.21,5.28-.2,7.63-.4l-.13.43c6.54.11,9.81.16,17.89.06l-1.65.31c4.56.03,5.76-1.25,9.97-1.28l1.27.65c2.85,0,5.71.07,8.57.13l4.79.08,7.6.02-2.61-4.26Zm-14.96-63.59s0-.1,0-.14c.04.13.06.28,0,.5-.54,1.07-.84,1.38-1.03,1.48.27-.5.59-1.08,1.01-1.84Zm-6.85,4.81c-.19.34-.45.81-.91,1.63h0c.38-.68.71-1.26.92-1.63Zm-3.07,5.35c.31-.17.34.14-.06.8.1-.4-.91,1.11-1.63,2.04.47-.8,1.07-1.79,1.69-2.84ZM8.75,138.9h0s0,0,0,0c0,0,0,0,0,0Zm19.1-32.4c-.35.36-.29-.13.02-.66l.82-.97-.85,1.63Zm1.08-22.02c.11.18.2.34.31.51-.14-.14-.27-.33-.4-.53.03,0,.06,0,.09.02Zm-8.05-36.51c2,.02,4,.09,5.98.28-.73,0-1.63.07-2,.12l-.98.04c3.68-.38-1.55-.21-3-.44Zm100.65.47c-.14-.04-.34-.09-.62-.15,1.55.02,3.69.19,5.17.35-1.37-.06-3.29-.26-4.54-.21Zm26.99-.2c-.77,0-1.29-.07-1.7-.15.06-.01.1-.02.17-.03.96.05,1.39.11,1.54.18Zm-116.52,94.01c.72,0,1.36.01,2.02.02-.33.05-.73.11-1.11.15l-.91-.17Z"/>
      <polygon class="cls-1" points="12.5 131.78 12.5 131.78 12.5 131.79 12.5 131.78"/>
      <path class="cls-1" d="m623.76,72.97c.08-.16.12-.24.22-.44-.16.2-.32.39-.48.58-.02.14-.04.29-.06.42.11-.19.22-.39.32-.56Z"/>
      <polygon class="cls-1" points="583.17 138.68 583.18 138.79 583.99 138.7 583.17 138.68"/>
      <path class="cls-1" d="m12.5,131.79c-.28.64-.55,1.26-.84,1.91.63-1,1.11-1.78.84-1.91Z"/>
      <path class="cls-1" d="m11.66,133.71c-.52.82-1.15,1.78-1.56,2.64.69-.98,1.17-1.83,1.56-2.64Z"/>
      <path class="cls-1" d="m151.93,48.55c-.42,0-.78,0-.91.05l.91-.05Z"/>
      <path class="cls-1" d="m280.6,141.76c1.01.24,3.62.39,5.22.16-2.09-.03-4.16-.22-5.22-.16Z"/>
      <polygon class="cls-1" points="556.72 142.71 560.23 142.57 558.58 142.55 556.72 142.71"/>
      <path class="cls-1" d="m127.64,48.86s-.03.04,0,.08c.28,0,.21-.04,0-.08Z"/>
      <path class="cls-1" d="m169.05,46.54c0,.08.07.16.12.24l.58.03-.71-.27Z"/>
      <path class="cls-1" d="m33.01,48.72c5.53.03.96-.08,1.44-.38-.33.13-.76.27-1.44.38Z"/>
      <path class="cls-1" d="m18.82,72.71c-.16-.19-.31-.38-.48-.58.1.2.14.28.22.44.1.17.21.37.32.56-.02-.13-.04-.28-.06-.42Z"/>
      <polygon class="cls-1" points="58.34 138.3 59.14 138.39 59.15 138.28 58.34 138.3"/>
      <polygon class="cls-1" points="82.09 142.17 85.6 142.31 83.74 142.15 82.09 142.17"/>
    </g>
    <g>
      <g>
        <path class="cls-1" d="m276.95,22.45h-2.12v-9.29h-9.29v9.29h-2.12V3.04h2.12v8.29h9.29V3.04h2.12v19.42Z"/>
        <path class="cls-1" d="m286.39,3.01h2.12v19.44h-2.12V3.01Z"/>
        <path class="cls-1" d="m310.76,22.45h-2.5l-6.35-9.75-1.81,2.12v7.63h-2.12V3.01h2.12v9.49h.1c.48-.74,1.02-1.45,1.51-2.09l5.92-7.4h2.6l-6.84,8.27,7.37,11.17Z"/>
        <path class="cls-1" d="m333.39,12.55c0,6.84-3.83,10.21-8.42,10.21-4.82,0-8.24-3.8-8.24-9.87s3.6-10.18,8.47-10.18,8.19,3.98,8.19,9.85Zm-14.44.28c0,4.13,2.14,8.16,6.1,8.16s6.12-3.9,6.12-8.34c0-3.9-1.91-8.19-6.07-8.19s-6.15,4.23-6.15,8.37Z"/>
        <path class="cls-1" d="m355.4,22.45h-2.12l-6.2-10.23c-1.3-2.17-2.55-4.34-3.5-6.48l-.1.03c.18,2.47.2,4.75.2,8.11v8.57h-1.99V3.01h2.22l6.28,10.23c1.38,2.32,2.5,4.34,3.39,6.35l.05-.03c-.2-2.71-.25-5.03-.25-8.09V3.01h2.02v19.44Z"/>
        <path class="cls-1" d="m375.1,22.45h-10.26V3.01h9.82v1.79h-7.71v6.58h7.25v1.76h-7.25v7.53h8.14v1.79Z"/>
        <path class="cls-1" d="m300.26,33.17h-5.74v17.63h-2.12v-17.63h-5.71v-1.79h13.57v1.79Z"/>
        <path class="cls-1" d="m316.51,47.48c0,1.15.03,2.35.2,3.32h-1.94l-.2-1.79h-.08c-.71,1.1-2.14,2.09-4.11,2.09-2.65,0-4.06-1.94-4.06-3.95,0-3.34,2.91-5.15,8.06-5.13,0-1.17,0-3.83-3.16-3.83-1.2,0-2.45.33-3.39,1l-.51-1.45c1.12-.74,2.68-1.17,4.24-1.17,3.93,0,4.95,2.78,4.95,5.54v5.38Zm-2.09-3.9c-2.63,0-5.92.38-5.92,3.32,0,1.79,1.12,2.58,2.4,2.58,2.07,0,3.52-1.58,3.52-3.27v-2.63Z"/>
        <path class="cls-1" d="m327.86,39.14c.87-1.61,2.45-2.58,4.62-2.58,3.29,0,5.61,2.83,5.61,7.12,0,5.05-3.09,7.42-5.97,7.42-2.02,0-3.5-.82-4.49-2.6h-.08l-.13,2.3h-1.84c.05-.92.1-2.32.1-3.44v-16.97h2.12v8.75h.05Zm-.05,6.22c0,2.07,1.56,4.01,3.9,4.01,2.7,0,4.21-2.32,4.21-5.61,0-2.91-1.43-5.46-4.13-5.46-2.42,0-3.98,2.27-3.98,4.31v2.76Z"/>
        <path class="cls-1" d="m347.43,34.44c-.82,0-1.38-.64-1.38-1.45s.59-1.43,1.4-1.43,1.38.64,1.38,1.43c0,.89-.59,1.45-1.4,1.45Zm1.07,16.35h-2.12v-13.91h2.12v13.91Z"/>
      </g>
      <g>
        <rect class="cls-1" x="244.3" y="53.96" width="2.32" height="3.06" transform="translate(29.78 185.14) rotate(-43.75)"/>
        <path class="cls-1" d="m239.28,50.72l-4.28-4.47,1.67-1.6,4.28,4.47-1.67,1.6Zm-8.56-8.94l-4.28-4.47,1.67-1.6,4.28,4.47-1.67,1.6Zm-8.56-8.94l-4.28-4.47,1.67-1.6,4.28,4.47-1.67,1.6Zm-8.56-8.94l-4.28-4.47,1.67-1.6,4.28,4.47-1.67,1.6Z"/>
        <rect class="cls-1" x="203.65" y="11.52" width="2.32" height="3.06" transform="translate(47.82 145.23) rotate(-43.74)"/>
      </g>
      <g>
        <rect class="cls-1" x="390.63" y="54.33" width="3.06" height="2.32" transform="translate(80.84 300.33) rotate(-46.24)"/>
        <path class="cls-1" d="m398.33,50.72l-1.67-1.6,4.28-4.47,1.67,1.6-4.28,4.47Zm8.56-8.94l-1.67-1.6,4.28-4.47,1.67,1.6-4.28,4.47Zm8.56-8.94l-1.67-1.6,4.28-4.47,1.67,1.6-4.28,4.47Zm8.56-8.94l-1.67-1.6,4.28-4.47,1.67,1.6-4.28,4.47Z"/>
        <rect class="cls-1" x="431.27" y="11.89" width="3.06" height="2.32" transform="translate(124.04 316.62) rotate(-46.24)"/>
      </g>
    </g>
  </g>
</svg>