<?xml version="1.0" encoding="UTF-8"?>
<svg xmlns="http://www.w3.org/2000/svg" viewBox="0 0 639.41 142.5">
  <defs>
    <style>
      .cls-1 {
        fill: #84919e;
      }
    </style>
  </defs>
  <g id="CONTENTS">
    <g>
      <path class="cls-1" d="m187.84,92.31c.76.6,1.31,1.12,1.65,1.56.12.12.18.25.18.4s-.07.28-.22.4c-.17.12-.39.18-.65.18h-7.8c-.34,0-.58.06-.73.18-.14.12-.13.27.04.44l.33.33c.22.22.46.41.73.58.56.39.83.68.83.87,0,.12-.13.18-.4.18h-.29c-.27,0-.53.08-.8.25-1.62,1.11-3.7,2.14-6.22,3.08-2.53.94-5.11,1.67-7.75,2.18-.07.02-.17.04-.29.04-.27,0-.44-.07-.51-.22v-.07c0-.07.06-.15.18-.24.12-.08.28-.15.47-.2,2.56-.87,5.04-2,7.44-3.37,1.72-.99,3.1-2.02,4.14-3.08.17-.17.25-.33.25-.47,0-.31-.23-.47-.69-.47h-12.48c-.24,0-.43.07-.56.2-.13.13-.2.32-.2.56v2.76c0,3.24-.36,6.3-1.09,9.18-.73,2.88-2.21,5.41-4.46,7.58-.36.36-.62.47-.76.33-.05-.05-.07-.11-.07-.18,0-.12.07-.33.22-.62,1.35-2.27,2.26-4.75,2.7-7.44.45-2.69.67-5.62.67-8.82v-2.98c0-.94-.02-1.64-.07-2.1v-.07c0-.44.16-.65.47-.65.1,0,.22.04.36.11l2.07.91c.27.12.57.18.91.18h1.89c.46,0,.94,0,1.43-.02.5-.01.83-.03,1-.05l-.25-.11c-.27-.17-.44-.46-.51-.87-.29-1.33-.81-2.64-1.56-3.92-.27-.48-.36-.74-.29-.76l-2.18-.04c-1.02.02-2.2.15-3.56.36-.07.02-.16.04-.25.04-.32,0-.56-.16-.73-.47l-.14-.29c-.07-.15-.11-.29-.11-.44s.06-.26.18-.34c.12-.08.29-.11.51-.09.82.07,2.07.13,3.74.18h7.18c.51,0,.76-.25.76-.76-.05-1.45-.11-2.48-.18-3.08v-.07c0-.44.18-.65.54-.65l.33.07c1.09.31,1.84.57,2.27.76.42.19.63.36.63.51,0,.1-.08.21-.25.33l-.04.04c-.34.24-.51.54-.51.91v1.2c0,.24.07.43.2.56.13.13.32.2.56.2h6.39c.39,0,.69-.16.91-.47l.47-.69c.1-.12.22-.3.38-.53.16-.23.29-.4.4-.51.11-.11.21-.16.31-.16.19,0,.67.3,1.43.89.76.59,1.32,1.11,1.69,1.54.12.12.18.25.18.4s-.07.28-.22.4c-.19.12-.44.18-.73.18h-5.26c-.36,0-.63.05-.82.16s-.15.21.09.31c.94.27,1.42.5,1.42.69,0,.07-.11.16-.33.25l-.18.07c-.31.15-.57.34-.76.58-.78.97-1.61,1.89-2.5,2.76-.19.19-.29.38-.29.54,0,.27.22.4.65.4h4.54c.39,0,.69-.16.91-.47l.51-.73c.12-.15.25-.31.38-.49s.27-.34.4-.49c.13-.15.25-.22.34-.22.19,0,.67.3,1.43.91Zm-1.91,12.34c.17,0,.34.09.51.25l.94.83c.22.22.46.41.73.58.68.46,1.02.76,1.02.91,0,.12-.17.18-.51.18h-.22c-.36,0-.69.1-.98.29-3.12,2.52-6.44,4.35-9.96,5.52-3.52,1.16-7.64,1.97-12.36,2.43h-.22c-.36,0-.56-.08-.58-.25v-.04c0-.19.23-.34.69-.44,3.12-.6,5.91-1.32,8.36-2.14,2.46-.82,4.75-1.9,6.88-3.23.89-.56,1.82-1.26,2.78-2.1.96-.85,1.75-1.67,2.38-2.47.19-.22.37-.33.54-.33Zm-1.05-2.5c-.34,0-.65.11-.94.33-1.94,1.5-4.45,2.84-7.55,4.03-3.1,1.19-6.31,2.02-9.65,2.5-.1.02-.22.04-.36.04-.24,0-.39-.07-.44-.22v-.07c0-.15.23-.29.69-.44,1.91-.51,3.8-1.16,5.68-1.94,1.87-.79,3.61-1.65,5.21-2.59,1.91-1.14,3.39-2.42,4.43-3.85.17-.24.36-.36.58-.36.19,0,.36.07.51.22l.8.73c.22.22.46.41.73.58.58.41.87.7.87.87,0,.12-.15.18-.44.18h-.11Zm-13.75-8.49c0,.1.17.15.51.15h4.75c.41,0,.7-.19.87-.58.56-1.38,1.05-2.82,1.49-4.32.02-.07.04-.17.04-.29,0-.39-.23-.58-.69-.58h-8.78c-.39,0-.58.09-.58.25s.16.34.47.51c.85.51,1.47,1.06,1.87,1.65.4.59.6,1.17.6,1.72,0,.39-.1.74-.29,1.05-.17.24-.25.39-.25.44Z"/>
      <path class="cls-1" d="m206.4,98.26c-.12,0-.22.06-.31.18-.08.12-.13.29-.13.51v7.11c.05,2.64.13,5.3.25,7.98v.18c0,.31-.11.57-.33.76-.27.19-.59.36-.96.51-.38.15-.74.22-1.11.22-.29,0-.53-.07-.71-.22-.18-.15-.27-.31-.27-.51.1-1.43.18-2.81.25-4.16.07-1.34.12-3.1.15-5.28v-4.28c0-.44-.12-.65-.36-.65-.19,0-.36.15-.51.44-1.11,2.13-2.43,4.05-3.96,5.77-.31.39-.56.51-.73.36-.05-.05-.07-.12-.07-.22,0-.15.07-.34.22-.58,1.11-1.86,2.07-3.96,2.89-6.3.81-2.33,1.46-4.76,1.94-7.28l.04-.22c0-.19-.07-.34-.2-.45s-.31-.16-.53-.16h-.65c-.58.02-1.22.12-1.92.29-.14.05-.25.07-.33.07-.29,0-.52-.16-.69-.47l-.11-.25c-.07-.15-.11-.28-.11-.4,0-.34.24-.48.73-.44.58.05,1.45.1,2.61.15h.98c.24,0,.43-.07.56-.2.13-.13.2-.32.2-.56v-.54c0-2.42-.11-4.58-.33-6.5v-.15c0-.39.17-.58.51-.58.05,0,.17.02.36.07,1.16.34,1.98.61,2.45.82.47.21.71.38.71.53,0,.12-.11.24-.33.36l-.15.07c-.34.22-.51.53-.51.94v4.97c0,.24.05.43.15.56.1.13.23.2.4.2.34,0,.62-.17.83-.51l.36-.62c.07-.1.17-.26.31-.49.13-.23.25-.4.34-.51s.19-.16.29-.16c.17,0,.56.28,1.16.83.6.56,1.05,1.05,1.34,1.49.1.19.14.34.14.44,0,.15-.07.28-.22.4-.19.12-.41.18-.65.18h-3.7c-.24,0-.43.07-.56.2-.13.13-.2.32-.2.56v3.05c0,.39.19.69.58.91,1.45.68,2.52,1.43,3.19,2.27.68.83,1.02,1.61,1.02,2.34,0,.44-.12.79-.34,1.07-.23.28-.51.42-.85.42-.24,0-.46-.05-.65-.15-.29-.17-.47-.42-.54-.76-.29-.99-.77-2.07-1.45-3.23-.15-.27-.31-.4-.51-.4Zm16.11,7.69c0,.12.06.28.18.47,2.01,2.66,4.39,4.54,7.15,5.62.41.19.62.34.62.44-.02.07-.09.15-.2.22-.11.07-.25.15-.42.22-.63.29-1.14.83-1.52,1.63-.15.34-.33.51-.54.51-.17,0-.31-.05-.43-.15-2.44-1.5-4.39-3.56-5.84-6.17s-2.55-5.85-3.3-9.73c-.07-.46-.34-.69-.8-.69h-1.71c-.24,0-.43.07-.56.2-.13.13-.2.32-.2.56v10.96c0,.27.07.46.22.58.15.12.35.15.62.07,2.08-.48,3.7-.88,4.86-1.2.29-.05.46-.07.51-.07.17,0,.28.05.33.15v.04c0,.15-.18.31-.54.51-3.68,1.84-6.92,3.37-9.72,4.61-.29.12-.48.25-.58.4l-.11.18c-.1.15-.22.22-.36.22-.24,0-.45-.16-.62-.47l-.91-1.89c-.07-.15-.11-.28-.11-.4,0-.29.19-.47.58-.54l2.43-.54c.44-.12.65-.4.65-.83v-20.39c0-2.35-.11-4.46-.33-6.35v-.15c0-.36.16-.54.47-.54.14,0,.27.02.36.07l2,.91c.34.15.65.22.94.22h7.8c.39,0,.69-.16.91-.47l.33-.47c.1-.12.19-.25.29-.4.1-.15.2-.28.31-.4.11-.12.21-.18.31-.18.19,0,.6.27,1.23.8.63.53,1.1,1.02,1.42,1.45.1.12.15.25.15.4,0,.17-.11.33-.33.47l-.29.15c-.22.1-.38.21-.49.33-.11.12-.16.29-.16.51v3.63c.05,2.59.13,5.19.25,7.8v.25c0,.24-.05.41-.15.51-.02.02-.04.06-.04.11,0,.15.16.36.47.65,1.38,1.23,2.07,2,2.07,2.29,0,.07-.08.11-.25.11h-.22c-.22,0-.41.05-.58.15-2.23,1.36-4.11,2.38-5.66,3.08-.32.15-.47.34-.47.58Zm1.65-20.09c-.13-.13-.32-.2-.56-.2h-7.91c-.24,0-.43.07-.56.2-.13.13-.2.32-.2.56v3.63c0,.24.07.43.2.56.13.13.32.2.56.2h7.91c.24,0,.43-.07.56-.2.13-.13.2-.32.2-.56v-3.63c0-.24-.07-.43-.2-.56Zm-9.04,6.21c-.13.13-.2.32-.2.56v3.88c0,.24.07.43.2.56.13.13.32.2.56.2h7.91c.24,0,.43-.07.56-.2.13-.13.2-.32.2-.56v-3.88c0-.24-.07-.43-.2-.56-.13-.13-.32-.2-.56-.2h-7.91c-.24,0-.43.07-.56.2Zm6.59,12.76c.15.07.28.05.4-.07,1.31-1.19,2.46-2.48,3.45-3.88.24-.31.36-.59.36-.83,0-.17-.08-.24-.25-.22-.36.12-.67.18-.91.18-.27,0-.4-.25-.4-.76v-.15c0-.24-.07-.43-.2-.56-.13-.13-.32-.2-.56-.2h-3.96c-.46,0-.69.19-.69.58,0,.07.02.18.07.33.65,1.98,1.42,3.69,2.29,5.12.12.24.25.4.4.47Z"/>
      <path class="cls-1" d="m262.61,103.09c0,.1.04.22.11.36.82,1.94,1.82,3.65,2.99,5.13s2.5,2.67,3.97,3.54c.17.1.3.18.4.25.1.07.15.15.15.22s-.05.15-.16.22c-.11.07-.25.15-.42.22-.65.31-1.16.87-1.52,1.67-.14.31-.31.47-.51.47-.12,0-.28-.07-.47-.22-2.03-1.81-3.61-4.17-4.74-7.08s-1.97-6.48-2.52-10.74c-.05-.41-.22-.62-.51-.62-.17,0-.31.05-.44.15l-.8.51c-.36.22-.54.52-.54.91v8.2c.05,2.64.13,5.3.25,7.98v.18c0,.34-.12.58-.36.73-.58.44-1.28.65-2.1.65-.22,0-.41-.07-.58-.22-.17-.15-.25-.31-.25-.51.1-1.43.18-2.81.25-4.15.07-1.34.12-3.1.15-5.28v-5.88c0-.44-.18-.65-.54-.65-.14,0-.27.02-.36.07-.92.44-1.81.79-2.69,1.05-.44.15-.68.16-.73.04-.02-.05-.05.08-.09.4-.04.31-.07.65-.09,1.02-.19,3.68-.47,6.49-.83,8.44-.36,1.95-.86,3.26-1.49,3.94-.7.73-1.65,1.17-2.83,1.34h-.11c-.39,0-.62-.24-.69-.73-.07-.53-.24-.93-.51-1.2-.32-.31-.97-.59-1.96-.83-.44-.12-.65-.28-.65-.47s.27-.25.8-.18c1.21.12,2.18.18,2.9.18.27,0,.48-.03.65-.09.17-.06.34-.16.51-.31.94-.94,1.54-5.75,1.78-14.41v-.07c0-.24-.07-.42-.2-.54-.13-.12-.31-.18-.53-.18h-2.03c-.46,0-.71.24-.76.73-.24,3.77-.82,7.11-1.72,10.02-.91,2.9-2.4,5.5-4.48,7.8-.31.41-.58.51-.8.29-.07-.07-.11-.17-.11-.29,0-.15.06-.34.18-.58,1.28-2.1,2.23-4.4,2.85-6.89.62-2.49,1-4.94,1.16-7.33.16-2.4.25-5.41.27-9.04,0-.51-.25-.76-.76-.76h-.54c-.58.05-1.1.13-1.56.25-.15.05-.25.07-.33.07-.29,0-.52-.16-.69-.47l-.11-.22c-.07-.15-.11-.29-.11-.44s.06-.26.18-.34c.12-.08.29-.11.51-.09.68.07,1.69.13,3.05.18h1.23c.51,0,.76-.25.76-.76-.05-2.03-.16-3.82-.33-5.37v-.07c0-.44.19-.65.58-.65.12,0,.22.01.29.04,2.03.53,3.05.96,3.05,1.27,0,.1-.08.21-.25.33l-.04.04c-.34.24-.51.54-.51.91v3.52c0,.24.07.43.2.56.13.13.32.2.56.2h.54c.39,0,.69-.17.91-.51l.47-.73c.1-.15.22-.33.38-.56.16-.23.28-.4.38-.51s.19-.16.29-.16c.19,0,.65.31,1.36.94.71.63,1.23,1.16,1.54,1.6.12.12.18.25.18.4s-.07.28-.22.4c-.17.12-.4.18-.69.18h-6.71c-.24,0-.43.07-.56.2-.13.13-.2.32-.2.56l-.07,3.52c0,.51.24.76.73.76h1.74c.39,0,.69-.16.91-.47l.33-.47c.1-.12.19-.25.29-.4.1-.15.2-.28.31-.4.11-.12.21-.18.31-.18.12,0,.38.16.76.47.19.15.38.22.54.22.22,0,.4-.11.54-.33.85-1.26,1.62-2.65,2.32-4.17.44-.94.84-2.07,1.22-3.37.38-1.31.63-2.48.78-3.52.07-.41.27-.62.58-.62.05,0,.17.02.36.07,2.13.75,3.19,1.27,3.19,1.56,0,.1-.11.19-.33.29l-.14.04c-.34.15-.58.39-.73.73-.34.9-.74,1.78-1.2,2.65-.07.15-.11.28-.11.4,0,.34.22.51.65.51h6.64c.39,0,.69-.17.91-.51l.47-.69c.1-.15.22-.33.38-.56.16-.23.28-.4.38-.51s.19-.16.29-.16c.19,0,.64.31,1.34.93.7.62,1.21,1.14,1.52,1.58.12.12.18.25.18.4s-.07.28-.22.4c-.12.1-.33.15-.62.15h-12.37c-.41,0-.71.17-.91.51-1.14,1.69-2.47,3.21-3.99,4.54-.27.22-.4.42-.4.62,0,.1.04.18.11.25l.33.36c.07.15.11.28.11.4,0,.22-.11.39-.33.51l-.25.07c-.44.1-.67.38-.69.83v1.12c0,.46.16.69.47.69.14,0,.28-.05.4-.15,2.11-1.14,4.11-2.52,6.02-4.14,1.77-1.52,3.14-3.11,4.14-4.75.15-.29.34-.44.58-.44.15,0,.31.07.51.22,1.69,1.19,2.54,1.89,2.54,2.1,0,.1-.11.15-.33.15h-.04c-.36,0-.68.13-.94.4-.82.82-1.84,1.66-3.05,2.5-.36.27-.5.59-.4.98.31,1.57.74,3.15,1.27,4.72.1.29.21.5.33.62.12.12.23.13.33.04l.33-.36c1.67-1.89,2.94-3.65,3.81-5.3.14-.29.34-.44.58-.44.17,0,.34.07.51.22,1.62,1.23,2.43,2,2.43,2.29,0,.12-.13.18-.4.18h-.18c-.34.02-.6.11-.8.25-1.74,1.38-3.63,2.66-5.66,3.85-.29.17-.44.39-.44.65Z"/>
      <path class="cls-1" d="m301.95,92.82c.65.56.98,1.28.98,2.18,0,1.16-.5,2.14-1.51,2.92-1,.79-2.33,1.52-3.97,2.2l-1.67.62c-2.73,1.04-4,1.52-3.81,1.45-.41.19-.62.48-.62.87-.05.51-.05,1.03,0,1.56,0,.22,0,.65.02,1.31.01.65,0,1.08-.02,1.27-.02.44-.19.82-.49,1.16-.3.34-.65.51-1.03.51-.36,0-.68-.16-.96-.47-.28-.31-.42-.68-.42-1.09,0-.1.05-.65.14-1.67,0-.15.02-.41.07-.8v-.15c0-.39-.16-.58-.47-.58-.17,0-.31.05-.44.15-2.23,1.36-3.34,2.81-3.34,4.35,0,1.77,1.73,2.65,5.19,2.65.7,0,1.34-.05,1.9-.15.57-.1,1.19-.23,1.87-.4.12-.02.42-.09.91-.2.48-.11.94-.16,1.38-.16.53,0,.94.11,1.23.33.29.22.43.52.43.91,0,.82-.7,1.4-2.09,1.74-1.39.34-2.88.51-4.48.51-2.81,0-4.8-.44-5.97-1.32-1.17-.88-1.76-2.03-1.76-3.43,0-1.26.46-2.4,1.38-3.41.92-1.02,2.23-2,3.92-2.94.36-.22.54-.51.54-.87v-.54c0-1.28-.21-2.25-.62-2.9-.41-.65-.9-.98-1.45-.98-.77,0-1.54.43-2.3,1.29-.76.86-1.58,1.94-2.45,3.25l-.4.62c-.07.1-.25.36-.54.8-.29.44-.57.77-.83,1.02-.27.24-.51.36-.73.36-.46,0-.82-.18-1.07-.54-.25-.36-.38-.81-.38-1.34,0-.7.3-1.34.91-1.92l.54-.51c.68-.63,1.26-1.2,1.76-1.72.5-.52.96-1.11,1.4-1.76,1.02-1.57,1.86-3.3,2.54-5.19.05-.15.07-.25.07-.33,0-.17-.07-.3-.2-.38-.13-.08-.32-.11-.56-.09-.78.1-1.34.15-1.71.15-.82,0-1.53-.16-2.12-.49-.59-.33-1.3-.85-2.12-1.58-.1-.1-.14-.18-.14-.25s.06-.11.18-.11c.1,0,.27.04.51.11.87.31,1.75.47,2.65.47,1.19,0,2.46-.19,3.81-.58.39-.1.62-.36.69-.8.07-.44.11-.82.11-1.16,0-1.02-.39-1.79-1.16-2.32-.19-.12-.29-.24-.29-.36.02-.22.1-.39.22-.53.12-.13.29-.2.51-.2.34,0,.82.07,1.43.22.62.15,1.02.33,1.22.54.17.19.25.5.25.91v.07c0,.17.04.34.13.53.08.18.22.31.42.38.31.07.63.11.94.11s.58-.04.8-.11c.29-.05.54-.07.76-.07.58,0,.87.23.87.69,0,.41-.2.83-.6,1.27s-.91.83-1.54,1.2c-.65.36-1.5.73-2.54,1.09-.36.15-.61.39-.73.73-.56,1.72-1.19,3.33-1.89,4.83-.07.17-.11.33-.11.47,0,.19.1.29.29.29l.29-.07c.44-.1.76-.15.98-.15,1.93,0,3.23.88,3.88,2.65.12.27.22.4.29.4.12,0,.23-.12.33-.36.6-1.35,1.5-2.69,2.69-3.99.73-.77,1.62-1.46,2.67-2.05,1.05-.59,2.1-.89,3.14-.89.87,0,1.63.28,2.29.83Zm-13.39-6.31c-.1,0-.21.19-.33.58,0,.36.07.51.22.44l.4-.25c.17-.1.25-.19.25-.29s-.1-.21-.29-.33l-.18-.15h-.07Zm10.72,9.78c.67-.76,1-1.42,1-1.98,0-.75-.47-1.12-1.42-1.12-.63,0-1.34.21-2.14.64-.8.42-1.55,1.01-2.25,1.76-.48.53-.95,1.17-1.4,1.92-.45.75-.82,1.51-1.11,2.29-.1.22-.15.45-.15.69,0,.12.02.22.07.29.05.07.1.09.14.04l.8-.4c1.52-.75,2.78-1.42,3.77-2,1.11-.65,2-1.36,2.67-2.12Z"/>
      <path class="cls-1" d="m328.73,99.97c0,.22.16.41.47.58,2.27.99,4.33,2.19,6.17,3.59,1.84,1.4,2.76,2.78,2.76,4.14,0,.53-.16.98-.49,1.34-.33.36-.68.54-1.07.54s-.77-.16-1.14-.49c-.38-.33-.71-.78-1-1.36-.75-1.52-1.63-2.91-2.65-4.16-1.02-1.25-2.11-2.27-3.27-3.07-.17-.12-.33-.18-.47-.18-.19,0-.39.1-.58.29-4.43,4.89-9.52,8.5-15.28,10.85-.12.05-.23.07-.33.07-.14,0-.22-.06-.22-.18s.13-.24.4-.36c2.54-1.35,5.05-3.19,7.53-5.5,2.48-2.31,4.63-4.67,6.44-7.08,1.81-2.41,3.07-4.42,3.77-6.04.1-.22.17-.42.22-.62.02-.05.04-.11.04-.18,0-.12-.11-.18-.33-.18-.44,0-1.7.28-3.79.85-2.09.57-3.54,1.03-4.34,1.4-.15.07-.35.18-.62.31-.27.13-.52.2-.76.2-.61,0-1.19-.22-1.74-.65-.56-.44-1-.94-1.32-1.52s-.49-1.06-.49-1.45c0-.34.08-.51.25-.51.07,0,.22.09.43.25.22.17.46.31.73.44.46.19,1,.29,1.63.29.51,0,2.09-.21,4.75-.64,2.66-.42,4.33-.73,5.01-.93.24-.07.67-.25,1.27-.54.41-.24.69-.36.83-.36.29,0,.7.17,1.23.51.53.34,1.01.73,1.43,1.18.42.45.63.83.63,1.14,0,.17-.08.33-.24.49-.16.16-.39.34-.71.56-.19.15-.39.3-.6.47-.21.17-.36.34-.45.51-1.16,1.86-2.47,3.7-3.92,5.52-.14.17-.22.33-.22.47Z"/>
      <path class="cls-1" d="m372.2,88.59c.56.35,1.05.74,1.47,1.18.42.44.63.77.63,1.02s-.06.42-.18.53-.31.22-.58.34c-.31.17-.57.33-.78.47-.21.15-.41.39-.6.73-1.43,2.44-3.01,4.74-4.75,6.89-.12.15-.18.31-.18.51s.1.39.29.58c1.6,1.52,2.4,2.85,2.4,3.99,0,.58-.14,1.05-.42,1.4-.28.35-.63.53-1.07.53-.31,0-.62-.14-.92-.42-.3-.28-.56-.64-.78-1.07-.46-.89-.86-1.6-1.2-2.1-.14-.27-.33-.4-.54-.4-.17,0-.35.1-.54.29-4.67,4.67-10.21,8.1-16.62,10.31-.34.1-.57.15-.69.15-.19,0-.29-.06-.29-.18,0-.1.25-.28.76-.54,3.07-1.45,5.91-3.22,8.51-5.3,2.6-2.08,4.92-4.29,6.95-6.64.14-.19.22-.38.22-.54,0-.19-.09-.37-.25-.54-.89-1.04-2.12-2.15-3.67-3.34l-.62-.51c-.15-.12-.22-.23-.22-.33s.06-.15.18-.15c.05,0,.18.04.4.11,1.91.8,3.6,1.69,5.08,2.69.17.12.33.18.47.18.24,0,.45-.12.62-.36,1.26-1.67,2.28-3.2,3.07-4.59.79-1.39,1.18-2.23,1.18-2.52,0-.15-.04-.25-.11-.31-.07-.06-.19-.09-.36-.09l-.8.11c-1.57.31-2.92.47-4.03.47-.65,0-1.23-.05-1.74-.15-.07-.02-.18-.04-.33-.04-.24,0-.47.12-.69.36-1.48,1.96-3.18,3.88-5.12,5.75-1.94,1.88-3.63,3.16-5.08,3.86-.19.12-.38.18-.54.18s-.25-.06-.25-.18.16-.33.47-.62c1.14-.94,2.39-2.25,3.76-3.92,1.37-1.67,2.56-3.35,3.58-5.04,1.02-1.69,1.62-3.05,1.81-4.06.05-.34.07-.58.07-.73,0-.89-.39-1.34-1.16-1.34-.07,0-.15,0-.24-.02-.08-.01-.16-.03-.24-.05-.07-.02-.11-.06-.11-.11,0-.19.21-.37.62-.53.41-.16.79-.24,1.12-.24.44,0,.97.17,1.6.51.63.34,1.18.73,1.67,1.16.48.44.73.8.73,1.09,0,.17-.09.37-.27.6-.18.23-.32.42-.42.56l-.29.58c-.15.27-.24.48-.29.64-.05.16-.04.24.04.24h.22c.82,0,1.87-.08,3.16-.25,1.28-.17,2.19-.35,2.72-.54.46-.17.81-.33,1.05-.47.31-.19.59-.29.83-.29.31,0,.75.18,1.31.53Z"/>
      <path class="cls-1" d="m385.54,101.94c-.23-.06-.48-.19-.74-.38-.44-.27-.84-.65-1.22-1.14-.38-.5-.56-1-.56-1.51,0-.29.07-.62.2-.98.13-.36.28-.54.45-.54.1,0,.22.1.36.29.31.39.67.62,1.05.69.85.27,1.9.4,3.16.4,1.06-.02,2.62-.07,4.66-.15,2.04-.07,3.78-.13,5.21-.18l7.55-.36c1.23-.1,2.31-.15,3.23-.15,1.04,0,1.88.1,2.5.31.63.21.94.62.94,1.25,0,.39-.19.68-.56.89-.38.21-.88.33-1.51.38-.39.05-1.11.07-2.18.07-1.14.02-2.76.05-4.86.09-2.11.04-3.87.08-5.3.13-1.79.05-3.71.14-5.77.27-2.06.13-3.46.28-4.21.45-.8.17-1.33.25-1.6.25-.32,0-.59-.03-.82-.09Z"/>
      <path class="cls-1" d="m435.85,95.47c2.44.48,4.57,1.19,6.39,2.12,1.81.93,2.72,2.11,2.72,3.54,0,.46-.12.85-.36,1.16-.24.31-.54.47-.91.47-.73,0-1.61-.64-2.65-1.92-1.52-1.89-3.18-3.33-4.97-4.32-.15-.07-.27-.11-.36-.11-.17,0-.3.06-.4.18-.1.12-.15.29-.15.51v5.44c.05,3.82.12,6.07.22,6.75.24,1.26.36,2.13.36,2.61,0,.65-.18,1.19-.53,1.6-.35.41-.7.62-1.03.62-.39,0-.75-.29-1.09-.87s-.61-1.25-.82-2c-.21-.75-.31-1.29-.31-1.63,0-.27.04-.62.11-1.05.15-.94.24-1.73.29-2.36.07-.89.14-2.52.22-4.86,0-.48.02-1.23.07-2.25.05-1.55.07-3.81.07-6.79,0-2.37-.06-3.93-.18-4.68-.07-.56-.23-.97-.47-1.23-.24-.27-.59-.56-1.05-.87-.12-.07-.22-.13-.29-.18-.07-.05-.11-.11-.11-.18,0-.29.31-.51.93-.65.62-.15,1.15-.22,1.61-.22.85,0,1.57.3,2.18.91.29.29.44.64.44,1.05,0,.22-.05.52-.15.91-.27,1.06-.4,2.35-.4,3.85l-.07,3.67c0,.46.23.73.69.8Z"/>
      <path class="cls-1" d="m453.29,111.38c-.41-.41-.61-.9-.61-1.47s.2-1.1.61-1.52.9-.62,1.47-.62,1.1.21,1.52.62.62.92.62,1.52-.21,1.07-.62,1.47c-.42.41-.92.61-1.52.61s-1.07-.2-1.47-.61Zm4.14-5.94c-.08-.07-.11-.19-.11-.34,0-.17.06-.36.19-.58,1.13-2.03,2.11-3.86,2.93-5.5.82-1.64,1.71-3.49,2.67-5.54.75-1.62,1.37-2.92,1.86-3.89.49-.97,1.01-1.88,1.57-2.74.34-.51.73-.9,1.15-1.15s.85-.38,1.28-.38c.55,0,1.03.21,1.42.62s.59.93.59,1.55c0,.58-.19,1.17-.58,1.79-.41.66-.86,1.32-1.36,1.97-.5.65-1.03,1.31-1.58,1.97-.56.66-.93,1.11-1.12,1.34-1.54,1.84-2.91,3.53-4.11,5.07-1.21,1.55-2.5,3.34-3.89,5.39-.21.34-.43.51-.64.51-.11,0-.2-.04-.27-.11Z"/>
    </g>
  </g>
  <g id="_レイヤー_1" data-name="レイヤー 1">
    <g>
      <g>
        <path class="cls-1" d="m274.94,19.1h-2.12v-9.29h-9.29v9.29h-2.12V-.32h2.12V7.98h9.29V-.32h2.12v19.42Z"/>
        <path class="cls-1" d="m284.38-.34h2.12v19.44h-2.12V-.34Z"/>
        <path class="cls-1" d="m308.74,19.1h-2.5l-6.35-9.75-1.81,2.12v7.63h-2.12V-.34h2.12v9.49h.1c.48-.74,1.02-1.45,1.51-2.09l5.92-7.4h2.6l-6.84,8.27,7.37,11.17Z"/>
        <path class="cls-1" d="m331.37,9.2c0,6.84-3.83,10.21-8.42,10.21-4.82,0-8.24-3.8-8.24-9.87s3.6-10.18,8.47-10.18,8.19,3.98,8.19,9.85Zm-14.44.28c0,4.13,2.14,8.16,6.1,8.16s6.12-3.9,6.12-8.34c0-3.9-1.91-8.19-6.07-8.19s-6.15,4.23-6.15,8.37Z"/>
        <path class="cls-1" d="m353.39,19.1h-2.12l-6.2-10.23c-1.3-2.17-2.55-4.34-3.5-6.48l-.1.03c.18,2.47.2,4.75.2,8.11v8.57h-1.99V-.34h2.22l6.28,10.23c1.38,2.32,2.5,4.34,3.39,6.35l.05-.03c-.2-2.7-.25-5.03-.25-8.09V-.34h2.02v19.44Z"/>
        <path class="cls-1" d="m373.08,19.1h-10.26V-.34h9.82v1.79h-7.71v6.58h7.25v1.76h-7.25v7.53h8.14v1.79Z"/>
        <path class="cls-1" d="m298.25,29.82h-5.74v17.63h-2.12v-17.63h-5.71v-1.79h13.57v1.79Z"/>
        <path class="cls-1" d="m314.5,44.13c0,1.15.03,2.35.2,3.32h-1.94l-.2-1.79h-.08c-.71,1.1-2.14,2.09-4.11,2.09-2.65,0-4.06-1.94-4.06-3.95,0-3.34,2.91-5.15,8.06-5.13,0-1.17,0-3.83-3.16-3.83-1.2,0-2.45.33-3.39,1l-.51-1.45c1.12-.74,2.68-1.17,4.24-1.17,3.93,0,4.95,2.78,4.95,5.54v5.38Zm-2.09-3.9c-2.63,0-5.92.38-5.92,3.32,0,1.79,1.12,2.58,2.4,2.58,2.07,0,3.52-1.58,3.52-3.27v-2.63Z"/>
        <path class="cls-1" d="m325.85,35.79c.87-1.61,2.45-2.58,4.62-2.58,3.29,0,5.61,2.83,5.61,7.12,0,5.05-3.09,7.42-5.97,7.42-2.02,0-3.5-.82-4.49-2.6h-.08l-.13,2.3h-1.84c.05-.92.1-2.32.1-3.44v-16.97h2.12v8.75h.05Zm-.05,6.23c0,2.07,1.56,4.01,3.9,4.01,2.7,0,4.21-2.32,4.21-5.61,0-2.91-1.43-5.46-4.13-5.46-2.42,0-3.98,2.27-3.98,4.31v2.76Z"/>
        <path class="cls-1" d="m345.42,31.09c-.82,0-1.38-.64-1.38-1.45s.59-1.43,1.4-1.43,1.38.64,1.38,1.43c0,.89-.59,1.45-1.4,1.45Zm1.07,16.35h-2.12v-13.9h2.12v13.9Z"/>
      </g>
      <g>
        <rect class="cls-1" x="242.28" y="50.61" width="2.32" height="3.06" transform="translate(31.54 182.82) rotate(-43.75)"/>
        <path class="cls-1" d="m237.26,47.36l-4.28-4.47,1.67-1.6,4.28,4.47-1.67,1.6Zm-8.56-8.94l-4.28-4.47,1.67-1.6,4.28,4.47-1.67,1.6Zm-8.56-8.94l-4.28-4.47,1.67-1.6,4.28,4.47-1.67,1.6Zm-8.56-8.94l-4.28-4.47,1.67-1.6,4.28,4.47-1.67,1.6Z"/>
        <rect class="cls-1" x="201.64" y="8.17" width="2.32" height="3.06" transform="translate(49.58 142.91) rotate(-43.74)"/>
      </g>
      <g>
        <rect class="cls-1" x="388.62" y="50.98" width="3.06" height="2.32" transform="translate(82.64 297.84) rotate(-46.24)"/>
        <path class="cls-1" d="m396.32,47.36l-1.67-1.6,4.28-4.47,1.67,1.6-4.28,4.47Zm8.56-8.94l-1.67-1.6,4.28-4.47,1.67,1.6-4.28,4.47Zm8.56-8.94l-1.67-1.6,4.28-4.47,1.67,1.6-4.28,4.47Zm8.56-8.94l-1.67-1.6,4.28-4.47,1.67,1.6-4.28,4.47Z"/>
        <rect class="cls-1" x="429.26" y="8.54" width="3.06" height="2.32" transform="translate(125.84 314.13) rotate(-46.24)"/>
      </g>
    </g>
    <g>
      <path class="cls-1" d="m20.04,141.57c-.39-.01-.72-.02-1.08-.03.41.05.83.07,1.08.03Z"/>
      <path class="cls-1" d="m133.57,48c.6-.03,1.1-.07,1.56-.13l-1.46.05s-.05.05-.09.08Z"/>
      <path class="cls-1" d="m513.23,48.71s-.02-.05,0-.08c-.21.04-.28.07,0,.08Z"/>
      <path class="cls-1" d="m471.11,46.58l.58-.03c.06-.08.12-.16.12-.24l-.71.27Z"/>
      <path class="cls-1" d="m53.6,142.12c-.07,0-.09,0-.15-.01-.88.05-.38.04.15.01Z"/>
      <path class="cls-1" d="m361.74,141.8c-3.49-.38,5.68-.49.43-.92.49.17-4.78.67-.43.92Z"/>
      <path class="cls-1" d="m132.63,47.94h-1.49c.68.02,1.14.02,1.49,0Z"/>
      <path class="cls-1" d="m130.16,141.68s.21.1.79.19c-.16-.07-.47-.13-.79-.19Z"/>
      <path class="cls-1" d="m192,141.25c-.17-.03-.38-.06-.57-.09-.31,0-.67.02-.99.02l1.56.06Z"/>
      <path class="cls-1" d="m607.86,48.5c-.68-.12-1.11-.25-1.44-.38.48.31-4.1.42,1.44.38Z"/>
      <path class="cls-1" d="m133.55,47.75c-.18.11-.45.16-.93.18.36,0,.7-.02,1.04-.02.09-.06.11-.13-.11-.16Z"/>
      <path class="cls-1" d="m555.64,138.1c.3-.02.63-.04,1.02-.08-.33.03-.68.05-1.02.08Z"/>
      <path class="cls-1" d="m636.8,137.69l-1.27-1.99-.83-1.14c.17.05.48.14,1.05,1.04-1.54-2.66-5.53-10.46-6-9.13.63-.31-3.36-5.85-5.45-8.8l.78.3c-2.15-2.35-2.37-2.37-4.66-5.9-.43-.87-.04-.89.5.29-1.41-2.93-1.77-2.05-3.53-5.58l1.07,1.17c-1.67-2.93-1.71-2.64-3.02-4.12-1.28-1.77-3.13-5.59-2.93-6.18-.51-.3-1.81-1.77-2.69-3.53.03-.29.51.29.74.59-.25-.48-.49-.93-.7-1.35.16-.29.32-.57.47-.83.23-.43.45-.83.66-1.23.39-.79.76-1.52,1.12-2.22.71-1.41,1.4-2.7,2.47-4.08.21-.01.42-.2.63-.46-2.29,3.88-4.15,6.99-4.01,6.69.45.16,2.38-2.94,1.54-.23,1.13-2.64,2.91-7.21,4.92-10.19.13-.13.26-.26.39-.35l-.13.33c.46-.68.79-1.33,1.06-1.95.65-.95,1.06-1.55,1.62-2.48.59-.23,2.32-3.52,3.25-5.08-.58-.05.71-2.06-.83-.3.18-.24-.11.32-.7,1.36-.12.24-.28.52-.33.68l.02-.12c-.59,1.03-1.37,2.37-2.25,3.9.47-1.33,1.01-2.7,2.31-4.32.15-.92.33-1.92.47-2.47,1.95-1.89,4.76-5.87,5.52-6.29,1.31-2.43,2.84-5.27,4.26-7.9,1.46-2.74,2.4-4.79,3.25-7.21.85-1.7,1.6-2.18,2.3-3.06h-.02s.03,0,.03,0c-.52,1.07-1.35,2.45-1.55,3.08.49-.9,1.08-1.99,1.72-3.16-1.45.02-2.98.04-4.48.06-1.31.03-2.6.06-3.76.08-1.74.07-3.09.18-3.45.4-4.82-.25,2.71-.52-3.91-.43l.9-.17c-13.02-.9-21.17,1.44-35.61.28,1,.07,1.5.11,1.7.2-16.46-.51-33.92.48-50.16-.33-4.61-.17-5.12.19-7.93.47l-1-.46-4.82.53c-6.83.39-11.83-1.13-20.48-.39l1.12.31c-3.11-.06-9.84.18-9.32-.17-.32.06-1.02.32-2.23.16l-.1-.24-7.63.42c-5.91-.18.93-.96-7.7-1.01-3.21.09-9.14.7-7.93.86,1.29.01,3.31.15,3.4.39l-2.93.13c-.53.71-2.79,1.44,4.41,1.94l5.02-.44,1.62.35-4.22.02c2.4.33,3.91.04,5.62-.16.4.18,1.11.31,2.11.38l4.93-.68c.6.28-2.21.55,1.1.71,2.31-.32-2.21-.62,1.61-.83,2.4.33,1.7.59,4.52.31.4.18-.2.3-1.31.38,2.51-.22,6.64-.09,7.93-.47,2.5.4,8.47-.11,8.22.57.79-.16,4.42-.53,6.72-.56-4.21.81,8.63.05,7.51.91,3.12-.73,11.26-.32,16.77-.73-.31.06-.91.18-1.4.14,3.11.06,4.01.28,6.01.42.4-.6,5.23-.74,7.84-1.11,3.81.58-2.31.71-1.12,1.26-.19-.49,6.62-.48,5.32-.89,2.92.36,2.51.17,4.01.67.51-.75,2.71-.13,5.12-.58,4.22.37,1.09.7,5.71.47,2.2.23-1.91.49-1.91.49,4.71.01,2.21-.55,3.21-.87,5.63-.16,2.6.42,4.52.71,3.51-.15,6.21-.67,8.83-.65.19.09.7.13.11.25,3.71-.45,11.02-.03,15.35-.59.32.05.48.1.56.14-.7-.28-.8-.57-.66-.77,2.11,0,3.92-.36,4.72.01-1.3-.01-1.41.14-2.01.25l2.21-.16c1.99.53-3.02.18-3.02.58,4.32-.17,9.35-.61,12.66-.46.69.52-7.74.17-3.32.64l-5.12-.2c3.91.82-3.11-.06.48.82,6.74.15,7.54-.27,14.26-.12,1.51-.29-.5-.43,1.01-.72,1.13-.06,2.1-.09,2.94-.09.52,0,.83.02,1.11.05.55.07.72.22.68.36-.44.37-.8.59-1,.73-.27.28.05-.24-.74,1.52-.36,1.44.12,2.21-2.37,5.61l.03-1.46c-2.79,4.61-.57,3-3.88,7.68.24-.96,1.91-3.72,1.42-3.05-2.39,2.95-.92,2.36-2.34,4.78l-.9.28c-2.69,4.99-5.67,10.52-8.65,16.05,0-.36.36-1.37-.58-.16-1.07,2-2.24,4.06-3.46,6.13-1.41,2.3-2.82,4.63-4.23,6.93.57,1.04,1.15,2.07,1.71,3.1.42.78.83,1.56,1.24,2.32.81,1.54,1.6,3.04,2.36,4.49l2.01,2.35c.34.59.41,1.18-.07.57,1.32,2.66.41.02,1.35,1.19.9,1.46.84,2.05.14,1.18,3.13,4.41,8.6,12.67,10.86,17.68l-.7-.88c1.99,3.82,3.55,3.84,5.11,7.49l-.49-.63c1.22,2.12,2.48,4.31,3.72,6.47-2.97,0-5.88-.02-8.62-.03-3.58-.05-6.91-.15-9.82-.38-1.66.65-11.34-.29-12.08.62-6.54-.45-4.66-.61-13.88-.91-2.46-.04-3.66.56-6.71.66l-.08-.47-4.13.49-2.2-.56-2.85.12c1.13.03,2.41.21,2.24.35-4.46.22-10.87-.33-10.97-.57l-10.55.4c.18-.15,1.25-.22,2.37-.3-4,.27-.36-.54-5.16-.13.69.11-.37.28-.49.37-2.57-.28-8.42-.28-12.76-.17l.83-.32c-7.82-.08-16.49.16-25.27.15,3.15.15,2.43.71-.15.77l-1.03-.5c-1.66.31,2.69.19-.72.57-3.28-.06-2.21-.57-.32-.73l-3.99.17c-.23-.15.7-.23.95-.42-1.64.31-6.88-.5-9.24.04l-.22-.15c-8.77.08-12.76.12-19.91.19-.14.43-2.94.33-5.07.68-5.25-.14-11.08-.47-17.41-.44-4.45.21-1.3.36-3.3.62-.32-.39-6.65-.35-3.37-.64-7.59.06-9.7.08-19.31.4,1.04.16,2.21.23,1.61.36-1.74.06-3.97-.16-3.72-.35l.46-.04c-10.78.59-24.89-1.14-33.48-.33l.48-.04-8.91.43c-4.1-.07,2.46-.3-.57-.54-9.61.65-15.18-.09-23.09.34-6.12-1.16-21.73.08-29.99-.65l.48.27c-2.14.26-2.59-.16-4.16-.22.23.21,2.32.24.99.39-18.1.33-37.35-.4-55.91-.64-6.78-.07-3.85,1.41-12.4.76l2.42-.51c-13.69.61-28-.02-41.4.5.8-.12.82-.27,2.13-.27-2.83-.36-10.47-.02-10.52.28-2.09-.04-.49-.27-1.77-.43-2.84-.21-7.13.47-8.64.11-.26-.06.8-.12,1.32-.15-1.85.18-8.62-.05-6.85.38-4.95-.2-9.47.17-13.43-.06,0-.02,0-.03,0-.04.14-.02.29-.04.38-.07l-.4-.02c-.01-.06-.02-.12-.04-.18-.28-.02-.55-.04-.94-.05-4.95-.03-9.48.16-13.78.31-1.32,0-2.7.03-3.95.08-1.21-.17-2.56-.23-3.51-.32l4.59.06c-1.3-.04-2.96-.06-4.62-.06-.67-.06-1.15-.15-1.2-.32-7.15-.07-11.13-.11-19.91-.19l-.22.15c-2.36-.53-7.61.27-9.24-.04.24.19,1.18.27.95.42l-3.99-.17c1.14.1,1.96.32,1.73.49-1.05.03-2.07.06-3.11.09-1.05-.2,1.72-.16.33-.42l-.9.44c-.3.01-.59.02-.88.03-1.92-.14-2.2-.6.61-.73-8.78,0-17.45-.23-25.27-.15l.83.32c-4.33-.12-10.19-.12-12.76.17-.12-.09-1.18-.27-.49-.37-4.8-.41-1.16.4-5.16.13,1.12.08,2.19.15,2.37.3l-10.55-.4c-.1.24-6.52.79-10.97.57-.17-.14,1.11-.32,2.25-.35l-2.85-.12-2.2.56-4.13-.49-.08.47c-3.04-.09-4.25-.69-6.71-.66-9.22.3-7.34.46-13.88.91-.74-.9-10.42.03-12.08-.62-2.91.22-6.24.33-9.82.38-2.4,0-4.95.02-7.54.03l1.21-2.25-1.57,2.16c.31-.88.09-.93-.07-.96-.01,0-.02-.02-.03-.03.56-.97,1.12-1.94,1.68-2.91.63-.99,1.55-2.4,2.24-3.13.31-.75.62-1.51,1.04-2.34.62-.71,1.28-1.42,1.98-2.52.12.21.2.48.39.31.24-1.56,3.67-6.58,4.1-8.51-.2.62.13.78.32.61l.22-1.3c.9-1.24,1.08-1.4,1.23-1.1,1.92-3.12-.3-.57.42-1.87.35-.54.7-1.06,1.04-1.59-.1.25,0,.22-.34.92.77-1.21,1.48-2.42,2.16-3.62.5-.73.98-1.41,1.4-2.01-.27.33-.41.39-.47.34.34-.61.68-1.22,1.01-1.82.18.09.01.83.57-.18l1.11-1.36.04-.91.94-1.09c-.07.2-.02.26.3-.02.82-1.52,1.66-3.06,2.51-4.62.9-1.7,1.81-3.42,2.71-5.13-.04-.06-.07-.12-.11-.17.04-.07.08-.15.12-.23-1.4-2.3-2.82-4.63-4.23-6.93-1.22-2.07-2.39-4.13-3.46-6.13-.73-.94-.67-.54-.61-.15-.38-.76-.81-1.53-1.33-2.23-.03-.05-.05-.09-.08-.14.49.61,1,.68.79.53-1.22-2.26-2.66-4.53-4.33-7.1-1.26-2.33-2.49-4.62-3.67-6.8l-.59-.18c-.31-.62-.66-1.28-1.06-2.01-.11-.62-.17-1.13-1.58-2.87-.1-.15-.1-.11-.03.02-.3-.52-.6-1.04-.88-1.53-.2-.63-.55-1.47-1.55-3.12v.61c-.57-.72-1.12-1.59-.98-.74-.32-.81-.71-1.56-1.07-2.34-.13-.6-.14-1.09-.3-1.69-.78-1.76-.46-1.24-.74-1.52-.2-.15-.56-.36-1-.73-.02-.09.08-.17.27-.25.96-.04,1.92-.09,2.86-.13.07,0,.13,0,.2,0,.44.01.9.03,1.41.06,1.51.29-.5.43,1.01.72,6.72-.15,7.52.26,14.26.12,3.34-.82-2.49-.12-.17-.68l5.12-.12c-.67-.35-1.11-.21-2.9-.49.08-.02.21-.03.31-.04l1.54.11c-.36-.07-.57-.15-.93-.2.5-.06,1.08-.11,1.72-.15.47.03.98.05,1.51.06-.34.09-.12.18.39.27-.05.16-.2.34-.65.52.08-.04.24-.09.56-.14,4.33.56,11.64.14,15.35.58-.59-.12-.09-.15.11-.24,2.62-.02,5.32.5,8.83.65,1.91-.29-1.11-.87,4.52-.71,1,.32-1.5.89,3.22.87,0,0-4.12-.27-1.92-.49,4.63.23,1.5-.11,5.71-.47,2.41.46,4.61-.16,5.12.58,1.28-.42,1.19-.35,2.94-.54.95.08,1.66.17,1.27.25.31-.04.58-.04.87-.05,1.65.14,4.37.26,4.25.57.55-.25-.43-.42-1.29-.58,1.27.05,2.68.08,4.59-.19.09.08.95.08,1.61.12.25.03.48.06.69.1.1.04.13.09,0,.16.26,0,.41-.02.58-.03.26.07.47.16.53.25,2-.14,2.9-.36,6.01-.42-.49.04-1.1-.08-1.41-.14,5.52.4,13.66,0,16.77.73-.97-.75,8.56-.28,8.35-.67,1.46.08,3.3.24,5.09.2.35.04.64.08.79.12-.24-.68,5.72-.17,8.22-.57.23.07.56.11.95.15-.09.01-.13.03-.23.04.14,0,.28-.02.41-.02,1.8.16,4.8.12,6.8.3-1.12-.08-1.71-.2-1.32-.38.29.03.53.05.76.07-.16.02-.31.04-.43.06.27-.01.57-.02.87-.03.62.04.98.02,1.32-.04,1.18-.04,2.41-.08,3.57-.13,0,.18-1.51.38.04.6,1.34-.06,1.66-.15,1.63-.24l.7.02s.04-.05.1-.07l-.8.04c-.07-.12-.67-.26-.56-.41.1,0,.19-.01.29-.02l2.27.31-.29.02c.12,0,.26,0,.39,0l2.31.32c1-.07,1.7-.19,2.11-.38,1.7.19,3.22.48,5.62.16l-4.23-.02,1.62-.35,5.02.44c1.75-.12,2.92-.25,3.71-.4l-.37.15,2.75-.13c.6-.12.27-.38-1.21-.37.64-.37-.17-.78-.47-1.18l-2.93-.13c.1-.24,2.11-.38,3.4-.39,1.21-.16-4.72-.77-7.93-.86-8.63.05-1.79.83-7.7,1.01l-7.63-.42-.1.24c-1.21.16-1.91-.11-2.23-.16.52.36-6.21.12-9.32.17l1.12-.31c-8.65-.74-13.65.78-20.48.39l-4.82-.53-1,.46c-2.82-.27-3.32-.64-7.93-.47-8.62.43-17.57.36-26.54.27-.11-.02-.19-.04-.16-.05-.22.02-.42.03-.59.05-7.69-.08-15.38-.16-22.87.07.2-.1.7-.13,1.7-.2-14.44,1.16-22.58-1.18-35.61-.28l.9.17c-6.62-.09.91.17-3.91.43-.36-.22-1.71-.33-3.45-.4-1.16-.02-2.45-.05-3.76-.08-1.5-.02-3.03-.04-4.48-.06.63,1.17,1.23,2.26,1.72,3.16-.2-.62-1.03-2.01-1.55-3.08h.03-.02c.7.88,1.44,1.36,2.3,3.06.86,2.42,1.8,4.46,3.25,7.21,1.42,2.63,2.95,5.48,4.26,7.9.77.42,3.57,4.41,5.52,6.29.14.55.33,1.56.47,2.47,1.29,1.63,1.84,3,2.31,4.32-.88-1.53-1.66-2.87-2.25-3.9l.02.12c-.06-.16-.22-.45-.34-.68-.59-1.05-.89-1.6-.7-1.36-1.54-1.77-.26.25-.83.3.94,1.56,2.66,4.85,3.25,5.08.56.93.98,1.54,1.63,2.48.27.62.6,1.27,1.06,1.95l-.13-.33c.13.08.27.22.39.35,2.01,2.98,3.79,7.55,4.92,10.19-.83-2.72,1.09.39,1.55.23.13.31-1.73-2.81-4.02-6.69.21.26.42.45.63.46,1.07,1.38,1.76,2.67,2.47,4.08.35.71.72,1.44,1.12,2.23.21.39.43.8.66,1.23.15.26.31.54.47.83-.22.42-.45.87-.7,1.35.24-.3.71-.88.74-.59-.88,1.77-2.19,3.24-2.69,3.53.2.59-1.66,4.41-2.93,6.18-1.31,1.47-1.35,1.18-3.02,4.12l1.07-1.17c-1.76,3.54-2.12,2.65-3.53,5.58.54-1.18.94-1.16.5-.29-2.29,3.53-2.51,3.55-4.65,5.9l.77-.3c-2.09,2.95-6.08,8.49-5.45,8.8-.46-1.33-4.45,6.47-5.99,9.13.56-.9.88-.99,1.05-1.04l-.83,1.14-1.28,1.99-2.61,4.26h2.88c.97.04,1.37.11.52.2,2.54-.08,3.21-.15,2.92-.21h1.29s2.99-.05,2.99-.05c2.93,0,4.94-.05,8.35.06-.39-.04-.76-.11-.98-.17,1-.01,2-.05,2.99-.05l.08-.04c3.09,0,2.32-.24,3.93-.38,2.3.37,3.83,1.07,7.22,1.05l-.55-.11c4.74-.25,8.86.25,11.6.31l-2.65.15c1.58-.09,2.88-.08,4.2-.08l-1.51-.36c1.55.06,2.87.06,2.84.22.85-.13.47-.29.38-.46.62-.01,1.25-.02,1.94-.03l-.12-.42c.28.02.58.03.92.04,1.3.08,2.63.15,4,.21-3.01.02,1.89.52-2.93.59,1.06-.06,2.36-.05,3.92,0,.23.05-.22.1-.65.13,6.25.43,2.87-.55,9.34-.54-.82.27,1.5.51,2.56.46-2.61,0-1.25-.45,1.14-.66,2.86.14,3.92.02,5.02-.07,3.78.07,7.69.11,11.21-.07,1.27.06,2.56.09,3.92,0,.18.02.3.04.42.05l.33.43h.44c.1.06.3.11.82.15,5.02-.35,5.44.37,10.71.08-1.52-.36-1.78-.28,1.93-.63l-4.4.13c.3-.05.56-.12.78-.19h-.83s.02-.06.03-.08l1.31-.13c-.38,0-.77.01-1.16.02.78-.23,3.94.17,5.89.06.16,0,.33.02.49.03l-.07.51c3.72.24,6.95.03,10.66-.13,4.87-.04,9.88-.04,14.15-.13.53.1,1.25.18,1.84.28-.13-.22,5.91.02,6.65-.58l3.61.4c2.09.05,3.58-.02,4.88-.14,5.98.26,11.72.53,18.9.47l-.13-.1c3.41-.11,9.96-.31,10.73-.89,1.17.02,2.34.02,3.55.01,2.29.11,4.41.27,6.58.41-.76.18-.53.48,1.54.37l-.71-.48c-.15.01-.28.02-.4.04-.02-.12-.05-.24-.07-.35,2.36.02,4.52.09,6.15.33,4.57-.07,10.08-.16,14.23-.22-.27.09-.02.15-.8.12,5.72.28,3.52-.86,10.03-.55,3.33.49-3.46.26-1.39.45.9.99,7.86-.14,12.25.44l-1.06.06c3.35.34,8.18-.37,13.65-.31,0,0-.27.09-.03.15,3.74-.51,10.83-.67,16.09-.82-1.64.39-2.39.21-1.4.6,2.36-.06-.69-.64,4.02-.75,1.53.22,4.93.4,5.39.82l-4.44.02c2.28.54,5.75-.02,8.09.07l-.3.24c6.81-.08,6.91-.68,14.23-.64l-.76-.18c4-.59,3.36.33,7.35-.11l1.21.6c2.64-.15,9.25-.58,13.98-.7-2.68.44-8.22.67-11.65.94,2.61,0,8.89-.05,10.26-.34-1.05.06-2.38.21-3.43.11,3.21-.47,7.43-.71,12.65-.7-.93,1.17,13.59.29,17.37,1.2,9.22-.43,18.3.18,29.04.11-3.81-.91,3.14-.02,2.48-.96,2.46-.06,3.42-.04,3.66.01l-.51-.04c.23.02.35.03.55.04h0s7.57.56,7.57.56c1.8.27-2.38.21-2.15.42,5.48.07,2.3.4,5.93.64-.75-.33,1.9-.48,5.03-.35l-4.4-.43c7.66-.5,6.62.78,14.34.29l-2.44.3c3.96-.18,14.61,0,18.49-.75.71.11,1.63.37-.11.43,9.46.11,21.07-.8,28.43-.33l-.72.23c1.77-.06,3.07-.43,5.28-.2-.11.09-.71.23.11.24.94-.08,4.69-.4,7.03-.27l-2,.26c9.23.3,14.17-.63,21.91-.78-.02.67,7.25.89,10.88,1l-.13.09c10.76.08,18.27-.56,28.22-.82,6.18.73,20.94.31,30.87.72-1.52-.12.25-.53,2.01-.59,2.33.14,6.44-.47,6.07.15h-.83c1.76.6,6.55.43,10.29.45l.61-.81c9.79,1.17,25.64-.43,30.98.62,2.36-.21,5.28-.2,7.63-.4l-.13.43c6.54.11,9.81.16,17.89.06l-1.65.31c4.56.03,5.76-1.25,9.97-1.28l1.27.65c2.85,0,5.71.07,8.57.13l4.79.08,7.6.02-2.61-4.26Zm-14.96-63.59s0-.1,0-.14c.04.13.06.28,0,.5-.54,1.07-.84,1.38-1.03,1.48.27-.5.59-1.08,1.01-1.84Zm-6.85,4.81c-.19.34-.45.81-.91,1.63h0c.38-.68.71-1.26.92-1.63Zm-3.07,5.35c.31-.17.34.14-.06.8.1-.4-.91,1.11-1.63,2.04.47-.8,1.07-1.79,1.69-2.84ZM7.3,138.29h0s0,0,0,0c0,0,0,0,0,0Zm19.1-32.4c-.35.36-.29-.13.02-.66l.82-.97-.85,1.63Zm1.08-22.02c.11.18.2.34.31.51-.14-.14-.27-.33-.4-.53.03,0,.06,0,.09.02Zm-8.05-36.51c2,.02,4,.09,5.98.28-.73,0-1.63.07-2,.12l-.98.04c3.68-.38-1.55-.21-3-.44Zm100.65.47c-.14-.04-.34-.09-.62-.15,1.55.02,3.69.19,5.17.35-1.37-.06-3.29-.26-4.54-.21Zm26.99-.2c-.77,0-1.29-.07-1.7-.15.06-.01.1-.02.17-.03.96.05,1.39.11,1.54.18ZM30.56,141.63c.72,0,1.36.01,2.02.02-.33.05-.73.11-1.11.15l-.91-.17Z"/>
      <polygon class="cls-1" points="11.05 131.17 11.05 131.17 11.04 131.17 11.05 131.17"/>
      <path class="cls-1" d="m622.31,72.35c.08-.16.12-.24.22-.44-.16.2-.32.39-.48.58-.02.14-.04.29-.06.42.11-.19.22-.39.32-.56Z"/>
      <polygon class="cls-1" points="581.71 138.06 581.73 138.17 582.53 138.08 581.71 138.06"/>
      <path class="cls-1" d="m11.04,131.17c-.28.64-.55,1.26-.84,1.91.63-1,1.11-1.78.84-1.91Z"/>
      <path class="cls-1" d="m10.21,133.09c-.52.82-1.15,1.78-1.56,2.64.69-.98,1.17-1.83,1.56-2.64Z"/>
      <path class="cls-1" d="m150.48,47.93c-.42,0-.78,0-.91.05l.91-.05Z"/>
      <path class="cls-1" d="m279.15,141.14c1.01.24,3.62.39,5.22.16-2.09-.03-4.16-.22-5.22-.16Z"/>
      <polygon class="cls-1" points="555.27 142.09 558.78 141.96 557.13 141.93 555.27 142.09"/>
      <path class="cls-1" d="m126.19,48.24s-.03.04,0,.08c.28,0,.21-.04,0-.08Z"/>
      <path class="cls-1" d="m167.6,45.92c0,.08.07.16.12.24l.58.03-.71-.27Z"/>
      <path class="cls-1" d="m31.55,48.1c5.53.03.96-.08,1.44-.38-.33.13-.76.27-1.44.38Z"/>
      <path class="cls-1" d="m17.37,72.09c-.16-.19-.31-.38-.48-.58.1.2.14.28.22.44.1.17.21.37.32.56-.02-.13-.04-.28-.06-.42Z"/>
      <polygon class="cls-1" points="56.88 137.68 57.69 137.77 57.7 137.66 56.88 137.68"/>
      <polygon class="cls-1" points="80.64 141.55 84.15 141.69 82.28 141.53 80.64 141.55"/>
    </g>
  </g>
</svg>