<?xml version="1.0" encoding="UTF-8"?>
<svg id="CONTENTS" xmlns="http://www.w3.org/2000/svg" viewBox="0 0 24.33 99.06">
  <defs>
    <style>
      .cls-1 {
        fill: none;
        stroke: #000;
        stroke-miterlimit: 10;
        stroke-width: 1.8px;
      }
    </style>
  </defs>
  <g>
    <path d="m19.06,69.88v-4.79H5.85v-2.65h13.21v-4.75h2.15v12.18h-2.15Z"/>
    <path d="m13.13,84.15c-1.5,0-2.83-.26-3.96-.78-1.14-.52-2.01-1.26-2.62-2.23-.61-.97-.91-2.08-.91-3.34s.3-2.35.91-3.33,1.47-1.73,2.6-2.26c1.12-.53,2.42-.8,3.89-.81h.86c1.5,0,2.82.26,3.97.8,1.15.53,2.02,1.28,2.63,2.25.61.97.91,2.08.91,3.33s-.3,2.36-.9,3.33c-.6.97-1.47,1.71-2.59,2.24-1.13.53-2.44.79-3.94.8h-.85Zm.8-2.67c1.7,0,3.01-.32,3.91-.97.91-.64,1.36-1.56,1.36-2.74s-.45-2.06-1.36-2.71c-.9-.65-2.18-.98-3.83-1h-.89c-1.69,0-2.99.33-3.91.99-.92.66-1.38,1.57-1.38,2.74s.45,2.09,1.35,2.73c.9.64,2.21.96,3.94.96h.8Z"/>
    <path d="m11.55,89.48h-5.7v-2.67h15.36v5.88c0,1.72-.45,3.08-1.34,4.09-.89,1.01-2.08,1.51-3.55,1.51s-2.68-.49-3.52-1.48c-.84-.99-1.26-2.37-1.26-4.15v-3.17Zm2.15,0v3.21c0,.95.22,1.67.67,2.17.45.5,1.09.75,1.94.75s1.49-.25,1.99-.76c.5-.51.75-1.2.76-2.09v-3.28h-5.36Z"/>
  </g>
  <polyline class="cls-1" points="15.36 45.08 15.36 1.88 22.56 7.7"/>
</svg>